<svg width="39" height="40" viewBox="0 0 39 40" fill="none" xmlns="http://www.w3.org/2000/svg">
<path d="M19.8418 10.6011C19.6498 10.483 19.4108 10.4726 19.2093 10.5725L18.0854 11.1346L14.0447 10.6295L11.3192 7.904L11.5096 7.71355C11.5196 7.70356 11.5229 7.69023 11.5321 7.67983C11.5714 7.63531 11.6036 7.5868 11.6294 7.53326C11.6389 7.51351 11.6497 7.49548 11.657 7.47508C11.6826 7.40488 11.7 7.33152 11.7 7.254V4.004C11.7 3.71394 11.5077 3.45873 11.2287 3.37911L6.84044 2.12526L5.00955 0.294454C4.88767 0.172579 4.72233 0.104004 4.55 0.104004H0.65C0.291037 0.104004 0 0.395041 0 0.754004V8.554C0 8.63152 0.0173875 8.70488 0.0430625 8.77508C0.0504562 8.79548 0.0611812 8.8136 0.0706875 8.83326C0.096525 8.8868 0.1287 8.93523 0.168025 8.97983C0.177206 8.99023 0.180456 9.00356 0.19045 9.01355L4.74045 13.5636C4.86736 13.6905 5.03368 13.754 5.2 13.754H17.7982L18.9186 15.9947C19.0306 16.2185 19.2579 16.354 19.5 16.354C19.5495 16.354 19.5994 16.3483 19.6495 16.3365C19.9427 16.2673 20.15 16.0055 20.15 15.704V11.154C20.15 10.9287 20.0332 10.7195 19.8418 10.6011ZM11.9438 10.3669L9.19921 10.0239L10.4 8.82318L11.9438 10.3669ZM10.4 4.49435V5.68482L8.7334 4.0179L10.4 4.49435ZM1.3 1.404H4.2809L5.5809 2.704L1.3 6.9849V1.404ZM1.56918 8.554L6.5 3.62318L10.1309 7.254L5.2 12.1849L1.56918 8.554ZM6.76918 12.454L8.03481 11.1884L18.1194 12.449C18.1457 12.4525 18.1721 12.4541 18.1985 12.4541L6.76918 12.454ZM18.85 12.9507L18.7814 12.8133C18.6713 12.5933 18.4469 12.4543 18.2012 12.454C18.3012 12.4537 18.4005 12.4305 18.4907 12.3854L18.85 12.2058V12.9507Z" fill="#313131"/>
<path d="M22.5381 22.1041L20.0574 17.9695C19.8225 17.5779 19.1776 17.5779 18.9427 17.9695L16.4621 22.1041C15.4871 23.7285 15.9584 25.8241 17.5348 26.875C18.1319 27.273 18.8158 27.472 19.5001 27.472C20.1844 27.472 20.8684 27.2731 21.4654 26.875C23.0417 25.8241 23.5131 23.7285 22.5381 22.1041ZM20.7442 25.7933C19.9882 26.2973 19.0113 26.2967 18.2559 25.7933C17.2578 25.1281 16.9594 23.8014 17.5768 22.7731L19.5 19.5676L21.4234 22.7731C22.0407 23.8014 21.7424 25.1281 20.7442 25.7933Z" fill="#313131"/>
<path d="M35.75 9.204C37.542 9.204 39 7.74597 39 5.954C39 5.59504 38.709 5.304 38.35 5.304H35.75C35.0155 5.304 34.3449 5.55815 33.8 5.97066V4.004H35.75C37.542 4.004 39 2.54597 39 0.754004C39 0.395041 38.709 0.104004 38.35 0.104004H35.75C33.958 0.104004 32.5 1.56203 32.5 3.354V3.37066C31.9551 2.95815 31.2845 2.704 30.55 2.704H27.95C27.591 2.704 27.3 2.99504 27.3 3.354C27.3 5.14597 28.758 6.604 30.55 6.604H32.5V8.57066C31.9551 8.15815 31.2845 7.904 30.55 7.904H27.95C27.591 7.904 27.3 8.19504 27.3 8.554C27.3 10.346 28.758 11.804 30.55 11.804H32.5V13.7707C31.9551 13.3581 31.2845 13.104 30.55 13.104H27.95C27.591 13.104 27.3 13.395 27.3 13.754C27.3 15.546 28.758 17.004 30.55 17.004H32.5V18.9707C31.9551 18.5581 31.2845 18.304 30.55 18.304H27.95C27.591 18.304 27.3 18.595 27.3 18.954C27.3 20.746 28.758 22.204 30.55 22.204H32.5V24.1706C31.9551 23.7581 31.2845 23.504 30.55 23.504H27.95C27.591 23.504 27.3 23.795 27.3 24.154C27.3 25.946 28.758 27.404 30.55 27.404H32.5V29.3706C31.9551 28.9581 31.2845 28.704 30.55 28.704H27.95C27.591 28.704 27.3 28.995 27.3 29.354C27.3 31.146 28.758 32.604 30.55 32.604H32.5V34.9349L29.6309 37.804H23.0192L20.15 34.9349V31.954H22.1C23.892 31.954 25.35 30.496 25.35 28.704C25.35 28.345 25.059 28.054 24.7 28.054H22.1C20.308 28.054 18.85 29.512 18.85 31.304V31.3206C18.3051 30.9081 17.6345 30.654 16.9 30.654H14.3C13.941 30.654 13.65 30.945 13.65 31.304C13.65 33.096 15.108 34.554 16.9 34.554H18.85V34.9349L15.9809 37.804H9.36918L6.5 34.9349V33.904C6.5 32.112 5.04197 30.654 3.25 30.654H0.65C0.291037 30.654 0 30.945 0 31.304C0 33.096 1.45803 34.554 3.25 34.554H5.2V34.9349L2.3309 37.804H0V39.104H2.6C2.77233 39.104 2.93767 39.0354 3.05955 38.9135L5.85 36.1232L8.64045 38.9136C8.76232 39.0355 8.92767 39.1041 9.1 39.1041H16.25C16.4223 39.1041 16.5877 39.0355 16.7095 38.9136L19.5 36.1232L22.2904 38.9136C22.4123 39.0355 22.5777 39.1041 22.75 39.1041H29.9C30.0723 39.1041 30.2377 39.0355 30.3595 38.9136L33.15 36.1232L35.9404 38.9136C36.0623 39.0355 36.2277 39.1041 36.4 39.1041H39V37.8041H36.6691L33.8 34.9349V30.004H35.75C37.542 30.004 39 28.546 39 26.754C39 26.395 38.709 26.104 38.35 26.104H35.75C35.0155 26.104 34.3449 26.3581 33.8 26.7706V24.804H35.75C37.542 24.804 39 23.346 39 21.554C39 21.195 38.709 20.904 38.35 20.904H35.75C35.0155 20.904 34.3449 21.1581 33.8 21.5706V19.604H35.75C37.542 19.604 39 18.146 39 16.354C39 15.995 38.709 15.704 38.35 15.704H35.75C35.0155 15.704 34.3449 15.9581 33.8 16.3707V14.404H35.75C37.542 14.404 39 12.946 39 11.154C39 10.795 38.709 10.504 38.35 10.504H35.75C35.0155 10.504 34.3449 10.7581 33.8 11.1707V9.204H35.75ZM35.75 6.604H37.5886C37.3204 7.36068 36.5974 7.904 35.75 7.904H33.9114C34.1796 7.1474 34.9026 6.604 35.75 6.604ZM35.75 1.404H37.5886C37.3204 2.16068 36.5974 2.704 35.75 2.704H33.9114C34.1796 1.9474 34.9026 1.404 35.75 1.404ZM30.55 5.304C29.7026 5.304 28.9796 4.7606 28.7114 4.004H30.55C31.3974 4.004 32.1204 4.5474 32.3886 5.304H30.55ZM30.55 10.504C29.7026 10.504 28.9796 9.9606 28.7114 9.204H30.55C31.3974 9.204 32.1204 9.7474 32.3886 10.504H30.55ZM30.55 15.704C29.7026 15.704 28.9796 15.1606 28.7114 14.404H30.55C31.3974 14.404 32.1204 14.9474 32.3886 15.704H30.55ZM30.55 20.904C29.7026 20.904 28.9796 20.3606 28.7114 19.604H30.55C31.3974 19.604 32.1204 20.1474 32.3886 20.904H30.55ZM30.55 26.104C29.7026 26.104 28.9796 25.5606 28.7114 24.804H30.55C31.3974 24.804 32.1204 25.3474 32.3886 26.104H30.55ZM30.55 31.304C29.7026 31.304 28.9796 30.7606 28.7114 30.004H30.55C31.3974 30.004 32.1204 30.5474 32.3886 31.304H30.55ZM22.1 29.354H23.9386C23.6704 30.1107 22.9474 30.654 22.1 30.654H20.2614C20.5296 29.8974 21.2526 29.354 22.1 29.354ZM16.9 33.254C16.0526 33.254 15.3296 32.7106 15.0614 31.954H16.9C17.7474 31.954 18.4704 32.4974 18.7386 33.254H16.9ZM3.25 33.254C2.40256 33.254 1.6796 32.7106 1.41139 31.954H3.25C4.09744 31.954 4.8204 32.4974 5.08861 33.254H3.25ZM35.75 27.404H37.5886C37.3204 28.1607 36.5974 28.704 35.75 28.704H33.9114C34.1796 27.9474 34.9026 27.404 35.75 27.404ZM35.75 22.204H37.5886C37.3204 22.9607 36.5974 23.504 35.75 23.504H33.9114C34.1796 22.7474 34.9026 22.204 35.75 22.204ZM35.75 17.004H37.5886C37.3204 17.7607 36.5974 18.304 35.75 18.304H33.9114C34.1796 17.5474 34.9026 17.004 35.75 17.004ZM35.75 11.804H37.5886C37.3204 12.5607 36.5974 13.104 35.75 13.104H33.9114C34.1796 12.3474 34.9026 11.804 35.75 11.804Z" fill="#313131"/>
</svg>
