<?xml version="1.0" encoding="UTF-8" standalone="no"?>
<svg width="190px" height="120px" viewBox="0 0 190 120" version="1.1" xmlns="http://www.w3.org/2000/svg" xmlns:xlink="http://www.w3.org/1999/xlink">
    <!-- Generator: Sketch 41.2 (35397) - http://www.bohemiancoding.com/sketch -->
    <title>ILLU_CHAIN</title>
    <desc>Created with Sketch.</desc>
    <defs></defs>
    <g id="IMAGES" stroke="none" stroke-width="1" fill="none" fill-rule="evenodd">
        <g id="ILLU_CHAIN" fill="#554740">
            <g id="prop-ball-05d4be8" transform="translate(28.000000, 4.000000)">
                <g id="prison_ball">
                    <g id="IMAGES">
                        <g id="prison_ball">
                            <g id="IMG">
                                <path d="M43.5810854,58.2186475 C29.913961,58.2186475 18.8355955,46.631326 18.8355955,32.3392788 C18.8355955,22.6511048 23.9280905,14.2131035 31.4621404,9.77777778 C20.7175218,13.5190055 12.9677419,24.1136209 12.9677419,36.6073838 C12.9677419,52.2265782 25.073997,64.8888889 40.0088519,64.8888889 C53.2077154,64.8888889 64.1909059,54.9976614 66.5677419,41.9186266 C62.9257134,51.4674501 54.0097231,58.2186475 43.5810854,58.2186475" id="Fill-4"></path>
                                <path d="M76.9726385,85.3333333 C76.8647357,85.3333333 76.756833,85.3450265 76.6534261,85.3684128 C76.067454,85.4984992 75.6163604,85.9662256 75.3810724,86.6853548 C75.1712614,87.327017 75.1577735,88.1133819 75.3406088,88.8968231 C75.7017834,90.4373973 76.7253613,91.5555556 77.7759149,91.5555556 C77.8838177,91.5555556 77.9902218,91.5438622 78.0951274,91.5204764 C79.2341013,91.2661502 79.8110815,89.7168062 79.406446,87.9906037 C79.0452714,86.4514916 78.0216935,85.3333333 76.9726385,85.3333333 L76.9726385,85.3333333 L76.9726385,85.3333333 Z M78.5657034,88.1791559 C78.6766035,88.6541905 78.6930886,89.0926836 78.6451319,89.4697884 C78.3783722,89.1906142 78.1101139,88.7404276 77.946761,88.1367682 C77.8103839,87.6266541 77.7834082,87.1150784 77.8643353,86.7145877 C78.1580706,87.0609976 78.4203344,87.5608801 78.5657034,88.1791559 L78.5657034,88.1791559 L78.5657034,88.1791559 Z M77.9033002,90.7004933 C77.3353118,90.8232711 76.4945692,90.0456764 76.18285,88.709733 C76.0344837,88.0783024 76.041977,87.433717 76.2038312,86.9411427 C76.3387097,86.5231123 76.5739977,86.2497847 76.8452533,86.1883956 C76.8872155,86.1796257 76.9291777,86.1752408 76.9726385,86.1752408 C77.0235927,86.1752408 77.0775441,86.1883956 77.1314954,86.2015504 C76.9186872,86.78767 76.9007033,87.5638034 77.112013,88.35163 C77.3487997,89.224232 77.8103839,89.9535929 78.3513965,90.3409289 C78.2255099,90.5309422 78.0726476,90.6624907 77.9033002,90.7004933 L77.9033002,90.7004933 L77.9033002,90.7004933 Z" id="Fill-5"></path>
                                <path d="M126.250955,98.6666667 C126.143034,98.6666667 126.035113,98.67836 125.93019,98.703208 C125.345617,98.8332942 124.892948,99.3010204 124.659118,100.02015 C124.449272,100.661812 124.434283,101.446716 124.618648,102.231619 C124.979884,103.770731 126.003636,104.888889 127.052869,104.888889 C127.16079,104.888889 127.268711,104.877196 127.373634,104.85381 C127.958207,104.723723 128.410876,104.255996 128.644706,103.536868 C128.854552,102.895205 128.868042,102.110302 128.685176,101.325399 C128.32394,99.7848249 127.300188,98.6666667 126.250955,98.6666667 L126.250955,98.6666667 L126.250955,98.6666667 Z M127.181775,104.033827 C126.621185,104.159528 125.772805,103.380471 125.459533,102.044528 C125.312641,101.413098 125.320135,100.768512 125.480518,100.274476 C125.616919,99.8579076 125.850748,99.5831182 126.123548,99.5231902 C126.164019,99.5129591 126.207487,99.5085742 126.250955,99.5085742 C126.301918,99.5085742 126.355878,99.5217289 126.40834,99.5348836 C126.195496,100.122465 126.179008,100.897137 126.390354,101.684964 C126.625681,102.559027 127.088843,103.288388 127.629947,103.675724 C127.50404,103.864276 127.35265,103.995824 127.181775,104.033827 L127.181775,104.033827 L127.181775,104.033827 Z M127.920735,102.80166 C127.655429,102.521024 127.387125,102.0723 127.225243,101.471564 C127.087344,100.959988 127.061862,100.449874 127.142803,100.049383 C127.436588,100.394331 127.698896,100.895675 127.842792,101.512489 C127.947715,101.955368 127.970199,102.402631 127.920735,102.80166 L127.920735,102.80166 L127.920735,102.80166 Z" id="Fill-6"></path>
                                <path d="M129.949382,81.254834 C130.516106,81.254834 131.264489,80.9781592 131.63804,79.9307472 L133.808989,72.8623629 C133.834575,72.7885829 134.423047,71.0705637 133.39706,70.1061541 L133.394501,69.7346193 C133.334374,68.8413548 133.00176,68.1206826 132.406891,67.5910478 C131.255534,66.5686683 129.515704,66.6345433 129.267523,66.6503532 C128.91444,66.6279557 125.519213,66.4382358 122.658728,66.8967256 C121.495857,65.9744761 120.093759,66.035081 120.064335,66.040351 L112.241498,65.6661812 C112.000993,65.3644739 111.697802,65.0561789 111.315296,64.7729166 L111.227024,64.7083591 L103.387557,64.3091568 L98.5979089,63.0048324 L96.2018048,56.8165378 C95.7041625,55.2184109 94.9455453,54.8152562 94.5668768,54.7138087 L94.3059027,52.0182049 C94.2867131,51.9035825 93.8632696,49.4714786 92.3281258,49.1631837 L92.383135,45.2581156 C92.3946486,45.1250481 92.6044511,42.5427492 91.8266451,40.7285526 L91.9712043,40.7193301 L91.4633279,31.261002 C91.4044803,29.7445601 91.0309289,28.6905606 90.3541865,28.1240358 C90.1495002,27.952761 89.9448148,27.8539484 89.7593182,27.792026 L89.319244,21.4403614 C89.274469,19.7565972 88.6245915,19.01221 88.0936869,18.6815177 L88.2152198,18.5827052 L81.9914907,10.6039289 L81.9607878,10.6289613 L82.0413829,9.01107209 C82.0963922,8.7778747 82.2857266,7.76471767 81.7253991,6.75683063 C81.2392703,5.88201103 80.3412112,5.26937381 79.0759968,4.94131646 L77.5664388,4.44725419 C77.6815746,3.16005727 76.5059103,2.61066003 75.8637085,2.50130757 L70.2131001,1.44730805 C68.8660115,1.31555812 68.0920431,1.95059283 67.7069779,2.42884511 L64.9258091,2.26415768 C64.5062031,1.76877791 64.1556787,1.50791303 64.1416065,1.49869053 C58.9822441,-2.31547022 54.743968,2.34847764 54.7017515,2.39459012 L51.0238029,6.50387075 L51.1325422,6.6066357 C47.9023439,5.44460123 44.4367568,4.80429652 40.8266104,4.80429652 C23.5588015,4.80429652 9.50967742,19.2730749 9.50967742,37.0579993 C9.50967742,54.8429236 23.5588015,69.311702 40.8266104,69.311702 C58.0956986,69.311702 72.1448227,54.8429236 72.1448227,37.0579993 C72.1448227,28.2426108 68.6907491,20.2453894 63.1066637,14.4180896 L65.5808038,10.261379 L65.6076688,10.211314 C65.6358131,10.1467566 65.6588403,10.0835166 65.6857053,10.0202766 L69.4429696,9.95044916 C69.4826275,9.94386169 70.2015865,9.81738169 70.5713003,8.87009966 C70.7938962,9.41159191 71.0062577,9.60658187 71.0612671,9.64874178 L76.9945977,11.8660933 C76.8705069,12.0360508 76.7528126,12.2692481 76.705479,12.574908 C76.594181,13.3140252 76.9485434,14.1611772 77.7429803,15.0728868 L82.2396723,21.0596041 C82.0209143,21.4653939 81.7663363,22.1887011 81.9006613,23.2374306 L82.4533131,30.3189899 C82.4507546,30.3861823 82.421331,31.9724516 83.292525,32.7576812 C83.6021124,33.0383086 83.9795019,33.1792811 84.4144593,33.1858685 L84.4643515,39.3544007 C84.5231987,41.6508021 85.4302128,42.5546068 85.4378885,42.5572418 C85.6361779,42.8049316 85.8536566,43.001239 86.078811,43.1606564 L86.181154,49.5716085 C86.1287032,49.8772684 85.8843594,51.6190026 86.8451035,52.8376896 L88.1474175,62.5713751 C88.1602097,62.6332976 88.2459222,62.9481799 88.6335461,63.1945524 C88.9367371,63.3869072 89.3397123,63.4830847 89.8373546,63.4830847 C90.2300956,63.4830847 90.6868005,63.4198447 91.1972359,63.2986348 L91.7191849,64.4527643 C91.4710039,64.9705415 90.914514,66.3091209 91.2343357,67.4131854 C91.3904085,67.9546776 91.7268609,68.3657374 92.2360168,68.6331899 L99.0507762,70.7952063 L98.911334,70.8452713 C99.373156,72.2036132 101.170553,72.3564431 101.953477,72.3564431 C102.16328,72.3564431 102.300164,72.3459031 102.319353,72.3445856 L108.585298,72.2813457 C109.199355,72.9941128 110.135793,73.2945027 110.747292,73.3524727 L118.579084,73.90187 C118.76458,74.4644421 119.448999,75.6883991 121.926977,75.849134 L121.953842,75.8517691 L125.902999,75.5210767 L125.832639,75.6910341 C125.752043,75.6686366 124.557189,75.3708818 123.793456,76.3682288 L120.711655,78.8951926 C113.24318,75.7555916 104.657889,79.8240297 104.233166,80.0295596 C104.173039,80.0585446 104.121868,80.102022 104.077093,80.1494521 C103.573054,80.0045271 103.011447,79.9228421 102.412741,79.9228421 C102.307839,79.9228421 102.206775,79.9281122 102.104433,79.9320646 C101.19486,76.4433262 96.0342183,74.2365148 95.0645191,74.0151748 C87.3197185,72.2418207 82.5658903,76.7015562 81.3313788,78.0164205 L76.3216931,76.6396337 L72.9226288,78.6475028 C72.8266824,78.7107428 75.2189481,98.352024 75.2189481,98.352024 L85.6963044,101.893462 L85.6732772,101.661582 C88.4902664,97.972584 92.164377,96.2651049 94.9992758,96.4126649 C97.1471972,96.5246524 98.993208,98.2321316 99.4882922,98.735416 L99.4921298,98.7894338 C99.4921298,100.195205 101.234518,101.295317 103.457918,101.295317 C105.682597,101.295317 107.424985,100.195205 107.423706,98.752544 L107.401958,98.4086764 C108.433063,97.888264 112.215913,96.1689271 114.87427,97.4100116 C116.16507,98.0121093 117.024751,99.2690036 117.431564,101.147757 C117.458429,101.271603 117.524952,101.374367 117.613223,101.4521 L118.277172,108.743141 L129.161342,112 L133.156553,109.180551 L132.424801,90.0583653 L124.529045,88.6433707 C126.203631,87.7013586 126.377614,85.9359094 126.013017,84.3430526 C126.252244,84.1296178 128.155823,82.4353135 129.532335,81.0730191 L129.499073,81.1929116 C129.621885,81.2298016 129.776679,81.254834 129.949382,81.254834 L129.949382,81.254834 L129.949382,81.254834 Z M130.942109,79.6856923 C130.734864,80.2640745 130.390736,80.4406195 130.113131,80.4827794 C130.421439,80.1613096 130.668342,79.8806822 130.812901,79.6791048 C130.928036,79.5157348 131.013749,79.3431424 131.067478,79.1665975 C131.325894,78.3023179 130.769405,77.5750582 130.450862,77.2470009 L131.214596,74.951917 L130.8871,74.8372945 L131.765969,74.6976396 C132.113935,74.6409871 132.385144,74.4868396 132.601343,74.2839447 L130.942109,79.6856923 L130.942109,79.6856923 L130.942109,79.6856923 Z M127.523855,77.2417309 C127.422792,77.3827033 127.225781,77.7213007 127.302538,78.1508055 C127.367782,78.5065303 127.610846,78.8121901 128.006146,79.0691026 L126.975041,80.0150671 C126.270155,79.8767297 125.816008,79.6066423 125.629232,79.2113925 C125.352906,78.6277403 125.713665,77.9044331 125.730295,77.8688606 L128.525536,71.1048187 C129.230423,69.9823092 129.710156,69.8900843 129.812498,69.9361967 L129.894373,69.9941667 L130.6709,70.0613592 C130.693927,70.2668891 130.684972,70.4605615 130.672179,70.562009 L130.665783,70.6041689 L130.66962,70.6463289 C130.739981,71.5316885 130.542971,71.7833309 130.455979,71.8518409 C130.313979,71.9611933 130.093941,71.8768733 130.093941,71.8768733 L130.027419,71.8478884 L129.95322,71.8478884 C129.372424,71.8478884 129.116567,72.7108505 129.047485,73.0336378 L127.523855,77.2417309 L127.523855,77.2417309 L127.523855,77.2417309 Z M124.635226,81.4063465 L124.585334,81.354964 C124.19771,81.0058267 123.799852,80.6962143 123.395598,80.4050469 L124.818164,79.02299 C124.84375,79.1929475 124.883408,79.3668574 124.964003,79.5368148 C125.199392,80.0387821 125.653539,80.4010945 126.31365,80.6224343 L124.965282,81.8595663 C124.852705,81.6869739 124.741407,81.5301915 124.635226,81.4063465 L124.635226,81.4063465 L124.635226,81.4063465 Z M124.05443,69.7873193 L129.198441,69.332782 C128.766042,69.5528044 128.327247,70.0165642 127.888452,70.7214264 L127.205313,72.3735706 L123.520967,72.7082155 C123.590049,72.6133556 123.654013,72.5158605 123.712861,72.4130956 C124.282143,71.417066 124.159331,70.3050965 124.05443,69.7873193 L124.05443,69.7873193 L124.05443,69.7873193 Z M129.07435,75.1245093 L130.450862,74.9058044 L129.816337,76.8148611 L128.693123,76.1798264 L129.07435,75.1245093 L129.07435,75.1245093 L129.07435,75.1245093 Z M129.244496,67.4092329 L129.270081,67.4105504 L129.295667,67.4092329 C129.312298,67.4079154 130.948505,67.2946105 131.928439,68.1681125 C132.367233,68.5594099 132.614136,69.1048546 132.658911,69.7636044 L132.674263,72.0099408 C132.674263,72.0283858 132.646118,73.7872475 131.652113,73.9479824 L129.368587,74.3102948 L129.751093,73.2523428 C129.804823,73.0151928 129.908445,72.7477404 129.987761,72.633118 C130.198843,72.6818655 130.559602,72.712168 130.8871,72.4657956 C131.29775,72.1575007 131.473012,71.538276 131.40649,70.6239314 C131.432075,70.3920516 131.49476,69.4763894 130.963857,68.9164522 C130.751495,68.6937948 130.357475,68.4461049 129.7012,68.5264724 L122.337627,69.1799521 C122.285177,69.1786346 121.784976,69.1812696 121.380721,69.5949644 C121.121027,69.8637343 120.970071,70.2352691 120.924016,70.6963939 C120.770502,70.8320964 120.57605,70.9533063 120.408464,71.0310388 L118.955194,70.9533063 C119.075447,70.1680766 119.57181,68.4474224 121.626344,67.8795802 L121.738921,67.8505952 C124.719659,67.1286055 129.199721,67.4065979 129.244496,67.4092329 L129.244496,67.4092329 L129.244496,67.4092329 Z M113.230387,69.0034072 L118.727481,69.324877 C118.414056,69.9414668 118.278452,70.533024 118.222163,70.9150988 L112.666222,70.6199789 C112.892655,70.2089191 113.133161,69.6489819 113.230387,69.0034072 L113.230387,69.0034072 L113.230387,69.0034072 Z M120.064335,66.7979132 C120.07457,66.7965956 120.799925,66.7702457 121.566218,67.1127956 L121.408865,67.153638 C120.373923,67.4408529 119.674153,67.9876151 119.1957,68.5923474 L113.268766,68.2445275 C113.252135,67.9349151 113.200963,67.6134453 113.089666,67.2840705 C113.083269,67.2564029 112.998836,66.9125356 112.754493,66.4487758 L120.064335,66.7979132 L120.064335,66.7979132 L120.064335,66.7979132 Z M112.3835,67.4988228 C112.817178,68.7741623 112.200562,69.9862617 111.850037,70.533024 C111.399729,70.4342115 111.087582,70.2431741 110.925113,69.9625468 C110.609129,69.4184195 110.882897,68.6542699 110.940465,68.5106624 L110.958374,68.5093449 C110.830446,67.2261004 110.007865,67.0469205 109.925991,67.0337456 L102.142811,66.5317783 L102.089081,66.5436358 C101.581205,66.6674807 100.72792,67.259038 100.913417,68.6266023 C100.832822,68.5910299 100.748389,68.5488699 100.65756,68.4908999 L99.3526877,68.0653476 L99.4128139,66.6793382 C99.3565253,65.1273239 100.950517,64.9626365 101.088679,64.9494615 L103.264746,65.0601315 L103.391395,65.0943865 L103.397791,65.0667189 L110.971167,65.4540638 C112.086705,66.3222959 112.370706,67.4527104 112.3835,67.4988228 L112.3835,67.4988228 L112.3835,67.4988228 Z M108.137548,69.6015519 L104.558104,69.4777069 C104.597762,69.3314645 104.634861,69.1799521 104.663006,69.0192172 L104.891998,67.4685204 L108.523892,67.7030353 L108.137548,69.6015519 L108.137548,69.6015519 L108.137548,69.6015519 Z M102.435768,67.3104204 C102.36029,67.3565329 102.280974,67.3354529 102.248992,67.3235955 C102.231082,67.3170079 102.223406,67.3064679 102.210614,67.2972454 C102.211892,67.2972454 102.213172,67.2959279 102.214451,67.2959279 L102.434489,67.3104204 L102.435768,67.3104204 L102.435768,67.3104204 L102.435768,67.3104204 Z M101.673314,68.6937948 C101.486537,67.7741803 101.899747,67.4408529 102.133856,67.3288654 C102.135135,67.4105504 102.12746,67.5396653 102.095477,67.7412428 L101.723206,68.6648098 C101.710412,68.6727148 101.693782,68.6832548 101.673314,68.6937948 L101.673314,68.6937948 L101.673314,68.6937948 Z M89.1094407,43.5453663 L89.1068817,48.623009 C89.1068817,48.7890139 89.1043236,48.9457964 89.100486,49.0959913 C88.9802327,49.0986262 88.8382316,49.1118012 88.6847177,49.1368338 L88.7474029,43.6375913 C88.8766109,43.6112412 88.9955839,43.5796213 89.1094407,43.5453663 L89.1094407,43.5453663 L89.1094407,43.5453663 Z M88.3239586,32.7379188 L88.7103031,39.0368834 C88.0335607,39.1725858 87.6139548,39.4453082 87.3593765,39.6995856 L86.9909422,32.8723036 C87.0804922,32.8788912 87.1841148,32.8854787 87.3082049,32.8854787 C87.5934866,32.8854787 87.9580833,32.8525412 88.3239586,32.7379188 L88.3239586,32.7379188 L88.3239586,32.7379188 Z M89.3038919,39.7193481 C89.8488682,39.6785056 90.2876638,39.8445105 90.6433049,40.2173628 C91.9443395,41.5836097 91.6526621,45.1540331 91.647545,45.2185906 L91.557995,51.7336251 C91.4466972,52.5939522 91.1562993,53.1802394 90.6944765,53.4740418 C90.3119696,53.7177791 89.8757331,53.7190966 89.5776591,53.6808892 L89.3768113,52.3330873 C89.5456772,51.9786799 89.833517,51.0234929 89.8437511,48.625644 L89.8437511,42.096117 C89.7260568,41.1106274 89.5175329,40.7628076 89.3627396,40.6442326 L89.2386486,40.5480552 L89.0864134,40.5730876 C88.3802472,40.6850751 87.9632003,40.5809926 87.716298,40.4347502 C87.8045685,40.2753328 88.1576516,39.801033 89.3038919,39.7193481 L89.3038919,39.7193481 L89.3038919,39.7193481 Z M89.8527058,54.4595313 C90.2224196,54.4595313 90.6624946,54.3844339 91.0757039,54.123569 C91.3162097,53.9720565 91.520896,53.7717966 91.6935995,53.5267418 L91.8829338,55.9114156 L90.8940449,56.4871628 C90.7571617,56.5280053 90.4027991,56.6518503 90.0599502,56.9166677 L89.6927954,54.4542613 C89.743967,54.4568964 89.7976966,54.4595313 89.8527058,54.4595313 L89.8527058,54.4595313 L89.8527058,54.4595313 Z M90.1558968,57.9140148 C90.4539707,57.381745 91.1115243,57.2117876 91.1179208,57.21047 L91.9494565,56.7374877 L92.0492407,57.9996522 C91.7127883,58.2987245 91.4390211,58.7941044 91.5746257,59.539809 C91.5848598,59.5964614 91.5976529,59.6544315 91.6142836,59.7150364 C91.9468984,61.0140908 93.893972,65.3170438 93.975846,65.4988588 L94.025739,65.6082112 L94.1268027,65.6674987 C94.1715777,65.6938487 94.3621914,65.7952961 94.6794541,65.7952961 C94.795869,65.7952961 94.9289146,65.7808036 95.0773122,65.7452311 L95.5391341,65.4817313 L95.5071522,65.4277138 L96.9821698,65.8163761 L96.1762194,66.2880409 C95.0031134,67.0996205 94.3340471,67.1312405 93.9796845,67.016618 C93.6125288,66.8954081 93.4922763,66.5818433 93.4743662,66.5383658 L90.0842569,59.0576042 C89.960166,58.605702 89.9831933,58.2209921 90.1558968,57.9140148 L90.1558968,57.9140148 L90.1558968,57.9140148 Z M98.8998204,65.5383837 L95.0427713,64.5225917 C94.9967168,64.4870192 94.9417077,64.4580342 94.8751849,64.4422243 C94.6935258,64.3987468 94.5233813,64.4659392 94.371146,64.5713392 C94.2189108,64.2274718 94.0142254,63.7650296 93.7929084,63.2525223 L93.8594312,63.2696498 C93.9182788,63.0206424 94.0193424,62.850685 94.1626222,62.7650476 C94.3801007,62.6359325 94.6525893,62.7136651 94.666661,62.718935 L100.483577,64.3025693 C99.8976639,64.4725268 99.2362728,64.8466965 98.8998204,65.5383837 L98.8998204,65.5383837 L98.8998204,65.5383837 Z M94.8700678,61.9890404 C94.8687883,61.9890404 94.8623918,61.9877228 94.8598337,61.9864053 C95.0760327,61.745303 95.1732588,61.5331856 95.1822135,61.5121056 L95.2193133,61.4225156 L95.1822135,61.0483458 L95.6542704,62.2037928 L94.8700678,61.9890404 L94.8700678,61.9890404 L94.8700678,61.9890404 Z M96.5638434,66.9336156 L98.0094371,66.0864635 L98.6951341,66.2682784 C98.6810624,66.3973933 98.6721069,66.5317783 98.6772239,66.6767032 L98.6273318,67.8281977 L96.3310127,67.0785405 C96.4090492,67.0284756 96.483248,66.9889506 96.5638434,66.9336156 L96.5638434,66.9336156 L96.5638434,66.9336156 Z M95.5097112,57.0734501 L97.7126427,62.76373 L96.5536084,62.4488476 L94.9340316,58.484492 L94.6525893,55.5978508 C94.8969326,55.7849357 95.2346645,56.192043 95.5097112,57.0734501 L95.5097112,57.0734501 L95.5097112,57.0734501 Z M93.5754298,52.1196524 L94.4658131,61.2868132 C94.3570734,61.4646756 94.0142254,61.8981329 93.2504911,61.9785004 C93.0483637,61.4962956 92.8590295,61.0259484 92.6991182,60.6096185 C92.7042353,60.6043485 92.7106319,60.6017135 92.7157489,60.5964435 C92.9332283,60.3711511 92.9409035,60.0167437 92.939624,59.9205663 L92.8193716,58.405442 C92.8257681,58.4041245 92.8347228,58.400172 92.8385604,58.3988545 L92.8104161,58.2921371 L92.3409181,52.3686597 L92.1797282,52.3818348 L92.3409181,52.3673423 L92.291026,51.770515 L92.3166122,49.9457784 C93.2607252,50.3054557 93.5754298,52.1196524 93.5754298,52.1196524 L93.5754298,52.1196524 L93.5754298,52.1196524 Z M89.8898057,28.7142756 C90.2377717,29.0041254 90.6650527,29.6865901 90.7290174,31.2965744 L91.1780471,39.6969506 C91.1754881,39.6943156 91.17293,39.6903631 91.170371,39.6864106 C90.7059901,39.1989358 90.1213559,38.9657384 89.4433341,38.9683734 L89.0390803,32.3835114 C89.0441974,32.3795589 89.0493144,32.3769239 89.0544315,32.3729714 C89.5546327,32.0001191 89.8578229,31.4454518 89.955049,30.7274147 L89.9614455,30.6878897 L89.8207239,28.6628932 C89.8437511,28.6800206 89.8667784,28.6945131 89.8898057,28.7142756 L89.8898057,28.7142756 L89.8898057,28.7142756 Z M88.5836541,21.4772514 L89.2207385,30.6602222 C89.1465396,31.1529669 88.9520883,31.5126443 88.6245915,31.7576992 C88.0412367,32.195109 87.2097002,32.137139 86.9500047,32.1068365 L86.8374283,30.0225525 C86.9896627,29.9777575 87.1585286,29.8894851 87.3120433,29.7234801 C87.753397,29.2465453 87.8314334,28.3888532 87.5487115,27.1029739 L87.0920058,21.4838389 C87.0881682,21.4416789 86.9986182,20.4693644 86.2898932,20.017462 C85.8997109,19.7684547 85.4199785,19.7315647 84.8634888,19.9041572 L84.4899372,19.4430324 L87.3632149,19.18085 C87.5487115,19.2177399 88.531203,19.5115423 88.5836541,21.4772514 L88.5836541,21.4772514 L88.5836541,21.4772514 Z M85.3061219,27.7564535 L84.9197775,23.0384882 C84.9607146,23.0398057 85.0016518,23.0463932 85.0438682,23.0463932 C85.5108078,23.0463932 85.9803059,22.9054207 86.4459662,22.6326984 L86.8169591,27.1925638 L86.8246352,27.2452637 C86.8259147,27.2505338 86.8259147,27.2531688 86.8271933,27.2584388 C86.1798746,27.2439462 85.6796737,27.4534286 85.3061219,27.7564535 L85.3061219,27.7564535 L85.3061219,27.7564535 Z M80.9514308,13.6434 L84.9696696,18.6380402 L83.9168169,18.7342177 L79.8141451,13.6605275 C79.9868488,13.693465 80.1876968,13.7198149 80.398779,13.7198149 C80.581717,13.7198149 80.7710514,13.6961 80.9514308,13.6434 L80.9514308,13.6434 L80.9514308,13.6434 Z M87.1572491,18.4377803 L85.860053,18.5563552 L81.582119,13.2389276 C81.7138856,13.0781927 81.8111113,12.8871553 81.8597242,12.6605454 L81.9070578,11.7066758 L87.1572491,18.4377803 L87.1572491,18.4377803 L87.1572491,18.4377803 Z M81.081918,7.12441296 C81.5539747,7.96497757 81.3237032,8.84111468 81.3224238,8.84770218 L81.1343688,12.524843 C81.0947109,12.6816254 81.0205122,12.7870253 80.89898,12.8568528 C80.5395006,13.0637003 79.8755509,12.9135053 79.6145765,12.8278678 C79.6695857,12.5525105 79.8256587,12.2363107 80.206886,11.9714932 L80.371914,11.8555533 L80.3105082,8.49988233 C80.2273547,7.83586264 79.835893,6.74497314 78.8968968,6.74497314 L78.8725903,6.74497314 L74.6790892,5.52892119 C74.6074491,5.5065237 72.9827553,5.02695392 72.3098506,5.92812351 L71.1879164,5.69492612 L71.208385,5.62246364 C71.7763882,3.87941195 73.7298587,4.04673437 74.0036259,4.07835436 L78.8751488,5.66989363 C79.9535874,5.9518385 80.6968528,6.44063077 81.081918,7.12441296 L81.081918,7.12441296 L81.081918,7.12441296 Z M71.0036991,7.77130516 L70.9729963,7.77789267 L67.2860926,7.29700539 C67.1249025,7.20082793 66.6183051,6.86091308 66.4686286,6.34577082 C66.4635115,6.18635339 66.4596735,6.02825347 66.4443221,5.87147103 C66.4916557,5.58820867 66.6387737,5.2878188 66.8971896,4.97161894 L68.3044047,4.94395146 C68.314639,4.98347644 68.3261525,5.03749392 68.3376662,5.10205139 L68.1841518,5.0704314 L68.0383131,5.81481856 L73.1836033,6.88331057 C73.3320006,6.91888306 73.8232465,7.02296551 74.3311233,7.02296551 C74.73154,7.02296551 75.1421909,6.95709054 75.401886,6.74365564 C75.4645711,6.69227316 75.513184,6.63298569 75.5554004,6.57106322 L76.495676,6.84378559 C76.4828831,7.14812795 76.4125224,7.78579766 76.0440878,8.12176001 C75.8138163,8.33124241 75.4914361,8.39184738 75.0436859,8.30884492 L71.0062577,7.78184516 C71.0049784,7.77789267 71.0036991,7.77525766 71.0036991,7.77130516 L71.0036991,7.77130516 L71.0036991,7.77130516 Z M61.4052127,6.65011318 L61.3693927,5.11127388 C61.3898612,5.0822889 61.4742941,5.02300142 61.6777007,4.98742894 C62.1446403,5.77661108 62.0512524,6.70149565 61.8504044,7.40504033 C61.6239707,7.29305288 61.3783477,7.07566548 61.4052127,6.65011318 L61.4052127,6.65011318 L61.4052127,6.65011318 Z M62.1446403,4.2021993 C61.5331413,4.18243681 61.0969047,4.31023425 60.8461645,4.57768662 C60.6760194,4.75950155 60.624848,4.97557144 60.6325237,5.10073388 L60.669623,6.63298569 C60.6158929,7.45774031 61.1122561,7.90569011 61.5945471,8.119125 C61.4947628,8.3444174 61.4167263,8.48275484 61.4128884,8.48934234 L61.098184,9.04664462 C60.4457478,9.03873956 59.950664,8.86482966 59.6410766,8.50646983 C59.0526049,7.82532264 59.2381014,6.70017815 59.2393807,6.69095566 L59.3174172,5.02300142 C59.3289307,4.12710183 59.5348959,3.46044714 59.9161232,3.0954998 C60.2730441,2.75163246 60.6734609,2.77139495 60.696488,2.77271245 L64.2324358,2.98219485 C64.2477872,3.00195735 64.2631387,3.01908484 64.2784901,3.03884733 L64.3373373,2.98878236 L68.0076102,3.20748725 L68.0638988,3.23251974 C68.0638988,3.23251974 68.0677366,3.22329724 68.0741331,3.21143975 L69.9022335,3.3194747 C70.0634236,3.3273797 70.1760008,3.38534967 70.2668301,3.50787711 C70.5725796,3.91498443 70.5444353,4.89388648 70.4433716,5.54077868 L69.1026794,5.26146882 C69.0272015,4.58427412 68.877525,4.26148677 68.5909649,4.16662682 C68.4668741,4.12578433 68.3530175,4.14291182 68.2583503,4.1850718 L62.1446403,4.2021993 L62.1446403,4.2021993 L62.1446403,4.2021993 Z M55.60109,8.62899727 L57.9319499,5.43537874 C58.1391943,5.18900635 58.3592316,4.97952395 58.5895031,4.80693152 C58.5869446,4.871489 58.5818274,4.93472896 58.5805481,5.00060393 L58.5101874,6.58292071 C58.4782052,6.79767311 58.3157359,8.10726751 59.0858663,9.00580213 C59.468373,9.45111689 60.0005562,9.71329929 60.6798572,9.79103173 L59.7741224,11.3996985 C58.4602952,10.3680964 57.065873,9.43925938 55.60109,8.62899727 L55.60109,8.62899727 L55.60109,8.62899727 Z M73.3882891,6.15209841 C73.7810301,6.09808093 74.2607625,6.19294089 74.4756826,6.25749836 L74.4846377,6.26013336 C74.1673746,6.27462585 73.7528858,6.23246587 73.3882891,6.15209841 L73.3882891,6.15209841 L73.3882891,6.15209841 Z M76.531496,8.68960225 C77.0355349,8.23242996 77.1800943,7.51044028 77.2197522,7.05326799 L78.7919952,7.50912278 L78.8559596,7.50517028 C79.416287,7.46696281 79.5736393,8.55653481 79.5761978,8.55653481 L79.5761978,8.55521731 L79.5966665,9.68563182 C79.5557293,9.69880676 79.5147921,9.71329929 79.4751342,9.72910924 L76.4521803,8.74888972 C76.477766,8.72912723 76.5071896,8.71199973 76.531496,8.68960225 L76.531496,8.68960225 L76.531496,8.68960225 Z M71.2147814,4.08494185 L71.3452687,4.10338684 C71.30689,4.13632433 71.2672322,4.16399181 71.2301328,4.1995643 C71.226295,4.16135682 71.2198985,4.12314933 71.2147814,4.08494185 L71.2147814,4.08494185 L71.2147814,4.08494185 Z M70.1133157,2.19828271 L75.7370591,3.24832973 C75.8496363,3.26940972 76.7579297,3.46176464 76.8244526,4.20483429 L74.1942396,3.34582469 L74.1341131,3.3313322 C73.6671736,3.26282223 72.9584488,3.28653722 72.2778685,3.5447671 C72.2254177,3.49601962 72.1640119,3.45781214 72.0898134,3.44727214 L70.9960234,3.28521972 C70.9538069,3.20089976 70.9064734,3.11921479 70.8501847,3.04411732 C70.627589,2.74767996 70.3128844,2.58167504 69.9418913,2.56191255 L68.7495963,2.49076758 C69.069418,2.29050767 69.5133304,2.14163024 70.1133157,2.19828271 L70.1133157,2.19828271 L70.1133157,2.19828271 Z M55.4258277,3.07837231 C55.5716663,2.91368489 58.9988749,-0.846458393 63.3548453,2.17061523 L60.7476594,2.0164678 C60.7156773,2.0125153 60.0299797,1.96376782 59.4312737,2.52370507 C59.1575063,2.78061745 58.9489827,3.1178973 58.8069819,3.5302746 C58.2146722,3.79113948 57.6684169,4.2061518 57.1682159,4.80034403 L54.7145444,8.15996748 C53.8267196,7.7054302 52.9145884,7.29437038 51.9807092,6.92678805 L55.4258277,3.07837231 L55.4258277,3.07837231 L55.4258277,3.07837231 Z M40.8266104,67.5409828 C24.5067528,67.5409828 11.2277592,53.8666566 11.2277592,37.0579993 C11.2277592,20.249342 24.5067528,6.57501572 40.8266104,6.57501572 C57.1490266,6.57501572 70.4267409,20.249342 70.4267409,37.0579993 C70.4267409,53.8666566 57.1490266,67.5409828 40.8266104,67.5409828 L40.8266104,67.5409828 L40.8266104,67.5409828 Z M62.3851462,13.6961 C61.795395,13.1177177 61.1864547,12.5604155 60.5544872,12.0307807 L62.2572175,9.00580213 C62.3135061,8.90830711 63.4942875,6.85169059 62.7599771,4.95844396 L65.2724957,4.95185645 C65.6946603,6.40637579 65.5130016,8.02163005 64.7300782,9.7567768 L62.3851462,13.6961 L62.3851462,13.6961 L62.3851462,13.6961 Z M69.3444646,9.19683956 L65.983779,9.25612702 C66.1206627,8.86482966 66.2306813,8.47748484 66.3099971,8.09541002 L67.4779856,8.09541002 L67.4779856,8.06642503 L69.9482878,8.39579988 C69.7743049,9.02161209 69.4301768,9.17048951 69.3444646,9.19683956 L69.3444646,9.19683956 L69.3444646,9.19683956 Z M71.244205,8.5670748 L74.9311087,9.05850204 C75.0961366,9.08880453 75.2522096,9.10461458 75.4006068,9.10461458 C75.419796,9.10461458 75.4364268,9.10066204 75.4543368,9.10066204 L75.4210753,9.21001449 L78.661508,10.2600615 L77.5920245,11.2824411 L71.4821523,9.01502462 C71.4373772,8.95837209 71.3465479,8.82135219 71.244205,8.5670748 L71.244205,8.5670748 L71.244205,8.5670748 Z M77.4321137,12.7066579 C77.4820059,12.3338056 77.7365838,12.1651657 77.741701,12.1612132 L79.2346284,10.7488538 C79.2359076,10.7462188 79.3907013,10.6078813 79.6107385,10.4945764 L79.6286485,11.4682084 C78.7280309,12.2139132 78.7855988,13.2692301 78.9531853,13.7461649 L84.631938,20.8026917 L84.8788403,20.7025618 C85.3163563,20.5233819 85.659205,20.5102068 85.8997109,20.6617193 C86.2937312,20.9094092 86.3576954,21.5444439 86.3576954,21.5483964 L86.3756054,21.7710538 C85.8574944,22.1557636 85.3457799,22.3296735 84.8558131,22.2730211 L84.8558131,22.2717036 L84.841741,22.2730211 C84.832786,22.2717036 84.8251103,22.2743385 84.8161553,22.2730211 C83.9820604,22.1583986 83.4511566,21.433774 83.4409223,21.4192814 L78.3084249,14.588047 C77.4999159,13.6578924 77.3847801,13.0505252 77.4321137,12.7066579 L77.4321137,12.7066579 L77.4321137,12.7066579 Z M83.778654,32.1885215 C83.2720565,31.7326667 83.1812271,30.6984297 83.1876235,30.2992274 L82.6336925,23.1570631 C82.5518182,22.5259809 82.636251,22.0582686 82.747549,21.7367988 L82.8524505,21.8751362 C82.8754777,21.9093912 83.3539308,22.5589184 84.1662777,22.8738008 L84.631938,28.5601282 L84.6562444,28.5588107 C84.5180815,28.818358 84.43109,29.0765879 84.3901528,29.2900228 L84.3824771,29.3282303 L84.4080628,32.4269889 C84.1573227,32.4190839 83.948799,32.3426689 83.778654,32.1885215 L83.778654,32.1885215 L83.778654,32.1885215 Z M85.2012205,39.3412257 L85.1193462,29.4033277 C85.1743554,29.1714479 85.533835,27.9066484 86.9525637,28.0265409 C87.028042,28.794643 86.8732478,29.092398 86.7849772,29.1938453 C86.669841,29.3242778 86.5227237,29.3097853 86.5150476,29.3084678 L86.0583424,29.2254653 L86.6506522,40.1791554 C86.6608863,40.2371253 86.9269783,41.5677997 88.9444123,41.3556823 C88.9943053,41.4913847 89.0595486,41.7338046 89.1107201,42.1422294 L89.1107201,42.7482792 C88.623312,42.930094 87.0497898,43.3754089 85.9726302,42.0394645 C85.9662338,42.032877 85.2511126,41.2871724 85.2012205,39.3412257 L85.2012205,39.3412257 L85.2012205,39.3412257 Z M87.932497,43.7258637 C87.9593619,43.7258637 87.9836686,43.7219112 88.009254,43.7219112 L87.9452902,49.3818886 C87.7866584,49.4648911 87.6293061,49.5610685 87.4834674,49.696771 C87.19179,49.9681759 86.9871046,50.3199482 86.8642931,50.7481356 C86.8233557,50.1565783 86.9090682,49.6875485 86.9116263,49.678326 L86.9193023,49.6374836 L86.8220762,43.5414138 C87.1930695,43.6705287 87.5730174,43.7258637 87.932497,43.7258637 L87.932497,43.7258637 L87.932497,43.7258637 Z M88.8663759,62.3987827 L87.5538286,52.5860472 L87.58709,52.5504747 C87.5704593,52.5346647 87.5576662,52.5175372 87.542315,52.5004097 L87.4706751,51.9615524 C87.4348548,51.1802753 87.6037207,50.609798 87.9734345,50.2632957 C88.3150039,49.9444609 88.7691507,49.8667284 89.0723417,49.8548709 C88.9751156,51.5623501 88.7115826,52.0116174 88.7141415,52.0116174 L88.6028429,52.1446849 L89.4356589,57.7295648 C89.2412067,58.1867371 89.2169009,58.7111019 89.3844873,59.2987066 L90.8761356,62.5924551 C89.4599648,62.892845 88.9508089,62.5779626 88.8663759,62.3987827 L88.8663759,62.3987827 L88.8663759,62.3987827 Z M91.9405019,67.198433 C91.7716359,66.6187332 91.9443395,65.9046486 92.1362327,65.3723788 L92.7937854,66.8229457 C92.8756602,67.0680005 93.1673376,67.5357128 93.7327821,67.7307028 C93.9131617,67.7926252 94.1063335,67.8242452 94.3122984,67.8242452 C94.6474722,67.8242452 95.017186,67.7372902 95.4124851,67.5739204 L100.31599,69.1654596 C100.74711,69.4236895 101.107869,69.5106444 101.399545,69.5106444 C101.98418,69.5093269 102.28993,69.1615071 102.307839,69.1391096 L102.79141,67.9915676 L102.815716,67.9112002 C102.847698,67.7188452 102.872005,67.5212204 102.870725,67.3380879 L104.15385,67.4210904 L103.93765,68.8940548 C103.79565,69.6977293 103.483504,70.2589841 103.010168,70.562009 C102.315515,71.0086412 101.467348,70.7688564 101.46479,70.7675388 L92.5443249,67.9428202 C92.2334579,67.7715452 92.035169,67.5278078 91.9405019,67.198433 L91.9405019,67.198433 L91.9405019,67.198433 Z M102.284812,71.5870235 C102.266902,71.588341 100.721524,71.6976934 99.9616278,71.0850562 L101.253708,71.4934811 C101.278014,71.501386 101.585042,71.590976 102.011045,71.590976 C102.412741,71.590976 102.918059,71.511926 103.391395,71.2102187 C103.755992,70.9783388 104.047669,70.6476464 104.267707,70.2273641 L107.985313,70.3551615 L107.980196,70.377559 L107.97252,70.4447515 C107.959727,70.8571288 108.024971,71.2154886 108.141385,71.527736 L102.284812,71.5870235 L102.284812,71.5870235 L102.284812,71.5870235 Z M108.708109,70.498769 L109.265878,67.7504652 L109.83644,67.7873552 C109.897846,67.8150227 110.107649,67.9415027 110.197199,68.3960399 C110.06927,68.7939248 109.882494,69.6397594 110.289308,70.3472565 C110.632157,70.9414488 111.292268,71.2813636 112.258129,71.3577786 L120.535113,71.7978234 L120.609312,71.7675209 C120.697582,71.7306309 121.254072,71.485576 121.612272,71.0494837 L121.640417,71.0494837 C121.640417,71.0363087 121.641696,71.0257687 121.641696,71.0125938 C121.783696,70.8294613 121.892436,70.6160264 121.911625,70.3657015 L121.75939,70.3538441 C121.796489,70.2721591 121.838706,70.1983791 121.894994,70.1404092 C122.080491,69.9427843 122.317159,69.9375142 122.361934,69.9361967 L123.313723,69.8518768 C123.394318,70.1957441 123.559346,71.1851861 123.078334,72.0297033 C122.708621,72.675278 122.025482,73.1074178 121.046828,73.3155827 L110.807418,72.5975455 C110.720427,72.588323 108.678686,72.3630307 108.708109,70.498769 L108.708109,70.498769 L108.708109,70.498769 Z M126.13455,74.7397996 L121.947445,75.0902544 C120.338103,74.9795844 119.684388,74.3840747 119.419575,73.9611574 L121.09544,74.0784148 L121.142774,74.0691924 C121.74276,73.9466649 122.255753,73.7503575 122.681756,73.4802701 L122.686873,73.5448276 L126.879095,73.1640702 L126.148622,74.9268844 L126.13455,74.7397996 L126.13455,74.7397996 L126.13455,74.7397996 Z M124.28726,76.933436 L124.352504,76.8636085 C124.727335,76.3497838 125.299176,76.3708638 125.537123,76.4051188 L125.066345,77.5421208 C125.05995,77.5566132 124.998544,77.6804582 124.937137,77.8662256 L122.76363,79.9755421 C122.338907,79.7041372 121.909067,79.4564474 121.47283,79.2403775 L124.28726,76.933436 L124.28726,76.933436 L124.28726,76.933436 Z M100.021754,89.7671973 L99.6686709,84.2521452 C100.377396,84.67638 101.336861,84.9359274 102.412741,84.9359274 C103.607594,84.9359274 104.659168,84.615775 105.380685,84.1045852 L105.752957,89.9147573 C105.261712,90.3692951 104.119309,90.9094693 102.905266,90.9094693 C101.610628,90.9094693 100.432405,90.2520373 100.021754,89.7671973 L100.021754,89.7671973 L100.021754,89.7671973 Z M105.274505,82.428726 C105.274505,83.0756182 104.050227,83.7976079 102.412741,83.7976079 C100.798281,83.7976079 99.5880764,83.0953807 99.554815,82.4563935 L99.552256,82.4208211 C99.5624902,81.7765638 100.781651,81.0611617 102.412741,81.0611617 C104.050227,81.0611617 105.274505,81.7831513 105.274505,82.428726 L105.274505,82.428726 L105.274505,82.428726 Z M76.4828831,77.7002207 L81.7612191,79.1534225 L81.800877,79.05461 C82.0145178,78.7950627 87.1227091,72.7003105 95.0632396,75.0283319 C95.1156907,75.0415069 99.7441492,76.3405613 101.032391,79.8490622 L100.277612,80.3088695 C99.9910516,80.4221744 99.7313561,80.5591944 99.5010845,80.7146593 C98.5863953,79.199535 95.747658,75.5513792 90.1162389,76.5684887 C89.8987603,76.6066962 85.9739095,77.2246034 82.8780362,81.1691966 L74.5946563,78.7331402 L76.4828831,77.7002207 L76.4828831,77.7002207 L76.4828831,77.7002207 Z M76.0517636,97.4324089 L74.0368874,79.5460373 L82.510881,82.1112087 C82.5275118,82.1480987 82.5454218,82.1836711 82.5671696,82.2166086 L84.3709635,100.30324 L76.0517636,97.4324089 L76.0517636,97.4324089 L76.0517636,97.4324089 Z M95.1003395,95.1531351 C91.9545736,94.9726382 89.1618917,96.5048898 85.515925,100.077948 L83.7236446,82.0216187 C85.5530243,78.7067902 90.2761501,77.8227481 90.3260422,77.8135256 C95.7860365,76.8293536 98.1437622,80.7251993 98.6273318,81.6658939 C98.510917,81.9056788 98.4469523,82.1612737 98.4469523,82.428726 C98.4469523,82.439266 98.4482318,82.447171 98.4482318,82.457711 C98.4495113,82.460346 98.4469523,82.462981 98.4469523,82.4669335 L99.3718765,96.918584 C98.7386297,96.3309796 97.3109461,95.2796151 95.1003395,95.1531351 L95.1003395,95.1531351 L95.1003395,95.1531351 Z M103.457918,100.158316 C101.820431,100.158316 100.596154,99.435008 100.596154,98.752544 L100.133053,91.5049796 C100.828984,91.9226267 101.799963,92.1742693 102.905266,92.1742693 C104.105237,92.1742693 105.141459,91.877832 105.846346,91.3956267 L106.319681,98.7894338 C106.319681,99.435008 105.095405,100.158316 103.457918,100.158316 L103.457918,100.158316 L103.457918,100.158316 Z M115.330976,96.3731396 C112.50759,95.05564 108.855228,96.468 107.323921,97.1873547 L106.433538,83.2547981 C107.813889,82.7067184 113.543812,80.6843568 118.073765,82.8648183 C118.810635,83.2113206 120.727006,84.4300076 120.739799,85.8713519 C120.750033,87.0992614 119.85965,88.3377108 116.605145,89.6921004 L116.541181,89.6802427 L117.299798,98.0200142 C116.776569,97.2953893 116.120295,96.7420391 115.330976,96.3731396 L115.330976,96.3731396 L115.330976,96.3731396 Z M119.292926,107.853829 L117.450754,90.6367476 L127.503386,92.4772942 L128.383535,110.694358 L119.292926,107.853829 L119.292926,107.853829 L119.292926,107.853829 Z M132.009033,108.633789 L129.354514,110.620578 L128.576708,92.2967964 L131.449985,90.7526871 L132.009033,108.633789 L132.009033,108.633789 L132.009033,108.633789 Z M124.119673,87.9727635 L122.880045,89.0544302 L130.650431,90.3679778 L127.752847,91.7566213 L118.426849,90.0267449 C120.697582,88.7145156 121.856616,87.3495863 121.843823,85.8608119 C121.823354,83.4089456 118.668634,81.8925037 118.538147,81.8318988 C113.848283,79.5750223 108.233494,81.349694 106.336312,82.0730012 C106.227573,81.5697164 105.8924,81.1191316 105.392199,80.7620892 C107.99043,79.7028197 117.435402,76.4591363 123.829276,82.1863061 C124.110719,82.523586 126.541363,85.5973121 124.119673,87.9727635 L124.119673,87.9727635 L124.119673,87.9727635 Z M125.835197,83.497218 L125.615159,83.1138257 C125.530727,82.9069783 125.441177,82.7093534 125.347789,82.5249035 L129.058999,79.1191676 L129.058999,78.9492101 C129.058999,78.8741126 129.015503,78.2483004 128.034291,77.8728131 C128.059876,77.7660956 128.121282,77.6870457 128.121282,77.6870457 L128.168616,77.6330282 L128.434707,76.8978636 L129.816337,77.6751882 C129.934031,77.7779532 130.541692,78.3497479 130.363871,78.9426226 C130.334447,79.0388001 130.285835,79.136295 130.218032,79.231155 C129.607813,80.0888471 126.806175,82.6263509 125.835197,83.497218 L125.835197,83.497218 L125.835197,83.497218 Z" id="Fill-7"></path>
                                <path d="M58.5571255,62.4752836 C53.5590043,66.0565204 47.4217943,68.1730599 40.7824605,68.1730599 C32.9667961,68.1730599 25.8446018,65.2475608 20.4625035,60.4444444 C8.43079804,61.7169652 0,64.6697325 0,68.1094339 C0,72.7125828 15.0945317,76.4444444 33.715487,76.4444444 C52.3364422,76.4444444 67.4322581,72.7125828 67.4322581,68.1094339 C67.4322581,65.9370593 64.0663599,63.9594582 58.5571255,62.4752836" id="Fill-8"></path>
                            </g>
                        </g>
                    </g>
                </g>
            </g>
        </g>
    </g>
</svg>