<?xml version="1.0" encoding="UTF-8" standalone="no"?>
<svg width="190px" height="120px" viewBox="0 0 190 120" version="1.1" xmlns="http://www.w3.org/2000/svg" xmlns:xlink="http://www.w3.org/1999/xlink">
    <!-- Generator: Sketch 41.2 (35397) - http://www.bohemiancoding.com/sketch -->
    <title>ILLU_CAP</title>
    <desc>Created with Sketch.</desc>
    <defs>
        <polygon id="path-1" points="78.6329336 65.5773504 0 65.5773504 0 0.344117212 78.6329336 0.344117212"></polygon>
    </defs>
    <g id="IMAGES" stroke="none" stroke-width="1" fill="none" fill-rule="evenodd">
        <g id="ILLU_CAP">
            <g id="Page-1" transform="translate(55.000000, 1.000000)">
                <path d="M17.7867739,53.5982299 C18.675493,52.5139906 21.0299727,52.0646101 24.1842996,52.2998813 C24.1842996,52.2998813 27.58897,52.5276836 32.485687,52.705693 C32.485687,52.705693 35.3546224,52.9098437 35.3946774,50.1438509 C35.400936,49.7118979 35.3145675,50.0392859 34.887732,50.1239338 C34.0791228,50.2845157 31.972483,50.3467568 30.0523491,50.122689 C30.0523491,50.122689 20.9198216,48.8753781 18.7631132,50.8596231 C18.7631132,50.8596231 17.1045881,51.8604594 17.5439408,53.3417967 C17.7216846,53.9355764 17.7166777,53.6841225 17.7867739,53.5982299" id="Fill-1" fill="#554740"></path>
                <path d="M47.2067555,52.8433703 C52.0984657,52.5533269 55.4968774,52.2483457 55.4968774,52.2483457 C58.6449457,51.9421197 61.0094392,52.336728 61.9231927,53.4010502 C61.9945405,53.485698 61.9957922,53.7359071 62.1585155,53.1396377 C62.5653235,51.6483419 60.8830158,50.6848502 60.8830158,50.6848502 C58.6812455,48.750398 49.580011,50.2055941 49.580011,50.2055941 C47.6661356,50.4732306 45.5582442,50.4582928 44.7458798,50.3163831 C44.3177926,50.2416939 44.2239138,49.9180403 44.2401861,50.3487485 C44.3428269,53.1134965 47.2067555,52.8433703 47.2067555,52.8433703" id="Fill-3" fill="#554740"></path>
                <g id="Group-7" transform="translate(0.400549, 0.390874)" fill="#554740">
                    <path d="M68.220581,54.8256236 C65.5431583,55.0322639 65.5619341,51.0650186 65.5619341,51.0650186 C65.593227,50.4189564 65.4217418,49.8251767 65.1576295,49.2986173 C66.181534,50.0940581 67.159125,50.9729019 68.0653681,51.9513314 C68.0653681,51.9513314 64.1187043,39.9761511 39.605078,40.2923357 C15.0977102,39.9798855 11.2662043,52.1691751 11.2662043,52.1691751 C12.1937266,51.1471768 13.1750728,50.2297436 14.1902153,49.3994478 C14.0062129,49.830156 13.8923067,50.3156362 13.9198444,50.8621128 C13.9198444,50.8621128 14.1276295,54.7708515 11.4264241,54.5915972 C11.4264241,54.5915972 8.1043671,54.4571565 9.04190316,50.6442691 C9.04190316,50.6442691 9.62770673,44.7624887 24.0312146,39.7508384 C24.0312146,39.7508384 28.2469976,38.2259324 33.517978,37.8985444 C33.517978,37.8985444 22.8608592,35.8296515 10.4463297,45.9600067 C10.4463297,45.9600067 13.7258283,38.4437761 16.4195234,36.2653389 C16.4195234,36.2653389 26.2567675,28.9657072 36.3280828,28.4217203 C36.3280828,28.4217203 39.8416525,28.4217203 42.6530089,28.6395641 C42.6530089,28.6395641 37.733761,27.0051138 30.2384794,28.6395641 C30.2384794,28.6395641 22.6718499,29.9727676 15.5646006,35.213465 C15.4794839,33.1744478 15.3230192,27.3300121 16.1854523,24.3909892 C16.1854523,24.3909892 14.3091284,28.6208917 14.0963365,36.3587005 C14.090078,36.3636798 14.0838194,36.3686591 14.0763091,36.3748832 C14.0763091,36.3748832 13.3903681,37.462857 12.4503286,39.1072658 L12.3614567,38.8956462 C12.3464361,38.9006255 11.0121058,39.3524956 8.57000584,38.9815389 C8.51117514,35.9080753 8.35471051,22.6532187 9.89181902,16.1291106 C10.9582819,14.9975681 18.0968242,7.6282264 25.1802909,5.24439373 C17.4809794,11.0813605 17.4734691,18.9448963 17.4734691,18.9448963 C21.1447552,9.71579161 25.3868242,6.11327895 27.8063932,4.73650666 C31.4263589,4.49874581 42.7606566,3.93608661 54.7358334,5.1784182 C57.0189653,7.13403237 60.2546538,11.224515 62.5815958,19.5884688 C62.5815958,19.5884688 63.3251157,12.7307486 57.6523341,6.49543907 C60.2871985,8.15976507 64.5017297,11.6203681 67.4432648,17.9328566 C67.6961116,18.8951034 70.7440426,30.5864645 70.7365323,37.8748928 C69.6225041,37.9968853 67.9038966,38.1363053 66.7385481,38.0678401 C66.6984931,38.0143128 66.6596899,37.9582958 66.6183832,37.9035237 C65.9099114,28.966952 63.713148,24.1719006 63.713148,24.1719006 C64.7433111,27.3847842 64.9924028,33.7906343 65.0512335,36.2566252 C62.0759021,33.6163594 57.6423204,31.5810766 57.6423204,31.5810766 C49.6788966,29.0752515 46.1653269,29.1835509 46.1653269,29.1835509 C56.5883747,30.4918581 62.7956394,36.4831827 62.7956394,36.4831827 C65.4893345,38.6616198 68.8852428,45.742163 68.8852428,45.742163 C56.471965,35.6118078 45.3454523,37.8985444 45.3454523,37.8985444 C50.7328424,38.5533204 55.1826964,39.9686821 55.1826964,39.9686821 C69.587456,44.9803324 70.290921,50.4264253 70.290921,50.4264253 C71.1408369,54.9974089 68.220581,54.8256236 68.220581,54.8256236 L68.220581,54.8256236 Z M36.7211219,2.30910525 C36.747408,2.24810901 36.906376,2.08254779 37.3907905,1.95557602 C37.41958,1.94810709 40.3248152,1.17880757 43.0460481,2.1535026 L43.0810962,2.16470599 C43.0810962,2.16470599 43.094865,2.1709301 43.1086339,2.17964384 L43.1011236,2.85558178 C40.81674,2.80080964 38.6675419,2.79209589 36.7211219,2.81325785 L36.7211219,2.30910525 Z M73.2261975,48.1322198 C76.3179385,49.1430146 79.4259519,46.5662347 79.4259519,46.5662347 C73.1022775,46.348391 71.6828304,43.7292871 71.6828304,43.7292871 C75.1976518,46.5612554 77.6685412,42.364963 77.6685412,42.364963 C73.918397,43.8388314 71.4800522,41.1786484 70.3822964,39.5193017 C71.1195577,39.4483469 71.649034,39.3786369 71.706613,39.3711679 L72.4250986,39.2753167 L72.445126,38.6018684 C72.6741902,30.9026491 69.2407304,18.027463 69.0942795,17.4834761 L69.0504694,17.3602388 C64.2025694,6.89627151 56.1903286,3.83774573 55.852365,3.71326361 L55.7472208,3.67467415 L55.635818,3.66222594 C51.9144633,3.25516939 48.2406738,3.02363264 44.8197311,2.90537463 L44.8284931,2.22943669 C44.9010927,1.4327511 44.2777376,0.858888512 43.6493757,0.65473783 C40.3736322,-0.510414848 37.0453166,0.382121979 36.915138,0.418221795 C35.3179471,0.837726551 34.9612078,1.81242158 35.0012627,2.37010149 L35.0012627,2.84064392 C29.8717263,2.94271926 26.5158729,3.22280404 26.4470285,3.22902815 L26.3243602,3.24894529 C17.6674852,5.20829391 8.81659409,14.8307621 8.44358242,15.2390634 L8.30839698,15.388442 L8.26208345,15.5788996 C6.42456284,23.0565408 6.84639148,38.9914975 6.86516724,39.6661906 L6.88143956,40.2960701 L7.54484959,40.4280212 C7.89157521,40.4977312 8.21827335,40.5487688 8.53495776,40.5923376 C7.85652713,41.7213904 5.8187318,44.2160122 1.66303125,42.5828067 C1.66303125,42.5828067 4.44935337,46.4068976 7.96417479,43.5749293 C7.96417479,43.5749293 6.38951477,46.3322083 0.0658403159,46.550052 C0.0658403159,46.550052 3.01238221,48.9699845 6.31941861,47.524747 C6.31566346,48.0699787 6.06031319,49.0782839 4.21152713,49.1206079 C4.21152713,49.1206079 4.61458001,50.0903236 5.99897905,49.5189507 L5.94265179,51.5168887 L7.17684478,51.9513314 C7.17434135,51.9861863 7.16933448,52.0247758 7.16808276,52.0608756 C7.16808276,52.0608756 6.87893613,56.4638083 11.6517332,56.3293676 C11.6517332,56.3293676 15.5245457,56.3293676 15.6760034,50.8621128 C15.6760034,50.8621128 16.5309262,48.5990278 17.7838949,46.9010916 C26.4057218,41.8209761 36.1891422,41.8520967 39.0292881,41.9852925 L39.0217778,42.0388198 C39.0217778,42.0388198 39.2233043,42.0276165 39.5913091,42.0189027 C39.7527806,42.0301061 39.8416525,42.0388198 39.8416525,42.0388198 L39.8429042,42.0139234 C42.7969564,41.9666202 53.1599217,42.1881984 61.7792452,47.0566943 C62.9696281,48.8380334 63.8057751,51.0650186 63.8057751,51.0650186 C64.292693,56.8546822 68.1166885,56.4426464 68.1166885,56.4426464 C71.657796,56.5970042 72.1021556,52.7455273 72.1559794,51.9836967 L73.4827995,51.5168887 L73.4252205,49.5189507 C74.8096195,50.0903236 75.2139241,49.1206079 75.2139241,49.1206079 C73.9484382,49.091977 73.4289756,48.6089863 73.2261975,48.1322198 L73.2261975,48.1322198 Z" id="Fill-5"></path>
                </g>
                <path d="M69.5775675,55.1847545 L69.566302,55.2756265 C69.5625469,55.3615191 69.1957938,63.9034825 65.1239583,69.5101573 L65.0876585,69.5686639 C65.0801482,69.5811121 64.3266145,70.8695021 63.2689136,70.8085059 L63.1988175,70.8047714 L63.1287213,70.8172196 C63.0611286,70.8296678 56.2317605,72.0719994 48.713948,70.6553928 L48.6275795,70.6392102 L48.5850211,70.6441895 C48.3834947,70.6006207 45.980198,69.8562176 42.8646743,59.234158 L42.8897086,59.2403821 C42.8897086,59.2403821 42.459118,57.103024 41.1160256,57.103024 L41.5466162,58.9030356 L41.565392,58.9080148 C41.6117055,59.0710864 41.6567673,59.2254443 41.7030809,59.3847814 C41.300028,59.2453614 40.8093549,59.1358171 40.3161784,59.1669377 C39.8230019,59.1345723 39.3335805,59.2453614 38.9280242,59.3847814 C38.9805963,59.2055271 39.0319167,59.032497 39.0844888,58.8495082 L39.030665,58.8345704 L39.1195369,58.8134084 L39.5501276,57.103024 C38.2070352,57.103024 37.7764445,59.1345723 37.7764445,59.1345723 L37.7989754,59.1283482 C34.6684311,69.8512383 32.2501138,70.6006207 32.0473357,70.6441895 L32.0035256,70.6392102 L31.9171571,70.6553928 C24.401848,72.0719994 17.5699765,70.8296678 17.5023838,70.8172196 L17.4335393,70.8047714 L17.3634432,70.8085059 C16.3032388,70.8670125 15.5522086,69.5811121 15.54595,69.5699087 L15.5071468,69.5101573 C11.436563,63.9034825 11.0685582,55.3615191 11.0660548,55.2756265 L11.0547893,55.1847545 C10.8595215,54.2187732 10.9709243,53.8465717 11.0172378,53.7432515 C25.211709,50.9872173 37.1430757,53.830389 37.78771,53.9897261 C37.8578061,54.0171122 38.2095386,54.178939 38.2883968,54.533713 L38.3046691,54.5909748 C38.3221932,54.6445021 38.7490287,55.8656717 40.2348168,55.9490748 L40.39754,55.954054 L40.39754,55.9490748 C41.8833281,55.8656717 42.3101636,54.6445021 42.3276877,54.5909748 L42.34396,54.533713 C42.4240699,54.1764493 42.7745507,54.0171122 42.8446468,53.9897261 C43.4880294,53.830389 55.4081307,50.9859725 69.6138673,53.7432515 C69.6614325,53.8465717 69.7715836,54.2187732 69.5775675,55.1847545 M70.5326276,53.0312138 C70.3148288,52.7361911 70.0519682,52.6540329 69.9280482,52.6303813 C55.0989566,49.7299479 42.6518824,52.8482251 42.5292141,52.8805904 L42.4904109,52.8930386 C42.1098889,53.0187656 41.4251997,53.4420048 41.224925,54.2374456 C41.1773597,54.345745 40.9558058,54.7677394 40.3161784,54.8013496 C39.667789,54.7677394 39.4474868,54.3345416 39.4074318,54.24118 C39.2096605,53.4432496 38.5224679,53.0187656 38.1419459,52.8930386 L38.1043944,52.8805904 C37.9804744,52.8494699 25.534652,49.7299479 10.7030568,52.6303813 C10.5803886,52.6540329 10.317528,52.7361911 10.1009809,53.0312138 C9.75675876,53.4992666 9.69417291,54.262342 9.91071995,55.3652536 C9.94451631,56.1382876 10.4026447,64.4238177 14.5520867,70.159954 C14.7047962,70.4201216 15.678632,71.9612103 17.2870884,71.9612103 L17.3546811,71.9612103 C18.1257388,72.0981407 24.6709672,73.1811351 32.0736217,71.7981387 C32.8021211,71.7832009 35.3718961,70.9267639 38.5312299,60.710516 L38.5863055,60.8001431 C38.8379006,60.6470301 39.6289857,60.26487 40.2686132,60.3171525 L40.3161784,60.3208869 L40.3637436,60.3171525 C41.0046228,60.26487 41.7944562,60.6470301 42.0460513,60.8001431 L42.1011269,60.710516 C45.2604607,70.9267639 47.8302357,71.7832009 48.5587351,71.7981387 C51.3763501,72.3246981 54.0700452,72.492749 56.3681976,72.492749 C60.1070764,72.492749 62.8007715,72.0446133 63.2776757,71.9612103 L63.3452684,71.9612103 C64.9537248,71.9612103 65.9275606,70.4201216 66.0802701,70.159954 C70.2297121,64.4238177 70.6865888,56.1395324 70.7216368,55.3652536 C70.9369322,54.262342 70.875598,53.4992666 70.5326276,53.0312138" id="Fill-8" fill="#554740"></path>
                <path d="M35.621864,56.5704895 L35.6068434,56.6240168 C35.3965549,57.5327363 35.1812596,58.3792148 34.9622091,59.1684314 L26.7371765,68.7386171 C25.6794756,68.8207753 24.6017473,68.8655889 23.5064948,68.8655889 L23.5052431,68.8655889 C22.8931535,68.8655889 22.3173637,68.850651 21.7828805,68.8294891 L33.6954715,55.4588642 C34.6167352,55.6343839 35.1161703,55.7700695 35.1361978,55.7750487 C35.3640103,55.8310657 35.5167198,55.9244273 35.5880677,56.0513991 C35.6907084,56.233143 35.6456466,56.4920658 35.621864,56.5704895 L35.621864,56.5704895 Z M31.2083098,68.1149617 C30.857829,68.1871613 30.5035931,68.2531368 30.1468537,68.3141331 L33.0345649,64.7240686 C32.1771387,66.6933758 31.472422,67.750229 31.2083098,68.1149617 L31.2083098,68.1149617 Z M17.8174409,68.3452536 L28.5446559,54.805333 C30.1155608,54.9198566 31.437374,55.0854178 32.4762991,55.2472445 L20.7902689,68.7772066 C19.3307668,68.6826002 18.3243863,68.5382009 18.0077019,68.488408 C17.9438644,68.4473289 17.8812785,68.3987809 17.8174409,68.3452536 L17.8174409,68.3452536 Z M16.6157926,55.1377003 C17.2178685,55.0642558 17.8174409,54.9970355 18.4157617,54.9410185 L14.2976126,59.1410454 C14.2012304,58.6767271 14.1136102,58.2273466 14.0347521,57.8028625 L16.6157926,55.1377003 Z M15.2439107,62.9862982 C15.0023293,62.1535128 14.7820271,61.2933413 14.588011,60.453087 L20.0392387,54.8103123 C20.7564725,54.7605194 21.471203,54.72193 22.1821782,54.6957887 L15.2439107,62.9862982 Z M35.4328547,54.6621786 C35.2626212,54.6148754 31.1932891,53.5044948 24.3852002,53.5044948 C21.2058389,53.5044948 17.9376058,53.7509694 14.6693726,54.2376945 C14.2813403,54.2426738 13.203612,54.3074045 12.7304629,54.8812671 C12.5364468,55.1152935 12.4613438,55.4115609 12.5164193,55.7140525 C12.6966666,56.9999528 14.2850955,67.6780294 17.512022,69.5365475 L17.6008939,69.5875852 L17.702283,69.6062575 C17.7986652,69.6224402 20.0993211,70.0158037 23.5052431,70.0158037 L23.5064948,70.0158037 C26.3579063,70.0158037 29.1004183,69.7406982 31.6589279,69.1967113 L31.852944,69.156877 L31.9806192,69.0050089 C32.0907703,68.8755474 34.6918383,65.7298842 36.7308853,56.901612 C36.7797023,56.7385404 36.9336635,56.0974574 36.6044619,55.5011881 C36.4442421,55.2123895 36.1100337,54.8302294 35.4328547,54.6621786 L35.4328547,54.6621786 Z" id="Fill-10" fill="#554740"></path>
                <path d="M55.9444914,68.8533896 L66.3312394,58.1815372 C66.089658,59.4400514 65.7742253,60.8753303 65.3937033,62.2745094 L59.2928345,68.7986175 C58.5893695,68.8384518 57.7970326,68.8658378 56.9320962,68.8658378 C56.6016429,68.8658378 56.2724413,68.8608586 55.9444914,68.8533896 L55.9444914,68.8533896 Z M44.8480199,56.0553825 C44.9193678,55.9259211 45.0708255,55.8325595 45.3174138,55.7715632 C45.329931,55.766584 45.7980731,55.6396122 46.6605062,55.4728062 L44.9857088,57.2777969 C44.9331367,57.0636877 44.8818163,56.845844 44.8304959,56.6242658 L44.816727,56.5707385 C44.8154753,56.5682488 44.7291068,56.2682469 44.8480199,56.0553825 L44.8480199,56.0553825 Z M46.1235196,61.3197315 C45.9520343,60.7956618 45.7805491,60.236737 45.6103156,59.6442021 L49.6633753,55.0159568 C50.4156573,54.9275744 51.2543077,54.8466611 52.1768231,54.78442 L46.1235196,61.3197315 Z M56.5853705,54.6599379 L47.4365707,64.8014965 C47.1399138,64.1230689 46.8232294,63.3350971 46.4990347,62.4251328 L53.5111535,54.7109756 C54.309749,54.6761206 55.1571614,54.6549586 56.0521391,54.6549586 C56.2298829,54.6549586 56.4076267,54.6586931 56.5853705,54.6599379 L56.5853705,54.6599379 Z M65.7241566,55.3881583 C66.1234543,55.3881583 66.6041137,55.4790303 66.7718437,55.5798608 C66.7167682,55.9657554 66.6454203,56.4300737 66.5552967,56.9491641 L54.6890192,68.8035968 C53.3271511,68.7301523 51.9978276,68.5894875 50.7110625,68.3828472 L61.6973829,54.9126366 C63.0066789,55.0296498 64.3222335,55.1852524 65.6390398,55.3819342 L65.7241566,55.3881583 Z M65.7692184,54.2366987 C62.5009852,53.7512184 59.2315003,53.5047438 56.0521391,53.5047438 C49.2453019,53.5047438 45.1747181,54.6151243 45.0207569,54.6586931 C44.3285573,54.8304784 43.9930972,55.2113937 43.8328774,55.501437 C43.5036758,56.0977064 43.6588887,56.7375445 43.7077057,56.9018609 C45.7467527,65.7301331 48.3478207,68.8757964 48.4567201,69.0052578 L48.585647,69.1558812 L48.7784114,69.1969603 C51.336921,69.7409472 54.079433,70.0160527 56.9320962,70.0160527 C60.3380182,70.0160527 62.6399258,69.6226891 62.7350563,69.6052617 L62.8364454,69.5878342 L62.9253173,69.5367965 C66.1534955,67.6782784 67.7406727,57.0002018 67.92092,55.7143015 C67.9759955,55.4118099 67.9008925,55.1155425 67.7068764,54.8802712 C67.2349791,54.3076535 66.1572507,54.2429228 65.7692184,54.2366987 L65.7692184,54.2366987 Z" id="Fill-12" fill="#554740"></path>
                <g id="Group-16" transform="translate(0.000000, 51.030369)">
                    <mask id="mask-2" fill="white">
                        <use xlink:href="#path-1"></use>
                    </mask>
                    <g id="Clip-15"></g>
                    <path d="M75.2631166,17.2825188 C75.2581097,17.2999463 75.2518511,17.316129 75.2455925,17.3348013 C72.3891743,24.8609905 69.6178728,24.8149321 68.3311077,22.9925138 C68.4838171,21.4389769 68.6265129,19.8642781 68.7591949,18.3070067 C69.1184377,18.2024417 69.5052182,17.9970462 69.6804586,17.8040989 C71.4591485,15.8522192 70.8170177,13.5505447 69.1935407,12.7588384 C69.1985476,12.6903733 69.2035544,12.6206633 69.2085613,12.5521981 C69.5703075,11.7368402 69.92204,11.0198232 70.2637588,10.3949229 C71.3189562,10.304051 72.372902,11.1206537 72.6620486,12.6978422 C72.7008518,12.9094618 73.2065455,11.2588288 72.4667807,10.116083 C72.2064236,9.71276087 71.6043477,9.57085125 70.8495623,9.38786253 C72.6257488,6.55215975 74.0539579,6.15381695 74.8024847,6.56211832 C75.239334,6.79987918 75.1917687,8.25383038 75.2117962,6.42892245 C75.2268168,5.17289782 74.4056904,5.06459837 74.4056904,5.06459837 C72.5018288,4.37496741 70.3638961,7.93142168 69.4013257,9.7787364 C69.4914493,8.45300178 69.5690558,7.2231184 69.6353968,6.12518607 C71.5905788,2.99321583 73.7685664,2.98574691 73.7685664,2.98574691 C79.5727783,2.53512162 75.464643,16.6016016 75.2631166,17.2825188 M69.0908999,14.1443245 C70.1811454,15.2024225 69.4125912,16.6762909 68.8743529,16.9202758 C68.9494559,15.9804358 69.0233072,15.053044 69.0908999,14.1443245 M3.70370553,17.3348013 C3.69619523,17.316129 3.69118836,17.2999463 3.68492977,17.2825188 C3.46337586,16.6016016 -1.02778486,2.53512162 5.3184205,2.98574691 C5.3184205,2.98574691 7.78430306,2.98574691 9.94977352,6.28576801 C9.97605958,6.32560229 10.0098559,6.35298835 10.0411489,6.38410888 C10.1087416,7.5106721 10.1901032,8.76296227 10.2814785,10.116083 C9.34769763,8.4131675 6.84050841,4.33015384 4.62246583,5.06459837 C4.62246583,5.06459837 3.72498472,5.17289782 3.74000532,6.42892245 C3.76253623,8.25383038 3.71121583,6.79987918 4.18812002,6.56211832 C5.00674296,6.15381695 6.56888582,6.55215975 8.51155065,9.38786253 C7.68541741,9.57085125 7.02701425,9.71276087 6.74162277,10.116083 C5.93301356,11.2588288 6.48627249,12.9094618 6.52883087,12.6978422 C6.84551528,11.1206537 7.99584323,10.304051 9.14992634,10.3949229 C9.55047579,11.0658816 9.96479413,11.8389155 10.3903779,12.7302075 C8.56537448,13.4920381 7.81935113,15.8273228 9.78830203,17.8040989 C9.99733877,18.0157185 10.483005,18.2410312 10.9048336,18.3343928 C11.0325088,19.8568091 11.1727011,21.3954082 11.3216554,22.9153349 C9.9410115,24.8124425 6.87054962,24.9655555 3.70370553,17.3348013 M10.5606114,14.0310457 C10.6319593,14.9870685 10.7095658,15.9654979 10.7896757,16.9576205 C10.7734033,16.953886 10.7533759,16.9513964 10.739607,16.9476619 C10.1312725,16.7908144 9.12364028,15.136447 10.558108,14.0335354 C10.5593597,14.0335354 10.5593597,14.0310457 10.5606114,14.0310457 M77.8429054,2.84259246 C77.8191228,2.78408587 77.7753127,2.73678266 77.7477749,2.68201053 C76.0804878,-0.621745037 73.4769164,0.133861454 71.4528899,1.56167141 L71.8834806,2.00482777 C70.6855874,4.74343449 68.7441743,4.96625749 67.6626908,4.84550983 C66.847823,22.3688584 64.9639888,32.0523228 64.8250482,32.7456882 C64.8200414,32.7743191 64.8137828,32.7979707 64.8037691,32.8266016 C62.4930994,39.6171014 50.6656252,49.0366637 50.197483,49.4063756 C50.188721,49.4138446 50.1787072,49.4225583 50.1699452,49.4312721 C45.9166107,53.4371068 40.8922186,53.1943667 40.0773508,53.1259015 C39.9959892,53.1184326 39.9183827,53.1283911 39.8407763,53.1520427 L39.8307625,53.1545324 L39.8194971,53.1520427 C39.7418906,53.1283911 39.6642842,53.1184326 39.5829226,53.1259015 C38.7680548,53.1943667 33.7436626,53.4371068 29.4903281,49.4312721 C29.4815661,49.4225583 29.4728041,49.4138446 29.4627904,49.4063756 C28.9946482,49.0366637 17.1671739,39.6171014 14.8565043,32.8266016 C14.8477423,32.7979707 14.840232,32.7743191 14.8339734,32.7456882 C14.6962845,32.051078 12.8036884,22.3190655 11.9925757,4.71355878 L10.8510098,4.75588271 L8.34507229,3.29446257 L8.75563547,2.20524399 C6.47375532,0.430128908 3.05156095,-1.09353229 0.968703812,2.68201053 C0.937410886,2.73678266 0.889845639,2.78408587 0.863559581,2.84259246 C0.46301013,3.72268108 -2.50481095,11.1990774 5.53371583,23.7493651 C5.546233,23.7692823 5.55875017,23.785465 5.57251906,23.8041373 C5.87042771,24.1862974 9.26383259,28.3987725 11.5331956,24.982983 C11.9450105,28.8668252 12.4231664,32.5017033 12.9639081,35.2228825 C12.9789287,35.2963269 13.0039631,35.3610576 13.0415146,35.4245435 C13.3331647,35.8975756 14.857756,38.1668847 20.4454208,43.8943072 C21.4518013,47.8142493 23.2254844,56.4495742 22.0889253,64.1749348 C21.9800259,64.9019104 22.3517859,64.8297108 22.6334222,64.1500384 C23.4670658,62.1284487 25.7251633,59.7944089 23.4019765,46.8669403 C25.3821928,48.8237993 27.7229037,51.0781706 30.5029672,53.6810918 C30.5943425,53.7657396 30.6969833,53.8366944 30.8121413,53.8864873 C31.3954414,54.1429205 33.4432505,54.9433405 36.7127354,55.2968697 C36.767811,55.3167869 36.8228865,55.336704 36.8879758,55.3429281 C37.8655668,55.427576 38.7830754,55.4611861 39.6530187,55.4636758 C42.8386386,57.2499943 49.3650912,60.5624636 60.0535029,61.0865333 C60.0635167,61.0877781 60.0722787,61.0827988 60.0835441,61.0827988 C60.7895125,63.121816 61.5755908,64.0927766 62.0825362,65.0338615 C62.4693168,65.7533681 62.8485871,65.7807542 62.6257814,64.9840686 C60.2462673,56.485674 60.619279,46.5544902 60.9847804,42.0544614 C65.1342224,37.670201 66.360905,35.8440483 66.617507,35.4245435 C66.657562,35.3610576 66.6825963,35.2963269 66.6963652,35.2228825 C67.2358553,32.5141515 67.7115077,28.9016802 68.1220709,25.0389999 C70.1974178,28.34649 73.2653762,24.1838077 73.5369988,23.8041373 C73.549516,23.785465 73.5607814,23.7692823 73.5720469,23.7493651 C80.9246327,11.1990774 78.2084068,3.72268108 77.8429054,2.84259246" id="Fill-14" fill="#554740" mask="url(#mask-2)"></path>
                </g>
            </g>
        </g>
    </g>
</svg>