<svg width="871" height="698" viewBox="0 0 871 698" fill="none" xmlns="http://www.w3.org/2000/svg">
<path d="M957.35 277.592C893.067 267.804 923.725 206.946 945.179 164.566C881.447 182.403 821.557 214.718 748.988 194.725C741.889 192.29 730.487 189.716 729.265 183.051C676.257 -89.195 330.738 -13.0199 0.343271 128.792C2.82277 141.018 6.73635 153.291 12.0839 165.609C17.4667 176.824 22.8493 188.039 29.7015 198.197C44.8045 219.662 62.8108 240.116 85.2251 257.398C176.21 329.881 288.826 354.468 308.273 464.414C319.307 523.295 267.775 563.607 316.446 612.65C341.482 637.746 372.217 664.128 412.087 674.239C459.056 686.786 511.21 671.892 557.381 664.536C571.827 661.685 586.238 659.938 600.578 660.397C692.496 658.923 790.969 721.708 881.079 687.047C1000.26 641.171 932.689 509.806 975.314 433.871C1025.5 346.031 1146.41 335.547 1200.69 254.464C1214.26 233.917 1217.73 215.256 1216.93 195.353C1193.57 207.856 1168.76 220.313 1144.03 230.564C1091.63 253.181 1018.77 287.289 957.35 277.592Z" fill="black"/>
</svg>
