<svg width="290" height="144" viewBox="0 0 290 144" fill="none" xmlns="http://www.w3.org/2000/svg">
<path d="M225.086 106.698C224.875 105.544 224.663 103.97 224.029 102.921C223.817 102.607 223.5 102.292 223.289 102.187C220.329 100.194 215.782 102.711 214.831 106.174C214.408 107.852 215.571 110.16 216.417 111.524C218.426 114.777 228.998 115.511 226.672 109.321C226.249 108.062 225.298 108.272 225.086 106.698Z" fill="black"/>
<path d="M158.797 30.4245C159.432 29.4803 159.009 29.0606 159.96 28.0115C160.7 27.2771 161.758 26.2279 162.18 25.2837C162.286 24.9689 162.392 24.6542 162.392 24.4443C162.498 21.6116 158.903 20.3526 156.049 21.7165C154.674 22.4509 153.617 24.3394 152.983 25.5984C151.608 28.641 155.414 35.2506 158.797 30.4245Z" fill="black"/>
<path d="M220.434 55.6042C222.337 57.073 223.817 57.5976 226.143 57.073C228.786 56.5485 231.958 54.7649 232.487 51.8273C232.592 50.883 232.698 49.9388 233.438 49.4142C234.39 48.6798 235.235 48.0503 235.447 47.211C236.293 44.5881 233.861 41.7554 231.112 41.7554C229.209 41.7554 228.681 43.1193 226.46 42.6996C224.875 42.3849 222.654 41.8603 220.857 42.2799C220.223 42.4898 219.8 42.6996 219.377 42.9094C214.514 46.0569 216.522 52.6666 220.434 55.6042Z" fill="black"/>
<path d="M226.989 33.9916C226.778 34.6211 226.566 35.4605 226.989 35.985C227.306 36.2998 227.94 36.5096 228.575 36.4047C229.315 36.4047 230.161 36.09 230.901 35.4605C231.852 34.6211 230.372 34.2015 230.478 33.6769C230.584 33.2572 231.112 32.7327 231.006 32.313C230.901 31.8933 230.266 31.8933 229.526 31.8933C229.315 31.8933 229.209 31.8933 228.998 31.8933C228.575 31.7884 228.575 31.2639 228.152 31.1589C228.046 31.1589 227.835 31.1589 227.412 31.4737C226.672 31.9983 226.355 32.4179 226.672 33.0474C226.883 33.2572 227.095 33.572 226.989 33.9916Z" fill="black"/>
<path d="M141.881 120.967C131.626 123.065 135.538 141.845 143.044 134.816C146.322 131.668 156.577 117.924 141.881 120.967Z" fill="black"/>
<path d="M153.511 39.2375C154.78 39.4473 159.431 39.1326 155.202 36.195C152.136 34.2016 150.445 38.8178 153.511 39.2375Z" fill="black"/>
<path d="M161.546 68.8236C166.304 69.558 164.189 75.4333 162.709 79.525C167.361 77.6365 171.695 74.3842 177.087 76.0628C177.616 76.2726 178.462 76.4825 178.567 77.112C183.114 102.816 208.382 94.528 232.381 80.0496C232.169 78.8955 231.852 77.7415 231.429 76.5874C231.006 75.5382 230.583 74.4891 230.055 73.5448C228.892 71.5514 227.517 69.663 225.826 68.0892C218.954 61.4795 210.602 59.4861 208.91 49.0995C207.959 43.539 211.659 39.5522 207.959 35.0408C206.056 32.7327 203.73 30.3196 200.769 29.4803C197.281 28.4311 193.474 30.0049 190.091 30.8442C189.034 31.1589 187.977 31.3688 186.92 31.3688C180.153 31.7884 172.753 26.123 166.198 29.6901C157.528 34.4113 162.815 46.6864 159.854 54.0305C156.365 62.5287 147.485 63.8926 143.679 71.7613C142.727 73.7547 142.516 75.5382 142.621 77.4267C144.313 76.1677 146.11 74.9087 147.908 73.8596C151.714 71.5514 157 68.0892 161.546 68.8236Z" fill="black"/>
<path d="M142.727 77.217C141.67 78.0563 140.613 78.7907 139.555 79.63C140.19 76.1678 140.613 72.4958 139.238 69.5581C136.807 64.2074 127.503 69.4532 124.754 71.4466C122.534 73.1253 120.631 74.9088 118.834 76.9022C117.988 77.7415 117.248 78.6858 116.402 79.63C114.71 81.7283 113.019 83.6168 111.01 85.4004C106.57 89.3872 104.032 86.3446 102.129 82.9873C98.0061 75.7481 98.2175 63.7878 101.706 56.3387C102.869 53.8208 99.0633 54.0306 97.5832 54.3453C91.5569 55.6043 86.6936 58.7518 82.7819 62.8435C83.099 61.5845 83.4162 60.4305 83.6277 59.1715C94.9401 43.9587 102.024 25.8083 97.4775 6.50381C96.8431 3.67109 90.394 5.97923 89.7596 7.97263C84.8963 25.0739 80.3502 42.28 76.1213 59.4862C72.7381 63.9976 68.9321 68.2991 65.0203 72.2859C47.8931 89.7019 26.9598 103.341 5.60359 115.092C1.05747 117.609 7.82378 118.764 10.3612 117.4C32.7746 105.02 54.5536 90.5413 72.5267 72.2859C72.7381 72.0761 73.0553 71.7613 73.2667 71.5515C71.4694 79.4202 69.6721 87.1839 67.9806 95.0526C67.3462 97.9903 75.064 96.7313 75.6984 94.1084C78.13 83.407 82.6761 67.0401 93.1428 60.6403C90.1825 72.2859 91.0283 94.528 105.935 92.0101C112.173 90.9609 116.613 87.6036 120.631 83.407C122.005 81.9382 123.38 80.2595 124.754 78.6858C126.869 76.1678 129.089 74.0695 131.943 72.3908C132.049 72.3908 132.261 76.4825 132.261 76.3776C132.155 80.0497 131.203 83.6168 131.098 87.2889C130.992 90.5412 136.807 88.4429 138.075 87.4987C140.296 85.82 142.41 84.1414 144.525 82.3578C143.679 80.889 143.044 79.3153 142.833 77.6366C142.727 77.4268 142.727 77.3219 142.727 77.217Z" fill="#E31B23"/>
<path d="M275.093 48.47C268.327 54.2403 251.305 68.5089 233.332 79.4201C233.015 79.6299 232.698 79.8398 232.381 80.0496C232.592 81.6233 232.698 83.1971 232.487 84.7708C233.227 84.3511 234.072 83.9315 234.813 83.5118C251.411 74.0694 266.847 62.0041 281.225 49.8339C284.714 46.7913 276.996 46.7913 275.093 48.47Z" fill="#E31B23"/>
<path d="M143.151 114.567C143.151 114.357 143.045 114.147 142.938 113.833L143.151 114.567Z" fill="#E31B23"/>
<path d="M156.048 99.459H152.982V114.567H156.048V99.459Z" fill="#E31B23"/>
<path d="M73.0551 105.229H69.4605V99.459H66.3945V114.567H69.4605V107.852H73.0551V114.567H76.1211V99.459H73.0551V105.229Z" fill="#E31B23"/>
<path d="M84.2621 110.056C84.2621 111.524 83.945 112.678 82.4648 112.678C80.9847 112.678 80.6675 111.524 80.6675 110.056V99.564H77.6016V110.056C77.6016 114.042 79.9275 114.882 82.4648 114.882C85.0022 114.882 87.3281 113.832 87.3281 110.056V99.564H84.2621V110.056V110.056Z" fill="#E31B23"/>
<path d="M94.0943 99.459H89.0195V114.567H93.8828C97.9003 114.567 99.0633 112.154 99.0633 106.803C99.0633 102.397 98.3232 99.459 94.0943 99.459ZM93.4599 112.364H92.0855V101.767H93.3542C95.6801 101.767 95.9973 103.551 95.9973 106.908C95.9973 111 95.5744 112.364 93.4599 112.364Z" fill="#E31B23"/>
<path d="M107.31 106.278L104.984 105.229C103.715 104.705 103.398 104.075 103.398 103.131C103.398 102.292 103.715 101.347 105.196 101.347C106.359 101.347 106.887 102.187 106.887 103.551H109.847V103.131C109.847 100.193 107.839 99.0393 105.09 99.0393C102.235 99.0393 100.332 100.508 100.332 103.446C100.332 105.964 101.601 107.118 104.35 108.062C106.359 108.796 107.099 109.216 107.099 110.685C107.099 111.944 106.253 112.573 105.301 112.573C103.715 112.573 103.293 111.629 103.293 110.265V109.846H100.227V110.475C100.227 113.308 101.601 114.882 105.09 114.882C108.367 114.882 110.376 113.413 110.376 110.265C110.27 108.377 109.636 107.223 107.31 106.278Z" fill="#E31B23"/>
<path d="M116.191 99.2493C111.539 99.2493 111.01 102.502 111.01 107.118C111.01 111.734 111.539 114.987 116.191 114.987C120.843 114.987 121.371 111.734 121.371 107.118C121.371 102.502 120.737 99.2493 116.191 99.2493ZM116.191 112.678C114.393 112.678 114.076 111.105 114.076 107.118C114.076 103.131 114.393 101.557 116.191 101.557C117.988 101.557 118.305 103.131 118.305 107.118C118.305 111.105 117.988 112.678 116.191 112.678Z" fill="#E31B23"/>
<path d="M130.041 109.846L126.234 99.459H122.746V114.567H125.6V103.97L129.3 114.567H132.789V99.459H130.041V109.846Z" fill="#E31B23"/>
<path d="M146.533 99.459L144.313 110.16L142.093 99.459H137.547V102.187V114.567H140.401V106.908V102.502L142.939 113.832C143.044 114.042 143.044 114.252 143.15 114.567H145.476L148.225 102.502V114.567H151.079V99.459H146.533Z" fill="#E31B23"/>
<path d="M160.172 107.747C160.066 107.013 159.854 106.383 159.749 105.649C159.749 105.439 159.643 105.334 159.537 105.124C159.114 103.761 158.586 102.397 157.846 101.138V114.462H160.383C160.489 112.259 160.595 110.056 160.172 107.747Z" fill="#E31B23"/>
<path d="M38.4839 104.18H42.0785V112.573H42.6071V104.18H46.2017V103.76H38.4839V104.18Z" fill="#E31B23"/>
<path d="M54.1306 107.642H47.3643V103.76H46.73V112.573H47.3643V108.167H54.1306V112.573H54.6593V103.76H54.1306V107.642Z" fill="#E31B23"/>
<path d="M56.7737 108.167H62.9057V107.747H56.7737V104.18H63.2229V103.76H56.2451V112.573H63.3286V112.049H56.7737V108.167Z" fill="#E31B23"/>
<path d="M216.839 92.3248C206.796 96.5215 193.263 101.243 182.585 96.4165C178.039 94.3182 174.55 90.5413 172.753 85.925C172.224 84.4562 171.695 83.0923 171.378 81.6234C170.85 79.2104 168.841 80.889 167.149 81.6234C163.978 83.0923 160.912 84.5611 157.423 84.9807C156.365 85.0857 153.722 85.0857 154.145 83.3021C154.674 80.889 156.894 77.217 156.894 74.3843C156.365 74.5941 155.625 74.8039 154.568 74.9089C153.934 75.2236 153.299 75.6433 152.771 75.958C150.656 77.3219 148.648 78.6858 146.639 80.2595C145.899 80.889 145.053 81.5185 144.313 82.148V82.2529C146.85 86.7643 149.493 90.6462 152.665 94.2133C153.511 95.1576 154.251 95.9969 154.991 96.9411C155.837 97.9903 156.577 99.0394 157.317 100.194C157.528 100.508 157.74 100.823 157.846 101.243V99.4591H160.912V112.049H166.304V114.567H160.277C160.277 116.98 160.277 119.288 161.017 121.596C164.718 132.612 179.625 133.557 187.871 128.206C195.378 123.38 200.875 115.931 206.373 108.901C208.487 106.279 210.179 103.236 212.61 100.823C214.408 98.9345 216.734 97.6755 219.271 96.8362C221.597 96.1018 224.029 95.6821 226.249 94.5281C227.518 93.8986 228.68 92.9543 229.526 91.8003C231.112 89.597 232.064 87.184 232.381 84.666C227.412 87.4987 222.126 90.1216 216.839 92.3248ZM174.656 114.567L171.484 108.377L170.321 110.056V114.567H167.255V99.4591H170.321V105.544L174.233 99.4591H177.51L173.387 105.964L178.039 114.567H174.656V114.567ZM187.343 109.111C187.131 111 185.439 112.783 182.796 112.783C179.836 112.783 177.933 110.895 177.933 107.957C177.933 105.544 179.625 103.131 182.796 103.131C185.122 103.131 186.708 104.285 187.237 106.279V106.488H186.285V106.384C185.862 104.705 184.171 104.075 182.796 104.075C180.47 104.075 178.779 105.754 178.779 108.062C178.779 110.056 180.048 112.049 182.796 112.049C184.699 112.049 186.074 110.895 186.391 109.111V109.006H187.343V109.111ZM192.734 112.888C188.823 112.888 187.871 109.741 187.871 108.062C187.871 106.384 188.928 103.236 192.734 103.236C196.54 103.236 197.598 106.384 197.598 108.062C197.598 109.741 196.54 112.888 192.734 112.888ZM199.712 112.678H198.761V111.105H199.712V112.678Z" fill="black"/>
<path d="M192.734 104.075C190.091 104.075 188.717 106.069 188.717 108.062C188.717 110.056 190.091 112.049 192.734 112.049C195.377 112.049 196.752 110.056 196.752 108.062C196.752 106.069 195.272 104.075 192.734 104.075Z" fill="black"/>
</svg>
