<svg width="37" height="38" viewBox="0 0 37 38" fill="none" xmlns="http://www.w3.org/2000/svg">
<g clip-path="url(#clip0)">
<path d="M34.0161 19.2008H32.1597C31.8318 18.8802 31.4507 18.616 31.0323 18.4161V11.0948C31.0323 10.4491 30.8796 9.80333 30.5914 9.22637L28.6452 5.33423V3.68465H29.8387V1.89433C29.8387 0.907376 29.0353 0.104004 28.0484 0.104004H23.2742C22.2872 0.104004 21.4839 0.907376 21.4839 1.89433V3.68465H22.6774V5.33423L20.7312 9.22579C20.443 9.80275 20.2903 10.4491 20.2903 11.0948V18.4166C19.5449 18.7724 18.9225 19.3404 18.5 20.0447C18.0775 19.3404 17.4551 18.7724 16.7097 18.4166V11.2382C16.7097 8.9851 15.8641 6.86259 14.3226 5.23341V3.68465C14.9808 3.68465 15.5161 3.14936 15.5161 2.4911V1.29755C15.5161 0.639294 14.9808 0.104004 14.3226 0.104004H8.35484C7.69658 0.104004 7.16129 0.639294 7.16129 1.29755V2.4911C7.16129 3.14936 7.69658 3.68465 8.35484 3.68465V5.23282C6.81337 6.86201 5.96774 8.98452 5.96774 11.2373V18.4155C5.5493 18.616 5.16816 18.8802 4.84034 19.2008H2.98387C1.33866 19.2008 0 20.5394 0 22.1847V23.3782C0 25.0234 1.33866 26.3621 2.98387 26.3621H4.24298L6.15627 34.7813C6.46777 36.1491 7.66424 37.104 9.06671 37.104H27.9327C29.3358 37.104 30.5316 36.1491 30.8431 34.7813L32.7564 26.3621H34.0161C35.6613 26.3621 37 25.0234 37 23.3782V22.1847C37 20.5394 35.6613 19.2008 34.0161 19.2008ZM7.09514 33.5234L6.82357 32.3298H30.1759L29.9049 33.5234H7.09514ZM4.84821 23.6372C4.79925 23.4219 4.77419 23.1993 4.77419 22.9767V22.7814H32.2258V22.9767C32.2258 23.1999 32.2007 23.4219 32.1512 23.6378L32.0749 23.975H4.92514L4.84821 23.6372ZM19.0968 31.1363V25.1685H24.6426L23.2861 31.1363H19.0968ZM13.625 31.1363L12.2691 25.1685H17.9032V31.1363H13.625ZM11.0444 25.1685L12.4003 31.1363H6.55257L5.19613 25.1685H11.0444ZM24.5106 31.1363L25.8673 25.1685H31.8039L30.4474 31.1363H24.5106ZM32.1655 21.5879H26.3184C26.5958 20.2279 27.8007 19.2008 29.2419 19.2008C30.6832 19.2008 31.8881 20.2279 32.1655 21.5879ZM22.6774 1.89433C22.6774 1.56563 22.9449 1.29755 23.2742 1.29755H28.0484C28.3777 1.29755 28.6452 1.56563 28.6452 1.89433V2.4911H22.6774V1.89433ZM23.871 5.61572V3.68465H27.4516V5.61572L29.5237 9.75992C29.6924 10.0976 29.7921 10.4695 29.8244 10.8459H21.4981C21.5299 10.4695 21.6296 10.0982 21.7989 9.75992L23.871 5.61572ZM21.4839 12.0395H29.8387V18.055C29.6429 18.027 29.4447 18.0072 29.2419 18.0072C27.7214 18.0072 26.3924 18.8266 25.6613 20.0441C24.9302 18.8266 23.6011 18.0072 22.0806 18.0072C21.8778 18.0072 21.6797 18.027 21.4839 18.055V12.0395ZM22.0806 19.2008C23.5213 19.2008 24.7268 20.2279 25.0042 21.5879H19.1571C19.4345 20.2279 20.64 19.2008 22.0806 19.2008ZM17.8429 21.5879H11.9958C12.2732 20.2279 13.4781 19.2008 14.9194 19.2008C16.3606 19.2008 17.5655 20.2279 17.8429 21.5879ZM10.7419 2.4911V1.29755H11.9355V2.4911H10.7419ZM14.3232 2.4911H13.129V1.29755H14.3226L14.3232 2.4911ZM8.35484 1.29755H9.54839V2.4911H8.35484V1.29755ZM9.37355 5.89691L9.54839 5.72207V3.68465H13.129V5.72207L13.3039 5.89691C13.7217 6.31477 14.0766 6.77604 14.3812 7.26529H8.29627C8.60078 6.77604 8.95569 6.31477 9.37355 5.89691ZM7.69192 8.45884H14.9855C15.3311 9.33244 15.5161 10.2701 15.5161 11.2382V14.4266H7.16129V11.2382C7.16129 10.2701 7.34633 9.33244 7.69192 8.45884ZM7.16129 15.6201H15.5161V18.055C15.3203 18.027 15.1222 18.0072 14.9194 18.0072C13.3989 18.0072 12.0698 18.8266 11.3387 20.0441C10.6076 18.8266 9.27856 18.0072 7.75806 18.0072C7.55525 18.0072 7.35711 18.027 7.16129 18.055V15.6201ZM7.75806 19.2008C9.19872 19.2008 10.4042 20.2279 10.6816 21.5879H4.83451C5.11192 20.2279 6.31741 19.2008 7.75806 19.2008ZM2.98387 25.1685C1.99692 25.1685 1.19355 24.3651 1.19355 23.3782V22.1847C1.19355 21.1977 1.99692 20.3943 2.98387 20.3943H3.98947C3.73042 20.9381 3.58065 21.543 3.58065 22.1847V22.9767C3.58065 23.2887 3.6159 23.6002 3.68438 23.9027L3.97199 25.1685H2.98387ZM27.9333 35.9105H9.06671C8.29627 35.9105 7.63451 35.4276 7.3845 34.7169H29.6155C29.3649 35.4276 28.7037 35.9105 27.9333 35.9105ZM35.8065 23.3782C35.8065 24.3651 35.0031 25.1685 34.0161 25.1685H33.0271L33.315 23.9027C33.3841 23.6002 33.4194 23.2887 33.4194 22.9767V22.1847C33.4194 21.543 33.2696 20.9381 33.0105 20.3943H34.0161C35.0031 20.3943 35.8065 21.1977 35.8065 22.1847V23.3782Z" fill="black"/>
<path d="M22.6772 13.233H28.645V14.4266H22.6772V13.233Z" fill="black"/>
<path d="M22.6772 15.6201H28.645V16.8137H22.6772V15.6201Z" fill="black"/>
<path d="M8.35498 9.65234H14.3227V10.8459H8.35498V9.65234Z" fill="black"/>
<path d="M8.35498 12.0394H14.3227V13.233H8.35498V12.0394Z" fill="black"/>
</g>
<defs>
<clipPath id="clip0">
<rect width="37" height="37" fill="white" transform="translate(0 0.104004)"/>
</clipPath>
</defs>
</svg>
