<svg width="44" height="44" viewBox="0 0 44 44" fill="none" xmlns="http://www.w3.org/2000/svg">
<path d="M42.702 21.076L22.902 1.276C22.11 0.484 21.01 0 19.8 0H4.4C1.98 0 0 1.98 0 4.4V19.8C0 21.01 0.484 22.11 1.298 22.924L21.098 42.724C21.89 43.516 22.99 44 24.2 44C25.41 44 26.51 43.516 27.302 42.702L42.702 27.302C43.516 26.51 44 25.41 44 24.2C44 22.99 43.494 21.868 42.702 21.076ZM7.7 11C5.874 11 4.4 9.526 4.4 7.7C4.4 5.874 5.874 4.4 7.7 4.4C9.526 4.4 11 5.874 11 7.7C11 9.526 9.526 11 7.7 11ZM33.594 29.194L24.2 38.588L14.806 29.194C13.816 28.182 13.2 26.818 13.2 25.3C13.2 22.264 15.664 19.8 18.7 19.8C20.218 19.8 21.604 20.416 22.594 21.428L24.2 23.012L25.806 21.406C26.796 20.416 28.182 19.8 29.7 19.8C32.736 19.8 35.2 22.264 35.2 25.3C35.2 26.818 34.584 28.204 33.594 29.194Z" fill="white"/>
</svg>
