<svg width="48" height="36" viewBox="0 0 48 36" fill="none" xmlns="http://www.w3.org/2000/svg">
<path d="M41.4545 8.89297H34.9091V0H4.36364C1.96364 0 0 2.00092 0 4.44649V28.9022H4.36364C4.36364 32.5928 7.28727 35.5719 10.9091 35.5719C14.5309 35.5719 17.4545 32.5928 17.4545 28.9022H30.5455C30.5455 32.5928 33.4691 35.5719 37.0909 35.5719C40.7127 35.5719 43.6364 32.5928 43.6364 28.9022H48V17.7859L41.4545 8.89297ZM10.9091 32.237C9.09818 32.237 7.63636 30.7475 7.63636 28.9022C7.63636 27.0569 9.09818 25.5673 10.9091 25.5673C12.72 25.5673 14.1818 27.0569 14.1818 28.9022C14.1818 30.7475 12.72 32.237 10.9091 32.237ZM40.3636 12.2278L44.64 17.7859H34.9091V12.2278H40.3636ZM37.0909 32.237C35.28 32.237 33.8182 30.7475 33.8182 28.9022C33.8182 27.0569 35.28 25.5673 37.0909 25.5673C38.9018 25.5673 40.3636 27.0569 40.3636 28.9022C40.3636 30.7475 38.9018 32.237 37.0909 32.237Z" fill="#F99044"/>
</svg>
