
<svg id="Layer_1" data-name="Layer 1" xmlns="http://www.w3.org/2000/svg" viewBox="0 0 590 33.67"><title>AMY PORTERFIELD</title><path d="M16,27.5l-2.4,6.08H5L19.24.57h8.63l13.91,33h-9L30.47,27.5ZM23.3,8.91,18.49,21.13H28Z" transform="translate(-5 -0.29)"></path><path d="M83.13,33.58l0-21.46L75.16,30.28H69.69L61.77,12.12V33.58h-7.5V.52h9.2l9,19.66,9-19.66h9.15V33.58Z" transform="translate(-5 -0.29)"></path><path d="M123.63,33.58h-8.35V23.16L103.06.57h8.39l8,14.38L127.21.57h8.39l-12,22.35Z" transform="translate(-5 -0.29)"></path><path d="M182.84.57c8.44,0,13.3,4.15,13.3,11.51,0,7.73-4.86,12.22-13.3,12.22h-6v9.29h-8.39V.57Zm-6,17.12h5.56c3.68,0,5.8-1.84,5.8-5.33s-2.12-5.19-5.8-5.19h-5.56Z" transform="translate(-5 -0.29)"></path><path d="M243.48,17c0,9.62-7.64,16.93-17.87,16.93S207.78,26.69,207.78,17,215.42.29,225.6.29,243.48,7.45,243.48,17Zm-27.12,0a9.6,9.6,0,0,0,9.34,9.86c5.09,0,9.15-4.29,9.15-9.86s-4.06-9.76-9.15-9.76A9.49,9.49,0,0,0,216.36,17.07Z" transform="translate(-5 -0.29)"></path><path d="M272.32,24.29h-6.6v9.29h-8.39V.57h14.76c8.72,0,13.72,4.15,13.72,11.51,0,5-2.12,8.68-6,10.61l6.93,10.89h-9.53Zm-.24-6.6c3.63,0,5.75-1.84,5.75-5.33s-2.12-5.19-5.75-5.19h-6.37V17.69Z" transform="translate(-5 -0.29)"></path><path d="M316.17,7.31V33.58h-8.39V7.31h-9.86V.52h28.2V7.31Z" transform="translate(-5 -0.29)"></path><path d="M347.52,7.17v6.56h15.75v6.6H347.52V27h18v6.6H339.13V.57H365v6.6Z" transform="translate(-5 -0.29)"></path><path d="M395.33,24.29h-6.6v9.29h-8.39V.57h14.76c8.72,0,13.72,4.15,13.72,11.51,0,5-2.12,8.68-6,10.61l6.93,10.89h-9.53Zm-.24-6.6c3.63,0,5.75-1.84,5.75-5.33s-2.12-5.19-5.75-5.19h-6.37V17.69Z" transform="translate(-5 -0.29)"></path><path d="M432.29,7.17v7.64H447.1v6.6H432.29V33.58H423.9V.57h24.48v6.6Z" transform="translate(-5 -0.29)"></path><path d="M461.8,33.58V.57h8.39v33Z" transform="translate(-5 -0.29)"></path><path d="M494.62,7.17v6.56h15.75v6.6H494.62V27h18v6.6H486.22V.57h25.84v6.6Z" transform="translate(-5 -0.29)"></path><path d="M549.83,26.55v7h-22.4V.57h8.39v26Z" transform="translate(-5 -0.29)"></path><path d="M577.46.57C587.83.57,595,7.26,595,17.07s-7.26,16.51-17.87,16.51H563.26V.57Zm-5.8,26.31h6c5.14,0,8.82-4,8.82-9.76s-3.87-9.86-9.2-9.86h-5.61Z" transform="translate(-5 -0.29)"></path></svg> 