<?xml version="1.0" encoding="iso-8859-1"?>
<!-- Generator: Adobe Illustrator 18.1.1, SVG Export Plug-In . SVG Version: 6.00 Build 0)  -->
<svg version="1.1" id="Calque_1" xmlns="http://www.w3.org/2000/svg" xmlns:xlink="http://www.w3.org/1999/xlink" x="0px" y="0px"
	 viewBox="0 0 841.89 595.28" style="enable-background:new 0 0 841.89 595.28;" xml:space="preserve">
<rect x="0" width="841.89" height="595.276"/>
<g id="BG">
	<defs>
		<rect id="SVGID_1_" x="0" width="841.89" height="595.276"/>
	</defs>
	<clipPath id="SVGID_2_">
		<use xlink:href="#SVGID_1_"  style="overflow:visible;"/>
	</clipPath>
</g>
<g>
	<path style="fill:#808080;" d="M513.246,389.205c0.591,0.534,1.183,1.067,1.647,1.486c0.661-0.267,1.298-0.738,1.901-0.699
		c0.465,0.03,0.897,0.692,1.329,1.09c0.336,0.31,0.705,0.608,0.954,0.981c0.209,0.314,0.434,0.771,0.355,1.092
		c-0.141,0.574-0.424,1.156-0.791,1.622c-0.907,1.153-0.512,2.802,0.888,3.379c0.991,0.409,1.944,0.181,2.933-0.115
		c1.008-0.303,2.062-0.562,3.106-0.605c1.018-0.042,1.298,0.597,0.621,1.349c-0.837,0.928-0.93,1.551,0.026,2.947
		c0.549,0.801,0.776,1.461,0.301,2.383c-0.286,0.555-0.249,1.266-0.451,1.876c-0.218,0.658-0.414,1.395-0.852,1.893
		c-0.92,1.044-0.928,1.225,0.432,1.709c-0.052,0.895-0.084,1.798-0.164,2.697c-0.066,0.74-0.329,1.342-1.092,1.696
		c-0.331,0.154-0.579,0.576-0.766,0.929c-0.254,0.478-0.414,1.007-0.661,1.635c0.543,0.245,1.209,0.7,1.929,0.813
		c0.471,0.074,1.199-0.2,1.501-0.571c1.008-1.239,2.359-1.909,3.717-2.612c0.236-0.122,0.485-0.376,0.561-0.62
		c0.251-0.813,0.825-1.186,1.59-1.403c0.401-0.114,0.832-0.247,1.152-0.495c1.014-0.786,1.86-0.506,2.808,0.176
		c0.744,0.535,1.643,0.851,2.459,1.29c0.302,0.162,0.681,0.336,0.825,0.61c0.377,0.722,0.852,0.68,1.438,0.345
		c0.028-0.016,0.056-0.047,0.084-0.047c2.497-0.015,3.443-2.215,4.98-3.571c0.222-0.196,0.228-0.637,0.394-1.15
		c1.131-1.021,2.489-0.893,4.011-0.163c0.78,0.374,1.755,0.375,2.649,0.469c1.294,0.136,1.807,0.486,2.069,1.763
		c0.239,1.163,0.929,1.94,1.824,2.643c0.652,0.512,1.188,1.169,1.818,1.712c0.378,0.326,0.803,0.673,1.266,0.813
		c2.075,0.626,2.745,1.737,2.124,3.85c-0.265,0.902-0.569,1.684-0.021,2.655c0.255,0.452-0.093,1.243-0.162,1.882
		c-0.104,0.956-0.236,1.69,0.95,2.394c0.786,0.466,2.043,1.172,2.059,2.603c0.009,0.829,0.825,0.922,1.439,1.053
		c0.845,0.18,1.71,0.262,2.778,0.417c-0.393,0.569-0.672,0.973-0.996,1.442c0.988,0.681,2.011,1.387,3.035,2.093
		c0,0.324,0,0.649,0,0.973c-0.502,0.637-1.004,1.273-1.508,1.913c0.283,0.195,0.538,0.37,0.919,0.632
		c-0.354,0.31-0.611,0.581-0.912,0.788c-0.551,0.378-0.596,0.728-0.018,1.108c0.507,0.335,1.013,0.672,1.519,1.009
		c0,0.13,0,0.259,0,0.389c-1.037,0.238-1.27,0.879-1.08,1.879c0.382,2.01-0.049,2.703-1.932,3.577
		c-0.73,0.339-1.382,0.856-2.123,1.161c-0.319,0.131-0.984,0.074-1.133-0.144c-1.026-1.493-2.434-1.644-3.963-1.176
		c-1.054,0.323-2.057,0.477-3.139,0.201c-0.355-0.09-0.765,0.042-1.15,0.062c-0.696,0.036-1.391,0.067-2.087,0.095
		c-0.353,0.014-0.707,0.021-1.061,0.024c-0.758,0.008-1.541,0.135-2.267-0.013c-0.949-0.194-1.814-0.331-2.717,0.182
		c-0.368,0.209-0.87,0.214-1.316,0.251c-1.892,0.157-3.49,0.65-4.363,2.633c-0.458,1.04-1.366,1.877-2.041,2.828
		c-0.284,0.4-0.444,0.892-0.747,1.274c-0.244,0.308-0.595,0.552-0.938,0.757c-0.481,0.287-1.423,0.508-1.425,0.763
		c-0.007,0.868,0.116,1.861,0.561,2.575c0.439,0.705,0.664,1.287,0.624,2.122c-0.064,1.318,0.364,2.481,1.676,3.125
		c0.18,0.089,0.331,0.28,0.443,0.458c0.37,0.588,0.717,1.191,0.923,1.536c0,0.899,0.019,1.593-0.005,2.286
		c-0.023,0.661-0.091,1.32-0.143,2.022c-1.109-0.207-0.472-1.896-1.863-1.768c0,0.6,0,1.154,0,1.708
		c-0.144,0.104-0.288,0.208-0.432,0.312c-0.16-0.31-0.252-0.693-0.493-0.915c-0.574-0.529-1.083-1.164-1.995-1.217
		c-0.34-0.02-0.742-0.303-0.976-0.584c-0.869-1.044-1.813-2.063-2.469-3.236c-0.482-0.863-1.077-0.876-1.634-0.506
		c-1.026,0.681-1.978,0.562-3.121,0.374c-1.502-0.246-3.069-0.081-4.607-0.121c-0.668-0.018-1.351-0.04-1.993-0.198
		c-0.25-0.062-0.609-0.535-0.573-0.768c0.242-1.563,0.622-3.105,0.862-4.668c0.099-0.646-0.04-1.327-0.073-2.053
		c-2.441-1.323-7.389-0.658-9.638,1.393c0.076,0.118,0.129,0.297,0.245,0.364c0.827,0.475,0.953,1.235,1.031,2.104
		c0.081,0.899-0.013,1.655-0.694,2.307c-0.143,0.137-0.117,0.467-0.139,0.711c-0.119,1.345-0.23,2.691-0.339,4.037
		c-0.015,0.186-0.012,0.374,0.003,0.56c0.008,0.093,0.073,0.18,0.094,0.273c0.127,0.568-1.026,3.665-1.394,4.105
		c-0.734,0.878-1.449,1.783-2.057,2.75c-0.621,0.987-1.132,2.048-1.632,3.105c-0.131,0.277-0.104,0.673-0.037,0.99
		c0.174,0.827,0.341,1.593-0.643,2.087c-0.21,0.105-0.231,0.553-0.377,0.822c-0.687,1.267-1.388,2.528-2.112,3.842
		c0.769,0.694,0.508,1.354-0.15,1.936c-0.522,0.461-0.45,0.907-0.376,1.578c0.201,1.806,0.52,3.53,1.332,5.179
		c0.171,0.347-0.182,0.953-0.351,1.689c0.517,0.039,1.105,0.203,1.64,0.098c0.883-0.174,1.722-0.555,2.596-0.789
		c1.642-0.439,2.336,0.033,2.473,1.71c0.098,1.192,0.056,2.396,0.18,3.583c0.05,0.476,0.263,1.049,0.601,1.358
		c0.773,0.706,1.684,1.258,2.505,1.915c0.221,0.177,0.41,0.487,0.463,0.765c0.189,0.985,0.247,1.998,0.479,2.971
		c0.252,1.056,0.639,2.081,0.974,3.116c0.109,0.336,0.215,0.678,0.366,0.996c0.362,0.765,0.65,1.596,1.158,2.253
		c0.458,0.592,1.033,1.023,0.498,1.601c1.042,0.659,2.061,1.25,3.021,1.926c0.912,0.642,1.79,1.335,2.992,1.115
		c0.387-0.071,0.735-0.333,1.112-0.479c0.19-0.074,0.42-0.151,0.607-0.111c1.398,0.3,2.65,0.865,3.495,2.09
		c1.128,1.635,2.33,3.158,4.137,4.156c1.149,0.635,1.106,1.652,0.149,2.674c-0.564,0.604-1.072,1.262-1.583,1.913
		c-0.357,0.455-1.802,0.659-2.386,0.112c-0.607-0.567-1.176-0.438-1.827-0.343c-0.384,0.056-0.775,0.059-1.163,0.083
		c-0.519,0.031-0.898,0.127-0.955,0.806c-0.065,0.78-0.616,1.075-1.391,0.976c-1.917-0.244-2.465-1.352-1.514-3.02
		c0.159-0.279,0.169-0.649,0.216-0.982c0.053-0.369,0.069-0.743,0.126-1.399c-0.799-0.221-1.788-0.495-2.809-0.777
		c-0.116-0.635-0.249-1.367-0.394-2.158c-1.605,0.923-3.726,0.404-4.779-0.981c-0.144-0.189-0.539-0.299-0.79-0.261
		c-0.205,0.032-0.45,0.312-0.526,0.534c-0.101,0.293,0.026,0.671-0.094,0.949c-0.124,0.288-0.393,0.554-0.666,0.714
		c-0.099,0.058-0.448-0.179-0.59-0.356c-0.349-0.434-0.618-0.933-0.97-1.364c-0.273-0.334-0.574-0.712-0.948-0.884
		c-1.999-0.92-2.394-1.522-2.393-3.791c0-0.213-0.157-0.452-0.299-0.634c-0.267-0.342-0.577-0.65-0.956-1.068
		c-1.611,0.206-2.609-0.948-2.975-3.672c-0.794-0.284-1.7-0.393-2.289-0.883c-0.522-0.434-0.897-1.274-0.958-1.968
		c-0.06-0.681-0.209-1.079-0.845-1.156c-1.002-0.121-1.519-0.705-1.885-1.587c-0.399-0.964-1.175-1.319-1.821-0.887
		c-0.228,0.153-0.485,0.502-0.466,0.741c0.063,0.781-0.306,0.964-0.865,0.889c0.178,0.206,0.55,0.443,0.581,0.718
		c0.038,0.335-0.212,0.701-0.34,1.063c0.104,0.312,0.443,0.843,0.308,1.03c-0.258,0.356-0.774,0.55-1.216,0.728
		c-0.092,0.037-0.434-0.264-0.485-0.455c-0.293-1.104-0.571-2.215-0.013-3.337c0.082-0.164,0.021-0.455-0.069-0.639
		c-0.527-1.073-0.72-2.092-0.335-3.329c0.332-1.065,0.17-2.278,0.282-3.419c0.054-0.549,0.246-1.084,0.357-1.629
		c0.051-0.249,0.104-0.513,0.077-0.761c-0.088-0.822,0.045-1.46,0.913-1.863c0.343-0.159,0.626-0.652,0.747-1.051
		c0.562-1.845,0.991-3.732,1.604-5.558c0.32-0.952,0.993-1.78,1.375-2.718c0.333-0.818,0.563-1.7,0.683-2.576
		c0.083-0.601,0.242-0.974,0.781-1.309c0.511-0.317,0.823-0.95,1.329-1.283c1.464-0.965,2.272-2.401,3.239-3.796
		c0.653-0.942,1.258-1.825,1.508-2.915c0.13-0.567,0.323-0.8,0.926-0.851c1.131-0.096,1.24-0.264,0.821-1.353
		c-0.429-1.116-1.038-2.163-1.448-3.285c-0.279-0.763-0.295-1.618-0.529-2.402c-0.203-0.68-0.499-1.343-0.84-1.967
		c-0.47-0.862-1.026-1.676-1.534-2.517c-0.167-0.275-0.248-0.621-0.462-0.846c-0.719-0.754-0.577-1.414,0.08-2.118
		c1.012-1.084,1.041-3.368,0.094-4.534c-0.141-0.174-0.409-0.366-0.394-0.528c0.122-1.264-0.914-1.946-1.453-2.852
		c-0.319-0.537-0.97-0.939-1.555-1.241c-1.096-0.567-1.993-1.292-2.623-2.371c-0.255-0.438-0.599-0.883-1.013-1.158
		c-1.52-1.008-2.115-2.577-2.652-4.18c-0.65-1.94,1.393-3.199,3.099-3.721c0.179-0.055,0.382-0.031,0.711-0.052
		c-0.068-1.038-0.072-2.067-0.217-3.074c-0.224-1.551,0.135-2.924,1.133-4.097c0.182-0.214,0.704-0.232,1.053-0.192
		c0.557,0.063,0.853-0.101,0.973-0.653c0.162-0.748,0.358-1.489,0.54-2.233c-0.125-0.051-0.25-0.103-0.376-0.154
		c-0.295,0.315-0.551,0.688-0.898,0.928c-0.292,0.201-0.721,0.384-1.032,0.315c-0.235-0.053-0.447-0.492-0.551-0.8
		c-0.61-1.802-1.184-3.617-1.778-5.424c-0.037-0.112-0.117-0.251-0.214-0.297c-1.827-0.859-2.715-2.703-4.15-3.98
		c-1.044-0.929-1.842-2.139-2.719-3.249c-0.416-0.527-0.701-1.094-0.147-1.754c0.116-0.138,0.046-0.481-0.016-0.708
		c-0.231-0.837-0.481-1.67-0.757-2.493c-0.061-0.183-0.258-0.444-0.397-0.447c-0.195-0.003-0.382,0.232-0.593,0.309
		c-0.26,0.094-0.573,0.233-0.805,0.161c-0.2-0.062-0.495-0.454-0.446-0.589c0.395-1.073-0.423-1.431-1.046-1.913
		c0-0.13,0-0.259,0-0.389c0.489,0.031,1.103-0.115,1.443,0.125c1.172,0.829,2.125,0.181,2.893-0.093
		c-0.049-0.823-0.087-1.477-0.129-2.13c-0.012-0.191-0.008-0.39-0.061-0.571c-0.261-0.887,0.05-1.605,0.498-2.373
		c0.292-0.5,0.414-1.191,0.368-1.777c-0.089-1.133,0.33-2.021,1.017-2.833c0.41-0.485,0.939-0.887,1.276-1.415
		c0.707-1.108,1.049-1.297,2.021-0.431c1.158,1.031,2.302,0.938,3.576,0.41c0.259-0.107,0.575-0.074,0.844-0.164
		c0.49-0.164,1.014-0.301,1.433-0.584c0.431-0.292,0.738-0.564,1.264-0.159c0.418,0.322,0.797,0.225,0.893-0.383
		c0.059-0.379,0.178-0.755,0.185-1.134c0.024-1.304,0.323-1.62,1.573-1.23c1.043,0.325,1.984,0.728,2.805-0.372
		c0.092-0.123,0.343-0.127,0.711-0.249c-0.26-0.753-0.502-1.456-0.818-2.371c0.749,0.325,1.427,0.571,2.058,0.907
		c0.679,0.362,1.228,0.289,1.724-0.288c0.229-0.266,0.465-0.527,0.698-0.79C512.597,389.205,512.922,389.205,513.246,389.205z
		 M498.747,438.267c-1.699-0.194-2.66,0.7-3.573,1.625c-0.218,0.221-0.359,0.672-0.309,0.98c0.267,1.625,0.89,3.09,2.107,4.264
		c0.623,0.601,1.171,1.279,1.794,1.88c0.663,0.641,1.312,1.329,2.079,1.821c0.909,0.583,1.753,1.12,2.32,2.119
		c0.406,0.714,1.091,1.254,1.005,2.2c-0.013,0.148,0.184,0.326,0.306,0.472c1.127,1.355,1.093,3.753-0.026,5.148
		c-0.231,0.288-0.479,0.794-0.377,1.074c0.339,0.928,0.652,1.977,1.31,2.655c1.269,1.308,1.911,2.775,2.255,4.539
		c0.263,1.346,0.976,2.602,1.461,3.908c0.715,1.924,0.621,2.077-1.398,2.445c-0.406,1.354-0.617,2.831-2.006,3.684
		c-0.208,0.128-0.322,0.492-0.377,0.768c-0.2,1.007-0.802,1.655-1.68,2.132c-0.357,0.194-0.799,0.47-0.922,0.81
		c-0.249,0.688-0.818,0.924-1.31,1.321c-0.345,0.279-0.568,0.775-0.718,1.217c-0.286,0.842-0.4,1.748-0.736,2.566
		c-0.346,0.842-1.003,1.567-1.289,2.421c-0.6,1.795-0.988,3.661-1.586,5.457c-0.203,0.609-0.771,1.097-1.18,1.635
		c-0.113,0.149-0.361,0.275-0.364,0.415c-0.022,1.078-0.672,2.13-0.591,3.081c0.136,1.6,0.008,3.066-0.497,4.563
		c-0.46,1.363,0.632,3.017,1.989,3.026c-0.251-1.336,0.67-1.635,1.711-1.885c0.393,0.448,0.925,0.839,1.154,1.363
		c0.374,0.855,0.881,1.369,1.82,1.531c0.702,0.121,1.025,0.496,0.974,1.366c-0.034,0.586,0.389,1.425,0.876,1.76
		c0.673,0.463,1.599,0.557,2.419,0.81c0.166,2.906,1.218,4.055,3.02,3.431c0.178,0.424,0.248,1.074,0.55,1.21
		c0.592,0.266,0.624,0.626,0.606,1.137c-0.066,1.938,0.375,2.57,2.195,3.395c0.389,0.176,0.751,0.501,1.016,0.843
		c0.453,0.586,0.818,1.24,1.22,1.865c0.129-0.026,0.258-0.052,0.386-0.078c0.052-0.402,0.052-0.82,0.17-1.201
		c0.112-0.362,0.298-0.924,0.54-0.974c0.425-0.088,1.194,0.002,1.335,0.271c0.729,1.39,2.148,1.147,3.286,1.546
		c0.117,0.041,0.353-0.129,0.475-0.257c0.611-0.639,0.993-0.278,1.211,0.321c0.183,0.503,0.222,1.06,0.324,1.589
		c0.352,0.061,0.705,0.091,1.039,0.186c0.526,0.149,1.065,0.29,1.555,0.526c0.893,0.431-0.096,1.018,0.062,1.426
		c0.33,0.849-0.289,1.32-0.517,1.958c-0.128,0.36-0.155,1.054,0.037,1.174c0.599,0.374,1.317,0.692,2.002,0.719
		c0.253,0.01,0.54-0.851,0.812-1.315c0.274-0.253,0.71-0.361,1.154-0.415c0.482-0.058,1.005,0.037,1.446-0.119
		c0.565-0.2,0.867,0.004,1.362,0.25c0.597,0.297,1.588,0.382,2.128,0.071c0.726-0.418,1.175-1.31,1.759-1.985
		c0.711-0.821,0.7-1.591-0.254-2.087c-1.808-0.94-2.993-2.453-4.084-4.071c-0.715-1.06-1.724-1.637-2.906-1.967
		c-0.226-0.063-0.561-0.091-0.723,0.03c-1.109,0.83-2.248,0.642-3.342,0.074c-0.711-0.37-1.336-0.908-1.989-1.385
		c-0.823-0.602-1.634-1.179-2.757-0.832c-0.21,0.065-0.561-0.02-0.728-0.168c-1.421-1.263-2.989-2.415-3.651-4.314
		c-0.079-0.226-0.034-0.561,0.082-0.776c0.208-0.383,0.514-0.712,0.951-1.293c0.576,1.058,1.22,1.958,1.571,2.961
		c0.402,1.148,1.015,2.029,2.109,2.638c0.045-0.338,0.018-0.688-0.171-0.856c-0.89-0.791-1.444-1.726-1.534-2.931
		c-0.018-0.245-0.181-0.477-0.268-0.718c-0.305-0.844-0.682-1.671-0.887-2.538c-0.246-1.036-0.367-2.104-0.496-3.164
		c-0.077-0.637-0.394-0.932-0.956-1.274c-1.566-0.95-3.022-2.021-2.695-4.273c0.131-0.906-0.076-1.87-0.192-2.8
		c-0.149-1.199-0.693-1.56-1.877-1.255c-1.063,0.274-2.101,0.649-3.168,0.902c-0.797,0.189-1.461-0.073-1.871-0.911
		c0.845-0.645,0.599-1.37,0.219-2.157c-0.333-0.69-0.663-1.41-0.81-2.153c-0.207-1.047-0.243-2.127-0.365-3.33
		c1.256-1.061,1.286-1.162,0.61-2.41c0.209-0.261,0.467-0.478,0.592-0.756c0.718-1.594,1.292-3.266,2.622-4.506
		c0.104-0.097,0.207-0.335,0.159-0.437c-0.599-1.288-0.127-2.322,0.728-3.28c0.038-0.042,0.02-0.13,0.048-0.186
		c0.574-1.182,0.972-2.506,1.776-3.504c0.849-1.053,1.725-1.979,2.056-3.366c0.155-0.65,0.571-1.203,0.231-1.916
		c-0.081-0.169,0.036-0.43,0.052-0.649c0.099-1.344,0.193-2.688,0.294-4.032c0.018-0.241-0.023-0.542,0.104-0.71
		c1.094-1.449,1.06-2.685-0.135-3.96c-0.212-0.227-0.379-0.497-0.67-0.885c3.509-2.17,7.033-2.942,10.796-1.474
		c-0.304,2.477-0.595,4.841-0.908,7.394c0.336,0.094,0.807,0.313,1.289,0.344c1.252,0.081,2.51,0.065,3.765,0.116
		c1.018,0.041,2.034,0.154,3.052,0.171c0.326,0.005,0.653-0.205,0.985-0.297c0.612-0.17,1.223-0.36,1.847-0.463
		c0.172-0.028,0.448,0.182,0.578,0.356c0.849,1.137,1.652,2.309,2.516,3.434c0.223,0.291,0.6,0.621,0.927,0.644
		c0.877,0.063,1.416,0.62,2.018,1.114c0.182,0.15,0.363,0.301,0.718,0.596c-0.116-0.627-0.19-1.027-0.261-1.41
		c1.193-0.559,1.667,0.164,1.998,1.108c0-1.075,0-2.15,0-3.226c0.02-0.251-0.198-0.492-0.38-0.758
		c-0.282-0.412-0.444-0.99-0.825-1.234c-1.085-0.694-1.988-2.145-1.751-3.41c0.144-0.771-0.215-1.216-0.508-1.831
		c-0.427-0.898-0.667-1.963-0.649-2.951c0.006-0.329,1.083-0.596,1.614-0.971c0.308-0.217,0.512-0.586,0.748-0.898
		c0.131-0.173,0.221-0.378,0.347-0.556c0.985-1.395,1.965-2.795,2.971-4.176c0.24-0.33,0.521-0.732,0.872-0.86
		c1.045-0.383,2.132-0.655,3.207-0.953c0.463-0.128,0.992-0.114,1.397-0.336c0.874-0.478,1.708-0.412,2.622-0.162
		c0.601,0.164,1.255,0.166,1.886,0.175c0.598,0.009,1.198-0.075,1.797-0.102c0.415-0.019,0.832-0.004,1.247-0.017
		c0.833-0.026,1.666-0.058,2.498-0.092c0.506-0.021,1.041,0.049,1.512-0.093c2.059-0.624,3.982-0.834,5.299,1.423
		c0.841-0.482,1.595-0.986,2.409-1.364c1.976-0.917,2.231-1.293,1.984-3.42c-0.098-0.847-0.111-1.634,0.875-2.046
		c-0.604-0.505-1.39-0.862-1.587-1.425c-0.15-0.428,0.449-1.118,0.735-1.735c-0.136-0.106-0.432-0.335-0.703-0.545
		c0.52-0.59,1.053-1.078,1.441-1.662c0.555-0.835,0.342-1.439-0.563-1.884c-0.406-0.199-0.863-0.308-1.242-0.546
		c-0.405-0.254-0.745-0.611-1.116-0.925c0.385-0.453,0.641-0.754,0.985-1.158c-1.017-0.167-1.88-0.203-2.66-0.476
		c-0.515-0.179-1.28-0.685-1.294-1.069c-0.052-1.396-1.309-1.814-2.012-2.54c-1.029-1.063-1.283-1.037-1.064-2.54
		c0.101-0.695,0.383-1.533,0.115-2.075c-0.437-0.882-0.309-1.557,0.009-2.38c0.696-1.803,0.147-3.543-1.948-3.784
		c-0.473-0.054-0.928-0.521-1.331-0.867c-0.582-0.499-1.066-1.117-1.669-1.585c-0.975-0.756-1.797-1.565-1.977-2.87
		c-0.125-0.91-0.687-1.359-1.622-1.523c-1.386-0.244-2.739-0.674-4.123-0.933c-0.537-0.1-1.158-0.058-1.668,0.122
		c-0.326,0.115-0.498,0.625-0.778,0.92c-0.477,0.502-1.223,0.888-1.436,1.474c-0.617,1.704-1.858,2.346-3.504,2.553
		c-0.273,0.034-0.52,0.255-0.786,0.37c-0.664,0.288-1.228,0.314-1.645-0.452c-0.151-0.278-0.516-0.466-0.819-0.629
		c-0.815-0.439-1.707-0.759-2.459-1.282c-0.827-0.575-1.532-0.864-2.428-0.153c-0.365,0.29-0.92,0.329-1.319,0.589
		c-0.458,0.299-0.849,0.706-1.249,1.086c-0.291,0.277-0.505,0.659-0.832,0.87c-0.848,0.546-2.024,0.821-2.561,1.569
		c-1.424,1.983-2.964,1.995-4.812,0.809c-0.104-0.067-0.224-0.108-0.422-0.2c0.302-0.548,0.558-1.073,0.87-1.563
		c0.33-0.518,0.716-1,1.074-1.5c0.268-0.374,0.658-0.719,0.766-1.136c0.168-0.649,0.193-1.349,0.176-2.026
		c-0.007-0.274-0.22-0.629-0.45-0.797c-0.736-0.539-0.876-1.108-0.18-1.645c0.742-0.573,0.993-1.305,1.124-2.163
		c0.098-0.638,0.158-1.324,0.445-1.879c0.414-0.8,0.199-1.346-0.273-2.016c-0.82-1.163-1.136-2.343,0.026-3.4
		c0.138-0.125,0.162-0.375,0.299-0.714c-0.826,0-1.534-0.091-2.206,0.025c-0.726,0.124-1.404,0.54-2.13,0.648
		c-0.776,0.115-1.631,0.186-2.369-0.02c-1.746-0.485-2.286-2.525-1.179-3.939c0.329-0.42,0.552-0.94,0.744-1.444
		c0.074-0.194-0.047-0.672-0.126-0.683c-0.894-0.126-0.965-0.959-1.35-1.507c-0.675-0.961-1.599-0.902-2.172,0.158
		c-0.087,0.161-0.198,0.309-0.333,0.518c-0.291-0.357-0.513-0.674-0.781-0.946c-0.294-0.298-0.613-0.578-0.953-0.824
		c-0.479-0.346-0.917-0.342-1.373,0.129c-1.065,1.099-1.426,1.127-2.791,0.385c-0.21-0.114-0.43-0.208-0.498-0.241
		c0,0.664,0,1.311,0,1.939c-0.401,0.195-0.915,0.278-1.112,0.574c-0.459,0.69-1.027,0.544-1.621,0.403
		c-0.407-0.097-0.797-0.265-1.197-0.395c-0.678-0.22-0.945,0.037-0.967,0.74c-0.018,0.568-0.071,1.173-0.292,1.682
		c-0.116,0.269-0.779,0.605-0.926,0.507c-0.75-0.498-1.164-0.113-1.648,0.386c-0.169,0.175-0.5,0.225-0.767,0.265
		c-0.35,0.052-0.761-0.07-1.056,0.07c-1.558,0.743-2.963,0.708-4.265-0.555c-0.474-0.46-0.872-0.29-1.213,0.312
		c-0.327,0.578-0.801,1.08-1.246,1.584c-0.705,0.797-1.345,1.572-1.065,2.78c0.106,0.459,0.065,1.1-0.187,1.466
		c-0.619,0.899-1.026,1.774-0.689,2.879c0.053,0.173-0.047,0.387-0.022,0.575c0.051,0.382,0.047,0.814,0.233,1.126
		c0.333,0.561,0.288,0.873-0.35,1.099c-1.055,0.372-2.09,0.735-3.13-0.048c-0.154-0.116-0.39-0.122-0.333-0.105
		c0.153,0.645,0.292,1.342,0.506,2.014c0.034,0.108,0.494,0.223,0.615,0.136c0.754-0.539,1.372-0.445,1.582,0.28
		c0.269,0.927,0.582,1.841,0.837,2.771c0.066,0.24,0.093,0.628-0.045,0.763c-0.523,0.515-0.271,0.959,0.059,1.374
		c0.924,1.158,1.746,2.447,2.855,3.395c1.41,1.206,2.201,3.065,4.045,3.792c0.098,0.039,0.181,0.183,0.219,0.296
		c0.577,1.713,1.137,3.432,1.721,5.144c0.127,0.371,0.329,0.717,0.496,1.074c0.345-0.251,0.694-0.496,1.031-0.756
		c0.126-0.098,0.212-0.247,0.336-0.347c0.392-0.318,0.91-0.242,0.88,0.212c-0.067,1.003-0.262,2.029-0.625,2.959
		c-0.093,0.239-1.007,0.156-1.543,0.225c-0.059,0.008-0.113,0.046-0.129,0.053c-0.143,0.304-0.254,0.587-0.404,0.848
		c-0.246,0.428-0.661,0.815-0.746,1.267c-0.129,0.686-0.06,1.414-0.032,2.123C498.597,436.055,498.677,437.111,498.747,438.267z
		 M515.156,510.841c-0.886,1.239-0.983,1.311-0.134,2.446c0.804,1.075,1.824,1.992,2.787,2.939c0.191,0.188,0.558,0.198,0.845,0.29
		C516.587,515.165,516.41,512.711,515.156,510.841z M496.222,509.554c-0.502-0.532-0.933-1.049-0.105-1.575
		c0.011-0.007-0.169-0.442-0.34-0.575c-0.231-0.18-0.54-0.262-1.031-0.483c0.068,1.096,0.125,2.014,0.181,2.915
		C495.415,509.729,495.768,509.653,496.222,509.554z"/>
	<path style="fill:#808080;" d="M497.583,508.045c-0.41-0.323-0.895-0.717,0.112-1.186c0.283-0.132,0.459-0.492,0.924-0.695
		c0.013,0.241,0.072,0.49,0.031,0.722c-0.093,0.533-0.222,1.061-0.358,1.586c-0.073,0.284-0.19,0.557-0.287,0.834
		c-0.141-0.06-0.389-0.102-0.403-0.184C497.552,508.835,497.583,508.533,497.583,508.045z"/>
	<path style="fill:#808080;" d="M512.001,492.966c0.789,0.15,1.539,0.095,1.965,0.44c0.311,0.251-0.592,1.521-1.114,1.459
		C511.754,494.733,512.305,493.798,512.001,492.966z"/>
	<path style="fill:#808080;" d="M503.764,513.488c-0.735-0.083-1.597-1.217-1.395-1.817c0.054-0.159,0.35-0.386,0.453-0.35
		c0.244,0.087,0.56,0.274,0.63,0.49C503.619,512.326,503.66,512.88,503.764,513.488z"/>
	<path style="fill:#808080;" d="M509.513,520.325c0.053,0.752,0.105,1.505,0.158,2.257c-0.112,0.025-0.224,0.05-0.336,0.076
		c-0.314-0.24-0.629-0.481-0.968-0.74c0.274-0.572,0.525-1.096,0.776-1.619C509.266,520.307,509.389,520.316,509.513,520.325z"/>
	<path style="fill:#808080;" d="M505.586,523.273c-0.331-0.375-0.524-0.75-0.824-0.882c-0.208-0.092-0.563,0.151-1.012,0.296
		c0.691-1.345,1.025-1.385,2.432-0.453C505.984,522.578,505.785,522.925,505.586,523.273z"/>
	<path style="fill:#808080;" d="M514.477,491.919c-0.374,0.288-0.647,0.571-0.706,0.532c-0.45-0.299-0.858-0.661-1.279-1.004
		c0.217-0.196,0.547-0.6,0.631-0.554C513.558,491.13,513.929,491.483,514.477,491.919z"/>
</g>
<path style="fill:#808080;" d="M257.225,444.14c2.527-2.819,4.068-6.054,4.478-9.867c0.238-2.215,0.739-2.517,2.975-2.622
	c0.661-0.031,1.047-0.136,1.342-0.943c0.248-0.679,1.134-1.211,1.847-1.617c1.797-1.027,1.913-1.575,0.492-3.156
	c-0.299-0.333-0.6-0.68-0.822-1.066c-0.639-1.107-0.345-2.142,0.777-2.728c0.394-0.206,0.835-0.33,1.265-0.457
	c2.033-0.602,2.293-0.928,2.383-3.006c0.016-0.359-0.017-0.755,0.124-1.066c0.604-1.332,0.697-2.519-0.094-3.914
	c-0.529-0.933,0.178-1.956,1.207-2.382c1.505-0.624,2.128-1.701,2.356-3.294c0.481-3.359,1.974-6.035,5.472-7.167
	c0.848-0.274,1.633-0.753,2.43-1.171c1.123-0.589,1.385-1.525,1.146-2.732c-0.089-0.448,0.104-0.956,0.19-1.432
	c0.1-0.554,0.291-1.099,0.326-1.656c0.154-2.417,0.63-2.744,2.967-3.098c1.219-0.184,2.34-1.02,3.506-1.561c0.18,0,0.361,0,0.541,0
	c0.529,0.799,1.227,1.535,1.553,2.41c0.781,2.096,3.261,3.708,5.658,3.43c0.11-0.813,0.223-1.647,0.372-2.755
	c1.391,0.255,2.929,0.149,3.927,0.833c0.916,0.627,1.248,2.105,1.761,3.064c-0.325,1.001-1.077,2.126-0.778,2.724
	c0.318,0.636,1.633,0.773,2.352,1.063c-0.454,1.799-0.97,3.585-1.335,5.402c-0.168,0.833,0.229,1.755-0.958,2.257
	c-0.258,0.109-0.22,1.385-0.007,2.02c0.264,0.79,0.316,1.357-0.121,2.136c-0.247,0.44,0.076,1.248,0.242,1.863
	c0.625,2.321,1.343,4.619,1.889,6.958c0.087,0.373-0.523,0.91-0.923,1.549c0.695,0.506,1.535,1.119,2.713,1.978
	c-0.735,0.527-1.339,0.961-2.251,1.616c0.958,0.309,1.56,0.546,2.184,0.697c1.845,0.447,2.303,1.075,2.418,2.997
	c0.059,0.992,0.332,1.977,0.576,2.948c0.049,0.193,0.408,0.307,0.839,0.608c0.092-0.611,0.11-1.08,0.245-1.512
	c0.097-0.31,0.351-0.57,0.535-0.853c0.309,0.217,0.771,0.369,0.897,0.665c0.35,0.817,0.561,1.694,0.784,2.411
	c0.825,0.162,1.542,0.303,2.53,0.498c-0.919,1.16-0.643,1.94-0.011,2.751c0.246,0.315,0.319,0.858,0.282,1.281
	c-0.061,0.703-0.466,1.454,0.693,1.657c0.099,0.017,0.126,0.559,0.153,0.861c0.219,2.396,1.193,4.446,3.029,5.981
	c0.602,0.503,1.507,0.811,2.303,0.884c2.232,0.206,4.853,2.494,5.284,4.701c0.16,0.817,0.53,1.593,0.804,2.387
	c0.156-0.025,0.313-0.049,0.469-0.074c0.136-0.309,0.292-0.611,0.406-0.928c0.583-1.622,1.767-1.961,3.09-0.803
	c0.811,0.71,1.514,1.544,2.277,2.311c1.082,1.087,2.11,2.158,3.924,1.949c0.546-0.063,1.277,0.588,1.762,1.073
	c0.926,0.927,1.897,1.28,3.169,0.83c1.68-0.594,3.257-0.369,4.743,0.667c0.659,0.46,1.409,0.8,2.144,1.138
	c0.754,0.347,1.543,0.74,1.87-0.565c0.047-0.188,0.688-0.423,0.934-0.327c0.522,0.204,0.964,0.611,1.439,0.935
	c0,0.361,0,0.722,0,1.082c-0.349,0.403-0.624,0.929-1.059,1.188c-2.269,1.352-1.926,3.301-1.437,5.394
	c0.15,0.641-0.109,1.411-0.3,2.088c-0.181,0.642-0.571,1.224-0.773,1.862c-0.377,1.191-0.254,2.239,0.744,3.192
	c1.425,1.361,1.459,1.67,0.973,3.277c-0.811-0.454-1.574-0.882-2.447-1.371c0.044,0.27,0.026,0.415,0.088,0.498
	c1.459,1.937,1.49,2.057-0.47,3.602c-0.935,0.737-2.128,1.147-3.062,1.885c-1.778,1.405-3.503,2.889-5.122,4.471
	c-0.246,0.24,0.025,1.296,0.347,1.78c1.06,1.592,1.073,2.123,0.128,3.807c-0.467,0.833-0.82,1.793-0.954,2.735
	c-0.176,1.236-0.544,2.204-1.653,2.914c-0.619,0.397-1.023,1.117-1.572,1.641c-0.445,0.425-0.911,0.976-1.459,1.117
	c-1.159,0.3-1.107,0.903-0.786,1.795c0.64,1.779,0.248,2.353-1.626,2.552c-0.578,0.061-1.152,0.172-1.727,0.26
	c-0.064,0.128-0.129,0.256-0.193,0.385c0.62,0.368,1.2,0.855,1.868,1.08c1.509,0.506,2.214,1.544,1.608,3.034
	c-0.371,0.912-1.036,1.804-1.792,2.439c-1.218,1.022-1.565,2.164-1.025,3.586c1.031,2.719,1.583,5.527,1.695,8.426
	c0.016,0.404,0.019,0.814-0.028,1.215c-0.146,1.249-0.902,1.673-2.084,1.234c-1.17-0.435-2.507-0.612-3.493-1.3
	c-1.171-0.817-2.205-1.68-3.725-1.695c-0.216-0.002-0.53-0.495-0.625-0.813c-0.931-3.112-5.009-5.832-8.216-5.443
	c-0.134,0.016-0.319-0.01-0.393,0.067c-1.461,1.529-3.278,0.727-4.969,0.798c-1.058,0.044-2.11,0.229-3.316,0.368
	c0.833,2.296-1.26,2.181-2.011,3.154c-0.522-0.405-0.936-0.727-1.576-1.223c-0.255,0.938-0.541,1.677-0.645,2.441
	c-0.173,1.266-0.827,1.768-2.089,1.759c-1.353-0.01-1.49,0.264-1.035,1.541c0.236,0.661,0.463,1.326,0.695,1.989
	c-0.092,0.125-0.184,0.25-0.276,0.375c-0.775-0.329-1.577-0.606-2.313-1.006c-0.421-0.229-0.72-0.675-1.098-0.994
	c-1.676-1.416-2.564-1.159-3.137,0.896c-0.611,2.195-1.68,2.503-3.347,1.048c-0.349-0.304-0.963-0.329-1.466-0.422
	c-0.343-0.063-0.707-0.003-1.059-0.029c-0.703-0.053-1.422-0.254-2.102-0.162c-0.992,0.135-1.442-0.057-1.32-1.157
	c0.057-0.511,0.021-1.111-0.199-1.56c-0.786-1.61-0.875-3.544-2.567-4.744c-1.623-1.151-3.267-1.658-5.192-1.159
	c-2.58,0.668-4.9-0.018-7.073-1.379c-1.308-0.819-1.875-1.938-1.501-3.558c0.423-1.83-0.131-2.414-1.924-2.485
	c-1.06-0.042-2.145-0.22-2.318-1.565c-0.142-1.098,0.753-2.107,2.318-2.095c2.358,0.018,3.599-1.405,4.734-3.069
	c0.339-0.497,0.493-1.146,0.625-1.749c0.141-0.646-0.168-0.927-0.872-1.035c-0.527-0.08-1.339-0.454-1.414-0.821
	c-0.11-0.538,0.32-1.19,0.533-1.789c0.026-0.073,0.124-0.135,0.203-0.172c2.396-1.124,2.555-3.411,2.992-5.594
	c0.093-0.464,0.624-1.137,1.023-1.191c1.525-0.203,1.705-1.308,1.843-2.432c0.159-1.297,0.058-2.548-1.303-3.267
	c-0.636-0.336-1.3-0.629-1.902-1.018c-1.497-0.969-1.8-2.057-1.126-3.706c0.39-0.953,0.852-1.894,1.098-2.886
	c0.57-2.301-1.401-4.114-3.682-3.459c-2.651,0.762-3.484,0.013-2.798-2.726c0.369-1.472,0.141-2.624-0.899-3.706
	c-0.356-0.37-0.521-0.926-0.763-1.402c-0.433-0.849-0.889-1.689-1.273-2.56c-0.201-0.455-0.259-0.972-0.404-1.454
	c-0.169-0.565-0.209-1.325-0.596-1.619c-0.299-0.227-1.207-0.051-1.566,0.264c-2.114,1.853-3.549,1.655-3.984-1.912
	c-0.216-1.767-0.593-3.515-0.911-5.27c-0.02-0.11-0.161-0.199-0.246-0.298c0-0.09,0-0.18,0-0.271
	c0.239-0.426,0.416-0.907,0.73-1.268c0.778-0.897,1.307-1.75-0.104-2.68c0.523-0.238,0.902-0.409,1.262-0.573
	c-0.528-2.801-0.451-2.862,2.355-2.658c0.334,0.024,0.949-0.322,0.993-0.574c0.079-0.45-0.019-1.171-0.326-1.399
	c-0.585-0.435-1.393-0.555-2.063-0.893c-0.969-0.489-1.899-1.057-2.846-1.591C257.225,444.681,257.225,444.41,257.225,444.14z
	 M300.095,393.05c-0.045,0.306-0.092,0.522-0.107,0.74c-0.127,1.945-0.492,2.206-2.324,1.671c-2.313-0.675-4.181-1.727-4.722-4.405
	c-0.285-1.412-0.885-1.464-2.162-0.805c-0.899,0.464-1.874,0.909-2.859,1.047c-1.8,0.251-2.243,0.487-2.242,2.311
	c0.001,1.559-0.907,2.949-0.619,4.585c0.092,0.521-0.627,1.365-1.184,1.779c-0.818,0.607-1.784,1.085-2.757,1.397
	c-3.158,1.013-4.564,3.423-5.019,6.423c-0.29,1.912-0.94,3.314-2.804,4.058c-0.815,0.326-1.274,1.176-0.799,1.875
	c0.89,1.308,0.806,2.475,0.121,3.774c-0.177,0.336-0.172,0.787-0.188,1.188c-0.093,2.323-0.418,2.763-2.613,3.463
	c-0.343,0.109-0.697,0.193-1.025,0.336c-1.154,0.503-1.401,1.363-0.675,2.374c0.235,0.328,0.538,0.606,0.801,0.914
	c1.385,1.624,1.145,2.744-0.721,3.722c-0.622,0.326-1.571,0.767-1.642,1.261c-0.19,1.309-0.992,1.315-1.916,1.354
	c-1.723,0.071-2.264,0.48-2.475,2.182c-0.419,3.373-1.376,6.476-3.712,9.086c-1.117,1.248-0.86,1.798,0.782,2.377
	c0.593,0.209,1.216,0.332,1.803,0.555c0.498,0.189,1.018,0.397,1.432,0.719c0.733,0.57,0.957,1.435,0.404,2.148
	c-0.319,0.412-1.11,0.699-1.655,0.652c-1.941-0.169-1.958-0.188-1.619,1.783c0.055,0.323-0.163,0.7-0.279,1.043
	c-0.055,0.164-0.278,0.395-0.235,0.45c0.706,0.915-0.083,1.464-0.452,2.152c-0.297,0.553-0.657,1.215-0.598,1.788
	c0.162,1.593,0.533,3.164,0.809,4.746c0.124,0.708,0.161,1.437,0.34,2.13c0.281,1.088,0.828,1.281,1.784,0.71
	c0.616-0.368,1.19-0.839,1.848-1.094c0.969-0.375,2.051-0.108,2.098,0.963c0.063,1.459,0.503,2.592,1.447,3.642
	c0.239,0.266,0.202,0.771,0.321,1.157c0.13,0.423,0.174,0.968,0.464,1.231c1.602,1.454,1.589,3.16,1.096,5.082
	c-0.406,1.582,0.279,2.167,1.761,1.607c1.501-0.567,2.859-0.417,4.012,0.68c1.154,1.099,1.096,2.493,0.683,3.903
	c-0.113,0.387-0.272,0.763-0.435,1.134c-1.349,3.069-1.213,3.453,1.799,4.991c0.12,0.061,0.249,0.106,0.367,0.171
	c1.879,1.03,2.518,5.013,0.679,6.018c-1.572,0.859-1.862,1.912-2.278,3.358c-0.47,1.633-0.816,3.554-2.909,4.136
	c-0.111,0.031-0.238,0.173-0.271,0.288c-0.107,0.365-0.302,0.78-0.208,1.1c0.06,0.204,0.576,0.391,0.883,0.384
	c1.259-0.031,1.535,0.664,1.44,1.737c-0.169,1.911-2.565,4.552-4.476,4.905c-0.706,0.13-1.48,0.123-2.097,0.43
	c-0.472,0.235-0.745,0.867-1.107,1.322c0.457,0.361,0.873,0.806,1.384,1.053c0.327,0.157,0.8,0.057,1.2,0.009
	c0.876-0.106,1.419,0.291,1.566,1.111c0.116,0.647,0.204,1.354,0.067,1.982c-0.304,1.394,0.138,2.388,1.324,3.091
	c2.112,1.252,4.299,1.951,6.814,1.297c3.092-0.803,5.464,0.552,6.88,2.826c1.046,1.68,1.35,3.822,1.887,5.46
	c0.943,0.184,1.917,0.386,2.897,0.556c0.205,0.036,0.439-0.098,0.644-0.063c0.603,0.103,1.335,0.074,1.773,0.413
	c1.697,1.312,2.146,1.199,2.759-0.931c0.062-0.216,0.075-0.448,0.153-0.657c0.377-1,1.092-1.514,2.104-1.033
	c0.873,0.415,1.63,1.068,2.451,1.597c0.545,0.351,1.11,0.67,1.667,1.003c-0.05-0.825-0.308-1.354-0.478-1.91
	c-0.373-1.215,0.047-2.004,1.273-1.894c1.689,0.153,1.918-0.814,2.136-2.054c0.382-2.172,0.781-2.341,2.603-1.178
	c0.547-0.336,1.114-0.684,1.746-1.072c-0.705-1.136-0.054-1.641,0.866-1.888c0.687-0.184,1.42-0.226,2.136-0.27
	c1.821-0.114,3.765,0.676,5.404-0.796c0.188-0.169,0.609-0.113,0.921-0.106c2.714,0.063,4.991,1.052,6.692,3.219
	c0.539,0.687,1.375,1.344,1.496,2.107c0.174,1.094,0.648,1.162,1.518,1.193c0.563,0.02,1.143,0.303,1.664,0.57
	c0.583,0.299,1.078,0.772,1.665,1.059c0.679,0.332,1.442,0.491,2.124,0.818c1.64,0.789,2.332,0.419,2.077-1.398
	c-0.367-2.613-0.998-5.188-1.441-7.792c-0.191-1.121-0.423-2.323-0.196-3.395c0.148-0.701,1.077-1.244,1.671-1.843
	c0.826-0.832,1.406-1.742,1.209-2.996c-0.177-1.123-1.077-1.176-1.902-1.37c-0.128-0.03-0.276-0.087-0.358-0.181
	c-0.446-0.512-0.874-1.04-1.308-1.563c0.541-0.233,1.078-0.475,1.625-0.693c0.163-0.065,0.354-0.063,0.533-0.088
	c1.824-0.252,1.87-0.349,1.325-2.129c-0.314-1.028-0.428-1.914,1.068-2.198c0.564-0.107,1.029-0.801,1.509-1.259
	c0.55-0.524,0.993-1.196,1.615-1.6c0.903-0.585,1.139-1.395,1.333-2.361c0.207-1.029,0.496-2.09,0.998-2.999
	c0.658-1.191,0.943-2.169-0.147-3.277c-0.878-0.893-0.913-1.985,0.033-2.879c1.392-1.317,2.857-2.557,4.306-3.813
	c0.196-0.17,0.496-0.214,0.721-0.359c1.232-0.796,2.471-1.583,3.677-2.417c0.761-0.526,0.717-1.106,0.091-1.794
	c-0.388-0.428-0.584-1.03-0.867-1.554c0.136-0.123,0.271-0.247,0.407-0.37c0.823,0.418,1.646,0.837,2.47,1.255
	c0.099-0.083,0.197-0.167,0.296-0.25c-0.426-0.621-0.745-1.367-1.3-1.837c-1.138-0.964-1.247-2.15-0.96-3.428
	c0.175-0.778,0.608-1.494,0.83-2.265c0.168-0.585,0.341-1.241,0.239-1.816c-0.381-2.149-0.993-4.307,1.489-5.695
	c0.152-0.085,0.264-0.244,0.385-0.378c1.03-1.132,0.886-1.596-0.644-2.083c-0.807,1.421-1.133,1.54-2.66,0.888
	c-0.495-0.212-0.996-0.446-1.43-0.759c-1.76-1.268-3.599-1.539-5.74-1.004c-0.821,0.205-2.012-0.284-2.773-0.824
	c-0.892-0.633-1.558-1.391-2.832-1.156c-0.467,0.086-1.14-0.288-1.546-0.648c-1.212-1.073-2.328-2.254-3.499-3.374
	c-1.338-1.28-1.918-1.126-2.678,0.562c-0.181,0.402-0.618,0.858-1.009,0.939c-0.278,0.057-0.83-0.405-0.99-0.758
	c-0.31-0.684-0.336-1.498-0.655-2.177c-0.386-0.822-0.789-1.783-1.476-2.284c-1.191-0.868-2.35-1.882-4.079-1.834
	c-0.719,0.02-1.564-0.663-2.171-1.222c-1.613-1.487-2.423-3.432-2.798-5.569c-0.053-0.301-0.031-0.798-0.191-0.867
	c-1.051-0.459-0.737-1.279-0.687-2.077c0.024-0.38-0.121-0.782-0.24-1.158c-0.274-0.865-0.58-1.72-0.943-2.785
	c-0.152,0.05-0.601,0.198-1.2,0.395c-0.447-1.194-0.881-2.354-1.45-3.874c-0.243,1.181-0.394,1.916-0.546,2.655
	c-1.819-0.464-2.331-1.225-2.319-3.305c0.016-2.709-0.073-2.771-2.678-3.465c-0.655-0.175-1.219-0.691-1.964-1.133
	c0.837-0.659,1.381-1.086,1.954-1.538c-0.944-0.89-2.491-1.003-2.471-2.169c0.516-0.743,1.125-1.242,1.043-1.563
	c-0.554-2.152-1.1-4.334-1.979-6.363c-0.409-0.943-0.433-1.633-0.148-2.516c0.157-0.487,0.266-1.085,0.127-1.553
	c-0.468-1.576-0.253-2.563,0.487-3.095c0.608-2.45,1.121-4.514,1.655-6.664c-0.311-0.045-0.703-0.081-1.087-0.16
	c-1.129-0.235-1.783-1.178-1.155-2.07c0.735-1.045,0.356-1.917,0.209-2.922c-0.181-1.24-0.878-1.838-2.034-1.961
	C301.589,392.992,300.909,393.05,300.095,393.05z"/>
<line id="divider_1_" style="fill:none;stroke:#BF0000;stroke-miterlimit:10;" x1="421" y1="440.125" x2="421" y2="455.628"/>
<line id="divider" style="fill:none;stroke:#BF0000;stroke-miterlimit:10;" x1="421" y1="476.514" x2="421" y2="492.017"/>
<g id="Luxembourg">
	<g>
		<path style="fill:#FFFFFF;" d="M226.017,474.334v-10.5h2.1v8.43h5.265v2.07H226.017z"/>
		<path style="fill:#FFFFFF;" d="M239.83,474.499c-2.535,0-4.245-1.71-4.245-4.77v-5.896h2.1v5.865c0,1.68,0.81,2.745,2.145,2.745
			c1.335,0,2.16-1.035,2.16-2.715v-5.896h2.1v5.865C244.09,472.744,242.5,474.499,239.83,474.499z"/>
		<path style="fill:#FFFFFF;" d="M253.391,474.334l-0.945-1.59c-0.375-0.63-0.945-1.665-1.14-2.055
			c-0.18,0.39-0.75,1.395-1.14,2.055l-0.945,1.59h-2.505l3.33-5.37l-3.18-5.13h2.505l0.795,1.351c0.375,0.63,0.945,1.665,1.14,2.055
			c0.195-0.39,0.75-1.395,1.14-2.055l0.795-1.351h2.505l-3.195,5.13l3.345,5.37H253.391z"/>
		<path style="fill:#FFFFFF;" d="M258.822,474.334v-10.5h7.29v2.056h-5.19v1.814h3.015v2.04h-3.015v2.535h5.415v2.055H258.822z"/>
		<path style="fill:#FFFFFF;" d="M277.197,474.334v-3.854c0-0.57,0.03-1.905,0.03-2.311c-0.15,0.391-0.465,1.141-0.735,1.74
			l-2.13,4.665l-2.13-4.665c-0.27-0.6-0.585-1.35-0.735-1.74c0,0.405,0.03,1.74,0.03,2.311v3.854h-2.055v-10.5h2.025l2.19,4.755
			c0.27,0.585,0.585,1.38,0.72,1.755c0.135-0.39,0.435-1.154,0.705-1.755l2.115-4.755h2.07v10.5H277.197z"/>
		<path style="fill:#FFFFFF;" d="M287.666,474.334h-4.77v-10.5h4.814c2.04,0,3.33,0.976,3.33,2.775c0,0.899-0.42,1.62-1.11,2.04
			c0.84,0.375,1.47,1.14,1.47,2.295C291.401,473.149,289.916,474.334,287.666,474.334z M287.621,465.77h-2.67v1.995h2.775
			c0.87,0,1.185-0.405,1.185-0.99C288.911,466.114,288.536,465.77,287.621,465.77z M287.741,469.624h-2.79v2.715h2.79
			c1.02,0,1.5-0.54,1.5-1.365C289.241,470.074,288.761,469.624,287.741,469.624z"/>
		<path style="fill:#FFFFFF;" d="M298.345,474.499c-2.865,0-4.56-2.22-4.56-5.415c0-3.194,1.695-5.415,4.56-5.415
			c2.865,0,4.56,2.221,4.56,5.415C302.905,472.279,301.21,474.499,298.345,474.499z M298.345,465.754c-1.695,0-2.4,1.455-2.4,3.33
			s0.705,3.33,2.4,3.33c1.695,0,2.4-1.455,2.4-3.33S300.04,465.754,298.345,465.754z"/>
		<path style="fill:#FFFFFF;" d="M310.12,474.499c-2.535,0-4.245-1.71-4.245-4.77v-5.896h2.1v5.865c0,1.68,0.81,2.745,2.145,2.745
			c1.335,0,2.16-1.035,2.16-2.715v-5.896h2.1v5.865C314.38,472.744,312.79,474.499,310.12,474.499z"/>
		<path style="fill:#FFFFFF;" d="M323.996,474.334l-1.875-3.78h-2.115v3.78h-2.1v-10.5h4.89c1.98,0,3.615,1.096,3.615,3.33
			c0,1.575-0.675,2.565-2.01,3.09l2.01,4.08H323.996z M322.75,465.874h-2.745v2.7h2.745c0.975,0,1.5-0.45,1.5-1.365
			C324.25,466.265,323.68,465.874,322.75,465.874z"/>
		<path style="fill:#FFFFFF;" d="M333.55,474.499c-2.745,0-4.59-2.1-4.59-5.415c0-3.194,1.92-5.415,4.665-5.415
			c2.145,0,3.285,1.006,3.975,2.625l-1.995,0.825c-0.39-0.78-0.87-1.365-2.01-1.365c-1.575,0-2.475,1.38-2.475,3.33
			c0,1.936,0.915,3.36,2.49,3.36c1.44,0,1.935-0.675,2.055-1.59H334v-1.965h3.765v1.38
			C337.765,472.969,335.98,474.499,333.55,474.499z"/>
	</g>
</g>
<g id="Or">
	<g>
		<path style="fill:#FFFFFF;" d="M415.949,461.807c-2.291,0-3.646,1.775-3.646,4.33c0,2.554,1.355,4.329,3.646,4.329
			c2.291,0,3.646-1.775,3.646-4.329C419.595,463.582,418.239,461.807,415.949,461.807z M415.949,468.799
			c-1.355,0-1.919-1.163-1.919-2.662c0-1.5,0.563-2.663,1.919-2.663c1.355,0,1.919,1.163,1.919,2.663
			C417.868,467.636,417.304,468.799,415.949,468.799z"/>
	</g>
	<g>
		<path style="fill:#FFFFFF;" d="M430.274,464.602c0-1.787-1.308-2.663-2.891-2.663h-3.909v8.396h1.679v-3.022h1.691l1.499,3.022
			h1.931l-1.607-3.263C429.734,466.652,430.274,465.86,430.274,464.602z M427.348,465.729h-2.194v-2.159h2.194
			c0.744,0,1.2,0.313,1.2,1.067C428.548,465.369,428.128,465.729,427.348,465.729z"/>
	</g>
</g>
<g id="Thailand">
	<g>
		<path style="fill:#FFFFFF;" d="M534.123,465.904v8.43h-2.1v-8.43h-3.016v-2.07h8.131v2.07H534.123z"/>
		<path style="fill:#FFFFFF;" d="M546.469,474.334v-4.41h-4.306v4.41h-2.1v-10.5h2.1v4.021h4.306v-4.021h2.1v10.5H546.469z"/>
		<path style="fill:#FFFFFF;" d="M559.158,474.334l-0.825-2.34h-3.84l-0.825,2.34h-2.25l4.02-10.5h2.041l3.989,10.5H559.158z
			 M556.938,468.095c-0.209-0.615-0.42-1.245-0.524-1.636c-0.104,0.391-0.315,1.021-0.524,1.636l-0.676,1.904h2.4L556.938,468.095z"
			/>
		<path style="fill:#FFFFFF;" d="M564.469,474.334v-10.5h2.1v10.5H564.469z"/>
		<path style="fill:#FFFFFF;" d="M570.318,474.334v-10.5h2.1v8.43h5.266v2.07H570.318z"/>
		<path style="fill:#FFFFFF;" d="M587.508,474.334l-0.824-2.34h-3.84l-0.825,2.34h-2.25l4.02-10.5h2.04l3.99,10.5H587.508z
			 M585.288,468.095c-0.21-0.615-0.42-1.245-0.524-1.636c-0.105,0.391-0.315,1.021-0.525,1.636l-0.675,1.904h2.399L585.288,468.095z
			"/>
		<path style="fill:#FFFFFF;" d="M599.298,474.334l-3.854-5.729c-0.256-0.391-0.6-0.915-0.735-1.186c0,0.391,0.03,1.71,0.03,2.295
			v4.62h-2.07v-10.5h2.01l3.721,5.55c0.254,0.391,0.6,0.915,0.734,1.186c0-0.391-0.029-1.71-0.029-2.295v-4.44h2.069v10.5H599.298z"
			/>
		<path style="fill:#FFFFFF;" d="M607.908,474.334h-3.135v-10.5h3.285c3,0,5.219,1.41,5.219,5.25
			C613.277,472.774,610.607,474.334,607.908,474.334z M607.983,465.874h-1.11v6.42h1.035c2.205,0,3.21-1.29,3.21-3.21
			C611.118,466.939,610.203,465.874,607.983,465.874z"/>
	</g>
</g>
<g id="logo">
	<g>
		<path style="fill:#8C0001;" d="M521.787,180.774c0.014,54.099-43.299,97.499-97.351,97.547
			c-54.159,0.049-98.018-43.721-97.916-97.717c0.101-53.597,44.206-97.572,97.836-97.547
			C478.112,83.083,521.774,126.872,521.787,180.774z M390.409,181.067c0,14.652-0.007,29.305,0.01,43.957
			c0.002,1.494-0.173,3.106,0.325,4.443c0.38,1.021,1.802,2.452,2.57,2.344c1.143-0.16,2.492-1.324,3.059-2.419
			c0.557-1.076,0.308-2.6,0.309-3.928c0.012-29.471,0.013-58.943,0-88.414c-0.001-1.327,0.181-2.792-0.31-3.941
			c-0.456-1.067-1.847-2.619-2.563-2.49c-1.175,0.211-2.564,1.418-3.074,2.558c-0.568,1.272-0.316,2.938-0.317,4.432
			C390.403,152.095,390.409,166.581,390.409,181.067z M411.448,181.49c0-7.473-0.054-14.946,0.027-22.417
			c0.032-2.935-0.473-5.935-3.909-5.42c-1.483,0.222-3.558,3.404-3.595,5.276c-0.294,14.939-0.164,29.887-0.163,44.832
			c0,2.677,0.408,5.228,3.797,5.281c3.391,0.053,3.878-2.364,3.859-5.134C411.415,196.435,411.447,188.962,411.448,181.49z
			 M431.377,181.575c0,7.482,0,14.963,0,22.445c0,2.436,0.101,4.899,3.374,5.032c3.536,0.144,3.882-2.321,3.879-5.043
			c-0.018-15.13-0.032-30.259,0.01-45.389c0.008-2.809-0.711-5.508-3.852-4.97c-1.38,0.236-3.171,3.194-3.256,4.989
			C431.17,166.269,431.378,173.927,431.377,181.575z M375.647,180.793c0,7.811-0.171,15.63,0.138,23.429
			c0.065,1.649,1.886,3.229,2.898,4.841c1.203-1.615,3.421-3.213,3.45-4.848c0.267-15.286,0.268-30.58,0-45.866
			c-0.029-1.668-2.239-3.297-3.438-4.944c-1.016,1.65-2.836,3.266-2.909,4.957C375.466,165.827,375.648,173.314,375.647,180.793z
			 M460.572,181.599c0,7.472-0.007,14.943,0.004,22.415c0.004,2.353-0.116,5.386,3.176,4.817c1.365-0.236,3.191-3.185,3.221-4.926
			c0.253-15.105,0.255-30.218-0.005-45.323c-0.03-1.748-2.113-3.46-3.244-5.188c-1.05,1.764-2.927,3.492-3.007,5.299
			C460.377,166.315,460.573,173.962,460.572,181.599z M453.388,181.228c0-3.651,0.389-7.364-0.182-10.924
			c-0.246-1.537-2.477-2.755-3.807-4.118c-1.202,1.332-3.378,2.618-3.445,4.005c-0.351,7.285-0.381,14.607,0.001,21.888
			c0.08,1.518,2.369,2.92,3.641,4.375c1.267-1.59,3.33-3.044,3.632-4.801C453.812,188.269,453.399,184.713,453.388,181.228z
			 M418.618,180.714c0,3.989-0.261,8.004,0.144,11.951c0.138,1.346,1.948,2.52,2.995,3.773c1.141-1.192,3.223-2.349,3.269-3.582
			c0.291-7.798,0.259-15.618-0.024-23.418c-0.041-1.12-2.004-2.171-3.078-3.254c-1.099,1.187-2.988,2.279-3.145,3.581
			C418.343,173.368,418.628,177.058,418.618,180.714z M481.495,181.716c0-3.998,0.253-8.021-0.144-11.979
			c-0.13-1.298-1.946-2.426-2.991-3.632c-1.043,1.068-2.951,2.107-2.989,3.21c-0.27,7.816-0.301,15.651-0.01,23.465
			c0.044,1.173,2.164,2.269,3.323,3.401c0.94-1.324,2.531-2.573,2.692-3.985C481.77,188.743,481.504,185.215,481.495,181.716z
			 M494.319,181.354c0-2.16,0.364-4.409-0.131-6.448c-0.319-1.316-1.9-2.325-2.915-3.472c-1.167,1.166-3.218,2.246-3.341,3.513
			c-0.416,4.279-0.371,8.644,0.011,12.93c0.1,1.125,2.05,2.88,3.164,2.891c1.061,0.011,2.756-1.722,3.074-2.968
			C494.698,185.77,494.321,183.514,494.319,181.354z M369.428,181.268c0-2.156,0.366-4.401-0.132-6.435
			c-0.317-1.294-1.75-2.784-3.006-3.194c-0.697-0.228-2.914,1.526-2.978,2.486c-0.32,4.766-0.319,9.576-0.009,14.343
			c0.059,0.902,2.242,2.526,3.06,2.316c1.206-0.31,2.646-1.828,2.944-3.079C369.792,185.664,369.437,183.424,369.428,181.268z"/>
		<path style="fill:#8C0001;" d="M458.194,332.186c-0.339-1.17-0.678-2.341-1.035-3.573c-1.431,4.712-2.819,6.106-4.139-0.496
			c-0.505,1.624-0.888,2.854-1.271,4.084c-0.529-0.016-1.058-0.031-1.587-0.047c0-4.595-0.05-9.191,0.081-13.782
			c0.012-0.432,1.205-1.205,1.777-1.143c0.603,0.065,1.426,0.849,1.614,1.479c0.564,1.897,0.864,3.872,1.444,6.668
			c0.554-2.675,0.805-4.598,1.399-6.408c0.241-0.734,1.151-1.461,1.915-1.717c0.359-0.12,1.569,0.87,1.583,1.38
			c0.128,4.502,0.074,9.01,0.074,13.516C459.432,332.16,458.813,332.173,458.194,332.186z"/>
		<path style="fill:#8C0001;" d="M470.92,316.984c4.534,0.799,2.978,4.753,4.389,8.251c0.491-2.403,0.607-4.052,1.201-5.506
			c0.408-0.999,1.479-1.726,2.254-2.575c0.57,0.852,1.596,1.683,1.634,2.558c0.176,4.068,0.078,8.149-1.117,12.614
			c-0.684-0.832-1.369-1.663-2.131-2.59c-0.445,0.766-0.986,1.699-2.218,3.82c-0.903-2.687-1.428-4.248-1.962-5.837
			c-0.336,1.488-0.666,2.948-0.995,4.407c-0.352-0.018-0.703-0.036-1.055-0.054C470.92,327.198,470.92,322.322,470.92,316.984z"/>
		<path style="fill:#8C0001;" d="M423.519,325.292c-0.624,3.224-0.972,5.022-1.32,6.821c-0.38,0.004-0.761,0.008-1.141,0.012
			c0-4.797,0-9.593,0-14.477c5.621-1.065,6.917,0.203,6.227,5.883c-0.338,2.784-0.059,5.643-1.204,8.843
			C425.397,330.481,424.712,328.589,423.519,325.292z"/>
		<path style="fill:#8C0001;" d="M408.354,323.136c-0.564-1.086-1.129-2.173-2.195-4.226c0,4.152,0,7.391,0,10.63
			c0.303,0.019,0.606,0.038,0.909,0.057c0.077-1.605,0.154-3.209,0.283-5.885c1.112,0.787,2.979,1.667,2.881,2.115
			c-0.484,2.203-1.489,4.291-2.31,6.42c-1.498-0.647-4.173-1.128-4.291-1.969c-0.499-3.56-0.495-7.256-0.08-10.833
			c0.106-0.916,2.779-2.502,3.587-2.16c1.497,0.633,2.488,2.461,3.69,3.792C410.002,321.762,409.178,322.449,408.354,323.136z"/>
		<path style="fill:#8C0001;" d="M362.82,332.098c-0.415-1.996-0.831-3.992-1.246-5.988c-0.406,0.027-0.813,0.054-1.22,0.081
			c-0.449,1.981-0.897,3.962-1.346,5.943c-0.388-0.041-0.776-0.083-1.163-0.124c0-4.87,0-9.741,0-14.611
			c0.363-0.064,0.725-0.127,1.088-0.191c0.48,2.13,0.961,4.26,1.441,6.391c0.383-0.002,0.765-0.004,1.148-0.006
			c0.476-2.129,0.952-4.258,1.428-6.387c0.387,0.042,0.774,0.085,1.161,0.127c0,4.895,0,9.791,0,14.686
			C363.681,332.045,363.251,332.072,362.82,332.098z"/>
		<path style="fill:#8C0001;" d="M375.245,316.993c2.264,0.188,4.2,0.348,7.359,0.61c-6.185,3.257-6.325,4.233-2.2,6.918
			c-3.939,3.521-3.903,3.822,1.796,7.419c-2.743,0.19-4.548,0.315-6.955,0.481C375.245,327.352,375.245,322.579,375.245,316.993z"/>
		<path style="fill:#8C0001;" d="M496.656,321.281c-1.055-0.488-2.11-0.976-3.44-1.591c-0.12,0.661-0.52,1.441-0.283,1.802
			c1.264,1.921,3.065,3.582,3.914,5.648c0.499,1.213-0.043,3.279-0.855,4.449c-0.499,0.718-2.689,1.005-3.585,0.513
			c-1.102-0.605-1.647-2.224-1.498-4.158c0.953,0.607,1.906,1.215,3.105,1.979c0.138-0.712,0.558-1.511,0.318-1.873
			c-1.084-1.637-3.063-3.026-3.366-4.743c-0.331-1.875,0.829-4.012,1.339-6.036c1.763,0.652,3.526,1.305,5.289,1.957
			C497.282,319.911,496.969,320.596,496.656,321.281z"/>
		<path style="fill:#8C0001;" d="M343.161,332.101c-0.545-4.773-1.091-9.546-1.673-14.647c1.383,0,3.563,0,5.158,0
			c-0.661,5.011-1.304,9.889-1.947,14.767C344.187,332.181,343.674,332.141,343.161,332.101z"/>
		<path style="fill:#8C0001;" d="M438.042,331.968c0-4.853,0-9.705,0-14.558c0.408,0.001,0.816,0.003,1.224,0.004
			c0,4.853,0,9.705,0,14.558C438.858,331.97,438.45,331.969,438.042,331.968z"/>
	</g>
</g>
</svg>
