<?xml version="1.0" encoding="iso-8859-1"?>
<!-- Generator: Adobe Illustrator 18.1.1, SVG Export Plug-In . SVG Version: 6.00 Build 0)  -->
<svg version="1.1" id="Layer_1" xmlns="http://www.w3.org/2000/svg" xmlns:xlink="http://www.w3.org/1999/xlink" x="0px" y="0px"
	 viewBox="0 0 195.268 195.263" style="enable-background:new 0 0 195.268 195.263;" xml:space="preserve">
<path style="fill:#8C0001;" d="M195.268,97.716c0.014,54.099-43.299,97.499-97.351,97.547C43.758,195.312-0.101,151.543,0,97.547
	C0.101,43.95,44.206-0.025,97.836,0C151.593,0.025,195.254,43.814,195.268,97.716z M63.89,98.009c0,14.652-0.007,29.305,0.01,43.957
	c0.002,1.494-0.173,3.106,0.325,4.443c0.38,1.021,1.802,2.452,2.57,2.344c1.143-0.16,2.492-1.324,3.059-2.419
	c0.557-1.076,0.308-2.6,0.309-3.928c0.012-29.471,0.013-58.943,0-88.414c-0.001-1.327,0.181-2.792-0.31-3.941
	c-0.456-1.067-1.847-2.619-2.563-2.49c-1.175,0.211-2.564,1.418-3.074,2.558c-0.568,1.272-0.316,2.938-0.317,4.432
	C63.884,69.037,63.89,83.523,63.89,98.009z M84.929,98.431c0-7.473-0.054-14.946,0.027-22.417c0.032-2.935-0.473-5.935-3.909-5.42
	c-1.483,0.222-3.558,3.404-3.595,5.276c-0.294,14.939-0.164,29.887-0.163,44.832c0,2.677,0.408,5.228,3.797,5.281
	c3.391,0.053,3.878-2.364,3.859-5.134C84.895,113.377,84.928,105.904,84.929,98.431z M104.857,98.517c0,7.482,0,14.963,0,22.445
	c0,2.436,0.101,4.899,3.374,5.032c3.536,0.144,3.882-2.321,3.879-5.043c-0.018-15.13-0.032-30.259,0.01-45.389
	c0.008-2.809-0.711-5.508-3.852-4.97c-1.38,0.236-3.171,3.194-3.256,4.989C104.65,83.211,104.858,90.869,104.857,98.517z
	 M49.128,97.734c0,7.811-0.171,15.63,0.138,23.429c0.065,1.649,1.886,3.229,2.898,4.841c1.203-1.615,3.421-3.213,3.45-4.848
	c0.267-15.286,0.268-30.58,0-45.866c-0.029-1.668-2.239-3.297-3.438-4.944c-1.016,1.65-2.836,3.266-2.909,4.957
	C48.947,82.769,49.129,90.255,49.128,97.734z M134.052,98.541c0,7.472-0.007,14.943,0.004,22.415
	c0.004,2.353-0.116,5.386,3.176,4.817c1.365-0.236,3.191-3.185,3.221-4.926c0.253-15.105,0.255-30.218-0.005-45.323
	c-0.03-1.748-2.113-3.46-3.244-5.188c-1.05,1.764-2.927,3.492-3.007,5.299C133.857,83.257,134.053,90.903,134.052,98.541z
	 M126.869,98.17c0-3.651,0.389-7.364-0.182-10.924c-0.246-1.537-2.477-2.755-3.807-4.118c-1.202,1.332-3.378,2.618-3.445,4.005
	c-0.351,7.285-0.381,14.607,0.001,21.888c0.08,1.518,2.369,2.92,3.641,4.375c1.267-1.59,3.33-3.044,3.632-4.801
	C127.292,105.211,126.88,101.655,126.869,98.17z M92.099,97.656c0,3.989-0.261,8.004,0.144,11.951
	c0.138,1.346,1.948,2.52,2.995,3.773c1.141-1.192,3.223-2.349,3.269-3.582C98.798,102,98.765,94.18,98.483,86.38
	c-0.041-1.12-2.004-2.171-3.078-3.254c-1.099,1.187-2.988,2.279-3.145,3.581C91.824,90.31,92.109,94,92.099,97.656z M154.976,98.658
	c0-3.998,0.253-8.021-0.144-11.979c-0.13-1.298-1.946-2.426-2.991-3.632c-1.043,1.068-2.951,2.107-2.989,3.21
	c-0.27,7.816-0.301,15.651-0.01,23.465c0.044,1.173,2.164,2.269,3.323,3.401c0.94-1.324,2.531-2.573,2.692-3.985
	C155.251,105.685,154.985,102.157,154.976,98.658z M167.8,98.296c0-2.16,0.364-4.409-0.131-6.448
	c-0.319-1.316-1.9-2.325-2.915-3.472c-1.167,1.166-3.218,2.246-3.341,3.513c-0.416,4.279-0.371,8.644,0.011,12.93
	c0.1,1.125,2.05,2.88,3.164,2.891c1.061,0.011,2.756-1.722,3.074-2.968C168.179,102.712,167.801,100.456,167.8,98.296z
	 M42.908,98.21c0-2.156,0.366-4.401-0.132-6.435c-0.317-1.294-1.75-2.784-3.006-3.194c-0.697-0.228-2.914,1.526-2.978,2.486
	c-0.32,4.766-0.319,9.576-0.009,14.343c0.059,0.902,2.242,2.526,3.06,2.316c1.206-0.31,2.646-1.828,2.944-3.079
	C43.273,102.606,42.918,100.366,42.908,98.21z"/>
</svg>
