<?xml version="1.0" encoding="iso-8859-1"?>
<!-- Generator: Adobe Illustrator 18.1.1, SVG Export Plug-In . SVG Version: 6.00 Build 0)  -->
<svg version="1.1" id="Layer_1" xmlns="http://www.w3.org/2000/svg" xmlns:xlink="http://www.w3.org/1999/xlink" x="0px" y="0px"
	 viewBox="0 0 98.775 141.732" style="enable-background:new 0 0 98.775 141.732;" xml:space="preserve">
<path style="fill:#808080;" d="M0,54.935c2.527-2.819,4.068-6.054,4.478-9.867c0.238-2.215,0.739-2.517,2.975-2.622
	c0.661-0.031,1.047-0.136,1.342-0.943c0.248-0.679,1.134-1.211,1.847-1.617c1.797-1.027,1.913-1.575,0.492-3.156
	c-0.3-0.333-0.6-0.68-0.822-1.066c-0.639-1.107-0.345-2.142,0.777-2.728c0.394-0.206,0.835-0.33,1.265-0.457
	c2.033-0.602,2.293-0.928,2.383-3.006c0.016-0.359-0.017-0.755,0.124-1.066c0.604-1.332,0.697-2.519-0.094-3.914
	c-0.529-0.933,0.178-1.956,1.207-2.382c1.505-0.624,2.128-1.701,2.356-3.294c0.481-3.359,1.974-6.035,5.472-7.167
	c0.848-0.274,1.633-0.754,2.43-1.171c1.123-0.589,1.385-1.525,1.146-2.732c-0.089-0.448,0.104-0.956,0.19-1.432
	c0.1-0.554,0.291-1.099,0.326-1.656c0.154-2.417,0.63-2.744,2.967-3.098c1.219-0.184,2.34-1.02,3.506-1.561c0.18,0,0.361,0,0.541,0
	c0.529,0.799,1.227,1.535,1.553,2.41c0.781,2.096,3.261,3.708,5.658,3.43c0.11-0.813,0.223-1.647,0.372-2.755
	c1.391,0.255,2.929,0.149,3.927,0.833c0.916,0.627,1.248,2.105,1.761,3.064c-0.325,1.001-1.077,2.126-0.778,2.724
	c0.318,0.636,1.633,0.773,2.352,1.062c-0.454,1.799-0.97,3.585-1.335,5.402c-0.168,0.833,0.229,1.755-0.958,2.257
	c-0.258,0.109-0.22,1.385-0.007,2.02c0.264,0.79,0.316,1.357-0.121,2.136c-0.247,0.44,0.076,1.248,0.242,1.863
	c0.625,2.321,1.343,4.619,1.889,6.958c0.087,0.373-0.523,0.91-0.923,1.549c0.695,0.506,1.535,1.119,2.713,1.978
	c-0.735,0.527-1.339,0.961-2.251,1.615c0.958,0.309,1.56,0.546,2.184,0.697c1.845,0.447,2.303,1.075,2.418,2.997
	c0.059,0.992,0.332,1.977,0.576,2.948c0.049,0.193,0.409,0.307,0.839,0.608c0.092-0.611,0.11-1.08,0.245-1.512
	c0.097-0.31,0.351-0.57,0.535-0.853c0.309,0.217,0.771,0.369,0.897,0.665c0.35,0.817,0.561,1.694,0.784,2.411
	c0.825,0.162,1.542,0.303,2.53,0.498c-0.919,1.16-0.643,1.94-0.011,2.751c0.246,0.315,0.319,0.858,0.282,1.281
	c-0.061,0.703-0.466,1.454,0.693,1.657c0.099,0.017,0.126,0.559,0.153,0.861c0.219,2.396,1.193,4.446,3.029,5.981
	c0.602,0.503,1.507,0.811,2.303,0.884c2.232,0.206,4.853,2.494,5.284,4.701c0.16,0.817,0.53,1.593,0.804,2.387
	c0.156-0.025,0.313-0.049,0.469-0.074c0.136-0.309,0.291-0.611,0.406-0.928c0.583-1.622,1.767-1.961,3.09-0.803
	c0.811,0.71,1.514,1.544,2.277,2.311c1.082,1.087,2.11,2.158,3.924,1.949c0.546-0.063,1.277,0.588,1.762,1.073
	c0.926,0.927,1.897,1.28,3.169,0.83c1.681-0.594,3.257-0.369,4.743,0.667c0.659,0.46,1.409,0.8,2.144,1.138
	c0.754,0.347,1.543,0.74,1.87-0.565c0.047-0.188,0.688-0.423,0.934-0.327c0.522,0.204,0.964,0.611,1.439,0.935
	c0,0.361,0,0.722,0,1.082c-0.349,0.403-0.624,0.929-1.059,1.188c-2.269,1.352-1.926,3.301-1.437,5.394
	c0.15,0.641-0.109,1.411-0.3,2.088c-0.181,0.642-0.571,1.224-0.773,1.862c-0.377,1.191-0.254,2.239,0.744,3.192
	c1.425,1.361,1.459,1.67,0.973,3.277c-0.811-0.454-1.574-0.882-2.447-1.371c0.044,0.27,0.026,0.415,0.088,0.498
	c1.459,1.937,1.49,2.057-0.47,3.602c-0.935,0.737-2.128,1.147-3.062,1.885c-1.778,1.405-3.503,2.889-5.122,4.471
	c-0.246,0.241,0.025,1.296,0.347,1.78c1.06,1.592,1.073,2.123,0.128,3.807c-0.467,0.833-0.82,1.793-0.954,2.735
	c-0.176,1.236-0.544,2.204-1.653,2.914c-0.619,0.397-1.023,1.117-1.572,1.64c-0.445,0.425-0.911,0.976-1.459,1.117
	c-1.159,0.3-1.107,0.903-0.786,1.795c0.64,1.779,0.248,2.353-1.626,2.552c-0.578,0.061-1.152,0.172-1.727,0.26
	c-0.064,0.128-0.129,0.256-0.193,0.385c0.62,0.368,1.2,0.855,1.868,1.08c1.509,0.506,2.214,1.544,1.608,3.034
	c-0.371,0.912-1.036,1.804-1.792,2.439c-1.218,1.022-1.565,2.164-1.025,3.586c1.031,2.719,1.583,5.527,1.695,8.426
	c0.016,0.404,0.019,0.814-0.028,1.215c-0.146,1.249-0.902,1.673-2.084,1.234c-1.17-0.435-2.507-0.612-3.493-1.3
	c-1.171-0.817-2.205-1.68-3.725-1.695c-0.216-0.002-0.53-0.495-0.625-0.813c-0.931-3.112-5.009-5.832-8.216-5.443
	c-0.134,0.016-0.319-0.01-0.393,0.067c-1.461,1.53-3.278,0.727-4.969,0.798c-1.058,0.044-2.11,0.229-3.316,0.368
	c0.833,2.296-1.26,2.181-2.011,3.154c-0.522-0.405-0.936-0.727-1.576-1.223c-0.255,0.938-0.541,1.677-0.645,2.441
	c-0.173,1.266-0.827,1.768-2.089,1.759c-1.353-0.01-1.49,0.264-1.035,1.541c0.236,0.661,0.463,1.326,0.695,1.989
	c-0.092,0.125-0.184,0.25-0.276,0.375c-0.775-0.329-1.577-0.606-2.313-1.006c-0.421-0.229-0.72-0.675-1.098-0.994
	c-1.676-1.416-2.564-1.159-3.137,0.896c-0.611,2.195-1.68,2.503-3.347,1.048c-0.349-0.304-0.963-0.329-1.466-0.422
	c-0.343-0.063-0.707-0.003-1.059-0.029c-0.703-0.053-1.422-0.254-2.102-0.162c-0.992,0.135-1.442-0.057-1.32-1.157
	c0.057-0.511,0.021-1.111-0.199-1.56c-0.786-1.61-0.875-3.544-2.567-4.744c-1.623-1.151-3.267-1.658-5.192-1.159
	c-2.58,0.668-4.9-0.018-7.073-1.379c-1.308-0.819-1.875-1.938-1.501-3.558c0.423-1.83-0.131-2.414-1.924-2.485
	c-1.06-0.042-2.145-0.22-2.318-1.565c-0.142-1.098,0.753-2.107,2.318-2.095c2.358,0.018,3.599-1.405,4.734-3.069
	c0.339-0.497,0.493-1.146,0.625-1.749c0.141-0.646-0.167-0.927-0.872-1.035c-0.527-0.08-1.339-0.454-1.414-0.821
	c-0.11-0.538,0.32-1.19,0.533-1.789c0.026-0.073,0.124-0.135,0.203-0.172c2.396-1.124,2.555-3.411,2.992-5.594
	c0.093-0.464,0.624-1.137,1.023-1.191c1.525-0.203,1.705-1.308,1.843-2.432c0.159-1.297,0.058-2.548-1.303-3.267
	c-0.636-0.336-1.3-0.629-1.902-1.018c-1.497-0.969-1.8-2.057-1.126-3.706c0.39-0.953,0.852-1.894,1.098-2.886
	c0.57-2.301-1.401-4.114-3.682-3.459c-2.651,0.762-3.484,0.013-2.798-2.726c0.369-1.472,0.141-2.624-0.899-3.706
	c-0.356-0.37-0.521-0.926-0.763-1.402c-0.433-0.849-0.889-1.689-1.273-2.56c-0.201-0.455-0.259-0.972-0.404-1.454
	c-0.169-0.565-0.209-1.325-0.596-1.619c-0.299-0.227-1.207-0.051-1.566,0.264c-2.114,1.853-3.549,1.655-3.984-1.912
	c-0.216-1.767-0.593-3.515-0.911-5.27c-0.02-0.11-0.161-0.199-0.246-0.298c0-0.09,0-0.18,0-0.271
	c0.239-0.426,0.416-0.907,0.73-1.268c0.778-0.897,1.307-1.75-0.104-2.68c0.523-0.238,0.902-0.409,1.262-0.573
	C1.36,60.061,1.437,60,4.243,60.204c0.334,0.024,0.949-0.322,0.993-0.574c0.079-0.45-0.019-1.171-0.326-1.399
	c-0.585-0.435-1.393-0.555-2.063-0.893C1.877,56.849,0.947,56.281,0,55.747C0,55.476,0,55.206,0,54.935z M42.869,3.846
	c-0.045,0.306-0.092,0.522-0.107,0.74c-0.127,1.945-0.492,2.206-2.324,1.671c-2.313-0.675-4.181-1.727-4.722-4.405
	c-0.285-1.412-0.885-1.464-2.162-0.805c-0.899,0.464-1.874,0.909-2.859,1.047c-1.8,0.251-2.243,0.487-2.242,2.311
	c0.001,1.559-0.907,2.949-0.619,4.585c0.092,0.521-0.627,1.365-1.184,1.779c-0.818,0.607-1.784,1.085-2.757,1.397
	c-3.158,1.013-4.564,3.423-5.019,6.423c-0.29,1.912-0.94,3.314-2.804,4.058c-0.815,0.326-1.274,1.176-0.799,1.875
	c0.89,1.308,0.806,2.475,0.121,3.774c-0.177,0.336-0.172,0.787-0.188,1.188c-0.093,2.323-0.418,2.763-2.613,3.463
	c-0.343,0.109-0.697,0.193-1.025,0.336c-1.154,0.503-1.401,1.363-0.675,2.374c0.235,0.328,0.538,0.606,0.801,0.914
	c1.385,1.624,1.145,2.744-0.721,3.722c-0.622,0.326-1.571,0.767-1.642,1.261c-0.19,1.309-0.992,1.315-1.916,1.354
	c-1.723,0.071-2.264,0.48-2.475,2.182c-0.419,3.373-1.376,6.476-3.712,9.086c-1.117,1.248-0.86,1.798,0.782,2.377
	c0.593,0.209,1.216,0.332,1.803,0.555c0.498,0.189,1.018,0.397,1.432,0.719c0.733,0.57,0.957,1.435,0.404,2.148
	c-0.319,0.412-1.11,0.699-1.655,0.652c-1.941-0.169-1.958-0.188-1.619,1.783c0.055,0.323-0.163,0.7-0.279,1.043
	c-0.055,0.164-0.278,0.395-0.235,0.45c0.706,0.915-0.083,1.464-0.452,2.152c-0.297,0.553-0.657,1.215-0.598,1.788
	c0.162,1.593,0.533,3.164,0.809,4.746c0.124,0.708,0.161,1.437,0.34,2.13c0.281,1.088,0.828,1.281,1.784,0.71
	c0.616-0.368,1.19-0.839,1.848-1.094c0.969-0.375,2.051-0.108,2.098,0.963c0.063,1.459,0.503,2.592,1.447,3.642
	c0.239,0.266,0.202,0.771,0.321,1.157c0.13,0.423,0.174,0.968,0.464,1.231c1.602,1.454,1.589,3.16,1.096,5.082
	c-0.406,1.581,0.279,2.167,1.761,1.607c1.501-0.567,2.859-0.417,4.012,0.68c1.154,1.099,1.096,2.493,0.683,3.903
	c-0.113,0.387-0.272,0.763-0.435,1.134c-1.35,3.069-1.213,3.453,1.799,4.991c0.12,0.061,0.249,0.106,0.367,0.171
	c1.879,1.03,2.518,5.013,0.679,6.018c-1.572,0.859-1.862,1.912-2.278,3.359c-0.47,1.633-0.816,3.554-2.909,4.136
	c-0.111,0.031-0.238,0.173-0.271,0.288c-0.107,0.365-0.302,0.78-0.208,1.1c0.06,0.204,0.576,0.391,0.883,0.384
	c1.259-0.031,1.535,0.664,1.44,1.737c-0.169,1.911-2.565,4.552-4.476,4.905c-0.706,0.13-1.48,0.123-2.097,0.43
	c-0.472,0.235-0.745,0.867-1.107,1.322c0.457,0.361,0.873,0.806,1.384,1.053c0.327,0.157,0.8,0.057,1.2,0.009
	c0.876-0.106,1.419,0.291,1.566,1.111c0.116,0.647,0.204,1.354,0.067,1.982c-0.304,1.394,0.138,2.388,1.324,3.091
	c2.112,1.252,4.299,1.951,6.814,1.297c3.092-0.803,5.464,0.552,6.88,2.826c1.046,1.68,1.35,3.822,1.887,5.46
	c0.943,0.184,1.917,0.386,2.897,0.556c0.205,0.036,0.439-0.098,0.644-0.063c0.603,0.103,1.335,0.074,1.773,0.413
	c1.697,1.312,2.146,1.199,2.759-0.931c0.062-0.216,0.075-0.448,0.153-0.657c0.377-1,1.092-1.514,2.104-1.033
	c0.873,0.415,1.63,1.068,2.451,1.597c0.545,0.351,1.11,0.67,1.667,1.003c-0.05-0.825-0.308-1.355-0.479-1.91
	c-0.373-1.215,0.047-2.004,1.273-1.894c1.689,0.153,1.918-0.814,2.136-2.054c0.382-2.172,0.781-2.341,2.603-1.178
	c0.547-0.336,1.114-0.684,1.746-1.072c-0.705-1.136-0.054-1.641,0.866-1.888c0.687-0.184,1.42-0.226,2.136-0.27
	c1.821-0.114,3.765,0.676,5.404-0.796c0.188-0.169,0.609-0.113,0.921-0.106c2.714,0.063,4.991,1.052,6.692,3.219
	c0.539,0.687,1.375,1.345,1.496,2.107c0.174,1.094,0.648,1.162,1.518,1.193c0.563,0.02,1.143,0.303,1.664,0.57
	c0.583,0.299,1.078,0.772,1.665,1.059c0.679,0.332,1.442,0.491,2.124,0.818c1.64,0.789,2.332,0.419,2.077-1.398
	c-0.367-2.613-0.998-5.188-1.441-7.792c-0.191-1.121-0.423-2.323-0.196-3.395c0.148-0.701,1.077-1.244,1.671-1.843
	c0.826-0.832,1.406-1.742,1.209-2.996c-0.177-1.123-1.077-1.176-1.902-1.37c-0.128-0.03-0.276-0.087-0.358-0.181
	c-0.446-0.512-0.874-1.04-1.308-1.563c0.541-0.233,1.078-0.475,1.625-0.693c0.163-0.065,0.354-0.063,0.533-0.088
	c1.824-0.252,1.87-0.349,1.325-2.129c-0.314-1.028-0.428-1.914,1.068-2.198c0.564-0.107,1.029-0.801,1.509-1.259
	c0.55-0.524,0.993-1.196,1.615-1.6c0.903-0.585,1.139-1.395,1.333-2.361c0.207-1.029,0.496-2.09,0.998-2.999
	c0.658-1.191,0.943-2.169-0.147-3.277c-0.878-0.893-0.913-1.985,0.033-2.879c1.392-1.317,2.857-2.557,4.306-3.813
	c0.196-0.17,0.496-0.214,0.721-0.359c1.232-0.796,2.471-1.583,3.677-2.417c0.761-0.526,0.717-1.106,0.091-1.794
	c-0.388-0.428-0.584-1.03-0.867-1.554c0.136-0.123,0.271-0.247,0.407-0.37c0.823,0.418,1.646,0.837,2.47,1.255
	c0.099-0.083,0.197-0.167,0.296-0.25c-0.426-0.621-0.745-1.368-1.3-1.837c-1.138-0.964-1.247-2.15-0.96-3.428
	c0.175-0.778,0.608-1.494,0.83-2.265c0.168-0.585,0.341-1.241,0.239-1.816c-0.381-2.149-0.993-4.307,1.489-5.695
	c0.152-0.085,0.264-0.244,0.385-0.378c1.03-1.132,0.886-1.596-0.644-2.083c-0.807,1.421-1.133,1.54-2.66,0.888
	c-0.495-0.212-0.996-0.446-1.43-0.759c-1.76-1.269-3.599-1.539-5.74-1.004c-0.821,0.205-2.012-0.284-2.773-0.824
	c-0.892-0.633-1.558-1.391-2.832-1.156c-0.467,0.086-1.14-0.288-1.546-0.648c-1.212-1.073-2.328-2.254-3.499-3.373
	c-1.338-1.279-1.918-1.126-2.678,0.562c-0.181,0.402-0.618,0.858-1.009,0.939c-0.278,0.057-0.83-0.405-0.99-0.758
	c-0.31-0.684-0.336-1.498-0.655-2.177c-0.386-0.822-0.789-1.783-1.476-2.284c-1.191-0.868-2.35-1.882-4.079-1.834
	c-0.719,0.02-1.564-0.663-2.171-1.222c-1.613-1.487-2.423-3.432-2.798-5.569c-0.053-0.301-0.031-0.798-0.191-0.867
	c-1.051-0.459-0.737-1.279-0.687-2.077c0.024-0.38-0.121-0.782-0.24-1.158c-0.274-0.865-0.58-1.72-0.943-2.785
	c-0.152,0.05-0.601,0.198-1.2,0.395c-0.447-1.194-0.881-2.354-1.45-3.874c-0.243,1.181-0.394,1.916-0.546,2.655
	c-1.819-0.464-2.331-1.225-2.319-3.305c0.016-2.709-0.073-2.771-2.678-3.465c-0.655-0.175-1.219-0.691-1.964-1.133
	c0.837-0.659,1.381-1.086,1.954-1.538c-0.944-0.89-2.491-1.003-2.471-2.169c0.516-0.743,1.125-1.242,1.043-1.563
	c-0.554-2.152-1.1-4.334-1.979-6.363c-0.409-0.943-0.433-1.633-0.148-2.516c0.157-0.487,0.266-1.085,0.127-1.553
	c-0.468-1.576-0.253-2.563,0.487-3.095c0.608-2.45,1.121-4.514,1.655-6.664c-0.311-0.045-0.703-0.081-1.087-0.16
	c-1.129-0.235-1.783-1.178-1.155-2.07c0.735-1.045,0.356-1.917,0.209-2.922c-0.181-1.24-0.878-1.838-2.034-1.961
	C44.364,3.788,43.684,3.846,42.869,3.846z"/>
</svg>
