<?xml version="1.0" encoding="iso-8859-1"?>
<!-- Generator: Adobe Illustrator 18.1.1, SVG Export Plug-In . SVG Version: 6.00 Build 0)  -->
<svg version="1.1" id="Layer_1" xmlns="http://www.w3.org/2000/svg" xmlns:xlink="http://www.w3.org/1999/xlink" x="0px" y="0px"
	 viewBox="0 0 85.241 141.732" style="enable-background:new 0 0 85.241 141.732;" xml:space="preserve">
<g>
	<path style="fill:#808080;" d="M27.246,0c0.591,0.534,1.183,1.067,1.647,1.486c0.661-0.267,1.298-0.738,1.901-0.699
		c0.466,0.03,0.897,0.692,1.329,1.09c0.336,0.31,0.705,0.608,0.954,0.981c0.209,0.314,0.434,0.771,0.355,1.092
		c-0.141,0.574-0.424,1.156-0.791,1.622c-0.907,1.153-0.512,2.802,0.888,3.379c0.991,0.409,1.944,0.181,2.933-0.115
		c1.008-0.303,2.062-0.562,3.106-0.605c1.018-0.042,1.298,0.597,0.621,1.349c-0.837,0.928-0.93,1.551,0.026,2.947
		c0.549,0.801,0.776,1.461,0.301,2.383c-0.286,0.555-0.249,1.266-0.451,1.876c-0.218,0.658-0.414,1.395-0.852,1.893
		c-0.92,1.044-0.928,1.225,0.432,1.709c-0.052,0.895-0.084,1.798-0.164,2.697c-0.066,0.74-0.329,1.342-1.092,1.696
		c-0.331,0.154-0.579,0.576-0.766,0.929c-0.254,0.478-0.414,1.007-0.661,1.635c0.543,0.245,1.209,0.7,1.928,0.813
		c0.471,0.074,1.199-0.2,1.501-0.571c1.008-1.239,2.359-1.909,3.717-2.612c0.236-0.122,0.485-0.376,0.561-0.62
		c0.251-0.813,0.825-1.186,1.59-1.403c0.401-0.114,0.832-0.247,1.152-0.495c1.014-0.786,1.86-0.506,2.808,0.176
		c0.744,0.535,1.643,0.851,2.459,1.29c0.302,0.162,0.681,0.336,0.825,0.61c0.377,0.722,0.852,0.68,1.438,0.345
		c0.028-0.016,0.056-0.047,0.084-0.047c2.497-0.015,3.443-2.215,4.98-3.571c0.222-0.196,0.228-0.637,0.395-1.15
		c1.131-1.021,2.489-0.893,4.011-0.163c0.78,0.374,1.755,0.375,2.649,0.469c1.294,0.136,1.807,0.486,2.069,1.763
		c0.239,1.163,0.929,1.94,1.824,2.643c0.652,0.512,1.188,1.169,1.818,1.712c0.378,0.326,0.803,0.673,1.266,0.813
		c2.075,0.626,2.745,1.737,2.124,3.85c-0.265,0.902-0.569,1.684-0.021,2.655c0.255,0.452-0.093,1.243-0.162,1.882
		c-0.104,0.956-0.236,1.69,0.95,2.394c0.786,0.466,2.043,1.172,2.059,2.603c0.009,0.829,0.825,0.922,1.439,1.053
		c0.845,0.18,1.71,0.262,2.778,0.417c-0.393,0.569-0.672,0.973-0.996,1.442c0.988,0.681,2.011,1.387,3.035,2.093
		c0,0.324,0,0.649,0,0.973c-0.502,0.637-1.004,1.273-1.508,1.913c0.283,0.195,0.538,0.37,0.919,0.632
		c-0.354,0.31-0.611,0.581-0.912,0.788c-0.551,0.378-0.595,0.728-0.018,1.108c0.507,0.335,1.013,0.672,1.519,1.009
		c0,0.13,0,0.259,0,0.389c-1.037,0.238-1.27,0.879-1.08,1.879c0.382,2.01-0.049,2.703-1.933,3.577
		c-0.73,0.339-1.382,0.856-2.123,1.161c-0.319,0.131-0.984,0.074-1.133-0.144c-1.026-1.493-2.434-1.644-3.963-1.176
		c-1.054,0.323-2.058,0.477-3.139,0.201c-0.355-0.09-0.765,0.042-1.15,0.062c-0.696,0.036-1.391,0.067-2.087,0.095
		c-0.353,0.014-0.707,0.021-1.061,0.024c-0.758,0.008-1.541,0.135-2.267-0.013c-0.949-0.194-1.814-0.331-2.717,0.183
		c-0.368,0.209-0.87,0.214-1.316,0.251c-1.892,0.157-3.49,0.65-4.363,2.633c-0.458,1.04-1.366,1.877-2.041,2.828
		c-0.284,0.4-0.444,0.892-0.747,1.274c-0.244,0.308-0.595,0.552-0.938,0.757c-0.481,0.287-1.423,0.508-1.425,0.763
		c-0.007,0.868,0.116,1.861,0.561,2.575c0.439,0.705,0.664,1.287,0.624,2.122c-0.064,1.318,0.364,2.481,1.676,3.125
		c0.18,0.089,0.331,0.28,0.443,0.458c0.371,0.588,0.717,1.191,0.923,1.536c0,0.899,0.019,1.593-0.005,2.286
		c-0.023,0.661-0.091,1.32-0.143,2.022c-1.109-0.207-0.472-1.896-1.863-1.768c0,0.6,0,1.154,0,1.708
		c-0.144,0.104-0.288,0.208-0.432,0.312c-0.16-0.31-0.252-0.693-0.493-0.915c-0.574-0.529-1.083-1.164-1.995-1.217
		c-0.34-0.02-0.742-0.303-0.976-0.584c-0.869-1.044-1.813-2.063-2.469-3.236c-0.482-0.863-1.077-0.876-1.634-0.506
		c-1.026,0.681-1.978,0.562-3.121,0.374c-1.502-0.246-3.069-0.081-4.607-0.121c-0.668-0.018-1.351-0.04-1.993-0.198
		c-0.25-0.062-0.609-0.535-0.573-0.768c0.242-1.563,0.622-3.105,0.861-4.668c0.099-0.646-0.04-1.327-0.073-2.053
		c-2.441-1.323-7.389-0.658-9.639,1.393c0.076,0.118,0.129,0.297,0.245,0.364c0.827,0.475,0.953,1.235,1.031,2.104
		c0.081,0.899-0.013,1.655-0.694,2.307c-0.143,0.137-0.117,0.467-0.139,0.711c-0.119,1.345-0.23,2.691-0.339,4.037
		c-0.015,0.186-0.012,0.374,0.003,0.56c0.008,0.093,0.073,0.18,0.094,0.273c0.127,0.568-1.025,3.665-1.394,4.105
		c-0.734,0.878-1.449,1.783-2.057,2.75c-0.621,0.987-1.132,2.048-1.632,3.105c-0.131,0.277-0.104,0.673-0.037,0.99
		c0.174,0.827,0.341,1.593-0.643,2.087c-0.209,0.105-0.231,0.553-0.377,0.822c-0.687,1.267-1.388,2.528-2.112,3.842
		c0.769,0.694,0.508,1.354-0.15,1.936c-0.522,0.461-0.45,0.907-0.376,1.578c0.201,1.806,0.52,3.53,1.332,5.179
		c0.171,0.347-0.182,0.953-0.351,1.689c0.517,0.039,1.105,0.203,1.64,0.098c0.883-0.174,1.722-0.555,2.596-0.789
		c1.642-0.439,2.336,0.033,2.473,1.71c0.098,1.192,0.056,2.396,0.18,3.583c0.05,0.476,0.263,1.049,0.601,1.358
		c0.773,0.706,1.684,1.258,2.505,1.915c0.221,0.177,0.41,0.487,0.463,0.765c0.189,0.985,0.247,1.998,0.479,2.971
		c0.252,1.056,0.639,2.08,0.974,3.116c0.109,0.336,0.215,0.678,0.365,0.996c0.362,0.765,0.65,1.596,1.158,2.253
		c0.458,0.592,1.033,1.023,0.498,1.601c1.042,0.659,2.061,1.25,3.021,1.926c0.912,0.642,1.79,1.335,2.992,1.115
		c0.387-0.071,0.735-0.333,1.112-0.48c0.19-0.074,0.42-0.151,0.607-0.111c1.398,0.3,2.65,0.865,3.495,2.09
		c1.128,1.635,2.33,3.158,4.137,4.156c1.149,0.635,1.106,1.652,0.149,2.674c-0.564,0.603-1.072,1.262-1.583,1.913
		c-0.357,0.455-1.802,0.659-2.386,0.112c-0.607-0.567-1.176-0.438-1.827-0.343c-0.384,0.056-0.775,0.059-1.163,0.083
		c-0.519,0.031-0.898,0.127-0.955,0.806c-0.065,0.78-0.616,1.075-1.391,0.976c-1.917-0.244-2.465-1.352-1.514-3.02
		c0.159-0.279,0.169-0.649,0.216-0.982c0.053-0.369,0.069-0.743,0.126-1.399c-0.799-0.221-1.788-0.495-2.809-0.777
		c-0.116-0.635-0.249-1.367-0.394-2.158c-1.605,0.923-3.726,0.404-4.779-0.981c-0.144-0.189-0.54-0.299-0.79-0.261
		c-0.205,0.032-0.45,0.312-0.526,0.534c-0.101,0.293,0.026,0.671-0.094,0.949c-0.124,0.288-0.393,0.554-0.666,0.714
		c-0.099,0.058-0.448-0.179-0.59-0.356c-0.349-0.434-0.618-0.933-0.97-1.364c-0.273-0.334-0.574-0.712-0.948-0.884
		c-1.999-0.92-2.394-1.522-2.393-3.791c0-0.213-0.157-0.452-0.299-0.634c-0.267-0.342-0.577-0.65-0.956-1.068
		c-1.611,0.206-2.609-0.948-2.975-3.672c-0.794-0.284-1.7-0.393-2.289-0.883c-0.522-0.434-0.897-1.274-0.958-1.968
		c-0.06-0.681-0.209-1.079-0.845-1.156c-1.002-0.121-1.519-0.705-1.885-1.587c-0.399-0.964-1.175-1.319-1.821-0.887
		c-0.228,0.153-0.485,0.502-0.466,0.741c0.063,0.781-0.306,0.964-0.865,0.889c0.178,0.206,0.55,0.443,0.581,0.718
		c0.038,0.335-0.212,0.701-0.34,1.063c0.104,0.312,0.443,0.843,0.308,1.03c-0.258,0.356-0.774,0.55-1.216,0.727
		c-0.092,0.037-0.434-0.264-0.485-0.455c-0.293-1.104-0.571-2.215-0.013-3.337c0.082-0.164,0.021-0.455-0.069-0.639
		c-0.527-1.073-0.72-2.092-0.335-3.329c0.332-1.065,0.17-2.278,0.282-3.419c0.054-0.549,0.246-1.084,0.357-1.629
		c0.051-0.249,0.104-0.513,0.077-0.761c-0.088-0.821,0.045-1.46,0.913-1.863c0.343-0.16,0.626-0.652,0.747-1.051
		c0.562-1.845,0.991-3.732,1.604-5.558c0.32-0.952,0.993-1.78,1.375-2.718c0.333-0.818,0.563-1.7,0.683-2.576
		c0.083-0.601,0.242-0.974,0.781-1.309c0.511-0.317,0.823-0.95,1.329-1.283c1.464-0.965,2.272-2.401,3.239-3.796
		c0.653-0.942,1.258-1.825,1.508-2.915c0.13-0.567,0.323-0.8,0.926-0.851c1.131-0.096,1.24-0.264,0.821-1.353
		c-0.429-1.116-1.038-2.163-1.448-3.285c-0.279-0.763-0.295-1.618-0.529-2.402c-0.203-0.68-0.499-1.343-0.84-1.967
		c-0.47-0.862-1.026-1.676-1.534-2.517c-0.167-0.275-0.248-0.621-0.462-0.846c-0.719-0.754-0.577-1.414,0.08-2.118
		c1.012-1.084,1.041-3.368,0.094-4.534c-0.141-0.174-0.409-0.366-0.394-0.528c0.122-1.264-0.914-1.946-1.453-2.852
		c-0.319-0.537-0.97-0.939-1.555-1.241c-1.096-0.567-1.993-1.292-2.623-2.371c-0.255-0.438-0.599-0.883-1.013-1.158
		c-1.52-1.008-2.115-2.577-2.652-4.18c-0.65-1.94,1.393-3.199,3.099-3.721c0.179-0.055,0.382-0.031,0.711-0.052
		c-0.068-1.038-0.072-2.067-0.217-3.074c-0.224-1.551,0.135-2.924,1.133-4.097c0.182-0.214,0.704-0.232,1.053-0.192
		c0.557,0.063,0.853-0.101,0.973-0.653c0.162-0.748,0.358-1.489,0.54-2.233c-0.125-0.051-0.25-0.103-0.376-0.154
		c-0.295,0.315-0.551,0.688-0.898,0.928c-0.292,0.201-0.721,0.384-1.032,0.315c-0.235-0.053-0.447-0.492-0.551-0.8
		c-0.61-1.802-1.184-3.617-1.778-5.424c-0.037-0.112-0.117-0.251-0.214-0.297c-1.827-0.859-2.715-2.703-4.15-3.98
		c-1.044-0.929-1.842-2.139-2.719-3.249c-0.416-0.527-0.701-1.094-0.147-1.754c0.116-0.138,0.046-0.481-0.016-0.708
		c-0.231-0.837-0.481-1.67-0.757-2.493c-0.061-0.183-0.258-0.444-0.397-0.447c-0.195-0.003-0.382,0.232-0.593,0.309
		c-0.26,0.094-0.573,0.233-0.805,0.161c-0.2-0.062-0.495-0.454-0.446-0.589C1.442,19.134,0.624,18.776,0,18.294
		c0-0.13,0-0.259,0-0.389c0.489,0.031,1.103-0.115,1.443,0.125c1.172,0.829,2.125,0.181,2.893-0.093
		c-0.049-0.823-0.087-1.477-0.129-2.13c-0.012-0.191-0.008-0.39-0.061-0.571c-0.261-0.887,0.05-1.605,0.498-2.373
		c0.292-0.5,0.414-1.191,0.368-1.777c-0.089-1.133,0.33-2.021,1.017-2.833c0.41-0.485,0.939-0.887,1.276-1.415
		C8.012,5.73,8.354,5.541,9.327,6.407c1.158,1.031,2.302,0.938,3.576,0.41c0.259-0.107,0.575-0.074,0.844-0.164
		c0.49-0.165,1.014-0.301,1.433-0.584c0.431-0.292,0.738-0.564,1.264-0.159c0.418,0.322,0.797,0.225,0.893-0.383
		c0.059-0.379,0.178-0.755,0.185-1.134c0.024-1.304,0.323-1.62,1.573-1.23c1.042,0.325,1.984,0.728,2.805-0.372
		c0.092-0.123,0.343-0.127,0.711-0.249c-0.26-0.753-0.502-1.456-0.818-2.371c0.749,0.325,1.427,0.571,2.058,0.907
		c0.679,0.362,1.228,0.289,1.724-0.288C25.804,0.524,26.04,0.263,26.273,0C26.597,0,26.922,0,27.246,0z M12.747,49.062
		c-1.699-0.194-2.66,0.7-3.573,1.625c-0.218,0.221-0.359,0.672-0.309,0.98c0.267,1.625,0.89,3.09,2.107,4.264
		c0.623,0.601,1.171,1.279,1.794,1.88c0.663,0.641,1.312,1.329,2.079,1.821c0.909,0.583,1.753,1.12,2.32,2.119
		c0.406,0.714,1.091,1.254,1.005,2.2c-0.013,0.148,0.184,0.326,0.306,0.472c1.127,1.355,1.093,3.753-0.026,5.148
		c-0.231,0.288-0.479,0.794-0.377,1.074c0.339,0.928,0.652,1.977,1.31,2.655c1.269,1.308,1.911,2.775,2.255,4.539
		c0.263,1.346,0.976,2.602,1.461,3.908c0.715,1.924,0.621,2.077-1.398,2.445c-0.406,1.354-0.617,2.831-2.006,3.684
		c-0.208,0.128-0.322,0.492-0.377,0.768c-0.2,1.007-0.802,1.655-1.68,2.132c-0.357,0.194-0.799,0.47-0.922,0.81
		c-0.249,0.688-0.818,0.924-1.31,1.321c-0.345,0.279-0.568,0.775-0.718,1.217c-0.286,0.842-0.4,1.748-0.736,2.566
		c-0.346,0.842-1.003,1.567-1.289,2.421c-0.6,1.795-0.988,3.661-1.586,5.457c-0.203,0.609-0.771,1.097-1.18,1.635
		c-0.113,0.149-0.361,0.275-0.364,0.415c-0.022,1.078-0.672,2.13-0.591,3.081c0.136,1.6,0.008,3.066-0.497,4.563
		c-0.46,1.363,0.632,3.017,1.989,3.026c-0.251-1.336,0.67-1.635,1.711-1.885c0.393,0.448,0.925,0.839,1.154,1.363
		c0.374,0.855,0.881,1.369,1.82,1.531c0.702,0.121,1.025,0.496,0.974,1.366c-0.034,0.586,0.389,1.425,0.876,1.76
		c0.673,0.463,1.599,0.557,2.419,0.81c0.166,2.906,1.218,4.055,3.02,3.431c0.178,0.424,0.248,1.074,0.55,1.21
		c0.592,0.266,0.624,0.626,0.606,1.137c-0.066,1.938,0.375,2.57,2.195,3.395c0.389,0.176,0.751,0.501,1.015,0.843
		c0.453,0.586,0.818,1.24,1.22,1.865c0.129-0.026,0.258-0.052,0.386-0.078c0.052-0.402,0.052-0.82,0.17-1.201
		c0.112-0.362,0.298-0.924,0.54-0.974c0.425-0.088,1.194,0.002,1.335,0.271c0.729,1.39,2.148,1.147,3.286,1.546
		c0.117,0.041,0.353-0.129,0.475-0.257c0.611-0.639,0.993-0.278,1.211,0.321c0.183,0.503,0.222,1.059,0.324,1.59
		c0.352,0.061,0.705,0.091,1.039,0.186c0.526,0.149,1.065,0.29,1.555,0.526c0.893,0.431-0.096,1.018,0.062,1.426
		c0.33,0.849-0.289,1.32-0.517,1.958c-0.128,0.36-0.155,1.054,0.037,1.174c0.599,0.374,1.317,0.692,2.002,0.719
		c0.253,0.01,0.54-0.851,0.812-1.314c0.274-0.253,0.71-0.361,1.154-0.415c0.482-0.058,1.005,0.037,1.446-0.119
		c0.565-0.2,0.867,0.004,1.362,0.25c0.597,0.297,1.588,0.382,2.128,0.071c0.726-0.418,1.175-1.31,1.759-1.985
		c0.711-0.821,0.7-1.591-0.254-2.087c-1.808-0.94-2.993-2.453-4.084-4.071c-0.715-1.06-1.724-1.637-2.906-1.967
		c-0.226-0.063-0.561-0.091-0.723,0.03c-1.109,0.83-2.248,0.642-3.342,0.074c-0.711-0.37-1.336-0.908-1.989-1.385
		c-0.823-0.601-1.634-1.179-2.757-0.832c-0.21,0.065-0.561-0.02-0.728-0.168c-1.421-1.263-2.989-2.415-3.651-4.314
		c-0.079-0.226-0.034-0.561,0.083-0.776c0.208-0.383,0.514-0.712,0.951-1.293c0.576,1.058,1.22,1.958,1.571,2.961
		c0.402,1.148,1.015,2.029,2.109,2.638c0.045-0.338,0.018-0.688-0.171-0.856c-0.89-0.791-1.444-1.726-1.534-2.931
		c-0.018-0.245-0.181-0.477-0.268-0.718c-0.305-0.844-0.682-1.671-0.887-2.538c-0.246-1.036-0.367-2.104-0.496-3.164
		c-0.077-0.637-0.394-0.932-0.956-1.274c-1.566-0.95-3.022-2.021-2.695-4.273c0.131-0.906-0.076-1.87-0.192-2.8
		c-0.149-1.199-0.693-1.561-1.877-1.255c-1.063,0.274-2.101,0.649-3.168,0.902c-0.797,0.189-1.461-0.073-1.871-0.911
		c0.845-0.645,0.599-1.37,0.219-2.157c-0.333-0.69-0.663-1.41-0.81-2.153c-0.207-1.047-0.243-2.127-0.365-3.33
		c1.256-1.061,1.286-1.162,0.61-2.41c0.209-0.261,0.467-0.478,0.592-0.756c0.718-1.594,1.292-3.266,2.622-4.506
		c0.105-0.097,0.207-0.335,0.159-0.437c-0.599-1.288-0.127-2.322,0.728-3.28c0.038-0.042,0.02-0.13,0.048-0.186
		c0.574-1.182,0.972-2.506,1.775-3.504c0.849-1.053,1.725-1.979,2.056-3.366c0.155-0.65,0.571-1.203,0.231-1.916
		c-0.081-0.169,0.036-0.43,0.052-0.649c0.099-1.344,0.193-2.688,0.294-4.032c0.018-0.241-0.023-0.542,0.104-0.71
		c1.094-1.449,1.06-2.685-0.135-3.96c-0.212-0.227-0.379-0.497-0.67-0.885c3.509-2.17,7.033-2.942,10.796-1.474
		c-0.304,2.477-0.595,4.841-0.908,7.394c0.336,0.094,0.807,0.313,1.289,0.344c1.252,0.081,2.51,0.065,3.765,0.116
		c1.018,0.041,2.034,0.154,3.052,0.171c0.326,0.005,0.653-0.205,0.985-0.297c0.612-0.17,1.223-0.36,1.847-0.463
		c0.172-0.028,0.448,0.182,0.578,0.356c0.849,1.137,1.652,2.309,2.516,3.434c0.223,0.291,0.6,0.621,0.927,0.644
		c0.877,0.063,1.416,0.62,2.018,1.114c0.182,0.15,0.363,0.301,0.718,0.596c-0.116-0.627-0.19-1.027-0.261-1.41
		c1.193-0.559,1.667,0.164,1.998,1.108c0-1.075,0-2.15,0-3.226c0.02-0.251-0.198-0.492-0.38-0.758
		c-0.282-0.412-0.444-0.99-0.825-1.234c-1.085-0.694-1.988-2.145-1.751-3.41c0.144-0.771-0.215-1.216-0.508-1.831
		c-0.427-0.898-0.667-1.963-0.649-2.951c0.006-0.329,1.083-0.596,1.614-0.971c0.308-0.217,0.512-0.586,0.748-0.898
		c0.131-0.173,0.221-0.378,0.347-0.556c0.985-1.395,1.965-2.795,2.971-4.176c0.24-0.33,0.521-0.732,0.872-0.86
		c1.045-0.383,2.132-0.655,3.207-0.953c0.463-0.128,0.992-0.114,1.397-0.335c0.874-0.478,1.708-0.412,2.622-0.162
		c0.601,0.164,1.255,0.166,1.886,0.175c0.598,0.009,1.198-0.075,1.797-0.102c0.415-0.019,0.832-0.004,1.247-0.017
		c0.833-0.026,1.666-0.058,2.498-0.092c0.506-0.021,1.041,0.049,1.512-0.093c2.059-0.624,3.982-0.834,5.299,1.423
		c0.841-0.482,1.595-0.986,2.409-1.364c1.976-0.917,2.231-1.293,1.984-3.42c-0.098-0.847-0.111-1.634,0.875-2.046
		c-0.604-0.505-1.39-0.862-1.587-1.425c-0.15-0.428,0.449-1.118,0.735-1.735c-0.136-0.106-0.432-0.335-0.703-0.545
		c0.52-0.59,1.053-1.078,1.441-1.662c0.555-0.835,0.342-1.439-0.563-1.884c-0.406-0.199-0.863-0.308-1.242-0.546
		c-0.405-0.254-0.745-0.611-1.116-0.925c0.386-0.453,0.641-0.754,0.985-1.158c-1.017-0.167-1.88-0.203-2.66-0.476
		c-0.515-0.179-1.28-0.685-1.294-1.069c-0.052-1.396-1.309-1.814-2.012-2.54c-1.029-1.063-1.283-1.037-1.064-2.54
		c0.101-0.695,0.383-1.533,0.115-2.075c-0.437-0.882-0.309-1.557,0.009-2.38c0.696-1.803,0.147-3.543-1.948-3.784
		c-0.473-0.054-0.928-0.521-1.331-0.867c-0.582-0.499-1.066-1.117-1.669-1.585c-0.975-0.756-1.797-1.565-1.977-2.87
		c-0.125-0.91-0.687-1.359-1.622-1.523c-1.386-0.244-2.739-0.674-4.123-0.933c-0.537-0.1-1.158-0.058-1.668,0.122
		c-0.326,0.115-0.498,0.625-0.778,0.92c-0.477,0.502-1.223,0.888-1.436,1.474c-0.617,1.704-1.858,2.346-3.504,2.553
		c-0.273,0.034-0.52,0.255-0.786,0.37c-0.664,0.288-1.228,0.314-1.645-0.452c-0.151-0.278-0.516-0.466-0.819-0.629
		c-0.815-0.439-1.707-0.759-2.459-1.282c-0.827-0.575-1.532-0.864-2.428-0.153c-0.365,0.29-0.92,0.329-1.319,0.589
		c-0.458,0.299-0.848,0.706-1.249,1.086c-0.291,0.277-0.505,0.659-0.832,0.87c-0.848,0.547-2.024,0.821-2.561,1.569
		c-1.424,1.983-2.964,1.995-4.812,0.809c-0.104-0.067-0.224-0.108-0.422-0.2c0.302-0.548,0.558-1.073,0.87-1.563
		c0.33-0.518,0.716-1,1.074-1.5c0.268-0.374,0.658-0.719,0.766-1.136c0.168-0.649,0.193-1.349,0.176-2.025
		c-0.007-0.274-0.22-0.629-0.45-0.797c-0.736-0.539-0.876-1.108-0.18-1.645c0.742-0.573,0.993-1.305,1.124-2.163
		c0.098-0.638,0.158-1.324,0.445-1.879c0.414-0.8,0.199-1.346-0.273-2.016c-0.82-1.163-1.136-2.343,0.026-3.4
		c0.138-0.125,0.162-0.375,0.299-0.714c-0.826,0-1.534-0.091-2.206,0.025c-0.726,0.124-1.404,0.54-2.13,0.648
		c-0.776,0.115-1.631,0.186-2.369-0.02c-1.746-0.485-2.286-2.525-1.179-3.939c0.329-0.42,0.552-0.94,0.744-1.444
		c0.074-0.194-0.047-0.672-0.126-0.683c-0.894-0.126-0.965-0.959-1.35-1.507c-0.675-0.961-1.6-0.902-2.172,0.158
		c-0.087,0.161-0.198,0.309-0.333,0.518c-0.291-0.357-0.513-0.674-0.781-0.946c-0.294-0.298-0.613-0.578-0.953-0.824
		c-0.479-0.346-0.916-0.342-1.373,0.129c-1.065,1.099-1.426,1.127-2.791,0.385c-0.21-0.114-0.43-0.208-0.498-0.241
		c0,0.664,0,1.311,0,1.939c-0.401,0.195-0.915,0.278-1.112,0.574c-0.459,0.69-1.027,0.544-1.621,0.403
		c-0.407-0.097-0.797-0.265-1.197-0.395c-0.678-0.22-0.945,0.037-0.967,0.74c-0.018,0.568-0.071,1.173-0.292,1.682
		c-0.116,0.269-0.779,0.605-0.926,0.507c-0.75-0.498-1.164-0.113-1.648,0.386c-0.169,0.175-0.5,0.225-0.767,0.265
		c-0.35,0.052-0.761-0.07-1.056,0.07C11.602,7.8,10.198,7.766,8.895,6.502c-0.474-0.46-0.872-0.29-1.213,0.312
		c-0.327,0.578-0.801,1.08-1.246,1.584c-0.705,0.797-1.345,1.572-1.065,2.78c0.106,0.459,0.065,1.1-0.187,1.466
		c-0.619,0.899-1.026,1.774-0.689,2.879c0.053,0.173-0.047,0.387-0.022,0.575c0.051,0.382,0.047,0.814,0.233,1.126
		c0.333,0.561,0.288,0.873-0.35,1.099c-1.055,0.372-2.09,0.735-3.13-0.048c-0.154-0.116-0.39-0.122-0.333-0.105
		c0.153,0.645,0.292,1.342,0.506,2.014c0.034,0.108,0.494,0.223,0.615,0.136c0.754-0.539,1.372-0.445,1.582,0.28
		c0.269,0.927,0.582,1.841,0.837,2.771c0.066,0.24,0.093,0.628-0.045,0.763c-0.523,0.515-0.271,0.959,0.059,1.374
		c0.924,1.158,1.746,2.447,2.855,3.395c1.41,1.206,2.2,3.065,4.045,3.792c0.098,0.039,0.181,0.183,0.219,0.296
		c0.577,1.713,1.137,3.432,1.721,5.144c0.127,0.371,0.329,0.717,0.496,1.074c0.345-0.251,0.694-0.496,1.031-0.756
		c0.126-0.098,0.212-0.247,0.336-0.347c0.392-0.318,0.91-0.242,0.88,0.212c-0.067,1.003-0.262,2.029-0.625,2.959
		c-0.093,0.239-1.007,0.156-1.543,0.225c-0.059,0.008-0.113,0.046-0.129,0.053c-0.143,0.304-0.254,0.587-0.404,0.848
		c-0.246,0.428-0.661,0.815-0.746,1.267c-0.129,0.686-0.06,1.415-0.032,2.123C12.597,46.85,12.677,47.906,12.747,49.062z
		 M29.156,121.636c-0.886,1.239-0.983,1.311-0.134,2.446c0.804,1.075,1.824,1.992,2.787,2.939c0.191,0.188,0.558,0.198,0.845,0.29
		C30.587,125.961,30.41,123.507,29.156,121.636z M10.222,120.349c-0.502-0.532-0.933-1.049-0.105-1.575
		c0.011-0.007-0.169-0.442-0.34-0.575c-0.231-0.18-0.54-0.262-1.031-0.482c0.068,1.096,0.125,2.014,0.181,2.915
		C9.415,120.525,9.768,120.448,10.222,120.349z"/>
	<path style="fill:#808080;" d="M11.583,118.84c-0.41-0.323-0.895-0.717,0.112-1.186c0.283-0.132,0.459-0.492,0.924-0.695
		c0.013,0.241,0.072,0.49,0.031,0.722c-0.093,0.533-0.222,1.061-0.358,1.586c-0.073,0.284-0.19,0.557-0.287,0.834
		c-0.141-0.06-0.389-0.102-0.403-0.184C11.552,119.63,11.583,119.328,11.583,118.84z"/>
	<path style="fill:#808080;" d="M26.001,103.761c0.789,0.15,1.539,0.095,1.965,0.44c0.311,0.251-0.592,1.521-1.114,1.459
		C25.754,105.528,26.305,104.593,26.001,103.761z"/>
	<path style="fill:#808080;" d="M17.764,124.283c-0.735-0.083-1.597-1.217-1.395-1.817c0.054-0.159,0.35-0.386,0.453-0.35
		c0.244,0.087,0.56,0.274,0.63,0.49C17.619,123.121,17.66,123.676,17.764,124.283z"/>
	<path style="fill:#808080;" d="M23.513,131.12c0.053,0.752,0.106,1.505,0.158,2.257c-0.112,0.025-0.224,0.05-0.336,0.076
		c-0.314-0.24-0.629-0.481-0.968-0.74c0.274-0.572,0.525-1.096,0.776-1.619C23.266,131.102,23.389,131.111,23.513,131.12z"/>
	<path style="fill:#808080;" d="M19.586,134.068c-0.331-0.375-0.524-0.75-0.824-0.882c-0.208-0.092-0.563,0.151-1.012,0.296
		c0.691-1.345,1.025-1.385,2.432-0.453C19.984,133.373,19.785,133.721,19.586,134.068z"/>
	<path style="fill:#808080;" d="M28.477,102.714c-0.374,0.288-0.647,0.571-0.706,0.532c-0.45-0.299-0.858-0.661-1.279-1.004
		c0.217-0.196,0.547-0.6,0.631-0.554C27.558,101.925,27.929,102.278,28.477,102.714z"/>
</g>
</svg>
