<?xml version="1.0" encoding="iso-8859-1"?>
<!-- Generator: Adobe Illustrator 18.1.1, SVG Export Plug-In . SVG Version: 6.00 Build 0)  -->
<svg version="1.1" id="Layer_1" xmlns="http://www.w3.org/2000/svg" xmlns:xlink="http://www.w3.org/1999/xlink" x="0px" y="0px"
	 viewBox="0 0 156.106 17.807" style="enable-background:new 0 0 156.106 17.807;" xml:space="preserve">
<g id="logo">
	<g>
		<path style="fill:#8C0001;" d="M116.706,16.436c-0.339-1.17-0.678-2.341-1.035-3.573c-1.431,4.712-2.819,6.106-4.139-0.496
			c-0.505,1.624-0.888,2.854-1.271,4.084c-0.529-0.016-1.058-0.031-1.587-0.047c0-4.595-0.05-9.191,0.081-13.782
			c0.012-0.432,1.205-1.205,1.777-1.143c0.603,0.065,1.426,0.849,1.614,1.479c0.564,1.897,0.864,3.872,1.444,6.668
			c0.554-2.675,0.805-4.598,1.399-6.408c0.241-0.734,1.151-1.461,1.915-1.717c0.359-0.12,1.569,0.87,1.583,1.38
			c0.128,4.502,0.074,9.01,0.074,13.516C117.944,16.41,117.325,16.423,116.706,16.436z"/>
		<path style="fill:#8C0001;" d="M129.432,1.234c4.534,0.799,2.978,4.753,4.389,8.251c0.491-2.403,0.607-4.052,1.201-5.506
			c0.408-0.999,1.479-1.726,2.254-2.575c0.57,0.852,1.596,1.683,1.634,2.558c0.176,4.068,0.078,8.149-1.117,12.614
			c-0.684-0.832-1.369-1.663-2.131-2.59c-0.445,0.766-0.986,1.699-2.218,3.82c-0.903-2.687-1.428-4.248-1.962-5.837
			c-0.336,1.488-0.666,2.948-0.995,4.407c-0.352-0.018-0.703-0.036-1.055-0.054C129.432,11.448,129.432,6.572,129.432,1.234z"/>
		<path style="fill:#8C0001;" d="M82.031,9.542c-0.624,3.224-0.972,5.022-1.32,6.821c-0.38,0.004-0.761,0.008-1.141,0.012
			c0-4.797,0-9.593,0-14.477c5.621-1.065,6.917,0.203,6.227,5.883c-0.338,2.784-0.059,5.643-1.204,8.843
			C83.909,14.731,83.224,12.839,82.031,9.542z"/>
		<path style="fill:#8C0001;" d="M66.866,7.386c-0.564-1.086-1.129-2.173-2.195-4.226c0,4.152,0,7.391,0,10.63
			c0.303,0.019,0.606,0.038,0.909,0.057c0.077-1.605,0.154-3.209,0.283-5.885c1.112,0.787,2.979,1.667,2.881,2.115
			c-0.484,2.203-1.489,4.291-2.31,6.42c-1.498-0.647-4.173-1.128-4.291-1.969c-0.499-3.56-0.495-7.256-0.08-10.833
			c0.106-0.916,2.779-2.502,3.587-2.16c1.497,0.633,2.488,2.461,3.69,3.792C68.514,6.012,67.69,6.699,66.866,7.386z"/>
		<path style="fill:#8C0001;" d="M21.332,16.348c-0.415-1.996-0.831-3.992-1.246-5.988c-0.407,0.027-0.813,0.054-1.22,0.081
			c-0.449,1.981-0.897,3.962-1.346,5.943c-0.388-0.041-0.776-0.083-1.163-0.124c0-4.87,0-9.741,0-14.611
			c0.363-0.064,0.725-0.127,1.088-0.191c0.48,2.13,0.961,4.26,1.441,6.391c0.383-0.002,0.765-0.004,1.148-0.006
			c0.476-2.129,0.952-4.258,1.428-6.387c0.387,0.042,0.774,0.085,1.161,0.127c0,4.895,0,9.791,0,14.686
			C22.193,16.295,21.763,16.322,21.332,16.348z"/>
		<path style="fill:#8C0001;" d="M33.757,1.243c2.264,0.188,4.2,0.348,7.359,0.61c-6.185,3.257-6.325,4.233-2.2,6.918
			c-3.939,3.521-3.903,3.822,1.796,7.419c-2.743,0.19-4.548,0.315-6.955,0.481C33.757,11.602,33.757,6.829,33.757,1.243z"/>
		<path style="fill:#8C0001;" d="M155.168,5.531c-1.055-0.488-2.11-0.976-3.44-1.591c-0.12,0.661-0.52,1.441-0.283,1.802
			c1.264,1.921,3.065,3.582,3.914,5.648c0.499,1.213-0.043,3.279-0.855,4.449c-0.499,0.718-2.689,1.005-3.585,0.513
			c-1.102-0.605-1.647-2.224-1.498-4.158c0.953,0.607,1.906,1.215,3.105,1.979c0.138-0.712,0.558-1.511,0.318-1.873
			c-1.084-1.637-3.063-3.026-3.366-4.743c-0.331-1.875,0.829-4.012,1.339-6.036c1.763,0.652,3.526,1.305,5.289,1.957
			C155.793,4.161,155.481,4.846,155.168,5.531z"/>
		<path style="fill:#8C0001;" d="M1.673,16.351C1.128,11.578,0.583,6.805,0,1.704c1.383,0,3.563,0,5.158,0
			c-0.661,5.011-1.304,9.889-1.947,14.767C2.699,16.431,2.186,16.391,1.673,16.351z"/>
		<path style="fill:#8C0001;" d="M96.554,16.218c0-4.853,0-9.705,0-14.558c0.408,0.001,0.816,0.003,1.224,0.004
			c0,4.853,0,9.705,0,14.558C97.37,16.22,96.962,16.219,96.554,16.218z"/>
	</g>
</g>
</svg>
