<?xml version="1.0" encoding="utf-8"?>
<!-- Generator: Adobe Illustrator 16.0.0, SVG Export Plug-In . SVG Version: 6.00 Build 0)  -->
<!DOCTYPE svg PUBLIC "-//W3C//DTD SVG 1.1//EN" "http://www.w3.org/Graphics/SVG/1.1/DTD/svg11.dtd">
<svg version="1.1" id="Layer_1" xmlns="http://www.w3.org/2000/svg" xmlns:xlink="http://www.w3.org/1999/xlink" x="0px" y="0px"
	 width="672px" height="154px" viewBox="0 0 672 154" enable-background="new 0 0 672 154" xml:space="preserve">
<g>
	<path fill="none" d="M505.457,98.43c-7.707,0-13.949,6.07-13.949,13.559c0,7.492,6.242,13.559,13.949,13.559
		c7.699,0,13.941-6.066,13.941-13.559C519.398,104.5,513.156,98.43,505.457,98.43z"/>
	<path fill="none" d="M328.493,62.548c-8.686,0-15.072,4.656-16.664,12.148l32.557,0.004
		C343.046,67.657,336.368,62.548,328.493,62.548z"/>
	<path fill="#FFFFFF" d="M597.585,44.856c-11.66,0-19.227,3.723-25.18,12.313c-0.086,0.064-0.359,0.105-0.43,0.133v-6.355
		c0-1.955-1.633-3.545-3.641-3.545h-20.789c-2.008,0-3.641,1.59-3.641,3.545v69.844c0,1.953,1.633,3.543,3.641,3.543h20.789
		c2.008,0,3.641-1.59,3.641-3.543V84.442c0-11.84,4.938-17.852,14.656-17.852c3.859,0,6.859,1.023,8.906,3.039
		c3.887,3.824,3.809,10.309,3.758,15.574l-0.016,35.586c0,0.938,0.383,1.836,1.063,2.508c0.684,0.66,1.609,1.035,2.586,1.035h20.781
		c2.016,0,3.648-1.59,3.648-3.543V76.798C627.358,50.399,611.163,44.856,597.585,44.856z"/>
	<path fill="#FFFFFF" d="M435.499,44.856c-11.656,0-19.227,3.723-25.18,12.313c-0.09,0.064-0.305,0.16-0.426,0.133v-6.355
		c0-1.955-1.629-3.545-3.645-3.545H385.46c-2.016,0-3.645,1.59-3.645,3.545v69.844c0,1.953,1.629,3.543,3.645,3.543h20.789
		c2.016,0,3.645-1.59,3.645-3.543V84.442c0-11.84,4.926-17.852,14.652-17.852c3.859,0,6.848,1.023,8.898,3.039
		c3.891,3.832,3.82,10.32,3.758,15.574l-0.016,35.586c0,0.938,0.387,1.836,1.07,2.508c0.688,0.66,1.613,1.035,2.578,1.035h20.781
		c2.016,0,3.648-1.59,3.648-3.543V76.798C465.265,50.399,449.077,44.856,435.499,44.856z"/>
	<path fill="#FFFFFF" d="M327.099,44.856c-26.615,0-43.801,16.129-43.801,41.086c0,24.871,17.975,40.941,45.809,40.941
		c9.391,0,18.377-2.289,25.299-6.445c6.125-3.68,10.746-8.879,13.352-15.047c0.465-1.094,0.336-2.34-0.34-3.324
		c-0.676-0.98-1.813-1.57-3.023-1.57h-20.066c-1.156,0-2.254,0.539-2.938,1.449c-2.867,3.82-6.82,5.594-12.449,5.594
		c-11.494,0-17.572-5.914-17.58-17.098h55.428c0.977,0,1.91-0.379,2.594-1.051c0.688-0.676,1.063-1.586,1.055-2.535
		C370.14,60.954,353.534,44.856,327.099,44.856z M311.829,74.696c1.592-7.492,7.979-12.148,16.664-12.148
		c7.875,0,14.553,5.109,15.893,12.152L311.829,74.696z"/>
	<path fill="#FFFFFF" d="M668.854-0.13h-20.785c-2.016,0-3.648,1.586-3.648,3.541V120.79c0,1.953,1.633,3.543,3.648,3.543h20.785
		c2.012,0,3.645-1.59,3.645-3.543V3.411C672.499,1.456,670.866-0.13,668.854-0.13z"/>
	<path fill="#FFFFFF" d="M275.005,46.358h-1.754c-11.652,0-20.5,4.721-25.48,13.5c-0.08,0.066-0.238,0.242-0.424,0.145v-9.057
		c0-1.955-1.631-3.545-3.646-3.545h-20.787c-2.016,0-3.646,1.59-3.646,3.545v69.844c0,1.953,1.631,3.543,3.646,3.543H243.7
		c2.016,0,3.646-1.59,3.646-3.543V93.298c0-10.828,2.213-23.254,19.445-23.254c2.139,0,4.68,0.09,7.291,0.754
		c1.09,0.281,2.248,0.055,3.148-0.617c0.893-0.672,1.418-1.711,1.418-2.813V49.903C278.649,47.946,277.015,46.358,275.005,46.358z"
		/>
	<path fill="#FFFFFF" d="M200.663,47.401h-20.801c-2.016,0-3.646,1.59-3.646,3.545v37.551c0,8.645-1.703,16.648-14.023,16.648
		c-12.344,0-14.043-8.004-14.043-16.648V50.946c0-1.955-1.635-3.545-3.641-3.545h-20.787c-2.016,0-3.646,1.59-3.646,3.545v42.797
		c0,22.301,13.775,33.141,42.117,33.141c28.338,0,42.113-10.84,42.113-33.141V50.946C204.306,48.991,202.671,47.401,200.663,47.401z
		"/>
	<path fill="#FFFFFF" d="M100.981,11.265H78.038c-2.016,0-3.646,1.592-3.646,3.545v40.102l-43.652-0.008V14.81
		c0-1.953-1.631-3.545-3.646-3.545H4.151c-2.02,0-3.65,1.592-3.65,3.545v105.98c0,1.953,1.631,3.543,3.65,3.543h22.941
		c2.016,0,3.646-1.59,3.646-3.543V77.993l43.652,0.004v42.793c0,1.953,1.631,3.543,3.646,3.543h22.943
		c2.014,0,3.646-1.59,3.646-3.543V14.81C104.628,12.856,102.995,11.265,100.981,11.265z"/>
	<path fill="#F47821" d="M505.488,84.738c-16.242,0-29.352,12.758-29.352,28.496c0,7.563,3.059,14.426,8.008,19.527l21.344,20.797
		l21.313-20.797c4.953-5.102,8.004-11.965,8.004-19.527C534.805,97.496,521.684,84.738,505.488,84.738z M505.457,125.547
		c-7.707,0-13.949-6.066-13.949-13.559c0-7.488,6.242-13.559,13.949-13.559c7.699,0,13.941,6.07,13.941,13.559
		C519.398,119.48,513.156,125.547,505.457,125.547z"/>
</g>
</svg>
