<?xml version="1.0" encoding="UTF-8" standalone="no"?>
<svg width="200px" height="200px" viewBox="0 0 200 200" version="1.1" xmlns="http://www.w3.org/2000/svg" xmlns:xlink="http://www.w3.org/1999/xlink">
    <!-- Generator: Sketch 40.1 (33804) - http://www.bohemiancoding.com/sketch -->
    <title>open-top</title>
    <desc>Created with Sketch.</desc>
    <defs></defs>
    <g id="3.-PDP-Value-Props" stroke="none" stroke-width="1" fill="none" fill-rule="evenodd">
        <g id="open-top">
            <g id="Page-1" transform="translate(28.011204, 54.688542)">
                <path d="M37.1018993,38.9491675 C37.307218,37.3560033 38.6715826,36.1549136 40.2759964,36.1549136 C40.4128755,36.1549136 40.5517976,36.1637702 40.6883362,36.1814833 C41.5354885,36.2908282 42.2903666,36.724801 42.8133673,37.4030114 C43.3363681,38.081903 43.5641595,38.9219164 43.455201,39.7694239 C43.2495418,41.362588 41.8851772,42.5640184 40.2807634,42.5640184 C40.1438843,42.5640184 40.0053027,42.5551618 39.8684236,42.5374487 C39.0216118,42.4281039 38.2667337,41.9944716 37.7433924,41.31558 C37.2203917,40.637029 36.9926003,39.7966749 37.1018993,38.9491675 M37.1795322,41.7509154 C37.8189824,42.5803691 38.7417246,43.1107425 39.7771708,43.2446133 C39.944354,43.2660735 40.1139207,43.2769739 40.2814443,43.2769739 C42.2423567,43.2769739 43.9107837,41.8084832 44.1620692,39.8610555 C44.4382109,37.7187829 42.9209639,35.7509169 40.779589,35.4743188 C40.6127463,35.4528586 40.4431796,35.4419581 40.2756559,35.4419581 C38.314403,35.4419581 36.6459761,36.9104488 36.3950311,38.8578765 C36.2612164,39.8940974 36.5397416,40.9214618 37.1795322,41.7509154" id="Fill-1" fill="#554740"></path>
                <path d="M38.3967348,40.9285811 L39.1148394,40.4278432 L40.2251945,39.6174653 L41.12955,40.7279453 L41.7049871,41.4024086 C41.8139456,41.5049407 41.925628,41.5570583 42.0373105,41.5570583 C42.1878094,41.5570583 42.2749762,41.4609984 42.2817861,41.4524824 C42.3284339,41.4010461 42.3512471,41.3376874 42.3475017,41.2695598 C42.3396703,41.1251293 42.2147085,41.0072685 42.2044937,41.0004557 L40.7710085,39.2189188 L40.9623668,39.0792572 C41.0253585,39.0489404 41.2681316,38.9235856 41.3607463,38.7393004 L41.4050107,38.6493719 C41.5497212,38.5788599 41.711797,38.5083478 41.8013472,38.4790529 L41.8779587,38.608836 L41.9777238,38.6701509 L42.0635286,38.6381309 L42.2402457,38.9532211 L42.2671448,38.9866036 C42.2811051,38.9985259 42.3318389,39.0376993 42.4111743,39.0376993 L42.4115148,39.0376993 C42.4646321,39.0376993 42.5456699,39.0189642 42.6147905,38.94198 C42.6304533,38.929717 42.7084267,38.8602269 42.7261325,38.7379378 L42.7322614,38.6953581 L41.8129241,37.0892497 L41.783301,37.0725584 C41.7700217,37.0647237 41.7206499,37.0391759 41.6562962,37.0391759 C41.5575526,37.0391759 41.4765147,37.0977656 41.4274834,37.2173296 L41.3757281,37.4237562 L41.530994,37.7027388 L41.4775362,37.8894085 L41.5017114,37.9316476 C41.3828785,37.9929624 41.2116094,38.085616 41.1445318,38.1425025 L40.6208501,38.4858657 L40.3447084,38.6899079 L40.1594789,38.4599772 L39.7536085,38.0106756 C39.6970863,37.9316476 39.5523758,37.7953924 39.4526107,37.7047826 L39.4866602,37.6703782 L39.4893842,37.4799615 L39.4818933,37.4768958 L39.7035557,37.2459432 L39.7045772,37.0139687 C39.6855095,36.8807792 39.5911923,36.7945978 39.4638471,36.7945978 C39.430819,36.7945978 39.4052819,36.8007293 39.398472,36.8024324 L39.3654439,36.811289 L38.0688378,38.1312615 L38.0640709,38.1738412 C38.0494296,38.2974928 38.1076543,38.3840149 38.1100378,38.3850368 C38.1876707,38.5301486 38.2942457,38.5519495 38.3511084,38.5519495 C38.3980968,38.5519495 38.4321463,38.5376427 38.4444041,38.5315112 L38.7297392,38.2460565 L38.8053292,38.299196 L38.9173521,38.2641103 L39.0235866,38.1588531 C39.1131369,38.2160803 39.2745317,38.3448415 39.4073248,38.4613397 C39.4835958,38.5236765 39.5026635,38.5969137 39.503004,38.5969137 C39.5482899,38.8091312 39.6695062,38.9375517 39.6752946,38.9426613 L39.7985539,39.0939046 L38.0211685,40.4091081 C37.9918859,40.4240962 37.8410465,40.5065306 37.7967821,40.6441483 C37.7760119,40.7092102 37.7821408,40.7759753 37.8124449,40.8342244 C37.8601142,40.9323281 38.0701998,41.108438 38.3967348,40.9285811" id="Fill-5" fill="#554740"></path>
                <path d="M112.239847,6.76146086 C112.453337,6.87387141 112.689641,6.99786366 112.947055,7.13309697 C113.201405,7.2730992 113.476526,7.42468313 113.770714,7.58648621 C114.065923,7.74317971 114.37339,7.92508043 114.69618,8.11788156 C115.017948,8.31306716 115.366275,8.49598979 115.714261,8.71740452 C116.415341,9.15001484 117.178731,9.60681047 117.963573,10.1293492 C118.762375,10.6263401 119.572413,11.2023591 120.423992,11.7739497 C121.267398,12.358144 122.122042,12.9876431 122.997796,13.6133952 C123.42682,13.9393858 123.859589,14.2677609 124.293721,14.5974985 C124.729214,14.9251923 125.171858,15.2470953 125.59271,15.5982931 C126.021053,15.9396124 126.449396,16.2805911 126.876377,16.6202072 C127.090208,16.7891637 127.304039,16.9581202 127.51719,17.1263954 C127.724892,17.300802 127.932253,17.4748681 128.138934,17.6482528 C128.955782,18.353033 129.795444,19.0063767 130.563601,19.6910592 C131.333801,20.3730166 132.085615,21.0256791 132.802698,21.6418933 C133.502416,22.2785458 134.164339,22.8801126 134.774847,23.4353526 C135.084016,23.7105882 135.380247,23.974242 135.662177,24.2249516 C135.944448,24.4756612 136.199139,24.7263708 136.445998,24.9552796 C136.932906,25.4192286 137.369421,25.8136875 137.726941,26.1410406 C138.082418,26.470097 138.37252,26.7197847 138.565581,26.8941914 C138.762387,27.0658729 138.866919,27.1571639 138.866919,27.1571639 C138.866919,27.1571639 138.784519,27.0457753 138.629934,26.8366235 C138.472285,26.6301969 138.246877,26.3215788 137.946901,25.9397236 C137.648967,25.5565058 137.289404,25.0877878 136.863104,24.5618427 C136.649614,24.2992107 136.430335,24.0120528 136.184157,23.7228511 C135.933212,23.4380777 135.669328,23.1386569 135.394208,22.8259512 C134.8392,22.2046274 134.237886,21.5298234 133.586518,20.8298122 C132.914721,20.1509206 132.202064,19.4376245 131.457061,18.7062746 C131.09239,18.3325947 130.691968,17.984122 130.293588,17.6237269 C129.895209,17.2633319 129.489679,16.900893 129.07836,16.5381135 C128.872701,16.356894 128.666021,16.1749933 128.459,15.9924113 C128.244828,15.8180046 128.029975,15.6429167 127.814782,15.4678287 C127.383034,15.1186747 126.949584,14.7684988 126.516133,14.4179822 C126.085407,14.0644 125.631527,13.7394313 125.184797,13.409353 C124.735684,13.0823405 124.288273,12.7566905 123.844607,12.4337656 C123.396856,12.1159503 122.936847,11.822661 122.488755,11.5246027 C122.036237,11.2330165 121.603808,10.9240578 121.148566,10.6638103 C120.25068,10.1256022 119.387183,9.60101962 118.533562,9.16023399 C118.107602,8.93950053 117.705137,8.70582283 117.29484,8.51506552 C116.887948,8.3205612 116.494676,8.132529 116.117067,7.95199083 C115.739798,7.77247458 115.366615,7.62191256 115.016245,7.47237246 C114.664854,7.32453555 114.331509,7.18555523 114.011784,7.06905701 C113.69274,6.95051497 113.398552,6.83163229 113.120027,6.73761619 C112.84048,6.6463252 112.583747,6.56252824 112.35187,6.48690659 C111.887094,6.34009159 111.516975,6.24232847 111.262625,6.18067299 C111.009637,6.11731431 110.873099,6.09312901 110.873099,6.09312901 C110.873099,6.09312901 110.998741,6.15171875 111.234705,6.26174484 C111.470668,6.36734264 111.80878,6.54651825 112.239847,6.76146086" id="Fill-9" fill="#554740"></path>
                <path d="M112.239847,6.76146086 C112.453337,6.87387141 112.689641,6.99786366 112.947055,7.13309697 C113.201405,7.2730992 113.476526,7.42468313 113.770714,7.58648621 C114.065923,7.74317971 114.37339,7.92508043 114.69618,8.11788156 C115.017948,8.31306716 115.366275,8.49598979 115.714261,8.71740452 C116.415341,9.15001484 117.178731,9.60681047 117.963573,10.1293492 C118.762375,10.6263401 119.572413,11.2023591 120.423992,11.7739497 C121.267398,12.358144 122.122042,12.9876431 122.997796,13.6133952 C123.42682,13.9393858 123.859589,14.2677609 124.293721,14.5974985 C124.729214,14.9251923 125.171858,15.2470953 125.59271,15.5982931 C126.021053,15.9396124 126.449396,16.2805911 126.876377,16.6202072 C127.090208,16.7891637 127.304039,16.9581202 127.51719,17.1263954 C127.724892,17.300802 127.932253,17.4748681 128.138934,17.6482528 C128.955782,18.353033 129.795444,19.0063767 130.563601,19.6910592 C131.333801,20.3730166 132.085615,21.0256791 132.802698,21.6418933 C133.502416,22.2785458 134.164339,22.8801126 134.774847,23.4353526 C135.084016,23.7105882 135.380247,23.974242 135.662177,24.2249516 C135.944448,24.4756612 136.199139,24.7263708 136.445998,24.9552796 C136.932906,25.4192286 137.369421,25.8136875 137.726941,26.1410406 C138.082418,26.470097 138.37252,26.7197847 138.565581,26.8941914 C138.762387,27.0658729 138.866919,27.1571639 138.866919,27.1571639 C138.866919,27.1571639 138.784519,27.0457753 138.629934,26.8366235 C138.472285,26.6301969 138.246877,26.3215788 137.946901,25.9397236 C137.648967,25.5565058 137.289404,25.0877878 136.863104,24.5618427 C136.649614,24.2992107 136.430335,24.0120528 136.184157,23.7228511 C135.933212,23.4380777 135.669328,23.1386569 135.394208,22.8259512 C134.8392,22.2046274 134.237886,21.5298234 133.586518,20.8298122 C132.914721,20.1509206 132.202064,19.4376245 131.457061,18.7062746 C131.09239,18.3325947 130.691968,17.984122 130.293588,17.6237269 C129.895209,17.2633319 129.489679,16.900893 129.07836,16.5381135 C128.872701,16.356894 128.666021,16.1749933 128.459,15.9924113 C128.244828,15.8180046 128.029975,15.6429167 127.814782,15.4678287 C127.383034,15.1186747 126.949584,14.7684988 126.516133,14.4179822 C126.085407,14.0644 125.631527,13.7394313 125.184797,13.409353 C124.735684,13.0823405 124.288273,12.7566905 123.844607,12.4337656 C123.396856,12.1159503 122.936847,11.822661 122.488755,11.5246027 C122.036237,11.2330165 121.603808,10.9240578 121.148566,10.6638103 C120.25068,10.1256022 119.387183,9.60101962 118.533562,9.16023399 C118.107602,8.93950053 117.705137,8.70582283 117.29484,8.51506552 C116.887948,8.3205612 116.494676,8.132529 116.117067,7.95199083 C115.739798,7.77247458 115.366615,7.62191256 115.016245,7.47237246 C114.664854,7.32453555 114.331509,7.18555523 114.011784,7.06905701 C113.69274,6.95051497 113.398552,6.83163229 113.120027,6.73761619 C112.84048,6.6463252 112.583747,6.56252824 112.35187,6.48690659 C111.887094,6.34009159 111.516975,6.24232847 111.262625,6.18067299 C111.009637,6.11731431 110.873099,6.09312901 110.873099,6.09312901 C110.873099,6.09312901 110.998741,6.15171875 111.234705,6.26174484 C111.470668,6.36734264 111.80878,6.54651825 112.239847,6.76146086 L112.239847,6.76146086 Z" id="Stroke-11" stroke="#554740" stroke-width="0.66693344"></path>
                <path d="M119.153297,5.80913907 C119.480513,6.04383868 119.847567,6.31158019 120.253778,6.59328785 C121.866023,7.73135957 124.01557,9.24890207 126.164776,10.7661039 C126.698332,11.1482998 127.232229,11.5304957 127.757273,11.9069008 C128.272442,12.2959094 128.799529,12.6532387 129.290523,13.0235123 C129.776069,13.3999173 130.265361,13.7405554 130.712772,14.0835779 C131.155416,14.4323912 131.585461,14.7491846 131.978393,15.0479242 C132.360429,15.3582454 132.718289,15.6351842 133.036652,15.8811249 C133.35808,16.1239998 133.618218,16.3566556 133.845669,16.5361718 C134.294101,16.9016764 134.560369,17.1040154 134.560369,17.1040154 C134.560369,17.1040154 134.357774,16.8417241 133.985272,16.3944664 C133.795276,16.1754361 133.581785,15.8889595 133.297472,15.6018017 C133.02099,15.3061278 132.707734,14.9726432 132.357364,14.6166764 C131.647431,13.9170059 130.791767,13.126385 129.833273,12.3306545 C129.353174,11.9341518 128.852306,11.5304957 128.336455,11.1292241 C127.816859,10.7334027 127.28092,10.3416689 126.743959,9.951979 C126.197804,9.5759146 125.65846,9.18929041 125.110943,8.83434557 C124.567172,8.47360987 124.023401,8.13160927 123.494612,7.80527803 C122.97059,7.47179338 122.449292,7.17271317 121.956254,6.8882804 C121.467303,6.59703487 120.99061,6.34530335 120.554095,6.107538 C119.678681,5.63643558 118.934018,5.27229351 118.406932,5.02771539 C117.881207,4.78143408 117.572378,4.65676055 117.572378,4.65676055 C117.572378,4.65676055 117.839666,4.85364935 118.306826,5.19803441 C118.541427,5.36767216 118.826422,5.5730769 119.153297,5.80913907" id="Fill-13" fill="#554740"></path>
                <path d="M119.153297,5.80913907 C119.480513,6.04383868 119.847567,6.31158019 120.253778,6.59328785 C121.866023,7.73135957 124.01557,9.24890207 126.164776,10.7661039 C126.698332,11.1482998 127.232229,11.5304957 127.757273,11.9069008 C128.272442,12.2959094 128.799529,12.6532387 129.290523,13.0235123 C129.776069,13.3999173 130.265361,13.7405554 130.712772,14.0835779 C131.155416,14.4323912 131.585461,14.7491846 131.978393,15.0479242 C132.360429,15.3582454 132.718289,15.6351842 133.036652,15.8811249 C133.35808,16.1239998 133.618218,16.3566556 133.845669,16.5361718 C134.294101,16.9016764 134.560369,17.1040154 134.560369,17.1040154 C134.560369,17.1040154 134.357774,16.8417241 133.985272,16.3944664 C133.795276,16.1754361 133.581785,15.8889595 133.297472,15.6018017 C133.02099,15.3061278 132.707734,14.9726432 132.357364,14.6166764 C131.647431,13.9170059 130.791767,13.126385 129.833273,12.3306545 C129.353174,11.9341518 128.852306,11.5304957 128.336455,11.1292241 C127.816859,10.7334027 127.28092,10.3416689 126.743959,9.951979 C126.197804,9.5759146 125.65846,9.18929041 125.110943,8.83434557 C124.567172,8.47360987 124.023401,8.13160927 123.494612,7.80527803 C122.97059,7.47179338 122.449292,7.17271317 121.956254,6.8882804 C121.467303,6.59703487 120.99061,6.34530335 120.554095,6.107538 C119.678681,5.63643558 118.934018,5.27229351 118.406932,5.02771539 C117.881207,4.78143408 117.572378,4.65676055 117.572378,4.65676055 C117.572378,4.65676055 117.839666,4.85364935 118.306826,5.19803441 C118.541427,5.36767216 118.826422,5.5730769 119.153297,5.80913907 L119.153297,5.80913907 Z" id="Stroke-15" stroke="#554740" stroke-width="0.66693344"></path>
                <path d="M104.229559,65.2994621 C104.790014,65.6894926 105.307907,66.1309596 105.834994,66.5605041 C106.33382,67.0213874 106.846606,67.4672826 107.306955,67.9642735 C107.793523,68.4370791 108.212673,68.9691558 108.651231,69.4828379 C109.048929,70.0281995 109.466717,70.5599354 109.807212,71.1431078 C110.180395,71.6918757 110.460282,72.2937831 110.77524,72.8755929 C111.24274,74.3761035 111.728627,75.8708232 112.204299,77.3689494 L112.929895,79.6403239 L113.645616,81.8619652 C113.663321,82.0036706 113.684432,82.1153999 113.709969,82.2404141 C113.740273,82.384504 113.776025,82.5251875 113.814842,82.6648491 C113.893496,82.943491 113.990537,83.2142983 114.098815,83.4796553 C114.320477,84.0086662 114.597981,84.5124699 114.92758,84.9788033 C115.585417,85.9148767 116.456404,86.6843781 117.420687,87.2600564 C117.903509,87.5499393 118.414933,87.7781668 118.930784,87.9842528 C119.452763,88.1716038 119.98019,88.3429447 120.517492,88.4563772 C121.05241,88.5830945 121.593797,88.6658696 122.134844,88.7288876 C122.675891,88.7905431 123.2183,88.8232444 123.759347,88.8293758 L126.931061,88.9342924 C127.990682,88.9734657 129.050985,88.9952666 130.111287,89.0266053 C131.170908,89.0582846 132.231551,89.081448 133.291854,89.1025676 C134.352156,89.1287967 135.41348,89.136972 136.474463,89.152982 C135.418928,89.0467029 134.363733,88.9329298 133.307176,88.8368699 C132.2513,88.7357004 131.195424,88.6369153 130.138867,88.5463056 C129.08231,88.4556959 128.026434,88.3552077 126.969196,88.2724326 L123.791354,88.0162728 C123.27312,87.9839122 122.757951,87.9300914 122.248229,87.8568542 C121.738848,87.7795294 121.233213,87.684832 120.740516,87.5495987 C120.244074,87.4276503 119.766359,87.2525623 119.297156,87.0665739 C118.836126,86.8628724 118.383267,86.6424796 117.965479,86.3713317 C117.548032,86.1001838 117.151015,85.8024661 116.793495,85.4631907 C116.435294,85.1252777 116.115228,84.7502352 115.84147,84.3445353 C115.567371,83.939176 115.340261,83.5035 115.16082,83.050792 C115.073653,82.8235864 114.99636,82.5929745 114.935752,82.3596374 C114.906129,82.2431392 114.87889,82.1263003 114.857098,82.0104834 C114.835647,81.9004573 114.816579,81.7662459 114.81011,81.6892617 L114.804321,81.6197716 L114.784572,81.5550503 L114.080088,79.2772037 L113.369814,77.0007196 C112.894143,75.4838584 112.429026,73.9635908 111.944161,72.4494547 L111.926455,72.3942713 L111.911133,72.366339 C111.564849,71.7351367 111.254658,71.0821336 110.846744,70.4877202 C110.477647,69.8680996 110.030577,69.3036623 109.602234,68.7266215 C109.133713,68.1829631 108.682556,67.6219323 108.165344,67.1249414 C107.676393,66.5993369 107.124109,66.1425412 106.589191,65.6690544 C106.027374,65.2286094 105.473388,64.7776046 104.880926,64.3821238 L104.44339,64.0762309 C104.296296,63.9760833 104.143413,63.8854735 103.993596,63.7897543 C103.691236,63.6034252 103.395345,63.4055145 103.087197,63.2294047 L102.160709,62.7065253 C101.851199,62.5338218 101.529431,62.3846223 101.214473,62.2231599 C100.900196,62.0599942 100.577747,61.9148824 100.254957,61.7704519 C99.9318272,61.6267027 99.6131236,61.4737562 99.2842052,61.3456763 L98.3032382,60.947811 L97.311035,60.5819658 C96.6460476,60.3499913 95.9790174,60.1238076 95.3017722,59.9330503 C94.6289535,59.7286675 93.9479629,59.5539201 93.2673129,59.3829198 C92.5853008,59.2153259 91.9009052,59.0616982 91.2131048,58.924421 L90.179361,58.7333231 L89.1425529,58.5626634 C88.4499855,58.4594501 87.7570775,58.361687 87.0611052,58.2891311 C85.6708629,58.1378878 84.2748322,58.0377402 82.879142,58.0353557 C83.5737524,58.0959893 84.2646173,58.1879616 84.9534393,58.2877685 C85.6422613,58.3882567 86.3290403,58.4976015 87.0127548,58.623297 C87.6964694,58.7489924 88.37746,58.8845664 89.0567481,59.027975 L90.0717645,59.2582463 L91.0809926,59.5086153 L92.0854537,59.7756755 C92.4194796,59.8659446 92.751122,59.9664328 93.0837859,60.0614708 C93.7460492,60.2614254 94.4072911,60.4644456 95.0579776,60.6964201 C95.3845126,60.8091713 95.7113881,60.9202193 96.0324751,61.0465961 C96.3545837,61.169907 96.6811187,61.2819769 96.9998223,61.412782 L97.956614,61.8031532 L98.8994455,62.2235005 C99.2161061,62.3587338 99.5205089,62.5184931 99.8293381,62.6687144 C100.138167,62.8192765 100.446316,62.9705197 100.74493,63.1391356 C101.045247,63.3050263 101.34999,63.4627417 101.646221,63.6340827 L102.529806,64.1569621 C102.823313,64.3327313 103.1032,64.5289388 103.390578,64.7135646 C103.532224,64.8086027 103.677956,64.8985311 103.816879,64.9973161 L104.229559,65.2994621 Z" id="Fill-17" fill="#554740"></path>
                <path d="M104.229559,65.2994621 C104.790014,65.6894926 105.307907,66.1309596 105.834994,66.5605041 C106.33382,67.0213874 106.846606,67.4672826 107.306955,67.9642735 C107.793523,68.4370791 108.212673,68.9691558 108.651231,69.4828379 C109.048929,70.0281995 109.466717,70.5599354 109.807212,71.1431078 C110.180395,71.6918757 110.460282,72.2937831 110.77524,72.8755929 C111.24274,74.3761035 111.728627,75.8708232 112.204299,77.3689494 L112.929895,79.6403239 L113.645616,81.8619652 C113.663321,82.0036706 113.684432,82.1153999 113.709969,82.2404141 C113.740273,82.384504 113.776025,82.5251875 113.814842,82.6648491 C113.893496,82.943491 113.990537,83.2142983 114.098815,83.4796553 C114.320477,84.0086662 114.597981,84.5124699 114.92758,84.9788033 C115.585417,85.9148767 116.456404,86.6843781 117.420687,87.2600564 C117.903509,87.5499393 118.414933,87.7781668 118.930784,87.9842528 C119.452763,88.1716038 119.98019,88.3429447 120.517492,88.4563772 C121.05241,88.5830945 121.593797,88.6658696 122.134844,88.7288876 C122.675891,88.7905431 123.2183,88.8232444 123.759347,88.8293758 L126.931061,88.9342924 C127.990682,88.9734657 129.050985,88.9952666 130.111287,89.0266053 C131.170908,89.0582846 132.231551,89.081448 133.291854,89.1025676 C134.352156,89.1287967 135.41348,89.136972 136.474463,89.152982 C135.418928,89.0467029 134.363733,88.9329298 133.307176,88.8368699 C132.2513,88.7357004 131.195424,88.6369153 130.138867,88.5463056 C129.08231,88.4556959 128.026434,88.3552077 126.969196,88.2724326 L123.791354,88.0162728 C123.27312,87.9839122 122.757951,87.9300914 122.248229,87.8568542 C121.738848,87.7795294 121.233213,87.684832 120.740516,87.5495987 C120.244074,87.4276503 119.766359,87.2525623 119.297156,87.0665739 C118.836126,86.8628724 118.383267,86.6424796 117.965479,86.3713317 C117.548032,86.1001838 117.151015,85.8024661 116.793495,85.4631907 C116.435294,85.1252777 116.115228,84.7502352 115.84147,84.3445353 C115.567371,83.939176 115.340261,83.5035 115.16082,83.050792 C115.073653,82.8235864 114.99636,82.5929745 114.935752,82.3596374 C114.906129,82.2431392 114.87889,82.1263003 114.857098,82.0104834 C114.835647,81.9004573 114.816579,81.7662459 114.81011,81.6892617 L114.804321,81.6197716 L114.784572,81.5550503 L114.080088,79.2772037 L113.369814,77.0007196 C112.894143,75.4838584 112.429026,73.9635908 111.944161,72.4494547 L111.926455,72.3942713 L111.911133,72.366339 C111.564849,71.7351367 111.254658,71.0821336 110.846744,70.4877202 C110.477647,69.8680996 110.030577,69.3036623 109.602234,68.7266215 C109.133713,68.1829631 108.682556,67.6219323 108.165344,67.1249414 C107.676393,66.5993369 107.124109,66.1425412 106.589191,65.6690544 C106.027374,65.2286094 105.473388,64.7776046 104.880926,64.3821238 L104.44339,64.0762309 C104.296296,63.9760833 104.143413,63.8854735 103.993596,63.7897543 C103.691236,63.6034252 103.395345,63.4055145 103.087197,63.2294047 L102.160709,62.7065253 C101.851199,62.5338218 101.529431,62.3846223 101.214473,62.2231599 C100.900196,62.0599942 100.577747,61.9148824 100.254957,61.7704519 C99.9318272,61.6267027 99.6131236,61.4737562 99.2842052,61.3456763 L98.3032382,60.947811 L97.311035,60.5819658 C96.6460476,60.3499913 95.9790174,60.1238076 95.3017722,59.9330503 C94.6289535,59.7286675 93.9479629,59.5539201 93.2673129,59.3829198 C92.5853008,59.2153259 91.9009052,59.0616982 91.2131048,58.924421 L90.179361,58.7333231 L89.1425529,58.5626634 C88.4499855,58.4594501 87.7570775,58.361687 87.0611052,58.2891311 C85.6708629,58.1378878 84.2748322,58.0377402 82.879142,58.0353557 C83.5737524,58.0959893 84.2646173,58.1879616 84.9534393,58.2877685 C85.6422613,58.3882567 86.3290403,58.4976015 87.0127548,58.623297 C87.6964694,58.7489924 88.37746,58.8845664 89.0567481,59.027975 L90.0717645,59.2582463 L91.0809926,59.5086153 L92.0854537,59.7756755 C92.4194796,59.8659446 92.751122,59.9664328 93.0837859,60.0614708 C93.7460492,60.2614254 94.4072911,60.4644456 95.0579776,60.6964201 C95.3845126,60.8091713 95.7113881,60.9202193 96.0324751,61.0465961 C96.3545837,61.169907 96.6811187,61.2819769 96.9998223,61.412782 L97.956614,61.8031532 L98.8994455,62.2235005 C99.2161061,62.3587338 99.5205089,62.5184931 99.8293381,62.6687144 C100.138167,62.8192765 100.446316,62.9705197 100.74493,63.1391356 C101.045247,63.3050263 101.34999,63.4627417 101.646221,63.6340827 L102.529806,64.1569621 C102.823313,64.3327313 103.1032,64.5289388 103.390578,64.7135646 C103.532224,64.8086027 103.677956,64.8985311 103.816879,64.9973161 L104.229559,65.2994621 L104.229559,65.2994621 Z" id="Stroke-19" stroke="#554740" stroke-width="0.66693344"></path>
                <path d="M134.716179,91.3948232 C133.466902,91.3232892 132.008901,91.2503926 130.446368,91.1836276 C129.664932,91.1522889 128.857617,91.1195876 128.037364,91.0865457 C127.216771,91.0579321 126.383238,91.0289779 125.549706,90.999683 C124.716173,90.9765196 123.8823,90.9530156 123.061706,90.9301929 C122.240772,90.9117984 121.433118,90.893404 120.65134,90.8756908 C119.087786,90.8443521 117.628083,90.8252763 116.376422,90.8177823 C115.125442,90.8065413 114.081824,90.8188042 113.351802,90.817101 C112.62144,90.8205074 112.203993,90.829364 112.203993,90.829364 C112.203993,90.829364 112.620078,90.8644497 113.348738,90.9138422 C114.077398,90.9581252 115.117951,91.0357907 116.367569,91.1035776 C117.616846,91.1751116 119.075188,91.2476675 120.63738,91.3144326 C121.418817,91.3461119 122.226131,91.3788132 123.046384,91.4121957 C123.866978,91.4408093 124.70051,91.4697635 125.534043,91.4990584 C126.367916,91.5225624 127.201448,91.5460665 128.022042,91.5688892 C128.842976,91.5876243 129.650631,91.6060188 130.432408,91.6237319 C131.995962,91.6554113 133.455666,91.674487 134.707326,91.6816404 C135.958306,91.6932221 137.001924,91.6806185 137.731946,91.681981 C138.462309,91.6785747 138.879756,91.6693774 138.879756,91.6693774 C138.879756,91.6693774 138.463671,91.6342917 137.735011,91.5848992 C137.006351,91.5402756 135.965797,91.4622695 134.716179,91.3948232" id="Fill-21" fill="#554740"></path>
                <path d="M134.716179,91.3948232 C133.466902,91.3232892 132.008901,91.2503926 130.446368,91.1836276 C129.664932,91.1522889 128.857617,91.1195876 128.037364,91.0865457 C127.216771,91.0579321 126.383238,91.0289779 125.549706,90.999683 C124.716173,90.9765196 123.8823,90.9530156 123.061706,90.9301929 C122.240772,90.9117984 121.433118,90.893404 120.65134,90.8756908 C119.087786,90.8443521 117.628083,90.8252763 116.376422,90.8177823 C115.125442,90.8065413 114.081824,90.8188042 113.351802,90.817101 C112.62144,90.8205074 112.203993,90.829364 112.203993,90.829364 C112.203993,90.829364 112.620078,90.8644497 113.348738,90.9138422 C114.077398,90.9581252 115.117951,91.0357907 116.367569,91.1035776 C117.616846,91.1751116 119.075188,91.2476675 120.63738,91.3144326 C121.418817,91.3461119 122.226131,91.3788132 123.046384,91.4121957 C123.866978,91.4408093 124.70051,91.4697635 125.534043,91.4990584 C126.367916,91.5225624 127.201448,91.5460665 128.022042,91.5688892 C128.842976,91.5876243 129.650631,91.6060188 130.432408,91.6237319 C131.995962,91.6554113 133.455666,91.674487 134.707326,91.6816404 C135.958306,91.6932221 137.001924,91.6806185 137.731946,91.681981 C138.462309,91.6785747 138.879756,91.6693774 138.879756,91.6693774 C138.879756,91.6693774 138.463671,91.6342917 137.735011,91.5848992 C137.006351,91.5402756 135.965797,91.4622695 134.716179,91.3948232 L134.716179,91.3948232 Z" id="Stroke-23" stroke="#554740" stroke-width="0.66693344"></path>
                <path d="M143.134381,93.3638814 C142.875604,94.9260475 141.866036,99.0218794 140.076733,100.680105 C137.281267,101.309945 111.639247,107.080354 104.647857,108.360131 L105.881472,99.3417385 L105.892368,99.2623698 L105.890325,99.1819792 C105.507948,83.3750113 97.835568,75.8714364 91.466263,72.3597988 C84.7135604,68.6366249 78.1355318,68.5279614 77.6363657,68.5255769 C68.2676377,68.1570065 60.6752737,70.603469 55.0686782,75.7971773 C46.0680256,84.1342935 45.4221061,96.4759506 45.3907805,97.2348922 C45.0182787,102.223196 43.220123,106.217858 42.5483258,107.559291 C34.9852444,107.773893 26.841278,107.833504 20.3575666,107.836911 C21.5983314,106.92911 22.4165416,105.793082 22.9429474,104.793991 L24.1098247,104.789222 L37.6598349,104.732676 L37.7769653,104.732336 L37.871623,104.684646 C38.0575334,104.591311 38.1862406,104.510921 38.3323131,104.417245 C38.4729377,104.325273 38.6098168,104.230235 38.7419289,104.131109 C39.0071748,103.933199 39.2588008,103.721322 39.4998715,103.500248 C39.9789483,103.054693 40.4175063,102.570987 40.8107783,102.054921 C41.6010679,101.025172 42.2228123,99.8823311 42.7073371,98.6935043 C42.9511317,98.0990909 43.1510025,97.4893488 43.3290815,96.875519 C43.508182,96.261008 43.6426777,95.6366184 43.7662775,95.0115476 C43.8762575,94.3725107 43.9664887,93.7815036 44.087024,93.1744866 C44.2044949,92.5695135 44.3338831,91.9662435 44.4738267,91.365358 C44.7533733,90.1635869 45.0730984,88.9706725 45.4401523,87.7941087 C45.6209553,87.2048049 45.8198046,86.6223138 46.0247827,86.0422072 C46.2375923,85.4651664 46.4473374,84.8867629 46.6935155,84.3247102 C46.8184773,84.0440244 46.947525,83.766745 47.0455876,83.4744776 C47.1538651,83.1873197 47.2635046,82.9001619 47.379273,82.6153884 C47.6135338,82.0478855 47.8600524,81.4831076 48.137556,80.933999 C48.2672847,80.6536539 48.4201671,80.387275 48.5614727,80.1116988 C48.7174195,79.847023 48.8624705,79.5721281 49.0313562,79.3135839 C49.3500598,78.7821885 49.7147302,78.280088 50.1015329,77.787866 C49.6401618,78.2071915 49.1856005,78.6462739 48.7793897,79.1286174 C48.5686231,79.3643389 48.3813507,79.617433 48.1814799,79.863033 C47.997272,80.1185116 47.7991037,80.3678586 47.6247701,80.6311718 C47.2631641,81.1513261 46.9345862,81.6929406 46.6148611,82.2406866 C46.3080748,82.7935421 45.9740489,83.3395849 45.7646443,83.9374047 C45.2855675,85.1071558 44.8575649,86.2939387 44.486425,87.4970723 C44.1111992,88.6988433 43.7853452,89.9142399 43.5006911,91.1388337 C43.3580236,91.7513009 43.2262519,92.3661526 43.1060571,92.98407 C42.9838193,93.5992623 42.8854161,94.2396618 42.7839486,94.8282844 C42.6657967,95.4247416 42.538111,96.0194956 42.3682038,96.601646 C42.1993181,97.1834558 42.0106837,97.7591341 41.7815304,98.3177805 C41.3262882,99.434392 40.7457437,100.498545 40.0184458,101.4462 C39.6568398,101.92105 39.2553958,102.362517 38.8226263,102.765492 C38.6047093,102.965105 38.378961,103.154841 38.1453812,103.329247 C38.0285913,103.417132 37.9094179,103.499566 37.7895636,103.578254 C37.7071637,103.632075 37.6135275,103.688621 37.5328302,103.733585 L24.1057388,103.789449 L23.401935,103.792515 C23.6630949,103.131337 23.7802253,102.631621 23.8142748,102.467433 C24.0516,101.770488 24.3005021,100.979867 24.5579165,100.118053 C24.7594897,100.040046 24.9593605,99.9572714 25.1575287,99.8717713 C25.9508828,99.5229579 26.6924815,99.0699093 27.4024142,98.5746216 L27.9121357,98.1713062 L28.1668261,97.9693078 L28.4041514,97.7472118 L28.8760778,97.3002947 C29.0364511,97.1541609 29.1672013,96.9794136 29.3136143,96.8203357 L29.7409359,96.3304981 L30.1192261,95.8025092 C30.2428259,95.6250368 30.3763001,95.4536958 30.4907065,95.2704325 L30.8128151,94.7080391 C30.9183686,94.5193257 31.030732,94.3343592 31.1301567,94.1429206 L31.392338,93.5519136 L31.6534979,92.9605659 C31.7352168,92.7616333 31.7913985,92.5538441 31.8612001,92.3508238 L32.0610708,91.7383566 L32.151983,91.4597147 L32.2514077,91.1688098 L32.6661309,90.0021245 C33.2327151,88.4491556 33.8340298,86.9067466 34.4717775,85.3806881 C35.1078227,83.8539484 35.7782579,82.3418561 36.4922765,80.8519053 C36.8467321,80.105908 37.2161695,79.3674047 37.5948003,78.6343516 C37.9727501,77.9009579 38.3680651,77.1774427 38.7712115,76.459037 C39.1815084,75.7450597 39.5992961,75.0355106 40.041259,74.3436747 C40.2625809,73.9975865 40.4832219,73.6511576 40.7168016,73.3146072 C40.9435715,72.9726066 41.1822587,72.6401439 41.4236699,72.3100656 C41.6579306,71.9738559 41.91875,71.6608095 42.1652686,71.3355001 C42.4250665,71.0224538 42.6800975,70.7042978 42.9524937,70.4041957 C43.4884333,69.794113 44.0693183,69.2344447 44.6757404,68.7132685 L44.6975321,68.6945334 L44.7203453,68.67137 C44.884464,68.5054793 45.0720769,68.3232379 45.2593493,68.1553033 C45.4449193,67.9822592 45.6366181,67.8146653 45.8327434,67.6508184 C46.2161411,67.3139274 46.6264379,67.0053093 47.0272009,66.6868127 C47.4453291,66.390117 47.8467731,66.0702579 48.2785211,65.7916159 C48.7072047,65.5095676 49.1253329,65.2111687 49.5707007,64.9543276 C50.0126636,64.6930582 50.4423687,64.409988 50.8999943,64.175629 C51.3548961,63.9371824 51.7968589,63.6735286 52.2619755,63.4551796 L53.6535798,62.7919573 L55.0788931,62.2046973 C55.5480956,61.9931611 56.0476022,61.8623561 56.530765,61.6879494 C57.0149493,61.5169491 57.4848328,61.299622 57.9795725,61.1572353 L59.4511931,60.6796608 C59.9438898,60.5253517 60.4491848,60.4180507 60.9490319,60.2845206 C61.450922,60.1618909 61.9487261,60.0086038 62.4604905,59.9292351 L63.9903359,59.6410553 C64.4997168,59.5293261 65.0179507,59.4925372 65.533801,59.4223657 L67.0874811,59.2322897 L65.5215432,59.2544312 C64.9992234,59.2707818 64.4714557,59.2465965 63.9518599,59.311999 L62.3845601,59.4530231 C61.8584948,59.4850431 61.342985,59.5865533 60.8230487,59.6669438 C60.3054958,59.7578942 59.7804521,59.8229561 59.2659637,59.9360479 L57.7238605,60.2920147 C57.2052862,60.3993156 56.7027151,60.5624813 56.1981011,60.720878 C55.6992755,60.8952846 55.1984069,61.0642411 54.7132011,61.2747554 L53.2473689,61.8787067 L51.8159267,62.5606641 C51.3375308,62.7858258 50.8822886,63.0562924 50.4144481,63.3022331 C49.9438836,63.5434048 49.5008992,63.8343097 49.0459975,64.1037544 C48.5880313,64.3684302 48.1562833,64.6756857 47.7143204,64.9665906 C47.269974,65.2537485 46.8542293,65.5838267 46.4228217,65.8907416 C46.0074175,66.2204792 45.5841818,66.5393164 45.1837594,66.8905143 C44.9801432,67.0608333 44.7795915,67.2366025 44.5838067,67.4191845 C44.3907458,67.5925693 44.2096023,67.7673166 44.0165415,67.9625022 C43.3706219,68.5180829 42.7614759,69.1077273 42.2064685,69.7389296 C41.920793,70.0543605 41.6555472,70.3847794 41.3851939,70.71077 C41.1298224,71.0473204 40.8587882,71.3739922 40.617377,71.7193992 C40.3684749,72.0600373 40.1229778,72.4023785 39.8904196,72.7532357 C39.6500299,73.0989833 39.4242815,73.4535875 39.1981926,73.8075105 C38.7456744,74.515697 38.3200553,75.2385309 37.9022675,75.9651119 C37.4923112,76.6961211 37.0908673,77.4308774 36.7078101,78.1744902 C36.3237314,78.9177624 35.9491865,79.6658036 35.5909855,80.4206575 C34.8684545,81.9279809 34.1915498,83.4550612 33.5497162,84.9961078 C32.9058396,86.536473 32.2994175,88.0911451 31.7270449,89.6604645 L31.3068737,90.8424786 L31.2047251,91.1415588 L31.1025765,91.4552864 L30.9159851,92.0275583 C30.85061,92.2169531 30.7988547,92.4121387 30.7225838,92.5971052 L30.4794702,93.1455324 L30.237378,93.6943003 C30.1454443,93.8710914 30.0409122,94.0410698 29.9435306,94.2151359 L29.6472997,94.7346089 C29.5420866,94.9032247 29.4184868,95.0599182 29.3051019,95.2230839 L28.9584777,95.7091744 L28.5655461,96.157454 C28.4310505,96.3032471 28.3125581,96.4650502 28.1651237,96.5982397 L27.7320136,97.0076866 L27.5147777,97.2117288 L27.2808574,97.3963546 L26.8136978,97.7666282 C26.2127237,98.184591 25.5855313,98.5688308 24.919863,98.8777895 C25.6532899,96.3093786 26.442558,93.2310326 27.2280806,89.9881583 C27.5920701,89.9779392 27.9560596,89.9684013 28.3197085,89.9551165 L28.3343498,89.9547758 L28.3421812,89.9520507 C28.7095756,89.8335087 29.0773105,89.7166698 29.4355116,89.5705361 C29.6142716,89.4972989 29.7923507,89.4192928 29.9588529,89.3181233 C30.0415932,89.2677089 30.1250146,89.2142287 30.1893682,89.1372445 C30.2172888,89.099093 30.2486144,89.0456129 30.2217152,88.9958797 C30.1975401,88.9502342 30.1498707,88.9274115 30.1049253,88.9137859 C30.1488492,88.9308178 30.1931136,88.9587502 30.2104789,89.0009893 C30.2302276,89.0449316 30.198902,89.087852 30.1703004,89.1212345 C30.1045848,89.1873183 30.019461,89.2329638 29.9346777,89.2745216 C29.76443,89.3583186 29.5832866,89.4199741 29.402824,89.4823108 C29.0449635,89.6022154 28.6768881,89.6938471 28.3101747,89.7865006 C27.9683174,89.7742377 27.6264601,89.7653811 27.2842623,89.7558432 C30.0388693,78.3563909 32.7281011,65.0534533 32.7669175,64.8609928 L32.7870068,64.7625484 L32.7747489,64.6624008 C31.9446214,57.8131916 29.4835214,50.1754053 28.8348779,48.2412625 C39.6609257,48.7157713 50.2908483,49.4682407 50.5022958,49.4818662 L50.5383883,49.4832288 C50.5850362,49.4842507 52.9044901,49.5401153 56.4555155,49.8555462 C59.8512751,50.3082541 64.3114229,50.9319624 69.4365581,51.7167925 C69.7477708,51.7804918 70.0596645,51.8462349 70.3725796,51.9136812 C70.4345498,51.9269661 70.4965199,51.9334382 70.5574686,51.9334382 C70.6150123,51.9334382 70.671194,51.9262849 70.7263542,51.9153844 C83.8701535,53.9544438 100.979701,57.0051981 115.640407,60.9160636 L115.701696,60.9303704 C115.902589,60.9705656 117.710959,61.2924686 119.217651,60.2061739 C119.944949,59.6819319 120.455351,58.939341 120.742389,57.9910046 C123.471799,58.5159279 131.581035,60.3747897 136.124264,64.6116457 C136.248544,64.8875626 136.51379,65.4833385 136.865522,66.3138141 C131.171079,68.1079547 117.909127,69.1305501 117.764417,69.1414505 L117.000686,69.199359 L117.211453,69.9358184 C117.254014,70.0856992 118.297973,73.6106217 121.908585,74.900618 L122.010393,74.9370662 L122.118671,74.9370662 C122.557569,74.9370662 132.642699,74.9190124 139.573481,73.3909101 C139.842472,74.1822123 140.106356,74.9949747 140.35662,75.8176156 C139.901718,75.9293449 139.257501,76.0727535 138.480832,76.2250187 C137.679987,76.3861405 136.738177,76.5462404 135.725884,76.7080434 C135.218546,76.7812806 134.695545,76.867462 134.160968,76.9359303 C133.627071,77.0071236 133.084662,77.0834266 132.54021,77.1454227 C131.996099,77.2108252 131.451987,77.2772496 130.915026,77.3307298 C130.378065,77.3859131 129.849957,77.4462061 129.337511,77.4894671 C128.825066,77.5354532 128.329645,77.5797362 127.859762,77.6219753 C127.389538,77.6580829 126.944511,77.6921468 126.534214,77.7234855 C125.712939,77.7909318 125.027182,77.8219298 124.547424,77.855653 C124.067666,77.8856292 123.793227,77.9026611 123.793227,77.9026611 C123.793227,77.9026611 124.068006,77.9050455 124.548786,77.9094738 C125.029565,77.9098145 125.717025,77.9275276 126.541364,77.9186711 C126.954044,77.9162866 127.400774,77.9139021 127.873382,77.9115177 C128.34633,77.9026611 128.844815,77.8934638 129.360325,77.883926 C129.876515,77.8774538 130.40905,77.8546311 130.951119,77.8375992 C131.492847,77.8226111 132.043087,77.7946788 132.593327,77.7677684 C133.144249,77.744605 133.694149,77.7067942 134.236217,77.6734117 C134.778286,77.6427542 135.31082,77.5933617 135.827011,77.5558915 C136.858712,77.4656224 137.821973,77.3716063 138.647334,77.2660086 C139.472694,77.1641578 140.160495,77.0616257 140.644339,76.9774881 C140.662725,76.9744224 140.678729,76.9716973 140.696434,76.9686315 C140.83808,77.4659631 140.972917,77.9643166 141.099921,78.4609668 C140.472388,78.6353735 139.536367,78.8905114 138.592514,79.1286174 C137.771239,79.3357253 136.9469,79.5285265 136.323794,79.6508155 C135.701368,79.7775329 135.278133,79.8177282 135.278133,79.8177282 C135.278133,79.8177282 135.384367,79.8242003 135.570278,79.835782 C135.756188,79.8429354 136.023477,79.8497481 136.343543,79.8449792 C136.984014,79.8388477 137.837295,79.7996744 138.688874,79.7458535 C139.700826,79.6818136 140.709373,79.5983573 141.363805,79.5407894 C141.472764,80.0108699 141.57355,80.4778847 141.663441,80.9380867 C141.375382,81.7723093 140.501671,84.3918159 140.275923,86.0973906 C140.198971,86.4353035 140.023275,87.5485087 140.70052,88.7053155 C140.983131,89.1869777 141.378106,89.6114127 141.875229,89.9663575 C143.15481,90.88063 143.206566,91.202533 143.134381,93.3638814 L143.134381,93.3638814 Z M103.60492,101.239092 L103.253529,101.239092 C103.315499,100.486282 103.348187,99.7256376 103.348187,98.9571581 C103.348187,83.6897609 90.9323664,71.2683945 75.6710269,71.2683945 C60.4096874,71.2683945 47.993867,83.6897609 47.993867,98.9571581 C47.993867,99.7256376 48.0265546,100.486282 48.0881842,101.239092 L46.8286921,101.239092 C47.0823611,100.040728 47.2832533,98.7418749 47.3850614,97.3653565 L47.3871044,97.3295895 C47.3898284,97.2587368 47.706489,90.1904973 51.6003932,83.3920432 C56.7653663,74.3743322 65.4997515,70.0427788 77.5757575,70.5237597 L77.6142335,70.524441 C77.6785871,70.5247816 84.1405068,70.578943 90.5707604,74.1484891 C99.1035724,78.8860831 103.58449,87.2981397 103.890596,99.1506405 L103.60492,101.239092 Z M75.6710269,124.647058 C61.5115301,124.647058 49.9922339,113.122591 49.9922339,98.9571581 C49.9922339,84.7920656 61.5115301,73.2675992 75.6710269,73.2675992 C89.8305236,73.2675992 101.34982,84.7920656 101.34982,98.9571581 C101.34982,113.122591 89.8305236,124.647058 75.6710269,124.647058 L75.6710269,124.647058 Z M27.3983283,46.4283868 C27.090861,46.172227 26.3768424,45.6510507 25.2627418,45.2654485 C25.1908973,45.2054962 25.0373339,45.0481214 24.99341,44.7698201 C24.9099887,44.239106 25.2453765,43.4805051 25.9386249,42.6329976 L26.0894644,42.4487125 L26.0792495,42.2109471 C25.9621191,39.4337251 26.2750343,31.3922827 29.1529005,30.8843914 L29.2087417,30.8717878 C29.2305334,30.8656563 31.3736108,30.3107569 33.4267974,32.1944853 L27.8797886,46.4484844 C27.7190748,46.4416717 27.5587015,46.4348589 27.3983283,46.4283868 L27.3983283,46.4283868 Z M40.1073151,19.1603111 C44.4108351,19.9454818 48.6898394,20.8669077 52.4659322,21.9286765 L47.2219642,45.318588 C47.126285,45.6173276 46.8807879,46.5884866 47.3568003,47.5184285 C43.4492764,47.2632906 36.5402864,46.8344273 29.4613892,46.5172933 L40.1073151,19.1603111 Z M40.7481272,17.5136668 C44.6219421,18.3734372 48.6912014,19.4099988 52.7512673,20.6563934 L52.6300509,21.1966453 C48.8825597,20.1444144 44.6467983,19.2301419 40.3837972,18.4497401 L40.7481272,17.5136668 Z M68.3449302,46.7959352 C68.3486756,46.7976384 68.353783,46.8000229 68.359912,46.802748 L68.3224575,46.8068356 L68.3677434,46.8068356 C68.5424174,46.8950609 69.4103399,47.4356535 70.6058189,49.8742813 C59.0020798,48.0815032 50.5755023,47.0868401 49.7916822,46.9955491 C49.548909,46.9366187 49.2557426,46.8259114 49.1423576,46.6232317 C49.0129694,46.3929604 49.0888999,46.0342685 49.1209064,45.9395712 L49.5587834,43.9900996 C51.6759831,44.208108 60.3245635,45.152016 68.3449302,46.7959352 L68.3449302,46.7959352 Z M85.9893962,42.2371762 C85.9893962,42.2371762 86.4681326,40.8010462 85.9893962,39.3649162 L81.3218868,27.9242468 C84.2658091,28.6893198 87.5182201,29.5627158 90.8720987,30.4810759 L93.0802107,42.8612251 L87.161381,52.6538877 C85.3193015,52.3180186 83.5007161,51.9961157 81.7158398,51.6881789 L85.9893962,42.2371762 Z M73.960719,24.8159246 C80.0446889,12.2092511 80.7787968,4.98942767 80.8496198,2.87883433 C81.0528955,2.86384626 81.9242229,2.84306733 82.4567576,3.54273788 C82.6876134,3.84590575 82.929365,4.39671747 82.9273221,5.37128292 C81.8247983,5.04937997 81.2040754,4.89643348 81.2040754,4.89643348 C81.2040754,4.89643348 81.4414006,4.97239577 81.88098,5.12977055 C82.1547382,5.2224241 82.5040864,5.35322911 82.9245981,5.50992261 C82.8973585,6.62312775 82.5626516,8.25546527 81.5833871,10.6436786 L77.0234742,21.7951464 L90.5145787,26.2728335 C89.2349974,27.0644763 88.1420075,27.7406429 87.3500154,28.2304804 C82.1397564,26.8270516 77.3922306,25.6007546 73.960719,24.8159246 L73.960719,24.8159246 Z M71.5806569,24.3008799 C76.9359669,12.4466758 79.3262438,4.89847731 78.7123308,1.79424279 C79.0392063,1.89064335 79.4079627,2.00169136 79.821324,2.1301119 C79.8417537,2.17064783 79.8533306,2.21186503 79.8533306,2.25342287 L79.8540115,2.27897073 C79.857757,2.35288918 80.143773,9.77811734 72.9596629,24.5914441 C72.4642422,24.4824399 72.0035521,24.3853581 71.5806569,24.3008799 L71.5806569,24.3008799 Z M77.5985707,2.86486817 C77.6084451,4.78538548 76.7245193,9.19153862 72.4322357,19.2614806 L69.0674612,18.4534871 C69.4658407,17.2908895 70.5220571,14.3198444 71.9150233,11.261596 C73.9930661,6.69806812 75.9434231,3.82512682 77.5985707,2.86486817 L77.5985707,2.86486817 Z M65.9417144,20.7333776 C66.7793328,17.7783425 70.7934318,4.72270808 77.1354971,1.42124412 C77.1923598,1.42601306 77.2461581,1.45837367 77.2951894,1.51798533 C77.3118737,1.53842361 77.3295795,1.56260891 77.3469447,1.5902006 C77.3554571,1.6770633 77.3680554,1.76290409 77.3843992,1.84397594 C72.7070154,4.15827084 68.142676,18.0491498 67.9445077,18.6575293 L67.7773245,19.1718928 L72.0321537,20.1934663 C71.760098,20.8226247 71.4761249,21.4715402 71.1781915,22.1436191 L65.9417144,20.7333776 Z M97.1259758,8.99430919 C99.1812053,9.96887465 101.428815,11.0926396 103.827604,12.3741199 L103.699578,12.484146 C103.699578,12.484146 103.708431,12.4940245 103.724775,12.5134409 C103.745204,12.5393294 103.778913,12.5815685 103.819773,12.6466303 C103.901492,12.774029 104.019643,12.9797743 104.108172,13.2710199 C104.19568,13.5609029 104.267865,13.9342422 104.236198,14.3763903 C104.234155,14.4118167 104.227686,14.4499682 104.224281,14.4860758 C103.644077,14.1801828 103.065916,13.8756524 102.493544,13.5741877 C101.643667,13.1242049 100.782214,12.7219113 99.9469793,12.3032672 C99.5278296,12.0964999 99.1120848,11.8917764 98.700426,11.6887561 C98.4947668,11.587246 98.2897887,11.4860765 98.085832,11.3855883 C97.8798323,11.2902096 97.6745137,11.1951716 97.470557,11.1008149 C96.6537088,10.7237286 95.8545663,10.3551582 95.0768751,9.99612569 C94.3029293,9.6282366 93.530686,9.31348704 92.7924922,8.98919962 C92.0502124,8.67445007 91.3423227,8.34880009 90.6463503,8.0749271 C89.9507185,7.80037284 89.295265,7.50878667 88.6564959,7.27068067 C88.0184077,7.03087149 87.4017707,6.83193887 86.8290576,6.62959987 C85.8280015,6.27431439 84.9267104,5.99465055 84.1622985,5.74870988 C84.2092868,4.85351309 84.1033928,4.09286833 83.8412114,3.47256645 C87.2761279,4.69171002 91.8339979,6.4848287 97.1259758,8.99430919 L97.1259758,8.99430919 Z M105.128296,15.5280876 C105.465386,15.7059006 105.802136,15.8840543 106.140589,16.0628893 C106.569613,16.3047423 107.000339,16.5476173 107.431406,16.7904922 C108.237018,17.2445627 109.045354,17.7003364 109.85403,18.1561101 C109.651095,18.7818622 109.277572,19.4634789 108.764786,20.1168227 C108.456638,20.5245665 108.09401,20.919366 107.710272,21.308034 C107.320745,21.691933 106.908746,22.0700413 106.476317,22.4266893 C106.046952,22.7877656 105.599201,23.129085 105.152131,23.45746 C104.925701,23.6185818 104.701315,23.7786817 104.479653,23.9363971 C104.252883,24.0883217 104.029177,24.2382024 103.808877,24.3856987 C102.922568,24.966146 102.067924,25.4767624 101.338924,25.9199325 C99.8812637,26.8059321 98.9098306,27.3965984 98.9098306,27.3965984 C98.9098306,27.3965984 99.9187182,26.8726971 101.43256,26.0865045 C101.81085,25.8899563 102.220807,25.6770576 102.654598,25.4518958 C103.086686,25.2223058 103.545334,24.9818153 104.011472,24.7185021 C104.24403,24.584972 104.480334,24.449398 104.719702,24.3121209 C104.955325,24.1676904 105.193671,24.0215567 105.434061,23.8740604 C105.910754,23.5725957 106.390853,23.2564836 106.85665,22.9168675 C107.325512,22.5816796 107.778711,22.2209439 108.213183,21.8479453 C108.642548,21.4691558 109.055228,21.0787846 109.420239,20.6601404 C109.978311,20.0398385 110.440704,19.3592437 110.745787,18.6636608 L111.312372,19.0056614 C111.73731,19.2621619 112.161907,19.5183217 112.585824,19.7741408 C113.433657,20.2857792 114.278086,20.7953737 115.115704,21.3012212 C116.76983,22.34698 118.379351,23.4053424 119.946651,24.4139717 C120.341626,24.6616155 120.717192,24.9307196 121.09378,25.1909671 C121.470027,25.4518958 121.842529,25.7104401 122.210945,25.9662593 C122.947777,26.477557 123.668605,26.9779543 124.370366,27.4654073 C124.721417,27.7089635 125.06736,27.9491133 125.408536,28.1858568 C125.741541,28.43316 126.069778,28.6767162 126.392568,28.9161848 C127.036785,29.396825 127.65921,29.8611147 128.256779,30.3070099 C128.859116,30.7467736 129.415485,31.1953939 129.974578,31.58304 C130.253103,31.7785663 130.524138,31.9689829 130.787681,32.15429 C131.044414,32.3481131 131.293997,32.5364859 131.535749,32.7190679 C132.503777,33.4497365 133.347524,34.0867297 134.042135,34.6113123 C135.437825,35.6560492 136.235265,36.2531877 136.235265,36.2531877 C136.235265,36.2531877 135.480387,35.6035909 134.159606,34.4665411 C133.49598,33.90006 132.690709,33.2126524 131.766605,32.4237347 C130.859866,31.6119943 129.759045,30.7941223 128.556075,29.9067602 C127.956803,29.4598431 127.332675,28.9941909 126.686756,28.512188 C126.362945,28.2720382 126.034026,28.0278007 125.69966,27.7798162 C125.358143,27.5423915 125.010838,27.3015604 124.659106,27.0573229 C123.955302,26.568848 123.232771,26.0670881 122.493556,25.5540872 C122.124119,25.2979274 121.750936,25.0387019 121.374008,24.7767512 C120.996398,24.5161631 120.61947,24.2460371 120.223474,23.997712 C118.651748,22.9866983 117.03814,21.9252701 115.379588,20.8767862 C114.539586,20.3695761 113.692774,19.8586191 112.842898,19.3456182 C112.417619,19.0891177 111.992,18.8322766 111.5657,18.5747543 L110.925909,18.1888114 L110.925569,18.1888114 C110.948382,18.1193212 110.973238,18.0501717 110.992647,17.9806815 C111.122035,17.5180951 111.16698,17.0606182 111.141783,16.6521931 C111.13906,16.606207 111.13259,16.5632866 111.128504,16.5190037 C119.377343,21.4824406 128.730749,28.0857092 138.011629,36.657525 C136.183169,37.8977881 130.626967,37.7356444 128.466184,37.5520405 L92.3144368,25.553406 C94.0039744,24.6139262 95.8845299,23.5678268 97.7657664,22.5210461 C98.5097486,22.1122804 99.2339821,21.6643414 99.9388074,21.2072051 C100.633418,20.7343995 101.310322,20.2530779 101.928662,19.7308798 C103.162957,18.692615 104.21679,17.5378521 104.818445,16.2982702 C104.944088,16.0421104 105.044194,15.7842474 105.128296,15.5280876 L105.128296,15.5280876 Z M105.307737,13.1759819 C106.674826,13.9247043 108.086179,14.7231599 109.536008,15.5737331 L109.50979,15.5985997 C109.50979,15.5985997 109.512854,15.6016654 109.519323,15.6077969 C109.520685,15.6091594 109.522728,15.6112033 109.525793,15.6139284 C109.535667,15.6241475 109.559842,15.6507173 109.588444,15.6871655 C109.646669,15.7614246 109.732473,15.8850763 109.815214,16.062208 C109.976268,16.3994397 110.111104,16.9560423 109.982397,17.6550315 C109.212197,17.220718 108.441656,16.7864045 107.674179,16.3537942 C107.24175,16.1098974 106.810002,15.8666818 106.379616,15.6241475 C106.007455,15.4272587 105.636656,15.2313918 105.266537,15.0358656 C105.310121,14.8451083 105.346213,14.6560542 105.365962,14.4727909 C105.422144,13.9914693 105.382646,13.551365 105.307737,13.1759819 L105.307737,13.1759819 Z M78.6854317,21.0300733 L82.7390282,11.1175061 C83.5698367,9.09139104 84.0397202,7.37321273 84.1503812,5.97080589 C84.88517,6.25660121 85.7438991,6.58225118 86.694562,6.9862479 C87.2529743,7.22196943 87.852927,7.45632841 88.4739904,7.73326714 C89.0964158,8.00577758 89.7671915,8.25103697 90.455673,8.5368323 C91.1489214,8.80968337 91.8547681,9.13431143 92.5943239,9.44803907 C93.3297937,9.77130458 94.0996536,10.0846916 94.8712159,10.4515588 C95.6465237,10.8092287 96.4432827,11.1771178 97.2574069,11.5528416 C97.4610231,11.6468577 97.6653203,11.741555 97.8709795,11.8369337 C98.0742552,11.9370813 98.2785523,12.0379101 98.483871,12.1390796 C98.8941678,12.3414186 99.3085506,12.5454608 99.7263383,12.7515469 C100.55953,13.1691691 101.417919,13.5704407 102.265752,14.0187204 C102.885113,14.3453923 103.511624,14.6754705 104.140519,15.0069114 C104.078549,15.2780593 103.989339,15.5618107 103.862335,15.8547595 C103.634203,16.3861548 103.294729,16.9390104 102.868088,17.4830093 C102.442129,18.0276896 101.930705,18.5648758 101.365823,19.0884364 C100.800601,19.6126784 100.168301,20.1083068 99.5148907,20.5991662 C98.8499034,21.0757188 98.1617624,21.5468212 97.4487653,21.9828379 C95.5266694,23.1720054 93.6055949,24.3604915 91.8997135,25.4157882 L78.6854317,21.0300733 Z M139.665415,38.204703 C138.155318,38.8011602 134.775221,39.9296941 130.829902,39.9296941 C128.29832,39.9296941 125.932899,39.4657451 123.800036,38.5514726 L123.730235,38.5262653 C123.437749,38.4404246 103.328438,32.5364859 87.452845,28.258072 C88.3010188,27.7862884 89.4702796,27.1360103 90.8322608,26.3780907 L128.142713,38.7613056 L128.211834,38.7841283 L128.284359,38.7906005 C128.624514,38.8205766 130.018162,38.9336684 131.722,38.9336684 C134.266862,38.9336684 137.4968,38.6788712 138.936414,37.5210425 C139.179528,37.7489293 139.422642,37.9740911 139.665415,38.204703 L139.665415,38.204703 Z M115.767753,46.901533 L115.758559,46.9028956 C115.838235,47.4823209 115.793971,47.9309412 115.631895,48.2146927 L115.624745,48.2269557 C115.602272,48.2654478 115.577416,48.3008741 115.550176,48.3328941 C115.364947,48.5509024 115.116045,48.5594184 115.115364,48.559759 L115.081655,48.5590778 L115.047945,48.5631654 C114.712217,48.6023388 114.461613,48.5410239 114.277064,48.3751332 C113.924311,48.0586805 113.851445,47.4053367 113.853148,47.1805156 L113.836804,47.1801749 L112.824171,36.6629752 C113.432295,36.8380632 114.022033,37.0077009 114.591682,37.1722291 L115.767753,46.901533 Z M108.978617,48.1874416 C108.978617,48.1874416 109.574143,46.9451347 109.305833,45.5934829 L106.420135,34.8306832 C108.303074,35.3665068 110.10804,35.8829141 111.791449,36.3662795 L112.878309,47.6495742 L106.401749,56.5773567 C105.651978,56.4053345 104.899824,56.2353561 104.145967,56.0677622 L108.978617,48.1874416 Z M96.4146811,44.3917119 L97.1178039,42.8881355 L94.8337615,31.5728209 C97.8032209,32.396143 100.788003,33.2341126 103.649866,34.0444906 L106.521943,46.7795846 L101.080829,55.3990897 C97.8185432,54.701463 94.5422975,54.0440316 91.3089542,53.4274767 L96.4146811,44.3917119 Z M93.9256605,44.2775981 C94.1568568,44.4554112 94.5208463,44.6403777 95.0343132,44.6403777 C95.0646173,44.6403777 95.0976453,44.6369713 95.1289709,44.6359494 L90.272146,53.2309286 C89.5829835,53.1008048 88.8968855,52.9730656 88.2128305,52.8470295 L93.5933371,43.9447948 C93.6879948,44.0646994 93.7969533,44.1784725 93.9256605,44.2775981 L93.9256605,44.2775981 Z M95.8617167,43.2168513 L95.8559283,43.2297955 C95.8358391,43.2706721 95.8133664,43.3088235 95.7885103,43.3435686 C95.6213271,43.5741806 95.3782134,43.6021129 95.3782134,43.6027942 L95.3101144,43.6116508 C94.9859628,43.6760313 94.7322939,43.6358361 94.5368496,43.4869772 C94.1565163,43.1967536 94.031895,42.5379596 94.0158918,42.3087102 L93.996824,42.3100728 L91.939211,30.773684 C92.5422281,30.9392341 93.1476288,31.1061468 93.7543914,31.2737407 L95.8937233,41.8740561 L95.8872539,41.8754186 C96.0128966,42.4579097 96.0033628,42.9164085 95.8617167,43.2168513 L95.8617167,43.2168513 Z M109.510471,57.3059815 C108.82982,57.1428159 108.145425,56.9816941 107.458986,56.8219349 L113.30461,48.7638012 C113.388712,48.8884747 113.486775,49.0076981 113.605267,49.114999 C113.835101,49.3227883 114.216115,49.54795 114.781678,49.5694102 L109.510471,57.3059815 Z M131.109108,68.8440735 C132.003249,68.6972585 132.87696,68.5402243 133.70845,68.3733117 L136.987419,72.6060801 C136.11507,72.7471042 135.215822,72.8697339 134.310105,72.9763536 L131.109108,68.8440735 Z M127.145062,69.4224769 C128.176422,69.2882655 129.227872,69.1404286 130.265361,68.9789661 L133.437756,73.0741167 C132.341361,73.1909556 131.248712,73.285653 130.197262,73.3622965 L127.145062,69.4224769 Z M124.650594,73.6412791 C123.403359,73.6777274 122.525222,73.685562 122.22831,73.6872652 C120.215302,72.9269611 119.165896,71.2758885 118.707248,70.3190362 C119.415138,70.2594246 120.517321,70.1620021 121.851382,70.0281313 L124.650594,73.6412791 Z M122.72986,69.9382029 C123.819104,69.8240891 125.02616,69.6885152 126.281907,69.5321623 L129.296992,73.4242927 C127.929223,73.5131992 126.656792,73.5724702 125.575038,73.6113029 L122.72986,69.9382029 Z M139.159779,72.2010614 C138.72701,72.2943963 138.281301,72.3815996 137.825038,72.4633527 L134.524276,68.202652 C135.57198,67.9747652 136.530815,67.7305277 137.346642,67.4689177 C137.880538,68.7704957 138.52135,70.404877 139.159779,72.2010614 L139.159779,72.2010614 Z M143.036659,88.3394702 C142.770051,88.1487129 142.563711,87.9313858 142.424448,87.6939611 C142.087358,87.1182828 142.219129,86.5623615 142.220491,86.5552081 L142.251136,86.4046461 C142.47416,84.6217465 143.624694,81.38296 143.636271,81.3505994 L143.727183,81.0958021 L143.677471,80.8301044 C142.235473,73.1371348 138.038188,63.9865749 137.860109,63.6009726 L137.780773,63.4289504 L137.644235,63.2981454 C131.740387,57.6374224 120.584058,55.920266 120.112132,55.8500945 L119.10052,55.6991919 L118.973856,56.7146339 C118.864557,57.5863266 118.55709,58.21276 118.059626,58.5769021 C117.304067,59.1297576 116.268281,58.9969088 116.113355,58.9734048 C114.292046,58.4879956 112.432601,58.0158712 110.548641,57.5570318 L116.086456,49.4290673 L116.90705,47.9983875 L115.634619,37.4730125 C120.012367,38.7378016 122.975697,39.6071099 123.342751,39.7147515 C125.623048,40.6862512 128.141692,41.1791545 130.829902,41.1791545 C136.449096,41.1791545 140.869066,39.0593639 141.054295,38.9690948 L141.859226,38.5773611 L141.213987,37.9567185 C125.209347,22.5663509 108.696006,13.0979757 97.6612344,7.86509407 C85.6938463,2.19040484 77.3857612,0.126478907 77.3033613,0.106040624 L77.0891898,0.0539230029 L76.8896595,0.147257828 C76.8358613,0.172805681 76.782063,0.200397363 76.7282648,0.226967131 C76.7183904,0.230032873 76.7064731,0.232076702 76.6972797,0.235142444 L76.6993227,0.241273929 C73.4550835,1.85862338 70.4352308,5.82535344 67.7208023,12.0392727 C65.6860024,16.6978386 64.5793927,20.9752306 64.5684969,21.018151 L64.415274,21.6159708 L70.5680239,23.2731749 L70.0562595,24.6381115 C70.02221,24.7133925 69.9888414,24.7869703 69.9544514,24.862592 L69.9697737,24.8697454 L69.8291491,25.2444472 L70.564619,25.378318 C72.409763,25.7138465 75.2559631,26.3801345 78.6908796,27.2491021 L78.0936509,27.1571299 L83.1183399,41.0405148 L78.3994157,51.1257854 C76.3298853,50.7807191 74.3199416,50.456091 72.3866093,50.1519013 C70.5710884,46.0172366 69.1096826,45.4149886 68.6656767,45.3311916 C60.7842322,43.7145234 52.3041969,42.7689122 49.8897448,42.5168401 L55.1034087,19.2999727 L54.2293573,19.0233746 C35.7993686,13.186201 16.5106508,11.7040849 16.2641322,11.6846685 C15.7210422,11.639023 9.92172638,11.5221841 9.87780249,12.0729959 C9.83387859,12.6231263 15.5555615,13.6334588 16.1054614,13.6774011 C16.2849024,13.6917079 26.5409611,14.4782411 39.2652702,17.1910825 L38.8805105,18.1799548 C26.3199797,15.9726202 14.0076699,14.9183455 13.8030322,14.9013136 C13.5932871,14.8866661 9.06810468,14.7122595 9.05107992,14.9190268 C9.03405515,15.1251128 13.5347219,15.6316415 13.7410621,15.6486734 C13.9446783,15.6657054 26.1361122,16.7090797 38.6036878,18.8918883 L36.8627354,23.3644659 C27.9417587,21.1080794 16.0431507,20.1341953 15.2433273,20.0681115 C14.829966,20.0323445 7.51544615,19.7417802 7.48105612,20.1539523 C7.44734709,20.5664649 14.7077282,21.5284268 15.1204085,21.5624906 C15.3134693,21.5785006 27.5178421,22.577592 36.3148785,24.7723229 L33.9065553,30.9613756 C31.5819939,29.0888882 29.226788,29.5804289 28.9118298,29.6584351 C24.6719825,30.4422432 24.7601707,40.0703776 24.8228219,42.0290464 C23.9617093,43.1395264 23.6075942,44.1457712 23.7693294,45.0222329 C23.9109755,45.7869653 24.3948193,46.1865338 24.5892421,46.3197232 C20.0286481,46.1565576 15.6716704,46.0683324 12.299405,46.1340755 C11.8169232,46.1436134 1.79887068,46.4842514 1.80806405,46.9672762 C1.81725743,47.4445101 12.3273256,47.8832519 12.333114,47.8829112 C16.3976063,47.8052458 21.9248664,47.9524014 27.5110322,48.1847165 L27.4980934,48.1891448 C27.528738,48.2766888 30.5710634,56.9990667 31.5227477,64.7131559 C31.2670358,65.9738573 28.6547559,78.8012642 26.0084265,89.72212 C25.717303,89.7153073 25.4261795,89.7081539 25.1350561,89.7016817 L21.9500631,89.6526299 C20.8883988,89.6424107 19.8267344,89.6287852 18.7650701,89.6281039 C17.7034058,89.6250382 16.6417415,89.6182254 15.5804176,89.6250382 C14.5187533,89.6291258 13.457089,89.6294665 12.3954247,89.643092 C11.3337604,89.6519486 10.272096,89.6655741 9.21043171,89.6856718 L7.61793523,89.7173511 L6.02577924,89.757887 C4.96411492,89.7953572 3.9024506,89.8192019 2.84078628,89.8709789 C3.9024506,89.9227558 4.96411492,89.9469411 6.02577924,89.9844113 L7.61793523,90.0246066 L9.21043171,90.056286 C10.272096,90.0767242 11.3337604,90.0900091 12.3954247,90.0988657 C13.457089,90.1128319 14.5187533,90.1131725 15.5804176,90.1172602 C16.6417415,90.1240729 17.7034058,90.1169195 18.7650701,90.1138538 C19.8267344,90.1135131 20.8883988,90.099547 21.9500631,90.0893278 L25.1350561,90.0406166 C25.4020044,90.0344851 25.6689527,90.028013 25.9355605,90.0218815 C25.0850032,93.5205749 24.233084,96.8080727 23.4570953,99.4398422 C23.3280475,99.4779937 23.1989998,99.5141013 23.0702926,99.5498683 C22.8922136,99.5938106 22.6998337,99.6380936 22.5394604,99.6646634 L17.7926156,99.7239344 L15.3999551,99.7511854 C15.0008947,99.7528886 14.6021747,99.7457352 14.2034547,99.7579982 C13.8047347,99.7702612 13.4063552,99.795809 13.0076352,99.8176098 L8.22503834,100.091483 C6.63083938,100.18584 5.03698091,100.2928 3.44278195,100.403167 C5.03902388,100.473679 6.63526582,100.540784 8.23116725,100.594946 L13.0192121,100.749255 C13.4182725,100.761177 13.817333,100.776847 14.216053,100.77889 C14.6151135,100.781275 15.0138335,100.764243 15.4125535,100.756068 L17.8048734,100.723366 L22.5901942,100.663414 L22.6259462,100.663073 L22.6525049,100.658986 C22.8152616,100.633097 22.9678035,100.600737 23.1169405,100.565992 C22.9463523,101.116463 22.7798501,101.631507 22.6191363,102.102269 L22.5949612,102.197989 C22.5915562,102.217064 22.464892,102.899022 22.0518712,103.797965 L20.7181511,103.803756 C20.1536099,103.814657 19.5887282,103.788768 19.024187,103.80035 C18.4596458,103.824195 17.8954451,103.86439 17.3309039,103.895729 C16.2018216,103.962153 15.0730797,104.026874 13.9439973,104.10454 L12.2507142,104.220016 L10.5574311,104.345711 L12.2517357,104.457441 L13.9460402,104.55861 C15.0754631,104.627078 16.204886,104.682262 17.3343089,104.739489 C17.8991906,104.765718 18.4637318,104.801144 19.0286135,104.820561 C19.5931547,104.827374 20.1576959,104.797057 20.7222371,104.803188 L21.5070787,104.799782 C20.7702469,105.958633 19.5662555,107.20094 17.6380307,107.835208 C11.9636766,107.824988 8.09599062,107.776618 7.97920074,107.775596 L7.96966687,107.775596 C7.42249093,107.775596 0.0562157728,108.222854 0.0511083434,108.771622 C0.046000914,109.323796 7.40887112,109.769691 7.96081399,109.774801 C8.22197388,109.777185 27.3244408,110.014269 43.1904999,109.540442 L43.7489122,109.524091 L44.0274374,109.039704 C44.1054108,108.903448 45.3645624,106.678401 46.3353145,103.238297 L48.3248284,103.238297 C50.3878894,116.480261 61.8649643,126.646262 75.6710269,126.646262 C89.4770895,126.646262 100.954164,116.480261 103.017225,103.238297 L103.331502,103.238297 L102.557557,108.895273 C102.417273,109.258393 102.445534,109.658302 102.648128,109.973733 C102.814971,110.234321 103.134356,110.51637 103.733287,110.51637 C103.843607,110.51637 103.963802,110.507172 104.093871,110.485712 C109.77163,109.567011 139.498912,102.860189 140.761809,102.575075 L140.991984,102.523298 L141.17449,102.373758 C144.067338,100.005983 145.075885,93.8789261 145.117766,93.6193599 L145.129683,93.4953677 C145.211402,91.0816065 145.156582,89.8542876 143.036659,88.3394702 L143.036659,88.3394702 Z" id="Fill-25" fill="#554740"></path>
                <path d="M39.1175633,33.2610571 C39.1492294,33.2610571 39.1815765,33.2569695 39.213583,33.2481129 L45.8287256,31.4362591 C46.0217864,31.3834602 46.1355118,31.1841869 46.0823946,30.9910452 C46.0296178,30.7975628 45.8294065,30.6844709 45.6377077,30.7372698 L39.0222247,32.5491236 C38.8291638,32.6019225 38.7154384,32.8011957 38.7685557,32.9943375 C38.8124796,33.1554593 38.958552,33.2610571 39.1175633,33.2610571" id="Fill-29" fill="#554740"></path>
                <path d="M40.2989799,30.2671552 C40.3306459,30.2671552 40.362993,30.2630676 40.3949995,30.254211 L47.0101421,28.4423572 C47.2032029,28.3895583 47.3169283,28.1902851 47.2638111,27.9971433 C47.2110343,27.8036609 47.0108231,27.6905691 46.8191242,27.743368 L40.2036412,29.5552217 C40.0105803,29.6080206 39.8968549,29.8072939 39.9499722,30.0004357 C39.9938961,30.1615575 40.1399686,30.2671552 40.2989799,30.2671552" id="Fill-33" fill="#554740"></path>
                <path d="M40.6926946,27.7459909 C40.7243606,27.7459909 40.7567077,27.7419032 40.7887142,27.7330466 L47.4038568,25.9211928 C47.5969176,25.868394 47.710643,25.6691207 47.6575258,25.4759789 C47.604749,25.2824965 47.4045378,25.169064 47.2128389,25.2222036 L40.5973559,27.0340574 C40.4042951,27.0868562 40.2905696,27.2861295 40.3436869,27.4792713 C40.3876108,27.6403931 40.5336833,27.7459909 40.6926946,27.7459909" id="Fill-37" fill="#554740"></path>
                <path d="M41.5589146,24.9885599 C41.5905807,24.9885599 41.6229277,24.9844723 41.6549343,24.9756157 L48.2700768,23.1634213 C48.4631376,23.1106224 48.5768631,22.9113491 48.5237458,22.7182074 C48.470969,22.5250656 48.2710983,22.4116331 48.0790589,22.464432 L41.4635759,24.2766264 C41.2705151,24.3294253 41.1567896,24.5286986 41.2099069,24.7218403 C41.2538308,24.8829621 41.3999033,24.9885599 41.5589146,24.9885599" id="Fill-41" fill="#554740"></path>
                <path d="M42.4649045,22.4146648 C42.4965705,22.4146648 42.5289176,22.4105771 42.5609241,22.4017205 L43.8279071,22.0546104 C44.0206275,22.0014708 44.1343529,21.8025382 44.0815761,21.6093964 C44.0284588,21.415914 43.8285881,21.3024816 43.6365488,21.3556211 L42.3695658,21.7027313 C42.176505,21.7558708 42.0627795,21.9548034 42.1158968,22.1479452 C42.1598207,22.309067 42.3058932,22.4146648 42.4649045,22.4146648" id="Fill-45" fill="#554740"></path>
                <path d="M44.3973855,33.5729453 L43.130743,33.9200555 C42.9376822,33.9725137 42.8239567,34.1721276 42.877074,34.3652694 C42.9209979,34.5260506 43.0670704,34.631989 43.2260817,34.631989 C43.2577478,34.631989 43.2897543,34.6275607 43.3217609,34.6190448 L44.5887439,34.2719346 C44.7814642,34.2191357 44.8951896,34.0198624 44.8424128,33.8267207 C44.7892956,33.6335789 44.5894248,33.5201464 44.3973855,33.5729453" id="Fill-49" fill="#554740"></path>
                <path d="M94.9684954,42.2098911 C94.7740726,42.2098911 94.6167638,42.3676065 94.6167638,42.5617702 C94.6167638,42.7562746 94.7740726,42.91399 94.9684954,42.91399 C95.1629183,42.91399 95.3202271,42.7562746 95.3202271,42.5617702 C95.3202271,42.3676065 95.1629183,42.2098911 94.9684954,42.2098911" id="Fill-53" fill="#554740"></path>
                <path d="M94.9684954,42.2098911 C94.7740726,42.2098911 94.6167638,42.3676065 94.6167638,42.5617702 C94.6167638,42.7562746 94.7740726,42.91399 94.9684954,42.91399 C95.1629183,42.91399 95.3202271,42.7562746 95.3202271,42.5617702 C95.3202271,42.3676065 95.1629183,42.2098911 94.9684954,42.2098911 L94.9684954,42.2098911 Z" id="Stroke-55" stroke="#221F20" stroke-width="0.66693344"></path>
                <path d="M114.434918,47.4779267 C114.419936,47.6697059 114.564987,47.8376404 114.759069,47.8529691 C114.953152,47.8682979 115.122718,47.7248892 115.1377,47.53311 C115.152682,47.3413308 115.007631,47.1737369 114.813549,47.1584082 C114.619466,47.1430795 114.4499,47.2861474 114.434918,47.4779267" id="Fill-57" fill="#554740"></path>
                <path d="M114.434918,47.4779267 C114.419936,47.6697059 114.564987,47.8376404 114.759069,47.8529691 C114.953152,47.8682979 115.122718,47.7248892 115.1377,47.53311 C115.152682,47.3413308 115.007631,47.1737369 114.813549,47.1584082 C114.619466,47.1430795 114.4499,47.2861474 114.434918,47.4779267 L114.434918,47.4779267 Z" id="Stroke-59" stroke="#221F20" stroke-width="0.66693344"></path>
                <path d="M110.568253,104.499135 C110.432055,104.514123 110.29824,104.536264 110.163064,104.556703 C110.028909,104.574075 109.893392,104.588723 109.759917,104.599623 C109.492969,104.623127 109.223297,104.639478 108.979502,104.627896 C108.963499,104.627555 108.946815,104.625852 108.93013,104.62483 C109.008785,104.10672 109.098676,103.589972 109.166094,103.069818 C109.223297,102.531609 109.307399,101.996126 109.340768,101.455534 L109.405462,100.645837 C109.425892,100.375711 109.430999,100.104904 109.444619,99.8344374 C109.475604,99.2935041 109.473901,98.751549 109.476625,98.2099345 C109.477987,97.66832 109.453131,97.1267055 109.432701,96.5854317 C109.394566,96.0448391 109.369029,95.5032246 109.306037,94.9650165 C109.258708,94.4247645 109.181075,93.8882596 109.106847,93.351414 C109.069733,93.0829913 109.017978,92.8169529 108.974395,92.5492114 C108.931152,92.2818106 108.88144,92.0154316 108.824236,91.7504152 C108.722088,91.217998 108.594743,90.6910309 108.467397,90.1640638 C108.328135,89.6401625 108.189894,89.1155799 108.026115,88.5984914 C107.949844,88.3385845 107.865402,88.0807215 107.777213,87.8245617 C107.691408,87.56738 107.605604,87.3101983 107.508903,87.0567636 C107.325036,86.5464878 107.124824,86.0423435 106.913377,85.5429681 C106.701248,85.0435927 106.477883,84.5489863 106.237834,84.0622145 C106.117299,83.8193396 106.016853,83.5655642 105.871802,83.3349523 C105.729815,83.1029778 105.574549,82.8784973 105.425412,82.6516323 C104.814904,81.7530292 104.152981,80.8861053 103.390612,80.120351 C103.681395,80.5737402 103.935405,81.0465459 104.186009,81.5179889 C104.431166,81.9928384 104.663724,82.4724567 104.886408,82.9548002 C104.993664,83.1983564 105.104325,83.4391875 105.204771,83.6851282 C105.311006,83.9280031 105.452992,84.1518023 105.564675,84.3919521 C105.798936,84.8664609 106.016512,85.3488044 106.223533,85.8359168 C106.429873,86.3230292 106.625318,86.8152512 106.805099,87.313264 C106.899076,87.5609079 106.983178,87.8119581 107.06694,88.0630084 C107.153085,88.3133773 107.235485,88.5651088 107.310054,88.8192248 C107.470087,89.3240504 107.604923,89.83637 107.741121,90.3480084 C107.865061,90.8630531 107.989682,91.3777572 108.089447,91.8982521 C108.145629,92.157137 108.19432,92.4173845 108.236201,92.6789945 C108.278763,92.9402639 108.329837,93.2005114 108.36593,93.4628027 C108.438115,93.9877259 108.514045,94.5119679 108.560352,95.0399568 C108.622323,95.5662426 108.646838,96.0959348 108.684293,96.624605 C108.704382,97.1539566 108.728557,97.6836487 108.727195,98.2136815 C108.724471,98.7437143 108.726514,99.2737471 108.69587,99.8030987 C108.68259,100.067774 108.677483,100.333131 108.657394,100.597467 L108.594062,101.390472 C108.561714,101.919823 108.478974,102.444747 108.423133,102.972054 C108.359801,103.461551 108.276039,103.948323 108.20113,104.436457 C108.194661,104.444292 108.188532,104.450424 108.181722,104.45928 C108.140862,104.514463 108.089107,104.592129 108.066975,104.72089 C108.055057,104.783227 108.060165,104.864639 108.080935,104.93992 C108.104429,105.00907 108.146651,105.083329 108.184446,105.120459 C108.203854,105.142259 108.226667,105.165423 108.246756,105.182114 L108.300214,105.219925 C108.339712,105.246835 108.370697,105.261142 108.398958,105.273064 C108.633899,105.36674 108.780312,105.363334 108.941367,105.376618 C109.252579,105.390585 109.538936,105.370828 109.824952,105.346302 L110.250571,105.304744 C110.391196,105.288734 110.533523,105.28124 110.672104,105.255351 C110.949267,105.200168 111.222685,105.129315 111.495081,105.061528 C112.585007,104.788336 113.653481,104.461665 114.714805,104.110467 C113.603428,104.227306 112.495116,104.350617 111.392592,104.440886 L110.568253,104.499135 Z" id="Fill-61" fill="#554740"></path>
                <path d="M110.568253,104.499135 C110.432055,104.514123 110.29824,104.536264 110.163064,104.556703 C110.028909,104.574075 109.893392,104.588723 109.759917,104.599623 C109.492969,104.623127 109.223297,104.639478 108.979502,104.627896 C108.963499,104.627555 108.946815,104.625852 108.93013,104.62483 C109.008785,104.10672 109.098676,103.589972 109.166094,103.069818 C109.223297,102.531609 109.307399,101.996126 109.340768,101.455534 L109.405462,100.645837 C109.425892,100.375711 109.430999,100.104904 109.444619,99.8344374 C109.475604,99.2935041 109.473901,98.751549 109.476625,98.2099345 C109.477987,97.66832 109.453131,97.1267055 109.432701,96.5854317 C109.394566,96.0448391 109.369029,95.5032246 109.306037,94.9650165 C109.258708,94.4247645 109.181075,93.8882596 109.106847,93.351414 C109.069733,93.0829913 109.017978,92.8169529 108.974395,92.5492114 C108.931152,92.2818106 108.88144,92.0154316 108.824236,91.7504152 C108.722088,91.217998 108.594743,90.6910309 108.467397,90.1640638 C108.328135,89.6401625 108.189894,89.1155799 108.026115,88.5984914 C107.949844,88.3385845 107.865402,88.0807215 107.777213,87.8245617 C107.691408,87.56738 107.605604,87.3101983 107.508903,87.0567636 C107.325036,86.5464878 107.124824,86.0423435 106.913377,85.5429681 C106.701248,85.0435927 106.477883,84.5489863 106.237834,84.0622145 C106.117299,83.8193396 106.016853,83.5655642 105.871802,83.3349523 C105.729815,83.1029778 105.574549,82.8784973 105.425412,82.6516323 C104.814904,81.7530292 104.152981,80.8861053 103.390612,80.120351 C103.681395,80.5737402 103.935405,81.0465459 104.186009,81.5179889 C104.431166,81.9928384 104.663724,82.4724567 104.886408,82.9548002 C104.993664,83.1983564 105.104325,83.4391875 105.204771,83.6851282 C105.311006,83.9280031 105.452992,84.1518023 105.564675,84.3919521 C105.798936,84.8664609 106.016512,85.3488044 106.223533,85.8359168 C106.429873,86.3230292 106.625318,86.8152512 106.805099,87.313264 C106.899076,87.5609079 106.983178,87.8119581 107.06694,88.0630084 C107.153085,88.3133773 107.235485,88.5651088 107.310054,88.8192248 C107.470087,89.3240504 107.604923,89.83637 107.741121,90.3480084 C107.865061,90.8630531 107.989682,91.3777572 108.089447,91.8982521 C108.145629,92.157137 108.19432,92.4173845 108.236201,92.6789945 C108.278763,92.9402639 108.329837,93.2005114 108.36593,93.4628027 C108.438115,93.9877259 108.514045,94.5119679 108.560352,95.0399568 C108.622323,95.5662426 108.646838,96.0959348 108.684293,96.624605 C108.704382,97.1539566 108.728557,97.6836487 108.727195,98.2136815 C108.724471,98.7437143 108.726514,99.2737471 108.69587,99.8030987 C108.68259,100.067774 108.677483,100.333131 108.657394,100.597467 L108.594062,101.390472 C108.561714,101.919823 108.478974,102.444747 108.423133,102.972054 C108.359801,103.461551 108.276039,103.948323 108.20113,104.436457 C108.194661,104.444292 108.188532,104.450424 108.181722,104.45928 C108.140862,104.514463 108.089107,104.592129 108.066975,104.72089 C108.055057,104.783227 108.060165,104.864639 108.080935,104.93992 C108.104429,105.00907 108.146651,105.083329 108.184446,105.120459 C108.203854,105.142259 108.226667,105.165423 108.246756,105.182114 L108.300214,105.219925 C108.339712,105.246835 108.370697,105.261142 108.398958,105.273064 C108.633899,105.36674 108.780312,105.363334 108.941367,105.376618 C109.252579,105.390585 109.538936,105.370828 109.824952,105.346302 L110.250571,105.304744 C110.391196,105.288734 110.533523,105.28124 110.672104,105.255351 C110.949267,105.200168 111.222685,105.129315 111.495081,105.061528 C112.585007,104.788336 113.653481,104.461665 114.714805,104.110467 C113.603428,104.227306 112.495116,104.350617 111.392592,104.440886 L110.568253,104.499135 L110.568253,104.499135 Z" id="Stroke-63" stroke="#554740" stroke-width="0.66693344"></path>
                <path d="M75.8508084,119.373742 C64.5977795,119.373742 55.443223,110.215007 55.443223,98.9572603 C55.443223,87.6998541 64.5977795,78.541119 75.8508084,78.541119 C87.1038373,78.541119 96.2587343,87.6998541 96.2587343,98.9572603 C96.2587343,110.215007 87.1038373,119.373742 75.8508084,119.373742 M75.8508084,76.5419143 C63.4959367,76.5419143 53.4448562,86.5972088 53.4448562,98.9572603 C53.4448562,111.317312 63.4959367,121.372947 75.8508084,121.372947 C88.2056801,121.372947 98.2571011,111.317312 98.2571011,98.9572603 C98.2571011,86.5972088 88.2056801,76.5419143 75.8508084,76.5419143" id="Fill-65" fill="#554740"></path>
                <path d="M75.8508084,119.373742 C64.5977795,119.373742 55.443223,110.215007 55.443223,98.9572603 C55.443223,87.6998541 64.5977795,78.541119 75.8508084,78.541119 C87.1038373,78.541119 96.2587343,87.6998541 96.2587343,98.9572603 C96.2587343,110.215007 87.1038373,119.373742 75.8508084,119.373742 L75.8508084,119.373742 Z M75.8508084,76.5419143 C63.4959367,76.5419143 53.4448562,86.5972088 53.4448562,98.9572603 C53.4448562,111.317312 63.4959367,121.372947 75.8508084,121.372947 C88.2056801,121.372947 98.2571011,111.317312 98.2571011,98.9572603 C98.2571011,86.5972088 88.2056801,76.5419143 75.8508084,76.5419143 L75.8508084,76.5419143 Z" id="Stroke-67" stroke="#554740" stroke-width="0.66693344"></path>
                <path d="M77.3510307,96.6716131 L77.3203861,96.6573063 C77.3081282,96.6518561 77.2642044,96.6334616 77.2073416,96.6334616 C77.0966807,96.6334616 77.0078114,96.7029518 76.96559,96.8381851 L76.9294975,97.0606217 L77.1276657,97.3542517 L77.1130244,97.3573175 L77.0813584,97.5494373 L77.1150674,97.5974673 C76.9935106,97.6741109 76.8120266,97.7933342 76.744268,97.8611212 L76.2147979,98.2770402 L75.9311653,98.5267279 L75.7057574,98.291347 L75.2287235,97.8468144 C75.1599434,97.7660831 74.9866313,97.6294873 74.8715439,97.5419433 L74.9093389,97.4973197 L74.8946976,97.3028154 L74.8797158,97.2983871 L75.1027402,97.0228109 L75.0829915,96.7795954 C75.0533684,96.6521967 74.9600727,96.5728281 74.8391969,96.5728281 C74.79323,96.5728281 74.757478,96.5844097 74.7476036,96.5878161 L74.7155971,96.5993978 L73.4513381,98.1281814 L73.4499761,98.1711018 C73.4462306,98.3005442 73.5160322,98.3877476 73.5173942,98.3877476 L73.5173942,98.3874069 C73.6042205,98.5205964 73.707731,98.5406941 73.7622103,98.5406941 C73.8224779,98.5406941 73.8650398,98.5178713 73.8762762,98.5107179 L74.1585468,98.1745082 L74.2470756,98.2262851 L74.3577365,98.1813209 L74.465333,98.0542629 C74.5661197,98.1063805 74.755435,98.232076 74.9117224,98.3475523 C75.0019536,98.4088671 75.0298742,98.4878952 75.0302147,98.4889171 C75.0976328,98.7096505 75.2368954,98.8339834 75.2443863,98.8397743 L75.3969282,98.9974897 L73.6055824,100.577028 C73.5759593,100.595423 73.4244389,100.69557 73.3907299,100.843407 C73.3747266,100.912897 73.3869845,100.981366 73.4237579,101.039274 C73.4591695,101.098545 73.5623395,101.199033 73.7240748,101.199033 C73.8214565,101.199033 73.9253075,101.162926 74.0441404,101.083898 L74.7673524,100.481309 L75.8889439,99.5057216 L76.9659305,100.618246 L77.6438566,101.287259 C77.7565605,101.376506 77.868243,101.421811 77.9751585,101.421811 C78.1525566,101.421811 78.2451713,101.300544 78.2530027,101.289643 C78.2969266,101.232416 78.3146323,101.16497 78.304758,101.094457 C78.2836473,100.944577 78.1416607,100.831826 78.1290624,100.824672 L76.423181,99.0407507 L76.6237327,98.866344 C76.6863838,98.8295551 76.9342644,98.6738835 77.0159833,98.4698413 L77.0541188,98.3731001 L77.0496923,98.370375 C77.2042772,98.2773808 77.3809942,98.1816616 77.4759924,98.1421475 L77.5730336,98.2787434 L77.6796086,98.3322236 L77.7715423,98.2886219 L77.9945668,98.616997 L78.0238494,98.6473138 C78.0367882,98.6568516 78.084798,98.6881903 78.1559615,98.6881903 C78.2165697,98.6881903 78.3068009,98.6650269 78.3803479,98.5686264 C78.3895413,98.5597698 78.4705792,98.4783573 78.4777296,98.3458491 L78.480113,98.3029287 L77.3510307,96.6716131 Z" id="Fill-69" fill="#554740"></path>
                <path d="M88.8609973,93.3521634 C88.7356951,93.8133874 86.4148791,94.6367095 83.9864667,95.0822641 C82.1062517,95.3081071 80.4419107,96.4005333 79.7476408,96.9145561 C79.5372147,96.5470077 79.2777573,96.2118199 78.976419,95.9188711 C79.6567286,95.4208583 81.2226664,94.1383561 82.0064866,92.3786199 C83.1393144,90.2053492 84.5969748,88.2385051 85.086607,88.2190887 L85.0876285,88.2194293 C85.0998863,88.2276047 86.3481421,89.0243571 87.4244477,90.4489054 C88.4643203,91.9064956 88.8535064,93.3453507 88.8609973,93.3521634 M89.7003182,93.8999094 C89.7268769,93.8566484 89.7449231,93.8123654 89.7650123,93.7680825 C90.3622411,95.3864539 90.6891166,97.1342677 90.689457,98.9577032 C90.689457,100.516122 90.4504294,102.020039 90.008126,103.434368 C89.9897392,103.401326 89.9747574,103.367263 89.9522847,103.334561 C89.5113433,102.695184 88.1313159,102.240773 86.8381148,101.943396 C87.1030201,100.967808 87.2409207,99.9578165 87.2409207,98.9365836 C87.2409207,97.7474162 87.0587557,96.583456 86.7032787,95.4651413 C87.9719641,95.09078 89.2958098,94.5597253 89.7003182,93.8999094 M83.9170057,96.1045189 C83.9840833,96.0939591 84.0511608,96.0810148 84.1189194,96.0728395 L84.150245,96.0684112 C84.4107239,96.0207219 85.0161245,95.9038831 85.738315,95.7253887 C86.0716599,96.7588846 86.2419075,97.8359821 86.2419075,98.9365836 C86.2419075,99.8900295 86.1118383,100.833256 85.8595313,101.741397 C85.1812647,101.616383 84.6208094,101.541102 84.3736099,101.510104 L84.3419438,101.507379 C84.2357093,101.500907 84.1301557,101.488644 84.0249427,101.4757 C84.2697588,100.662256 84.3960826,99.8178142 84.3960826,98.9573625 C84.3960826,97.9742811 84.2333258,97.0184507 83.9170057,96.1045189 M80.1538517,97.8615299 C80.4974115,97.5934478 81.6588409,96.7428746 83.06066,96.305836 C83.3650628,97.1533434 83.5216906,98.0420681 83.5216906,98.9573625 C83.5216906,99.7612683 83.4001338,100.549164 83.1628086,101.306402 C81.6687153,100.902406 80.4453157,100.04536 80.2685986,99.9176212 C80.3132035,99.6635052 80.3411241,99.403939 80.3411241,99.13756 C80.3411241,98.6940493 80.2740465,98.2665486 80.1538517,97.8615299 M87.8868403,106.818948 C86.9549047,108.196488 85.8380801,109.031392 85.701201,109.131199 C85.2623026,109.129496 83.7985133,107.482511 82.4630908,105.238387 C81.615598,103.590721 80.0510221,102.433914 79.3349605,101.965196 C79.591013,101.650447 79.8045035,101.300612 79.9686223,100.923866 C80.6608492,101.380662 82.3769455,102.383841 84.2649919,102.504086 C86.6358606,102.802144 88.9372683,103.46741 89.1367985,103.91024 C89.1228382,103.973939 88.8109445,105.369192 87.8868403,106.818948 M75.6715717,113.981544 C75.3297144,113.981544 74.9916026,113.965875 74.6555337,113.943393 C75.1826204,113.279489 75.3467392,111.733333 75.3811292,110.380319 C75.5190298,110.385088 75.6569304,110.389175 75.793469,110.389175 C78.4302645,110.389175 80.9594636,109.486485 82.9929015,107.837796 C83.7784241,108.893434 84.7372588,109.95929 85.4955419,110.10883 C85.5653434,110.122456 85.6334424,110.128247 85.7001795,110.129269 C83.0392088,112.522251 79.5232544,113.981544 75.6715717,113.981544 M73.8523053,113.346254 L73.8506028,113.346254 C73.8359616,113.345914 72.3633194,113.31219 70.6948925,112.643177 C69.0543862,111.932266 67.9801235,110.902858 67.9702491,110.901154 C67.8391585,110.441293 69.4016914,108.536786 71.2509213,106.900701 C72.715732,105.758201 73.5737802,104.005618 73.9166589,103.185021 C74.2929062,103.365559 74.6970741,103.494661 75.1216718,103.564492 C74.8019467,104.322752 74.1015479,106.256214 74.3419376,108.192741 C74.4944794,110.639204 74.2619212,113.076128 73.8523053,113.346254 M60.8882876,101.584363 C60.9751139,101.704949 61.0891798,101.808503 61.2328688,101.887872 C61.4953907,102.032302 61.868914,102.091233 62.3030455,102.091233 C63.0109352,102.091233 63.8798792,101.934539 64.692301,101.737991 C65.3113214,104.206254 66.7271008,106.382591 68.7431735,107.959064 C67.8442659,108.939079 66.9746409,110.087029 66.9688525,110.866069 C66.967831,110.998917 66.9916657,111.121547 67.0315036,111.234639 C63.8594495,108.993581 61.5920913,105.556884 60.8882876,101.584363 M68.0887415,85.9974474 C67.9869334,86.1377902 67.9198558,86.303681 67.9004476,86.4951196 C67.8228147,87.2506547 68.5320664,88.4486788 69.3029477,89.5046567 C67.4990037,90.7486669 66.0890127,92.4814926 65.2411794,94.4963666 C64.1192474,93.952027 62.9091271,93.5112414 62.2114523,93.7040425 C61.9189668,93.7847738 61.6976449,93.9612243 61.5791525,94.2000115 C61.5621277,94.2313502 61.3452322,94.6401159 61.1051831,95.3029975 C62.0970458,91.3481898 64.6596134,88.0130027 68.0887415,85.9974474 M68.8950344,86.5823229 C68.8953749,86.5823229 68.8957154,86.5819823 68.8957154,86.5816416 C68.9076327,86.572785 70.0877894,85.6711161 71.7980972,85.1492586 C72.9309251,84.8372342 73.9588804,84.7857978 74.5329554,84.7857978 C74.8346342,84.7854572 75.0082868,84.7984014 75.0099893,84.7984014 C75.4001969,85.0739776 75.3763623,87.5381533 74.9606175,89.9726934 C74.5087802,91.8955952 75.0229281,93.9268198 75.2565079,94.6895084 C74.8308888,94.7460543 74.4236564,94.8605087 74.0440042,95.0281026 C73.8257467,94.254173 73.1593974,92.277791 71.742937,90.9050197 C70.0915348,89.0945285 68.7452164,87.0496783 68.8950344,86.5823229 M75.9272836,90.2349847 C75.9306886,90.2193153 75.9327316,90.203646 75.936477,90.1883173 L75.9426059,90.1573192 C75.9885728,89.8899183 76.0907214,89.2566722 76.1720998,88.4912585 C78.2617194,88.5648363 80.2403375,89.2481563 81.9302156,90.4782002 C81.5362626,91.1312034 81.2376482,91.691553 81.1130269,91.9310215 L81.0994071,91.9592945 C81.0813609,92.000171 81.0595692,92.0390038 81.0405014,92.0795397 C79.5777337,90.9349959 77.7935383,90.2891461 75.9272836,90.2349847 M78.144589,95.2825593 C77.5848147,94.9480527 76.9487695,94.7293631 76.2667574,94.666345 L76.2970615,94.6554446 C76.2895706,94.635347 75.6722527,92.9083121 75.8013004,91.1066774 C77.5592776,91.1356317 79.2416648,91.7477582 80.601603,92.8476785 C79.6935021,94.2020554 78.3706779,95.1299534 78.144589,95.2825593 M68.0179185,100.716758 C69.6659157,100.302202 71.3660087,100.553252 71.6074199,100.592766 C71.887988,101.408935 72.3949855,102.118824 73.0558868,102.646813 C72.8488657,103.164924 72.2717262,104.450492 71.309146,105.487053 C69.6383356,104.370101 68.4639673,102.670999 68.0179185,100.716758 M67.1387596,101.010047 L67.1683827,100.998806 C67.1741712,100.996081 67.1803001,100.994037 67.186429,100.991312 C67.6794662,103.063414 68.9106971,104.87118 70.6543735,106.096455 C70.6444992,106.104289 70.6356463,106.112805 70.6257719,106.12064 L70.6012563,106.141078 C70.405812,106.313782 69.9573797,106.717438 69.4408483,107.233164 C67.5534829,105.786815 66.2289562,103.771941 65.6579456,101.481831 C66.3416602,101.284942 66.897008,101.095548 67.1387596,101.010047 M67.1918769,96.7449184 C68.6624761,97.8233785 70.5396266,98.1790046 71.4433011,98.292437 C71.3908649,98.56631 71.3609013,98.8483583 71.3609013,99.13756 C71.3609013,99.2775623 71.3694137,99.4158613 71.382012,99.5527978 C70.5191969,99.4526502 68.5351308,99.336152 66.7921354,100.072611 C64.4811939,100.886055 62.0735517,101.325819 61.7020713,101.005619 C61.7020713,101.005278 61.7017308,101.004938 61.7017308,101.004938 C61.6979854,100.99029 61.3302504,99.5538197 61.5175229,97.7770517 C61.7538266,96.0033494 62.4515014,94.6874646 62.45048,94.6775861 C62.8563503,94.4241514 65.1151961,95.4109798 67.1918769,96.7449184 M71.597886,92.2450898 C72.6857685,93.6597596 73.1188785,95.4263085 73.1498635,95.5574542 C72.5454844,96.0149311 72.0595976,96.6195636 71.7480444,97.3202561 C71.1337909,97.2538316 69.5978166,97.0204946 68.2926982,96.2697283 C68.9021848,94.5992393 70.077915,93.1716253 71.597886,92.2450898 M67.543949,95.7846597 C67.2347793,95.5908367 66.7260793,95.2811967 66.1315746,94.9565686 C66.9082443,93.0707964 68.2232371,91.4514031 69.9120938,90.298684 C70.3915112,90.8968444 70.8184923,91.3744189 71.0071267,91.5811862 C69.4401673,92.5765306 68.2194917,94.0579655 67.543949,95.7846597 M75.8506722,102.629781 C73.9258523,102.629781 72.3599145,101.063187 72.3599145,99.13756 C72.3599145,97.2115925 73.9258523,95.6449981 75.8506722,95.6449981 C77.7758326,95.6449981 79.3417704,97.2115925 79.3417704,99.13756 C79.3417704,101.063187 77.7758326,102.629781 75.8506722,102.629781 M81.4576082,105.487735 C81.4994891,105.560631 81.5423915,105.632846 81.5808675,105.707787 L81.5961898,105.735719 C81.7245565,105.952024 82.0228304,106.443224 82.4147404,107.021968 C80.4470182,108.637274 77.9600405,109.479331 75.3858961,109.380546 C75.3773837,108.80078 75.3521871,108.335128 75.3382268,108.114395 L75.3355028,108.083056 C75.3181376,107.948163 75.3069012,107.81293 75.2997508,107.678037 C75.4236911,107.683147 75.5476314,107.685872 75.6708907,107.685872 C77.8279284,107.685872 79.8603448,106.908195 81.4576082,105.487735 M75.6708907,106.811113 C75.5541008,106.811113 75.4366299,106.808388 75.319159,106.803279 C75.4614861,105.135855 76.1588204,103.689847 76.1680138,103.671793 L76.0597363,103.618654 C77.0141446,103.574371 77.890239,103.233051 78.5991502,102.681899 C78.9719925,102.91217 80.0986915,103.658849 80.96389,104.757747 C79.5144015,106.084873 77.6505303,106.811113 75.6708907,106.811113 M75.6712312,83.9335214 C79.2093178,83.9335214 82.4630908,85.1669718 85.0324683,87.2223818 C84.9650502,87.2268101 84.8966106,87.2366886 84.8271496,87.2544018 C84.0852104,87.442434 83.1951557,88.5358821 82.4654742,89.6320553 C80.638036,88.3168518 78.506876,87.5817549 76.2565426,87.4935297 C76.3355375,86.1892266 76.2861657,84.7956763 75.8121962,84.1978566 C75.7250294,84.0874898 75.6235618,84.0019897 75.5146033,83.9376091 C75.5670396,83.9369278 75.6187949,83.9335214 75.6712312,83.9335214 M75.6708907,82.6840611 C66.7015637,82.6840611 59.4047496,89.9842751 59.4047496,98.9577032 C59.4050901,107.930791 66.7022447,115.231005 75.6715717,115.231005 C84.6412392,115.231005 91.9383938,107.930791 91.9383938,98.9577032 C91.9380533,89.9842751 84.6405582,82.6840611 75.6708907,82.6840611" id="Fill-73" fill="#554740"></path>
                <path d="M77.9450247,93.7316683 C77.5800137,93.7316683 77.2831018,93.4346319 77.2831018,93.0698086 C77.2831018,92.7049852 77.5800137,92.4079488 77.9450247,92.4079488 C78.3096952,92.4079488 78.606607,92.7049852 78.606607,93.0698086 C78.606607,93.4346319 78.3096952,93.7316683 77.9450247,93.7316683 M77.9450247,91.6582045 C77.1669929,91.6582045 76.5336717,92.2914506 76.5336717,93.0698086 C76.5336717,93.8481665 77.1669929,94.4814126 77.9450247,94.4814126 C78.7230564,94.4814126 79.3560372,93.8481665 79.3560372,93.0698086 C79.3560372,92.2914506 78.7230564,91.6582045 77.9450247,91.6582045" id="Fill-81" fill="#554740"></path>
                <path d="M82.0243966,98.1778464 C82.3894076,98.1778464 82.6863195,98.4748828 82.6863195,98.8400468 C82.6863195,99.2048701 82.3894076,99.5019065 82.0243966,99.5019065 C81.6597262,99.5019065 81.3628143,99.2048701 81.3628143,98.8400468 C81.3628143,98.4748828 81.6597262,98.1778464 82.0243966,98.1778464 M82.0243966,100.25131 C82.8024284,100.25131 83.4357496,99.6180641 83.4357496,98.8400468 C83.4357496,98.0613482 82.8024284,97.4281021 82.0243966,97.4281021 C81.2463649,97.4281021 80.6133842,98.0613482 80.6133842,98.8400468 C80.6133842,99.6180641 81.2463649,100.25131 82.0243966,100.25131" id="Fill-85" fill="#554740"></path>
                <path d="M70.3621945,103.09867 C69.9975241,103.09867 69.7006122,102.801633 69.7006122,102.436469 C69.7006122,102.071646 69.9975241,101.774609 70.3621945,101.774609 C70.7272055,101.774609 71.0241174,102.071646 71.0241174,102.436469 C71.0241174,102.801633 70.7272055,103.09867 70.3621945,103.09867 M71.7735475,102.436469 C71.7735475,101.658452 71.1402263,101.025206 70.3621945,101.025206 C69.5841628,101.025206 68.951182,101.658452 68.951182,102.436469 C68.951182,103.215168 69.5841628,103.848414 70.3621945,103.848414 C71.1402263,103.848414 71.7735475,103.215168 71.7735475,102.436469" id="Fill-89" fill="#554740"></path>
                <path d="M70.9249651,94.1750768 C71.2896356,94.1750768 71.5865475,94.4721132 71.5865475,94.8372772 C71.5865475,95.2021006 71.2896356,95.4991369 70.9249651,95.4991369 C70.5602947,95.4991369 70.2633828,95.2021006 70.2633828,94.8372772 C70.2633828,94.4721132 70.5602947,94.1750768 70.9249651,94.1750768 M70.9249651,96.2485406 C71.7029969,96.2485406 72.3359776,95.6152945 72.3359776,94.8372772 C72.3359776,94.0585786 71.7029969,93.4253325 70.9249651,93.4253325 C70.1469334,93.4253325 69.5139527,94.0585786 69.5139527,94.8372772 C69.5139527,95.6152945 70.1469334,96.2485406 70.9249651,96.2485406" id="Fill-93" fill="#554740"></path>
                <path d="M78.0162563,105.431223 C77.6515858,105.431223 77.354674,105.134186 77.354674,104.769022 C77.354674,104.404199 77.6515858,104.107163 78.0162563,104.107163 C78.3812673,104.107163 78.6781792,104.404199 78.6781792,104.769022 C78.6781792,105.134186 78.3812673,105.431223 78.0162563,105.431223 M78.0162563,103.357759 C77.2382246,103.357759 76.6052438,103.991005 76.6052438,104.769022 C76.6052438,105.547721 77.2382246,106.180967 78.0162563,106.180967 C78.7942881,106.180967 79.4276093,105.547721 79.4276093,104.769022 C79.4276093,103.991005 78.7942881,103.357759 78.0162563,103.357759" id="Fill-97" fill="#554740"></path>
            </g>
        </g>
    </g>
</svg>