<?xml version="1.0" encoding="UTF-8" standalone="no"?>
<svg width="200px" height="30px" viewBox="0 0 200 30" version="1.1" xmlns="http://www.w3.org/2000/svg" xmlns:xlink="http://www.w3.org/1999/xlink">
    <!-- Generator: Sketch 40.1 (33804) - http://www.bohemiancoding.com/sketch -->
    <title>Artboard</title>
    <desc>Created with Sketch.</desc>
    <defs>
        <polygon id="path-1" points="9.105 30 0 15 9.105 0 190.896 0 200 15 190.996 30"></polygon>
        <mask id="mask-2" maskContentUnits="userSpaceOnUse" maskUnits="objectBoundingBox" x="0" y="0" width="200" height="30" fill="white">
            <use xlink:href="#path-1"></use>
        </mask>
    </defs>
    <g id="Page-1" stroke="none" stroke-width="1" fill="none" fill-rule="evenodd">
        <g id="Artboard">
            <use id="Fill-2" stroke="#B8B7B8" mask="url(#mask-2)" stroke-width="2" fill="#F5F0EF" xlink:href="#path-1"></use>
            <path d="M25.37,19 L25.37,12.95 L24.11,13.91 L23.69,13.21 L25.42,11.92 L26.25,11.92 L26.25,19 L25.37,19 L25.37,19 Z M33.33,15.46 C33.33,15.7333347 33.3183335,16.0133319 33.295,16.3 C33.2716666,16.5866681 33.231667,16.8666653 33.175,17.14 C33.1183331,17.4133347 33.0416672,17.6699988 32.945,17.91 C32.8483329,18.1500012 32.7250008,18.3599991 32.575,18.54 C32.4249993,18.7200009 32.2466677,18.8633328 32.04,18.97 C31.8333323,19.0766672 31.5933347,19.13 31.32,19.13 C31.0466653,19.13 30.8066677,19.0766672 30.6,18.97 C30.3933323,18.8633328 30.2150008,18.7200009 30.065,18.54 C29.9149993,18.3599991 29.7916672,18.1500012 29.695,17.91 C29.5983329,17.6699988 29.521667,17.4133347 29.465,17.14 C29.4083331,16.8666653 29.3683335,16.5866681 29.345,16.3 C29.3216666,16.0133319 29.31,15.7333347 29.31,15.46 C29.31,15.0533313 29.3366664,14.6316689 29.39,14.195 C29.4433336,13.7583312 29.5449993,13.3633351 29.695,13.01 C29.8450008,12.6566649 30.0499987,12.3650012 30.31,12.135 C30.5700013,11.9049988 30.9066646,11.79 31.32,11.79 C31.7333354,11.79 32.0699987,11.9049988 32.33,12.135 C32.5900013,12.3650012 32.7949993,12.6566649 32.945,13.01 C33.0950008,13.3633351 33.1966664,13.7583312 33.25,14.195 C33.3033336,14.6316689 33.33,15.0533313 33.33,15.46 L33.33,15.46 L33.33,15.46 Z M32.41,15.46 C32.41,15.2133321 32.3983335,14.9250017 32.375,14.595 C32.3516666,14.2649983 32.3033337,13.9516681 32.23,13.655 C32.1566663,13.3583319 32.0483341,13.1066677 31.905,12.9 C31.761666,12.6933323 31.5666679,12.59 31.32,12.59 C31.0733321,12.59 30.8783341,12.6933323 30.735,12.9 C30.591666,13.1066677 30.4816671,13.3583319 30.405,13.655 C30.328333,13.9516681 30.2800001,14.2649983 30.26,14.595 C30.2399999,14.9250017 30.23,15.2133321 30.23,15.46 C30.23,15.6266675 30.235,15.8133323 30.245,16.02 C30.2550001,16.2266677 30.2716666,16.4366656 30.295,16.65 C30.3183335,16.8633344 30.3549998,17.069999 30.405,17.27 C30.4550003,17.470001 30.5199996,17.6483326 30.6,17.805 C30.6800004,17.9616674 30.7783328,18.0883329 30.895,18.185 C31.0116673,18.2816671 31.1533325,18.33 31.32,18.33 C31.4800008,18.33 31.6199994,18.2816671 31.74,18.185 C31.8600006,18.0883329 31.9599996,17.9616674 32.04,17.805 C32.1200004,17.6483326 32.1849998,17.470001 32.235,17.27 C32.2850003,17.069999 32.3216666,16.8633344 32.345,16.65 C32.3683335,16.4366656 32.385,16.2266677 32.395,16.02 C32.4050001,15.8133323 32.41,15.6266675 32.41,15.46 L32.41,15.46 L32.41,15.46 Z M39.2400001,15.46 C39.2400001,15.7333347 39.2283335,16.0133319 39.2050001,16.3 C39.1816666,16.5866681 39.141667,16.8666653 39.0850001,17.14 C39.0283331,17.4133347 38.9516672,17.6699988 38.8550001,17.91 C38.7583329,18.1500012 38.6350008,18.3599991 38.4850001,18.54 C38.3349993,18.7200009 38.1566678,18.8633328 37.9500001,18.97 C37.7433324,19.0766672 37.5033348,19.13 37.2300001,19.13 C36.9566654,19.13 36.7166678,19.0766672 36.5100001,18.97 C36.3033324,18.8633328 36.1250008,18.7200009 35.9750001,18.54 C35.8249993,18.3599991 35.7016672,18.1500012 35.6050001,17.91 C35.5083329,17.6699988 35.431667,17.4133347 35.3750001,17.14 C35.3183331,16.8666653 35.2783335,16.5866681 35.2550001,16.3 C35.2316666,16.0133319 35.2200001,15.7333347 35.2200001,15.46 C35.2200001,15.0533313 35.2466665,14.6316689 35.3000001,14.195 C35.3533337,13.7583312 35.4549993,13.3633351 35.6050001,13.01 C35.7550008,12.6566649 35.9599988,12.3650012 36.2200001,12.135 C36.4800014,11.9049988 36.8166647,11.79 37.2300001,11.79 C37.6433355,11.79 37.9799988,11.9049988 38.2400001,12.135 C38.5000014,12.3650012 38.7049993,12.6566649 38.8550001,13.01 C39.0050008,13.3633351 39.1066665,13.7583312 39.1600001,14.195 C39.2133337,14.6316689 39.2400001,15.0533313 39.2400001,15.46 L39.2400001,15.46 L39.2400001,15.46 Z M38.3200001,15.46 C38.3200001,15.2133321 38.3083335,14.9250017 38.2850001,14.595 C38.2616666,14.2649983 38.2133338,13.9516681 38.1400001,13.655 C38.0666664,13.3583319 37.9583341,13.1066677 37.8150001,12.9 C37.671666,12.6933323 37.476668,12.59 37.2300001,12.59 C36.9833322,12.59 36.7883341,12.6933323 36.6450001,12.9 C36.501666,13.1066677 36.3916671,13.3583319 36.3150001,13.655 C36.238333,13.9516681 36.1900002,14.2649983 36.1700001,14.595 C36.15,14.9250017 36.1400001,15.2133321 36.1400001,15.46 C36.1400001,15.6266675 36.145,15.8133323 36.1550001,16.02 C36.1650001,16.2266677 36.1816666,16.4366656 36.2050001,16.65 C36.2283335,16.8633344 36.2649998,17.069999 36.3150001,17.27 C36.3650003,17.470001 36.4299997,17.6483326 36.5100001,17.805 C36.5900005,17.9616674 36.6883328,18.0883329 36.8050001,18.185 C36.9216673,18.2816671 37.0633326,18.33 37.2300001,18.33 C37.3900009,18.33 37.5299995,18.2816671 37.6500001,18.185 C37.7700007,18.0883329 37.8699997,17.9616674 37.9500001,17.805 C38.0300005,17.6483326 38.0949998,17.470001 38.1450001,17.27 C38.1950003,17.069999 38.2316666,16.8633344 38.2550001,16.65 C38.2783335,16.4366656 38.295,16.2266677 38.3050001,16.02 C38.3150001,15.8133323 38.3200001,15.6266675 38.3200001,15.46 L38.3200001,15.46 L38.3200001,15.46 Z M43.6700001,13.63 C43.6700001,13.896668 43.6400004,14.1416655 43.5800001,14.365 C43.5199998,14.5883344 43.433334,14.7816658 43.3200001,14.945 C43.2066662,15.1083342 43.0683343,15.2349995 42.9050001,15.325 C42.741666,15.4150004 42.5566678,15.46 42.3500001,15.46 C42.1433324,15.46 41.9583343,15.4150004 41.7950001,15.325 C41.631666,15.2349995 41.493334,15.1083342 41.3800001,14.945 C41.2666662,14.7816658 41.1800004,14.5883344 41.1200001,14.365 C41.0599998,14.1416655 41.0300001,13.896668 41.0300001,13.63 C41.0300001,13.363332 41.0599998,13.1166678 41.1200001,12.89 C41.1800004,12.6633322 41.2666662,12.4683342 41.3800001,12.305 C41.493334,12.1416659 41.631666,12.0133338 41.7950001,11.92 C41.9583343,11.8266662 42.1433324,11.78 42.3500001,11.78 C42.5566678,11.78 42.741666,11.8266662 42.9050001,11.92 C43.0683343,12.0133338 43.2066662,12.1416659 43.3200001,12.305 C43.433334,12.4683342 43.5199998,12.6633322 43.5800001,12.89 C43.6400004,13.1166678 43.6700001,13.363332 43.6700001,13.63 L43.6700001,13.63 L43.6700001,13.63 Z M42.9600001,13.62 C42.9600001,13.2799983 42.908334,12.9950012 42.8050001,12.765 C42.7016663,12.5349988 42.5500011,12.42 42.3500001,12.42 C42.1499991,12.42 41.998334,12.5349988 41.8950001,12.765 C41.7916663,12.9950012 41.7400001,13.2799983 41.7400001,13.62 C41.7400001,13.9600017 41.7916663,14.2449989 41.8950001,14.475 C41.998334,14.7050011 42.1499991,14.82 42.3500001,14.82 C42.5500011,14.82 42.7016663,14.7050011 42.8050001,14.475 C42.908334,14.2449989 42.9600001,13.9600017 42.9600001,13.62 L42.9600001,13.62 L42.9600001,13.62 Z M47.0500001,17.27 C47.0500001,17.536668 47.0200004,17.7816656 46.9600001,18.005 C46.8999998,18.2283344 46.813334,18.4216659 46.7000001,18.585 C46.5866662,18.7483342 46.4483343,18.8749995 46.2850001,18.965 C46.121666,19.0550005 45.9366678,19.1 45.7300001,19.1 C45.5233324,19.1 45.3383343,19.0550005 45.1750001,18.965 C45.011666,18.8749995 44.873334,18.7483342 44.7600001,18.585 C44.6466662,18.4216659 44.5600004,18.2283344 44.5000001,18.005 C44.4399998,17.7816656 44.4100001,17.536668 44.4100001,17.27 C44.4100001,17.003332 44.4399998,16.7566678 44.5000001,16.53 C44.5600004,16.3033322 44.6466662,16.1083342 44.7600001,15.945 C44.873334,15.7816659 45.011666,15.6533338 45.1750001,15.56 C45.3383343,15.4666662 45.5233324,15.42 45.7300001,15.42 C45.9366678,15.42 46.121666,15.4666662 46.2850001,15.56 C46.4483343,15.6533338 46.5866662,15.7816659 46.7000001,15.945 C46.813334,16.1083342 46.8999998,16.3033322 46.9600001,16.53 C47.0200004,16.7566678 47.0500001,17.003332 47.0500001,17.27 L47.0500001,17.27 L47.0500001,17.27 Z M46.3400001,17.26 C46.3400001,16.9199983 46.288334,16.6350011 46.1850001,16.405 C46.0816663,16.1749989 45.9300011,16.06 45.7300001,16.06 C45.5299991,16.06 45.378334,16.1749989 45.2750001,16.405 C45.1716663,16.6350011 45.1200001,16.9199983 45.1200001,17.26 C45.1200001,17.6000017 45.1716663,17.8849988 45.2750001,18.115 C45.378334,18.3450011 45.5299991,18.46 45.7300001,18.46 C45.9300011,18.46 46.0816663,18.3450011 46.1850001,18.115 C46.288334,17.8849988 46.3400001,17.6000017 46.3400001,17.26 L46.3400001,17.26 L46.3400001,17.26 Z M42.9000001,19.23 L42.3600001,19.05 L45.1900001,11.63 L45.7300001,11.81 L42.9000001,19.23 L42.9000001,19.23 Z M55.3900002,17.12 C55.3900002,17.4400016 55.3400007,17.7283321 55.2400002,17.985 C55.1399997,18.241668 55.005001,18.4566658 54.8350002,18.63 C54.6649993,18.8033342 54.4633347,18.9366662 54.2300002,19.03 C53.9966657,19.1233338 53.7466682,19.17 53.4800002,19.17 C53.1199984,19.17 52.7783351,19.0950007 52.4550002,18.945 C52.1316652,18.7949992 51.8733345,18.5966679 51.6800002,18.35 L52.2100002,17.7 C52.3633343,17.900001 52.554999,18.0566661 52.7850002,18.17 C53.0150013,18.2833339 53.2466657,18.34 53.4800002,18.34 C53.7800017,18.34 54.0266659,18.240001 54.2200002,18.04 C54.4133345,17.839999 54.5100002,17.5500019 54.5100002,17.17 C54.5100002,16.9899991 54.4800005,16.8316673 54.4200002,16.695 C54.3599999,16.5583327 54.2766674,16.4350005 54.1700002,16.325 C54.063333,16.2149994 53.9416675,16.1150005 53.8050002,16.025 C53.6683328,15.9349995 53.520001,15.8500004 53.3600002,15.77 C53.1666659,15.6766662 52.985001,15.5716673 52.8150002,15.455 C52.6449993,15.3383328 52.4933342,15.2033341 52.3600002,15.05 C52.2266662,14.8966659 52.1216672,14.7150011 52.0450002,14.505 C51.9683331,14.294999 51.9300002,14.0466681 51.9300002,13.76 C51.9300002,13.4199983 51.983333,13.1233346 52.0900002,12.87 C52.1966674,12.6166654 52.3383326,12.4066675 52.5150002,12.24 C52.6916677,12.0733325 52.8933324,11.9500004 53.1200002,11.87 C53.346668,11.7899996 53.5766657,11.75 53.8100002,11.75 C54.1500019,11.75 54.4549988,11.8066661 54.7250002,11.92 C54.9950015,12.0333339 55.2199993,12.2033322 55.4000002,12.43 L54.8600002,13.07 C54.6066656,12.736665 54.266669,12.57 53.8400002,12.57 C53.7133329,12.57 53.5883341,12.5916664 53.4650002,12.635 C53.3416662,12.6783335 53.2300007,12.7483328 53.1300002,12.845 C53.0299997,12.9416672 52.9500005,13.0633326 52.8900002,13.21 C52.8299999,13.3566674 52.8000002,13.5333323 52.8000002,13.74 C52.8000002,13.9200009 52.8283332,14.0749993 52.8850002,14.205 C52.9416671,14.3350007 53.018333,14.4516661 53.1150002,14.555 C53.2116673,14.6583338 53.3233329,14.7516662 53.4500002,14.835 C53.5766675,14.9183337 53.7133328,14.9966663 53.8600002,15.07 C54.0466678,15.1633338 54.2299993,15.2683328 54.4100002,15.385 C54.5900011,15.5016673 54.7533328,15.6399992 54.9000002,15.8 C55.0466676,15.9600008 55.1649997,16.1483323 55.2550002,16.365 C55.3450006,16.5816678 55.3900002,16.8333319 55.3900002,17.12 L55.3900002,17.12 L55.3900002,17.12 Z M60.7500002,19 L60.3500002,17.34 L58.3000002,17.34 L57.8900002,19 L56.9800002,19 L58.7600002,11.92 L59.9500002,11.92 L61.6900002,19 L60.7500002,19 L60.7500002,19 Z M59.3600002,12.76 L59.3200002,12.76 L58.4200002,16.63 L60.2300002,16.63 L59.3600002,12.76 L59.3600002,12.76 Z M64.9200002,12.69 L64.9200002,19 L64.0300002,19 L64.0300002,12.69 L62.6800002,12.69 L62.6800002,11.92 L66.2700002,11.92 L66.2700002,12.69 L64.9200002,12.69 L64.9200002,12.69 Z M68.1400003,19 L68.1400003,11.92 L69.0400003,11.92 L69.0400003,19 L68.1400003,19 L68.1400003,19 Z M74.8900003,17.12 C74.8900003,17.4400016 74.8400008,17.7283321 74.7400003,17.985 C74.6399998,18.241668 74.5050012,18.4566658 74.3350003,18.63 C74.1649995,18.8033342 73.9633348,18.9366662 73.7300003,19.03 C73.4966658,19.1233338 73.2466683,19.17 72.9800003,19.17 C72.6199985,19.17 72.2783353,19.0950007 71.9550003,18.945 C71.6316654,18.7949992 71.3733346,18.5966679 71.1800003,18.35 L71.7100003,17.7 C71.8633344,17.900001 72.0549992,18.0566661 72.2850003,18.17 C72.5150015,18.2833339 72.7466658,18.34 72.9800003,18.34 C73.2800018,18.34 73.526666,18.240001 73.7200003,18.04 C73.9133346,17.839999 74.0100003,17.5500019 74.0100003,17.17 C74.0100003,16.9899991 73.9800006,16.8316673 73.9200003,16.695 C73.86,16.5583327 73.7766675,16.4350005 73.6700003,16.325 C73.5633331,16.2149994 73.4416677,16.1150005 73.3050003,16.025 C73.168333,15.9349995 73.0200011,15.8500004 72.8600003,15.77 C72.666666,15.6766662 72.4850012,15.5716673 72.3150003,15.455 C72.1449995,15.3383328 71.9933343,15.2033341 71.8600003,15.05 C71.7266663,14.8966659 71.6216674,14.7150011 71.5450003,14.505 C71.4683333,14.294999 71.4300003,14.0466681 71.4300003,13.76 C71.4300003,13.4199983 71.4833331,13.1233346 71.5900003,12.87 C71.6966675,12.6166654 71.8383328,12.4066675 72.0150003,12.24 C72.1916679,12.0733325 72.3933325,11.9500004 72.6200003,11.87 C72.8466681,11.7899996 73.0766658,11.75 73.3100003,11.75 C73.650002,11.75 73.954999,11.8066661 74.2250003,11.92 C74.4950017,12.0333339 74.7199994,12.2033322 74.9000003,12.43 L74.3600003,13.07 C74.1066657,12.736665 73.7666691,12.57 73.3400003,12.57 C73.213333,12.57 73.0883343,12.5916664 72.9650003,12.635 C72.8416664,12.6783335 72.7300008,12.7483328 72.6300003,12.845 C72.5299998,12.9416672 72.4500006,13.0633326 72.3900003,13.21 C72.33,13.3566674 72.3000003,13.5333323 72.3000003,13.74 C72.3000003,13.9200009 72.3283334,14.0749993 72.3850003,14.205 C72.4416673,14.3350007 72.5183332,14.4516661 72.6150003,14.555 C72.7116675,14.6583338 72.823333,14.7516662 72.9500003,14.835 C73.0766676,14.9183337 73.2133329,14.9966663 73.3600003,15.07 C73.5466679,15.1633338 73.7299994,15.2683328 73.9100003,15.385 C74.0900012,15.5016673 74.2533329,15.6399992 74.4000003,15.8 C74.5466677,15.9600008 74.6649999,16.1483323 74.7550003,16.365 C74.8450008,16.5816678 74.8900003,16.8333319 74.8900003,17.12 L74.8900003,17.12 L74.8900003,17.12 Z M78.0700003,12.74 L78.0700003,15.02 L80.0000003,15.02 L80.0000003,15.8 L78.0700003,15.8 L78.0700003,19 L77.1800003,19 L77.1800003,11.92 L80.1500003,11.92 L80.1500003,12.74 L78.0700003,12.74 L78.0700003,12.74 Z M85.0300004,19 L84.6300004,17.34 L82.5800004,17.34 L82.1700004,19 L81.2600004,19 L83.0400004,11.92 L84.2300004,11.92 L85.9700004,19 L85.0300004,19 L85.0300004,19 Z M83.6400004,12.76 L83.6000004,12.76 L82.7000004,16.63 L84.5100004,16.63 L83.6400004,12.76 L83.6400004,12.76 Z M91.7700004,18.24 C91.5899995,18.5200014 91.3600018,18.7449992 91.0800004,18.915 C90.799999,19.0850009 90.4600024,19.17 90.0600004,19.17 C89.6666651,19.17 89.3133353,19.0766676 89.0000004,18.89 C88.6866655,18.7033324 88.4233348,18.443335 88.2100004,18.11 C87.996666,17.776665 87.8333343,17.3850023 87.7200004,16.935 C87.6066665,16.4849977 87.5500004,15.993336 87.5500004,15.46 C87.5500004,14.926664 87.6083332,14.4333356 87.7250004,13.98 C87.8416677,13.5266644 88.0083327,13.1350016 88.2250004,12.805 C88.4416682,12.4749983 88.7049989,12.2166676 89.0150004,12.03 C89.325002,11.8433324 89.6733318,11.75 90.0600004,11.75 C90.4200022,11.75 90.7499989,11.8199993 91.0500004,11.96 C91.3500019,12.1000007 91.5966661,12.3133319 91.7900004,12.6 L91.2300004,13.21 C91.083333,12.9966656 90.9133347,12.8383338 90.7200004,12.735 C90.5266661,12.6316662 90.3200015,12.58 90.1000004,12.58 C89.8266657,12.58 89.5900014,12.6566659 89.3900004,12.81 C89.1899994,12.9633341 89.0250011,13.1699987 88.8950004,13.43 C88.7649998,13.6900013 88.6666674,13.9949983 88.6000004,14.345 C88.5333334,14.6950017 88.5000004,15.0666647 88.5000004,15.46 C88.5000004,15.8533353 88.5333334,16.2233316 88.6000004,16.57 C88.6666674,16.9166684 88.7666664,17.2216654 88.9000004,17.485 C89.0333344,17.7483347 89.2016661,17.9566659 89.4050004,18.11 C89.6083348,18.2633341 89.8466657,18.34 90.1200004,18.34 C90.3666683,18.34 90.5849995,18.273334 90.7750004,18.14 C90.9650014,18.006666 91.1166665,17.8433343 91.2300004,17.65 L91.7700004,18.24 L91.7700004,18.24 Z M95.2100004,12.69 L95.2100004,19 L94.3200004,19 L94.3200004,12.69 L92.9700004,12.69 L92.9700004,11.92 L96.5600004,11.92 L96.5600004,12.69 L95.2100004,12.69 L95.2100004,12.69 Z M98.4300005,19 L98.4300005,11.92 L99.3300005,11.92 L99.3300005,19 L98.4300005,19 L98.4300005,19 Z M106.520001,15.45 C106.520001,16.0033361 106.465001,16.508331 106.355001,16.965 C106.245,17.421669 106.085002,17.8133317 105.875001,18.14 C105.664999,18.4666683 105.411669,18.7199991 105.115001,18.9 C104.818332,19.0800009 104.480002,19.17 104.100001,19.17 C103.719999,19.17 103.380002,19.0800009 103.080001,18.9 C102.779999,18.7199991 102.525002,18.4666683 102.315001,18.14 C102.104999,17.8133317 101.945001,17.421669 101.835001,16.965 C101.725,16.508331 101.670001,16.0033361 101.670001,15.45 C101.670001,14.8966639 101.723333,14.3916689 101.830001,13.935 C101.936668,13.4783311 102.093333,13.0883349 102.300001,12.765 C102.506668,12.4416651 102.761666,12.1916676 103.065001,12.015 C103.368335,11.8383324 103.713332,11.75 104.100001,11.75 C104.480002,11.75 104.818332,11.8383324 105.115001,12.015 C105.411669,12.1916676 105.664999,12.4416651 105.875001,12.765 C106.085002,13.0883349 106.245,13.4783311 106.355001,13.935 C106.465001,14.3916689 106.520001,14.8966639 106.520001,15.45 L106.520001,15.45 L106.520001,15.45 Z M105.570001,15.45 C105.570001,15.049998 105.538334,14.6733351 105.475001,14.32 C105.411667,13.9666649 105.318334,13.6600013 105.195001,13.4 C105.071667,13.1399987 104.918335,12.9350008 104.735001,12.785 C104.551666,12.6349992 104.340002,12.56 104.100001,12.56 C103.853333,12.56 103.636668,12.6349992 103.450001,12.785 C103.263333,12.9350008 103.108334,13.1399987 102.985001,13.4 C102.861667,13.6600013 102.770001,13.9666649 102.710001,14.32 C102.65,14.6733351 102.620001,15.049998 102.620001,15.45 C102.620001,15.850002 102.65,16.2266649 102.710001,16.58 C102.770001,16.9333351 102.861667,17.2399987 102.985001,17.5 C103.108334,17.7600013 103.263333,17.9649993 103.450001,18.115 C103.636668,18.2650008 103.853333,18.34 104.100001,18.34 C104.340002,18.34 104.551666,18.2650008 104.735001,18.115 C104.918335,17.9649993 105.071667,17.7600013 105.195001,17.5 C105.318334,17.2399987 105.411667,16.9333351 105.475001,16.58 C105.538334,16.2266649 105.570001,15.850002 105.570001,15.45 L105.570001,15.45 L105.570001,15.45 Z M111.980001,19 L109.720001,13.51 L109.690001,13.51 L109.690001,19 L108.860001,19 L108.860001,11.92 L109.940001,11.92 L112.170001,17.42 L112.200001,17.42 L112.200001,11.92 L113.030001,11.92 L113.030001,19 L111.980001,19 L111.980001,19 Z M120.860001,11.75 C121.240003,11.75 121.576666,11.8199993 121.870001,11.96 C122.163335,12.1000007 122.406666,12.3133319 122.600001,12.6 L122.040001,13.21 C121.893333,12.9966656 121.723335,12.8366672 121.530001,12.73 C121.336666,12.6233328 121.126668,12.57 120.900001,12.57 C120.626666,12.57 120.391668,12.6466659 120.195001,12.8 C119.998333,12.9533341 119.833335,13.1616653 119.700001,13.425 C119.566667,13.6883347 119.468334,13.9949983 119.405001,14.345 C119.341667,14.6950017 119.310001,15.0633314 119.310001,15.45 C119.310001,15.8566687 119.345,16.2349982 119.415001,16.585 C119.485001,16.9350018 119.588333,17.238332 119.725001,17.495 C119.861668,17.751668 120.033333,17.9533326 120.240001,18.1 C120.446668,18.2466674 120.689999,18.32 120.970001,18.32 C121.343336,18.32 121.626666,18.2400008 121.820001,18.08 L121.820001,15.89 L120.890001,15.89 L120.890001,15.11 L122.690001,15.11 L122.690001,18.56 C122.483333,18.7333342 122.241669,18.8716662 121.965001,18.975 C121.688333,19.0783338 121.350003,19.13 120.950001,19.13 C120.543332,19.13 120.180002,19.0416675 119.860001,18.865 C119.539999,18.6883325 119.268335,18.4400016 119.045001,18.12 C118.821666,17.7999984 118.651668,17.4133356 118.535001,16.96 C118.418333,16.5066644 118.360001,16.0033361 118.360001,15.45 C118.360001,14.916664 118.416667,14.4250023 118.530001,13.975 C118.643335,13.5249978 118.806666,13.1350016 119.020001,12.805 C119.233335,12.4749983 119.494999,12.2166676 119.805001,12.03 C120.115002,11.8433324 120.466665,11.75 120.860001,11.75 L120.860001,11.75 L120.860001,11.75 Z M129.280001,16.57 C129.280001,16.9300018 129.243334,17.2666651 129.170001,17.58 C129.096667,17.8933349 128.976668,18.1683322 128.810001,18.405 C128.643333,18.6416678 128.425002,18.8283326 128.155001,18.965 C127.884999,19.1016674 127.553336,19.17 127.160001,19.17 C126.766665,19.17 126.438335,19.1016674 126.175001,18.965 C125.911666,18.8283326 125.696668,18.6416678 125.530001,18.405 C125.363333,18.1683322 125.245001,17.8933349 125.175001,17.58 C125.105,17.2666651 125.070001,16.9300018 125.070001,16.57 L125.070001,11.92 L125.970001,11.92 L125.970001,16.48 C125.970001,16.7200012 125.988334,16.9516655 126.025001,17.175 C126.061667,17.3983344 126.125,17.5966658 126.215001,17.77 C126.305001,17.9433342 126.428333,18.0816661 126.585001,18.185 C126.741668,18.2883339 126.939999,18.34 127.180001,18.34 C127.420002,18.34 127.616667,18.2883339 127.770001,18.185 C127.923335,18.0816661 128.045,17.9433342 128.135001,17.77 C128.225001,17.5966658 128.288334,17.3983344 128.325001,17.175 C128.361667,16.9516655 128.380001,16.7200012 128.380001,16.48 L128.380001,11.92 L129.280001,11.92 L129.280001,16.57 L129.280001,16.57 Z M134.780001,19 L134.380001,17.34 L132.330001,17.34 L131.920001,19 L131.010001,19 L132.790001,11.92 L133.980001,11.92 L135.720001,19 L134.780001,19 L134.780001,19 Z M133.390001,12.76 L133.350001,12.76 L132.450001,16.63 L134.260001,16.63 L133.390001,12.76 L133.390001,12.76 Z M140.570001,19 L139.370001,15.84 L138.550001,15.84 L138.550001,19 L137.670001,19 L137.670001,11.92 L139.500001,11.92 C139.760002,11.92 140.005,11.9549996 140.235001,12.025 C140.465002,12.0950003 140.666667,12.2066659 140.840001,12.36 C141.013335,12.5133341 141.15,12.7133321 141.250001,12.96 C141.350001,13.2066679 141.400001,13.5033316 141.400001,13.85 C141.400001,14.1366681 141.363334,14.3866656 141.290001,14.6 C141.216667,14.8133344 141.121668,14.9949993 141.005001,15.145 C140.888333,15.2950007 140.760001,15.4133329 140.620001,15.5 C140.48,15.5866671 140.343335,15.6433332 140.210001,15.67 L141.530001,19 L140.570001,19 L140.570001,19 Z M140.510001,13.89 C140.510001,13.6499988 140.476668,13.4533341 140.410001,13.3 C140.343334,13.1466659 140.256668,13.0233338 140.150001,12.93 C140.043334,12.8366662 139.920001,12.7716669 139.780001,12.735 C139.64,12.6983331 139.500001,12.68 139.360001,12.68 L138.550001,12.68 L138.550001,15.14 L139.380001,15.14 C139.720002,15.14 139.993333,15.0316677 140.200001,14.815 C140.406668,14.5983322 140.510001,14.290002 140.510001,13.89 L140.510001,13.89 L140.510001,13.89 Z M146.750001,19 L146.350001,17.34 L144.300001,17.34 L143.890001,19 L142.980001,19 L144.760001,11.92 L145.950001,11.92 L147.690001,19 L146.750001,19 L146.750001,19 Z M145.360001,12.76 L145.320001,12.76 L144.420001,16.63 L146.230001,16.63 L145.360001,12.76 L145.360001,12.76 Z M152.760001,19 L150.500001,13.51 L150.470001,13.51 L150.470001,19 L149.640001,19 L149.640001,11.92 L150.720001,11.92 L152.950001,17.42 L152.980001,17.42 L152.980001,11.92 L153.810001,11.92 L153.810001,19 L152.760001,19 L152.760001,19 Z M157.920001,12.69 L157.920001,19 L157.030001,19 L157.030001,12.69 L155.680001,12.69 L155.680001,11.92 L159.270001,11.92 L159.270001,12.69 L157.920001,12.69 L157.920001,12.69 Z M161.140001,19 L161.140001,11.92 L164.120001,11.92 L164.120001,12.72 L162.010001,12.72 L162.010001,14.95 L163.980001,14.95 L163.980001,15.7 L162.010001,15.7 L162.010001,18.19 L164.220001,18.19 L164.220001,19 L161.140001,19 L161.140001,19 Z M166.490001,19 L166.490001,11.92 L169.470001,11.92 L169.470001,12.72 L167.360001,12.72 L167.360001,14.95 L169.330001,14.95 L169.330001,15.7 L167.360001,15.7 L167.360001,18.19 L169.570001,18.19 L169.570001,19 L166.490001,19 L166.490001,19 Z M176.120001,15.47 C176.120001,16.6166724 175.88667,17.4916637 175.420001,18.095 C174.953332,18.6983363 174.300005,19 173.460001,19 L171.840001,19 L171.840001,11.92 L173.470001,11.92 C174.310005,11.92 174.961665,12.2233303 175.425001,12.83 C175.888337,13.4366697 176.120001,14.3166609 176.120001,15.47 L176.120001,15.47 L176.120001,15.47 Z M175.220001,15.47 C175.220001,15.003331 175.175001,14.5966684 175.085001,14.25 C174.995,13.9033316 174.871668,13.6166678 174.715001,13.39 C174.558333,13.1633322 174.371669,12.9933339 174.155001,12.88 C173.938333,12.7666661 173.706669,12.71 173.460001,12.71 L172.730001,12.71 L172.730001,18.21 L173.460001,18.21 C173.706669,18.21 173.938333,18.1533339 174.155001,18.04 C174.371669,17.9266661 174.558333,17.7566678 174.715001,17.53 C174.871668,17.3033322 174.995,17.0183351 175.085001,16.675 C175.175001,16.331665 175.220001,15.9300023 175.220001,15.47 L175.220001,15.47 L175.220001,15.47 Z" id="100%-SATISFACTION-GUARANTEED" fill="#B8B7B8"></path>
        </g>
    </g>
</svg>