<svg viewBox="0 0 309 190" version="1.1" xmlns="http://www.w3.org/2000/svg" xmlns:xlink="http://www.w3.org/1999/xlink" xmlns:sketch="http://www.bohemiancoding.com/sketch/ns">
    <!-- Generator: Sketch 3.4 (15575) - http://www.bohemiancoding.com/sketch -->
    <title>Page 1</title>
    <desc>Created with Sketch.</desc>
    <defs></defs>
    <g id="Page-1" stroke="none" stroke-width="1" fill="none" fill-rule="evenodd" sketch:type="MSPage">
        <g id="PDP" sketch:type="MSArtboardGroup" transform="translate(-469.000000, -1995.000000)" fill="#554740">
            <g id="Sign-2" sketch:type="MSLayerGroup" transform="translate(469.000000, 1985.000000)">
                <g id="Page-1" transform="translate(0.000000, 10.000000)" sketch:type="MSShapeGroup">
                    <path d="M40.1390104,72.2865755 L39.0749757,72.2865755 C37.9625757,72.2865755 35.7727061,72.6782264 35.7727061,72.6782264 L32.4695409,72.9470943 L26.7794626,73.2643585 C26.4292626,73.2401604 26.0799583,73.2061038 25.7297583,73.2061038 C25.3320887,73.2061038 24.9344191,73.2016226 24.5385409,73.2401604 C23.7440974,73.2867642 22.9586104,73.4238868 22.1892452,73.6120943 C21.4180887,73.7976132 20.6675322,74.0593113 19.9411583,74.3783679 C19.5775235,74.537 19.2210539,74.7153491 18.8690626,74.9062453 C18.6935148,75.0075189 18.5188626,75.1034151 18.3442104,75.2145472 C18.1632887,75.3274717 18.0128191,75.4251604 17.7906974,75.5891698 L17.7208365,75.6402547 L17.6438104,75.7200189 L9.07779304,84.5819057 L8.60220174,85.1904434 C7.11631478,84.2960094 4.20096696,82.0706792 6.78940174,76.0095 C10.7607235,72.7777075 16.4588626,68.2929906 18.7929322,65.8633208 C20.2850887,64.8183208 22.5573583,64.3666226 25.1368365,64.332566 C28.1068191,64.2931321 32.1274017,64.3504906 34.9209409,64.1094057 C35.4054887,64.1210566 39.9150974,63.1862925 42.2097583,64.332566 L43.6069757,64.9231792 C43.7305757,65.0154906 45.0364365,66.0219528 47.6750278,67.4388868 C47.7520539,68.0259151 47.7556365,69.0422358 47.10808,69.8909623 C46.0834539,71.2326132 43.629367,72.4452075 40.1390104,72.2865755 M56.3637496,77.8091226 C56.2025322,77.5483208 56.0036974,77.3099245 55.783367,77.0930377 C55.67768,76.9810094 55.5504974,76.8833208 55.43048,76.7829434 C55.2853843,76.6780849 55.2020887,76.6081792 54.9522017,76.4746415 L54.7318713,76.3563396 L54.3512191,76.3321415 C54.2500104,76.3258679 54.0932713,76.3097358 53.9096626,76.2738868 C53.723367,76.2335566 53.5290104,76.1878491 53.3239061,76.1286981 C53.2307583,76.1009151 45.3114017,73.9786509 45.2164626,73.9490755 C46.9961235,73.4902075 48.3548278,72.6889811 49.2442104,71.5229906 C51.0758191,69.1211038 50.174793,66.2460094 50.1353843,66.1250189 L49.8604191,65.6392642 L49.4618539,65.3381321 C47.1340539,64.1658679 44.1345148,62.6315283 43.5818974,62.2291226 C42.496367,61.5390283 41.6240017,61.3938396 38.6459583,61.4574717 C35.8040539,61.5175189 33.2272626,61.9037925 30.1372626,61.8679434 C26.9576974,61.8303019 22.1140104,61.5461981 19.7772539,62.4424245 C19.3742104,58.7580377 19.3751061,52.488934 21.5506452,49.8943585 C22.3898713,48.8914811 23.52108,48.4254434 24.9783061,48.431717 C25.1090713,48.4532264 26.7391583,49.0626604 27.47628,49.4704434 L27.6661583,46.6141698 C26.3164104,45.8694057 25.3589583,45.7618585 25.10728,45.7448302 C22.7499235,45.7260094 20.8824887,46.5066226 19.4924365,48.1655377 C16.0513409,52.2693585 16.9129583,60.563934 17.3804887,63.6442642 C15.7011409,65.5926604 12.585167,67.8323302 5.35904522,73.7070943 L4.30934087,75.1518113 C1.55610609,81.7193585 4.51534087,85.5713396 6.72222783,87.1343585 L2.65328,91.2283208 L2.58700174,91.2973302 L2.45175826,91.4541698 L2.32994957,91.6029434 L2.08543652,91.9013868 C1.91257565,92.1308208 1.72269739,92.3871415 1.55700174,92.6318113 C1.24173217,93.1229434 0.93541913,93.6284151 0.701653913,94.1867642 C0.20994087,95.2819528 -0.050693913,96.5402547 0.00841913043,97.7904906 C0.0702191304,99.0434151 0.454453913,100.250632 1.02946261,101.301906 C1.31965391,101.827991 1.65373217,102.320915 2.02901043,102.782472 C2.21620174,103.013698 2.41503652,103.235066 2.63268,103.453745 C2.85121913,103.682283 3.14141043,103.905443 3.21843652,103.998651 C3.71014957,104.480821 4.08274087,105.206764 4.25649739,106.006198 C4.43473217,106.810113 4.44548,107.724264 4.31829739,108.575679 C4.30396696,108.669783 4.28157565,108.804217 4.27172348,108.82483 C4.22962783,108.993321 4.19828,109.143887 4.17141043,109.296245 C4.11677565,109.600066 4.08005391,109.900302 4.05855826,110.20233 C4.01556696,110.806387 4.0316887,111.419406 4.12483652,112.034217 C4.29769739,113.260255 4.82434087,114.512283 5.67700174,115.490962 C6.24932348,116.157755 6.94255826,116.664123 7.66982783,117.06384 C7.63848,117.321057 7.61519304,117.578274 7.62056696,117.831009 C7.61250609,118.48167 7.7226713,119.109028 7.87851478,119.712189 C7.97524522,120.004358 8.05943652,120.306387 8.17497565,120.586906 L8.55204522,121.41233 L9.00255826,122.178604 C9.15302783,122.434925 9.33932348,122.653604 9.50770609,122.891104 C9.83730609,123.377755 10.2466191,123.763132 10.6210017,124.195113 C10.8180452,124.396764 11.0267322,124.579594 11.2300452,124.772283 C11.4378365,124.957802 11.63488,125.161245 11.8507322,125.331528 L12.4991843,125.842377 C12.6890626,125.983981 12.8717757,126.140821 13.0634452,126.279736 C15.9420713,143.965868 29.3141583,146.964642 29.8846887,147.08384 L30.6173322,143.574217 C30.501793,143.550019 19.0723757,140.984123 16.5923148,125.666717 L16.5958974,125.371858 L15.942967,124.946151 L14.7230887,124.150302 C14.3236278,123.877849 13.9635757,123.56417 13.5811322,123.274689 C13.3921496,123.126811 13.2327235,122.957425 13.0571757,122.799689 C12.8870017,122.638368 12.70608,122.484217 12.543967,122.317519 C12.250193,121.967991 11.8990974,121.648038 11.6545843,121.275208 C11.5282974,121.092377 11.3742452,120.920302 11.266767,120.730302 L10.9335843,120.166575 L10.669367,119.587613 C10.5887583,119.394028 10.540393,119.195962 10.4696365,119.001481 C10.3720104,118.608934 10.298567,118.214594 10.3075235,117.834594 C10.3012539,117.642802 10.3236452,117.458179 10.3469322,117.280726 C10.3666365,117.198274 10.3738017,117.101481 10.39888,117.030679 C10.4114191,116.967047 10.457993,116.846057 10.4382887,116.886387 L9.70564522,115.066151 C8.90582783,114.747094 8.20363652,114.311528 7.70923652,113.732566 C7.21304522,113.156292 6.89956696,112.442896 6.78223652,111.637189 C6.72133217,111.236575 6.70879304,110.815349 6.73834957,110.395019 C6.75357565,110.185302 6.77954957,109.974689 6.81537565,109.773038 L6.8744887,109.490726 C6.93360174,109.263981 6.94703652,109.143887 6.97390609,108.984358 C7.1458713,107.804925 7.13960174,106.630868 6.87986261,105.424547 C6.6102713,104.2245 6.06034087,103.019972 5.07781043,102.058321 C4.79836696,101.781387 4.67118435,101.700726 4.53504522,101.555538 C4.39084522,101.409453 4.24574957,101.249028 4.10961043,101.081434 C3.83733217,100.745349 3.59281913,100.385066 3.38681913,100.01134 C2.97840174,99.2611981 2.73299304,98.4599717 2.69179304,97.6560566 C2.65865391,96.8530377 2.81360174,96.0437453 3.16290609,95.2658208 C3.32322783,94.8732736 3.55520174,94.4968585 3.79165391,94.1240283 L4.16334957,93.6051132 L4.40786261,93.307566 L4.5296713,93.1587925 L4.5502713,93.1336981 L4.58520174,93.0978491 L6.72670609,90.8823774 L11.0097148,86.451434 L19.4888539,77.6782736 C19.5649843,77.6253962 19.6679843,77.5554906 19.7665061,77.4963396 L20.1677583,77.2597358 C20.4463061,77.110066 20.7302278,76.9666698 21.0240017,76.8394057 C21.6088626,76.5821887 22.2170104,76.369783 22.838593,76.2201132 C23.45928,76.0695472 24.0916104,75.9575189 24.7284191,75.9216698 C25.04548,75.8894057 25.3643322,75.8965755 25.6831843,75.894783 C26.0020365,75.8920943 26.319993,75.9333208 26.6379496,75.9476604 L26.8117061,75.9557264 L26.8645496,75.9530377 L42.7919322,74.9411981 C42.9782278,74.972566 43.1904974,75.012 43.3902278,75.0559151 C43.6392191,75.1096887 43.8882104,75.1697358 44.1354104,75.2333679 C44.6307061,75.3633208 45.1179409,75.5138868 45.5944278,75.6841698 C46.5465061,76.0247358 47.4466365,76.4585094 48.2195843,76.9899717 L48.3252713,77.062566 L48.4220017,77.1064811 C49.330193,77.5232264 50.2124104,77.8924717 51.148367,78.2384151 C51.6132104,78.4113868 52.0914887,78.5709151 52.5939496,78.7161038 C52.8438365,78.7878019 53.1089496,78.8532264 53.3848104,78.9105849 C53.5361757,78.9401604 53.6982887,78.9652547 53.8711496,78.9858679 C53.882793,78.9957264 53.8944365,79.0037925 53.9051843,79.0154434 C53.9795235,79.088934 54.0511757,79.1713868 54.1049148,79.2654906 C54.2195583,79.4483208 54.3082278,79.6535566 54.335993,79.9045 C54.4192887,80.3929434 54.3136017,81.0265755 54.0646104,81.6673774 C53.9553409,82.0007736 53.8039757,82.2615755 53.6481322,82.5967642 L53.3355496,83.1353962 C53.2764365,83.2321887 53.2585235,83.2671415 53.2549409,83.2796887 C53.2477757,83.2841698 53.2343409,83.296717 53.2012017,83.3316698 C53.0346104,83.4938868 52.7587496,83.6695472 52.481993,83.8254906 C52.1891148,83.9751604 51.869367,84.104217 51.5388713,84.2225189 C50.8608626,84.4385094 50.1309061,84.5854906 49.3785583,84.6724245 C48.6244191,84.7584623 47.84968,84.7808679 47.069567,84.7736981 C46.678167,84.7665283 46.28408,84.7360566 45.8908887,84.7190283 C45.4994887,84.710066 45.1018191,84.6446415 44.7077322,84.6096887 C43.917767,84.5460566 43.1260104,84.3847358 42.3342539,84.2727075 L42.1309409,84.2440283 L41.9831583,84.2565755 L30.0700887,85.2711038 C29.0723322,85.1994057 28.0602452,85.2298774 27.0857757,85.4297358 C26.0584626,85.6206321 25.0884713,86.012283 24.2017757,86.4980377 C23.3097061,86.9811038 22.49108,87.5573774 21.7324626,88.1901132 C21.3536017,88.5064811 20.9908626,88.8398774 20.6433496,89.1876132 C20.469593,89.3623774 20.2994191,89.5407264 20.1337235,89.7244528 C19.9626539,89.9144528 19.8139757,90.0847358 19.630367,90.315066 L19.5900626,90.3670472 L19.5846887,90.374217 C19.2371757,90.8841698 18.8717496,91.3950189 18.450793,91.8834623 C18.2564365,92.1361981 18.0244626,92.3674245 17.8095061,92.6094057 C17.5927583,92.8504906 17.3733235,93.0915755 17.1386626,93.3219057 C16.231367,94.2665283 15.2452539,95.1555849 14.2376452,96.0222358 C12.2098887,97.7438868 10.0916713,99.3920472 7.88657565,100.923698 C10.2761757,99.6994528 12.6326365,98.3837925 14.8816191,96.8772358 C16.0083496,96.1253019 17.1216452,95.3446887 18.188367,94.4762453 C18.4588539,94.2656321 18.7230713,94.0442642 18.9801235,93.8112453 C19.2371757,93.5782264 19.506767,93.3622358 19.75128,93.1086038 C20.2609061,92.6309151 20.74008,92.1003491 21.2085061,91.5473774 L21.1628278,91.6065283 C21.2792626,91.4900189 21.4485409,91.3295943 21.6016974,91.1942642 C21.7593322,91.0535566 21.9223409,90.9155377 22.0889322,90.782 C22.4203235,90.5149245 22.7651496,90.2612925 23.1180365,90.0255849 C23.8256017,89.555066 24.5663061,89.1481792 25.3294017,88.8380849 C26.8573843,88.2420943 28.405967,87.8280377 29.9760452,87.9570943 L30.1005409,87.9669528 L30.2116017,87.9570943 L42.0503322,86.9488396 C42.8367148,87.0680377 43.6150365,87.2159151 44.4166452,87.2822358 C44.7964017,87.3162925 45.17168,87.3682736 45.5541235,87.389783 C46.4345496,87.7626132 47.3293061,88.102283 48.2213757,88.4294057 L49.6284452,88.9321887 C49.8640017,89.0137453 50.0986626,89.0979906 50.3431757,89.1356321 L51.0731322,89.2557264 L53.5926017,89.7226604 C53.6060365,89.745066 53.6194713,89.7611981 53.6338017,89.7889811 C53.6991843,89.9063868 53.7565061,90.0766698 53.805767,90.2541226 C53.8559235,90.4324717 53.8926452,90.6305377 53.9195148,90.8330849 L53.9517583,91.1404906 L53.9669843,91.4219057 L53.9723583,91.5384151 L53.9741496,91.5491698 C54.0565496,92.2903491 53.8595061,92.9903019 53.3946626,93.6328962 C53.16448,93.9528491 52.8751843,94.2539811 52.54648,94.5237453 C52.3825757,94.6581792 52.2097148,94.7863396 52.0305843,94.9046415 L51.7600974,95.0731321 L51.51648,95.2057736 L51.4331843,95.2487925 C49.99208,96.0562925 48.1309148,96.3843113 46.2930365,96.5106792 C45.3669322,96.5743113 44.427393,96.5787925 43.4878539,96.5465283 C43.0176365,96.5295 42.5474191,96.5026132 42.078993,96.4640755 C41.6159409,96.4273302 41.1304974,96.378934 40.698793,96.3188868 L40.2993322,96.264217 L39.9222626,96.4909623 L39.2890365,96.8718585 C39.0830365,97.0045 38.8465843,97.107566 38.6271496,97.2267642 C38.4077148,97.3459623 38.1793235,97.4561981 37.943767,97.5574717 C37.7100017,97.6596415 37.4834017,97.7734623 37.2424713,97.8666698 C36.295767,98.2636981 35.3087583,98.5979906 34.3118974,98.9071887 C33.3132452,99.2136981 32.2948887,99.4762925 31.2711583,99.7155849 C30.2519061,99.9495 29.2013061,100.165491 28.1936974,100.326811 L27.7046713,100.405679 L27.4064191,100.850208 C27.1771322,101.193462 26.9675496,101.546575 26.7122887,101.879075 C26.4767322,102.220538 26.2098278,102.545868 25.9259061,102.855962 C25.7915583,103.016387 25.6509409,103.175915 25.5380887,103.356953 C25.4234452,103.537094 25.3079061,103.718132 25.1825148,103.892896 C24.9415843,104.248698 24.6872191,104.599123 24.4256887,104.945962 C23.8963583,105.634264 23.3500104,106.324358 22.7758974,106.998321 C22.1946191,107.662425 21.6151322,108.344453 20.9854887,108.983462 C21.4333148,108.768368 21.8739757,108.536245 22.3101583,108.29516 C22.0889322,108.479783 21.8632278,108.661717 21.6420017,108.845443 L19.6026017,110.688981 L17.6518713,112.616764 C19.2550887,111.739358 20.8502452,110.878085 22.4588365,110.060726 C23.271193,109.664594 24.0656365,109.247849 24.8788887,108.868745 C25.6849757,108.476198 26.5340539,108.167896 27.267593,107.666906 C28.0235235,107.199972 28.8108017,106.792189 29.5927061,106.375443 C30.378193,105.96766 31.1681583,105.566151 31.9706626,105.198698 C33.5694017,104.450349 35.2048626,103.780868 36.8537583,103.240443 C37.7046278,102.974264 38.4345843,102.750208 39.2693322,102.655208 C40.1228887,102.543179 41.0167496,102.464311 41.9034452,102.38634 C43.685793,102.240255 45.4815757,102.122849 47.2773583,102.017094 L49.9732713,101.869217 C50.8295148,101.784972 51.4385583,101.896104 51.7699496,102.147943 C52.0771583,102.363038 52.2867409,102.864028 52.2939061,103.589972 C52.3082365,104.18417 52.1819496,104.89667 52.0028191,105.515066 C51.699193,105.766009 51.4000452,106.021434 51.06328,106.240113 C50.6557583,106.543038 50.2133061,106.805632 49.7726452,107.072708 C48.8743061,107.579972 47.9401409,108.044217 46.9620887,108.429594 C45.9867235,108.81766 44.9853843,109.155538 43.9670278,109.439642 C43.4574017,109.580349 42.944193,109.711198 42.429193,109.825019 L41.6562452,109.98634 L40.90748,110.116292 L40.6074365,110.16917 L40.39248,110.31167 L35.9885583,113.2495 L33.7870452,114.718415 C33.0490278,115.202377 32.3289235,115.713226 31.5720974,116.167613 C30.8072104,116.612142 30.177567,117.258321 29.4879148,117.813981 L27.4565757,119.540113 C24.5860104,122.028934 24.7669322,121.892708 23.4601757,123.088274 C25.0786191,122.335443 26.6791496,121.555726 28.2716191,120.76167 L30.6442017,119.549972 C31.4225235,119.126057 32.2599583,118.79266 32.9639409,118.257613 C33.6750887,117.733321 34.4229583,117.265491 35.1529148,116.769877 L37.3553235,115.300962 L41.5371235,112.511009 C41.7359583,112.477849 41.9267322,112.443792 42.1210887,112.407047 L42.9630017,112.230491 C43.5218887,112.106811 44.0754017,111.966104 44.6262278,111.813745 C45.7260887,111.507236 46.8116191,111.141575 47.8801322,110.716764 C48.9504365,110.293745 49.99208,109.779311 51.0077496,109.20483 C51.5093148,108.902802 52.0117757,108.602566 52.4891583,108.249453 C52.981767,107.926811 53.4286974,107.521717 53.8926452,107.148887 L54.129993,106.958887 L54.2320974,106.648792 C54.5742365,105.610066 54.7614278,104.665443 54.7560539,103.54516 C54.7462017,102.994877 54.6745496,102.407849 54.4479496,101.803792 C54.2347843,101.204217 53.8075583,100.592991 53.244193,100.174453 C52.095967,99.3293113 50.7614452,99.3373774 49.84788,99.407283 L47.1340539,99.5560566 C45.3239409,99.6627075 43.5156191,99.7810094 41.6983409,99.9306792 C40.7856713,100.01134 39.880167,100.089311 38.9424191,100.212094 C37.979593,100.318745 36.9684017,100.617189 36.0996191,100.894123 C32.9343843,101.93733 29.9724626,103.354264 27.1045843,104.926245 C27.3186452,104.738038 27.5246452,104.54266 27.6948191,104.315915 L28.5277757,103.191151 C28.7078017,102.954547 28.8734974,102.703604 29.0365061,102.450868 C29.9652974,102.288651 30.8663235,102.106717 31.7745148,101.897896 C32.8430278,101.648745 33.9070626,101.3745 34.9630365,101.050962 C36.0181148,100.722943 37.0687148,100.368934 38.1049843,99.9342642 C38.3647235,99.8329906 38.6199843,99.7066226 38.8779322,99.5936981 C39.1367757,99.4816698 39.3920365,99.3588868 39.6455061,99.2226604 C39.89808,99.0855377 40.1551322,98.9708208 40.4032278,98.8157736 L40.7847757,98.5854434 C41.1609496,98.6302547 41.5272713,98.667 41.8998626,98.6974717 C42.4014278,98.7386981 42.9038887,98.7673774 43.4072452,98.7853019 C44.4139583,98.8202547 45.4242539,98.8157736 46.4417148,98.7467642 C47.45828,98.6786509 48.4811148,98.552283 49.5057409,98.3201604 C50.5285757,98.088934 51.5594713,97.7474717 52.5455843,97.1936038 L52.4631843,97.2366226 C52.6458974,97.1478962 52.7515843,97.0860566 52.8886191,97.0080849 L53.2630017,96.775066 C53.5075148,96.6137453 53.7430713,96.4398774 53.970567,96.252566 C54.4246626,95.8788396 54.8483061,95.4459623 55.2110452,94.9431792 C55.571993,94.4412925 55.8738278,93.8623302 56.0466887,93.2313868 C56.2186539,92.6362925 56.2589583,92.0035566 56.2052191,91.3977075 C56.2025322,91.2283208 56.195367,91.1082264 56.1846191,90.9657264 L56.1389409,90.5382264 C56.1013235,90.2523302 56.04848,89.9655377 55.9678713,89.6688868 C55.8845757,89.3722358 55.7869496,89.0711038 55.6194626,88.7547358 C55.453767,88.4410566 55.2307496,88.1085566 54.8760713,87.817283 L54.6646974,87.6434151 L54.3655496,87.5878491 L51.5030452,87.057283 L51.3982539,87.0330849 C51.7287496,86.9551132 52.0601409,86.878934 52.3906365,86.772283 C52.8429409,86.6136509 53.2934539,86.431717 53.7394887,86.2013868 C54.1855235,85.9504434 54.6217061,85.6869528 55.0578887,85.2755849 C55.1734278,85.1617642 55.2603061,85.0846887 55.4268974,84.8686981 L55.4448104,84.8436038 L55.5164626,84.7324717 L55.5263148,84.7154434 L55.5460191,84.6813868 L55.5854278,84.6141698 L55.6633496,84.4797358 L55.9750365,83.9402075 C56.1783496,83.5288396 56.4327148,83.0574245 56.58408,82.6012453 C56.7605235,82.1504434 56.890393,81.6566226 56.9808539,81.1421887 C57.0516104,80.617 57.0892278,80.0649245 56.9907061,79.4859623 C56.91368,78.9132736 56.6951409,78.3235566 56.3637496,77.8091226" id="Fill-1"></path>
                    <path d="M47.9412157,93.6613962 L52.3057287,93.7528113 L52.5789026,93.0241792 L48.5780243,92.9336604 C46.0316852,91.4772925 47.7593983,89.1121509 47.7593983,89.1121509 C45.0312417,91.4772925 47.9412157,93.6613962 47.9412157,93.6613962" id="Fill-3"></path>
                    <path d="M48.0202122,106.348467 L51.2597861,105.633278 L51.3314383,105.047146 L48.3596643,105.69691 C46.2190557,105.077618 47.0717165,103.020778 47.0717165,103.020778 C45.4801426,105.256863 48.0202122,106.348467 48.0202122,106.348467" id="Fill-5"></path>
                    <path d="M40.1990191,65.0509811 C36.7373235,66.0762642 38.4847409,69.2686226 38.4847409,69.2686226 L42.4211322,71.1578679 L42.970167,70.6075849 L39.365167,68.8689057 C37.6482017,66.4903208 40.1990191,65.0509811 40.1990191,65.0509811" id="Fill-7"></path>
                    <path d="M46.36442,82.6060849 L51.331707,83.9038208 L51.6881765,83.1465094 L47.1015417,81.9805189 C44.7979243,80.1638679 46.856133,78.0792453 46.856133,78.0792453 C43.8091243,80.0159906 46.36442,82.6060849 46.36442,82.6060849" id="Fill-9"></path>
                    <path d="M291.047279,75.7201981 L290.970253,75.640434 L290.900392,75.5893491 C290.67827,75.4253396 290.527801,75.3267547 290.346879,75.2147264 C290.172227,75.1035943 289.997575,75.0068019 289.822027,74.9064245 C289.470036,74.7155283 289.113566,74.5371792 288.749931,74.3785472 C288.023557,74.0594906 287.273001,73.7977925 286.501844,73.6113774 C285.732479,73.4231698 284.946992,73.2869434 284.152549,73.2394434 C283.75667,73.2018019 283.359001,73.206283 282.961331,73.206283 C282.610236,73.2053868 282.260931,73.2394434 281.911627,73.2636415 L265.913488,72.2473208 L265.766601,72.2383585 L265.687783,72.2509057 C265.136957,72.153217 264.635392,72.0653868 264.231453,72.0062358 C262.417757,71.7382642 261.594653,70.071283 261.594653,70.071283 C260.947097,69.2225566 260.950679,68.2062358 261.027705,67.6192075 C263.667192,66.2022736 264.972157,65.1958113 265.096653,65.1035 L266.492975,64.5128868 C268.787636,63.3666132 273.297244,64.3013774 273.781792,64.2897264 C276.575331,64.5308113 280.595914,64.4734528 283.565897,64.5128868 C286.145375,64.5469434 288.41854,64.9986415 289.910697,66.0436415 C292.24387,68.4733113 297.942905,72.9580283 301.914227,76.1898208 C304.407723,82.0305283 301.795105,84.3060472 300.271601,85.2641132 L299.613297,84.5820849 L291.047279,75.7201981 Z M276.966731,101.680292 C277.902688,101.894491 278.832375,102.082698 279.788931,102.247604 C279.968062,102.524538 280.147192,102.800575 280.345131,103.059585 C280.612931,103.438689 280.901331,103.797179 281.172714,104.170009 C281.183462,104.182557 281.196001,104.193311 281.206749,104.205858 C279.155705,103.079302 277.059879,102.029821 274.872697,101.143453 C275.567723,101.335245 276.265436,101.516283 276.966731,101.680292 L276.966731,101.680292 Z M307.989436,94.1860472 C307.75567,93.6285943 307.449357,93.1231226 307.134088,92.6310943 C306.968392,92.3873208 306.778514,92.1301038 306.605653,91.9006698 L306.36114,91.6031226 L306.239331,91.4543491 L306.104088,91.2975094 L306.03781,91.2285 L305.37861,90.5473679 L303.499531,88.6025566 L302.13814,87.1945849 C304.325323,85.5634528 307.083036,81.7455283 304.394288,75.3321321 L303.344583,73.8874151 C296.118462,68.0126509 293.002488,65.7729811 291.32314,63.8245849 C291.789775,60.7442547 292.651392,52.4496792 289.210297,48.3458585 C287.820244,46.6869434 285.953705,45.9063302 283.596349,45.9251509 C283.343775,45.9421792 282.386323,46.0497264 281.036575,46.7953868 L282.336166,49.1488774 C283.074183,48.7410943 283.594557,48.6335472 283.724427,48.6120377 C285.181653,48.6057642 286.313757,49.0726981 287.152088,50.0746792 C289.327627,52.6692547 289.328523,58.9383585 288.926375,62.6227453 C286.588723,61.7265189 281.745931,62.0106226 278.56547,62.0482642 C275.476366,62.0850094 272.898679,61.6978396 270.056775,61.6377925 C267.079627,61.5741604 266.207262,61.7202453 265.121731,62.4094434 C264.569114,62.8118491 261.569575,64.3461887 259.240879,65.5184528 L258.842314,65.8195849 L258.567349,66.3053396 C258.52794,66.4263302 257.626914,69.3014245 259.458523,71.7033113 C259.995018,72.4068491 260.722288,72.9616132 261.590175,73.4043491 C261.279383,73.5298208 260.966801,73.6463302 260.660488,73.7933113 L260.660488,73.7798679 C258.34254,74.9189717 257.670801,75.2550566 255.653792,76.0338774 C255.558853,76.0625566 255.460331,76.1010943 255.367183,76.1279811 C255.162079,76.1880283 254.967723,76.2337358 254.780531,76.274066 C254.597818,76.3099151 254.441079,76.3260472 254.33987,76.3323208 L253.959218,76.3565189 L253.738888,76.4739245 C253.489001,76.6074623 253.405705,76.6782642 253.26061,76.7822264 C253.140592,76.8835 253.01341,76.9811887 252.907723,77.093217 C252.687392,77.3101038 252.488557,77.5485 252.32734,77.8093019 C251.995949,78.3237358 251.77741,78.9134528 251.700383,79.4861415 C251.601862,80.0651038 251.638583,80.6171792 251.710236,81.1423679 C251.800697,81.6568019 251.930566,82.1506226 252.10701,82.6014245 C252.258375,83.0576038 252.51274,83.5281226 252.716053,83.9403868 L253.02774,84.4790189 L253.105662,84.6143491 L253.14507,84.681566 L253.164775,84.7156226 L253.174627,84.7317547 L253.246279,84.843783 L253.264192,84.8688774 C253.430783,85.0848679 253.516766,85.1619434 253.633201,85.2748679 C254.069383,85.6871321 254.50467,85.9506226 254.951601,86.201566 C255.397636,86.4318962 255.848149,86.612934 256.300453,86.7724623 C256.800227,86.9328868 257.299105,87.0529811 257.797983,87.1506698 C257.609001,87.1927925 257.420018,87.2367075 257.231036,87.2770377 L254.363157,87.8085 L254.114166,87.8551038 L253.95474,87.9922264 C253.319723,88.5380283 253.099392,89.1716604 252.939966,89.7273208 C252.861149,90.0123208 252.810992,90.2901509 252.77427,90.5670849 L252.729488,90.982934 C252.719636,91.1218491 252.711575,91.2419434 252.709783,91.4032642 C252.656044,91.9885 252.693662,92.5970377 252.860253,93.1706226 C253.025053,93.773783 253.313453,94.3285472 253.661862,94.8125094 C254.011166,95.2973679 254.421375,95.7159057 254.862931,96.0797736 C255.084157,96.2617075 255.313444,96.4310943 255.550792,96.587934 L255.915323,96.8146792 C256.046088,96.8899623 256.153566,96.9518019 256.322844,97.0333585 L256.256566,96.9984057 C257.21581,97.5370377 258.227001,97.8740189 259.23461,98.1016604 C260.244905,98.3310943 261.256992,98.4556698 262.264601,98.5228868 C263.27221,98.5918962 264.276236,98.5954811 265.275783,98.5614245 C265.775557,98.5435 266.275331,98.5148208 266.773314,98.4744906 C267.168297,98.4422264 267.556114,98.4027925 267.955575,98.3535 L268.398923,98.6214717 C268.64254,98.7747264 268.898697,98.8876509 269.147688,99.0229811 C269.397575,99.1574151 269.650149,99.2793019 269.906305,99.3895377 C270.135592,99.4899151 270.363088,99.5983585 270.59327,99.6924623 C270.161566,99.5876038 269.722697,99.4988774 269.292783,99.4513774 C268.355036,99.3276981 267.449531,99.2497264 266.537757,99.1699623 C264.719583,99.0193962 262.911262,98.9019906 261.102044,98.7953396 L258.387323,98.646566 C257.473757,98.5766604 256.140131,98.5676981 254.99101,99.4128396 C254.42854,99.8313774 254.000418,100.4435 253.788149,101.043075 C253.560653,101.647132 253.489001,102.23416 253.479149,102.784443 C253.473775,103.904726 253.660966,104.849349 254.003105,105.888075 L254.10521,106.197274 L254.342557,106.38817 C254.806505,106.761 255.253436,107.165198 255.746044,107.488736 C256.223427,107.840953 256.725888,108.142085 257.228349,108.444113 C258.243123,109.018594 259.285662,109.533028 260.35507,109.955151 C261.423583,110.380858 262.509114,110.746519 263.60987,111.053028 C264.159801,111.205387 264.713314,111.346094 265.272201,111.469774 L266.11501,111.645434 C266.30847,111.683075 266.50014,111.716236 266.698079,111.749396 L270.880775,114.539349 L273.082288,116.008264 C273.812244,116.503877 274.560114,116.972604 275.271262,117.496896 C275.975244,118.031943 276.813575,118.36534 277.591001,118.789255 L279.964479,120.000953 C281.556053,120.794113 283.156583,121.574726 284.775027,122.327557 C283.458418,121.122132 282.123001,119.943594 280.778627,118.7785 L278.748183,117.052368 C278.057636,116.496708 277.427992,115.851425 276.664001,115.406896 C275.906279,114.952509 275.18707,114.44166 274.449053,113.957698 L272.246644,112.488783 L267.842723,109.550953 L267.628662,109.407557 L267.327723,109.355575 L266.578957,109.224726 L265.806905,109.063406 C265.291905,108.949585 264.778697,108.818736 264.26907,108.678028 C263.249818,108.394821 262.248479,108.056047 261.273114,107.667981 C260.295957,107.282604 259.361792,106.818358 258.462557,106.311094 C258.022792,106.044915 257.579444,105.782321 257.172818,105.4785 C256.835157,105.260717 256.53601,105.005292 256.232383,104.754349 C256.053253,104.135057 255.927862,103.423453 255.942192,102.829255 C255.948462,102.102415 256.158044,101.601425 256.466149,101.387226 C256.796644,101.135387 257.406583,101.024255 258.261931,101.107604 L260.957844,101.255481 C262.753627,101.361236 264.54941,101.478642 266.331757,101.625623 C267.218453,101.703594 268.11321,101.781566 268.96587,101.894491 C269.800618,101.988594 270.530575,102.213547 271.381444,102.47883 C273.031236,103.020151 274.666697,103.689632 276.26454,104.437981 C277.067044,104.805434 277.85701,105.206943 278.643392,105.61383 C279.424401,106.030575 280.211679,106.438358 280.96761,106.905292 C281.701149,107.407179 282.551123,107.714585 283.356314,108.108028 C284.170462,108.486236 284.964905,108.903877 285.776366,109.299113 C287.384957,110.116472 288.980114,110.978642 290.583331,111.856047 L288.633497,109.927368 L287.401079,108.814255 C287.503183,108.868925 287.602601,108.929868 287.705601,108.983642 C286.423027,107.740575 285.243453,106.418642 284.146279,105.066236 C283.874897,104.72567 283.609783,104.381519 283.35721,104.031094 C283.096575,103.686943 282.876244,103.315009 282.58874,103.002226 C282.305714,102.684962 282.037018,102.356047 281.796983,102.010104 C281.539036,101.674019 281.32587,101.315528 281.093001,100.966896 L280.855653,100.611991 L280.463357,100.548358 C279.445897,100.385245 278.394401,100.169255 277.369775,99.9335472 C276.341566,99.6933585 275.318731,99.4298679 274.31381,99.121566 C272.311131,98.5067547 270.333531,97.7530283 268.646123,96.6784528 L268.357723,96.4947264 L268.02454,96.540434 C267.582983,96.6013774 267.09754,96.6497736 266.63001,96.6874151 C266.158001,96.7259528 265.685097,96.7537358 265.211297,96.7707642 C264.265488,96.8021321 263.318783,96.7985472 262.382827,96.7340189 C260.527036,96.6049623 258.642583,96.2796321 257.146844,95.4434528 L257.07967,95.4085 L256.81814,95.266 L256.536905,95.0912358 C256.351505,94.9693491 256.172375,94.8367075 256.002201,94.696 C255.660957,94.4163774 255.358227,94.1018019 255.11461,93.7639245 C254.622897,93.0863774 254.403462,92.3192075 254.494818,91.5233585 L254.495714,91.5143962 L254.500192,91.4220849 L254.515418,91.1227453 L254.549453,90.8036887 C254.577218,90.5930755 254.615731,90.3851509 254.668575,90.1951509 C254.73754,89.9146321 254.853975,89.6717547 254.960557,89.5202925 L257.57407,89.0363302 C258.059514,88.9493962 258.550331,88.8902453 259.018757,88.719066 L260.432097,88.255717 C261.223853,87.9877453 262.016505,87.7081226 262.801992,87.4096792 C262.861105,87.4069906 262.919323,87.4043019 262.978436,87.4016132 C263.417305,87.389066 263.841844,87.3209528 264.273549,87.2824151 C265.075157,87.2160943 265.854375,87.068217 266.640757,86.9490189 L278.479488,87.9572736 L278.590549,87.9671321 L278.715044,87.9563774 C280.285123,87.828217 281.833705,88.2422736 283.361688,88.8382642 C284.124783,89.1483585 284.865488,89.5552453 285.573053,90.0257642 C285.92594,90.2614717 286.26987,90.5142075 286.602157,90.7821792 C286.768749,90.915717 286.931757,91.0528396 287.089392,91.1935472 C287.241653,91.3288774 287.411827,91.4893019 287.528262,91.6058113 L287.482583,91.5475566 C287.95101,92.1005283 288.430183,92.6310943 288.93981,93.1078868 C289.184323,93.3615189 289.453018,93.5784057 289.710966,93.8114245 C289.967123,94.0435472 290.232236,94.2658113 290.502723,94.4764245 C291.569444,95.3439717 292.68274,96.1245849 293.808575,96.8774151 C296.058453,98.3839717 298.414914,99.6996321 300.804514,100.923877 C298.599418,99.3922264 296.481201,97.744066 294.453444,96.0224151 C293.445836,95.1557642 292.459723,94.2667075 291.552427,93.3211887 C291.317766,93.0917547 291.098331,92.8506698 290.881583,92.6095849 C290.666627,92.3676038 290.434653,92.1363774 290.240297,91.8836415 C289.81934,91.3943019 289.453914,90.8843491 289.106401,90.3743962 L289.101027,90.3672264 L289.059827,90.3152453 C288.877114,90.0849151 288.728436,89.9146321 288.557366,89.7246321 C288.39167,89.5400094 288.221497,89.3625566 288.04774,89.1877925 C287.700227,88.8400566 287.337488,88.5066604 286.958627,88.1893962 C286.20001,87.5575566 285.381383,86.9803868 284.489314,86.498217 C283.602618,86.0124623 282.632627,85.6208113 281.605314,85.4299151 C280.630844,85.2300566 279.618757,85.1995849 278.621001,85.271283 L266.707931,84.2567547 L266.560149,84.2442075 L266.356836,84.2728868 C265.565079,84.3849151 264.773323,84.5462358 263.983357,84.6098679 C263.58927,84.6448208 263.191601,84.7102453 262.800201,84.7192075 C262.40701,84.7362358 262.012923,84.7667075 261.621523,84.7738774 C260.84141,84.7810472 260.06667,84.7586415 259.312531,84.6726038 C258.560183,84.5847736 257.830227,84.4386887 257.152218,84.2226981 C256.820827,84.1035 256.501975,83.9753396 256.209097,83.8247736 C255.93234,83.6697264 255.656479,83.4931698 255.488992,83.3318491 C255.456749,83.2968962 255.443314,83.2843491 255.436149,83.2789717 C255.432566,83.2673208 255.414653,83.2323679 255.354644,83.1355755 L255.042957,82.5960472 C254.887114,82.2617547 254.735749,82.0000566 254.626479,81.6666604 C254.377488,81.0267547 254.271801,80.3931226 254.355097,79.9046792 C254.382862,79.6537358 254.470636,79.4485 254.586175,79.2656698 C254.639018,79.171566 254.711566,79.0891132 254.785905,79.0156226 C254.796653,79.0030755 254.808297,78.9959057 254.819044,78.9851509 C254.992801,78.965434 255.154914,78.9403396 255.305383,78.9107642 C255.58214,78.8525094 255.847253,78.7879811 256.09714,78.7153868 C256.599601,78.5710943 257.077879,78.4106698 257.542723,78.2385943 C258.477783,77.8917547 259.360897,77.5234057 260.269088,77.1066604 L260.365818,77.0618491 L260.471505,76.9892547 C261.244453,76.4586887 262.144583,76.0249151 263.096662,75.6843491 C263.573149,75.514066 264.060383,75.3626038 264.555679,75.2335472 C264.802879,75.1699151 265.05187,75.1089717 265.299966,75.0560943 C265.500592,75.0121792 265.712862,74.9727453 265.899157,74.9404811 L281.82654,75.9523208 L281.879383,75.9559057 L282.052244,75.9478396 C282.371097,75.9335 282.689053,75.8922736 283.007905,75.894066 C283.326757,75.8958585 283.64561,75.8886887 283.96267,75.9218491 C284.599479,75.9576981 285.230914,76.0697264 285.852497,76.2202925 C286.474079,76.369066 287.082227,76.5823679 287.667088,76.8386887 C287.959966,76.9668491 288.244783,77.1102453 288.522436,77.2599151 L288.924583,77.4965189 C289.023105,77.5547736 289.126105,77.6255755 289.202236,77.6784528 L297.681375,86.4516132 L301.964383,90.8825566 L304.105888,93.0980283 L304.140818,93.1329811 L304.161418,93.1580755 L304.283227,93.3068491 L304.52774,93.6052925 L304.899436,94.1242075 C305.135888,94.4970377 305.367862,94.8734528 305.528183,95.2651038 C305.876592,96.0430283 306.032436,96.853217 305.999297,97.6562358 C305.958097,98.4592547 305.712688,99.2613774 305.30427,100.011519 C305.09827,100.385245 304.853757,100.745528 304.581479,101.081613 C304.44534,101.249208 304.300244,101.409632 304.156044,101.555717 C304.019905,101.700009 303.892723,101.781566 303.613279,102.0585 C302.630749,103.020151 302.080818,104.224679 301.811227,105.42383 C301.551488,106.631047 301.545218,107.805104 301.716288,108.984538 C301.743157,109.14317 301.757488,109.26416 301.815705,109.490906 L301.875714,109.772321 C301.91154,109.973972 301.937514,110.185481 301.95274,110.395198 C301.982297,110.815528 301.969757,111.236755 301.908853,111.637368 C301.791523,112.443075 301.477149,113.156472 300.981853,113.732745 C300.487453,114.311708 299.785262,114.747274 298.985444,115.06633 L298.251905,116.88567 C298.233097,116.84534 298.27967,116.96633 298.29221,117.030858 C298.317288,117.10166 298.324453,117.198453 298.344157,117.280906 C298.367444,117.458358 298.389836,117.642981 298.38267,117.834774 C298.391627,118.214774 298.319079,118.609113 298.221453,119.00166 C298.150697,119.196142 298.102331,119.394208 298.021723,119.587792 L297.757505,120.166755 L297.424323,120.730481 C297.316844,120.919585 297.162792,121.092557 297.03561,121.275387 C296.791992,121.647321 296.440897,121.96817 296.147123,122.317698 C295.98501,122.4835 295.804088,122.638547 295.633914,122.799868 C295.458366,122.956708 295.298044,123.126991 295.109957,123.274868 C294.727514,123.564349 294.367462,123.878028 293.968001,124.150481 L292.748123,124.94633 L292.095192,125.372038 L292.098775,125.667792 C290.262688,137.014915 283.617844,141.341 280.166001,142.849349 L280.166001,146.690575 C283.751297,145.458264 293.255062,140.85883 295.62854,126.279019 C295.819314,126.141 296.002027,125.98416 296.191905,125.84166 L296.840357,125.331708 C297.05621,125.161425 297.253253,124.957981 297.461044,124.771566 C297.663462,124.579774 297.873044,124.396943 298.070088,124.195292 C298.443575,123.763311 298.852888,123.377038 299.183383,122.891283 C299.351766,122.652887 299.538062,122.435104 299.688531,122.178783 L300.139044,121.412509 L300.516114,120.587085 C300.631653,120.30567 300.715844,120.004538 300.812575,119.712368 C300.967523,119.108311 301.078583,118.481849 301.069627,117.830292 C301.075001,117.578453 301.05261,117.321236 301.021262,117.063123 C301.747636,116.664302 302.441766,116.157934 303.014088,115.491142 C303.866749,114.511566 304.392497,113.260434 304.566253,112.034396 C304.659401,111.419585 304.674627,110.806566 304.632531,110.202509 C304.611036,109.900481 304.574314,109.600245 304.519679,109.296425 C304.49281,109.144066 304.461462,108.9935 304.419366,108.825009 C304.409514,108.804396 304.387123,108.669066 304.371897,108.574962 C304.24561,107.724443 304.256357,106.809396 304.434592,106.006377 C304.608349,105.206943 304.98094,104.480104 305.472653,103.99883 C305.549679,103.905623 305.83987,103.681566 306.05841,103.453925 C306.276053,103.235245 306.473992,103.013877 306.662079,102.782651 C307.037357,102.321094 307.371436,101.82817 307.661627,101.302085 C308.236636,100.250811 308.62087,99.0435943 308.68267,97.7906698 C308.741783,96.540434 308.481149,95.2821321 307.989436,94.1860472 L307.989436,94.1860472 Z" id="Fill-11"></path>
                    <path d="M260.113244,92.9334811 L256.112366,93.0248962 L256.384644,93.7526321 L260.750053,93.661217 C260.750053,93.661217 263.660027,91.4780094 260.93187,89.1119717 C260.93187,89.1119717 262.659583,91.4780094 260.113244,92.9334811" id="Fill-13"></path>
                    <path d="M259.875538,104.935835 L256.90466,104.286071 L256.975417,104.872203 L260.21499,105.587392 C260.21499,105.587392 262.75506,104.495788 261.164382,102.259703 C261.164382,102.259703 262.016147,104.316542 259.875538,104.935835" id="Fill-15"></path>
                    <path d="M261.589458,81.98025 L257.002823,83.1462406 L257.359293,83.9044481 L262.32658,82.605816 C262.32658,82.605816 264.881876,80.0157217 261.834867,78.0798726 C261.834867,78.0798726 263.893076,80.1635991 261.589458,81.98025" id="Fill-17"></path>
                    <path d="M268.504162,65.2313915 C268.504162,65.2313915 271.054979,66.6707311 269.338014,69.049316 L265.733014,70.7879953 L266.282049,71.3382783 L270.21844,69.449033 C270.21844,69.449033 271.965857,66.2566745 268.504162,65.2313915" id="Fill-19"></path>
                    <path d="M278.593683,117.496986 L278.989562,186.311939 L30.9745183,186.292222 L31.3506922,118.10642 L26.8724313,120.495759 L27.2692052,189.99991 L282.655466,189.980193 L283.071944,120.774486 L278.593683,117.496986 Z" id="Fill-21"></path>
                    <path d="M283.071944,63.7611321 L282.755779,0.473207547 L27.2638313,0.54759434 L26.8724313,63.7611321 L31.3506922,63.7611321 L30.9834748,4.26962264 L278.89104,4.34042453 L278.593683,63.7611321 L283.071944,63.7611321 Z" id="Fill-23"></path>
                </g>
            </g>
        </g>
    </g>
</svg>