<?xml version="1.0" encoding="UTF-8" standalone="no"?>
<svg width="227px" height="183px" viewBox="0 0 227 183" version="1.1" xmlns="http://www.w3.org/2000/svg" xmlns:xlink="http://www.w3.org/1999/xlink">
    <!-- Generator: Sketch 3.7.2 (28276) - http://www.bohemiancoding.com/sketch -->
    <title>ValueProp_FreshBlade</title>
    <desc>Created with Sketch.</desc>
    <defs>
        <path d="M9.59453346,6.75876548 C3.66032586,4.42791239 0.396228148,0.349982195 0.396228148,0.349982195 L0.396228148,0.349982195 C0.0992342409,6.17498951 9.59453346,6.75876548 9.59453346,6.75876548 L9.59453346,6.75876548 Z" id="path-1"></path>
        <path d="M9.59453346,6.75876548 C3.66032586,4.42791239 0.396228148,0.350690661 0.396228148,0.350690661 L0.396228148,0.350690661 C0.0992342409,6.17569797 9.59453346,6.75876548 9.59453346,6.75876548 L9.59453346,6.75876548 Z" id="path-3"></path>
        <path d="M6.97333187,4.54551775 C1.63240326,3.96315871 0.445845268,0.468296015 0.445845268,0.468296015 L0.445845268,0.468296015 C-1.63169445,5.71165275 6.97333187,4.54551775 6.97333187,4.54551775 L6.97333187,4.54551775 Z" id="path-5"></path>
        <path d="M6.97333187,4.54551775 C1.63240326,3.96386717 0.445845268,0.468296015 0.445845268,0.468296015 L0.445845268,0.468296015 C-1.63169445,5.71165275 6.97333187,4.54551775 6.97333187,4.54551775 L6.97333187,4.54551775 Z" id="path-7"></path>
        <path d="M0.0772609447,8.19411756 C0.837111704,9.68472998 3.97007845,9.87105654 3.97007845,9.87105654 L3.97007845,9.87105654 C12.5183995,9.31207688 13.4682129,0.548352671 13.4682129,0.548352671 L13.4682129,0.548352671 C9.66966796,9.87105654 0.0772609447,8.19411756 0.0772609447,8.19411756 L0.0772609447,8.19411756 Z" id="path-9"></path>
        <path d="M0.0779697607,8.19411756 C0.837111704,9.68472998 3.97078727,9.87105654 3.97078727,9.87105654 L3.97078727,9.87105654 C12.5183995,9.31207688 13.4682129,0.548352671 13.4682129,0.548352671 L13.4682129,0.548352671 C9.66966796,9.87105654 0.0779697607,8.19411756 0.0779697607,8.19411756 L0.0779697607,8.19411756 Z" id="path-11"></path>
        <path d="M0.0474906724,4.22316572 C1.47291966,5.43535102 2.80124086,5.34183351 2.80124086,5.34183351 L2.80124086,5.34183351 C7.16967391,5.34183351 8.31015886,0.5873183 8.31015886,0.5873183 L8.31015886,0.5873183 C4.51161388,5.15479849 0.0474906724,4.22316572 0.0474906724,4.22316572 L0.0474906724,4.22316572 Z" id="path-13"></path>
        <path d="M0.0474906724,4.22316572 C1.47291966,5.43464255 2.80124086,5.34183351 2.80124086,5.34183351 L2.80124086,5.34183351 C7.16967391,5.34183351 8.31015886,0.5873183 8.31015886,0.5873183 L8.31015886,0.5873183 C4.51090506,5.15479849 0.0474906724,4.22316572 0.0474906724,4.22316572 L0.0474906724,4.22316572 Z" id="path-15"></path>
        <path d="M0.627302166,1.10237307 C10.0602256,0.877080887 11.6713644,6.5228463 11.6713644,6.5228463 L11.6713644,6.5228463 C11.0093302,1.58129607 7.4482386,0.533474885 4.54634587,0.533474885 L4.54634587,0.533474885 C2.40784797,0.533474885 0.627302166,1.10237307 0.627302166,1.10237307 L0.627302166,1.10237307 Z" id="path-17"></path>
        <path d="M0.627302166,1.10237307 C10.0602256,0.877080887 11.6713644,6.5228463 11.6713644,6.5228463 L11.6713644,6.5228463 C11.010039,1.58129607 7.44894741,0.533474885 4.54705468,0.533474885 L4.54705468,0.533474885 C2.40784797,0.533474885 0.627302166,1.10237307 0.627302166,1.10237307 L0.627302166,1.10237307 Z" id="path-19"></path>
        <path d="M0.0673375206,36.7212088 L1.90742387,36.4944997 C1.90742387,26.1055545 1.67776749,0.356358389 1.67776749,0.356358389 L1.67776749,0.356358389 C0.0673375206,19.3283689 0.0673375206,36.7212088 0.0673375206,36.7212088 L0.0673375206,36.7212088 Z" id="path-21"></path>
        <path d="M0.0673375206,36.7219173 L1.90742387,36.4944997 C1.90742387,26.1055545 1.67776749,0.356358389 1.67776749,0.356358389 L1.67776749,0.356358389 C0.0673375206,19.3283689 0.0673375206,36.7219173 0.0673375206,36.7219173 L0.0673375206,36.7219173 Z" id="path-23"></path>
        <path d="M0.503259365,16.1346043 L1.42401136,16.5866056 C1.42401136,12.745303 1.19364615,0.0977683056 1.19364615,0.0977683056 L1.19364615,0.0977683056 C0.0432377764,8.4555415 0.503259365,16.1346043 0.503259365,16.1346043 L0.503259365,16.1346043 Z" id="path-25"></path>
        <path d="M0.503259365,16.1346043 L1.42401136,16.5866056 C1.42401136,12.745303 1.19364615,0.0984767716 1.19364615,0.0984767716 L1.19364615,0.0984767716 C0.0432377764,8.4555415 0.503259365,16.1346043 0.503259365,16.1346043 L0.503259365,16.1346043 Z" id="path-27"></path>
        <path d="M0.373546035,21.2780673 C0.373546035,24.4413679 1.29429803,22.6340712 1.29429803,22.6340712 L1.29429803,22.6340712 C1.52395441,19.2454784 1.29429803,0.0481756868 1.29429803,0.0481756868 L1.29429803,0.0481756868 C0.143180833,11.1144143 0.373546035,21.2780673 0.373546035,21.2780673 L0.373546035,21.2780673 Z" id="path-29"></path>
        <path d="M0.373546035,21.2780673 C0.373546035,24.4413679 1.29429803,22.6347797 1.29429803,22.6347797 L1.29429803,22.6347797 C1.52395441,19.2454784 1.29429803,0.0481756868 1.29429803,0.0481756868 L1.29429803,0.0481756868 C0.143180833,11.1144143 0.373546035,21.2780673 0.373546035,21.2780673 L0.373546035,21.2780673 Z" id="path-31"></path>
        <path d="M4.73772619,0.48671613 C4.73772619,0.48671613 0.391975252,2.05880215 0.594696629,4.97909893 L0.594696629,4.97909893 C0.581937941,4.60927968 0.917916728,0.299681111 23.6049906,1.16400961 L23.6049906,1.16400961 C23.6049906,1.16400961 21.1000349,0.296138781 12.4404297,0.296138781 L12.4404297,0.296138781 C10.2757056,0.296138781 7.72822092,0.349982195 4.73772619,0.48671613 L4.73772619,0.48671613 Z M0.596114261,5.00389524 C0.596114261,4.99610211 0.594696629,4.98689205 0.594696629,4.97909893 L0.594696629,4.97909893 C0.594696629,4.99539364 0.596114261,5.00389524 0.596114261,5.00389524 L0.596114261,5.00389524 Z" id="path-33"></path>
        <path d="M4.73772619,0.48671613 C4.73772619,0.48671613 0.391266436,2.05880215 0.594696629,4.97980739 L0.594696629,4.97980739 C0.581229125,4.60998815 0.917916728,0.299681111 23.6049906,1.16400961 L23.6049906,1.16400961 C23.6049906,1.16400961 21.1000349,0.296138781 12.4404297,0.296138781 L12.4404297,0.296138781 C10.2757056,0.296138781 7.72822092,0.350690661 4.73772619,0.48671613 L4.73772619,0.48671613 Z M0.595405445,5.0046037 C0.595405445,4.99610211 0.594696629,4.98689205 0.594696629,4.97980739 L0.594696629,4.97980739 C0.594696629,4.99539364 0.595405445,5.0046037 0.595405445,5.0046037 L0.595405445,5.0046037 Z" id="path-35"></path>
        <path d="M26.5253126,0.159404846 L8.32858808,6.38257004 L1.41763201,23.04569 L0,40.2118207 L22.035672,91.3991964 C22.035672,91.3991964 22.1505002,92.8742226 22.6232805,94.3506657 L22.6232805,94.3506657 C23.0960608,95.8264004 24.0706828,96.593669 24.0706828,96.593669 L24.0706828,96.593669 C24.0706828,96.593669 24.4931371,97.1264354 24.3790177,98.8961835 L24.3790177,98.8961835 C24.2648983,100.66664 25.1891944,103.97801 25.9929918,104.912477 L25.9929918,104.912477 L26.5253126,102.772909 C26.5253126,102.772909 27.1745881,100.096325 29.181955,101.591897 L29.181955,101.591897 C31.1879043,103.088177 34.0515209,104.327992 34.0515209,104.327992 L34.0515209,104.327992 C34.0515209,104.327992 35.4847469,102.044606 37.8550276,101.591897 L37.8550276,101.591897 C40.2253084,101.139895 41.813765,102.286902 41.813765,102.286902 L41.813765,102.286902 C41.813765,102.286902 41.6308905,93.7024193 42.5169105,95.1774455 L42.5169105,95.1774455 C43.9125692,97.5033393 44.0273974,96.0254793 44.0273974,96.0254793 L44.0273974,96.0254793 C44.0273974,96.0254793 44.6461938,97.0853444 45.2026144,98.2011783 L45.2026144,98.2011783 C46.8938494,101.593313 47.434676,105.390691 47.434676,105.390691 L47.434676,105.390691 L51.9370752,82.3655467 L71.1176364,37.2008403 L71.1176364,15.3878811 C71.1176364,15.3878811 71.1176364,0.83244753 50.9383535,2.25363029 L50.9383535,2.25363029 C37.9287445,3.17038527 35.8214345,2.28551126 33.9636278,1.40063725 L33.9636278,1.40063725 C32.6615328,0.780021047 31.4813541,0.159404846 26.7556778,0.159404846 L26.7556778,0.159404846 L26.5253126,0.159404846" id="path-37"></path>
        <path d="M26.5253126,0.159404846 L8.32858808,6.38257004 L1.41763201,23.04569 L0,40.2118207 L22.035672,91.3991964 C22.035672,91.3991964 22.1505002,92.8742226 22.6232805,94.3506657 L22.6232805,94.3506657 C23.0960608,95.8264004 24.0706828,96.593669 24.0706828,96.593669 L24.0706828,96.593669 C24.0706828,96.593669 24.4931371,97.1264354 24.3790177,98.8961835 L24.3790177,98.8961835 C24.2648983,100.66664 25.1891944,103.97801 25.9929918,104.912477 L25.9929918,104.912477 L26.5253126,102.772909 C26.5253126,102.772909 27.1745881,100.096325 29.181955,101.591897 L29.181955,101.591897 C31.1879043,103.088177 34.0515209,104.327992 34.0515209,104.327992 L34.0515209,104.327992 C34.0515209,104.327992 35.4847469,102.044606 37.8550276,101.591897 L37.8550276,101.591897 C40.2253084,101.139895 41.813765,102.286902 41.813765,102.286902 L41.813765,102.286902 C41.813765,102.286902 41.6308905,93.7024193 42.5169105,95.1774455 L42.5169105,95.1774455 C43.9125692,97.5033393 44.0273974,96.0254793 44.0273974,96.0254793 L44.0273974,96.0254793 C44.0273974,96.0254793 44.6461938,97.0853444 45.2026144,98.2011783 L45.2026144,98.2011783 C46.8938494,101.593313 47.434676,105.390691 47.434676,105.390691 L47.434676,105.390691 L51.9370752,82.3655467 L71.1176364,37.2008403 L71.1176364,15.3878811 C71.1176364,15.3878811 71.1176364,0.83244753 50.9383535,2.25363029 L50.9383535,2.25363029 C37.9287445,3.17038527 35.8214345,2.28551126 33.9636278,1.40063725 L33.9636278,1.40063725 C32.6615328,0.780021047 31.4813541,0.159404846 26.7556778,0.159404846 L26.7556778,0.159404846 L26.5253126,0.159404846 L26.5253126,0.159404846 Z" id="path-39"></path>
    </defs>
    <g id="IMAGES" stroke="none" stroke-width="1" fill="none" fill-rule="evenodd">
        <g id="ValueProp_FreshBlade">
            <g id="Page-1-+-Page-1" transform="translate(63.000000, 0.000000)">
                <g id="Page-1">
                    <g id="Group-109" transform="translate(2.126448, 38.965629)" fill="#564841">
                        <path d="M92.2895452,24.4286156 C91.4616481,23.8639682 90.4069299,23.5919172 89.8427123,23.4799796 L89.7590721,7.68402205 C90.3353395,8.95855235 91.1930068,10.2848007 92.4688756,11.2476059 L92.2895452,24.4286156 Z M92.2753689,25.4658098 C92.2165371,25.9992846 91.9287578,27.3765425 91.2220683,27.9610269 L87.3597299,32.1204307 L83.9063783,32.207572 L85.1305035,30.2685006 L85.3438571,24.7488422 L87.1520468,24.7488422 C85.6302188,26.074382 86.2553945,29.125745 86.2553945,29.125745 C86.3964489,26.5922707 87.7552492,25.3382859 88.7724002,24.7488422 L89.9724257,24.7353813 C90.8038668,24.7056258 91.6331816,25.0421471 92.2760777,25.4034647 L92.2753689,25.4658098 Z M83.6412811,29.4998151 L48.4698309,30.0460423 L13.1722114,29.1547921 L12.9482255,25.6960612 L83.7922589,25.5869574 L83.6412811,29.4998151 Z M82.3597418,32.2458292 L47.8481992,33.1122831 L15.0768,32.3478483 L13.739973,30.1728577 L48.4662868,31.0499386 L83.1280983,30.5115045 L82.1393,32.0772143 L82.3597418,32.2458292 Z M10.022233,32.230243 L5.0697356,26.0368333 C5.04209178,25.9879492 4.99247466,25.8901809 4.93860464,25.7654909 C5.5786655,25.4466812 6.43278878,25.0995328 7.38756395,24.9117894 L7.38756395,24.9167486 L8.13961773,24.9167486 C9.16527449,25.4183425 10.8139805,26.6560326 10.9692112,29.4608494 C10.9692112,29.4608494 11.6525099,26.1296424 9.85566128,24.9167486 L11.3760716,24.9167486 L11.69433,29.8278348 L13.2168668,32.3046319 L10.022233,32.230243 Z M4.64940771,10.601485 C5.2511925,10.1792392 6.28039334,9.34679171 7.12459321,8.10555931 L7.36913473,23.7052718 C6.74892072,23.8299618 5.56023628,24.1423953 4.71390997,24.814021 C4.71036589,24.7042088 4.71320115,24.5943966 4.73163037,24.4831674 L4.74722432,24.3903584 L4.64940771,10.601485 Z M10.7204168,5.56925109 L10.8068924,22.1969477 L8.56065444,22.2592927 L8.29910133,5.56925109 L10.7204168,5.56925109 Z M88.62284,22.492378 L88.6278017,23.4112584 L86.3950313,23.4112584 L86.3787285,22.3939012 L88.62284,22.492378 Z M88.534238,5.56925109 L88.6192959,21.8228777 L86.3680963,21.7244009 L86.1129225,5.56925109 L88.534238,5.56925109 Z M13.25089,3.61884424 L83.7242126,3.72865647 L83.7242126,8.97059627 L13.2934189,8.97059627 L13.25089,3.61884424 Z M10.8139805,23.5784564 L8.5812101,23.5784564 L8.57128668,22.9280846 L10.8104364,22.8664481 L10.8139805,23.5784564 Z M11.979274,14.0906799 L11.9707682,12.4831706 L12.4874951,12.4831706 L11.979274,14.0906799 Z M11.9913239,16.5044235 L11.9842357,15.1314165 L12.4258281,15.1314165 L11.9913239,16.5044235 Z M12.3854256,20.0382519 L12.0161325,21.2058038 L12.0097531,20.0375434 L12.3854256,20.0382519 Z M12.0040826,18.9174587 L11.9969944,17.5848342 L12.4258281,17.5855426 L12.0040826,18.9174587 Z M84.8767474,4.23166732 L84.9717287,10.2316657 L82.5780571,10.204744 L82.5844364,10.2550451 L14.2162974,10.2550451 L14.2191326,10.2089948 L11.9587184,10.2118287 L11.9275305,4.23166732 L9.41761299,4.23166732 C9.39422206,3.66418606 9.44950971,3.3134954 9.49132985,3.1406297 L12.3358085,3.12291805 L12.3903873,9.97449257 L84.6350411,9.97449257 L84.6350411,3.22210329 L87.4667611,3.25540119 C87.5496926,3.30924461 87.7977782,3.53099446 87.8077016,4.23166732 L84.8767474,4.23166732 Z M85.1290859,20.149481 L85.1482239,21.3758356 L84.7576663,20.149481 L85.1290859,20.149481 Z M85.090101,17.6967718 L85.1092391,18.9266687 L84.7179726,17.6960633 L85.090101,17.6967718 Z M84.4486225,12.4831706 L85.0078784,12.4831706 L85.0468632,14.9748455 L84.4486225,12.4831706 Z M84.4138905,15.2426456 L85.0511161,15.2433541 L85.0844305,17.348915 L84.4138905,15.2426456 Z M64.4727698,22.6128172 L84.0708236,22.6432813 L84.5060366,23.7392782 L65.8386583,23.637259 C65.4374684,23.2093456 64.9646881,22.8749497 64.4727698,22.6128172 L64.4727698,22.6128172 Z M53.5442447,22.6857892 L61.0378475,22.6857892 C61.0647825,22.6872062 63.2713267,22.8097708 64.7484993,23.9433164 L53.5442447,23.961028 L53.5442447,22.6857892 Z M13.0531303,18.1423969 L84.0906705,18.2529176 L84.4280669,19.3120742 L12.7178603,19.2029705 L13.0531303,18.1423969 Z M13.0531303,15.6896877 L83.7872972,15.8002083 L84.1246936,16.859365 L12.7178603,16.7495528 L13.0531303,15.6896877 Z M54.2232904,12.1296461 C54.6053422,11.52745 55.4750595,10.7134226 57.3824833,10.589441 L82.6262566,10.589441 L82.8254339,12.1742794 L54.2232904,12.1296461 Z M14.0858752,12.0673011 L14.1921976,10.589441 L40.5785823,10.589441 C41.5241428,10.8671597 42.7064479,11.3489166 43.2543627,12.1126429 L14.0858752,12.0673011 Z M83.7376801,13.3467906 L84.2083339,14.4059473 L12.7178603,14.2961351 L13.0531303,13.23627 L83.7376801,13.3467906 Z M12.7710215,21.6138802 L13.0800653,20.6376141 L84.0637354,20.7488432 L84.3741969,21.7236924 L61.1455875,21.6882691 C61.1009321,21.6847268 61.0697442,21.6833099 61.0576943,21.6826014 L57.6865654,21.6826014 L12.7710215,21.6138802 Z M31.5255842,23.6365506 L12.8185122,23.7392782 L13.296963,22.534886 L33.0105538,22.56535 C32.296776,22.9323354 31.8161988,23.3375779 31.5255842,23.6365506 L31.5255842,23.6365506 Z M36.6205537,22.6864977 L44.05816,22.6857892 L44.05816,23.9751973 L32.5661261,23.992909 C33.2487159,23.4587256 34.5146613,22.7793067 36.6205537,22.6864977 L36.6205537,22.6864977 Z M8.95262969,2.0014164 L87.721226,2.0014164 L87.7623374,2.0035418 L87.8190426,1.99504021 C87.8268396,1.99433174 87.8410159,1.99362328 87.8594452,1.99362328 C88.2159796,1.99362328 88.6256753,2.46971242 88.6320546,3.56854316 L88.6377251,3.67339612 C88.6412692,3.71307022 88.6632425,3.91427455 88.7164037,4.23166732 L88.2613438,4.23166732 C88.2436234,3.02585821 87.6198653,2.77718665 87.5908039,2.76655966 C87.5681218,2.75805807 87.5447308,2.75380728 87.5213399,2.75380728 L84.1806901,2.71484165 L84.1806901,2.7261771 L12.3315556,2.61353101 L12.3315556,2.62061567 L9.32830217,2.63974425 C9.24395307,2.64045272 9.16669212,2.6928792 9.12770724,2.77506125 C9.10431631,2.82394541 8.92498586,3.24619113 8.96326193,4.23166732 L8.4883552,4.23166732 C8.51174613,3.88451898 8.51316376,3.52461826 8.4883552,3.15125669 C8.48339349,3.08820322 8.46283783,2.23521018 8.95262969,2.0014164 L8.95262969,2.0014164 Z M93.8418523,9.82925705 C91.1015696,8.09068152 90.5097082,3.94969785 90.4530029,3.4927373 C90.4147269,1.15338262 89.0374974,0.32093509 87.8594452,0.32093509 C87.782893,0.32093509 87.721226,0.325185886 87.6779883,0.328728216 L8.65705341,0.328728216 L8.52663127,0.373361573 C6.93533933,0.912504186 6.61778976,2.52638969 6.67165978,3.30286841 C6.92541591,7.02939948 3.35369205,9.11724873 3.31966888,9.13708578 L2.8199536,9.41905524 L3.22823162,24.2245773 C3.14246488,26.407361 3.50325223,27.074736 3.59610713,27.22068 L9.48849459,33.8838026 L47.8333141,35.1200757 L47.856705,35.1200757 L88.0827222,33.7697395 L92.6106388,28.6248596 C94.0261444,27.1299963 94.0665469,25.9008079 94.0913555,25.6301739 L94.3061267,10.1239789 L93.8418523,9.82925705 Z" id="Fill-1"></path>
                        <path d="M25.8977978,28.1923411 C26.3422254,28.4041724 27.0956968,28.5118592 28.1893999,27.8600705 C28.3538452,28.0499394 28.7415676,28.4218841 29.2845207,28.475019 C29.722569,28.5182354 30.1613261,28.3432443 30.5873245,27.9564219 C30.758858,28.1682532 31.1302775,28.5416148 31.6569278,28.5990006 C32.1134053,28.651427 32.5748446,28.4516396 33.0291956,28.0109738 C33.2063996,28.2242221 33.5877426,28.5975836 34.0938373,28.6160037 C34.5028241,28.6330069 34.8933817,28.4162163 35.2626749,27.9776759 C35.4554728,28.2178459 35.8658773,28.6379662 36.4045774,28.6677218 C36.7986791,28.6882673 37.1793133,28.4983984 37.5372654,28.1002405 C37.6995843,28.3680406 38.0383983,28.8087065 38.536696,28.8731769 C38.979706,28.9305626 39.4290953,28.6804741 39.8806111,28.1321215 C40.0727003,28.3687491 40.4802695,28.7803679 41.0125903,28.8065811 C41.4059832,28.8264181 41.7873262,28.6308815 42.142443,28.2270559 C42.3189382,28.4891883 42.6882313,28.9319796 43.1879466,28.9525251 C43.1999965,28.9525251 43.2120464,28.9532336 43.2240962,28.9532336 C43.6196156,28.9532336 44.0023762,28.6861419 44.3631636,28.1590432 C44.5573792,28.4254264 44.9614043,28.870343 45.524913,28.9369388 C46.0125784,28.9936161 46.5016615,28.7584054 46.9808211,28.2341406 C47.2813591,28.3694576 47.7045222,28.6245053 47.7874537,28.8533398 L48.0695625,28.7293583 C47.8973202,28.2553946 47.0857258,27.9181648 46.9935798,27.882033 C46.9368745,27.8586536 46.8737899,27.8749483 46.8319697,27.9238325 C46.399592,28.423301 45.9750112,28.6542609 45.559645,28.6046683 C44.912496,28.5288624 44.4950033,27.7920578 44.4914593,27.7842647 C44.4638154,27.7353805 44.4163248,27.705625 44.3645812,27.7049165 C44.3121288,27.704208 44.2639293,27.7311297 44.2355767,27.778597 C43.8903833,28.3489121 43.5416458,28.6252138 43.2007053,28.6181291 C42.6733462,28.5975836 42.2962561,27.8799076 42.292712,27.8728229 C42.2679035,27.8253557 42.2239569,27.7934747 42.1750486,27.7892239 C42.1240138,27.7835562 42.0765231,27.8055187 42.0446264,27.8473182 C41.715027,28.2780655 41.3705424,28.4877714 41.0274754,28.4721851 C40.4427022,28.444555 40.0124509,27.7821393 40.008198,27.7750546 C39.981263,27.7325467 39.9373164,27.7063334 39.8898257,27.7049165 C39.8416263,27.704208 39.7969709,27.725462 39.7672006,27.7651361 C39.3454551,28.3276581 38.9435564,28.5862482 38.5735544,28.5409063 C38.0306014,28.4714767 37.7024196,27.7545091 37.6995843,27.7474244 C37.6769022,27.6971234 37.6329556,27.6624085 37.5819208,27.6553239 C37.5323037,27.6475307 37.4805601,27.6702017 37.4479546,27.7127096 C37.1148111,28.1434569 36.7674912,28.3538713 36.4208802,28.3333258 C35.8297277,28.3028618 35.3966411,27.6284022 35.3923882,27.622026 C35.3654532,27.5788095 35.3215066,27.5518878 35.2740159,27.5504709 C35.2300693,27.5455116 35.1804522,27.570308 35.1506819,27.6106905 C34.8097414,28.0676511 34.4581687,28.2943602 34.106596,28.2816078 C33.5608076,28.2624792 33.17025,27.6772863 33.1667059,27.6716186 C33.1411886,27.6319445 33.100786,27.6064397 33.0568394,27.6028974 C33.012184,27.5979381 32.9696551,27.6156498 32.9377584,27.6489477 C32.5124688,28.1023659 32.0921409,28.3113634 31.6895334,28.26673 C31.1047602,28.2036765 30.7347582,27.6276937 30.7312141,27.622026 C30.7064056,27.5823519 30.6667119,27.5561386 30.6234741,27.5504709 C30.5788187,27.5455116 30.5362897,27.5610979 30.5036842,27.5936873 C30.1060384,27.9939706 29.7041397,28.1774633 29.3142909,28.14204 C28.7295177,28.0867797 28.3460483,27.5511794 28.3417954,27.5462201 C28.2957223,27.4803328 28.212082,27.4619127 28.146871,27.5037122 C26.1877035,28.7378599 25.4498261,27.3995677 25.419347,27.3421819 L25.1556674,27.5086714 C25.1655908,27.5263831 25.3888679,27.9500457 25.8977978,28.1923411" id="Fill-3"></path>
                        <path d="M49.2968774,28.7293583 L49.5789861,28.8533398 C49.6619176,28.6245053 50.0850808,28.3694576 50.3856188,28.2341406 C50.8647784,28.7584054 51.3538614,28.9957415 51.840818,28.9369388 C52.4043268,28.870343 52.8083519,28.4254264 53.0032763,28.1590432 C53.3640636,28.6861419 53.7461155,28.9532336 54.1423436,28.9532336 C54.1543935,28.9532336 54.1657345,28.9525251 54.1777844,28.9525251 C54.6774997,28.9319796 55.0475016,28.4891883 55.223288,28.2270559 C55.5791136,28.6308815 55.9604567,28.8264181 56.3538495,28.8065811 C56.8861704,28.7803679 57.2937396,28.3687491 57.4858287,28.131413 C57.9373445,28.6804741 58.3888603,28.9305626 58.8297438,28.8731769 C59.3273327,28.8087065 59.6668556,28.3680406 59.8291744,28.1002405 C60.1864177,28.4991069 60.5691783,28.6889757 60.9618624,28.6677218 C61.4998537,28.6379662 61.9102582,28.2178459 62.1030562,27.9776759 C62.4730581,28.4162163 62.8657422,28.6344239 63.2718938,28.6160037 C63.7786972,28.5968752 64.1600402,28.2242221 64.3372442,28.0109738 C64.7915953,28.4516396 65.2523257,28.6500101 65.709512,28.5990006 C66.2354535,28.5416148 66.6075819,28.1682532 66.7791154,27.9571304 C67.2051138,28.3432443 67.6438709,28.5182354 68.0812104,28.475019 C68.6248722,28.4225925 69.0125946,28.0499394 69.1770399,27.8600705 C70.2700342,28.5118592 71.0242144,28.4041724 71.4686421,28.1923411 C71.9768631,27.9500457 72.200849,27.5263831 72.2100636,27.5086714 L71.9470929,27.3421819 C71.9449664,27.3464327 71.7649272,27.6872048 71.3481433,27.8855753 C70.7817993,28.1555009 70.0453395,28.0230177 69.2195689,27.5037122 C69.153649,27.4619127 69.0700087,27.4803328 69.0239357,27.5469286 C69.0203916,27.5518878 68.6418838,28.0853627 68.0549842,28.14204 C67.6630089,28.1810056 67.2611102,27.9953875 66.8620468,27.5936873 C66.8301501,27.5610979 66.7862035,27.5455116 66.7429657,27.5504709 C66.699728,27.5561386 66.6600343,27.5823519 66.6352257,27.622026 C66.6316816,27.6276937 66.2609709,28.204385 65.6769065,28.26673 C65.2728813,28.3113634 64.8532623,28.1016574 64.4279727,27.6489477 C64.3967848,27.6156498 64.3542558,27.5979381 64.3096004,27.6028974 C64.2656538,27.6064397 64.2252513,27.6319445 64.1997339,27.6716186 C64.1961898,27.6772863 63.8056322,28.2624792 63.2598439,28.2816078 C62.9068535,28.2936517 62.5566984,28.0676511 62.2157579,27.6106905 C62.1852788,27.570308 62.1342441,27.5455116 62.0924239,27.5497624 C62.0449333,27.5518878 62.0009867,27.5788095 61.9740517,27.622026 C61.9690899,27.6284022 61.5360034,28.3021533 60.9448508,28.3333258 C60.5932781,28.3531629 60.2516288,28.1434569 59.9184852,27.7127096 C59.8858797,27.6702017 59.8348449,27.6482392 59.784519,27.6553239 C59.7334843,27.6624085 59.6895377,27.6971234 59.6668556,27.7474244 C59.6633115,27.7545091 59.3358385,28.4714767 58.7928854,28.5409063 C58.4235923,28.5869566 58.0209848,28.3276581 57.5992393,27.7651361 C57.569469,27.725462 57.5276488,27.704208 57.4766141,27.704208 C57.4291234,27.7063334 57.3851768,27.7325467 57.3582418,27.7750546 C57.3539889,27.7821393 56.9230288,28.444555 56.3389644,28.4721851 C55.9923534,28.4863545 55.6507041,28.2780655 55.3218134,27.8473182 C55.2892079,27.8055187 55.2410084,27.7835562 55.1913913,27.7885155 C55.1417742,27.7934747 55.0978276,27.8253557 55.0737278,27.8728229 C55.0694749,27.8799076 54.6959289,28.5968752 54.1664433,28.6181291 C53.8297557,28.6301731 53.4760566,28.3496205 53.1308632,27.778597 C53.1025105,27.7311297 53.0536022,27.7034996 53.0011498,27.704208 C52.9494063,27.7049165 52.9019156,27.7353805 52.8749806,27.7849731 C52.8707277,27.7920578 52.457488,28.5274455 51.8082125,28.6046683 C51.3942639,28.6549694 50.9668479,28.4240095 50.5344701,27.9238325 C50.49265,27.8749483 50.4288565,27.8586536 50.3721513,27.8813245 C50.280714,27.9181648 49.4691197,28.2553946 49.2968774,28.7293583" id="Fill-5"></path>
                        <path d="M59.8015306,7.02082704 C59.5973916,7.02082704 59.4315286,6.83804282 59.4315286,6.6134591 C59.4315286,6.38816692 59.572583,6.2011319 59.776722,6.2011319 L59.8015306,6.2053827 C60.0056696,6.2053827 60.1715325,6.38816692 60.1715325,6.6134591 C60.1715325,6.83804282 60.0056696,7.02082704 59.8015306,7.02082704 M59.7299402,5.84477351 C59.3585206,5.84477351 59.056565,6.17775252 59.056565,6.5865374 C59.056565,6.99603073 59.3585206,7.32900975 59.7299402,7.32900975 C60.1013598,7.32900975 60.4033154,6.99603073 60.4033154,6.5865374 C60.4033154,6.17775252 60.1013598,5.84477351 59.7299402,5.84477351" id="Fill-7"></path>
                        <path d="M18.896255,7.18823755 C18.692116,7.18823755 18.5262531,7.00474486 18.5262531,6.78016115 C18.5262531,6.55557743 18.6673075,6.36925088 18.8714465,6.36925088 L18.896255,6.37279321 C19.100394,6.37279321 19.266257,6.55557743 19.266257,6.78016115 C19.266257,7.00474486 19.100394,7.18823755 18.896255,7.18823755 M18.8246646,6.01218402 C18.453245,6.01218402 18.1505806,6.34516304 18.1505806,6.75394791 C18.1505806,7.16344125 18.453245,7.49642026 18.8246646,7.49642026 C19.1960842,7.49642026 19.4980398,7.16344125 19.4980398,6.75394791 C19.4980398,6.34516304 19.1960842,6.01218402 18.8246646,6.01218402" id="Fill-9"></path>
                        <path d="M69.7937807,6.77003008 C69.5903505,6.77003008 69.4237788,6.58724586 69.4237788,6.36195368 C69.4237788,6.13736996 69.5648331,5.95033494 69.7689722,5.95033494 L69.7937807,5.95458574 C69.9979197,5.95458574 70.1637827,6.13736996 70.1637827,6.36195368 C70.1637827,6.58724586 69.9979197,6.77003008 69.7937807,6.77003008 M69.7221903,5.59397655 C69.3507707,5.59397655 69.0488151,5.92695557 69.0488151,6.33574044 C69.0488151,6.74523378 69.3507707,7.07821279 69.7221903,7.07821279 C70.0936099,7.07821279 70.3955655,6.74523378 70.3955655,6.33574044 C70.3955655,5.92695557 70.0936099,5.59397655 69.7221903,5.59397655" id="Fill-11"></path>
                        <path d="M39.6815047,5.77562723 C39.4773657,5.77562723 39.3115028,5.59284301 39.3115028,5.36825929 C39.3115028,5.14296711 39.4525572,4.95664056 39.6566962,4.95664056 L39.6815047,4.96018289 C39.8856437,4.96018289 40.0515067,5.14296711 40.0515067,5.36825929 C40.0515067,5.59284301 39.8856437,5.77562723 39.6815047,5.77562723 M39.6099143,4.5995737 C39.2384947,4.5995737 38.9365391,4.93255271 38.9365391,5.34204605 C38.9365391,5.75083092 39.2384947,6.08380993 39.6099143,6.08380993 C39.9813339,6.08380993 40.2832895,5.75083092 40.2832895,5.34204605 C40.2832895,4.93255271 39.9813339,4.5995737 39.6099143,4.5995737" id="Fill-13"></path>
                        <path d="M78.5158326,6.8530623 C78.3669812,6.8530623 78.2450648,6.71916223 78.2450648,6.55479812 C78.2450648,6.38972555 78.348552,6.25370008 78.4974033,6.25370008 L78.5158326,6.25582547 C78.6646839,6.25582547 78.7866003,6.38972555 78.7866003,6.55479812 C78.7866003,6.71916223 78.6646839,6.8530623 78.5158326,6.8530623 M78.4633802,5.99227613 C78.1911948,5.99227613 77.9707531,6.23598843 77.9707531,6.53496107 C77.9707531,6.83464218 78.1911948,7.07835448 78.4633802,7.07835448 C78.7348567,7.07835448 78.9560073,6.83464218 78.9560073,6.53496107 C78.9560073,6.23598843 78.7348567,5.99227613 78.4633802,5.99227613" id="Fill-15"></path>
                        <path d="M41.9660896,6.59241766 C41.8172382,6.59241766 41.6953219,6.45851759 41.6953219,6.29415348 C41.6953219,6.12978938 41.798809,5.99305544 41.9483692,5.99305544 L41.9660896,5.99588931 C42.114941,5.99588931 42.2368573,6.12978938 42.2368573,6.29415348 C42.2368573,6.45851759 42.114941,6.59241766 41.9660896,6.59241766 M41.9136372,5.73233996 C41.6421607,5.73233996 41.4210101,5.97534379 41.4210101,6.2750249 C41.4210101,6.57470601 41.6414519,6.81770985 41.9136372,6.81770985 C42.1858226,6.81770985 42.4062643,6.57470601 42.4062643,6.2750249 C42.4062643,5.97534379 42.1858226,5.73233996 41.9136372,5.73233996" id="Fill-17"></path>
                        <path d="M17.344515,5.9709513 C17.1956637,5.9709513 17.0737473,5.83705123 17.0737473,5.67268712 C17.0737473,5.50832302 17.1772345,5.37158908 17.3260858,5.37158908 L17.344515,5.37442295 C17.4940752,5.37442295 17.6152827,5.50832302 17.6152827,5.67268712 C17.6152827,5.83705123 17.4940752,5.9709513 17.344515,5.9709513 M17.2920626,5.11016513 C17.0198773,5.11016513 16.7994355,5.35387743 16.7994355,5.65355854 C16.7994355,5.95253119 17.0198773,6.19624349 17.2920626,6.19624349 C17.5635392,6.19624349 17.7846898,5.95253119 17.7846898,5.65355854 C17.7846898,5.35387743 17.5635392,5.11016513 17.2920626,5.11016513" id="Fill-19"></path>
                        <path d="M61.3234294,5.16004114 C61.1533136,5.16004114 61.0150945,5.31165286 61.0150945,5.49939634 C61.0150945,5.68713983 61.1533136,5.83946002 61.3234294,5.83946002 C61.4935453,5.83946002 61.6317644,5.68713983 61.6317644,5.49939634 C61.6317644,5.31165286 61.4935453,5.16004114 61.3234294,5.16004114" id="Fill-21"></path>
                        <path d="M36.3127149,5.62018979 C36.1418902,5.62018979 36.0043799,5.77180152 36.0043799,5.959545 C36.0043799,6.14728849 36.1418902,6.29960867 36.3127149,6.29960867 C36.4828307,6.29960867 36.6210499,6.14728849 36.6210499,5.959545 C36.6210499,5.77180152 36.4828307,5.62018979 36.3127149,5.62018979" id="Fill-23"></path>
                        <path d="M16.737485,6.62351932 C16.5673692,6.62351932 16.42915,6.77583951 16.42915,6.96287453 C16.42915,7.15132648 16.5673692,7.3029382 16.737485,7.3029382 C16.9076008,7.3029382 17.04582,7.15132648 17.04582,6.96287453 C17.04582,6.77583951 16.9076008,6.62351932 16.737485,6.62351932" id="Fill-25"></path>
                        <path d="M63.8279599,6.2739622 C63.7131317,6.2739622 63.619568,6.37668977 63.619568,6.50350518 C63.619568,6.63032059 63.7131317,6.73233969 63.8279599,6.73233969 C63.9427881,6.73233969 64.035643,6.63032059 64.035643,6.50350518 C64.035643,6.37668977 63.9427881,6.2739622 63.8279599,6.2739622" id="Fill-27"></path>
                        <path d="M38.8977669,6.79595994 C38.7829387,6.79595994 38.689375,6.89868751 38.689375,7.02550292 C38.689375,7.15231833 38.7829387,7.2550459 38.8977669,7.2550459 C39.0125951,7.2550459 39.10545,7.15231833 39.10545,7.02550292 C39.10545,6.89868751 39.0125951,6.79595994 38.8977669,6.79595994" id="Fill-29"></path>
                        <path d="M67.8629659,6.54622568 C67.7098617,6.54622568 67.58511,6.68295962 67.58511,6.85228299 C67.58511,7.02089789 67.7098617,7.15763182 67.8629659,7.15763182 C68.0160702,7.15763182 68.140113,7.02089789 68.140113,6.85228299 C68.140113,6.68295962 68.0160702,6.54622568 67.8629659,6.54622568" id="Fill-31"></path>
                        <path d="M80.6529128,6.27637099 C80.4998086,6.27637099 80.3750569,6.41310492 80.3750569,6.58242829 C80.3750569,6.7510432 80.4998086,6.88777713 80.6529128,6.88777713 C80.8060171,6.88777713 80.9307687,6.7510432 80.9307687,6.58242829 C80.9307687,6.41310492 80.8060171,6.27637099 80.6529128,6.27637099" id="Fill-33"></path>
                        <path d="M57.901124,6.37605215 C57.7480197,6.37605215 57.6239769,6.51278609 57.6239769,6.68210946 C57.6239769,6.85072436 57.7480197,6.9874583 57.901124,6.9874583 C58.0542283,6.9874583 58.1782711,6.85072436 58.1782711,6.68210946 C58.1782711,6.51278609 58.0542283,6.37605215 57.901124,6.37605215" id="Fill-35"></path>
                        <path d="M59.2112995,5.40134465 C59.3084073,5.40134465 59.3877947,5.3149118 59.3877947,5.20722497 C59.3877947,5.09953814 59.3084073,5.01239683 59.2112995,5.01239683 C59.1141917,5.01239683 59.0348043,5.09953814 59.0348043,5.20722497 C59.0348043,5.3149118 59.1141917,5.40134465 59.2112995,5.40134465" id="Fill-37"></path>
                        <path d="M68.065262,5.40311582 C67.9681542,5.40311582 67.8887668,5.49025713 67.8887668,5.5972355 C67.8887668,5.70492233 67.9681542,5.79206364 68.065262,5.79206364 C68.1623698,5.79206364 68.2417572,5.70492233 68.2417572,5.5972355 C68.2417572,5.49025713 68.1623698,5.40311582 68.065262,5.40311582" id="Fill-39"></path>
                        <path d="M75.1561865,4.82472419 C75.0590787,4.82472419 74.9796913,4.91186551 74.9796913,5.01884387 C74.9796913,5.1265307 75.0590787,5.21367201 75.1561865,5.21367201 C75.2532942,5.21367201 75.3326816,5.1265307 75.3326816,5.01884387 C75.3326816,4.91186551 75.2532942,4.82472419 75.1561865,4.82472419" id="Fill-41"></path>
                        <path d="M73.1298233,7.70074185 C73.0320066,7.70074185 72.9533281,7.78788316 72.9533281,7.89486153 C72.9533281,8.00254836 73.0320066,8.08898121 73.1298233,8.08898121 C73.226931,8.08898121 73.3063184,8.00254836 73.3063184,7.89486153 C73.3063184,7.78788316 73.226931,7.70074185 73.1298233,7.70074185" id="Fill-43"></path>
                        <path d="M79.4861308,5.38320792 C79.3883142,5.38320792 79.3096356,5.47034924 79.3096356,5.5773276 C79.3096356,5.68501443 79.3883142,5.77215575 79.4861308,5.77215575 C79.5832386,5.77215575 79.662626,5.68501443 79.662626,5.5773276 C79.662626,5.47034924 79.5832386,5.38320792 79.4861308,5.38320792" id="Fill-45"></path>
                        <path d="M58.2753789,5.54247108 C58.1775622,5.54247108 58.0988837,5.62961239 58.0988837,5.73659076 C58.0988837,5.84427759 58.1775622,5.9314189 58.2753789,5.9314189 C58.3724866,5.9314189 58.451874,5.84427759 58.451874,5.73659076 C58.451874,5.62961239 58.3724866,5.54247108 58.2753789,5.54247108" id="Fill-47"></path>
                        <path d="M54.6577237,5.15231886 C54.5599071,5.15231886 54.4812285,5.23946018 54.4812285,5.34643854 C54.4812285,5.45412537 54.5599071,5.54055822 54.6577237,5.54055822 C54.7548315,5.54055822 54.8342189,5.45412537 54.8342189,5.34643854 C54.8342189,5.23946018 54.7548315,5.15231886 54.6577237,5.15231886" id="Fill-49"></path>
                        <path d="M52.4316162,7.49386978 C52.3345084,7.49386978 52.255121,7.5810111 52.255121,7.68798946 C52.255121,7.79567629 52.3345084,7.8828176 52.4316162,7.8828176 C52.528724,7.8828176 52.6081114,7.79567629 52.6081114,7.68798946 C52.6081114,7.5810111 52.528724,7.49386978 52.4316162,7.49386978" id="Fill-51"></path>
                        <path d="M45.3487013,4.92915208 C45.2508847,4.92915208 45.1722062,5.01629339 45.1722062,5.12327175 C45.1722062,5.23095858 45.2508847,5.31739143 45.3487013,5.31739143 C45.4458091,5.31739143 45.5244877,5.23095858 45.5244877,5.12327175 C45.5244877,5.01629339 45.4458091,4.92915208 45.3487013,4.92915208" id="Fill-53"></path>
                        <path d="M35.7862064,6.76882569 C35.6890986,6.76882569 35.6097112,6.85596701 35.6097112,6.96294537 C35.6097112,7.0706322 35.6890986,7.15777352 35.7862064,7.15777352 C35.8833142,7.15777352 35.9627015,7.0706322 35.9627015,6.96294537 C35.9627015,6.85596701 35.8833142,6.76882569 35.7862064,6.76882569" id="Fill-55"></path>
                        <path d="M20.5321315,5.54162092 C20.4343149,5.54162092 20.3556363,5.62876223 20.3556363,5.7357406 C20.3556363,5.84342743 20.4343149,5.93056874 20.5321315,5.93056874 C20.6292393,5.93056874 20.7086267,5.84342743 20.7086267,5.7357406 C20.7086267,5.62876223 20.6292393,5.54162092 20.5321315,5.54162092" id="Fill-57"></path>
                        <path d="M14.8916572,5.18016157 C14.7938406,5.18016157 14.7151621,5.26730289 14.7151621,5.37428125 C14.7151621,5.48196808 14.7938406,5.5691094 14.8916572,5.5691094 C14.988765,5.5691094 15.0681524,5.48196808 15.0681524,5.37428125 C15.0681524,5.26730289 14.988765,5.18016157 14.8916572,5.18016157" id="Fill-59"></path>
                        <path d="M25.2128689,6.60176941 C25.1150523,6.60176941 25.0363737,6.68891073 25.0363737,6.79588909 C25.0363737,6.90357592 25.1150523,6.99071724 25.2128689,6.99071724 C25.3099767,6.99071724 25.3893641,6.90357592 25.3893641,6.79588909 C25.3893641,6.68891073 25.3099767,6.60176941 25.2128689,6.60176941" id="Fill-61"></path>
                        <path d="M32.0676158,4.8452697 C31.9697992,4.8452697 31.8911206,4.93241102 31.8911206,5.03938938 C31.8911206,5.14707621 31.9697992,5.23421753 32.0676158,5.23421753 C32.1647236,5.23421753 32.244111,5.14707621 32.244111,5.03938938 C32.244111,4.93241102 32.1647236,4.8452697 32.0676158,4.8452697" id="Fill-63"></path>
                        <path d="M29.3331454,27.340269 C29.2296583,27.2595039 29.161612,27.1376478 29.161612,26.9994969 C29.161612,26.7564931 29.3664598,26.5588311 29.6187983,26.5588311 C29.8597957,26.5588311 30.0554289,26.7401984 30.0717317,26.9697413 C30.0851992,26.9236911 30.093705,26.8762238 30.093705,26.8259227 C30.093705,26.5234078 29.8392401,26.2775701 29.5252346,26.2775701 C29.2105203,26.2775701 28.9553465,26.5234078 28.9553465,26.8259227 C28.9553465,27.0639673 29.1134125,27.2644632 29.3331454,27.340269" id="Fill-65"></path>
                        <path d="M26.5503338,27.2849379 C26.4468467,27.2041727 26.3788003,27.0823166 26.3788003,26.9441657 C26.3788003,26.7004534 26.5836482,26.5027914 26.8359866,26.5027914 C27.0769841,26.5027914 27.2733261,26.6848672 27.2896289,26.9137017 C27.3023876,26.8676514 27.3108934,26.8201842 27.3108934,26.7705916 C27.3108934,26.4673681 27.0564284,26.2215304 26.7424229,26.2215304 C26.4277086,26.2215304 26.1725349,26.4673681 26.1725349,26.7705916 C26.1725349,27.0079277 26.3306008,27.209132 26.5503338,27.2849379" id="Fill-67"></path>
                        <path d="M31.5698143,27.4216009 C31.4663272,27.3408358 31.3982809,27.2189797 31.3982809,27.0808288 C31.3982809,26.837825 31.6031287,26.640163 31.8547584,26.640163 C32.0964646,26.640163 32.2920979,26.8215303 32.3091094,27.0510732 C32.3218681,27.0043145 32.3310827,26.9568473 32.3310827,26.9072546 C32.3310827,26.6040312 32.075909,26.3581935 31.7619035,26.3581935 C31.4471892,26.3581935 31.1927242,26.6040312 31.1927242,26.9072546 C31.1927242,27.1452992 31.3500814,27.3457951 31.5698143,27.4216009" id="Fill-69"></path>
                        <path d="M33.9328651,27.3546509 C33.8421367,27.2838043 33.7825962,27.1768259 33.7825962,27.0556783 C33.7825962,26.84243 33.9619266,26.6695643 34.1830772,26.6695643 C34.3950132,26.6695643 34.5665467,26.8289691 34.580723,27.029465 C34.592064,26.9890825 34.599861,26.947283 34.599861,26.9033581 C34.599861,26.6376833 34.376584,26.4223097 34.1008545,26.4223097 C33.8251251,26.4223097 33.6018481,26.6376833 33.6018481,26.9033581 C33.6018481,27.1116471 33.740776,27.2880551 33.9328651,27.3546509" id="Fill-71"></path>
                        <path d="M36.21986,27.4210342 C36.1284227,27.3501876 36.069591,27.2432092 36.069591,27.1220615 C36.069591,26.9088133 36.2489215,26.7359476 36.470072,26.7359476 C36.682008,26.7359476 36.8535415,26.8953524 36.8677178,27.0958483 C36.8790589,27.0554657 36.8868559,27.0136662 36.8868559,26.9697413 C36.8868559,26.7040666 36.6635788,26.4894014 36.3878494,26.4894014 C36.11212,26.4894014 35.8888429,26.7040666 35.8888429,26.9697413 C35.8888429,27.1787388 36.027062,27.3544384 36.21986,27.4210342" id="Fill-73"></path>
                        <path d="M38.4465346,27.4437051 C38.3558061,27.3728585 38.2962656,27.2658801 38.2962656,27.1447324 C38.2962656,26.9314842 38.4755961,26.7586185 38.6967466,26.7586185 C38.9086826,26.7586185 39.0802161,26.9180233 39.0943924,27.1185192 C39.1057335,27.0781366 39.1135305,27.0363371 39.1135305,26.9924123 C39.1135305,26.7267375 38.8902534,26.5113638 38.614524,26.5113638 C38.3395034,26.5113638 38.1155175,26.7267375 38.1155175,26.9924123 C38.1155175,27.2007012 38.2544455,27.3771093 38.4465346,27.4437051" id="Fill-75"></path>
                        <path d="M40.8736624,27.5424652 C40.7829339,27.4716186 40.7233934,27.3646403 40.7233934,27.2434926 C40.7233934,27.0302443 40.9027238,26.8573786 41.1238744,26.8573786 C41.3358104,26.8573786 41.5073439,27.0167835 41.5215202,27.2172794 C41.5328613,27.1768968 41.5406582,27.1350973 41.5406582,27.0918809 C41.5406582,26.8262061 41.3173812,26.610124 41.0416518,26.610124 C40.7659223,26.610124 40.5426453,26.8262061 40.5426453,27.0918809 C40.5426453,27.3001699 40.6815732,27.4758694 40.8736624,27.5424652" id="Fill-77"></path>
                        <path d="M43.0311565,27.6745941 C42.9404281,27.6037475 42.8808875,27.4974777 42.8808875,27.3756215 C42.8808875,27.1623732 43.060218,26.9895075 43.2813686,26.9895075 C43.4925957,26.9895075 43.664838,27.1489124 43.6790144,27.3494083 C43.6903554,27.3090257 43.6981524,27.2679347 43.6981524,27.2233013 C43.6981524,26.958335 43.4748753,26.7429614 43.1991459,26.7429614 C42.9234165,26.7429614 42.7001395,26.958335 42.7001395,27.2233013 C42.7001395,27.4315903 42.8383586,27.6079983 43.0311565,27.6745941" id="Fill-79"></path>
                        <path d="M45.4580717,27.8065814 C45.3666344,27.7357348 45.3078027,27.6287564 45.3078027,27.5076087 C45.3078027,27.2943605 45.4871331,27.1214948 45.7082837,27.1214948 C45.9202197,27.1214948 46.0917532,27.2808996 46.1059295,27.4813955 C46.1172705,27.4410129 46.1250675,27.3992134 46.1250675,27.3552885 C46.1250675,27.0903222 45.9017905,26.8749486 45.626061,26.8749486 C45.3503316,26.8749486 45.1270546,27.0903222 45.1270546,27.3552885 C45.1270546,27.564286 45.2652737,27.7399856 45.4580717,27.8065814" id="Fill-81"></path>
                        <path d="M53.908009,27.6684305 C53.8031043,27.5904992 53.7329315,27.47006 53.7300962,27.3312007 C53.7251345,27.0881969 53.9257294,26.886284 54.1773591,26.8799079 C54.4190654,26.8742401 54.6182427,27.0506482 54.6395071,27.2794827 C54.651557,27.2327239 54.659354,27.1852567 54.6586452,27.1356641 C54.6522658,26.8324406 54.3921304,26.5929791 54.0781249,26.6007723 C53.7641194,26.6085654 53.5139073,26.8607793 53.5202867,27.1640027 C53.5252484,27.4013388 53.6868584,27.5975839 53.908009,27.6684305" id="Fill-83"></path>
                        <path d="M51.4284289,27.6817497 C51.3235241,27.6038184 51.2533513,27.4833792 51.2505161,27.3452283 C51.2455543,27.1022245 51.4454405,26.8996032 51.697779,26.893227 C51.9394852,26.8868508 52.1386625,27.0646758 52.1592182,27.2928018 C52.171268,27.2460431 52.1797738,27.1985759 52.1783562,27.1489832 C52.1726857,26.8457598 51.9125502,26.6062983 51.5985447,26.6140914 C51.2838304,26.6218845 51.0343272,26.8740984 51.0407065,27.1766134 C51.0456682,27.414658 51.2072783,27.6109031 51.4284289,27.6817497" id="Fill-85"></path>
                        <path d="M56.1459538,27.6940061 C56.0403402,27.6160749 55.9701674,27.4956356 55.9673322,27.3567763 C55.9630793,27.1137725 56.1629654,26.9118597 56.4153039,26.9054835 C56.6570101,26.8998157 56.8561874,27.0762238 56.8767431,27.3050583 C56.888793,27.2582995 56.8972988,27.2108323 56.89659,27.1605312 C56.8902106,26.8580163 56.6300751,26.6185548 56.3160696,26.6263479 C56.0013553,26.634141 55.7518521,26.8863549 55.7582314,27.1888699 C55.7631932,27.4269144 55.9248032,27.6231595 56.1459538,27.6940061" id="Fill-87"></path>
                        <path d="M58.5070199,27.5682534 C58.4148738,27.4995322 58.3532068,27.3946792 58.3510804,27.2735316 C58.3468275,27.0602833 58.5219051,26.8824583 58.7430557,26.8774991 C58.9549916,26.8718313 59.1293604,27.0269854 59.1477896,27.2274813 C59.1584218,27.1863902 59.16551,27.1445907 59.1648012,27.1006659 C59.1591306,26.8349911 58.9316007,26.6252852 58.6558713,26.6323698 C58.3801419,26.6394545 58.1611177,26.8597874 58.1667882,27.1254622 C58.1710411,27.3344596 58.3135132,27.5066169 58.5070199,27.5682534" id="Fill-89"></path>
                        <path d="M60.7947945,27.5783136 C60.7026484,27.5095924 60.6409814,27.404031 60.6381461,27.2828833 C60.634602,27.069635 60.8096796,26.8925185 61.0308302,26.8868508 C61.2420574,26.8818916 61.4171349,27.0363371 61.4355641,27.236833 C61.4461964,27.1964505 61.4532845,27.154651 61.4525757,27.1107261 C61.4469052,26.8450513 61.2193753,26.6353454 60.9436458,26.6417216 C60.6686252,26.6488062 60.4488923,26.8698476 60.4545628,27.1355224 C60.4588157,27.3431029 60.6005789,27.5159686 60.7947945,27.5783136" id="Fill-91"></path>
                        <path d="M63.0213982,27.5455825 C62.9292521,27.4768613 62.8675851,27.3712999 62.8654587,27.2501522 C62.860497,27.0369039 63.0362833,26.859079 63.2574339,26.8541197 C63.4693699,26.8491604 63.6437386,27.003606 63.6621679,27.2041019 C63.6728001,27.1630109 63.6798883,27.1219198 63.6784706,27.0779949 C63.6735089,26.8123202 63.445979,26.6026143 63.1702495,26.6089905 C62.8952289,26.6160751 62.675496,26.8371165 62.6818753,27.1027913 C62.6861282,27.3110802 62.8271826,27.4832375 63.0213982,27.5455825" id="Fill-93"></path>
                        <path d="M65.2965558,27.5395605 C65.2044097,27.4708393 65.1427427,27.3659864 65.1399075,27.2441302 C65.1356546,27.030882 65.3114409,26.8537655 65.5325915,26.8480977 C65.7445275,26.8431385 65.9188963,26.9975841 65.9373255,27.1980799 C65.9479577,27.1569889 65.9550459,27.1158979 65.9550459,27.0712645 C65.9486665,26.8062982 65.7211366,26.5965923 65.4454072,26.6029685 C65.1696777,26.6100532 64.9506536,26.8310945 64.9563241,27.0967693 C64.9612858,27.3050583 65.103049,27.477924 65.2965558,27.5395605" id="Fill-95"></path>
                        <path d="M67.7679846,27.4840168 C67.6758385,27.4152956 67.6141715,27.3104426 67.6120451,27.1885865 C67.6070833,26.9760467 67.7828697,26.7982217 68.0040203,26.792554 C68.2159563,26.7875947 68.3910338,26.9427488 68.4087542,27.1425362 C68.4193865,27.1021536 68.4264746,27.0603541 68.4257658,27.0164292 C68.4208041,26.7507545 68.1932742,26.5410486 67.9175447,26.5481332 C67.6418153,26.5545094 67.4220824,26.7755508 67.4284617,27.0412256 C67.4320058,27.2495146 67.5744778,27.4223803 67.7679846,27.4840168" id="Fill-97"></path>
                        <path d="M70.4063395,27.4644631 C70.3141934,27.3957419 70.2525264,27.290889 70.2504,27.1690328 C70.2454383,26.9557846 70.4219335,26.7786681 70.6430841,26.7730003 C70.8543112,26.7680411 71.02868,26.9231951 71.0471092,27.1229825 C71.0577414,27.0826 71.0648296,27.0408005 71.0641208,26.9968756 C71.0591591,26.7312008 70.8309203,26.5214949 70.5551909,26.5285796 C70.2801703,26.5349558 70.0611461,26.7559972 70.0668166,27.0216719 C70.0703607,27.2306694 70.2121239,27.4028266 70.4063395,27.4644631" id="Fill-99"></path>
                        <path d="M19.8891645,27.4886927 L20.0075368,26.9580517 L23.497038,27.0182713 C24.0378646,27.0161459 23.6161191,26.7192986 23.6161191,26.7192986 L19.7367691,26.6612044 L19.7084164,27.356918 C19.7091252,27.5219906 19.8891645,27.4886927 19.8891645,27.4886927" id="Fill-101"></path>
                        <path d="M73.5926801,27.4138078 L73.7075083,26.8824583 L77.1963007,26.9122139 C77.7378361,26.9065462 77.3132553,26.6132413 77.3132553,26.6132413 L73.4339053,26.5877365 L73.4112232,27.2834501 C73.4133497,27.4485227 73.5926801,27.4138078 73.5926801,27.4138078" id="Fill-103"></path>
                        <path d="M48.3516004,28.0260641 C48.3785354,28.048735 48.4104321,28.059362 48.4423288,28.059362 C48.4884018,28.059362 48.5344749,28.0366911 48.5635363,27.9927662 C48.6145711,27.9190858 48.6011036,27.8142328 48.5337661,27.758264 L47.4797567,26.8875593 L49.8727195,26.9534466 L49.8762636,26.9534466 C49.9584862,26.9534466 50.0258238,26.8818916 50.0279502,26.7904994 C50.0300767,26.6976904 49.9641568,26.6211761 49.8805165,26.6190507 L47.0126469,26.5397025 C46.9438918,26.538994 46.8871865,26.5836274 46.8652132,26.6523486 C46.8439487,26.7210698 46.8645044,26.7968756 46.9176656,26.8408005 L48.3516004,28.0260641 Z" id="Fill-105"></path>
                        <path d="M9.59453346,36.5136991 C3.65961704,34.1835545 0.396228148,30.1056243 0.396228148,30.1056243 C0.0992342409,35.9306316 9.59453346,36.5136991 9.59453346,36.5136991" id="Fill-107"></path>
                    </g>
                    <g id="Group-113" transform="translate(2.126448, 68.721200)">
                        <mask id="mask-2" fill="white">
                            <use xlink:href="#path-1"></use>
                        </mask>
                        <g id="Clip-111"></g>
                        <polygon id="Fill-112" fill="#564841" mask="url(#mask-2)" points="-0.127586881 7.01097937 10.5741172 7.01097937 10.5741172 -0.119730751 -0.127586881 -0.119730751"></polygon>
                    </g>
                    <g id="Group-118" transform="translate(2.126448, 68.721200)">
                        <mask id="mask-4" fill="white">
                            <use xlink:href="#path-3"></use>
                        </mask>
                        <g id="Clip-115"></g>
                        <polygon id="Fill-114" fill="#564841" mask="url(#mask-4)" points="-4.92839769 -4.96634654 14.9120711 -4.96634654 14.9120711 12.0758027 -4.92839769 12.0758027"></polygon>
                        <polygon id="Fill-116" fill="#564841" mask="url(#mask-4)" points="-0.127586881 7.01097937 10.5741172 7.01097937 10.5741172 -0.119730751 -0.127586881 -0.119730751"></polygon>
                        <polygon id="Fill-117" fill="#564841" mask="url(#mask-4)" points="-10.8739464 -10.9089592 20.8576198 -10.9089592 20.8576198 18.0184153 -10.8739464 18.0184153"></polygon>
                    </g>
                    <path d="M6.97340275,77.5177265 C1.63247414,76.9353675 0.445207334,73.4397963 0.445207334,73.4397963 C-1.63162357,78.6831531 6.97340275,77.5177265 6.97340275,77.5177265" id="Fill-119" fill="#564841"></path>
                    <g id="Group-124" transform="translate(0.000000, 72.971996)">
                        <mask id="mask-6" fill="white">
                            <use xlink:href="#path-5"></use>
                        </mask>
                        <g id="Clip-122"></g>
                        <polygon id="Fill-123" fill="#564841" mask="url(#mask-6)" points="-0.379216563 6.32518429 7.9444098 6.32518429 7.9444098 0.382571631 -0.379216563 0.382571631"></polygon>
                    </g>
                    <g id="Group-129" transform="translate(0.000000, 72.971996)">
                        <mask id="mask-8" fill="white">
                            <use xlink:href="#path-7"></use>
                        </mask>
                        <g id="Clip-126"></g>
                        <polygon id="Fill-125" fill="#564841" mask="url(#mask-8)" points="-5.19562133 -4.84874119 12.2908696 -4.84874119 12.2908696 9.97307564 -5.19562133 9.97307564"></polygon>
                        <polygon id="Fill-127" fill="#564841" mask="url(#mask-8)" points="-0.379216563 6.32518429 7.9444098 6.32518429 7.9444098 0.382571631 -0.379216563 0.382571631"></polygon>
                        <polygon id="Fill-128" fill="#564841" mask="url(#mask-8)" points="-11.14117 -10.7913538 18.2357094 -10.7913538 18.2357094 15.9156883 -11.14117 15.9156883"></polygon>
                    </g>
                    <path d="M87.2618424,76.2067811 C88.0216931,77.6973935 91.1546599,77.88372 91.1546599,77.88372 C99.7029809,77.3247404 100.652794,68.5603077 100.652794,68.5603077 C96.8535406,77.88372 87.2618424,76.2067811 87.2618424,76.2067811" id="Fill-130" fill="#564841"></path>
                    <g id="Group-135" transform="translate(87.184369, 68.012734)">
                        <mask id="mask-10" fill="white">
                            <use xlink:href="#path-9"></use>
                        </mask>
                        <g id="Clip-133"></g>
                        <polygon id="Fill-134" fill="#564841" mask="url(#mask-10)" points="-0.759850759 10.0963487 13.5093243 10.0963487 13.5093243 -0.600070687 -0.759850759 -0.600070687"></polygon>
                    </g>
                    <g id="Group-140" transform="translate(87.184369, 68.012734)">
                        <mask id="mask-12" fill="white">
                            <use xlink:href="#path-11"></use>
                        </mask>
                        <g id="Clip-137"></g>
                        <polygon id="Fill-136" fill="#564841" mask="url(#mask-12)" points="-5.24027674 -4.76868453 18.7857506 -4.76868453 18.7857506 15.1880937 -5.24027674 15.1880937"></polygon>
                        <polygon id="Fill-138" fill="#564841" mask="url(#mask-12)" points="-0.759850759 10.0963487 13.5093243 10.0963487 13.5093243 -0.600070687 -0.759850759 -0.600070687"></polygon>
                        <polygon id="Fill-139" fill="#564841" mask="url(#mask-12)" points="-11.1858254 -10.7112972 24.7312993 -10.7112972 24.7312993 21.1307064 -11.1858254 21.1307064"></polygon>
                    </g>
                    <path d="M90.7757269,80.0291676 C92.200447,81.2406444 93.529477,81.1471269 93.529477,81.1471269 C97.8979101,81.1471269 99.038395,76.3926117 99.038395,76.3926117 C95.2391412,80.9608003 90.7757269,80.0291676 90.7757269,80.0291676" id="Fill-141" fill="#564841"></path>
                    <g id="Group-146" transform="translate(90.728449, 75.805860)">
                        <mask id="mask-14" fill="white">
                            <use xlink:href="#path-13"></use>
                        </mask>
                        <g id="Clip-144"></g>
                        <polygon id="Fill-145" fill="#564841" mask="url(#mask-14)" points="-0.736459831 5.86822374 8.77655979 5.86822374 8.77655979 -0.0743889282 -0.736459831 -0.0743889282"></polygon>
                    </g>
                    <g id="Group-151" transform="translate(90.728449, 75.805860)">
                        <mask id="mask-16" fill="white">
                            <use xlink:href="#path-15"></use>
                        </mask>
                        <g id="Clip-148"></g>
                        <polygon id="Fill-147" fill="#564841" mask="url(#mask-16)" points="-5.27004701 -4.73042737 13.6276965 -4.73042737 13.6276965 10.6595792 -5.27004701 10.6595792"></polygon>
                        <polygon id="Fill-149" fill="#564841" mask="url(#mask-16)" points="-0.736459831 5.86822374 8.77655979 5.86822374 8.77655979 -0.0743889282 -0.736459831 -0.0743889282"></polygon>
                        <polygon id="Fill-150" fill="#564841" mask="url(#mask-16)" points="-11.2155957 -10.67304 19.5732452 -10.67304 19.5732452 16.6021918 -11.2155957 16.6021918"></polygon>
                    </g>
                    <path d="M84.9764778,35.8166395 C94.41011,35.5913473 96.02054,41.2385296 96.02054,41.2385296 C95.3585059,36.2955625 91.7981231,35.2477413 88.8955215,35.2477413 C86.7570236,35.2477413 84.9764778,35.8166395 84.9764778,35.8166395" id="Fill-152" fill="#564841"></path>
                    <g id="Group-157" transform="translate(84.349105, 34.714833)">
                        <mask id="mask-18" fill="white">
                            <use xlink:href="#path-17"></use>
                        </mask>
                        <g id="Clip-155"></g>
                        <polygon id="Fill-156" fill="#564841" mask="url(#mask-18)" points="-0.302664435 6.55047648 12.7771173 6.55047648 12.7771173 -0.58023364 -0.302664435 -0.58023364"></polygon>
                    </g>
                    <g id="Group-162" transform="translate(84.349105, 34.714833)">
                        <mask id="mask-20" fill="white">
                            <use xlink:href="#path-19"></use>
                        </mask>
                        <g id="Clip-159"></g>
                        <polygon id="Fill-158" fill="#564841" mask="url(#mask-20)" points="-4.69023551 -4.78427078 16.988902 -4.78427078 16.988902 11.8398835 -4.69023551 11.8398835"></polygon>
                        <polygon id="Fill-160" fill="#564841" mask="url(#mask-20)" points="-0.302664435 6.55047648 12.7771173 6.55047648 12.7771173 -0.58023364 -0.302664435 -0.58023364"></polygon>
                        <polygon id="Fill-161" fill="#564841" mask="url(#mask-20)" points="-10.6357842 -10.7268834 22.9344507 -10.7268834 22.9344507 17.7817877 -10.6357842 17.7817877"></polygon>
                    </g>
                    <path d="M79.4548011,36.7212088 L81.2948875,36.4944997 C81.2948875,26.1055545 81.0645223,0.356358389 81.0645223,0.356358389 C79.4548011,19.3290774 79.4548011,36.7212088 79.4548011,36.7212088" id="Fill-163" fill="#564841"></path>
                    <g id="Group-168" transform="translate(79.387393, 0.000000)">
                        <mask id="mask-22" fill="white">
                            <use xlink:href="#path-21"></use>
                        </mask>
                        <g id="Clip-166"></g>
                        <polygon id="Fill-167" fill="#564841" mask="url(#mask-22)" points="-0.0971077929 37.6996003 2.28096991 37.6996003 2.28096991 -0.332270546 -0.0971077929 -0.332270546"></polygon>
                    </g>
                    <g id="Group-173" transform="translate(79.387393, 0.000000)">
                        <mask id="mask-24" fill="white">
                            <use xlink:href="#path-23"></use>
                        </mask>
                        <g id="Clip-170"></g>
                        <polygon id="Fill-169" fill="#564841" mask="url(#mask-24)" points="-5.25020016 -4.96067881 7.22496155 -4.96067881 7.22496155 42.0375376 -5.25020016 42.0375376"></polygon>
                        <polygon id="Fill-171" fill="#564841" mask="url(#mask-24)" points="-0.0971077929 37.6996003 2.28096991 37.6996003 2.28096991 -0.332270546 -0.0971077929 -0.332270546"></polygon>
                        <polygon id="Fill-172" fill="#564841" mask="url(#mask-24)" points="-11.1957488 -10.9032915 13.1698014 -10.9032915 13.1698014 47.9794418 -11.1957488 47.9794418"></polygon>
                    </g>
                    <path d="M10.4271796,32.429251 L11.3472228,32.8805439 C11.3472228,29.0406583 11.1175664,16.3924151 11.1175664,16.3924151 C9.96715804,24.7501883 10.4271796,32.429251 10.4271796,32.429251" id="Fill-174" fill="#564841"></path>
                    <g id="Group-179" transform="translate(9.923424, 16.294718)">
                        <mask id="mask-26" fill="white">
                            <use xlink:href="#path-25"></use>
                        </mask>
                        <g id="Clip-177"></g>
                        <polygon id="Fill-178" fill="#564841" mask="url(#mask-26)" points="-0.789621031 16.651076 1.58845667 16.651076 1.58845667 0.0120439217 -0.789621031 0.0120439217"></polygon>
                    </g>
                    <g id="Group-184" transform="translate(9.923424, 16.294718)">
                        <mask id="mask-28" fill="white">
                            <use xlink:href="#path-27"></use>
                        </mask>
                        <g id="Clip-181"></g>
                        <polygon id="Fill-180" fill="#564841" mask="url(#mask-28)" points="-4.90500676 -5.21856043 6.74154904 -5.21856043 6.74154904 21.9029343 -4.90500676 21.9029343"></polygon>
                        <polygon id="Fill-182" fill="#564841" mask="url(#mask-28)" points="-0.789621031 16.651076 1.58845667 16.651076 1.58845667 0.0120439217 -0.789621031 0.0120439217"></polygon>
                        <polygon id="Fill-183" fill="#564841" mask="url(#mask-28)" points="-10.8498466 -11.1611731 12.6870977 -11.1611731 12.6870977 27.845547 -10.8498466 27.845547"></polygon>
                    </g>
                    <path d="M15.2592492,28.3630105 C15.2592492,31.5256027 16.1792924,29.7190144 16.1792924,29.7190144 C16.4089488,26.3304216 16.1792924,7.13241044 16.1792924,7.13241044 C15.0281752,18.1993576 15.2592492,28.3630105 15.2592492,28.3630105" id="Fill-185" fill="#564841"></path>
                    <g id="Group-190" transform="translate(14.885136, 7.084660)">
                        <mask id="mask-30" fill="white">
                            <use xlink:href="#path-29"></use>
                        </mask>
                        <g id="Clip-188"></g>
                        <polygon id="Fill-189" fill="#564841" mask="url(#mask-30)" points="-0.995177673 24.6723279 2.57229329 24.6723279 2.57229329 -0.286220257 -0.995177673 -0.286220257"></polygon>
                    </g>
                    <g id="Group-195" transform="translate(14.885136, 7.084660)">
                        <mask id="mask-32" fill="white">
                            <use xlink:href="#path-31"></use>
                        </mask>
                        <g id="Clip-192"></g>
                        <polygon id="Fill-191" fill="#564841" mask="url(#mask-32)" points="-4.96171205 -5.26956998 6.71461403 -5.26956998 6.71461403 28.4647463 -4.96171205 28.4647463"></polygon>
                        <polygon id="Fill-193" fill="#564841" mask="url(#mask-32)" points="-0.995177673 24.6723279 2.57229329 24.6723279 2.57229329 -0.286220257 -0.995177673 -0.286220257"></polygon>
                        <polygon id="Fill-194" fill="#564841" mask="url(#mask-32)" points="-10.9072607 -11.2121826 12.6601627 -11.2121826 12.6601627 34.4073589 -10.9072607 34.4073589"></polygon>
                    </g>
                    <path d="M11.1174955,33.7839089 C11.1174955,33.7839089 6.77103578,35.3567033 6.97446598,38.2770001 C6.96099847,37.9071809 7.29697726,33.5975823 29.9840512,34.4619108 C29.9840512,34.4619108 27.4798042,33.59404 18.8194903,33.59404 C16.6547662,33.59404 14.1079903,33.6478834 11.1174955,33.7839089 M6.97588361,38.3017964 C6.97517479,38.2940033 6.97446598,38.2855017 6.97446598,38.2770001 C6.97446598,38.2932948 6.97588361,38.3017964 6.97588361,38.3017964" id="Fill-196" fill="#564841"></path>
                    <g id="Group-201" transform="translate(6.379344, 33.297901)">
                        <mask id="mask-34" fill="white">
                            <use xlink:href="#path-33"></use>
                        </mask>
                        <g id="Clip-199"></g>
                        <polygon id="Fill-200" fill="#564841" mask="url(#mask-34)" points="0.376381299 5.59050507 24.1585759 5.59050507 24.1585759 -0.352107593 0.376381299 -0.352107593"></polygon>
                    </g>
                    <g id="Group-206" transform="translate(6.379344, 33.297901)">
                        <mask id="mask-36" fill="white">
                            <use xlink:href="#path-35"></use>
                        </mask>
                        <g id="Clip-203"></g>
                        <polygon id="Fill-202" fill="#564841" mask="url(#mask-36)" points="-4.72992921 -5.02089842 28.9232371 -5.02089842 28.9232371 10.3209324 -4.72992921 10.3209324"></polygon>
                        <polygon id="Fill-204" fill="#564841" mask="url(#mask-36)" points="0.376381299 5.59050507 24.1585759 5.59050507 24.1585759 -0.352107593 0.376381299 -0.352107593"></polygon>
                        <polygon id="Fill-205" fill="#564841" mask="url(#mask-36)" points="-10.6754779 -10.9635111 34.868077 -10.9635111 34.868077 16.2628366 -10.6754779 16.2628366"></polygon>
                    </g>
                </g>
                <g id="Page-1" transform="translate(17.618182, 76.712121)">
                    <g id="Group-3">
                        <mask id="mask-38" fill="white">
                            <use xlink:href="#path-37"></use>
                        </mask>
                        <g id="Clip-2"></g>
                        <path d="M36.7545908,70.879967 C39.0320166,68.6107505 42.3343904,69.0429147 42.3343904,69.0429147 C40.1703751,67.6380267 37.0962401,69.5827658 37.0962401,69.5827658 C35.6162323,70.4478028 34.477165,70.5554896 34.477165,70.5554896 L34.3630456,70.5554896 C34.3630456,70.5554896 33.2246871,70.4478028 31.7439704,69.5827658 C31.7439704,69.5827658 28.6691266,67.6380267 26.5058202,69.0429147 C26.5058202,69.0429147 29.8081939,68.6107505 32.0856198,70.879967 C32.0856198,70.879967 32.9510841,72.2083407 34.3637544,72.2777704 L34.3630456,72.2841466 L34.4204597,72.2806043 L34.477165,72.2841466 L34.4764561,72.2777704 C35.8891264,72.2083407 36.7545908,70.879967 36.7545908,70.879967" id="Fill-1" fill="#564841" mask="url(#mask-38)"></path>
                    </g>
                    <g id="Group-6">
                        <mask id="mask-40" fill="white">
                            <use xlink:href="#path-39"></use>
                        </mask>
                        <g id="Clip-5"></g>
                        <path d="M39.8186606,5.66886141 L43.9574373,5.66602754 L43.9574373,15.4074348 L43.9347552,15.714909 L39.8186606,15.714909 L39.8186606,5.66886141 Z M45.9158959,5.66461061 C48.5413504,6.02238593 50.1652479,8.20091883 50.5203647,8.72305826 L50.657875,14.2186289 L49.5655895,14.2186289 L49.5655895,14.9929822 L48.1621338,14.9929822 L48.1621338,15.579592 L46.2610893,15.579592 L46.2610893,15.1282992 L45.0369641,15.1282992 L45.0369641,5.66531908 L45.9158959,5.66461061 Z M49.5655895,15.5321248 L49.5655895,24.4623385 L48.1118079,24.4623385 L48.1118079,18.2420072 L20.6820461,18.2412987 L20.6820461,24.4623385 L19.6386689,24.4623385 L19.6386689,15.5321248 L20.5027156,15.5321248 L20.5027156,16.1194431 L23.4818693,16.1194431 L23.4818693,15.6674418 L24.7251326,15.6674418 L24.7704968,16.2547601 L33.5704475,16.2547601 L34.554993,16.2547601 L44.4344705,16.2547601 L44.478417,15.6674418 L45.7216803,15.6674418 L45.7216803,16.1194431 L48.7015428,16.1194431 L48.7015428,15.5321248 L49.5655895,15.5321248 Z M19.6386689,14.9929822 L19.6386689,14.2186289 L18.5463835,14.2186289 L18.6831849,8.72234979 C19.0375929,8.20021036 20.6544023,6.0230944 23.2167721,5.66956987 L24.1672944,5.66956987 L24.1672944,15.1282992 L22.9424603,15.1282992 L22.9424603,15.579592 L21.0428334,15.579592 L21.0428334,14.9929822 L19.6386689,14.9929822 Z M29.384889,5.66956987 L29.384889,15.714909 L25.2702121,15.714909 L25.2468212,15.4145195 L25.2468212,5.66956987 L29.384889,5.66956987 Z M52.8240167,25.0021896 L52.8240167,25.244485 L16.4787672,25.244485 L16.4787672,25.0021896 L52.8240167,25.0021896 Z M11.7970374,26.7343889 C12.1060812,30.5423936 14.0893484,48.6677873 24.6521245,67.5547819 C24.353713,68.2370347 24.4061654,69.1155325 24.8569724,70.2009024 C24.893122,70.2873352 25.1263224,70.7761768 26.24129,72.1739801 C26.2625545,72.6174798 26.318551,73.6539656 26.4411761,75.0425589 C25.902476,73.8466683 24.8073552,73.2947733 24.1424858,73.1651241 L24.0708954,73.1509547 L23.9985962,73.1509547 C23.4988809,73.1509547 23.1019439,73.2891056 22.7744709,73.4917269 C14.2601731,56.5090888 9.46361515,32.4715465 8.39968232,26.7343889 L11.7970374,26.7343889 Z M56.1504902,26.7343889 C55.885393,29.9168181 54.5095812,42.3170982 48.4052577,56.8406509 C47.9501978,57.1318304 47.1556151,57.4683517 45.8804551,57.5972925 L23.2437071,57.5972925 C21.9260182,57.4641009 21.1200944,57.1077426 20.6728315,56.8116038 C14.5748874,42.290885 13.2026196,29.9019403 12.9403577,26.7343889 L56.1504902,26.7343889 Z M60.6904567,26.7343889 C59.6158917,32.5296407 54.7583756,56.8604879 46.1299583,73.8572953 C45.7521594,73.4555951 45.2177121,73.1509547 44.459279,73.1509547 L44.386271,73.1509547 L44.3153894,73.1651241 C43.8178005,73.2621839 43.084176,73.6036645 42.5171232,74.2632463 C42.5950929,73.2706855 42.6354954,72.5289216 42.652507,72.1739801 C43.7674746,70.7761768 43.9999662,70.2866268 44.0382423,70.1973601 C44.4451027,69.2175516 44.540084,68.3978565 44.3338186,67.7446508 C54.972438,48.8179821 56.9783873,30.5941116 57.2938104,26.7343889 L60.6904567,26.7343889 Z M45.4565831,75.5795761 C45.4487862,76.0181166 45.3268698,80.0252002 43.4952892,86.2412807 C43.3386409,86.6479402 41.9635379,90.4176877 42.6071428,96.1420928 C42.6858214,99.6213692 42.7737146,108.91786 42.2548612,110.606843 L42.2293439,110.689733 L42.2265086,110.774041 C42.2187116,111.001458 42.0301666,114.800961 39.2799605,117.09214 C40.402725,115.809817 41.3560825,113.853742 41.6410266,110.817257 L40.9031491,93.1318208 C40.9031491,93.1318208 40.9952952,89.5427322 41.8260276,87.1785812 C41.8260276,87.1785812 43.2096364,81.9253059 43.4860746,75.2721019 L43.484657,75.2721019 C43.8362297,74.749254 44.3430332,74.5615105 44.5372488,74.5062502 C45.256697,74.5615105 45.426104,75.3840395 45.4565831,75.5795761 L45.4565831,75.5795761 Z M34.4033063,118.158382 C31.5226781,117.876412 33.1614607,94.2703257 33.1614607,94.2703257 L34.4025975,93.8282429 L35.6444432,94.2703257 C35.6444432,94.2703257 37.2832258,117.876412 34.4033063,118.158382 L34.4033063,118.158382 Z M29.3132986,73.2791871 L29.843493,80.9950901 C29.9980149,83.2331341 30.6976163,84.8285995 31.9231591,85.7389783 C32.8169761,86.4021025 33.7625367,86.5161655 34.3069074,86.5161655 L34.4189003,86.5112062 L34.5308932,86.5161655 C35.0759727,86.5161655 36.0215333,86.4021025 36.9146414,85.7389783 C38.1394755,84.8285995 38.8397857,83.2331341 38.9943076,80.9943816 L39.524502,73.2791871 C39.9582974,73.2196759 40.5565381,73.082942 41.1880931,72.8101826 C40.9726131,76.2349072 39.9512092,88.473657 36.2200018,91.5632772 C35.66429,92.02378 35.0951108,92.2264013 34.4756056,92.1838934 L34.4748967,92.1789341 L34.4465441,92.181768 L34.4181915,92.1789341 L34.4181915,92.1838934 C33.7986863,92.2256929 33.229507,92.02378 32.6737953,91.5632772 C28.9503848,88.4807417 27.9254369,76.2937098 27.7071215,72.8349789 C28.3174121,73.0907351 28.8929707,73.2210929 29.3132986,73.2791871 L29.3132986,73.2791871 Z M38.1302609,66.1626463 C35.2432533,63.7864514 32.3583722,65.0227245 31.0286333,66.1711479 L26.6587826,66.2979633 C26.5715983,66.2979633 25.9875339,66.3163834 25.4353662,66.6436947 C24.1559533,64.3298448 23.0048361,62.0308727 21.9713824,59.7687408 C21.8813628,58.9986383 22.5306382,58.753509 23.043821,58.6791201 L46.0803412,58.6791201 C46.5736772,58.7506752 47.1896383,58.9816351 47.1584504,59.6815995 C46.1008969,62.0018256 44.9207182,64.3617258 43.6037381,66.7357953 C43.1316666,66.4006909 42.6000546,66.3206342 42.3576396,66.3029225 L41.8579243,66.1598124 L38.1302609,66.1626463 Z M29.9739151,71.9784435 C29.9420184,71.9713589 27.7510681,71.989779 26.5361575,70.1909839 L26.5085137,70.207987 C26.256884,69.8487948 26.1817495,69.7021423 26.1817495,69.7021423 C25.8457707,68.8930742 25.7826861,68.2731664 26.0031278,67.9564821 C26.2058492,67.6653026 26.6623267,67.6504248 26.6800471,67.6504248 L31.6375063,67.5066062 L31.83881,67.3082358 C31.9451324,67.2033828 34.4791496,64.7719276 37.371119,67.3330321 L37.5766756,67.5158163 L41.6481147,67.5129824 L42.1308184,67.6482994 L42.2257998,67.6504248 C42.2307615,67.6504248 42.687239,67.6653026 42.8906692,67.9564821 C43.111111,68.2731664 43.0480263,68.8930742 42.7205534,69.6830137 C42.7155916,69.6929323 42.6354954,69.8509202 42.3682718,70.2313664 L42.3009343,70.1909839 C41.1136675,71.9501049 38.9999781,71.9784435 38.8674295,71.9784435 L38.8638855,71.9784435 L38.1862574,71.9692335 L37.5724227,80.9058234 C37.4483799,82.7032016 36.9245649,84.0004028 36.0569741,84.6578592 C35.4566069,85.1134029 34.8278871,85.1693717 34.5167169,85.1644124 L34.5145904,85.1537854 L34.4224444,85.1615785 L34.316122,85.1523685 L34.3139955,85.1651209 C34.007787,85.1679547 33.3918259,85.1119859 32.8013822,84.6734455 C31.9217415,84.0202398 31.3908383,82.7180794 31.2653779,80.9058234 L30.6508344,71.9692335 L29.9739151,71.9784435 Z M26.2306578,110.775458 L26.2278225,110.689733 L26.2023051,110.606843 C25.6834518,108.91786 25.7720538,99.6220777 25.8500236,96.1420928 C26.4936285,90.4176877 25.1192343,86.6479402 24.9618771,86.2412807 C23.1288789,80.0181155 23.0083802,76.009615 23.0012921,75.5781592 C23.0282271,75.3975004 23.1926724,74.5629274 23.9192088,74.5062502 C24.2395936,74.5983507 25.3375496,75.0269727 25.3375496,76.6068518 L25.3914196,76.6068518 C25.779142,82.6139349 26.9805851,87.1785812 26.9805851,87.1785812 C27.8106087,89.5427322 27.9027547,93.1318208 27.9027547,93.1318208 L27.1648773,110.817257 C27.5093619,114.487111 28.8256332,116.58913 30.2446828,117.809816 C26.4787434,115.719842 26.2398724,111.02838 26.2306578,110.775458 L26.2306578,110.775458 Z M34.554993,15.714909 L33.5704475,15.714909 L30.4644158,15.714909 L30.4644158,4.59057618 L23.1437641,4.59482698 C19.6478835,5.07162458 17.7631418,8.14849235 17.6844632,8.27885009 L17.612164,8.4014147 L17.4661479,14.2186289 L16.65668,14.2186289 L16.65668,24.4623385 L15.9393582,24.4623385 L15.9393582,25.244485 L6.37105091,25.244485 L6.37105091,26.5856111 L6.34695117,26.5856111 L6.37105091,26.7159688 L6.37105091,26.7343889 L6.37388617,26.7343889 C7.34283766,32.0188367 12.4037839,57.9168107 21.5779895,75.4973941 L21.5751542,75.5406105 C21.5751542,75.6567989 21.5879129,77.5951618 22.2123798,80.9277858 L22.0507698,80.5955153 C22.0514786,80.7740487 22.1528393,100.827887 21.5269548,120.375172 C21.1987729,120.75916 20.7571806,121.459125 20.6380995,122.533868 L20.632429,122.633053 C20.632429,122.781122 20.6572375,123.891288 21.3781034,124.628093 C21.3206893,126.141376 21.2590223,127.63624 21.1945201,129.077259 C20.7040194,129.48817 20.0022915,130.269608 20.0448205,131.34931 C20.03915,131.662452 20.0717555,133.047503 21.0173161,133.842402 C20.9676989,134.786078 20.9159554,135.619943 20.8613765,136.49419 L20.8067977,137.379064 C19.8959691,138.416966 18.9553703,140.45664 20.4360869,142.50269 C20.4134048,142.714521 20.3815081,143.012785 20.3425232,143.386855 C21.1342707,155.472577 21.7509406,143.498084 22.3626488,143.246579 C22.4228982,142.672722 22.4597566,142.342576 22.4611743,142.332658 L22.504412,141.942293 L22.2442766,141.636944 C20.8932733,140.05494 22.3201199,138.598334 22.4831476,138.442471 L22.7560417,138.186715 L22.797153,137.520049 C23.5995328,138.390753 24.2147851,137.921749 24.2147851,137.921749 C24.4756293,135.712043 23.8270627,135.677329 23.8270627,135.677329 C23.5286512,135.546971 23.2295308,135.286964 22.9509661,134.989408 C22.9736482,134.589833 22.9970392,134.187425 23.0190125,133.753135 L23.1125762,132.723734 L22.41581,132.466561 C22.1719773,132.377294 22.0302141,131.755969 22.0394287,131.372689 L22.0415552,131.33089 L22.0387199,131.289799 C22.0160378,130.878888 22.5285118,130.465853 22.7035893,130.356749 L23.1458905,130.092491 L23.1756608,129.432201 C23.1855842,129.218244 23.19409,128.995077 23.2040134,128.778995 C23.8242274,129.294758 24.3118928,128.963905 24.3118928,128.963905 C24.7031593,126.771203 24.0574279,126.701065 24.0574279,126.701065 C23.8022541,126.573541 23.5513333,126.34754 23.317424,126.083282 C23.3386885,125.552641 23.359953,125.022709 23.3797998,124.488525 L23.4287081,123.637658 L22.8609465,123.35498 C22.7673828,123.309638 22.6447576,122.97595 22.6291637,122.674852 C22.7369037,121.851615 23.1345495,121.500924 23.1331318,121.500924 L23.4939192,121.262171 L23.5095131,120.788916 C23.5222718,120.386507 23.5343217,119.987641 23.5463716,119.587358 C24.2197468,120.246231 24.7669527,119.877829 24.7669527,119.877829 C25.1582192,117.684418 24.5131966,117.614988 24.5131966,117.614988 C24.2027352,117.459126 23.9000707,117.154485 23.625759,116.815839 C23.9681171,103.802735 23.8851856,92.5586719 23.8135952,87.2898104 C24.1864324,88.5473375 24.9186394,91.7163058 24.4302651,96.0259044 L24.4260122,96.0839986 C24.3969508,97.3627797 24.1637503,108.522536 24.8108993,110.905107 C24.8754016,111.848784 25.6933752,119.930964 34.1098565,120.144212 L34.1098565,120.160507 L34.2289376,120.152713 L34.3480187,120.160507 L34.3480187,120.144212 C42.7637911,119.930964 43.5817648,111.848784 43.6462671,110.905107 C44.2941249,108.523244 44.0609244,97.3627797 44.0311541,96.0839986 L44.0276101,96.0259044 C43.6604434,92.7931741 43.9822458,90.2030225 44.3224775,88.5778015 C44.3040483,93.8806694 44.3267304,104.394305 44.671215,116.819381 C44.3969032,117.156611 44.0956564,117.459834 43.7859038,117.614988 C43.7859038,117.614988 43.1408812,117.684418 43.5321477,119.877829 C43.5321477,119.877829 44.0793536,120.246231 44.75202,119.588066 C44.7647787,119.987641 44.7768286,120.385799 44.7895873,120.788916 L44.7364261,121.21187 L45.1447041,121.483921 C45.1624245,121.498799 45.5621967,121.848781 45.6699368,122.673435 C45.653634,122.979493 45.5310088,123.309638 45.4388627,123.35498 L44.8703923,123.637658 L44.9185918,124.470814 C44.9391475,125.01279 44.9604119,125.546973 44.9823852,126.083282 C44.7484759,126.34754 44.4968463,126.573541 44.2416725,126.701065 C44.2416725,126.701065 43.5966499,126.771203 43.9879164,128.963905 C43.9879164,128.963905 44.4755818,129.294758 45.0957958,128.778995 C45.1050104,128.995077 45.114225,129.218244 45.1241484,129.432201 L45.1610069,130.087532 L45.5891317,130.353207 C45.7705886,130.465853 46.2837714,130.878888 46.2603805,131.289799 L46.258254,131.33089 L46.2596717,131.372689 C46.2717215,131.70496 46.1384641,132.373043 45.8832904,132.466561 L45.1872331,132.723734 L45.280088,133.753135 C45.3020612,134.188133 45.3254522,134.589833 45.3488431,134.989408 C45.0702784,135.286964 44.7711581,135.546971 44.4720377,135.677329 C44.4720377,135.677329 43.8234711,135.712043 44.0843153,137.921749 C44.0843153,137.921749 44.7002765,138.390753 45.5026562,137.51934 L45.5437675,138.186715 L45.8166617,138.442471 C45.8839992,138.504816 47.4490649,140.005347 46.0555327,141.636944 L45.7946884,141.942293 L45.838635,142.332658 C45.8400526,142.343993 45.8882521,142.781117 45.9662218,143.529257 C46.1271231,151.391812 48.6015998,147.558303 48.0756583,144.549448 C47.9813858,143.614981 47.9062513,142.900848 47.8630135,142.50269 C49.3437301,140.45664 48.4031313,138.416966 47.4930115,137.379064 L47.4384327,136.49419 C47.3838539,135.619943 47.3321103,134.786078 47.2824932,133.842402 C48.2273449,133.047503 48.2599504,131.662452 48.2549887,131.34931 C48.2961001,130.269608 47.5957898,129.48817 47.1045804,129.077259 C47.0400781,127.64049 46.9791199,126.150586 46.920997,124.628093 C47.6418629,123.891288 47.6666714,122.781122 47.6666714,122.633053 L47.6610009,122.533868 C47.5419198,121.459125 47.1003275,120.75916 46.7728545,120.375172 C46.2284838,103.340816 46.088847,86.1137568 46.0633296,81.8495001 C46.6048651,79.2246336 46.7891572,77.3330294 46.8501154,76.3397601 L47.506479,75.509438 C56.7586544,57.786453 61.8344858,31.575337 62.7438967,26.5856111 L62.5716544,26.5856111 L62.5716544,25.244485 L53.3634257,25.244485 L53.3634257,24.4623385 L52.5475785,24.4623385 L52.5475785,14.2186289 L51.7381106,14.2186289 L51.5913857,8.4014147 L51.5183776,8.27885009 C51.4404079,8.14849235 49.5556661,5.07162458 45.9881951,4.59057618 L38.7391338,4.59057618 L38.7391338,15.714909 L34.554993,15.714909 Z" id="Fill-4" fill="#564841" mask="url(#mask-40)"></path>
                    </g>
                </g>
            </g>
        </g>
    </g>
</svg>