<?xml version="1.0" encoding="UTF-8" standalone="no"?>
<svg width="42px" height="36px" viewBox="0 0 42 36" version="1.1" xmlns="http://www.w3.org/2000/svg" xmlns:xlink="http://www.w3.org/1999/xlink" xmlns:sketch="http://www.bohemiancoding.com/sketch/ns">
    <!-- Generator: Sketch 3.4.2 (15855) - http://www.bohemiancoding.com/sketch -->
    <title>OR</title>
    <desc>Created with Sketch.</desc>
    <defs></defs>
    <g id="MEMBERSHIP" stroke="none" stroke-width="1" fill="none" fill-rule="evenodd" sketch:type="MSPage">
        <g id="OR" sketch:type="MSArtboardGroup" fill="#9B9B9B">
            <path d="M23.418,17.812 C21.806,20.646 19.544,22.284 16.918,21.452 C15.774,23.142 14.266,24.338 12.472,24.338 C10.964,24.338 9.586,23.428 9.586,21.062 C9.586,17.76 12.264,10.168 16.762,10.168 C18.296,10.168 19.648,11.13 19.648,13.444 C19.648,15.108 18.946,17.838 17.724,20.1 C19.128,20.568 20.844,19.71 22.404,17.084 C23.184,15.758 24.042,13.964 24.796,12.3 C24.328,11.806 24.016,11.234 24.016,10.61 C24.016,9.414 25.212,8.296 26.278,7.958 L27.578,8.972 L26.538,11.364 C27.578,12.404 29.242,13.392 29.242,14.978 C29.242,15.29 29.164,15.732 28.93,16.304 L27.63,19.554 C26.434,22.518 27.084,22.882 27.5,22.882 C28.592,22.882 30.074,20.776 32.258,17.084 C32.596,17.058 33.168,17.448 33.272,17.812 C31.244,21.27 29.346,24.338 27.006,24.338 C24.952,24.338 24.042,22.674 25.888,18.228 L26.876,15.81 C27.084,15.29 27.11,15.03 27.11,14.926 C27.11,14.406 26.616,13.99 25.732,13.236 C25.108,14.562 24.328,16.226 23.418,17.812 Z M12.68,22.778 C11.952,22.778 11.484,22.154 11.484,21.114 C11.484,18.54 14.292,11.728 16.658,11.728 C17.282,11.728 17.75,12.196 17.75,13.314 C17.75,14.432 17.256,16.252 16.528,18.046 C15.644,17.838 14.864,18.566 14.864,19.45 C14.864,19.892 15.02,20.256 15.28,20.516 C14.474,21.842 13.538,22.778 12.68,22.778 L12.68,22.778 Z" id="or" sketch:type="MSShapeGroup"></path>
        </g>
    </g>
</svg>
