<?xml version="1.0" encoding="UTF-8" standalone="no"?>
<svg width="251px" height="138px" viewBox="0 0 251 138" version="1.1" xmlns="http://www.w3.org/2000/svg" xmlns:xlink="http://www.w3.org/1999/xlink" xmlns:sketch="http://www.bohemiancoding.com/sketch/ns">
    <!-- Generator: Sketch 3.4.1 (15681) - http://www.bohemiancoding.com/sketch -->
    <title>Page 1</title>
    <desc>Created with Sketch.</desc>
    <defs>
        <path id="path-1" d="M0,0.44490625 L250.454971,0.44490625 L250.454971,138 L0,138 L0,0.44490625 Z"></path>
        <path id="path-3" d="M0,0.44490625 L250.454971,0.44490625 L250.454971,138 L0,138"></path>
        <path id="path-5" d="M0,0.44490625 L250.454971,0.44490625 L250.454971,138 L0,138 L0,0.44490625 Z"></path>
    </defs>
    <g id="GIFT-2.0" stroke="none" stroke-width="1" fill="none" fill-rule="evenodd" sketch:type="MSPage">
        <g id="01_LANDINGPAGE" sketch:type="MSArtboardGroup" transform="translate(-821.000000, -1721.000000)">
            <g id="HIW" sketch:type="MSLayerGroup" transform="translate(-0.000000, 1531.000000)">
                <g id="3_IMG-+-3_COPY" transform="translate(821.000000, 190.000000)">
                    <g id="Page-1">
                        <path d="M102.810532,79.8332156 C102.885115,79.8684344 102.963284,79.8849656 103.039301,79.8849656 C103.241535,79.8849656 103.435164,79.7706844 103.526958,79.5759031 C103.653892,79.3063719 103.538432,78.9850906 103.270221,78.8585906 L100.596712,77.5950281 L100.666275,74.9025906 C100.674164,74.6043094 100.438941,74.3570594 100.142044,74.3498719 C100.137024,74.3491531 100.132721,74.3491531 100.128418,74.3491531 C99.837258,74.3491531 99.5984494,74.5813094 99.5905609,74.8745594 L99.5331894,77.0926219 L97.4455866,76.1050594 C97.1752237,75.9778406 96.855378,76.0942781 96.7291609,76.3630906 C96.6022266,76.6319031 96.7176866,76.9531844 96.985898,77.0804031 L99.5030694,78.2699344 L99.4284866,81.1758406 C99.420598,81.4741219 99.6558209,81.7213719 99.952718,81.7285594 C99.9570209,81.7292781 99.9620409,81.7292781 99.9663437,81.7292781 C100.256787,81.7292781 100.496312,81.4964031 100.504201,81.2038719 L100.566592,78.7730594 L102.810532,79.8332156 Z" id="Fill-1" fill="#4C4139" sketch:type="MSShapeGroup"></path>
                        <path d="M109.177327,82.8303313 L111.694498,84.0198625 L111.619915,86.9257688 C111.612744,87.22405 111.847249,87.4713 112.144147,87.4784875 C112.149167,87.4792063 112.153469,87.4792063 112.157772,87.4792063 C112.448932,87.4792063 112.688458,87.24705 112.695629,86.9538 L112.758021,84.5229875 L115.001961,85.5831438 C115.076544,85.6183625 115.154712,85.6348938 115.230729,85.6348938 C115.432964,85.6348938 115.626592,85.5206125 115.718387,85.3258313 C115.845321,85.0563 115.729861,84.7350188 115.461649,84.6085188 L112.788141,83.3449563 L112.857704,80.6525188 C112.865592,80.3542375 112.630369,80.1069875 112.333472,80.0998 C112.329169,80.0990813 112.324149,80.0990813 112.319847,80.0990813 C112.029404,80.0990813 111.789878,80.3312375 111.781989,80.6244875 L111.724618,82.84255 L109.637015,81.8557063 C109.366652,81.72705 109.046807,81.8434875 108.920589,82.1130188 C108.793655,82.3818313 108.909115,82.7031125 109.177327,82.8303313" id="Fill-3" fill="#4C4139" sketch:type="MSShapeGroup"></path>
                        <path d="M107.572863,88.9207313 L104.900071,87.6571688 L104.968917,84.9647313 C104.976806,84.6671688 104.7423,84.4192 104.445403,84.4120125 L104.43106,84.4120125 C104.140617,84.4120125 103.901091,84.6441688 103.893203,84.9367 L103.836549,87.1547625 L101.748229,86.1679188 C101.477866,86.0399813 101.158737,86.1564188 101.031803,86.4252313 C100.904869,86.6947625 101.020329,87.0160438 101.28854,87.1425438 L103.806429,88.3327938 L103.731846,91.2387 C103.723957,91.5362625 103.958463,91.7835125 104.25536,91.7914188 L104.269703,91.7914188 C104.560146,91.7914188 104.799671,91.5592625 104.80756,91.2667313 L104.869951,88.8352 L107.113174,89.8953563 C107.187757,89.930575 107.265926,89.9471063 107.34266,89.9471063 C107.544177,89.9471063 107.737806,89.8335438 107.8296,89.6380438 C107.956534,89.3692313 107.841074,89.04795 107.572863,88.9207313" id="Fill-5" fill="#4C4139" sketch:type="MSShapeGroup"></path>
                        <path d="M108.58762,96.79895 L111.104791,97.9892 L111.030209,100.894388 C111.023037,101.192669 111.257543,101.439919 111.55444,101.447106 C111.55946,101.447825 111.563763,101.447825 111.568066,101.447825 C111.859226,101.447825 112.098751,101.215669 112.105923,100.922419 L112.168314,98.4916063 L114.412254,99.5524813 C114.486837,99.5869813 114.565006,99.6035125 114.641023,99.6035125 C114.843257,99.6035125 115.036886,99.48995 115.12868,99.29445 C115.255614,99.0256375 115.140154,98.7043563 114.871943,98.5771375 L112.198434,97.313575 L112.267997,94.6211375 C112.275886,94.323575 112.040663,94.0756063 111.743766,94.0684188 L111.73014,94.0684188 C111.439697,94.0684188 111.200171,94.300575 111.192283,94.5931063 L111.134911,96.8111688 L109.047309,95.824325 C108.776229,95.69495 108.4571,95.812825 108.330883,96.0816375 C108.203949,96.35045 108.319409,96.6717313 108.58762,96.79895" id="Fill-7" fill="#4C4139" sketch:type="MSShapeGroup"></path>
                        <path d="M44.9551757,60.834425 L45.0175671,58.4028938 L47.2615071,59.4637688 C47.3353729,59.4989875 47.4142586,59.5155188 47.4902757,59.5155188 C47.6917929,59.5155188 47.8861386,59.4012375 47.9779329,59.2057375 C48.1048671,58.936925 47.98869,58.6156438 47.7204786,58.488425 L45.0476871,57.2255813 L45.11725,54.5331438 C45.1244214,54.2348625 44.8899157,53.9876125 44.5930186,53.980425 C44.5879986,53.9797063 44.5829786,53.9797063 44.5793929,53.9797063 C44.2882329,53.9797063 44.0487071,54.2125813 44.0415357,54.5051125 L43.9841643,56.7224563 L41.8958443,55.7356125 C41.6254814,55.607675 41.3063529,55.7241125 41.1794186,55.9936438 C41.0532014,56.2624563 41.1686614,56.5837375 41.4368729,56.7109563 L43.9540443,57.9004875 L43.8794614,60.8063938 C43.8715729,61.1039563 44.1060786,61.351925 44.4029757,61.3591125 L44.4173186,61.3591125 C44.7077614,61.3591125 44.9472871,61.1269563 44.9551757,60.834425" id="Fill-9" fill="#4C4139" sketch:type="MSShapeGroup"></path>
                        <path d="M46.692024,49.9808688 L49.2091954,51.1704 L49.1346126,54.0763063 C49.1274411,54.3745875 49.3619469,54.6218375 49.658844,54.629025 C49.663864,54.6297438 49.6681669,54.6297438 49.6724697,54.6297438 C49.9636297,54.6297438 50.2031554,54.3975875 50.2103269,54.1043375 L50.2727183,51.673525 L52.5166583,52.7336813 C52.5912411,52.7689 52.6694097,52.7854313 52.7454269,52.7854313 C52.9476611,52.7854313 53.1412897,52.67115 53.233084,52.4763688 C53.3600183,52.2068375 53.2445583,51.8855563 52.9763469,51.7590563 L50.3028383,50.4954938 L50.3724011,47.8030563 C50.3802897,47.504775 50.1450669,47.257525 49.8481697,47.2503375 C49.8438669,47.2496188 49.8388469,47.2496188 49.834544,47.2496188 C49.5441011,47.2496188 49.3045754,47.481775 49.2966869,47.775025 L49.2393154,49.9930875 L47.1517126,49.0062438 C46.8820669,48.8775875 46.5607869,48.994025 46.4352869,49.2635563 C46.3083526,49.5323688 46.4238126,49.85365 46.692024,49.9808688" id="Fill-11" fill="#4C4139" sketch:type="MSShapeGroup"></path>
                        <path d="M51.224582,69.0227844 L48.5510734,67.7592219 L48.6199191,65.0675031 C48.6278077,64.7692219 48.393302,64.5219719 48.0964049,64.5147844 C48.0913849,64.5140656 48.0863649,64.5140656 48.082062,64.5140656 C47.7916191,64.5140656 47.5520934,64.7462219 47.5442049,65.0394719 L47.4875506,67.2568156 L45.3999477,66.2699719 C45.1295849,66.1420344 44.8097391,66.2584719 44.683522,66.5272844 C44.5565877,66.7968156 44.6720477,67.1180969 44.9402591,67.2445969 L47.4574306,68.4341281 L47.3828477,71.3407531 C47.3749591,71.6383156 47.6094649,71.8855656 47.906362,71.8934719 L47.9207049,71.8934719 C48.2111477,71.8934719 48.4506734,71.6613156 48.458562,71.3687844 L48.5209534,68.9372531 L50.7648934,69.9974094 C50.8394763,70.0326281 50.9176449,70.0491594 50.9943791,70.0491594 C51.1958963,70.0491594 51.3895249,69.9355969 51.4813191,69.7400969 C51.6082534,69.4712844 51.4927934,69.1500031 51.224582,69.0227844" id="Fill-13" fill="#4C4139" sketch:type="MSShapeGroup"></path>
                        <path d="M196.916671,66.07555 C196.961851,66.07555 197.008466,66.0698 197.053646,66.0583 L199.321969,65.4603 L199.303323,68.1067375 C199.301171,68.4043 199.53998,68.6479563 199.837594,68.6501125 L199.84118,68.6501125 C200.136643,68.6501125 200.376886,68.4107688 200.379037,68.1146438 L200.399834,65.1763938 L202.795091,64.5453313 C203.083383,64.4691438 203.25478,64.1744563 203.178763,63.8862375 C203.103463,63.5987375 202.807283,63.4298313 202.52186,63.5017063 L200.407723,64.0594563 L200.425651,61.6322375 C200.427803,61.334675 200.188277,61.0917375 199.890663,61.0895813 L199.887794,61.0895813 C199.591614,61.0895813 199.352089,61.328925 199.349937,61.62505 L199.329857,64.3433625 L196.781131,65.014675 C196.49284,65.0908625 196.321443,65.38555 196.396743,65.6737688 C196.460569,65.9152688 196.67858,66.07555 196.916671,66.07555" id="Fill-15" fill="#4C4139" sketch:type="MSShapeGroup"></path>
                        <path d="M187.958625,71.7823531 C187.956473,72.0799156 188.195282,72.3228531 188.492896,72.3250094 L188.496482,72.3250094 C188.791945,72.3250094 189.032188,72.0863844 189.034339,71.7902594 L189.055136,68.8520094 L191.450393,68.2202281 C191.738685,68.1447594 191.910082,67.8500719 191.834065,67.5618531 C191.758765,67.2736344 191.461868,67.1032906 191.177162,67.1773219 L189.063025,67.7343531 L189.080236,65.3078531 C189.082388,65.0102906 188.843579,64.7673531 188.545965,64.7651969 L188.542379,64.7651969 C188.246916,64.7651969 188.006673,65.0038219 188.004522,65.2999469 L187.985159,68.0189781 L185.435716,68.6902906 C185.148142,68.7664781 184.976745,69.0611656 185.052045,69.3493844 C185.115871,69.5908844 185.333882,69.7511656 185.571973,69.7511656 C185.617153,69.7511656 185.663768,69.7454156 185.708948,69.7331969 L187.977271,69.1359156 L187.958625,71.7823531 Z" id="Fill-17" fill="#4C4139" sketch:type="MSShapeGroup"></path>
                        <path d="M197.829164,73.3735938 C197.753864,73.085375 197.456967,72.91575 197.172261,72.9890625 L195.057407,73.5460938 L195.074618,71.118875 C195.07677,70.8213125 194.837961,70.578375 194.540347,70.5762188 L194.536761,70.5762188 C194.241298,70.5762188 194.001055,70.8148438 193.998904,71.1116875 L193.980258,73.83 L191.430098,74.5013125 C191.143241,74.5775 190.971127,74.8721875 191.046427,75.1596875 C191.110253,75.4019063 191.328264,75.5621875 191.566355,75.5621875 C191.611535,75.5621875 191.65815,75.5564375 191.70333,75.5449375 L193.97237,74.9469375 L193.953724,77.593375 C193.951573,77.8909375 194.190381,78.1345938 194.487995,78.1360313 L194.491581,78.1360313 C194.787044,78.1360313 195.027287,77.8974063 195.029438,77.6012813 L195.050235,74.6630313 L197.445493,74.0319688 C197.73235,73.9565 197.904464,73.6610938 197.829164,73.3735938" id="Fill-19" fill="#4C4139" sketch:type="MSShapeGroup"></path>
                        <path d="M202.633447,80.0265594 L200.51931,80.5835906 L200.536522,78.1563719 C200.538673,77.8588094 200.299865,77.6158719 200.00225,77.6137156 L199.998665,77.6137156 C199.703202,77.6137156 199.462959,77.8530594 199.460807,78.1491844 L199.441445,80.8674969 L196.892002,81.5388094 C196.605145,81.6149969 196.43303,81.9096844 196.50833,82.1979031 C196.572156,82.4394031 196.790167,82.5996844 197.028259,82.5996844 C197.073439,82.5996844 197.120053,82.5939344 197.165233,82.5824344 L199.433556,81.9844344 L199.41491,84.6308719 C199.412759,84.9284344 199.651567,85.1720906 199.949182,85.1742469 L199.952767,85.1742469 C200.24823,85.1742469 200.488473,84.9349031 200.490625,84.6387781 L200.511422,81.7005281 L202.906679,81.0694656 C203.193536,80.9939969 203.36565,80.6993094 203.29035,80.4110906 C203.21505,80.1228719 202.918153,79.9525281 202.633447,80.0265594" id="Fill-21" fill="#4C4139" sketch:type="MSShapeGroup"></path>
                        <path d="M192.490537,82.2161594 L190.3764,82.7731906 L190.392895,80.3459719 C190.395046,80.0484094 190.156237,79.8054719 189.858623,79.8033156 L189.855037,79.8033156 C189.559575,79.8033156 189.319332,80.0426594 189.31718,80.3387844 L189.298535,83.0570969 L186.749092,83.7284094 C186.462235,83.8045969 186.29012,84.0992844 186.36542,84.3875031 C186.429246,84.6290031 186.647257,84.7892844 186.885349,84.7892844 C186.930529,84.7892844 186.977143,84.7835344 187.022323,84.7720344 L189.290646,84.1740344 L189.272,86.8204719 C189.269849,87.1180344 189.508657,87.3616906 189.806272,87.3638469 L189.809857,87.3638469 C190.10532,87.3638469 190.345563,87.1245031 190.347715,86.8283781 L190.368512,83.8901281 L192.763769,83.2590656 C193.050626,83.1835969 193.22274,82.8889094 193.14744,82.6006906 C193.07214,82.3124719 192.775243,82.1435656 192.490537,82.2161594" id="Fill-23" fill="#4C4139" sketch:type="MSShapeGroup"></path>
                        <path d="M131.393982,102.127403 C131.298602,101.844934 130.993816,101.693997 130.711979,101.789591 L128.640871,102.493247 L128.561985,100.089747 C128.551945,99.7921844 128.304531,99.5549969 128.006199,99.5679344 C127.709302,99.5779969 127.476948,99.8274031 127.486271,100.124247 L127.575913,102.854778 L125.042965,103.715122 C124.761845,103.811434 124.610528,104.117622 124.706625,104.399372 C124.781925,104.623622 124.991331,104.765216 125.215796,104.765216 C125.273168,104.765216 125.331256,104.755872 125.388628,104.736466 L127.612488,103.981059 L127.698545,106.604497 C127.707868,106.896309 127.946676,107.126309 128.236402,107.126309 L128.253613,107.126309 C128.550511,107.116247 128.782865,106.866841 128.774259,106.569997 L128.677445,103.619528 L131.057642,102.810934 C131.338762,102.715341 131.490079,102.409153 131.393982,102.127403" id="Fill-25" fill="#4C4139" sketch:type="MSShapeGroup"></path>
                        <path d="M136.184281,99.9767594 C136.241653,99.9767594 136.299741,99.9674156 136.357113,99.9480094 L138.580973,99.1933219 L138.66703,101.816759 C138.67707,102.107853 138.915878,102.337853 139.204887,102.337853 L139.222098,102.337853 C139.518995,102.327791 139.752784,102.078384 139.742744,101.780822 L139.64593,98.8310719 L142.026127,98.0224781 C142.307247,97.9268844 142.458564,97.6206969 142.362467,97.3389469 C142.267087,97.0564781 141.961584,96.9062594 141.680464,97.0011344 L139.608638,97.7047906 L139.529753,95.3005719 C139.518995,95.0037281 139.288075,94.7528844 138.974684,94.7801969 C138.677787,94.7895406 138.443998,95.0389469 138.454038,95.3365094 L138.543681,98.0670406 L136.01145,98.9273844 C135.73033,99.0229781 135.579013,99.3291656 135.67511,99.6109156 C135.751127,99.8351656 135.960533,99.9767594 136.184281,99.9767594" id="Fill-27" fill="#4C4139" sketch:type="MSShapeGroup"></path>
                        <path d="M129.091308,93.1153562 C129.148679,93.1153562 129.206768,93.1060125 129.264139,93.0866062 L131.487999,92.3312 L131.574057,94.9553562 C131.584097,95.24645 131.822905,95.47645 132.111914,95.47645 L132.129125,95.47645 C132.426022,95.4663875 132.659094,95.2169812 132.649771,94.9201375 L132.552957,91.9696687 L134.933154,91.161075 C135.214274,91.0654812 135.365591,90.7592937 135.269494,90.4775437 C135.174114,90.195075 134.868611,90.0448562 134.587491,90.1397312 L132.516382,90.8433875 L132.437497,88.4398875 C132.427457,88.142325 132.175022,87.9015437 131.882428,87.9187937 C131.585531,87.9281375 131.352459,88.1775437 131.361782,88.4743875 L131.451425,91.2056375 L128.918477,92.0659812 C128.637357,92.161575 128.486039,92.4677625 128.582137,92.7495125 C128.658154,92.9737625 128.867559,93.1153562 129.091308,93.1153562" id="Fill-29" fill="#4C4139" sketch:type="MSShapeGroup"></path>
                        <path d="M141.297438,88.27745 C141.354809,88.27745 141.412898,88.2681063 141.470269,88.2487 L143.694129,87.4932938 L143.780187,90.11745 C143.790227,90.4085438 144.029035,90.6385438 144.318044,90.6385438 L144.335255,90.6385438 C144.632152,90.6284813 144.865224,90.379075 144.855901,90.0822313 L144.759087,87.1317625 L147.139284,86.3231688 C147.420404,86.227575 147.571721,85.9213875 147.475624,85.6396375 C147.380244,85.3571688 147.076175,85.20695 146.793621,85.301825 L144.722512,86.0054813 L144.643627,83.6019813 C144.633587,83.3044188 144.373981,83.0622 144.088558,83.0808875 C143.791661,83.0902313 143.558589,83.3396375 143.567912,83.6364813 L143.657555,86.3677313 L141.124607,87.228075 C140.843487,87.3236688 140.692169,87.6298563 140.788267,87.9116063 C140.864284,88.1358563 141.073689,88.27745 141.297438,88.27745" id="Fill-31" fill="#4C4139" sketch:type="MSShapeGroup"></path>
                        <path d="M147.522023,93.5448813 C147.597323,93.7691313 147.806729,93.910725 148.031194,93.910725 C148.088566,93.910725 148.146654,93.9021 148.204026,93.8826938 L150.427886,93.1272875 L150.513943,95.750725 C150.523983,96.0425375 150.762791,96.2718188 151.0518,96.2718188 L151.069011,96.2718188 C151.365909,96.2617563 151.59898,96.0130688 151.589657,95.7155063 L151.492843,92.7650375 L153.873757,91.9564438 C154.154877,91.86085 154.306194,91.5546625 154.210097,91.2729125 C154.114717,90.9904438 153.808497,90.8395063 153.528094,90.9351 L151.456269,91.6387563 L151.377383,89.2352563 C151.367343,88.9376938 151.118494,88.695475 150.822314,88.7141625 C150.5247,88.7235063 150.292346,88.9729125 150.301669,89.270475 L150.391311,92.0010063 L147.858363,92.86135 C147.577243,92.9569438 147.425926,93.2631313 147.522023,93.5448813" id="Fill-33" fill="#4C4139" sketch:type="MSShapeGroup"></path>
                        <path d="M148.686663,101.691912 L146.615554,102.395569 L146.536669,99.99135 C146.525911,99.6945062 146.289971,99.4443812 145.9816,99.4702562 C145.683986,99.4803187 145.451631,99.729725 145.460954,100.026569 L145.550597,102.7571 L143.017649,103.617444 C142.736529,103.713756 142.585211,104.019225 142.681309,104.300975 C142.756609,104.525944 142.966014,104.667537 143.19048,104.667537 C143.247851,104.667537 143.30594,104.658194 143.363311,104.638787 L145.587171,103.883381 L145.673229,106.506819 C145.683269,106.798631 145.922077,107.028631 146.211086,107.028631 C146.216823,107.028631 146.22256,107.028631 146.228297,107.027912 C146.525194,107.018569 146.758266,106.769162 146.748943,106.4716 L146.652129,103.52185 L149.032326,102.713256 C149.313446,102.617662 149.464763,102.311475 149.368666,102.029725 C149.273286,101.747256 148.967783,101.596319 148.686663,101.691912" id="Fill-35" fill="#4C4139" sketch:type="MSShapeGroup"></path>
                        <path d="M68.0578611,105.445297 L62.0360126,101.780391 L69.4003526,97.9774844 C71.7009469,98.9089844 74.4332611,100.504609 75.9019697,101.402328 L68.0578611,105.445297 Z M77.7435926,100.858234 C77.5557011,100.736766 73.1115669,97.8653594 69.6190811,96.5191406 L69.3185983,96.4027031 L59.1028983,101.677609 L68.0004897,107.091953 L78.7841669,101.533141 L77.7435926,100.858234 Z" id="Fill-37" fill="#4C4139" sketch:type="MSShapeGroup"></path>
                        <path d="M218.006552,101.818556 L211.095446,101.076806 L215.241966,94.4671813 C217.500966,95.224025 219.868255,95.367775 221.218635,95.3785563 L218.006552,101.818556 Z M221.378558,93.941775 C220.055429,93.941775 217.492361,93.809525 215.198938,92.9247438 L214.647455,92.7127125 L208.658595,102.260588 L218.844175,103.354525 L223.598832,93.8217438 L222.340246,93.9144625 C222.325903,93.9159 221.965898,93.941775 221.378558,93.941775 L221.378558,93.941775 Z" id="Fill-39" fill="#4C4139" sketch:type="MSShapeGroup"></path>
                        <g id="Group-43">
                            <mask id="mask-2" sketch:name="Clip 42" fill="white">
                                <use xlink:href="#path-1"></use>
                            </mask>
                            <g id="Clip-42"></g>
                            <path d="M105.225296,136.349822 L97.1502671,132.523197 L102.49083,128.889916 C105.38737,129.873884 109.110059,131.598166 110.938056,132.472166 L105.225296,136.349822 Z M102.603421,127.412166 L102.269233,127.303634 L94.26807,132.747447 L105.351513,138.000072 L113.788699,132.272353 L112.687884,131.724666 C112.44549,131.603197 106.693287,128.748322 102.603421,127.412166 L102.603421,127.412166 Z" id="Fill-41" fill="#4C4139" sketch:type="MSShapeGroup" mask="url(#mask-2)"></path>
                        </g>
                        <path d="M9.522438,75.0184531 L3.37724086,70.5578906 L11.7025523,68.5813281 L17.5960323,71.9565781 L9.522438,75.0184531 Z M0.000215142857,69.8822656 L9.306578,76.6370781 L20.9493923,72.2217969 L11.9227151,67.0525469 L0.000215142857,69.8822656 Z" id="Fill-44" fill="#4C4139" sketch:type="MSShapeGroup"></path>
                        <path d="M22.7153566,38.9198812 L28.6081194,42.2944125 L20.5352423,45.3562875 L14.389328,40.8964437 L22.7153566,38.9198812 Z M31.9629137,42.5596312 L22.9355194,37.3903812 L11.0123023,40.2201 L20.3193823,46.9749125 L31.9629137,42.5596312 Z" id="Fill-46" fill="#4C4139" sketch:type="MSShapeGroup"></path>
                        <path d="M195.51394,89.1119188 L195.517526,88.5822 L197.9135,87.9511375 C198.200357,87.87495 198.372471,87.5802625 198.297171,87.2920438 C198.221154,87.0045438 197.924257,86.8342 197.640269,86.9082313 L195.525414,87.4652625 L195.542626,85.0380438 C195.544777,84.7404813 195.305969,84.4975438 195.008354,84.4953875 L195.004769,84.4953875 C194.709306,84.4953875 194.469063,84.7340125 194.466911,85.0301375 L194.447549,87.7491688 L191.898823,88.4204813 C191.611249,88.4966688 191.439134,88.7913563 191.515151,89.079575 C191.578977,89.321075 191.796271,89.4813563 192.034363,89.4813563 C192.08026,89.4813563 192.126157,89.4756063 192.172054,89.4633875 L194.43966,88.8661063 L194.435357,89.4842313 C191.720254,90.4272313 188.63654,91.5269188 185.205729,92.7746688 L185.218637,90.9282 L187.613894,90.2971375 C187.902186,90.22095 188.073583,89.9262625 187.997566,89.6380438 C187.922266,89.3505438 187.626086,89.1802 187.340663,89.2535125 L185.226526,89.8112625 L185.243737,87.3840438 C185.245889,87.0864813 185.00708,86.8435438 184.708749,86.8413875 L184.70588,86.8413875 C184.4097,86.8413875 184.170174,87.0807313 184.168023,87.3768563 L184.14866,90.0951688 L182.762423,90.4602938 C182.43684,87.8102625 182.159306,84.9036375 182.068946,82.2004188 L182.061774,82.104825 C182.038109,81.9136375 181.871014,80.5688563 181.59348,78.6239188 C181.639377,78.6224813 181.685991,78.61745 181.731889,78.6037938 L183.984434,77.9375125 L183.965789,80.5631063 C183.963637,80.8606688 184.202446,81.104325 184.50006,81.1064813 L184.503646,81.1064813 C184.799109,81.1064813 185.039351,80.8671375 185.041503,80.5710125 L185.063017,77.6191063 L187.473334,76.9061063 C187.75804,76.8220125 187.921549,76.5222938 187.837643,76.23695 C187.75302,75.9516063 187.453254,75.78845 187.169266,75.8725438 L185.070906,76.492825 L185.088117,74.0871688 C185.090269,73.7896063 184.85146,73.5466688 184.553846,73.5445125 L184.55026,73.5445125 C184.254797,73.5445125 184.014554,73.7838563 184.012403,74.0799813 L183.99304,76.81195 L181.440011,77.5666375 C180.989646,74.509075 180.320551,70.40645 179.525957,66.8378563 L180.977454,66.4554813 L180.958809,69.1019188 C180.956657,69.3994813 181.195466,69.6424188 181.49308,69.644575 L181.496666,69.644575 C181.792129,69.644575 182.032371,69.40595 182.034523,69.109825 L182.05532,66.171575 L184.450577,65.5405125 C184.738151,65.464325 184.910266,65.1696375 184.834249,64.8821375 C184.758949,64.5939188 184.462769,64.4250125 184.177346,64.4976063 L182.063209,65.0546375 L182.072531,63.647325 C186.184629,62.19545 189.882934,60.9297313 193.160994,59.8530438 L193.156691,60.4898563 L190.607249,61.1611688 C190.320391,61.2373563 190.14756,61.5320438 190.223577,61.8202625 C190.287403,62.0617625 190.505414,62.2220438 190.743506,62.2220438 C190.788686,62.2220438 190.834583,62.2162938 190.88048,62.2047938 L193.148803,61.6067938 L193.130157,64.25395 C193.128006,64.5515125 193.366814,64.79445 193.664429,64.7966063 L193.668014,64.7966063 C193.963477,64.7966063 194.20372,64.5579813 194.205871,64.2611375 L194.226669,61.3228875 L196.621926,60.691825 C196.908783,60.6163563 197.080897,60.3216688 197.005597,60.03345 C196.92958,59.7452313 196.632683,59.5741688 196.348694,59.6489188 L194.234557,60.20595 L194.239577,59.5008563 C198.482194,58.1230125 201.980417,57.0786688 204.707711,56.379325 L204.704126,56.8932313 L202.154683,57.5645438 C201.867109,57.6407313 201.694994,57.9354188 201.770294,58.2229188 C201.83412,58.4651375 202.052131,58.6254188 202.290223,58.6254188 C202.33612,58.6254188 202.382017,58.6196688 202.427914,58.60745 L204.696237,58.0101688 L204.677591,60.6566063 C204.67544,60.9541688 204.914249,61.1971063 205.211863,61.1992625 L205.215449,61.1992625 C205.510911,61.1992625 205.751154,60.9606375 205.753306,60.6645125 L205.774103,57.7262625 L206.51778,57.5300438 L205.888846,70.0312625 L204.420854,70.41795 L204.437349,67.9907313 C204.4395,67.6931688 204.200691,67.4502313 203.903077,67.448075 L203.899491,67.448075 C203.604029,67.448075 203.363786,67.6874188 203.361634,67.9835438 L203.342989,70.7018563 L200.792829,71.3731688 C200.505971,71.4493563 200.333857,71.7440438 200.409157,72.0322625 C200.472983,72.2737625 200.690994,72.4340438 200.929086,72.4340438 C200.974266,72.4340438 201.02088,72.4282938 201.06606,72.4167938 L203.3351,71.8187938 L203.316454,74.4652313 C203.314303,74.7627938 203.553111,75.00645 203.850726,75.0086063 L203.854311,75.0086063 C204.149774,75.0086063 204.390017,74.7692625 204.392169,74.4731375 L204.412966,71.5348875 L205.832191,71.1611375 L205.084929,86.0292 C202.790789,86.6767938 199.586594,87.7096375 195.51394,89.1119188 L195.51394,89.1119188 Z M182.899397,91.5391375 L184.140771,91.2121063 L184.127146,93.1671063 C183.813754,93.2813875 183.490323,93.4007 183.171194,93.5171375 C183.080117,92.886075 182.98904,92.2241063 182.899397,91.5391375 L182.899397,91.5391375 Z M193.853037,111.544825 C189.66564,110.386919 184.361651,108.484388 184.288503,108.458513 L183.27016,108.09195 L182.910871,109.114013 C181.771331,112.349106 181.164629,116.926106 180.8957,119.489888 C174.305157,114.276794 167.267117,104.338638 166.723523,103.563825 C164.477431,99.3598563 164.919909,86.0442938 165.282066,81.2495125 L165.28852,81.1524813 L165.279197,81.05545 C164.205634,70.8312313 160.531711,63.3749188 160.370354,63.0522 C156.243197,54.99645 139.778314,48.9532 132.54808,46.6337938 C134.560383,46.2808875 135.848371,45.9308563 135.989649,45.891325 L136.554757,45.7346375 L136.729023,45.1732938 C136.883926,44.6752 137.0209,44.19795 137.150703,43.729325 C137.319949,43.68045 137.489194,43.6366063 137.657723,43.5934813 L137.629754,43.7501688 C137.629754,43.7501688 137.705054,43.7602313 137.846331,43.7796375 C137.985457,43.8019188 138.188409,43.8335438 138.448014,43.8745125 C138.975114,43.9657938 139.735286,44.1081063 140.641037,44.327325 C141.549657,44.534325 142.596686,44.8362 143.715429,45.1812 C144.266911,45.3745438 144.847797,45.5513563 145.421511,45.7741688 C145.995943,45.9941063 146.585434,46.2082938 147.15628,46.4641688 C147.737166,46.7027938 148.308011,46.9615438 148.860929,47.2375438 C149.423886,47.495575 149.958874,47.7845125 150.475217,48.0691375 C151.000166,48.340825 151.486389,48.6383875 151.946077,48.9258875 C152.410786,49.2047625 152.846091,49.4771688 153.227611,49.7582 C153.615586,50.0306063 153.972006,50.28145 154.287549,50.502825 C154.588749,50.744325 154.851223,50.9542 155.0678,51.1274188 C155.502389,51.4752938 155.75052,51.6736688 155.75052,51.6736688 C155.75052,51.6736688 155.52462,51.4501375 155.129474,51.0584188 C154.931543,50.8622 154.690583,50.623575 154.414483,50.35045 C154.121889,50.094575 153.792003,49.8056375 153.431997,49.4901063 C153.076294,49.1666688 152.66824,48.8461063 152.229349,48.5140438 C151.796194,48.174075 151.334354,47.82045 150.833071,47.4891063 C150.339677,47.1441063 149.826203,46.7919188 149.282609,46.4692 C148.749054,46.1277938 148.193986,45.8022 147.62816,45.4952938 C147.070223,45.1711375 146.492923,44.88795 145.92638,44.5997313 C145.361271,44.3079188 144.78684,44.0635438 144.238226,43.8033563 C143.610009,43.533825 143.005457,43.2829813 142.428874,43.056575 C148.957026,43.1500125 154.547871,46.2830438 154.618151,46.3232938 L154.765166,46.3930125 C156.422483,47.0319813 157.998046,47.5034813 159.449543,47.857825 C168.102589,51.6434813 174.961343,60.4143875 175.561591,61.197825 C177.425446,64.6348875 179.330894,77.5414813 179.920386,82.32045 C180.1929,90.3151063 182.0503,99.9693563 182.069663,100.065669 L182.102651,100.233856 L182.185123,100.383356 C183.184103,102.184544 189.736637,107.991325 193.853037,111.544825 L193.853037,111.544825 Z M161.129091,101.788513 L161.129091,71.317825 C161.135546,71.31495 161.142,71.3127938 161.149171,71.3099188 C161.954523,74.06345 162.729037,77.4437313 163.129203,81.1855438 C163.03454,82.4864813 162.268631,93.8226063 163.637657,100.831138 C162.800034,101.150263 161.963846,101.469388 161.129091,101.788513 L161.129091,101.788513 Z M123.62252,116.390638 C123.293351,108.970981 123.487697,93.9016688 123.588097,87.7002938 L125.572431,87.0261063 L125.658489,89.6495438 C125.667811,89.9413563 125.90662,90.1713563 126.196346,90.1713563 C126.201366,90.1713563 126.20782,90.1713563 126.213557,90.1706375 C126.510454,90.1612938 126.742809,89.9118875 126.734203,89.614325 L126.637389,86.664575 L129.017586,85.8559813 C129.299423,85.7603875 129.45074,85.4542 129.354643,85.17245 C129.259263,84.8899813 128.950891,84.7404813 128.673357,84.8346375 L126.600814,85.5382938 L126.573563,84.7102938 C128.950174,83.7651375 132.308554,82.4347313 136.3432,80.8534813 L136.376189,81.8640438 L133.84324,82.7243875 C133.56212,82.8207 133.410803,83.1268875 133.5069,83.4086375 C133.5822,83.6328875 133.791606,83.7744813 134.016071,83.7744813 C134.073443,83.7744813 134.131531,83.7651375 134.188903,83.7457313 L136.412763,82.990325 L136.49882,85.6137625 C136.50886,85.905575 136.747669,86.135575 137.036677,86.135575 L137.053889,86.135575 C137.350786,86.1255125 137.583857,85.8761063 137.574534,85.5792625 L137.47772,82.6287938 L139.857917,81.8202 C140.139037,81.7246063 140.290354,81.4184188 140.194257,81.1366688 C140.099594,80.8542 139.793374,80.7039813 139.512254,80.7988563 L137.441146,81.5025125 L137.406006,80.437325 C140.813869,79.103325 144.649866,77.6112 148.736863,76.0378563 L148.764831,76.8982 L146.2326,77.757825 C145.95148,77.8541375 145.800163,78.1596063 145.895543,78.4413563 C145.97156,78.666325 146.180966,78.8079188 146.404714,78.8079188 C146.462086,78.8079188 146.520174,78.798575 146.577546,78.7791688 L148.801406,78.0237625 L148.887463,80.6472 C148.897503,80.9390125 149.136311,81.1690125 149.42532,81.1690125 C149.431057,81.1690125 149.437511,81.1690125 149.443249,81.1682938 C149.740146,81.15895 149.9725,80.9095438 149.963177,80.6119813 L149.86708,77.6622313 L152.247277,76.8536375 C152.528397,76.7580438 152.679714,76.4518563 152.584334,76.1701063 C152.488954,75.8876375 152.180583,75.7367 151.902331,75.8322938 L149.829789,76.5366688 L149.800386,75.6281688 C152.762186,74.4903875 155.843031,73.3145125 158.977663,72.1292938 L158.977663,81.2588563 C158.83782,81.104325 158.615506,81.0382 158.4061,81.1093563 L156.334274,81.8130125 L156.256106,79.4095125 C156.246066,79.11195 155.983591,78.8697313 155.70032,78.8884188 C155.403423,78.8977625 155.171069,79.1471688 155.180391,79.4440125 L155.269317,82.1745438 L152.736369,83.0356063 C152.455966,83.1312 152.304649,83.4373875 152.400746,83.7191375 C152.476046,83.9433875 152.685451,84.0849813 152.909917,84.0849813 C152.967289,84.0849813 153.025377,84.0756375 153.082749,84.0562313 L155.306609,83.300825 L155.392666,85.9249813 C155.401989,86.216075 155.640797,86.446075 155.930523,86.446075 L155.947734,86.446075 C156.244631,86.4360125 156.476986,86.1866063 156.46838,85.8897625 L156.371566,82.9392938 L158.751763,82.1307 C158.844991,82.099075 158.916706,82.0387 158.977663,81.9689813 L158.977663,97.3552625 L157.28664,97.9295438 L157.207754,95.5260438 C157.197714,95.2284813 156.941694,94.99345 156.651969,95.00495 C156.355071,95.0150125 156.122717,95.2637 156.13204,95.5612625 L156.221683,98.291075 L153.688734,99.1514188 C153.407614,99.2477313 153.256297,99.5539188 153.352394,99.8356688 C153.427694,100.059919 153.6371,100.201513 153.861566,100.201513 C153.918937,100.201513 153.977026,100.192169 154.034397,100.172763 L156.258257,99.4173563 L156.344314,102.041513 C156.353637,102.333325 156.592446,102.563325 156.882171,102.563325 C156.887909,102.563325 156.893646,102.563325 156.899383,102.562606 C157.19628,102.552544 157.428634,102.303856 157.420029,102.006294 L157.323214,99.055825 L158.977663,98.4937625 L158.977663,102.345544 L159.670423,102.345544 C150.612191,105.812794 141.893169,109.208169 135.185731,111.836638 L135.101826,109.26495 L137.482023,108.456356 C137.76386,108.360763 137.91446,108.054575 137.81908,107.772825 C137.7237,107.490356 137.416046,107.340856 137.137794,107.435013 L135.064534,108.139388 L134.986366,105.735169 C134.976326,105.438325 134.717437,105.1882 134.43058,105.214075 C134.133683,105.224138 133.901329,105.472825 133.910651,105.770388 L133.999577,108.500919 L131.467346,109.361263 C131.186226,109.456856 131.034909,109.763044 131.131006,110.044794 C131.206306,110.269044 131.415711,110.410638 131.63946,110.410638 C131.697549,110.410638 131.755637,110.401294 131.812291,110.381888 L134.036869,109.626481 L134.122209,112.250638 C134.122209,112.251356 134.122926,112.252075 134.122926,112.252794 C129.097906,114.223606 125.33434,115.712138 123.62252,116.390638 L123.62252,116.390638 Z M70.6880543,64.7908563 C70.7583343,64.3696688 70.8357857,63.9686063 70.9168229,63.5747313 L73.1492886,64.630575 L73.0747057,67.5364813 C73.0675343,67.8347625 73.30204,68.0820125 73.5989371,68.0892 C73.6039571,68.0899188 73.6089771,68.0899188 73.6125629,68.0899188 C73.9037229,68.0899188 74.1432486,67.8570438 74.15042,67.5645125 L74.2128114,65.1329813 L76.4574686,66.1938563 C76.5306171,66.2283563 76.6080686,66.2441688 76.6826514,66.2448875 L76.5707771,72.8336688 L75.8012829,72.393075 C75.5423943,72.2457313 75.21466,72.335575 75.0676457,72.594325 C74.9206314,72.8523563 75.0102743,73.1822625 75.2677286,73.3296063 L76.54998,74.0641688 L76.4424086,80.3489188 L73.9517714,79.1716063 L74.0213343,76.4791688 C74.0292229,76.1808875 73.794,75.9336375 73.4971029,75.92645 C73.4920829,75.9257313 73.48778,75.9257313 73.4834771,75.9257313 C73.1923171,75.9257313 72.9535086,76.1586063 72.94562,76.4511375 L72.8882486,78.6692 L70.8006457,77.6816375 C70.5295657,77.5537 70.20972,77.6708563 70.08422,77.9396688 C69.9572857,78.2084813 70.0727457,78.5297625 70.3409571,78.6569813 L72.8581286,79.8465125 L72.7835457,82.7524188 C72.7756571,83.0507 73.01088,83.29795 73.3077771,83.3051375 C73.31208,83.3058563 73.3171,83.3058563 73.3214029,83.3058563 C73.6118457,83.3058563 73.8513714,83.0729813 73.85926,82.78045 L73.9216514,80.3496375 L76.1655914,81.4097938 C76.2401743,81.4450125 76.3183429,81.4615438 76.39436,81.4615438 C76.4044,81.4615438 76.4137229,81.45795 76.4237629,81.4572313 L76.2846371,89.6236688 L67.7843429,84.7512625 C69.2795857,77.0721375 70.6242286,65.360825 70.6880543,64.7908563 L70.6880543,64.7908563 Z M50.9910086,98.0632313 L55.8338743,87.6241063 L44.3990314,87.222325 C48.7764714,85.020075 54.65776,80.5738875 56.8156429,72.0890438 L56.8321371,72.0128563 C56.8636914,71.8346063 60.0356143,54.1583875 62.1181971,48.6779188 C62.1404286,48.61395 64.3850857,42.2961375 68.7833229,41.3682313 L68.9855571,41.3049813 C69.0221314,41.2891688 72.6451371,39.7402625 75.7102057,38.9661688 C75.9970629,40.1636063 76.2932429,41.4343563 76.57006,42.6835438 L76.6181086,42.9006063 L76.7486286,43.0810125 C76.8769971,43.2599813 79.4207029,46.7027938 83.4453086,47.3180438 C81.0170629,48.2933875 78.5300114,49.4132 76.6116543,50.55745 C75.7030343,50.9333563 70.3782486,53.5754813 68.5588571,64.4904188 C68.5373429,64.6737 66.4784257,82.6158563 64.6841343,88.5980125 C63.6127229,89.6265438 58.0369371,94.8001063 50.9910086,98.0632313 L50.9910086,98.0632313 Z M38.6195771,68.184075 L38.78954,63.6825438 L40.55156,64.5651688 C40.6282943,64.6039813 40.7107657,64.62195 40.7910857,64.62195 C40.9883,64.62195 41.1783429,64.5134188 41.2730057,64.3243875 C41.4056771,64.0577313 41.2981057,63.7342938 41.0320457,63.601325 L38.83472,62.5002 L39.4378371,46.5949813 L40.4504429,47.0736688 L40.37586,49.979575 C40.3679714,50.2778563 40.6024771,50.5251063 40.8993743,50.5322938 C40.9043943,50.5330125 40.9094143,50.5330125 40.9137171,50.5330125 C41.20416,50.5330125 41.4436857,50.3008563 41.4515743,50.0076063 L41.5139657,47.5767938 L43.7579057,48.63695 C43.8317714,48.6721688 43.90994,48.6887 43.9866743,48.6887 C44.1881914,48.6887 44.3825371,48.5744188 44.4743314,48.3796375 C44.6005486,48.1101063 44.4850886,47.7895438 44.2168771,47.662325 L41.5440857,46.3987625 L41.6129314,43.706325 C41.62082,43.4080438 41.3863143,43.1607938 41.0894171,43.1536063 C41.0843971,43.1528875 41.0793771,43.1528875 41.0750743,43.1528875 C40.7846314,43.1528875 40.5451057,43.3857625 40.5372171,43.6782938 L40.4805629,45.8956375 L39.4823,45.4241375 L39.6350514,41.39195 C42.9690486,43.0077 50.2415943,46.5518563 59.1262771,51.0095438 C58.89464,51.842575 58.6587,52.7482 58.4234771,53.7041375 L56.8242486,52.78845 C56.56536,52.6403875 56.2376257,52.7302313 56.0906114,52.9889813 C55.9435971,53.2470125 56.03324,53.5769188 56.2906943,53.7242625 L58.1588514,54.7944813 C57.5277657,57.4402 56.9074371,60.3489813 56.3702971,62.997575 L54.6821429,62.1997625 L54.7517057,59.507325 C54.7588771,59.2097625 54.5243714,58.9617938 54.2274743,58.9546063 L54.2138486,58.9546063 C53.9226886,58.9546063 53.6831629,59.1867625 53.6759914,59.4792938 L53.61862,61.6973563 L51.5310171,60.7105125 C51.2606543,60.582575 50.9415257,60.6990125 50.8145914,60.967825 C50.6883743,61.2373563 50.8038343,61.5586375 51.0720457,61.6851375 L53.5885,62.8753875 L53.5139171,65.7812938 C53.5060286,66.0788563 53.7405343,66.326825 54.0381486,66.3340125 L54.0517743,66.3340125 C54.3422171,66.3340125 54.5817429,66.1018563 54.5896314,65.809325 L54.6520229,63.3777938 L56.1508514,64.0864813 C55.3706,67.99145 54.8069257,71.1172938 54.7215857,71.593825 C54.2669171,73.3677 53.6358314,74.9388875 52.8914371,76.34045 L38.6195771,68.184075 Z M74.2271543,33.017075 C74.3533714,33.50295 74.7341743,34.97495 75.2017514,36.8710125 C74.1941657,37.1247313 73.1478543,37.4510438 72.1754086,37.7831063 L71.1843171,37.3856375 C72.3152514,37.0406375 73.3400486,36.7473875 73.8857943,36.6381375 C74.1776714,36.5799188 74.3655629,36.2952938 74.3074743,36.0042 C74.2486686,35.7116688 73.9639629,35.5219188 73.6742371,35.5808563 C72.8846629,35.7397 71.2094171,36.2413875 69.5958457,36.748825 L66.7530914,35.6088875 C66.4791429,35.4974813 66.1650343,35.6326063 66.0538771,35.909325 C65.9434371,36.185325 66.07826,36.4994188 66.3536429,36.6101063 L67.9822743,37.2627313 C66.7495057,37.6609188 65.7935543,37.979325 65.6953057,38.0123875 C65.4141857,38.1065438 65.2614343,38.4120125 65.35538,38.6944813 C65.43068,38.9201688 65.6400857,39.0624813 65.8659857,39.0624813 C65.9219229,39.0624813 65.9792943,39.0538563 66.0359486,39.0351688 C66.06822,39.0243875 67.72984,38.4702313 69.5535343,37.8923563 L70.6435914,38.3293563 C69.4452457,38.7757 68.5287371,39.1573563 68.2339914,39.2817 C62.7134257,40.5301688 60.1912343,47.6659188 60.0972886,47.9397625 C60.0628657,48.030325 60.0277257,48.1323875 59.9925857,48.2287 C52.0394714,44.2417938 45.4195257,41.0059813 41.8237714,39.2594188 C46.3073486,37.4984813 51.4069514,35.7497625 57.0910257,34.0254813 C57.0867229,34.0937625 57.0938943,34.1634813 57.1168429,34.2324813 C57.1921429,34.4581688 57.4015486,34.6012 57.6267314,34.6012 C57.6833857,34.6012 57.7407571,34.592575 57.7974114,34.5731688 C57.8289657,34.5623875 59.4905857,34.0082313 61.3149971,33.431075 L64.9982429,34.9073875 C65.0635029,34.9339813 65.1309143,34.9462 65.1976086,34.9462 C65.4113171,34.9462 65.6128343,34.8182625 65.69674,34.60695 C65.8078971,34.33095 65.6730743,34.0168563 65.3969743,33.9068875 L62.9450629,32.9236375 C64.0767143,32.5793563 65.1015114,32.2853875 65.6479743,32.1761375 C65.9384171,32.1179188 66.1277429,31.8340125 66.0696543,31.5422 C66.0639171,31.5127313 66.0467057,31.4897313 66.0359486,31.4624188 C68.0482514,30.9161688 70.1200771,30.3735125 72.24784,29.83445 C72.7742229,30.751575 73.4203686,31.7987938 74.2271543,33.017075 L74.2271543,33.017075 Z M83.4940743,13.4764188 C85.5537086,12.4982 87.9460971,13.973075 87.9661771,13.9867313 L88.1182114,14.0830438 L88.2931943,14.12545 C92.1593114,15.0555125 98.6207686,19.4902 103.111517,22.8388563 L103.149526,23.0401063 C103.211917,23.0278875 103.27144,23.0171063 103.333831,23.0048875 C106.094831,25.0712938 108.058369,26.6856063 108.11072,26.7287313 C113.997746,31.5558563 116.724323,32.9430438 116.836914,32.999825 L117.074289,33.0853563 C117.607126,33.2104188 118.006574,33.7387 118.291997,34.3266375 C118.012311,34.241825 117.715414,34.149825 117.390549,34.0448875 C116.555077,33.764575 115.581914,33.4188563 114.553531,32.999825 C113.52228,32.5872625 112.436526,32.1042625 111.360094,31.5953875 C110.285814,31.0807625 109.22516,30.5337938 108.239089,30.0019188 C107.258754,29.4592625 106.347266,28.9417625 105.581357,28.4717 C104.803974,28.0181688 104.182211,27.600575 103.736866,27.3217 C103.293671,27.0385125 103.04052,26.8767938 103.04052,26.8767938 C103.04052,26.8767938 103.273591,27.065825 103.682363,27.39645 C104.094003,27.7234813 104.668434,28.2107938 105.392749,28.7498563 C106.104871,29.3061688 106.957554,29.92645 107.880517,30.58195 C108.810651,31.2273875 109.816803,31.8987 110.843751,32.5419813 C111.874286,33.1787938 112.922031,33.7940438 113.928183,34.333825 C114.930749,34.8807938 115.892437,35.3494188 116.726474,35.7382625 C117.565531,36.1184813 118.277654,36.4167625 118.790411,36.6101063 C118.870731,36.6402938 118.934557,36.6632938 119.003403,36.6891688 C119.051451,36.8667 119.103803,37.047825 119.146114,37.220325 C115.956263,36.9306688 106.741694,35.6203875 100.740643,29.9185438 L100.591477,29.79995 C99.7882771,29.27095 82.0074371,17.6983563 72.7469714,23.897575 C73.8162314,21.0132313 79.6717029,16.1322 83.4940743,13.4764188 L83.4940743,13.4764188 Z M121.475394,19.8344813 C124.781423,21.0419813 128.300443,22.35945 131.99086,23.7703563 C131.236426,23.9867 130.361511,24.2547938 129.497354,24.5264813 L126.6546,23.3865438 C126.380651,23.2758563 126.065826,23.4102625 125.956103,23.6869813 C125.844946,23.9637 125.979769,24.277075 126.255869,24.3877625 L127.883783,25.0403875 C126.651014,25.438575 125.695063,25.7569813 125.596814,25.7900438 C125.314977,25.8842 125.162226,26.1896688 125.256171,26.4721375 C125.332189,26.697825 125.541594,26.8408563 125.766777,26.8408563 C125.822714,26.8408563 125.880086,26.8315125 125.93674,26.812825 C125.969011,26.8020438 127.630631,26.2478875 129.455043,25.6700125 L133.138289,27.1470438 C133.203549,27.1729188 133.271677,27.1851375 133.338371,27.1851375 C133.55208,27.1851375 133.753597,27.0572 133.837503,26.8466063 C133.947943,26.5706063 133.813837,26.2565125 133.537737,26.145825 L131.085826,25.1632938 C132.173731,24.8312313 133.156217,24.5502 133.715589,24.432325 C134.854411,24.8700438 136.003991,25.3142313 137.172934,25.7692 C134.890269,26.9759813 133.059403,27.8499813 132.276283,28.215825 C123.974637,26.6669188 115.65578,29.3162313 115.258483,29.4456063 L115.267089,29.4722 C113.908103,28.5363875 111.990463,27.1240438 109.475443,25.06195 C109.311217,24.9261063 108.056217,23.8947 106.197383,22.465825 C114.244443,20.9701063 120.018877,20.05945 121.475394,19.8344813 L121.475394,19.8344813 Z M168.015814,43.6301375 L167.941231,44.2130438 C167.916131,44.0585125 167.929757,43.8802625 167.978523,43.7307625 C167.995734,43.6782938 168.005057,43.654575 168.015814,43.6301375 L168.015814,43.6301375 Z M154.591617,33.9952938 L161.354991,36.3916063 C157.530469,36.4146063 153.419806,35.9732938 150.300951,35.5334188 C150.676734,35.420575 151.055386,35.31995 151.429017,35.1970438 C152.496843,34.8441375 153.552477,34.443075 154.591617,33.9952938 L154.591617,33.9952938 Z M166.828943,28.3617313 C166.992451,28.3516688 167.155243,28.3452 167.3166,28.3459188 C167.866649,28.3495125 168.397334,28.4242625 168.892163,28.5752 C168.922283,28.7132 168.95312,28.8526375 168.980371,28.9884813 C169.046349,29.3133563 169.107306,29.6403875 169.161091,29.969575 C169.270814,30.6272313 169.35974,31.2899188 169.427869,31.9540438 C169.459423,32.2659813 169.470897,32.5786375 169.493846,32.890575 C168.859891,31.3251375 167.971351,29.584325 166.828943,28.3617313 L166.828943,28.3617313 Z M163.963957,28.9791375 C165.547409,29.3277313 167.237714,32.7080125 168.177889,35.5966688 C167.874537,35.6857938 167.561863,35.7691688 167.234129,35.8410438 L158.03964,32.2573563 C158.224663,32.1481063 158.411837,32.0446063 158.593991,31.9310438 C158.969057,31.6960125 159.345557,31.4631375 159.704846,31.1993563 L160.249874,30.8155438 C160.335931,30.75445 160.547489,30.6207625 160.703826,30.5266063 C161.735794,29.9077625 162.838043,29.3708563 163.963957,28.9791375 L163.963957,28.9791375 Z M120.259837,45.0654813 C120.362389,44.9504813 120.462789,44.8282938 120.559603,44.6960438 C122.001777,42.7295438 122.13158,39.6777313 120.944709,35.6239813 C120.835703,34.9598563 120.180234,31.7197313 117.710394,31.0239813 C117.707526,31.0225438 117.701789,31.01895 117.69892,31.0175125 C121.030049,30.2204188 128.458931,28.91445 134.899591,31.1217313 C135.319837,31.5522625 137.656289,34.5027313 134.849391,43.9557313 C132.99486,44.3992 126.833886,45.6850438 120.259837,45.0654813 L120.259837,45.0654813 Z M130.935226,48.3918563 C137.291263,50.3871063 154.546437,56.4059188 158.45128,64.0261063 C158.467057,64.0570125 159.127546,65.4025125 159.960866,67.6859813 C154.282529,62.3967 139.11926,53.2031688 130.935226,48.3918563 L130.935226,48.3918563 Z M123.618934,85.8890438 C124.080774,85.7036063 124.719031,85.4491688 125.51004,85.1336375 L125.535857,85.9005438 L123.606743,86.555325 C123.611046,86.3037625 123.615349,86.0852625 123.618934,85.8890438 L123.618934,85.8890438 Z M92.9123114,46.2492625 C93.2830743,46.1702 95.8447086,45.62395 99.1363943,44.9238875 C88.5054686,48.7677625 80.5372943,53.297325 79.3532914,53.98445 C78.05598,54.3352 77.4170057,55.7497 77.10218,56.9672625 C76.8504629,56.8350125 76.6044829,56.7063563 76.3656743,56.580575 C75.6571371,56.2075438 74.9808714,55.8517625 74.2092257,55.4514188 C75.8729971,53.1672313 77.4170057,52.555575 77.43852,52.5476688 L77.6407543,52.4527938 C82.6213114,49.4577625 92.1887143,46.4727938 92.9123114,46.2492625 L92.9123114,46.2492625 Z M115.31944,42.1150125 C117.000423,41.9877938 118.413194,41.9626375 119.424366,42.0762 C119.299583,42.5872313 119.106671,43.027825 118.846349,43.3915125 C118.215263,44.2727 117.329591,44.49695 116.948071,44.55445 C116.570854,44.3639813 115.650043,43.7401063 115.31944,42.1150125 L115.31944,42.1150125 Z M100.860406,33.8033875 C99.1536057,32.982575 89.64716,28.4379188 86.7348429,27.7091063 L86.45444,28.8361063 C86.7671143,27.3482938 87.1593914,26.1832 87.3272029,25.720325 C93.2837914,27.7335438 98.6351114,31.1037625 99.3336086,31.5522625 C100.152586,32.3234813 101.021763,33.0149188 101.919626,33.6431063 C101.594043,33.6797625 101.246229,33.730075 100.860406,33.8033875 L100.860406,33.8033875 Z M86.2694171,29.8157625 C87.4233,30.1162 89.7332171,31.0742938 92.1478371,32.143075 C91.1467057,32.4162 90.3965743,32.6742313 90.34996,32.6907625 C90.0702743,32.7877938 89.9211086,33.0954188 90.0179229,33.37645 C90.0960914,33.5992625 90.3040629,33.7387 90.5263771,33.7387 C90.5844657,33.7387 90.6439886,33.7293563 90.7027943,33.7092313 C90.7185714,33.7034813 92.1894314,33.1974813 93.7485,32.8603875 C95.1526657,33.4964813 96.5095,34.1282625 97.6139,34.6479188 C97.2481571,34.7614813 96.8673543,34.88295 96.4628857,35.018075 C96.1394543,35.1266063 95.8239114,35.2272313 95.5176914,35.3206688 C89.4922571,37.1649813 87.07692,36.2061688 86.5110943,35.8971063 C85.85706,33.9780438 85.9553086,31.7312313 86.2694171,29.8157625 L86.2694171,29.8157625 Z M107.68904,36.7251063 C107.634537,36.7287 107.580751,36.7322938 107.525531,36.7358875 L107.525531,36.6597 C107.580034,36.6819813 107.634537,36.7035438 107.68904,36.7251063 L107.68904,36.7251063 Z M72.95064,26.502325 C75.9296514,23.6639813 80.6355429,23.8292938 85.2647,25.0899813 C84.7017429,26.66045 82.8637057,32.4629188 84.6099486,36.9658875 L84.6931371,37.1772 L84.8523429,37.3374813 C85.0309114,37.5171688 86.2199343,38.5730125 89.3516971,38.5730125 C91.0183371,38.5730125 93.2371771,38.2732938 96.1459086,37.3827625 C96.4700571,37.2842938 96.8013771,37.1779188 97.1434543,37.0636375 C102.696291,35.2092625 103.749774,35.690825 104.771703,36.156575 C105.316014,36.4052625 105.977937,36.7071375 107.035006,36.7797313 C106.864326,36.794825 106.69508,36.8056063 106.523683,36.8271688 C105.88686,36.8875438 105.242866,36.967325 104.603174,37.0758563 C103.959897,37.1613875 103.325226,37.2957938 102.701311,37.42445 C102.073811,37.536575 101.470694,37.714825 100.882637,37.86145 C100.292429,37.9980125 99.7395114,38.197825 99.21026,38.3617 C98.6788571,38.519825 98.1876143,38.7023875 97.7386829,38.88495 C97.2897514,39.0639188 96.8723743,39.2112625 96.5138029,39.3715438 C96.1588171,39.5368563 95.8490114,39.681325 95.5937086,39.8006375 C95.08382,40.037825 94.7933771,40.1736688 94.7933771,40.1736688 C94.7933771,40.1736688 95.0931429,40.0586688 95.6180914,39.8574188 C95.8798486,39.7567938 96.1975429,39.6346063 96.5618514,39.4951688 C96.9290286,39.3607625 97.3542943,39.2436063 97.8111143,39.0969813 C98.2672171,38.9482 98.7656314,38.801575 99.3027714,38.6822625 C99.8370429,38.5564813 100.393546,38.3983563 100.985189,38.3042 C101.57468,38.2007 102.17708,38.0670125 102.801711,38.0001688 C103.423474,37.9175125 104.052409,37.8283875 104.688514,37.7888563 C105.321034,37.7270438 105.954989,37.6932625 106.580337,37.6781688 C107.204251,37.64295 107.81956,37.6637938 108.413354,37.6616375 C109.219423,37.680325 109.982463,37.7191375 110.686697,37.7752 C114.650346,38.974075 118.102671,39.32195 119.532654,39.4189813 C119.549866,39.5900438 119.57138,39.7654188 119.580703,39.9292938 C117.128074,39.692825 112.984423,40.0982 108.426263,40.7716688 L108.42196,40.7515438 C108.310803,40.7752625 108.196777,40.7997 108.084186,40.8234188 C98.25144,42.2968563 86.6523714,44.9648563 85.9244714,45.1330438 C82.1078371,45.9394813 79.2385486,42.7388875 78.6175029,41.9777313 C77.5676057,37.2756688 76.2753143,32.3457625 76.2624057,32.29545 L76.2165086,32.1215125 L76.1175429,31.9720125 C74.3268371,29.2788563 73.4160657,27.566075 72.95064,26.502325 L72.95064,26.502325 Z M73.78898,60.7105125 C73.78396,60.7097938 73.77894,60.7097938 73.7746371,60.7097938 C73.4841943,60.7097938 73.2446686,60.94195 73.23678,61.2352 L73.1801257,63.4525438 L71.1585,62.497325 C71.6016943,60.6717 72.1531771,59.1637625 72.7455371,57.92895 C73.5738371,58.3580438 74.2838086,58.7317938 75.0325057,59.1256688 C75.5753829,59.4110125 76.14336,59.7107313 76.7887886,60.047825 L76.7020143,65.1171688 L74.2436486,63.95495 L74.3124943,61.2632313 C74.3203829,60.96495 74.0858771,60.7177 73.78898,60.7105125 L73.78898,60.7105125 Z M78.6253914,90.9662938 C78.5099314,90.672325 78.4296114,90.3496063 78.4296114,89.9988563 L78.95958,58.8209188 C79.0635657,57.4667938 79.5935343,56.1191375 79.9291571,56.063075 L80.1278057,56.0300125 L80.3020714,55.9265125 C80.45554,55.8345125 95.7959429,46.7753875 113.3265,43.0493875 C113.446263,43.4827938 113.59758,43.867325 113.770411,44.2080125 C113.370963,44.3481688 112.891911,44.5185125 112.348317,44.7190438 C110.795703,45.2890125 108.743957,46.0940125 106.732371,46.99245 C105.72622,47.438075 104.732977,47.9167625 103.8136,48.3832313 C102.89494,48.85545 102.055166,49.32695 101.350214,49.7546063 C100.994511,49.962325 100.685423,50.1837 100.404303,50.3633875 C100.121031,50.5409188 99.88796,50.7162938 99.6972,50.8629188 C99.3149629,51.1504188 99.0962343,51.3142938 99.0962343,51.3142938 C99.0962343,51.3142938 99.3328914,51.17845 99.7474,50.9405438 C99.95322,50.8197938 100.203503,50.675325 100.504703,50.5351688 C100.805186,50.3921375 101.132203,50.2138875 101.507269,50.0528875 C102.251663,49.7186688 103.13088,49.358575 104.086114,49.0085438 C105.0435,48.662825 106.070449,48.3156688 107.109589,48.0022938 C109.184283,47.3676375 111.286229,46.8292938 112.868963,46.4620125 C113.940374,46.2118875 114.755766,46.040825 115.17888,45.9538563 C115.842954,46.4814188 116.419537,46.6697313 116.476191,46.6862625 L116.57444,46.7114188 C119.088026,47.2152625 121.605197,47.4014188 123.958143,47.4014188 C124.280857,47.4014188 124.598551,47.39495 124.914811,47.3884813 C125.300634,47.6098563 125.9518,47.984325 126.803766,48.478825 C123.503474,49.4901063 117.58346,51.3631688 111.710777,53.515825 C95.4187257,59.4886375 93.3296886,62.4405438 93.3296886,64.34595 L93.3296886,97.6564188 C93.2737514,98.1315125 93.27662,98.7489188 93.37702,99.4216688 L78.6253914,90.9662938 Z M107.86474,104.4292 L105.191949,103.166356 L105.260794,100.4732 C105.268683,100.175638 105.034177,99.9283875 104.73728,99.9204813 L104.722937,99.9204813 C104.432494,99.9204813 104.192969,100.152638 104.18508,100.445169 L104.128426,102.663231 L102.040106,101.676388 C101.769743,101.549169 101.450614,101.665606 101.32368,101.934419 C101.196746,102.203231 101.312206,102.524513 101.580417,102.651731 L104.098306,103.841263 L104.05456,105.542544 L96.2355514,101.060419 C95.2709943,99.6682 95.4596029,97.9597313 95.4717943,97.8662938 L95.4725114,94.1661688 C95.5212771,94.2897938 95.6123543,94.3968875 95.74144,94.4579813 L98.2586114,95.6482313 L98.1840286,98.5534188 C98.17614,98.8517 98.4113629,99.09895 98.70826,99.1061375 C98.7125629,99.1068563 98.7175829,99.1068563 98.7218857,99.1068563 C99.0123286,99.1068563 99.2518543,98.8747 99.2597429,98.58145 L99.3221343,96.1506375 L101.566074,97.2107938 C101.63994,97.2460125 101.718826,97.2625438 101.794843,97.2625438 C101.997077,97.2625438 102.190706,97.1482625 102.2825,96.9534813 C102.409434,96.68395 102.293974,96.3633875 102.025763,96.2361688 L99.3522543,94.9726063 L99.4218171,92.2801688 C99.4289886,91.9826063 99.1944829,91.7353563 98.8975857,91.72745 L98.88396,91.72745 C98.5928,91.72745 98.3532743,91.9596063 98.3461029,92.2521375 L98.2887314,94.4702 L96.2011286,93.4833563 C95.9307657,93.3554188 95.6102029,93.4718563 95.4839857,93.7406688 C95.4768143,93.7557625 95.4782486,93.7722938 95.4725114,93.7873875 L95.47538,83.97645 L97.14704,85.02295 C97.2359657,85.0790125 97.3342143,85.1048875 97.4310286,85.1048875 C97.6103143,85.1048875 97.7860143,85.0150438 97.8878486,84.8518875 C98.04562,84.5996063 97.9688857,84.266825 97.7171686,84.1087 L95.4760971,82.7049813 L95.4789657,69.9967625 C107.843226,76.814825 116.33348,82.0523563 120.754666,85.5871688 C120.730283,86.9190125 120.677931,90.0232938 120.634903,93.8757938 L118.621166,92.9241688 L118.690729,90.2317313 C118.698617,89.9341688 118.463394,89.6862 118.166497,89.6790125 L118.152871,89.6790125 C117.862429,89.6790125 117.622903,89.9111688 117.615014,90.2037 L117.55836,92.4217625 L115.470757,91.4349188 C115.200394,91.3077 114.880549,91.4234188 114.754331,91.69295 C114.627397,91.9617625 114.742857,92.2830438 115.011069,92.4102625 L117.527523,93.599075 L117.45294,96.5057 C117.445769,96.8032625 117.680274,97.0512313 117.977171,97.0584188 L117.990797,97.0584188 C118.281957,97.0584188 118.521483,96.8262625 118.528654,96.5337313 L118.591046,94.1022 L120.621994,95.0617313 C120.579683,99.1873563 120.553149,103.989325 120.583986,108.3277 L118.329289,107.262513 L118.398851,104.570075 C118.406023,104.271794 118.171517,104.024544 117.87462,104.017356 C117.8696,104.016638 117.86458,104.016638 117.860994,104.016638 C117.569834,104.016638 117.330309,104.249513 117.323137,104.542044 L117.265766,106.760106 L115.178163,105.773263 C114.9078,105.646044 114.587954,105.761763 114.461737,106.030575 C114.33552,106.300106 114.45098,106.621388 114.719191,106.747888 L117.235646,107.937419 L117.161063,110.844044 C117.153174,111.141606 117.38768,111.388856 117.685294,111.396763 L117.69892,111.396763 C117.989363,111.396763 118.228889,111.164606 118.236777,110.872075 L118.299169,108.439825 L120.543826,109.5007 C120.56032,109.508606 120.577531,109.50645 120.594026,109.5122 C120.614106,111.543388 120.648529,113.441606 120.701597,115.084669 L105.115214,106.150606 L105.161829,104.343669 L107.405769,105.404544 C107.479634,105.439044 107.557803,105.455575 107.634537,105.455575 C107.836054,105.455575 108.0304,105.342013 108.122194,105.146513 C108.248411,104.8777 108.132951,104.556419 107.86474,104.4292 L107.86474,104.4292 Z M142.692066,75.2925125 C142.63828,75.1631375 142.535729,75.0546063 142.395886,74.997825 L139.943257,74.0152938 C141.074909,73.6702938 142.099706,73.3770438 142.645451,73.2677938 C142.935894,73.209575 143.12522,72.9256688 143.067131,72.6338563 C143.008326,72.3420438 142.72362,72.1494188 142.433894,72.2112313 C141.643603,72.3693563 139.968357,72.8710438 138.354786,73.3784813 L135.512749,72.2392625 C135.2388,72.1278563 134.924691,72.2629813 134.813534,72.5397 C134.703094,72.8157 134.8372,73.129075 135.1133,73.2397625 L136.741931,73.8923875 C135.508446,74.290575 134.552494,74.6097 134.454246,74.6420438 C134.173126,74.7362 134.020374,75.0416688 134.11432,75.3241375 C134.18962,75.549825 134.399026,75.6928563 134.624926,75.6928563 C134.680863,75.6928563 134.738234,75.6842313 134.794889,75.664825 C134.826443,75.6540438 136.488063,75.0998875 138.312474,74.5220125 L141.442803,75.77695 C132.040343,79.4317938 124.770666,82.33195 122.450709,83.260575 C117.693183,79.4857 108.625629,73.9240125 95.4804,66.7171063 L95.4811171,64.34595 C95.4811171,64.1238563 95.8210429,62.33345 105.648051,58.1984813 L106.079054,58.3717 C104.845569,58.7691688 103.889617,59.0882938 103.791369,59.1213563 C103.510249,59.2147938 103.357497,59.5202625 103.451443,59.8027313 C103.526743,60.0284188 103.736149,60.17145 103.962049,60.17145 C104.017986,60.17145 104.075357,60.162825 104.132011,60.1434188 C104.164283,60.1333563 105.825903,59.5792 107.650314,59.001325 L111.33356,60.4776375 C111.39882,60.5042313 111.466949,60.51645 111.532926,60.51645 C111.746634,60.51645 111.948151,60.3885125 112.032774,60.1772 C112.143214,59.9012 112.008391,59.587825 111.733009,59.4771375 L109.281097,58.4938875 C110.412031,58.1496063 111.436829,57.8563563 111.982574,57.7471063 C112.274451,57.6881688 112.462343,57.4042625 112.404254,57.11245 C112.346166,56.8206375 112.060743,56.6301688 111.771017,56.689825 C110.980726,56.84795 109.30548,57.3496375 107.691909,57.857075 L107.073731,57.6091063 C108.642123,56.9722938 110.41992,56.2851688 112.441546,55.5441375 C113.921011,55.0014813 115.403346,54.4775125 116.846954,53.9801375 C116.896437,54.1217313 116.998989,54.2439188 117.148871,54.303575 L118.77822,54.9569188 C117.544734,55.3551063 116.588783,55.6742313 116.490534,55.706575 C116.209414,55.8007313 116.056663,56.1062 116.150609,56.3886688 C116.225909,56.6143563 116.435314,56.7573875 116.661214,56.7573875 C116.717151,56.7573875 116.774523,56.7480438 116.831177,56.7293563 C116.863449,56.718575 118.525069,56.1644188 120.34948,55.5865438 L124.032009,57.0628563 C124.097269,57.08945 124.165397,57.1016688 124.231374,57.1016688 C124.445083,57.1016688 124.647317,56.9737313 124.731223,56.7624188 C124.841663,56.4864188 124.707557,56.1730438 124.431457,56.0623563 L121.979546,55.0791063 C123.11048,54.734825 124.135277,54.441575 124.681023,54.332325 C124.9729,54.2733875 125.160791,53.9894813 125.102703,53.6976688 C125.044614,53.4051375 124.759191,53.216825 124.469466,53.2750438 C123.679891,53.4331688 122.004646,53.935575 120.391074,54.4422938 L118.136377,53.538825 C123.255343,51.8016063 127.675811,50.4604188 129.344603,49.962325 C130.6957,50.755825 132.259789,51.6822938 133.962286,52.7036375 C132.523697,53.044325 131.294514,53.4683875 131.234274,53.4892313 C130.953871,53.5862625 130.804706,53.8938875 130.902237,54.1749188 C130.980406,54.3977313 131.188377,54.5371688 131.410691,54.5371688 C131.46878,54.5371688 131.528303,54.527825 131.587109,54.5077 C131.603603,54.50195 133.258051,53.9291063 134.923974,53.5956063 C135.031546,53.5740438 135.117603,53.5143875 135.190034,53.4425125 C138.359806,55.355825 141.892451,57.5336375 145.290274,59.7222313 C144.200934,60.013325 143.363311,60.300825 143.313829,60.318075 C143.033426,60.415825 142.88426,60.7227313 142.981791,61.0044813 C143.059243,61.226575 143.267214,61.3667313 143.490246,61.3667313 C143.548334,61.3667313 143.607857,61.3566688 143.666663,61.3365438 C143.681006,61.3315125 145.039991,60.8636063 146.532366,60.5265125 C151.480651,63.750825 155.988611,66.9255438 158.47638,69.2456688 C152.93932,71.3372313 147.557163,73.4043563 142.692066,75.2925125 L142.692066,75.2925125 Z M149.187229,20.8400125 C149.274003,20.7659813 157.911989,13.4577313 163.401717,14.6530125 C163.448331,14.66595 168.095417,15.9381375 170.231786,19.2673875 L170.334337,19.4025125 C170.35872,19.429825 172.725291,22.20995 172.726009,28.7929813 C172.714534,29.0998875 172.470706,36.2219813 173.26028,39.135075 C173.259563,40.1053875 173.03438,46.0559188 167.588397,46.7142938 C167.247037,46.7257938 164.265157,46.7868875 160.136566,45.805075 C160.054811,45.770575 159.974491,45.7324813 159.892737,45.6979813 L159.875526,45.7396688 C158.548811,45.414075 157.113809,44.9842625 155.609243,44.4085438 C154.668351,43.884575 146.35308,39.4606688 137.734457,41.360325 C138.047131,39.8976688 138.233589,38.59745 138.316777,37.4524813 C139.31002,37.4603875 140.30398,37.4553563 141.302243,37.4222938 C142.168551,37.3957 143.006891,37.15995 143.861726,37.04495 C144.225317,36.9817 144.587474,36.9033563 144.951066,36.8343563 C146.214671,37.0859188 153.824274,38.537075 160.916817,38.537075 C164.085154,38.537075 167.138031,38.238075 169.485957,37.421575 C169.313843,39.3852 168.913677,41.3164813 168.21518,43.1191063 C168.164263,43.1227 168.119083,43.1277313 168.066731,43.131325 C167.790631,43.1435438 167.504491,43.1507313 167.211897,43.1500125 C166.62886,43.1507313 166.032914,43.1356375 165.436251,43.1126375 L164.539823,43.073825 C164.253683,43.0572938 163.914474,43.0515438 163.66204,43.0199188 C163.386657,42.9825438 163.101951,42.9430125 162.810074,42.9401375 L161.924403,42.9257625 C160.733229,42.8905438 159.53058,42.7856063 158.319326,42.688575 L154.674806,42.3299188 C156.927351,43.3059813 159.221491,44.172075 161.62894,44.84195 L162.543297,45.0812938 C162.852386,45.1567625 163.170797,45.1797625 163.499966,45.189825 L165.356649,45.26745 C165.971957,45.29045 166.587983,45.3069813 167.216917,45.3062625 C167.530309,45.3069813 167.850154,45.299075 168.179323,45.2847 C168.347851,45.2739188 168.51638,45.2638563 168.702837,45.2422938 C168.803954,45.2286375 168.890729,45.2192938 169.022683,45.1912625 C169.081489,45.1790438 169.148183,45.1653875 169.252169,45.1308875 C169.283006,45.1222625 169.366911,45.092075 169.457271,45.0453563 L169.518946,45.0122938 C169.564843,44.9857 169.617911,44.9490438 169.663091,44.9123875 L169.73122,44.85345 C169.762057,44.8225438 169.749866,44.8412313 169.8266,44.752825 C169.883254,44.6831063 169.934171,44.6040438 169.973614,44.522825 C169.989391,44.4868875 170.000149,44.4617313 170.013774,44.425075 C171.146143,41.7355125 171.639537,38.8547625 171.727029,36.0142625 C171.77436,34.581075 171.710534,33.1522 171.567823,31.7341063 C171.495391,31.0247 171.400729,30.3181688 171.283117,29.613075 C171.225029,29.2608875 171.159769,28.9094188 171.088054,28.5572313 C171.014906,28.1992938 170.942474,27.8657938 170.842074,27.479825 L170.712271,26.98245 L170.235371,26.77545 C169.298066,26.3693563 168.296934,26.1961375 167.333811,26.1896688 C166.368537,26.1853563 165.436251,26.3276688 164.544843,26.5526375 C164.280217,26.6209188 164.025631,26.7078875 163.768177,26.7883875 C163.69216,26.7876688 163.617577,26.7833563 163.540843,26.7876688 L163.544429,26.8566688 C162.146717,27.3137938 160.837214,27.9362313 159.590103,28.681575 C159.384283,28.8087938 159.233683,28.8957625 158.972643,29.0804813 L158.47638,29.4297938 C158.150797,29.6691375 157.804417,29.8826063 157.460189,30.0982313 C156.773166,30.5302 156.056023,30.9226375 155.32382,31.2877625 C153.859414,32.0187313 152.325446,32.6303875 150.756337,33.1486063 C149.185794,33.666825 147.578677,34.0930438 145.952914,34.4452313 C145.139674,34.6198875 144.321414,34.776575 143.500286,34.9196063 C142.680591,35.0827625 141.842251,35.1064813 141.025426,35.2962313 C140.146926,35.4989188 139.25982,35.673575 138.369846,35.8396063 C138.359089,34.4962625 138.199166,33.4087938 137.966094,32.534075 C138.340443,32.4090125 138.770729,32.26095 139.254083,32.0848563 C140.804546,31.5206375 142.8441,30.7062938 144.812657,29.7431688 C145.301031,29.4937625 145.795143,29.2616063 146.26774,29.0014188 C146.73962,28.7397938 147.212217,28.503325 147.649674,28.2337938 C148.089283,27.968575 148.522437,27.732825 148.911846,27.468325 C149.303406,27.2081375 149.682057,26.9810125 150.01266,26.7395125 C150.68032,26.2651375 151.226066,25.8626375 151.586789,25.5507 C151.954683,25.2509813 152.164806,25.0799188 152.164806,25.0799188 C152.164806,25.0799188 151.934603,25.2236688 151.533003,25.4752313 C151.140009,25.7382938 150.5498,26.0682 149.838394,26.4512938 C149.486277,26.6467938 149.08396,26.824325 148.670886,27.0298875 C148.26068,27.2404813 147.804577,27.41945 147.345606,27.623575 C146.888786,27.8320125 146.395391,28.00595 145.907017,28.2028875 C145.417209,28.3976688 144.905169,28.5637 144.402451,28.7462625 C142.375089,29.4420125 140.301829,29.9832313 138.74276,30.3390125 C138.147531,30.4748563 137.631189,30.58195 137.218831,30.66245 C136.706791,29.7676063 136.184711,29.371575 136.03196,29.2695125 L135.793151,29.1494813 C135.696337,29.1157 135.598806,29.08695 135.502709,29.0538875 C138.855351,27.3885438 144.617594,24.3223563 149.187229,20.8400125 L149.187229,20.8400125 Z M174.948434,42.4801375 L175.582389,42.734575 C175.296966,42.826575 175.029471,42.9135438 174.78134,42.9940438 C174.839429,42.8229813 174.899669,42.6512 174.948434,42.4801375 L174.948434,42.4801375 Z M175.221666,41.2733563 C175.938091,41.57595 176.645194,41.87495 177.34656,42.1725125 C177.295643,42.188325 177.24616,42.2041375 177.195243,42.21995 L175.195131,41.4185438 C175.204454,41.3696688 175.21306,41.3215125 175.221666,41.2733563 L175.221666,41.2733563 Z M166.87484,49.5497625 C166.815317,49.56845 166.763683,49.5857 166.70918,49.60295 C166.580811,49.5102313 166.449574,49.41895 166.319771,49.32695 L166.87484,49.5497625 Z M194.049534,55.0906063 C194.01296,55.0632938 193.979254,55.0331063 193.934791,55.0151375 L191.482163,54.0318875 C192.613814,53.6876063 193.638611,53.3943563 194.184357,53.2851063 C194.476234,53.2261688 194.664126,52.9422625 194.606037,52.65045 C194.547231,52.3586375 194.264677,52.1688875 193.9728,52.227825 C193.182509,52.38595 191.507263,52.8883563 189.893691,53.395075 L187.051654,52.2558563 C186.777706,52.1451688 186.463597,52.279575 186.35244,52.5562938 C186.242,52.8322938 186.376823,53.1463875 186.652206,53.2563563 L188.280837,53.9097 C187.047351,54.3078875 186.0914,54.6270125 185.993151,54.6593563 C185.712031,54.7535125 185.55928,55.0589813 185.653226,55.34145 C185.728526,55.5671375 185.937931,55.7101688 186.163831,55.7101688 C186.219769,55.7101688 186.27714,55.700825 186.333794,55.6821375 C186.366066,55.6713563 188.027686,55.1172 189.852097,54.539325 L192.492617,55.5980438 C188.244263,56.994575 183.312471,58.6987313 177.712303,60.7076375 C177.609751,60.4797938 177.506483,60.2641688 177.402497,60.0787313 L177.32648,59.961575 C177.234686,59.8386688 176.515391,58.886325 175.299834,57.5056063 C175.697849,57.3733563 177.13572,56.8975438 178.70196,56.402325 L182.385206,57.8786375 C182.450466,57.9052313 182.518594,57.91745 182.585289,57.91745 C182.79828,57.91745 183.000514,57.7895125 183.08442,57.5782 C183.19486,57.3022 183.060754,56.9881063 182.784654,56.8781375 L180.332026,55.8948875 C181.463677,55.5498875 182.488474,55.2566375 183.034937,55.1473875 C183.32538,55.0891688 183.513989,54.8052625 183.4559,54.51345 C183.397811,54.2209188 183.112389,54.03045 182.82338,54.090825 C182.032371,54.24895 180.357843,54.7506375 178.743554,55.258075 L175.901517,54.1188563 C175.626851,54.00745 175.31346,54.1418563 175.20302,54.4192938 C175.091863,54.6952938 175.226686,55.0086688 175.502786,55.1193563 L177.1307,55.7719813 C175.897214,56.1701688 174.941263,56.4892938 174.843731,56.5216375 C174.735443,56.5582938 174.654406,56.6308875 174.591297,56.7157 C172.928243,54.8972625 170.583186,52.5685125 167.766249,50.39645 C167.981391,50.32745 168.207291,50.2562938 168.448251,50.180825 L172.163769,51.670075 C172.229029,51.6966688 172.297157,51.7088875 172.363851,51.7088875 C172.576843,51.7088875 172.779077,51.5802313 172.862983,51.3696375 C172.973423,51.0936375 172.839317,50.7795438 172.563217,50.6688563 L170.086923,49.6762625 C171.158334,49.3549813 172.198909,49.06245 172.814217,48.938825 C173.105377,48.8806063 173.293986,48.5967 173.23518,48.3048875 C173.176374,48.0123563 172.894537,47.8240438 172.60266,47.8815438 C171.691889,48.0641063 169.961423,48.57945 168.491997,49.0372938 L167.974937,48.829575 C171.242957,48.3897 173.169203,46.472075 174.238463,44.3072 C174.888194,44.0930125 175.987574,43.7336375 177.153649,43.3642 L180.836177,44.8405125 C180.901437,44.8671063 180.969566,44.879325 181.035543,44.879325 C181.249251,44.879325 181.451486,44.7513875 181.535391,44.540075 C181.645831,44.264075 181.511009,43.9507 181.235626,43.8400125 L178.783714,42.8567625 C178.81742,42.8467 178.85256,42.8359188 178.886266,42.8258563 C181.769897,44.0506063 184.517989,45.2264813 187.09038,46.3326375 C186.906074,46.3585125 186.736829,46.472075 186.662246,46.6582313 C186.551806,46.93495 186.685911,47.248325 186.962011,47.3590125 L188.590643,48.0116375 C187.357874,48.409825 186.401923,48.7282313 186.303674,48.7612938 C186.022554,48.85545 185.869803,49.1609188 185.963031,49.4433875 C186.039049,49.669075 186.248454,49.8113875 186.473637,49.8113875 C186.530291,49.8113875 186.587663,49.8027625 186.644317,49.784075 C186.675871,49.7732938 188.337491,49.2191375 190.161903,48.6419813 L193.845149,50.1182938 C193.910409,50.1441688 193.97782,50.1563875 194.044514,50.1563875 C194.258223,50.1563875 194.45974,50.02845 194.543646,49.8178563 C194.576634,49.7352 194.582371,49.6511063 194.574483,49.56845 C197.37636,50.7867313 199.809626,51.8526375 201.789657,52.7230438 C199.572969,53.349075 196.982649,54.142575 194.049534,55.0906063 L194.049534,55.0906063 Z M206.5981,55.9236375 L206.574434,56.4001688 L205.781991,56.609325 L205.785577,56.11195 C206.067414,56.0443875 206.335626,55.982575 206.5981,55.9236375 L206.5981,55.9236375 Z M179.022523,64.7326375 C179.689466,64.4940125 180.347803,64.2589813 180.994666,64.0297 L180.985343,65.3385438 L179.283563,65.786325 C179.197506,65.42695 179.110731,65.0754813 179.022523,64.7326375 L179.022523,64.7326375 Z M208.717974,52.6447 C208.687854,52.6317625 208.040991,52.342825 206.880654,51.8282 L206.799617,51.4487 C206.636826,51.4839188 206.456823,51.526325 206.285426,51.5651375 C203.919571,50.5172 199.935843,48.76345 194.819746,46.5417938 C194.708589,46.3908563 194.525,46.3096375 194.331371,46.3297625 C188.973597,44.005325 182.431103,41.193575 175.241746,38.1618875 C174.759109,35.8036688 174.808591,30.7501375 174.87672,28.8317938 C174.87672,21.8498563 172.455646,18.5888875 172.001694,18.0397625 C169.393446,14.042075 164.172646,12.6268563 163.905151,12.5571375 C157.331103,11.1246688 148.177491,18.8692 147.839,19.1610125 C145.55992,20.8967938 142.921551,22.5484813 140.452429,23.9637 C133.852563,21.3783563 127.681549,19.0373875 122.110783,17.0069188 L121.768706,16.882575 L121.407983,16.9364813 C121.332683,16.9479813 113.847863,18.078575 103.074943,20.1277313 C98.6164657,16.882575 92.8083257,13.0624188 88.9565514,12.0691063 C88.2293686,11.6522313 85.27976,10.1687313 82.4678429,11.5789188 L82.3373229,11.655825 C81.1762686,12.4593875 71.1907714,19.4916375 70.4549829,24.1613563 C70.2025486,24.6781375 70.2161743,25.5629188 70.9110857,27.2081375 C57.4947771,30.6322625 46.3317314,34.1994188 37.7288857,37.818325 L36.8862429,38.1733875 L35.6864629,69.8177938 L51.3682257,78.7791688 C46.54042,85.3859188 39.17608,86.9722 38.7773486,87.0534188 L29.7435,88.86395 L52.5149371,89.6653563 L46.7670371,102.050856 L49.2211,101.138044 C58.6572657,97.6247938 66.0811286,90.2532938 66.3916514,89.9413563 L66.5766743,89.7559188 L66.6562771,89.5057938 C66.8197857,88.9911688 66.9847286,88.3795125 67.1496714,87.7002938 L78.3041114,94.0942938 C78.4640343,94.2330125 78.5744743,94.31495 78.5938371,94.3286063 L78.62826,94.2797313 L123.015817,119.723481 L123.65766,119.468325 C123.862763,119.387106 143.864594,111.439169 164.397111,103.617731 C164.541257,103.994356 164.695443,104.34295 164.865406,104.652013 L164.924929,104.748325 C165.277763,105.256481 173.65184,117.253856 181.189729,122.3807 L182.733737,123.430794 L182.866409,121.565638 C182.871429,121.498075 183.329683,115.241356 184.6105,110.858419 C187.3715,111.822981 194.760223,114.327106 197.696206,114.553513 L201.033789,114.810825 L198.47072,112.653138 C193.504506,108.472169 185.37856,101.323481 184.145791,99.46695 C184.067623,99.0472 183.865389,97.9453563 183.61654,96.4151375 C194.994729,92.242075 202.808,89.5877313 206.828303,88.5326063 L207.844494,88.2652313 L209.61512,53.0464813 L208.717974,52.6447 Z" id="Fill-48" fill="#4C4139" sketch:type="MSShapeGroup"></path>
                        <path d="M58.4982751,36.5123562 C57.7079837,36.6704812 56.032738,37.1721687 54.4191666,37.6796062 L51.5771294,36.5403875 C51.3024637,36.4297 50.9883551,36.5641062 50.8779151,36.840825 C50.7674751,37.116825 50.9015809,37.4309187 51.1776809,37.5416062 L52.8055951,38.1942312 C51.5728266,38.5924187 50.6168751,38.910825 50.5186266,38.9438875 C50.2367894,39.0380437 50.0847551,39.3427937 50.1779837,39.6259812 C50.2540009,39.8516687 50.4634066,39.9939812 50.6885894,39.9939812 C50.7445266,39.9939812 50.8026151,39.9853562 50.8592694,39.9666687 C50.8908237,39.9558875 52.5524437,39.4017312 54.3768551,38.8238562 L58.060818,40.3008875 C58.1253609,40.3267625 58.1934894,40.3389812 58.2601837,40.3389812 C58.4738923,40.3389812 58.6754094,40.2110437 58.7593151,40.00045 C58.8704723,39.7237312 58.7356494,39.4103562 58.4595494,39.2996687 L56.007638,38.3164187 C57.1385723,37.9721375 58.1633694,37.6788875 58.7098323,37.5696375 C59.0002751,37.5114187 59.1896009,37.2275125 59.1315123,36.9349812 C59.0734237,36.6431687 58.7880009,36.4527 58.4982751,36.5123562" id="Fill-50" fill="#4C4139" sketch:type="MSShapeGroup"></path>
                        <path d="M107.125294,62.8980281 C106.335003,63.0561531 104.659757,63.5585594 103.046185,64.0652781 L100.204148,62.9260594 C99.9287654,62.8153719 99.615374,62.9497781 99.504934,63.2264969 C99.394494,63.5024969 99.5285997,63.8165906 99.8046997,63.9272781 L101.433331,64.5799031 C100.199845,64.9780906 99.243894,65.2972156 99.1456454,65.3295594 C98.8638083,65.4237156 98.711774,65.7291844 98.8050026,66.0116531 C98.8810197,66.2373406 99.0904254,66.3803719 99.3156083,66.3803719 C99.3715454,66.3803719 99.429634,66.3717469 99.4862883,66.3523406 C99.5178426,66.3415594 101.18018,65.7874031 103.004591,65.2095281 L106.687837,66.6865594 C106.75238,66.7124344 106.820508,66.7246531 106.887203,66.7246531 C107.100911,66.7246531 107.302428,66.5967156 107.386334,66.3861219 C107.497491,66.1094031 107.362668,65.7960281 107.086568,65.6853406 L104.634657,64.7020906 C105.765591,64.3578094 106.790388,64.0645594 107.336851,63.9553094 C107.628011,63.8970906 107.81662,63.6131844 107.758531,63.3206531 C107.700443,63.0288406 107.414303,62.8390906 107.125294,62.8980281" id="Fill-52" fill="#4C4139" sketch:type="MSShapeGroup"></path>
                        <path d="M117.346731,68.4855188 C116.55644,68.6436438 114.881194,69.14605 113.267623,69.6534875 L110.424868,68.51355 C110.15092,68.4028625 109.836094,68.5372688 109.725654,68.8139875 C109.615214,69.0899875 109.74932,69.4040813 110.02542,69.5147688 L111.654051,70.1673938 C110.421283,70.5655813 109.465331,70.8847063 109.367083,70.91705 C109.085245,71.0112063 108.933211,71.316675 109.02644,71.5991438 C109.102457,71.8248313 109.311863,71.9678625 109.537045,71.9678625 C109.592983,71.9678625 109.651071,71.9592375 109.707725,71.9398313 C109.73928,71.92905 111.4009,71.3748938 113.225311,70.7977375 L116.908557,72.27405 C116.9731,72.3006438 117.041228,72.3128625 117.107923,72.3128625 C117.321631,72.3128625 117.523148,72.1842063 117.607054,71.9736125 C117.718211,71.6976125 117.583388,71.3835188 117.307288,71.2728313 L114.855377,70.2903 C115.987028,69.9453 117.011825,69.65205 117.558288,69.5428 C117.849448,69.4845813 118.038057,69.200675 117.979968,68.9081438 C117.921163,68.6163313 117.637891,68.4258625 117.346731,68.4855188" id="Fill-54" fill="#4C4139" sketch:type="MSShapeGroup"></path>
                        <path d="M127.567379,74.694225 C126.777088,74.85235 125.101842,75.3540375 123.488271,75.861475 L120.646234,74.7222563 C120.371568,74.6122875 120.056742,74.745975 119.947019,75.0226938 C119.836579,75.2986938 119.970685,75.6127875 120.246785,75.723475 L121.874699,76.3761 C120.641931,76.7742875 119.685979,77.0926938 119.587731,77.1257563 C119.305894,77.2199125 119.153859,77.5246625 119.247088,77.80785 C119.323105,78.0335375 119.532511,78.17585 119.757694,78.17585 C119.813631,78.17585 119.871719,78.167225 119.928374,78.1485375 C119.959928,78.1377563 121.621548,77.5836 123.445959,77.005725 L127.129922,78.4827563 C127.194465,78.5086313 127.262594,78.52085 127.329288,78.52085 C127.542997,78.52085 127.744514,78.3929125 127.828419,78.1823188 C127.939577,77.9056 127.804754,77.592225 127.528654,77.4815375 L125.076742,76.4982875 C126.207677,76.1540063 127.232474,75.8607563 127.778937,75.7515063 C128.069379,75.6932875 128.258705,75.4093813 128.200617,75.11685 C128.142528,74.8250375 127.856388,74.6324125 127.567379,74.694225" id="Fill-56" fill="#4C4139" sketch:type="MSShapeGroup"></path>
                        <path d="M132.832499,67.2438062 C132.042207,67.4019312 130.366962,67.9043375 128.75339,68.411775 L125.911353,67.2718375 C125.636687,67.1618687 125.322579,67.2955562 125.212139,67.572275 C125.101699,67.848275 125.235805,68.1623687 125.511905,68.2730562 L127.140536,68.9256812 C125.907767,69.3238687 124.951816,69.6429937 124.853567,69.6753375 C124.57173,69.7694937 124.419696,70.0749625 124.512925,70.3574312 C124.588942,70.5831187 124.798347,70.72615 125.02353,70.72615 C125.079467,70.72615 125.137556,70.717525 125.19421,70.6981187 C125.225765,70.6873375 126.887385,70.1331812 128.711079,69.5553062 L132.395042,71.0323375 C132.459585,71.0589312 132.527713,71.07115 132.594407,71.07115 C132.808116,71.07115 133.009633,70.9424937 133.093539,70.7319 C133.204696,70.4559 133.069873,70.1418062 132.793773,70.0311187 L130.341862,69.0478687 C131.472796,68.7035875 132.497593,68.4103375 133.044056,68.3010875 C133.335216,68.2428687 133.523825,67.9589625 133.465736,67.6664312 C133.407647,67.3746187 133.122225,67.1863062 132.832499,67.2438062" id="Fill-58" fill="#4C4139" sketch:type="MSShapeGroup"></path>
                        <path d="M151.120359,65.4940094 C151.061553,65.2021969 150.777565,65.0124469 150.487122,65.0713844 C149.69683,65.2295094 148.021585,65.7311969 146.408013,66.2386344 L143.565976,65.0994156 C143.292027,64.9880094 142.977919,65.1231344 142.866762,65.3998531 C142.756322,65.6758531 142.890427,65.9892281 143.166527,66.0999156 L144.795159,66.7525406 C143.561673,67.1507281 142.605722,67.4698531 142.507473,67.5021969 C142.226353,67.5963531 142.073602,67.9018219 142.167547,68.1842906 C142.242847,68.4099781 142.452253,68.5530094 142.678153,68.5530094 C142.73409,68.5530094 142.791462,68.5443844 142.848116,68.5249781 C142.87967,68.5149156 144.542007,67.9607594 146.366419,67.3828844 L150.049665,68.8591969 C150.114925,68.8857906 150.182336,68.8980094 150.24903,68.8980094 C150.462739,68.8980094 150.664256,68.7700719 150.748162,68.5587594 C150.859319,68.2827594 150.724496,67.9686656 150.448396,67.8586969 L147.996485,66.8754469 C149.128136,66.5311656 150.152933,66.2379156 150.698679,66.1279469 C150.989839,66.0697281 151.178447,65.7858219 151.120359,65.4940094" id="Fill-60" fill="#4C4139" sketch:type="MSShapeGroup"></path>
                        <path d="M114.492861,64.5173 C114.548798,64.5173 114.60617,64.508675 114.662824,64.4892688 C114.695095,64.4792063 116.356715,63.92505 118.181127,63.347175 L121.863655,64.8234875 C121.928915,64.8500813 121.997044,64.8623 122.063738,64.8623 C122.27673,64.8623 122.478964,64.7343625 122.56287,64.52305 C122.67331,64.24705 122.539204,63.933675 122.263104,63.8229875 L119.811193,62.8397375 C120.942844,62.4954563 121.967641,62.2022063 122.514104,62.0922375 C122.805264,62.0340188 122.993873,61.7501125 122.935067,61.4583 C122.876261,61.1664875 122.59299,60.9774563 122.302547,61.035675 C121.511538,61.1938 119.83701,61.6954875 118.222721,62.202925 L115.380684,61.0637063 C115.106018,60.9523 114.79191,61.0881438 114.682187,61.3641438 C114.57103,61.6401438 114.705853,61.9542375 114.981953,62.0642063 L116.609867,62.71755 C115.377098,63.1150188 114.421147,63.4341438 114.322898,63.4672063 C114.041061,63.5606438 113.88831,63.8661125 113.982255,64.1485813 C114.058273,64.3742688 114.267678,64.5173 114.492861,64.5173" id="Fill-62" fill="#4C4139" sketch:type="MSShapeGroup"></path>
                        <path d="M137.788099,58.8623906 C136.997808,59.0205156 135.322562,59.5229219 133.708991,60.0303594 L130.866954,58.8904219 C130.592288,58.7804531 130.278179,58.9141406 130.167739,59.1908594 C130.057299,59.4668594 130.191405,59.7809531 130.467505,59.8916406 L132.096137,60.5442656 C130.863368,60.9424531 129.907417,61.2615781 129.809168,61.2939219 C129.527331,61.3880781 129.375297,61.6935469 129.468525,61.9760156 C129.544542,62.2017031 129.753948,62.3447344 129.979131,62.3447344 C130.035068,62.3447344 130.093157,62.3361094 130.149811,62.3167031 C130.181365,62.3059219 131.842985,61.7517656 133.667397,61.1738906 L137.350642,62.6509219 C137.415185,62.6775156 137.483314,62.6897344 137.550008,62.6897344 C137.763717,62.6897344 137.965234,62.5610781 138.049139,62.3504844 C138.160297,62.0744844 138.025474,61.7603906 137.749374,61.6497031 L135.297462,60.6671719 C136.429114,60.3221719 137.453911,60.0289219 137.999657,59.9196719 C138.290817,59.8614531 138.479425,59.5768281 138.421337,59.2850156 C138.362531,58.9932031 138.077108,58.8034531 137.788099,58.8623906" id="Fill-64" fill="#4C4139" sketch:type="MSShapeGroup"></path>
                        <path d="M110.900119,25.2885719 C110.956056,25.2885719 111.013427,25.2799469 111.070082,25.2605406 C111.102353,25.2504781 112.763973,24.6963219 114.588385,24.1184469 L118.27163,25.5947594 C118.33689,25.6206344 118.405019,25.6328531 118.471713,25.6328531 C118.684705,25.6328531 118.886939,25.5049156 118.970845,25.2943219 C119.081285,25.0183219 118.947179,24.7042281 118.671079,24.5935406 L116.219167,23.6110094 C117.350102,23.2660094 118.374899,22.9727594 118.921362,22.8635094 C119.212522,22.8052906 119.40113,22.5213844 119.342325,22.2295719 C119.284236,21.9370406 118.998813,21.7465719 118.709805,21.8062281 C117.919513,21.9650719 116.244267,22.4667594 114.630696,22.9741969 L111.787942,21.8342594 C111.513276,21.7242906 111.199167,21.8586969 111.089445,22.1346969 C110.978287,22.4114156 111.11311,22.7247906 111.38921,22.8354781 L113.017125,23.4881031 C111.784356,23.8862906 110.828405,24.2054156 110.730156,24.2384781 C110.448319,24.3319156 110.295567,24.6373844 110.389513,24.9198531 C110.46553,25.1455406 110.674936,25.2885719 110.900119,25.2885719" id="Fill-66" fill="#4C4139" sketch:type="MSShapeGroup"></path>
                        <path d="M183.442203,47.260975 C182.651911,47.4191 180.977383,47.9215062 179.363811,48.4289437 L176.521057,47.2890062 C176.246391,47.1790375 175.931565,47.312725 175.821843,47.5894437 C175.711403,47.8654437 175.845508,48.1795375 176.121608,48.290225 L177.75024,48.94285 C176.517471,49.3410375 175.56152,49.6601625 175.463271,49.6925062 C175.181434,49.7866625 175.0294,50.0921312 175.122628,50.3746 C175.198645,50.6002875 175.408051,50.7433187 175.633234,50.7433187 C175.689171,50.7433187 175.74726,50.7346937 175.803914,50.7152875 C175.835468,50.7045062 177.497088,50.15035 179.3215,49.572475 L183.004745,51.0495062 C183.069288,51.0753812 183.137417,51.0876 183.204111,51.0876 C183.41782,51.0876 183.619337,50.9596625 183.703243,50.7490687 C183.8144,50.47235 183.679577,50.158975 183.403477,50.0482875 L180.952283,49.0650375 C182.083217,48.7207562 183.108014,48.4275062 183.65376,48.3182562 C183.94492,48.2600375 184.133528,47.9754125 184.07544,47.6836 C184.017351,47.3910687 183.731928,47.2027562 183.442203,47.260975" id="Fill-68" fill="#4C4139" sketch:type="MSShapeGroup"></path>
                        <path d="M23.7105357,61.6226063 C23.7105357,60.985075 24.80131,60.272075 26.2628471,60.272075 C27.7236671,60.272075 28.8144414,60.985075 28.8144414,61.6226063 C28.8144414,62.2601375 27.7236671,62.9731375 26.2628471,62.9731375 C24.80131,62.9731375 23.7105357,62.2601375 23.7105357,61.6226063 M30.2487271,61.6226063 C30.2487271,60.059325 28.4981814,58.834575 26.2628471,58.834575 C24.0267957,58.834575 22.27625,60.059325 22.27625,61.6226063 C22.27625,63.1858875 24.0267957,64.4106375 26.2628471,64.4106375 C28.4981814,64.4106375 30.2487271,63.1858875 30.2487271,61.6226063" id="Fill-70" fill="#4C4139" sketch:type="MSShapeGroup"></path>
                        <path d="M5.09845543,54.0638 C6.55927543,54.0638 7.65076686,54.7768 7.65076686,55.4143312 C7.65076686,56.0518625 6.55927543,56.7648625 5.09845543,56.7648625 C3.63763543,56.7648625 2.546144,56.0518625 2.546144,55.4143312 C2.546144,54.7768 3.63763543,54.0638 5.09845543,54.0638 M5.09845543,58.2023625 C7.33378971,58.2023625 9.08505257,56.9776125 9.08505257,55.4143312 C9.08505257,53.85105 7.33378971,52.6263 5.09845543,52.6263 C2.86312114,52.6263 1.11185829,53.85105 1.11185829,55.4143312 C1.11185829,56.9776125 2.86312114,58.2023625 5.09845543,58.2023625" id="Fill-72" fill="#4C4139" sketch:type="MSShapeGroup"></path>
                        <path d="M20.5842231,29.2304844 C22.0450431,29.2304844 23.1365346,29.9434844 23.1365346,30.5810156 C23.1365346,31.2185469 22.0450431,31.9315469 20.5842231,31.9315469 C19.1234031,31.9315469 18.0319117,31.2185469 18.0319117,30.5810156 C18.0319117,29.9434844 19.1234031,29.2304844 20.5842231,29.2304844 M20.5842231,33.3690469 C22.8195574,33.3690469 24.5708203,32.1450156 24.5708203,30.5810156 C24.5708203,29.0177344 22.8195574,27.7929844 20.5842231,27.7929844 C18.3488889,27.7929844 16.597626,29.0177344 16.597626,30.5810156 C16.597626,32.1450156 18.3488889,33.3690469 20.5842231,33.3690469" id="Fill-74" fill="#4C4139" sketch:type="MSShapeGroup"></path>
                        <path d="M35.7261926,80.9663969 C37.1870126,80.9663969 38.278504,81.6793969 38.278504,82.3169281 C38.278504,82.9544594 37.1870126,83.6674594 35.7261926,83.6674594 C34.2653726,83.6674594 33.1738811,82.9544594 33.1738811,82.3169281 C33.1738811,81.6793969 34.2653726,80.9663969 35.7261926,80.9663969 M35.7261926,85.1049594 C37.9615269,85.1049594 39.7127897,83.8809281 39.7127897,82.3169281 C39.7127897,80.7536469 37.9615269,79.5288969 35.7261926,79.5288969 C33.4908583,79.5288969 31.7395954,80.7536469 31.7395954,82.3169281 C31.7395954,83.8809281 33.4908583,85.1049594 35.7261926,85.1049594" id="Fill-76" fill="#4C4139" sketch:type="MSShapeGroup"></path>
                        <path d="M29.5317277,107.466494 C28.0709077,107.466494 26.9794163,106.753494 26.9794163,106.115963 C26.9794163,105.477713 28.0709077,104.764713 29.5317277,104.764713 C30.9925477,104.764713 32.0840391,105.477713 32.0840391,106.115963 C32.0840391,106.753494 30.9925477,107.466494 29.5317277,107.466494 M29.5317277,103.327213 C27.2963934,103.327213 25.5451306,104.551963 25.5451306,106.115963 C25.5451306,107.679244 27.2963934,108.903994 29.5317277,108.903994 C31.767062,108.903994 33.5183249,107.679244 33.5183249,106.115963 C33.5183249,104.551963 31.767062,103.327213 29.5317277,103.327213" id="Fill-78" fill="#4C4139" sketch:type="MSShapeGroup"></path>
                        <path d="M81.5259474,114.923813 C80.0651274,114.923813 78.973636,114.210813 78.973636,113.573281 C78.973636,112.93575 80.0651274,112.22275 81.5259474,112.22275 C82.9867674,112.22275 84.0782589,112.93575 84.0782589,113.573281 C84.0782589,114.210813 82.9867674,114.923813 81.5259474,114.923813 M81.5259474,110.78525 C79.2906131,110.78525 77.5393503,112.009281 77.5393503,113.573281 C77.5393503,115.136563 79.2906131,116.361313 81.5259474,116.361313 C83.7612817,116.361313 85.5125446,115.136563 85.5125446,113.573281 C85.5125446,112.009281 83.7612817,110.78525 81.5259474,110.78525" id="Fill-80" fill="#4C4139" sketch:type="MSShapeGroup"></path>
                        <path d="M165.431662,3.69128437 C166.892482,3.69128437 167.983973,4.40428437 167.983973,5.04181562 C167.983973,5.67934687 166.892482,6.39234687 165.431662,6.39234687 C163.970842,6.39234687 162.87935,5.67934687 162.87935,5.04181562 C162.87935,4.40428437 163.970842,3.69128437 165.431662,3.69128437 M165.431662,7.82984687 C167.666996,7.82984687 169.418259,6.60509687 169.418259,5.04181562 C169.418259,3.47853437 167.666996,2.25378437 165.431662,2.25378437 C163.196327,2.25378437 161.445065,3.47853437 161.445065,5.04181562 C161.445065,6.60509687 163.196327,7.82984687 165.431662,7.82984687" id="Fill-82" fill="#4C4139" sketch:type="MSShapeGroup"></path>
                        <path d="M123.188218,5.96095313 C124.649038,5.96095313 125.74053,6.67395313 125.74053,7.31148438 C125.74053,7.94901563 124.649038,8.66201563 123.188218,8.66201563 C121.727398,8.66201563 120.635907,7.94901563 120.635907,7.31148438 C120.635907,6.67395313 121.727398,5.96095313 123.188218,5.96095313 M123.188218,10.0995156 C125.423553,10.0995156 127.174815,8.87548438 127.174815,7.31148438 C127.174815,5.74820313 125.423553,4.52345313 123.188218,4.52345313 C120.952884,4.52345313 119.201621,5.74820313 119.201621,7.31148438 C119.201621,8.87548438 120.952884,10.0995156 123.188218,10.0995156" id="Fill-84" fill="#4C4139" sketch:type="MSShapeGroup"></path>
                        <path d="M194.834519,21.6600344 C196.295339,21.6600344 197.38683,22.3730344 197.38683,23.0105656 C197.38683,23.6480969 196.295339,24.3610969 194.834519,24.3610969 C193.373699,24.3610969 192.282207,23.6480969 192.282207,23.0105656 C192.282207,22.3730344 193.373699,21.6600344 194.834519,21.6600344 M194.834519,25.7985969 C197.069853,25.7985969 198.821116,24.5738469 198.821116,23.0105656 C198.821116,21.4472844 197.069853,20.2225344 194.834519,20.2225344 C192.599185,20.2225344 190.847922,21.4472844 190.847922,23.0105656 C190.847922,24.5738469 192.599185,25.7985969 194.834519,25.7985969" id="Fill-86" fill="#4C4139" sketch:type="MSShapeGroup"></path>
                        <path d="M218.500233,82.0350344 C219.961053,82.0350344 221.052545,82.7480344 221.052545,83.3855656 C221.052545,84.0230969 219.961053,84.7360969 218.500233,84.7360969 C217.039413,84.7360969 215.947922,84.0230969 215.947922,83.3855656 C215.947922,82.7480344 217.039413,82.0350344 218.500233,82.0350344 M218.500233,86.1735969 C220.735567,86.1735969 222.48683,84.9488469 222.48683,83.3855656 C222.48683,81.8222844 220.735567,80.5975344 218.500233,80.5975344 C216.264899,80.5975344 214.513636,81.8222844 214.513636,83.3855656 C214.513636,84.9488469 216.264899,86.1735969 218.500233,86.1735969" id="Fill-88" fill="#4C4139" sketch:type="MSShapeGroup"></path>
                        <g id="Group-92">
                            <mask id="mask-4" sketch:name="Clip 91" fill="white">
                                <use xlink:href="#path-3"></use>
                            </mask>
                            <g id="Clip-91"></g>
                            <path d="M246.468805,76.8300625 C245.007985,76.8300625 243.916493,76.1170625 243.916493,75.4795313 C243.916493,74.842 245.007985,74.129 246.468805,74.129 C247.929625,74.129 249.021116,74.842 249.021116,75.4795313 C249.021116,76.1170625 247.929625,76.8300625 246.468805,76.8300625 M246.468805,72.6915 C244.23347,72.6915 242.482207,73.9155313 242.482207,75.4795313 C242.482207,77.0428125 244.23347,78.2675625 246.468805,78.2675625 C248.704139,78.2675625 250.455402,77.0428125 250.455402,75.4795313 C250.455402,73.9155313 248.704139,72.6915 246.468805,72.6915" id="Fill-90" fill="#4C4139" sketch:type="MSShapeGroup" mask="url(#mask-4)"></path>
                        </g>
                        <path d="M138.180233,127.142563 C136.719413,127.142563 135.627922,126.429563 135.627922,125.792031 C135.627922,125.1545 136.719413,124.4415 138.180233,124.4415 C139.641053,124.4415 140.732545,125.1545 140.732545,125.792031 C140.732545,126.429563 139.641053,127.142563 138.180233,127.142563 M138.180233,123.004 C135.944899,123.004 134.193636,124.228031 134.193636,125.792031 C134.193636,127.355313 135.944899,128.580063 138.180233,128.580063 C140.415567,128.580063 142.16683,127.355313 142.16683,125.792031 C142.16683,124.228031 140.415567,123.004 138.180233,123.004" id="Fill-93" fill="#4C4139" sketch:type="MSShapeGroup"></path>
                        <path d="M222.692435,70.6572219 L216.732261,66.8845031 L222.479444,65.3693781 L227.830764,68.8395031 L222.692435,70.6572219 Z M213.178818,66.3360969 L222.514584,72.2449406 L231.060775,69.2211594 L222.727575,63.8175969 L213.178818,66.3360969 Z" id="Fill-95" fill="#4C4139" sketch:type="MSShapeGroup"></path>
                        <g id="Group-99">
                            <mask id="mask-6" sketch:name="Clip 98" fill="white">
                                <use xlink:href="#path-5"></use>
                            </mask>
                            <g id="Clip-98"></g>
                            <path d="M97.0244086,4.94737188 L102.34274,2.02349688 L107.375649,3.92387188 L101.787671,6.50993438 L97.0244086,4.94737188 Z M111.086863,3.79018438 L102.230866,0.444403125 L93.4343914,5.28230938 L101.877314,8.05237188 L111.086863,3.79018438 Z" id="Fill-97" fill="#4C4139" sketch:type="MSShapeGroup" mask="url(#mask-6)"></path>
                        </g>
                        <path d="M34.6402949,31.9185375 C35.529552,31.9185375 36.2502806,31.4671625 36.2502806,30.9101312 C36.2502806,30.3531 35.529552,29.901725 34.6402949,29.901725 C33.7510377,29.901725 33.0303091,30.3531 33.0303091,30.9101312 C33.0303091,31.4671625 33.7510377,31.9185375 34.6402949,31.9185375" id="Fill-100" fill="#4C4139" sketch:type="MSShapeGroup"></path>
                        <path d="M136.872882,15.7828156 C137.762139,15.7828156 138.482867,15.3314406 138.482867,14.7744094 C138.482867,14.2173781 137.762139,13.7660031 136.872882,13.7660031 C135.983625,13.7660031 135.262896,14.2173781 135.262896,14.7744094 C135.262896,15.3314406 135.983625,15.7828156 136.872882,15.7828156" id="Fill-102" fill="#4C4139" sketch:type="MSShapeGroup"></path>
                        <path d="M176.316886,10.5387437 C177.206143,10.5387437 177.926872,10.0873687 177.926872,9.5303375 C177.926872,8.97330625 177.206143,8.52193125 176.316886,8.52193125 C175.427629,8.52193125 174.706901,8.97330625 174.706901,9.5303375 C174.706901,10.0873687 175.427629,10.5387437 176.316886,10.5387437" id="Fill-104" fill="#4C4139" sketch:type="MSShapeGroup"></path>
                        <path d="M217.370948,56.5254469 C218.260205,56.5254469 218.980934,56.0740719 218.980934,55.5170406 C218.980934,54.9600094 218.260205,54.5086344 217.370948,54.5086344 C216.481691,54.5086344 215.760963,54.9600094 215.760963,55.5170406 C215.760963,56.0740719 216.481691,56.5254469 217.370948,56.5254469" id="Fill-106" fill="#4C4139" sketch:type="MSShapeGroup"></path>
                        <path d="M200.466313,96.0579188 C199.577056,96.0579188 198.856328,96.5092938 198.856328,97.066325 C198.856328,97.6233563 199.577056,98.0747313 200.466313,98.0747313 C201.355571,98.0747313 202.076299,97.6233563 202.076299,97.066325 C202.076299,96.5092938 201.355571,96.0579188 200.466313,96.0579188" id="Fill-108" fill="#4C4139" sketch:type="MSShapeGroup"></path>
                        <path d="M151.362466,116.227481 C150.473209,116.227481 149.752481,116.678856 149.752481,117.235887 C149.752481,117.792919 150.473209,118.244294 151.362466,118.244294 C152.251723,118.244294 152.972452,117.792919 152.972452,117.235887 C152.972452,116.678856 152.251723,116.227481 151.362466,116.227481" id="Fill-110" fill="#4C4139" sketch:type="MSShapeGroup"></path>
                        <path d="M87.366574,117.034278 C86.4773169,117.034278 85.7565883,117.485653 85.7565883,118.042684 C85.7565883,118.599716 86.4773169,119.051091 87.366574,119.051091 C88.2558311,119.051091 88.9765597,118.599716 88.9765597,118.042684 C88.9765597,117.485653 88.2558311,117.034278 87.366574,117.034278" id="Fill-112" fill="#4C4139" sketch:type="MSShapeGroup"></path>
                        <path d="M39.470252,96.0579188 C38.5809949,96.0579188 37.8602663,96.5092938 37.8602663,97.066325 C37.8602663,97.6233563 38.5809949,98.0747313 39.470252,98.0747313 C40.3595091,98.0747313 41.0802377,97.6233563 41.0802377,97.066325 C41.0802377,96.5092938 40.3595091,96.0579188 39.470252,96.0579188" id="Fill-114" fill="#4C4139" sketch:type="MSShapeGroup"></path>
                        <path d="M14.1132997,62.5763156 C14.1132997,63.1333469 14.8340283,63.5847219 15.7232854,63.5847219 C16.6125426,63.5847219 17.3332711,63.1333469 17.3332711,62.5763156 C17.3332711,62.0192844 16.6125426,61.5679094 15.7232854,61.5679094 C14.8340283,61.5679094 14.1132997,62.0192844 14.1132997,62.5763156" id="Fill-116" fill="#4C4139" sketch:type="MSShapeGroup"></path>
                        <path d="M182.354225,25.6659156 C183.243482,25.6659156 183.964211,25.2145406 183.964211,24.6575094 C183.964211,24.1004781 183.243482,23.6491031 182.354225,23.6491031 C181.464968,23.6491031 180.744239,24.1004781 180.744239,24.6575094 C180.744239,25.2145406 181.464968,25.6659156 182.354225,25.6659156" id="Fill-118" fill="#4C4139" sketch:type="MSShapeGroup"></path>
                        <path d="M109.101023,9.73194688 C109.101023,10.2889781 109.821751,10.7403531 110.711008,10.7403531 C111.600265,10.7403531 112.320994,10.2889781 112.320994,9.73194688 C112.320994,9.17491563 111.600265,8.72354063 110.711008,8.72354063 C109.821751,8.72354063 109.101023,9.17491563 109.101023,9.73194688" id="Fill-120" fill="#4C4139" sketch:type="MSShapeGroup"></path>
                        <path d="M240.715383,79.7205156 C239.826125,79.7205156 239.105397,80.1718906 239.105397,80.7289219 C239.105397,81.2859531 239.826125,81.7373281 240.715383,81.7373281 C241.60464,81.7373281 242.325368,81.2859531 242.325368,80.7289219 C242.325368,80.1718906 241.60464,79.7205156 240.715383,79.7205156" id="Fill-122" fill="#4C4139" sketch:type="MSShapeGroup"></path>
                    </g>
                </g>
            </g>
        </g>
    </g>
</svg>