<svg width="56" height="37" viewBox="0 0 56 37" fill="none" xmlns="http://www.w3.org/2000/svg">
<path d="M52.0799 15.3657L50.6297 9.47056C51.0262 9.38498 51.3237 9.0275 51.3237 8.59922V7.64874C51.3237 5.58504 49.6716 3.90616 47.641 3.90616H41.0356V1.94561C41.0356 0.930106 40.2227 0.104004 39.2235 0.104004H5.5532C4.55395 0.104004 3.74107 0.930106 3.74107 1.94561V18.1042C3.74107 18.5963 4.13362 18.9953 4.61793 18.9953C5.10214 18.9953 5.49479 18.5964 5.49479 18.1042V1.94561C5.49479 1.91282 5.52093 1.88626 5.5532 1.88626H39.2234C39.2556 1.88626 39.2818 1.91282 39.2818 1.94561V18.1044C39.2818 18.5965 39.6743 18.9955 40.1586 18.9955C40.6428 18.9955 41.0355 18.5966 41.0355 18.1044V17.0942H51.379C51.3799 17.0942 51.3805 17.0944 51.3813 17.0944C51.3822 17.0944 51.3829 17.0943 51.3837 17.0943C52.6565 17.0952 53.7372 17.9442 54.1085 19.1141H51.382C50.8978 19.1141 50.5051 19.5131 50.5051 20.0053V21.9062C50.5051 23.4458 51.7375 24.6983 53.2525 24.6983H54.2463V28.6191H51.9536C51.2004 26.409 49.1331 24.817 46.7055 24.817C44.2779 24.817 42.2105 26.409 41.4575 28.6191H41.0353V21.9061C41.0353 21.414 40.6427 21.015 40.1584 21.015C39.6742 21.015 39.2816 21.4139 39.2816 21.9061V28.6189H21.0894C20.3362 26.4088 18.2689 24.8168 15.8414 24.8168C13.4138 24.8168 11.3464 26.4088 10.5933 28.6189H5.5532C5.52093 28.6189 5.49479 28.5923 5.49479 28.5595V26.5991H9.29438C9.77858 26.5991 10.1712 26.2001 10.1712 25.7079C10.1712 25.2157 9.77869 24.8168 9.29438 24.8168H0.876861C0.392657 24.8168 0 25.2157 0 25.7079C0 26.2001 0.392548 26.5991 0.876861 26.5991H3.74118V28.5595C3.74118 29.575 4.55406 30.4011 5.55331 30.4011H10.2897C10.2895 30.4209 10.2882 30.4406 10.2882 30.4605C10.2882 33.5723 12.7794 36.104 15.8414 36.104C18.9033 36.104 21.3946 33.5723 21.3946 30.4605C21.3946 30.4405 21.3932 30.4209 21.393 30.4011H41.1538C41.1536 30.4209 41.1523 30.4406 41.1523 30.4605C41.1523 33.5723 43.6436 36.104 46.7055 36.104C49.7675 36.104 52.2587 33.5723 52.2587 30.4605C52.2587 30.4405 52.2574 30.4209 52.2572 30.4011H55.1231C55.6073 30.4011 56 30.0022 56 29.51V20.005C56.0001 17.6583 54.2964 15.7086 52.0799 15.3657ZM41.0356 5.6883H47.641C48.7047 5.6883 49.57 6.56776 49.57 7.64874V7.7081H41.0356V5.6883ZM41.0356 15.3121V9.49024H48.827L50.2591 15.3121H41.0356ZM15.8414 34.3221C13.7463 34.3221 12.0418 32.59 12.0418 30.4607C12.0418 28.3314 13.7463 26.5993 15.8414 26.5993C17.9364 26.5993 19.6409 28.3314 19.6409 30.4607C19.6409 32.59 17.9364 34.3221 15.8414 34.3221ZM46.7057 34.3221C44.6106 34.3221 42.9061 32.59 42.9061 30.4607C42.9061 28.3314 44.6106 26.5993 46.7057 26.5993C48.8008 26.5993 50.5053 28.3314 50.5053 30.4607C50.5053 32.59 48.8008 34.3221 46.7057 34.3221ZM54.2465 22.9161H53.2527C52.7047 22.9161 52.2589 22.463 52.2589 21.9061V20.8962H54.2464L54.2465 22.9161Z" fill="#313131"/>
<path d="M15.8413 28.6191C14.842 28.6191 14.0292 29.4452 14.0292 30.4607C14.0292 31.4763 14.842 32.3024 15.8413 32.3024C16.8405 32.3024 17.6534 31.4763 17.6534 30.4607C17.6534 29.4452 16.8405 28.6191 15.8413 28.6191Z" fill="#313131"/>
<path d="M46.7057 28.6191C45.7064 28.6191 44.8935 29.4452 44.8935 30.4607C44.8935 31.4763 45.7064 32.3024 46.7057 32.3024C47.7049 32.3024 48.5178 31.4763 48.5178 30.4607C48.5178 29.4452 47.7049 28.6191 46.7057 28.6191Z" fill="#313131"/>
<path d="M36.4175 24.8171H23.3236C22.8394 24.8171 22.4467 25.216 22.4467 25.7082C22.4467 26.2004 22.8393 26.5994 23.3236 26.5994H36.4175C36.9017 26.5994 37.2944 26.2004 37.2944 25.7082C37.2944 25.216 36.9018 24.8171 36.4175 24.8171Z" fill="#313131"/>
<path d="M13.9708 21.0151H2.74735C2.26315 21.0151 1.87049 21.414 1.87049 21.9062C1.87049 22.3984 2.26304 22.7974 2.74735 22.7974H13.9708C14.455 22.7974 14.8476 22.3984 14.8476 21.9062C14.8476 21.414 14.455 21.0151 13.9708 21.0151Z" fill="#313131"/>
<path d="M30.4908 8.91951C30.1484 8.5716 29.5931 8.5716 29.2508 8.91963L21.4532 16.844L17.3968 12.7216C17.0543 12.3735 16.4991 12.3735 16.1568 12.7216C15.8143 13.0696 15.8143 13.6337 16.1568 13.9817L20.8332 18.7342C21.0044 18.9083 21.2289 18.9952 21.4532 18.9952C21.6775 18.9952 21.9021 18.9083 22.0731 18.7342L30.4906 10.1798C30.8331 9.83165 30.8331 9.26754 30.4908 8.91951Z" fill="#313131"/>
</svg>
