<svg width="41" height="38" viewBox="0 0 41 38" fill="none" xmlns="http://www.w3.org/2000/svg">
<path d="M16.4834 4.07407C12.9015 0.516524 5.89225 0.104004 0.930875 0.104004C0.417048 0.104004 0 0.518346 0 1.02894C0 5.95916 0.413295 12.9244 3.99516 16.4839C5.50688 17.9861 7.82469 18.6576 10.122 18.6576C12.6185 18.6576 15.0927 17.864 16.4834 16.482C19.1512 13.831 19.6409 7.20982 16.4834 4.07407ZM15.1672 15.1759C13.1752 17.1535 7.64414 17.492 5.31333 15.1759C2.42209 12.3029 1.92127 6.46612 1.86725 1.95952C6.40233 2.0132 12.276 2.51079 15.1671 5.38387C17.498 7.70004 17.1574 13.1983 15.1672 15.1759Z" fill="#313131"/>
<path d="M40.0692 3.76334C35.1078 3.76334 28.0986 4.17404 24.5166 7.73341C21.3592 10.8692 21.8488 17.4903 24.5166 20.1414C25.9073 21.5215 28.3797 22.3152 30.8762 22.3152C33.1735 22.3152 35.4895 21.6454 37.0048 20.1433C40.5849 16.5839 41 9.61868 41 4.68837C41.0001 4.17777 40.583 3.76334 40.0692 3.76334ZM35.6849 18.8334C33.3541 21.1496 27.8211 20.811 25.831 18.8334C23.8409 16.8558 23.5002 11.3576 25.831 9.04139C28.7223 6.16831 34.5958 5.67072 39.1309 5.61704C39.077 10.1255 38.5762 15.9622 35.6849 18.8334Z" fill="#313131"/>
<path d="M33.3466 11.7701C33.127 11.3057 32.4977 11.1467 32.0341 11.3612C24.8946 14.6968 21.3871 20.5132 19.7935 26.4923C17.8219 13.7791 12.1196 9.9034 9.70125 8.25878C9.39965 8.05343 9.16508 7.90358 9.03479 7.77593C8.67176 7.41518 8.08157 7.41518 7.71854 7.77593C7.35551 8.13668 7.35551 8.72316 7.71854 9.08391C7.90285 9.26524 8.2212 9.49279 8.65125 9.78503C11.3768 11.6369 18.6169 16.5597 18.6169 36.179C18.6169 36.6896 19.0339 37.104 19.5477 37.104C20.0616 37.104 20.4786 36.6896 20.4786 36.1809C20.4786 28.2537 22.6214 17.803 32.8272 13.0374L32.978 12.9653C33.4416 12.7469 33.5663 12.2326 33.3466 11.7701Z" fill="#313131"/>
</svg>
