<?xml version="1.0" encoding="utf-8"?>
<!-- Generator: Adobe Illustrator 18.1.1, SVG Export Plug-In . SVG Version: 6.00 Build 0)  -->
<svg version="1.1" id="Layer_1" xmlns="http://www.w3.org/2000/svg" xmlns:xlink="http://www.w3.org/1999/xlink" x="0px" y="0px"
	 viewBox="-286.6 391.4 11.2 11.1" enable-background="new -286.6 391.4 11.2 11.1" xml:space="preserve">
<path d="M-277.5,402.5c-0.5,0-1-0.4-1-1s0.4-1,1-1c0.5,0,1,0.4,1,1S-276.9,402.5-277.5,402.5z M-282.3,402.5c-0.5,0-1-0.4-1-1
	s0.4-1,1-1c0.5,0,1,0.4,1,1S-281.7,402.5-282.3,402.5z M-276.5,400.1h-6.6l-1.9-7.7h-1.6v-1h2.3l0.4,1.4h8.5l-1.2,5.3h-6l0.2,1h5.9
	C-276.5,399.1-276.5,400.1-276.5,400.1z M-282.8,397.2h5.5l0.7-3.4h-7.1L-282.8,397.2z"/>
</svg>
