<svg fill="#fff" version="1.1" id="Layer_1" xmlns="http://www.w3.org/2000/svg" xmlns:xlink="http://www.w3.org/1999/xlink" x="0px" y="0px" viewBox="-286.7 392.2 11.4 9.6" enable-background="new -286.7 392.2 11.4 9.6" xml:space="preserve" class="icon">
<path d="M-277.9,401.8c-1.4,0-2.5-1.1-2.6-2.4h-1c-0.1,1.3-1.3,2.4-2.6,2.4c-1.5,0-2.6-1.2-2.6-2.6c0-0.5,0.1-0.9,0.3-1.3
	c0.3-0.8,1.9-4.5,2.1-4.9c0.4-0.7,1.1-0.7,1.4-0.7c1.3,0,1.4,1,1.4,1.4v0.5h1v-0.6c0-0.4,0.1-1.4,1.4-1.4c0.3,0,1,0,1.4,0.7
	c0.2,0.4,1.8,4.1,2.1,4.9c0.2,0.4,0.3,0.8,0.3,1.3C-275.2,400.6-276.4,401.8-277.9,401.8z M-277.9,397.5c-0.9,0-1.7,0.8-1.7,1.7
	s0.8,1.7,1.7,1.7c0.9,0,1.7-0.8,1.7-1.7c0-0.3-0.1-0.5-0.2-0.8l0,0v-0.1C-276.7,397.8-277.3,397.5-277.9,397.5z M-285.6,398.4
	c-0.1,0.2-0.2,0.5-0.2,0.8c0,0.9,0.8,1.7,1.7,1.7s1.7-0.8,1.7-1.7s-0.8-1.7-1.7-1.7C-284.7,397.5-285.3,397.8-285.6,398.4
	C-285.6,398.3-285.6,398.4-285.6,398.4L-285.6,398.4z M-281.5,398.4h1V395h-1V398.4z M-279.1,393.2c-0.3,0-0.5,0-0.5,0.5v3.5
	c0.5-0.4,1-0.6,1.7-0.6c0.3,0,0.5,0,0.7,0.1c-0.6-1.4-1.3-3-1.4-3.2C-278.6,393.2-278.8,393.2-279.1,393.2z M-284.1,396.5
	c0.6,0,1.2,0.2,1.7,0.6v-3.5c0-0.4-0.2-0.5-0.5-0.5c-0.3,0-0.4,0-0.5,0.2c-0.1,0.3-0.8,1.8-1.4,3.2
	C-284.6,396.6-284.4,396.5-284.1,396.5z " ></path>
</svg>