<?xml version="1.0" encoding="utf-8"?>
<!-- Generator: Adobe Illustrator 18.1.1, SVG Export Plug-In . SVG Version: 6.00 Build 0)  -->
<svg version="1.1" id="Layer_1" xmlns="http://www.w3.org/2000/svg" xmlns:xlink="http://www.w3.org/1999/xlink" x="0px" y="0px"
	 viewBox="-286.5 391.5 10.8 11" enable-background="new -286.5 391.5 10.8 11" xml:space="preserve">
<path d="M-284.7,402.5c-0.5,0-0.9-0.2-1.3-0.5c-0.6-0.6-0.8-1.8,0.1-2.7c0.8-0.8,1.9-1.9,2.7-2.7c0-0.3,0-0.9,0-1.2
	c0-2.2,1.7-3.9,3.8-3.9c0.7,0,1.1,0.2,1.2,0.6c0.1,0.2,0.2,0.7-0.4,1.2c-0.3,0.3-0.8,0.8-1.1,1.1l1.2,1.2c0.3-0.3,0.8-0.8,1.1-1.1
	c0.4-0.4,0.8-0.8,1.2-0.6c0.5,0.2,0.5,0.8,0.5,1.4c0,2.2-1.6,3.8-3.8,3.8l0,0l0,0c-0.3,0-0.9,0-1.2,0c-0.9,0.9-2,2-2.7,2.7
	C-283.7,402.3-284.2,402.5-284.7,402.5z M-279.3,392.4c-1.6,0-2.9,1.2-2.9,2.9c0,0.5,0,1.4,0,1.4v0.2l-0.1,0.1c-0.9,1-2.1,2.2-2.9,3
	c-0.5,0.5-0.4,1-0.1,1.3c0.3,0.3,0.8,0.4,1.3-0.1c0.8-0.8,2-2,2.9-2.9l0.1-0.1h0.2c0,0,1,0,1.5,0c1.7,0,2.9-1.2,2.9-2.9
	c0-0.1,0-0.2,0-0.3l-0.1,0.1c-0.5,0.5-1.4,1.4-1.4,1.4l-0.5,0.5l-2.6-2.6l0.4-0.4c0,0,1-1,1.4-1.4l0.1-0.1
	C-279.1,392.4-279.2,392.4-279.3,392.4z"/>
</svg>
