<svg id="f9cf4369-d6b0-44a5-81ce-6904fd1fb02c" data-name="appstrorebtn" xmlns="http://www.w3.org/2000/svg" width="532" height="176.3" viewBox="0 0 532 176.3"><title>appstore-light</title><path id="bd0d525a-ff0f-4654-bd8d-c85290d6ce62" data-name="app-strore-btn" d="M119.4,86.5c-0.1-12.1,10-17.9,10.4-18.2a22.67,22.67,0,0,0-17.7-9.5c-7.4-.8-14.6,4.4-18.4,4.4S84,58.9,77.7,59A23.59,23.59,0,0,0,57.9,71c-8.6,14.7-2.2,36.2,6,48.1,4.1,5.8,8.9,12.3,15.2,12.1,6.1-.3,8.4-3.9,15.8-3.9s9.5,3.9,15.9,3.7c6.6-.1,10.7-5.8,14.7-11.7a47.81,47.81,0,0,0,6.7-13.6S119.6,101,119.4,86.5ZM107.4,51c3.3-4.1,5.6-9.7,4.9-15.3-4.8.2-10.7,3.3-14.2,7.3-3,3.5-5.8,9.3-5.1,14.7C98.4,58.1,103.9,55.1,107.4,51ZM182,80.6l-16.2,49.8h8.3l4.5-14.6H195l4.7,14.6h8.6L192,80.6H182Zm-1.9,29,4.2-13c1.1-4.1,1.9-7.3,2.4-9.4h0.2c1.2,4.9,2.1,8.1,2.5,9.4l4.2,13H180.1Zm54.7-15.9c-5.5,0-9.5,2.1-12.2,6.4h-0.2l-0.5-5.7h-7.1c0.2,4,.3,8,0.3,11.8v38.7h8V126.1c2.1,3.4,5.5,5.1,10.3,5.1a15.1,15.1,0,0,0,11.2-4.7c3.4-3.5,5-8.4,5-14.5,0-5.5-1.4-9.9-4.3-13.2A12.66,12.66,0,0,0,234.8,93.7Zm4.3,27.7a8.29,8.29,0,0,1-7.1,3.5,8,8,0,0,1-6.3-2.7,9.58,9.58,0,0,1-2.4-6.6v-6a8.46,8.46,0,0,1,.4-2.4,9.16,9.16,0,0,1,3.2-5.1,8.55,8.55,0,0,1,12.4,1.5,14.77,14.77,0,0,1,2.4,8.6A16.7,16.7,0,0,1,239.1,121.4Zm37.4-27.7c-5.5,0-9.5,2.1-12.2,6.4h-0.2l-0.5-5.7h-7.1c0.2,4,.3,8,0.3,11.8v38.7h8V126.1c2.1,3.4,5.6,5.1,10.3,5.1a15.1,15.1,0,0,0,11.2-4.7c3.3-3.5,5-8.4,5-14.5,0-5.5-1.4-9.9-4.3-13.2A12.93,12.93,0,0,0,276.5,93.7Zm4.2,27.7a8.29,8.29,0,0,1-7.1,3.5,8,8,0,0,1-6.3-2.7,9.58,9.58,0,0,1-2.4-6.6v-6a8.46,8.46,0,0,1,.4-2.4,9.16,9.16,0,0,1,3.2-5.1,8.55,8.55,0,0,1,12.4,1.5,14.77,14.77,0,0,1,2.4,8.6C283.2,116,282.4,119.1,280.7,121.4Zm44.7-19.7a29.17,29.17,0,0,1-7.3-3.8,6.21,6.21,0,0,1-2.3-4.9,5.91,5.91,0,0,1,2-4.5,9.78,9.78,0,0,1,6.7-2.1,20,20,0,0,1,9.6,2.3l2-6.5a24.08,24.08,0,0,0-11.4-2.4q-7.65,0-12.3,3.9a12.6,12.6,0,0,0-4.7,10c0,6.3,4.4,11,13.2,14.3a21.37,21.37,0,0,1,6.9,3.8,6.94,6.94,0,0,1,2.1,5.1,6.38,6.38,0,0,1-2.5,5.4c-1.7,1.4-4,2-7.1,2a22.16,22.16,0,0,1-11.6-3.1l-1.9,6.6c3.3,2.1,7.6,3.1,13,3.1,5.8,0,10.4-1.5,13.7-4.4a13.2,13.2,0,0,0,4.5-10.3,12.29,12.29,0,0,0-3.1-8.6C332.9,105.4,329.7,103.4,325.4,101.7Zm30.4-16.2-7.9,2.4v6.6h-5.3v6h5.3v18.1c0,4.5.9,7.8,2.7,9.7a9.86,9.86,0,0,0,7.5,2.9,18.29,18.29,0,0,0,6.3-.9l-0.2-6.1a16.32,16.32,0,0,1-3.6.4c-3.1,0-4.7-2.2-4.7-6.6V100.6h8.9v-6h-8.9V85.5h-0.1Zm31.4,8.2c-5.5,0-9.9,1.8-13.2,5.3s-4.9,8.1-4.9,13.7a19.21,19.21,0,0,0,4.7,13.2c3.2,3.5,7.4,5.2,12.7,5.2,5.5,0,9.9-1.8,13.3-5.5,3.2-3.5,4.8-8.1,4.8-13.6s-1.5-9.7-4.6-13.1A16.87,16.87,0,0,0,387.2,93.7Zm6.9,27.1c-1.8,2.9-4.2,4.4-7.2,4.4a8.05,8.05,0,0,1-7.3-4.3,16.52,16.52,0,0,1-2.2-8.5,15.49,15.49,0,0,1,2.2-8.6,8.29,8.29,0,0,1,7.4-4.3,7.91,7.91,0,0,1,7.2,4.3A17.18,17.18,0,0,1,394.1,120.8Zm34.7-27.1a9.59,9.59,0,0,0-5.8,1.9,11.86,11.86,0,0,0-4,5.7h-0.2l-0.3-6.9h-7c0.2,3.4.2,7.2,0.2,11.3v24.6h8V111.5a12.15,12.15,0,0,1,2-7.1,7.63,7.63,0,0,1,6.6-3.2,19.48,19.48,0,0,1,2.5.2V93.8C430.2,93.8,429.5,93.7,428.8,93.7Zm23-.1a15.53,15.53,0,0,0-12.7,5.8,20.37,20.37,0,0,0-4.5,13.5q0,8.25,4.8,13.2c3.2,3.3,7.6,4.9,13.2,4.9a29.72,29.72,0,0,0,12.1-2.2l-1.3-5.5a27.59,27.59,0,0,1-9.8,1.7,11.88,11.88,0,0,1-7.9-2.5,10.58,10.58,0,0,1-3.5-8.1h24.1a18.63,18.63,0,0,0,.3-3.6,19.33,19.33,0,0,0-3.2-11.3C460.9,95.6,457,93.6,451.8,93.6Zm-9.4,15a11,11,0,0,1,2.4-6.2,7.61,7.61,0,0,1,6.4-3.3,7,7,0,0,1,6.4,3.3,11.11,11.11,0,0,1,1.6,6.1ZM186.9,59.8c2.7-2.2,4-5.5,4-9.9,0-3.9-1.2-6.9-3.7-9-2.2-1.9-5.5-2.8-9.8-2.8a48.26,48.26,0,0,0-6.8.5v24a47.33,47.33,0,0,0,5.8.3C180.9,62.9,184.4,61.9,186.9,59.8ZM174.5,41.4a14.49,14.49,0,0,1,3.2-.3c2.9,0,5.2.8,6.7,2.3a9,9,0,0,1,2.3,6.6c0,3.2-.8,5.6-2.5,7.3s-4,2.5-7,2.5a17.89,17.89,0,0,1-2.7-.1V41.4Zm28.8,3.3a8.58,8.58,0,0,0-6.5,2.6,9.49,9.49,0,0,0-2.4,6.7,9.55,9.55,0,0,0,2.3,6.5,8.07,8.07,0,0,0,6.2,2.6,8.31,8.31,0,0,0,6.5-2.7,9.49,9.49,0,0,0,2.4-6.7,9.55,9.55,0,0,0-2.3-6.5A8.2,8.2,0,0,0,203.3,44.7Zm3.3,13.4a4,4,0,0,1-3.5,2.1,4.11,4.11,0,0,1-3.6-2.1,8,8,0,0,1-1.1-4.2,7.7,7.7,0,0,1,1.1-4.2,3.89,3.89,0,0,1,3.6-2.1,3.85,3.85,0,0,1,3.5,2.1,8,8,0,0,1,1.1,4.2A7.34,7.34,0,0,1,206.6,58.1Zm33.8-13h0ZM223.5,62.7L226,55a39.46,39.46,0,0,0,1.4-5.7h0.1c0.4,1.9.8,3.8,1.4,5.7l2.3,7.7h3.6l5.6-17.6h-3.9l-2.2,8.2c-0.5,2.1-.9,4-1.2,5.8H233c-0.4-1.9-.8-3.8-1.4-5.8l-2.4-8.2H226l-2.5,8.4c-0.7,2.3-1.2,4.1-1.5,5.6h-0.1q-0.45-2.7-1.2-5.7l-2-8.4h-4.1l5.2,17.6h3.7v0.1Zm36.3,0V52.2c0-2.6-.7-4.5-2.1-5.8a5.58,5.58,0,0,0-4.1-1.6,6.53,6.53,0,0,0-3.6,1,7,7,0,0,0-2.1,2.1h-0.1l-0.2-2.7h-3.5c0.1,1.8.1,3.5,0.1,5V62.8h4V52.2a4.43,4.43,0,0,1,1.1-3,3.47,3.47,0,0,1,2.9-1.3c2.4,0,3.6,1.6,3.6,4.7V62.7h4ZM265.5,37h4V62.7h-4V37Zm17.6,7.7a8.58,8.58,0,0,0-6.5,2.6,9.49,9.49,0,0,0-2.4,6.7,9.55,9.55,0,0,0,2.3,6.5,8.14,8.14,0,0,0,6.3,2.6,8.31,8.31,0,0,0,6.5-2.7,9.43,9.43,0,0,0,2.3-6.7,9.55,9.55,0,0,0-2.3-6.5A8.2,8.2,0,0,0,283.1,44.7Zm3.4,13.4a3.85,3.85,0,0,1-3.5,2.1,4.11,4.11,0,0,1-3.6-2.1,8,8,0,0,1-1.1-4.2,6.93,6.93,0,0,1,1.1-4.2,3.89,3.89,0,0,1,3.6-2.1,4.11,4.11,0,0,1,3.6,2.1,8,8,0,0,1,1.1,4.2A9.38,9.38,0,0,1,286.5,58.1Zm23,0.4V52c0-4.9-2.3-7.3-7-7.3a11.49,11.49,0,0,0-6.1,1.5l0.8,2.6a8,8,0,0,1,4.6-1.3c2.5,0,3.7,1.2,3.7,3.5v0.3c-3.3,0-5.9.5-7.7,1.7a5.45,5.45,0,0,0-2.7,4.9,5.14,5.14,0,0,0,5.5,5.2,6.19,6.19,0,0,0,5.2-2.4h0.1l0.3,2h3.6A12.81,12.81,0,0,1,309.5,58.5Zm-3.9-1.8-0.1.7a3.59,3.59,0,0,1-1.4,2.1,4.07,4.07,0,0,1-2.4.8,2.49,2.49,0,0,1-1.9-.7,2.86,2.86,0,0,1-.8-2.1q0-3.6,6.6-3.6v2.8h0Zm15.9,6.4a5.93,5.93,0,0,0,5.7-3.2h0.1l0.2,2.8H331c-0.1-1.5-.2-3-0.2-4.8V37h-4V47.1c-1-1.6-2.6-2.4-5-2.4a7,7,0,0,0-5.5,2.5,10.44,10.44,0,0,0-2.3,6.9,9.76,9.76,0,0,0,2.1,6.5A6.91,6.91,0,0,0,321.5,63.1Zm-2.2-13.6a3.9,3.9,0,0,1,3.5-1.7,3.54,3.54,0,0,1,2.6,1,4.18,4.18,0,0,1,1.4,2.4,4.12,4.12,0,0,1,.1,1.2v2.9a5,5,0,0,1-1.1,3.2,3.66,3.66,0,0,1-3.1,1.4,4.4,4.4,0,0,1-3.5-1.7A7,7,0,0,1,318,54,7.27,7.27,0,0,1,319.3,49.5Zm34.4,13.6a8.31,8.31,0,0,0,6.5-2.7,9.43,9.43,0,0,0,2.3-6.7,9.55,9.55,0,0,0-2.3-6.5,8.29,8.29,0,0,0-6.3-2.6,8.58,8.58,0,0,0-6.5,2.6,9.49,9.49,0,0,0-2.4,6.7,9.55,9.55,0,0,0,2.3,6.5A8.05,8.05,0,0,0,353.7,63.1Zm-3.5-13.4a3.89,3.89,0,0,1,3.6-2.1,3.85,3.85,0,0,1,3.5,2.1,8,8,0,0,1,1.1,4.2,8.21,8.21,0,0,1-1.1,4.2,4,4,0,0,1-3.5,2.1,4.11,4.11,0,0,1-3.6-2.1,8,8,0,0,1-1.1-4.2A9.33,9.33,0,0,1,350.2,49.7Zm21.1,13V52.2a4.43,4.43,0,0,1,1.1-3,3.47,3.47,0,0,1,2.9-1.3c2.4,0,3.6,1.6,3.6,4.7V62.7h4V52.2a7.83,7.83,0,0,0-2-5.8,5.58,5.58,0,0,0-4.1-1.6,6.53,6.53,0,0,0-3.6,1,5.69,5.69,0,0,0-2,2.1h-0.1l-0.2-2.7h-3.5c0.1,1.8.1,3.5,0.1,5V62.8h3.8V62.7ZM407.1,48V45.1h-4.4V40.7l-3.9,1.2v3.2h-2.6V48h2.6v8.9c0,2.2.4,3.8,1.3,4.8a5,5,0,0,0,3.7,1.4,9,9,0,0,0,3.1-.4l-0.1-3a9,9,0,0,1-1.8.2c-1.5,0-2.3-1.1-2.3-3.3V48h4.4Zm8.3,4.1a5.21,5.21,0,0,1,.2-1.4,3.84,3.84,0,0,1,3.8-2.8q3.6,0,3.6,4.8V62.8h4V52.3a8.09,8.09,0,0,0-2-5.9,5.42,5.42,0,0,0-4.1-1.6,5.76,5.76,0,0,0-5.3,2.9h-0.1V37h-4V62.7h4V52.1h-0.1ZM446.3,62l-0.6-2.7a12.1,12.1,0,0,1-4.8.8,6.05,6.05,0,0,1-3.9-1.2,4.85,4.85,0,0,1-1.7-4h11.9a9.72,9.72,0,0,0,.1-1.8,8.76,8.76,0,0,0-1.6-5.5,6.61,6.61,0,0,0-5.8-2.8,7.47,7.47,0,0,0-6.2,2.8,9.93,9.93,0,0,0-2.2,6.6,8.84,8.84,0,0,0,2.4,6.5,8.68,8.68,0,0,0,6.5,2.4A14.79,14.79,0,0,0,446.3,62Zm-9.8-13a3.71,3.71,0,0,1,3.1-1.6,3.26,3.26,0,0,1,3.1,1.6,5.57,5.57,0,0,1,.8,3h-8.2A6.56,6.56,0,0,1,436.5,49ZM506.3-.3H26A25.86,25.86,0,0,0,.2,25.5V149.8a25.91,25.91,0,0,0,25.9,25.9H506.4a25.91,25.91,0,0,0,25.9-25.9V25.5A26,26,0,0,0,506.3-.3Zm20.9,150.1a21,21,0,0,1-20.9,20.9H26A21,21,0,0,1,5.1,149.8V25.5A20.93,20.93,0,0,1,26,4.7H506.3a21,21,0,0,1,20.9,20.9V149.8Z" fill="#efece6"/></svg>