<svg id="3a1ea1b4-af66-4c9e-a253-44e73cc305da" data-name="Layer 1" xmlns="http://www.w3.org/2000/svg" width="572" height="176" viewBox="0 0 572 176"><title>g-play-light</title><path d="M546.1,0.2H25.8A25.88,25.88,0,0,0,0,26.1V150.4a25.91,25.91,0,0,0,25.9,25.9H546.2a25.91,25.91,0,0,0,25.9-25.9V26.1A26.06,26.06,0,0,0,546.1.2ZM567,150.4a21,21,0,0,1-20.9,20.9H25.8A21,21,0,0,1,4.9,150.4V26.1A21,21,0,0,1,25.8,5.2H546.1A21,21,0,0,1,567,26.1V150.4ZM200.9,96.5h-27v8H193c-0.9,11.2-10.3,16-19.1,16a21.45,21.45,0,0,1,.1-42.9,20.58,20.58,0,0,1,14.4,5.8l5.6-5.8a28.51,28.51,0,0,0-20.3-8C156.9,69.7,144,83.8,144,99a29.8,29.8,0,0,0,30.1,29.5c15.8,0,27.3-10.8,27.3-26.8a22.49,22.49,0,0,0-.5-5.2h0Zm23-5.8a19,19,0,1,0,19.1,19C242.8,97.1,233,90.7,223.9,90.7Zm0,30.4c-6,0-10.8-4.8-10.8-11.5s4.7-11.5,10.8-11.5h0c5.5,0,10.6,4.4,10.6,11.5S229.4,121.1,223.9,121.1Zm41.8-30.4a19,19,0,1,0,19.1,19C284.7,97.1,274.8,90.7,265.7,90.7Zm0.1,30.4c-6,0-10.8-4.8-10.8-11.5s4.7-11.5,10.8-11.5h0c5.5,0,10.6,4.4,10.6,11.5S271.3,121.1,265.8,121.1ZM316.9,95a13.43,13.43,0,0,0-10.2-4.3h0c-10.2,0-18.2,8.9-18.2,18.9,0,11.4,9.3,19,18,19,5.4,0,8.3-2.1,10.4-4.6v3.7c0,6.5-4,10.4-10,10.4a10.51,10.51,0,0,1-9.7-6.7l-7.3,3c2.6,5.5,7.8,11.2,17,11.2,10.1,0,17.8-6.4,17.8-19.7v-34h-7.9V95h0.1Zm-9.6,26.1c-5.4,0-10.5-4.4-10.5-11.4,0-7.3,5.2-11.6,10.6-11.6,5,0,10.1,4.3,10.1,11.5C317.5,117,312.4,121.1,307.3,121.1Zm70.2-19.4c-2.5-6-8.2-11.1-15.7-11.1h0c-9.6,0-17.7,7.6-17.7,18.9,0,11.9,9,19,18.6,19,8,0,12.9-4.4,15.9-8.3l-6.5-4.4a10.63,10.63,0,0,1-9.3,5.2,9.78,9.78,0,0,1-9.3-5.7l25.4-10.5Zm-25.4,7.4c-0.7-5.5,4.5-11.1,9.9-11.1h0a7.52,7.52,0,0,1,7,4ZM331.2,71.6h8.3v55.8h-8.3V71.6Zm111.7,0h8.3v55.8h-8.3V71.6Zm-24,0H398.7v55.9H407V107.2h11.8A17.8,17.8,0,0,0,418.9,71.6Zm0,27.2H407.1V80h11.8A9.4,9.4,0,0,1,418.9,98.8Zm98,16.7L506,90.6h-9.1l15.5,35.3-8.7,19.7h9.1l24.2-55h-9.1Zm-58-18.8,6.7,4.5c4.9-8.5,18.7-6.5,19.6,2.6a37.72,37.72,0,0,0-12.8-1.5c-6.4.6-11.9,4.7-12.8,11.4-0.5,3.6.3,8.1,2.8,10.8,3.9,4.2,10.4,4.8,15.7,3.3a14,14,0,0,0,7.2-4.9v4.5h8.3V107.3C495,86.7,468.8,81.8,458.9,96.7Zm17.3,23.8c-9.6,2.6-12-13,2.3-10.9a31.66,31.66,0,0,1,6.9,1.7A12.64,12.64,0,0,1,476.2,120.5ZM99.1,85.6L46.9,57.2a6.36,6.36,0,0,0-1.8-.6L86.7,98.1Zm-57-28.5c-1.2.7-2.1,2.2-2.1,4.6,0,5.1.4,72.4,0.4,76.7,0,2.2.7,3.9,1.9,4.7L84.9,100Zm77,39.5-17.7-9.7-12.9,13,12.9,12.9,17.7-9.7C121.2,101.9,123.5,99,119.1,96.6ZM45.8,143.2a5.36,5.36,0,0,0,1.1-.5L99,114.1,86.6,101.8Zm168-92.3a12.19,12.19,0,0,0,4.3-2.4,11.91,11.91,0,0,0,3.1-3.9,12,12,0,0,0,1.2-5.5,12,12,0,0,0-1.2-5.5,12.3,12.3,0,0,0-3.1-4,14,14,0,0,0-4.3-2.4,16,16,0,0,0-4.7-.8h-8.6V51.6h8.6A10.78,10.78,0,0,0,213.8,50.9ZM204,48.5V29.7h4.4a12.62,12.62,0,0,1,4.6.8,8.12,8.12,0,0,1,3.2,2.1,9.53,9.53,0,0,1,1.9,3,10.51,10.51,0,0,1,0,7,9.53,9.53,0,0,1-1.9,3,8.12,8.12,0,0,1-3.2,2.1,12.62,12.62,0,0,1-4.6.8H204Zm35-9a6.43,6.43,0,0,0,3.5-3.5,7.51,7.51,0,0,0,.5-2.6,6.08,6.08,0,0,0-.7-3.2,5.74,5.74,0,0,0-1.9-2.2,10.28,10.28,0,0,0-2.8-1.2,17.61,17.61,0,0,0-3.4-.4h-7.7V51.6H230V40.4h3.3L240,51.7h4.2L237,40.1A5.87,5.87,0,0,0,239,39.5Zm-8.9-2.2V29.7H234a16.59,16.59,0,0,1,2.4.2,4.84,4.84,0,0,1,1.8.7,4.26,4.26,0,0,1,1.1,1.2,3.42,3.42,0,0,1,.4,1.8,3.12,3.12,0,0,1-1.4,2.8,7.4,7.4,0,0,1-4.3,1h-3.9V37.3Zm19.6,11.3a13.43,13.43,0,0,0,4.2,2.8,13,13,0,0,0,5.2,1,12.69,12.69,0,0,0,5.2-1,12.87,12.87,0,0,0,7-7,13.17,13.17,0,0,0,1-5.3,13.17,13.17,0,0,0-1-5.3,12.87,12.87,0,0,0-7-7,13,13,0,0,0-5.2-1,12.69,12.69,0,0,0-5.2,1,12.87,12.87,0,0,0-7,7,13.17,13.17,0,0,0-1,5.3,13.17,13.17,0,0,0,1,5.3A13.43,13.43,0,0,0,249.7,48.6Zm0.5-13.3a9.38,9.38,0,0,1,1.9-3.2,9.72,9.72,0,0,1,3-2.2,10.4,10.4,0,0,1,8,0,8.35,8.35,0,0,1,3,2.2,9.38,9.38,0,0,1,1.9,3.2,12.27,12.27,0,0,1,.7,3.9,10.72,10.72,0,0,1-.7,3.9,9.38,9.38,0,0,1-1.9,3.2,9.72,9.72,0,0,1-3,2.2,10.4,10.4,0,0,1-8,0,8.35,8.35,0,0,1-3-2.2,9.38,9.38,0,0,1-1.9-3.2,12.27,12.27,0,0,1-.7-3.9A10,10,0,0,1,250.2,35.3Zm26.3-8.8H280V51.7h-3.5V26.5Zm22.2,24.4a12.19,12.19,0,0,0,4.3-2.4,11.91,11.91,0,0,0,3.1-3.9,12,12,0,0,0,1.2-5.5,12,12,0,0,0-1.2-5.5,12.3,12.3,0,0,0-3.1-4,14,14,0,0,0-4.3-2.4,16,16,0,0,0-4.7-.8h-8.6V51.6H294A11.22,11.22,0,0,0,298.7,50.9Zm-9.8-2.4V29.7h4.4a12.62,12.62,0,0,1,4.6.8,8.12,8.12,0,0,1,3.2,2.1,9.53,9.53,0,0,1,1.9,3,10.51,10.51,0,0,1,0,7,9.53,9.53,0,0,1-1.9,3,8.12,8.12,0,0,1-3.2,2.1,12.62,12.62,0,0,1-4.6.8h-4.4Zm38.4-22-11,25.2h3.8l2.7-6.4h11.9l2.7,6.4h3.8L330.3,26.5h-3Zm-3.2,15.6L328.7,31l4.6,11.1h-9.2ZM347,40.5h3.8a12.48,12.48,0,0,0,3.5-.4,8,8,0,0,0,2.8-1.3,5.48,5.48,0,0,0,1.8-2.2,7.72,7.72,0,0,0,.1-6.2,5.49,5.49,0,0,0-1.8-2.2,8,8,0,0,0-2.8-1.3,12.94,12.94,0,0,0-3.5-.4h-7.4V51.7H347V40.5Zm0-10.9h3.7a6.71,6.71,0,0,1,4.1,1,3.13,3.13,0,0,1,1.3,2.9,3.35,3.35,0,0,1-1.3,2.9,6.71,6.71,0,0,1-4.1,1H347V29.6Zm30.2-1.4a8,8,0,0,0-2.8-1.3,12.94,12.94,0,0,0-3.5-.4h-7.4V51.7H367V40.5h3.8a12.48,12.48,0,0,0,3.5-.4,8,8,0,0,0,2.8-1.3,5.48,5.48,0,0,0,1.8-2.2,7.72,7.72,0,0,0,.1-6.2A7.87,7.87,0,0,0,377.2,28.2Zm-2.4,8.2a6.71,6.71,0,0,1-4.1,1H367V29.7h3.7a6.71,6.71,0,0,1,4.1,1,3.13,3.13,0,0,1,1.3,2.9A3.29,3.29,0,0,1,374.8,36.4Zm34.4,14.9a12.87,12.87,0,0,0,7-7,13.17,13.17,0,0,0,1-5.3,13.17,13.17,0,0,0-1-5.3,12.87,12.87,0,0,0-7-7,13,13,0,0,0-5.2-1,12.69,12.69,0,0,0-5.2,1,12.87,12.87,0,0,0-7,7,13.17,13.17,0,0,0-1,5.3,13.17,13.17,0,0,0,1,5.3,12.87,12.87,0,0,0,7,7A14,14,0,0,0,409.2,51.3Zm-12.3-5.1A9.38,9.38,0,0,1,395,43a12.27,12.27,0,0,1-.7-3.9,10.72,10.72,0,0,1,.7-3.9,9.38,9.38,0,0,1,1.9-3.2,9.72,9.72,0,0,1,3-2.2,10.4,10.4,0,0,1,8,0,8.35,8.35,0,0,1,3,2.2,9.38,9.38,0,0,1,1.9,3.2,12.27,12.27,0,0,1,.7,3.9,10.72,10.72,0,0,1-.7,3.9,9.38,9.38,0,0,1-1.9,3.2,9.72,9.72,0,0,1-3,2.2,10.4,10.4,0,0,1-8,0A11.08,11.08,0,0,1,396.9,46.2Zm41.8-.1L425.2,26.5h-3.9V51.7h3.5V31.9l13.5,19.8h3.9V26.5h-3.5V46.1Zm-285.3-.7h11.9l2.7,6.4h3.9L161,26.5h-3.1l-11,25.2h3.8Zm6-14.4L164,42.1h-9.2Zm18.3,0.9,13.5,19.8H195V26.5h-3.4V46.1L178.1,26.5h-3.9V51.7h3.5V31.9Z" fill="#efece6"/></svg>