<?xml version="1.0" encoding="UTF-8"?>
<svg width="47px" height="46px" viewBox="0 0 47 46" version="1.1" xmlns="http://www.w3.org/2000/svg" xmlns:xlink="http://www.w3.org/1999/xlink">
    <!-- Generator: Sketch 41 (35326) - http://www.bohemiancoding.com/sketch -->
    <title>Page 1</title>
    <desc>Created with Sketch.</desc>
    <defs></defs>
    <g id="Page-1" stroke="none" stroke-width="1" fill="none" fill-rule="evenodd">
        <g id="ADDED-PERKS" transform="translate(-827.000000, -321.000000)" stroke="#EFECE6">
            <g id="Group-Copy-2" transform="translate(738.000000, 321.000000)">
                <g id="Page-1" transform="translate(89.000000, 0.000000)">
                    <path d="M16.0003922,21.4539216 C13.3964706,21.4539216 11.2847059,19.3421569 11.2847059,16.7382353 C11.2847059,14.1343137 13.3964706,12.0245098 16.0003922,12.0245098 C18.6043137,12.0245098 20.7160784,14.1343137 20.7160784,16.7382353 C20.7160784,19.3421569 18.6043137,21.4539216 16.0003922,21.4539216 L16.0003922,21.4539216 Z" id="Stroke-4" stroke-linecap="round" stroke-linejoin="round"></path>
                    <polyline id="Stroke-6" stroke-linecap="round" stroke-linejoin="round" points="19.3678431 20.0378431 27.8698039 28.5398039 30.46 31.13 32.96 28.6280392"></polyline>
                    <path d="M30.3527451,26.0207843 L27.8527451,28.5207843" id="Stroke-8" stroke-linecap="round" stroke-linejoin="round"></path>
                    <path d="M30.7241176,21.4539216 C33.3280392,21.4539216 35.4398039,19.3421569 35.4398039,16.7382353 C35.4398039,14.1343137 33.3280392,12.0245098 30.7241176,12.0245098 C28.1201961,12.0245098 26.0084314,14.1343137 26.0084314,16.7382353 C26.0084314,19.3421569 28.1201961,21.4539216 30.7241176,21.4539216 L30.7241176,21.4539216 Z" id="Stroke-10" stroke-linecap="round" stroke-linejoin="round"></path>
                    <polyline id="Stroke-12" stroke-linecap="round" stroke-linejoin="round" points="27.3566667 20.0378431 18.8547059 28.5398039 16.2645098 31.13 13.7645098 28.6280392"></polyline>
                    <path d="M16.3717647,26.0207843 L18.8717647,28.5207843" id="Stroke-14" stroke-linecap="round" stroke-linejoin="round"></path>
                    <path d="M43.705098,4.19019608 C44.9678431,4.71568627 46.1188235,6.44117647 46.1188235,7.80980392 L46.1188235,31.4941176 C46.1188235,37.8019608 31.7658824,43.5019608 26.7384314,45.0019608 C25.9011765,45.2509804 24.6972549,45.3941176 23.4384314,45.3941176 C22.2443137,45.3941176 21.1031373,45.2627451 20.3090196,45.0372549 C15.2894118,43.6 0.96,38.0313725 0.96,31.4941176 L0.96,7.80980392 C0.96,6.43333333 2.11294118,4.68235294 3.37372549,4.13921569 C3.44823529,4.10784314 11.0168627,0.941176471 23.3501961,0.941176471 C35.7031373,0.941176471 43.6286275,4.15882353 43.705098,4.19019608 Z" id="Path"></path>
                </g>
            </g>
        </g>
    </g>
</svg>