<?xml version="1.0" encoding="UTF-8" standalone="no"?>
<svg width="39px" height="31px" viewBox="0 0 39 31" version="1.1" xmlns="http://www.w3.org/2000/svg" xmlns:xlink="http://www.w3.org/1999/xlink">
    <!-- Generator: Sketch 41 (35326) - http://www.bohemiancoding.com/sketch -->
    <title>Group Copy</title>
    <desc>Created with Sketch.</desc>
    <defs></defs>
    <g id="Web" stroke="none" stroke-width="1" fill="none" fill-rule="evenodd" stroke-linecap="round" stroke-linejoin="round">
        <g id="ADDED-PERKS--mobile" transform="translate(-171.000000, -97.000000)" stroke="#EFECE6" stroke-width="0.9">
            <g id="Group-5" transform="translate(75.000000, 98.000000)">
                <g id="Group-Copy" transform="translate(96.750000, 0.000000)">
                    <path d="M3.70672556,0.81170276 C3.92840302,0.363411704 4.50661886,0 4.9994776,0 L33.0005224,0 C33.4928122,0 34.0684122,0.356971154 34.2932744,0.81170276 L37.1981631,6.68616388 C37.6410054,7.5817093 37.4518576,8.90465714 36.7825613,9.63356689 L19.6106447,28.3349658 C19.273395,28.7022541 18.73141,28.707487 18.3893553,28.3349658 L1.21743874,9.63356689 C0.545065891,8.90130658 0.357381154,7.58497212 0.80183688,6.68616388 L3.70672556,0.81170276 Z" id="Rectangle"></path>
                    <path d="M4.5,0.5 L11.5345644,8.01650078 C11.8730578,8.3781843 12.394131,8.35193579 12.6963454,7.96055203 L18.3058518,0.695942113 C18.6089924,0.303358954 19.1080321,0.294256701 19.4251152,0.681258804 L25.4013008,7.97523534 C25.7163124,8.35970913 26.2436744,8.38056274 26.5841653,8.01650078 L33.6140137,0.5" id="Line"></path>
                    <path d="M0.983398438,8.07857143 L37.1723633,8.07857143" id="Line"></path>
                    <path d="M19.0197754,28.4663086 L12.1252441,8.77099609" id="Line"></path>
                    <path d="M25.9677734,28.4663086 L19.0197754,8.77099609" id="Line-Copy" transform="translate(22.493774, 18.618652) scale(-1, 1) translate(-22.493774, -18.618652) "></path>
                </g>
            </g>
        </g>
    </g>
</svg>