<?xml version="1.0" encoding="UTF-8" standalone="no"?>
<svg width="45px" height="44px" viewBox="0 0 45 44" version="1.1" xmlns="http://www.w3.org/2000/svg" xmlns:xlink="http://www.w3.org/1999/xlink">
    <!-- Generator: Sketch 41 (35326) - http://www.bohemiancoding.com/sketch -->
    <title>(H)</title>
    <desc>Created with Sketch.</desc>
    <defs></defs>
    <g id="Web" stroke="none" stroke-width="1" fill="none" fill-rule="evenodd">
        <g id="ADDED-PERKS-" transform="translate(-491.000000, -393.000000)">
            <g id="Group-3" transform="translate(43.000000, 391.000000)">
                <g id="(H)" transform="translate(448.608696, 2.760870)">
                    <path d="M17.0614583,0 C6.72224896,1.72752246 0,10.6149219 0,21.3189281 C0,32.0076961 6.69984484,40.8850258 17.0173166,42.6304348 M26.7979273,42.6248887 C37.0993171,40.8662992 43.7826087,31.9964234 43.7826087,21.3189281 C43.7826087,10.6647764 37.13354,1.81034897 26.8654557,0.024603507" id="Oval" stroke="#EFECE6"></path>
                    <polygon id="Fill-6-Copy" fill="#EFECE6" points="26.1502329 11.7671379 26.1570744 20.2309502 17.6392172 20.2309502 17.6323758 11.7671379 15.945264 11.7671379 15.945264 30.197589 17.6323758 30.197589 17.6392172 21.843344 26.1570744 21.843344 26.1502329 30.197589 27.8373447 30.197589 27.8373447 11.7671379"></polygon>
                </g>
            </g>
        </g>
    </g>
</svg>