<svg version="1.1" xmlns:sketch="http://www.bohemiancoding.com/sketch/ns"
	 xmlns="http://www.w3.org/2000/svg" xmlns:xlink="http://www.w3.org/1999/xlink" x="0px" y="0px" viewBox="-870 668 306 202"
	 enable-background="new -870 668 306 202" xml:space="preserve">
<path id="Please_x2C_-Rotate-the-p" sketch:type="MSTextLayer" sketch:alignment="middle" fill="#716D66" enable-background="new    " d="
	M-868.9,853h5.1c1.6,0,2.8,0.4,3.8,1.2s1.4,1.8,1.4,3.2c0,0.7-0.1,1.4-0.4,1.9s-0.7,1-1.2,1.4s-1.1,0.6-1.7,0.8s-1.3,0.3-2.1,0.3
	h-3.8v5.2h-1V853z M-864,860.8c1.3,0,2.4-0.3,3.2-0.9s1.2-1.5,1.2-2.5c0-1.1-0.4-1.9-1.2-2.5s-1.8-0.9-3.1-0.9h-4v6.9H-864z
	 M-855.6,853h1v13h8.2v1h-9.3V853z M-843.2,853h10v1h-8.9v5.5h8v1h-8v5.6h9v1h-10.1V853z M-824.5,852.9h1l6.5,14.1h-1.1l-1.8-3.9
	h-8.3l-1.8,3.9h-1.1L-824.5,852.9z M-820.3,862.1l-3.7-8.1l-3.7,8.1H-820.3z M-814.5,864.2c0.8,0.7,1.6,1.3,2.4,1.6s1.7,0.5,2.7,0.5
	c1,0,1.9-0.3,2.5-0.8s1-1.2,1-2c0-0.5-0.1-1-0.3-1.3s-0.6-0.7-1.2-0.9s-1.4-0.5-2.4-0.7c-1.7-0.3-2.9-0.8-3.6-1.4s-1.1-1.5-1.1-2.5
	c0-1,0.4-1.9,1.3-2.6s1.9-1.1,3.2-1.1c1,0,1.9,0.1,2.6,0.4s1.5,0.7,2.2,1.3l-0.7,0.8c-0.6-0.6-1.3-1-2-1.2s-1.4-0.4-2.2-0.4
	c-1,0-1.8,0.3-2.5,0.8s-0.9,1.2-0.9,1.9c0,0.5,0.1,1,0.3,1.3s0.6,0.7,1.2,1s1.4,0.6,2.5,0.8c1.6,0.3,2.8,0.8,3.5,1.4
	s1.1,1.4,1.1,2.5c0,1.1-0.4,2-1.3,2.7s-2,1.1-3.3,1.1c-1.1,0-2.1-0.2-3-0.5s-1.8-0.9-2.6-1.7L-814.5,864.2z M-801.5,853h10v1h-8.9
	v5.5h8v1h-8v5.6h9v1h-10.1V853z M-788.3,868c0.2-0.2,0.3-0.5,0.3-0.8V867h-0.5v-1.7h1.3v1.5c0,0.6-0.1,1.1-0.4,1.5s-0.7,0.7-1.3,0.9
	l-0.2-0.5C-788.7,868.4-788.4,868.2-788.3,868z M-777.5,853h5.9c0.8,0,1.6,0.1,2.3,0.4s1.2,0.6,1.7,1c0.7,0.7,1.1,1.6,1.1,2.6
	c0,1.1-0.4,2-1.1,2.7s-1.7,1.1-3,1.3l4.6,6h-1.3l-4.5-5.8h-4.6v5.8h-1V853z M-771.8,860.3c1.2,0,2.2-0.3,2.9-0.9s1.1-1.4,1.1-2.4
	c0-1-0.4-1.7-1.1-2.2s-1.7-0.8-3-0.8h-4.8v6.3H-771.8z M-763.2,857.3c0.3-0.9,0.8-1.6,1.4-2.3s1.3-1.2,2.2-1.6s1.9-0.6,2.9-0.6
	c1,0,2,0.2,2.9,0.6s1.6,0.9,2.2,1.6s1.1,1.4,1.4,2.3s0.5,1.8,0.5,2.8c0,1-0.2,1.9-0.5,2.7s-0.8,1.6-1.4,2.3s-1.4,1.2-2.2,1.6
	s-1.9,0.6-2.9,0.6c-1,0-2-0.2-2.9-0.6s-1.6-0.9-2.2-1.6s-1.1-1.4-1.4-2.3s-0.5-1.8-0.5-2.8C-763.7,859-763.5,858.1-763.2,857.3z
	 M-761.8,863.2c0.5,1,1.2,1.7,2.1,2.3s1.9,0.8,3.1,0.8s2.1-0.3,3.1-0.8s1.6-1.3,2.1-2.3s0.8-2,0.8-3.2c0-0.9-0.2-1.7-0.5-2.4
	s-0.7-1.4-1.2-2s-1.2-1-1.9-1.3s-1.5-0.5-2.4-0.5c-1.1,0-2.1,0.3-3.1,0.8s-1.6,1.3-2.1,2.3s-0.8,2-0.8,3.2
	C-762.6,861.1-762.3,862.2-761.8,863.2z M-748.2,853h10.8v1h-4.9v13h-1v-13h-4.9V853z M-730.7,852.9h1l6.5,14.1h-1.1l-1.8-3.9h-8.3
	l-1.8,3.9h-1.1L-730.7,852.9z M-726.5,862.1l-3.7-8.1l-3.7,8.1H-726.5z M-723,853h10.8v1h-4.9v13h-1v-13h-4.9V853z M-709.1,853h10v1
	h-8.9v5.5h8v1h-8v5.6h9v1h-10.1V853z M-690.7,853h10.8v1h-4.9v13h-1v-13h-4.9V853z M-676.7,853h1v6.5h9V853h1v14h-1v-6.6h-9v6.6h-1
	V853z M-661.5,853h10v1h-8.9v5.5h8v1h-8v5.6h9v1h-10.1V853z M-642.1,853h5.1c1.6,0,2.8,0.4,3.8,1.2s1.4,1.8,1.4,3.2
	c0,0.7-0.1,1.4-0.4,1.9s-0.7,1-1.2,1.4s-1.1,0.6-1.7,0.8s-1.3,0.3-2.1,0.3h-3.8v5.2h-1V853z M-637.2,860.8c1.3,0,2.4-0.3,3.2-0.9
	s1.2-1.5,1.2-2.5c0-1.1-0.4-1.9-1.2-2.5s-1.8-0.9-3.1-0.9h-4v6.9H-637.2z M-628.8,853h1v6.5h9V853h1v14h-1v-6.6h-9v6.6h-1V853z
	 M-613.7,857.3c0.3-0.9,0.8-1.6,1.4-2.3s1.3-1.2,2.2-1.6s1.9-0.6,2.9-0.6c1,0,2,0.2,2.9,0.6s1.6,0.9,2.2,1.6s1.1,1.4,1.4,2.3
	s0.5,1.8,0.5,2.8c0,1-0.2,1.9-0.5,2.7s-0.8,1.6-1.4,2.3s-1.4,1.2-2.2,1.6s-1.9,0.6-2.9,0.6c-1,0-2-0.2-2.9-0.6s-1.6-0.9-2.2-1.6
	s-1.1-1.4-1.4-2.3s-0.5-1.8-0.5-2.8C-614.2,859-614,858.1-613.7,857.3z M-612.3,863.2c0.5,1,1.2,1.7,2.1,2.3s1.9,0.8,3.1,0.8
	s2.1-0.3,3.1-0.8s1.6-1.3,2.1-2.3s0.8-2,0.8-3.2c0-0.9-0.2-1.7-0.5-2.4s-0.7-1.4-1.2-2s-1.2-1-1.9-1.3s-1.5-0.5-2.4-0.5
	c-1.1,0-2.1,0.3-3.1,0.8s-1.6,1.3-2.1,2.3s-0.8,2-0.8,3.2C-613.1,861.1-612.8,862.2-612.3,863.2z M-596.6,853h1l9.7,12.2V853h1v14
	h-0.8l-9.9-12.4V867h-1V853z M-580.8,853h10v1h-8.9v5.5h8v1h-8v5.6h9v1h-10.1V853z"/>
<g id="Group-Copy" transform="translate(52.000000, 0.000000)" sketch:type="MSShapeGroup">
	<path id="Rectangle-114" fill="none" stroke="#716D66" stroke-width="2" stroke-dasharray="6,4" d="M-865,668h65.4c3.3,0,6,2.7,6,6
		v147.1c0,3.3-2.7,6-6,6H-865c-3.3,0-6-2.7-6-6V674C-871,670.7-868.3,668-865,668z"/>
	<path id="Line" fill="none" stroke="#716D66" stroke-linecap="square" d="M-838.5,677.5h11.2"/>
	<circle id="Oval-175" fill="#716D66" cx="-844.5" cy="677.5" r="1.5"/>
</g>
<g id="Group" transform="translate(169.500000, 120.000000) rotate(-270.000000) translate(-169.500000, -120.000000) translate(129.500000, 38.500000)" sketch:type="MSShapeGroup">
	<path id="Rectangle-114_1_" fill="#EFECE6" stroke="#716D66" stroke-width="2" d="M674,871h67.4c3.3,0,6,2.7,6,6v151
		c0,3.3-2.7,6-6,6H674c-3.3,0-6-2.7-6-6V877C668,873.7,670.7,871,674,871z"/>

		<rect id="Rectangle-116" x="647.2" y="916.7" transform="matrix(2.535182e-06 1 -1 2.535182e-06 1658.2423 242.8042)" fill="none" stroke="#716D66" width="121.1" height="67.7"/>

		<ellipse id="Oval-174" transform="matrix(2.535182e-06 1 -1 2.535182e-06 1730.2859 312.8476)" fill="none" stroke="#716D66" cx="708.7" cy="1021.6" rx="5.8" ry="5.8"/>
	<path id="Line_1_" fill="none" stroke="#716D66" stroke-linecap="square" d="M702.5,881.5h11.2"/>
	<circle id="Oval-175_1_" fill="#716D66" cx="696.5" cy="881.5" r="1.5"/>
</g>
<path id="Path-348" sketch:type="MSShapeGroup" fill="none" stroke="#716D66" d="M-658.4,731c0,0,7-42.8-55.9-42.8"/>
<path id="Path-348-decoration-1" fill="none" stroke="#716D66" d="M-703.4,685.2l-10.8,3l10.8,3"/>
</svg>
