<svg version="1.1" xmlns="http://www.w3.org/2000/svg" xmlns:xlink="http://www.w3.org/1999/xlink" x="0px" y="0px"
	 viewBox="-175 397.9 244.7 47" enable-background="new -175 397.9 244.7 47" xml:space="preserve">
<path fill="#53514b" d="M-139.4,432.5l-9.3-4.6H43.4l-9.3,4.6H-139.4z M3.1,438.7l9.3-4.6h-130.1l9.3,4.6H3.1z M-82.1,440.2l9.3,4.6
	h40.3l9.3-4.6H-82.1z M-175,421.7l9.3,4.6h82.1l-9.3-4.6H-175z M-12.4,421.7l-9.3,4.6h82.1l9.3-4.6H-12.4z"/>
<path fill="#53514b" d="M-137.2,398.1v1.7h-7.4v1.8h5.1v1.7h-5.1v1.9h7.7v1.7h-9.8v-8.8H-137.2z M-122.4,398.1v1.7h4.2v7.1h2.1v-7.1
	h4.2v-1.7H-122.4z M-61.5,398.1l-3.8,4.6l-3.8-4.6h-2.5v8.8h2.1v-6.2h0l4.2,5l4.2-5h0v6.2h2.1v-8.8H-61.5z M-40.3,403.3h3.8
	l-1.9-3.6L-40.3,403.3z M-37,398.1l4.6,8.8h-2.2l-1-1.9h-5.6l-1,1.9h-2.1l4.7-8.8H-37z M6.8,398.1v1.7H11v7.1h2.1v-7.1h4.2v-1.7H6.8
	z M32.3,398.1v8.8h9.8v-1.7h-7.7v-1.9h5.1v-1.7h-5.1v-1.8h7.4v-1.7H32.3z M-163.3,405.2c0.2-0.4,0.4-0.8,0.4-1.3v-5.8h-2.1v5.5
	c0,0.5-0.3,1-0.8,1.3c-0.5,0.3-1.3,0.5-2.3,0.5c-1,0-1.8-0.2-2.3-0.5c-0.5-0.3-0.8-0.8-0.8-1.3v-1.2h-2.1v1.5c0,0.5,0.1,0.9,0.4,1.3
	c0.2,0.4,0.6,0.7,1.1,1c0.5,0.3,1,0.5,1.7,0.7c0.7,0.2,1.4,0.2,2.2,0.2c0.8,0,1.6-0.1,2.2-0.2c0.7-0.2,1.2-0.4,1.7-0.7
	C-163.9,405.9-163.6,405.6-163.3,405.2 M-90.8,399.8c0.6,0.2,1.3,0.4,1.9,0.7l1.2-1.4c-1.3-0.9-3-1.3-5.1-1.3
	c-1.6,0-2.8,0.3-3.6,0.8c-0.8,0.5-1.2,1.2-1.2,2c0,0.4,0.1,0.8,0.3,1.1c0.2,0.3,0.5,0.6,0.9,0.8c0.4,0.2,1,0.4,1.6,0.5
	c0.6,0.1,1.4,0.2,2.2,0.2c0.5,0,0.9,0,1.3,0.1c0.4,0,0.7,0.1,0.9,0.1c0.3,0.1,0.5,0.1,0.6,0.2c0.1,0.1,0.2,0.3,0.2,0.4
	c0,0.4-0.2,0.7-0.7,0.9c-0.5,0.2-1.2,0.3-2,0.3c-0.8,0-1.6-0.1-2.4-0.3c-0.8-0.2-1.5-0.6-2.3-1l-1.2,1.4c0.8,0.6,1.7,1,2.6,1.3
	c0.9,0.3,1.9,0.4,3,0.4c1.7,0,2.9-0.3,3.8-0.8c0.9-0.5,1.3-1.3,1.3-2.2c0-0.4-0.1-0.8-0.2-1.1c-0.2-0.3-0.4-0.6-0.8-0.8
	c-0.3-0.2-0.8-0.4-1.3-0.5c-0.5-0.1-1.1-0.2-1.8-0.3c-0.3,0-0.7-0.1-1-0.1c-0.3,0-0.6,0-0.9,0c-0.3,0-0.5,0-0.8-0.1
	c-0.2,0-0.5-0.1-0.7-0.1c-0.5-0.1-0.8-0.3-0.8-0.6c0-0.3,0.2-0.5,0.7-0.7c0.5-0.2,1.2-0.2,2.1-0.2
	C-92.1,399.6-91.4,399.7-90.8,399.8 M-9.7,401.8c-0.2,0.2-0.6,0.3-1.1,0.3h-4.8v-2.3h4.8c0.5,0,0.8,0.1,1.1,0.3
	c0.2,0.2,0.4,0.5,0.4,0.8C-9.3,401.3-9.4,401.6-9.7,401.8 M-7,406.9l-2.2-3.2c1.3-0.4,2-1.2,2-2.6c0-0.4-0.1-0.8-0.2-1.2
	c-0.2-0.4-0.4-0.7-0.7-0.9c-0.3-0.3-0.6-0.4-1-0.6c-0.4-0.1-0.9-0.2-1.4-0.2h-7.2v8.8h2.1v-3.1h4l2.2,3.1H-7z M65.6,401.8
	c-0.2,0.2-0.6,0.3-1.1,0.3h-4.8v-2.3h4.8c0.5,0,0.8,0.1,1.1,0.3c0.2,0.2,0.4,0.5,0.4,0.8C66,401.3,65.8,401.6,65.6,401.8
	 M68.3,406.9l-2.2-3.2c1.3-0.4,2-1.2,2-2.6c0-0.4-0.1-0.8-0.2-1.2c-0.2-0.4-0.4-0.7-0.7-0.9c-0.3-0.3-0.6-0.4-1-0.6
	c-0.4-0.1-0.9-0.2-1.4-0.2h-7.2v8.8h2.1v-3.1h4l2.2,3.1H68.3z"/>
</svg>
