<svg version="1.1" class="map_citys ng-scope" xmlns="http://www.w3.org/2000/svg" xmlns:xlink="http://www.w3.org/1999/xlink" x="0px" y="0px" viewBox="0 0 625.5 159.2" style="enable-background:new 0 0 625.5 159.2;" xml:space="preserve">
<style type="text/css">
	.st0{fill:#D6D2CB;}
  <!--.st1{fill:#F3F2EC;}-->
  <!--.st2{fill:#F15E4E;}-->
  <!--.st3{fill:#F4F3ED;}-->
</style>
<path id="line_x5F_path" class="st0" d="M561.1,123.1l0.2-0.3L489,83.2l-6.2-9.8l11.1,4.7l0.2-0.6l-12-5.1l-0.1,0.3l-0.2,0.1
	l6.2,9.7l-55-30.1l61.5-33.6l0,0h0.1l-0.1-0.6L393,30.1l-1-0.3l-0.2,0.6l0.3,0.1L172.7,72.6l6.8-8.6l-0.5-0.4l-7.2,9.1l-45.4-3.3
	v0.1l-0.1-0.2L102,76.4l-35.7,1.7v0.2l-0.1,0.2l-6.9,3.8l-36.2,3l6.6-8.4l-0.5-0.3l-6.9,8.8H22v-0.1l-0.1,0.3l0.2,0.1v0.2l0,0l0,0
	l0,0l0,0l10.6,11.6l0,0v0.2l0.7-0.1L151.2,120v-0.2l0.3,0.1l0,0l9.4,3.5l0.2-0.6l-9.5-3.5v-0.2h-0.1l20.3-45.5l0.4-0.1v-0.3
	L392.1,31l8.4,14l-0.1,0.1l-0.6-0.3l-0.3,0.5L401,46l0.3,0.3l5.4,9l0.5-0.3l-3.8-6.3l11.7,13.1l0,0l0.1,0.2l17-9.3l56.3,30.8
	l6.9,10.8l0.5-0.3l-6.3-9.9l70.7,38.7l-27.1,1.6v0.3l-0.1-0.3l-20.7,9.5l0.1,0.3l0.1,0.3l48.4-11v-0.1h0.1V123.1z M493,19
	l-60.7,33.1l-9.6-5.3l8.6-3l0.2,0.1v-0.1l0,0l0,0l0.1-0.4l-0.3-0.1l0,0l0,0l-37-12.8L493,19z M394.4,31.2l36,12.4l-8.4,2.9
	l-25.3-13.9L394.4,31.2z M151.2,118.4l-11.1-22l31-22.5L151.2,118.4z M139.2,97l0.4-0.3l11.1,22L87.4,88.3l44.1-7.6l7.9,15.6
	l-0.5,0.3L139.2,97z M98.4,101.7l-30.8-10l18.8-3.3l60.3,29L99.2,102l-1.6-3.5l-0.5,0.2L98.4,101.7z M48.1,92.9l3.7,1L35,96.8
	L48.1,92.9z M35.5,96l7.9-4.3l3.6,0.9L35.5,96z M49.2,92.6l2.6-0.8l0.3,1.5L49.2,92.6z M48.1,92.3l-4-1l7-3.8l0.7,3.8L48.1,92.3z
	 M51.7,87.4L51.7,87.4l6.6,2l-5.9,1.8L51.7,87.4z M53.1,87L74,84.6L59.3,89L53.1,87z M162.2,74.7L131.8,80l-0.9-1.7L162.2,74.7z
	 M130.6,77.6l-0.3-0.6l21.9-1.8L130.6,77.6z M131.2,80.1l-44.7,7.8l-7.7-3.7l51.5-5.8L131.2,80.1z M77.5,84.2L77.5,84.2l7.9,3.8
	l-19.1,3.3l-6.1-2L77.5,84.2z M132.1,80.5l37.9-6.6l-30.1,21.9L132.1,80.5z M169.6,73.2l-40.3,1.9l-2.6-5.1l43.2,3.1L169.6,73.2z
	 M152.3,74.6L130,76.4l-0.4-0.8L152.3,74.6z M129.4,76.5l-35.5,2.9l8.3-2.4l26.9-1.3L129.4,76.5z M129.6,77.1l0.3,0.6l-49.2,5.5
	l10.2-3L129.6,77.1z M77.6,83.6l-3.9-1.9L88,80.5L77.6,83.6z M76.6,83.7L53,86.4l6.4-3.5l13.1-1.1L76.6,83.7z M43.3,91L25,86.2
	l25.2,1L43.3,91z M42.6,91.4l-9.7,5.4h-0.2l-9.6-10.5L42.6,91.4z M52.3,94.4l0.7,4l-17.2-1.1L52.3,94.4z M52.8,93.5l-0.3-1.9l6.8-2
	l5.9,1.9l-11.9,2.1L52.8,93.5z M66.3,91.9l32.4,10.5l1.5,3.4L54.6,94L66.3,91.9z M99.5,102.7l45.9,14.9L101,106.1L99.5,102.7z
	 M126,69.9l2.6,5.2l-24.1,1.2L126,69.9z M90.9,79.7l-18.2,1.5l-5.2-2.5l32.2-1.5L90.9,79.7z M66.5,79L66.5,79l4.9,2.3l-10.8,0.9
	L66.5,79z M51.4,86.6h-0.2v0.1l0,0l-25.5-1L57.9,83L51.4,86.6z M38.2,98l15.1,1v-0.3l0.3-0.1l-0.8-4.4h0.3l47.4,12.4l1.5,3.4
	l0.5-0.2l-1.3-3l44,11.5L38.2,98z M393.3,31.8l28.1,23.1l-19.8-9.2L393.3,31.8z M415.4,61.4l-13-14.7l19.9,9.3l0.1-0.3l0.4-0.4
	L395,32.4l1.4,0.7l22.5,14.7l0.3-0.5l-16-10.4l18.1,9.9l-2.1,0.8l0.2,0.6l2.7-0.9l9.7,5.3L415.4,61.4z M515.3,133.4l18-8.2l24.5-1.4
	L515.3,133.4z"></path>
<g id="LONDON">
  <circle class="st2" cx="393" cy="30.6" r="3.1"></circle>
	<path class="st1" d="M398.4,27h1.2v5.9h3.7V34h-4.9L398.4,27L398.4,27z M404.3,30.6L404.3,30.6c0-2,1.5-3.6,3.7-3.6
		s3.6,1.6,3.6,3.6l0,0c0,2-1.5,3.6-3.7,3.6S404.3,32.5,404.3,30.6z M410.3,30.6L410.3,30.6c0-1.4-1-2.5-2.4-2.5s-2.4,1.1-2.4,2.5
		l0,0c0,1.4,1,2.5,2.4,2.5C409.3,33,410.3,31.9,410.3,30.6z M413.1,27h1.1l3.7,4.8V27h1.2v7h-1l-3.9-5v5H413L413.1,27L413.1,27z
		 M421,27h2.6c2.2,0,3.7,1.5,3.7,3.5l0,0c0,2-1.5,3.5-3.7,3.5H421V27z M422.2,28.2V33h1.4c1.5,0,2.4-1,2.4-2.4l0,0
		c0-1.4-1-2.4-2.4-2.4H422.2z M428.5,30.6L428.5,30.6c0-2,1.5-3.6,3.7-3.6c2.1,0,3.6,1.6,3.6,3.6l0,0c0,2-1.5,3.6-3.7,3.6
		S428.5,32.5,428.5,30.6z M434.5,30.6L434.5,30.6c0-1.4-1-2.5-2.4-2.5s-2.4,1.1-2.4,2.5l0,0c0,1.4,1,2.5,2.4,2.5
		C433.5,33,434.5,31.9,434.5,30.6z M437.3,27h1.1l3.7,4.8V27h1.2v7h-1l-3.9-5v5h-1.2L437.3,27L437.3,27z"></path>
</g>
<g id="MILAN">
  <circle class="st2" cx="422.9" cy="55.6" r="3.1"></circle>
	<path class="st3" d="M428.4,52h1.3l2.1,3.3L434,52h1.3v7H434v-5l-2.2,3.3l0,0l-2.2-3.3v5h-1.2L428.4,52L428.4,52z M437.1,52h1.2v7
		h-1.2V52z M440.2,52h1.2v5.9h3.7V59h-4.9L440.2,52L440.2,52z M448.9,52h1.1l3.1,7h-1.3l-0.7-1.7h-3.3l-0.7,1.7h-1.3L448.9,52z
		 M450.7,56.3l-1.2-2.8l-1.2,2.8H450.7z M454.3,52h1.1l3.7,4.8V52h1.2v7h-1l-3.9-5v5h-1.2L454.3,52L454.3,52z"></path>
</g>
<g id="NICE">
  <circle class="st2" cx="415.9" cy="61.6" r="3.1"></circle>
	<path class="st3" d="M421.4,58h1.1l3.7,4.8V58h1.2v7h-1l-3.9-5v5h-1.2L421.4,58L421.4,58z M429.4,58h1.2v7h-1.2V58z M432.2,61.6
		L432.2,61.6c0-2,1.5-3.6,3.6-3.6c1.3,0,2.1,0.5,2.7,1.1l-0.8,0.9c-0.6-0.5-1.2-0.9-2-0.9c-1.3,0-2.3,1.1-2.3,2.5l0,0
		c0,1.4,1,2.5,2.3,2.5c0.9,0,1.4-0.3,2-0.9l0.8,0.8c-0.7,0.8-1.5,1.2-2.8,1.2C433.7,65.2,432.2,63.6,432.2,61.6z M439.9,58h5.2v1.1
		h-4V61h3.5v1.1h-3.5V64h4v1h-5.2V58z"></path>
</g>
<g id="GENEVA">
  <circle class="st2" cx="407.9" cy="55.6" r="3.1"></circle>
	<path class="st3" d="M413.1,54.6L413.1,54.6c0-2,1.5-3.6,3.6-3.6c1.2,0,2,0.3,2.7,0.9l-0.8,0.9c-0.5-0.4-1.1-0.7-2-0.7
		c-1.3,0-2.3,1.1-2.3,2.5l0,0c0,1.4,0.9,2.5,2.4,2.5c0.7,0,1.3-0.2,1.7-0.5v-1.3h-1.8v-1.1h3v2.9c-0.7,0.6-1.7,1.1-2.9,1.1
		C414.5,58.2,413.1,56.6,413.1,54.6z M421.2,51h5.2v1.1h-4V54h3.5v1.1h-3.5V57h4v1h-5.2V51z M427.9,51h1.1l3.7,4.8V51h1.2v7h-1
		l-3.9-5v5h-1.2L427.9,51L427.9,51z M435.8,51h5.2v1.1h-4V54h3.5v1.1H437V57h4v1h-5.2V51z M441.9,51h1.4l2.1,5.4l2.1-5.4h1.3l-2.9,7
		h-1.1L441.9,51z M452.5,51h1.1l3.1,7h-1.3l-0.7-1.7h-3.3l-0.7,1.7h-1.3L452.5,51z M454.3,55.3l-1.2-2.8l-1.2,2.8H454.3z"></path>
</g>
<g id="MUNICH">
	<circle class="st2" cx="432" cy="43.6" r="3.1"></circle>
	<path class="st3" d="M437.4,40h1.3l2.1,3.3L443,40h1.3v7H443v-5l-2.2,3.3l0,0l-2.2-3.3v5h-1.2L437.4,40L437.4,40z M446,44.1v-4h1.2
		v4c0,1.3,0.7,2,1.8,2c1.1,0,1.8-0.6,1.8-1.9v-4h1.2v4c0,2.1-1.2,3.1-3,3.1C447.1,47.2,446,46.1,446,44.1z M453.6,40h1.1l3.7,4.8V40
		h1.2v7h-1l-3.9-5v5h-1.2L453.6,40L453.6,40z M461.6,40h1.2v7h-1.2V40z M464.4,43.6L464.4,43.6c0-2,1.5-3.6,3.6-3.6
		c1.3,0,2.1,0.5,2.7,1.1l-0.8,0.9c-0.6-0.5-1.2-0.9-2-0.9c-1.3,0-2.3,1.1-2.3,2.5l0,0c0,1.4,1,2.5,2.3,2.5c0.9,0,1.4-0.3,2-0.9
		l0.8,0.8c-0.7,0.8-1.5,1.2-2.8,1.2C465.9,47.2,464.4,45.6,464.4,43.6z M472.1,40h1.2v3h3.3v-3h1.2v7h-1.2v-2.9h-3.3V47h-1.2V40z"></path>
</g>
<g id="ZURICH">
	<circle class="st2" cx="419.9" cy="47.6" r="3.1"></circle>
	<path class="st3" d="M424.1,49.1l4.1-5h-4V43h5.6v1l-4.1,5h4.1v1h-5.7V49.1z M431.3,47.1v-4h1.2v4c0,1.3,0.7,2,1.8,2
		c1.1,0,1.8-0.6,1.8-1.9v-4h1.2v4c0,2.1-1.2,3.1-3,3.1C432.5,50.2,431.3,49.1,431.3,47.1z M439,43h3.1c0.9,0,1.6,0.3,2,0.7
		s0.6,0.9,0.6,1.5l0,0c0,1.1-0.7,1.8-1.7,2.1l1.9,2.6h-1.5l-1.7-2.4h-1.5V50H439V43z M442,46.5c0.9,0,1.4-0.5,1.4-1.2l0,0
		c0-0.7-0.5-1.2-1.4-1.2h-1.8v2.3h1.8V46.5z M446.3,43h1.2v7h-1.2V43z M449.1,46.6L449.1,46.6c0-2,1.5-3.6,3.6-3.6
		c1.3,0,2.1,0.5,2.7,1.1l-0.8,0.9c-0.6-0.5-1.2-0.9-2-0.9c-1.3,0-2.3,1.1-2.3,2.5l0,0c0,1.4,1,2.5,2.3,2.5c0.9,0,1.4-0.3,2-0.9
		l0.8,0.8c-0.7,0.8-1.5,1.2-2.8,1.2C450.6,50.2,449.1,48.6,449.1,46.6z M456.8,43h1.2v3h3.3v-3h1.2v7h-1.2v-2.9H458V50h-1.2V43z"></path>
</g>
<g id="PARIS">
<circle class="st2" cx="401.3" cy="45.1" r="3.1"></circle>
<path class="st3" d="M405.4,41h2.8c1.6,0,2.7,0.9,2.7,2.3l0,0c0,1.6-1.3,2.4-2.8,2.4h-1.4V48h-1.2v-7H405.4z M408.1,44.7
  c0.9,0,1.5-0.5,1.5-1.2l0,0c0-0.8-0.6-1.2-1.5-1.2h-1.4v2.5L408.1,44.7L408.1,44.7z M414.6,41h1.1l3.1,7h-1.3l-0.7-1.7h-3.3
  l-0.7,1.7h-1.3L414.6,41z M416.3,45.3l-1.2-2.8l-1.2,2.8H416.3z M420,41h3.1c0.9,0,1.6,0.3,2,0.7s0.6,0.9,0.6,1.5l0,0
  c0,1.1-0.7,1.8-1.7,2.1l1.9,2.6h-1.5l-1.7-2.4h-1.5V48H420V41z M423,44.5c0.9,0,1.4-0.5,1.4-1.2l0,0c0-0.7-0.5-1.2-1.4-1.2h-1.8
  v2.3h1.8V44.5z M427.3,41h1.2v7h-1.2V41z M429.9,47l0.7-0.9c0.7,0.6,1.3,0.9,2.2,0.9c0.8,0,1.2-0.4,1.2-0.9l0,0
  c0-0.5-0.3-0.8-1.6-1.1c-1.5-0.4-2.3-0.8-2.3-2.1l0,0c0-1.2,1-2,2.4-2c1,0,1.8,0.3,2.5,0.9l-0.7,0.9c-0.6-0.5-1.3-0.7-1.9-0.7
  c-0.7,0-1.1,0.4-1.1,0.8l0,0c0,0.5,0.3,0.8,1.7,1.1c1.5,0.4,2.2,0.9,2.2,2l0,0c0,1.3-1,2.1-2.5,2.1C431.8,48.1,430.7,47.8,429.9,47
  z"></path>
</g>
<g id="ANKARA">
	<circle class="st2" cx="494.4" cy="77.9" r="3.1"></circle>
	<path class="st3" d="M501.9,74h1.1l3.1,7h-1.3l-0.7-1.7h-3.3l-0.7,1.7h-1.3L501.9,74z M503.6,78.3l-1.2-2.8l-1.2,2.8H503.6z
		 M507.3,74h1.1l3.7,4.8V74h1.2v7h-1l-3.9-5v5h-1.2v-7H507.3z M515.2,74h1.2v3.5l3.3-3.5h1.5l-2.9,3l3,4h-1.5l-2.4-3.1l-1.1,1.1v2
		h-1.2v-7H515.2z M524.9,74h1.1l3.1,7h-1.3l-0.7-1.7h-3.3l-0.7,1.7h-1.3L524.9,74z M526.7,78.3l-1.2-2.8l-1.2,2.8H526.7z M530.4,74
		h3.1c0.9,0,1.6,0.3,2,0.7c0.4,0.4,0.6,0.9,0.6,1.5l0,0c0,1.1-0.7,1.8-1.7,2.1l1.9,2.6h-1.5l-1.7-2.4h-1.5V81h-1.2L530.4,74
		L530.4,74z M533.4,77.5c0.9,0,1.4-0.5,1.4-1.2l0,0c0-0.7-0.5-1.2-1.4-1.2h-1.8v2.3L533.4,77.5L533.4,77.5z M540.1,74h1.1l3.1,7H543
		l-0.7-1.7H539l-0.7,1.7H537L540.1,74z M541.8,78.3l-1.2-2.8l-1.2,2.8H541.8z"></path>
</g>
<g id="ISTANBUL">
	<circle class="st2" cx="482.6" cy="72.7" r="3.1"></circle>
	<path class="st3" d="M488.5,69h1.2v7h-1.2V69z M491.1,75l0.7-0.9c0.7,0.6,1.3,0.9,2.2,0.9c0.8,0,1.2-0.4,1.2-0.9l0,0
		c0-0.5-0.3-0.8-1.6-1.1c-1.5-0.4-2.3-0.8-2.3-2.1l0,0c0-1.2,1-2,2.4-2c1,0,1.8,0.3,2.5,0.9l-0.7,0.9c-0.6-0.5-1.3-0.7-1.9-0.7
		c-0.7,0-1.1,0.4-1.1,0.8l0,0c0,0.5,0.3,0.8,1.7,1.1c1.5,0.4,2.2,0.9,2.2,2l0,0c0,1.3-1,2.1-2.5,2.1C492.9,76.1,491.9,75.8,491.1,75
		z M499.7,70.2h-2.2V69h5.7v1.1H501V76h-1.2L499.7,70.2L499.7,70.2z M506.9,69h1.1l3.1,7h-1.3l-0.7-1.7h-3.3l-0.7,1.7h-1.3L506.9,69
		z M508.7,73.3l-1.2-2.8l-1.2,2.8H508.7z M512.3,69h1.1l3.7,4.8V69h1.2v7h-1l-3.9-5v5h-1.2v-7H512.3z M520.2,69h3.1
		c0.8,0,1.4,0.2,1.8,0.6c0.3,0.3,0.5,0.7,0.5,1.2l0,0c0,0.8-0.5,1.3-1,1.6c0.8,0.3,1.4,0.7,1.4,1.7l0,0c0,1.2-1,1.9-2.6,1.9h-3.2V69
		z M524.4,71c0-0.5-0.4-0.9-1.2-0.9h-1.8V72h1.7C523.9,72,524.4,71.7,524.4,71L524.4,71z M523.4,73h-1.9v2h2c0.8,0,1.3-0.3,1.3-1
		l0,0C524.8,73.4,524.3,73,523.4,73z M527.3,73.1v-4h1.2v4c0,1.3,0.7,2,1.8,2s1.8-0.6,1.8-1.9v-4h1.2v4c0,2.1-1.2,3.1-3,3.1
		C528.5,76.2,527.3,75.1,527.3,73.1z M535,69h1.2v5.9h3.7V76H535V69z"></path>
</g>
<g id="ERCAN">
	<circle class="st2" cx="496.4" cy="93.9" r="3.1"></circle>
	<path class="st3" d="M502.4,90h5.2v1.1h-4V93h3.5v1.1h-3.5V96h4v1h-5.2V90z M509.1,90h3.1c0.9,0,1.6,0.3,2,0.7
		c0.4,0.4,0.6,0.9,0.6,1.5l0,0c0,1.1-0.7,1.8-1.7,2.1L515,97h-1.5l-1.7-2.4h-1.5V97h-1.2L509.1,90L509.1,90z M512.1,93.5
		c0.9,0,1.4-0.5,1.4-1.2l0,0c0-0.7-0.5-1.2-1.4-1.2h-1.8v2.3L512.1,93.5L512.1,93.5z M516,93.6L516,93.6c0-2,1.5-3.6,3.6-3.6
		c1.3,0,2.1,0.5,2.7,1.1l-0.8,0.9c-0.6-0.5-1.2-0.9-2-0.9c-1.3,0-2.3,1.1-2.3,2.5l0,0c0,1.4,1,2.5,2.3,2.5c0.9,0,1.4-0.3,2-0.9
		l0.8,0.8c-0.7,0.8-1.5,1.2-2.8,1.2C517.5,97.2,516,95.6,516,93.6z M526.2,90h1.1l3.1,7h-1.3l-0.7-1.7h-3.3l-0.7,1.7h-1.3L526.2,90z
		 M528,94.3l-1.2-2.8l-1.2,2.8H528z M531.6,90h1.1l3.7,4.8V90h1.2v7h-1l-3.9-5v5h-1.2v-7H531.6z"></path>
</g>
<g id="KUWAIT">
	<circle class="st2" cx="538.4" cy="109.9" r="3.1"></circle>
	<path class="st3" d="M544.4,106h1.2v3.5l3.3-3.5h1.5l-2.9,3l3,4H549l-2.4-3.1l-1.1,1.1v2h-1.2v-7H544.4z M551.5,110.1v-4h1.2v4
		c0,1.3,0.7,2,1.8,2s1.8-0.6,1.8-1.9v-4h1.2v4c0,2.1-1.2,3.1-3,3.1C552.7,113.2,551.5,112.1,551.5,110.1z M558.7,106h1.3l1.7,5.2
		l1.7-5.2h1l1.7,5.2l1.7-5.2h1.3l-2.4,7h-1.1l-1.7-5l-1.7,5h-1.1L558.7,106z M572.9,106h1.1l3.1,7h-1.3l-0.7-1.7h-3.3L571,113h-1.3
		L572.9,106z M574.6,110.3l-1.2-2.8l-1.2,2.8H574.6z M578.4,106h1.2v7h-1.2V106z M583.2,107.2H581V106h5.7v1.1h-2.2v5.9h-1.2
		L583.2,107.2L583.2,107.2z"></path>
</g>
<g id="DUBAI">
	<circle class="st2" cx="561.6" cy="123.1" r="3.1"></circle>
	<path class="st3" d="M567.4,120h2.6c2.2,0,3.7,1.5,3.7,3.5l0,0c0,2-1.5,3.5-3.7,3.5h-2.6V120z M568.6,121.2v4.8h1.4
		c1.5,0,2.4-1,2.4-2.4l0,0c0-1.4-1-2.4-2.4-2.4H568.6z M575.1,124.1v-4h1.2v4c0,1.3,0.7,2,1.8,2s1.8-0.6,1.8-1.9v-4h1.2v4
		c0,2.1-1.2,3.1-3,3.1C576.3,127.2,575.1,126.1,575.1,124.1z M582.8,120h3.1c0.8,0,1.4,0.2,1.8,0.6c0.3,0.3,0.5,0.7,0.5,1.2l0,0
		c0,0.8-0.5,1.3-1,1.6c0.8,0.3,1.4,0.7,1.4,1.7l0,0c0,1.2-1,1.9-2.6,1.9h-3.2V120z M587,122c0-0.5-0.4-0.9-1.2-0.9H584v1.9h1.7
		C586.5,123,587,122.7,587,122L587,122z M585.9,124H584v1.9h2c0.8,0,1.3-0.3,1.3-1l0,0C587.4,124.4,586.9,124,585.9,124z M592.5,120
		h1.1l3.1,7h-1.3l-0.7-1.7h-3.3l-0.7,1.7h-1.3L592.5,120z M594.2,124.3l-1.2-2.8l-1.2,2.8H594.2z M598,120h1.2v7H598V120z"></path>
</g>
<g id="RIYADH">
	<circle class="st2" cx="533.9" cy="124.6" r="3.1"></circle>
	<path class="st3" d="M539.4,121h3.1c0.9,0,1.6,0.3,2,0.7c0.4,0.4,0.6,0.9,0.6,1.5l0,0c0,1.1-0.7,1.8-1.7,2.1l1.9,2.6h-1.5l-1.7-2.4
		h-1.5v2.4h-1.2L539.4,121L539.4,121z M542.4,124.5c0.9,0,1.4-0.5,1.4-1.2l0,0c0-0.7-0.5-1.2-1.4-1.2h-1.8v2.3L542.4,124.5
		L542.4,124.5z M546.7,121h1.2v7h-1.2V121z M551.9,125.3l-2.8-4.2h1.5l1.9,3.1l2-3.1h1.4l-2.8,4.2v2.8h-1.2L551.9,125.3L551.9,125.3
		z M559.4,121h1.1l3.1,7h-1.3l-0.7-1.7h-3.3l-0.7,1.7h-1.3L559.4,121z M561.2,125.3l-1.2-2.8l-1.2,2.8H561.2z M564.9,121h2.6
		c2.2,0,3.7,1.5,3.7,3.5l0,0c0,2-1.5,3.5-3.7,3.5h-2.6V121z M566.1,122.2v4.8h1.4c1.5,0,2.4-1,2.4-2.4l0,0c0-1.4-1-2.4-2.4-2.4
		H566.1z M572.7,121h1.2v2.9h3.3V121h1.2v7h-1.2v-2.9h-3.3v2.9h-1.2V121z"></path>
</g>
<g id="JEDDAH">
	<circle class="st2" cx="513.2" cy="134.4" r="3.1"></circle>
	<path class="st3" d="M517.7,137l0.8-0.8c0.4,0.5,0.8,0.8,1.4,0.8c0.7,0,1.1-0.4,1.1-1.4V131h1.3v4.6c0,0.8-0.2,1.4-0.7,1.9
		c-0.4,0.4-1,0.6-1.7,0.6C518.9,138.1,518.2,137.6,517.7,137z M524,131h5.2v1.1h-4v1.8h3.5v1.1h-3.5v1.9h4v1.1H524V131z M530.7,131
		h2.6c2.2,0,3.7,1.5,3.7,3.5l0,0c0,2-1.5,3.5-3.7,3.5h-2.6V131z M531.9,132.2v4.8h1.4c1.5,0,2.4-1,2.4-2.4l0,0c0-1.4-1-2.4-2.4-2.4
		L531.9,132.2L531.9,132.2z M538.5,131h2.6c2.2,0,3.7,1.5,3.7,3.5l0,0c0,2-1.5,3.5-3.7,3.5h-2.6V131z M539.7,132.2v4.8h1.4
		c1.5,0,2.4-1,2.4-2.4l0,0c0-1.4-1-2.4-2.4-2.4L539.7,132.2L539.7,132.2z M548.8,131h1.1l3.1,7h-1.3l-0.7-1.7h-3.3L547,138h-1.3
		L548.8,131z M550.6,135.3l-1.2-2.8l-1.2,2.8H550.6z M554.2,131h1.2v2.9h3.3V131h1.2v7h-1.2v-2.9h-3.3v2.9h-1.2V131z"></path>
</g>
<g id="BOSTON">
	<circle class="st2" cx="179.9" cy="63.6" r="3.1"></circle>
	<path class="st3" d="M185.4,60h3.1c0.8,0,1.4,0.2,1.8,0.6c0.3,0.3,0.5,0.7,0.5,1.2l0,0c0,0.8-0.5,1.3-1,1.6
		c0.8,0.3,1.4,0.7,1.4,1.7l0,0c0,1.2-1,1.9-2.6,1.9h-3.2V60z M189.6,62c0-0.5-0.4-0.9-1.2-0.9h-1.8V63h1.7
		C189.1,63,189.6,62.7,189.6,62L189.6,62z M188.6,64h-1.9v2h2c0.8,0,1.3-0.3,1.3-1l0,0C190,64.4,189.5,64,188.6,64z M192.3,63.6
		L192.3,63.6c0-2,1.5-3.6,3.7-3.6c2.1,0,3.6,1.6,3.6,3.6l0,0c0,2-1.5,3.6-3.7,3.6S192.3,65.5,192.3,63.6z M198.3,63.6L198.3,63.6
		c0-1.4-1-2.5-2.4-2.5s-2.4,1.1-2.4,2.5l0,0c0,1.4,1,2.5,2.4,2.5S198.3,64.9,198.3,63.6z M200.6,66l0.7-0.9c0.7,0.6,1.3,0.9,2.2,0.9
		c0.8,0,1.2-0.4,1.2-0.9l0,0c0-0.5-0.3-0.8-1.6-1.1c-1.5-0.4-2.3-0.8-2.3-2.1l0,0c0-1.2,1-2,2.4-2c1,0,1.8,0.3,2.5,0.9l-0.7,0.9
		c-0.6-0.5-1.3-0.7-1.9-0.7c-0.7,0-1.1,0.4-1.1,0.8l0,0c0,0.5,0.3,0.8,1.7,1.1c1.5,0.4,2.2,0.9,2.2,2l0,0c0,1.3-1,2.1-2.5,2.1
		C202.5,67.1,201.5,66.8,200.6,66z M209.2,61.2H207V60h5.7v1.1h-2.2V67h-1.2v-5.8H209.2z M213.7,63.6L213.7,63.6
		c0-2,1.5-3.6,3.7-3.6c2.1,0,3.6,1.6,3.6,3.6l0,0c0,2-1.5,3.6-3.7,3.6S213.7,65.5,213.7,63.6z M219.7,63.6L219.7,63.6
		c0-1.4-1-2.5-2.4-2.5s-2.4,1.1-2.4,2.5l0,0c0,1.4,1,2.5,2.4,2.5S219.7,64.9,219.7,63.6z M222.5,60h1.1l3.7,4.8V60h1.2v7h-1l-3.9-5
		v5h-1.2L222.5,60L222.5,60z"></path>
</g>
<g id="NEW_YORK">
	<circle class="st2" cx="172.8" cy="73.1" r="3.1"></circle>
	<path class="st3" d="M178.4,69h1.1l3.7,4.8V69h1.2v7h-1l-3.9-5v5h-1.2L178.4,69L178.4,69z M186.3,69h5.2v1.1h-4V72h3.5v1.1h-3.5V75
		h4v1h-5.2V69z M192.5,69h1.3l1.7,5.2l1.7-5.2h1l1.7,5.2l1.7-5.2h1.3l-2.4,7h-1.1l-1.7-5l-1.7,5h-1.1L192.5,69z M209.2,73.3
		l-2.8-4.2h1.5l1.9,3.1l2-3.1h1.4l-2.8,4.2V76h-1.2L209.2,73.3L209.2,73.3z M214,72.6L214,72.6c0-2,1.5-3.6,3.7-3.6
		c2.1,0,3.6,1.6,3.6,3.6l0,0c0,2-1.5,3.6-3.7,3.6S214,74.5,214,72.6z M220,72.6L220,72.6c0-1.4-1-2.5-2.4-2.5s-2.4,1.1-2.4,2.5l0,0
		c0,1.4,1,2.5,2.4,2.5S220,73.9,220,72.6z M222.8,69h3.1c0.9,0,1.6,0.3,2,0.7c0.4,0.4,0.6,0.9,0.6,1.5l0,0c0,1.1-0.7,1.8-1.7,2.1
		l1.9,2.6h-1.5l-1.7-2.4H224V76h-1.2V69z M225.8,72.5c0.9,0,1.4-0.5,1.4-1.2l0,0c0-0.7-0.5-1.2-1.4-1.2H224v2.3L225.8,72.5
		L225.8,72.5z M230,69h1.2v3.5l3.3-3.5h1.5l-2.9,3l3,4h-1.5l-2.4-3.1l-1.1,1.1v2H230V69z"></path>
</g>
<g id="WASHINGTON_DC">
	<circle class="st2" cx="160.9" cy="81.6" r="3.1"></circle>
	<path class="st3" d="M164.9,78h1.3l1.7,5.2l1.7-5.2h1l1.7,5.2L174,78h1.3l-2.4,7h-1.1l-1.7-5l-1.7,5h-1.1L164.9,78z M179,78h1.1
		l3.1,7H182l-0.7-1.7H178l-0.7,1.7H176L179,78z M180.8,82.3l-1.2-2.8l-1.2,2.8H180.8z M184,84l0.7-0.9c0.7,0.6,1.3,0.9,2.2,0.9
		c0.8,0,1.2-0.4,1.2-0.9l0,0c0-0.5-0.3-0.8-1.6-1.1c-1.5-0.4-2.3-0.8-2.3-2.1l0,0c0-1.2,1-2,2.4-2c1,0,1.8,0.3,2.5,0.9l-0.7,0.9
		c-0.6-0.5-1.3-0.7-1.9-0.7c-0.7,0-1.1,0.4-1.1,0.8l0,0c0,0.5,0.3,0.8,1.7,1.1c1.5,0.4,2.2,0.9,2.2,2l0,0c0,1.3-1,2.1-2.5,2.1
		C185.8,85.1,184.8,84.8,184,84z M190.9,78h1.2v3h3.3v-3h1.2v7h-1.2v-2.9h-3.3V85h-1.2V78z M198.5,78h1.2v7h-1.2V78z M201.6,78h1.1
		l3.7,4.8V78h1.2v7h-1l-3.9-5v5h-1.2L201.6,78L201.6,78z M209.2,81.6L209.2,81.6c0-2,1.5-3.6,3.6-3.6c1.2,0,2,0.3,2.7,0.9l-0.8,0.9
		c-0.5-0.4-1.1-0.7-2-0.7c-1.3,0-2.3,1.1-2.3,2.5l0,0c0,1.4,0.9,2.5,2.4,2.5c0.7,0,1.3-0.2,1.7-0.5v-1.3h-1.8v-1.1h3v2.9
		c-0.7,0.6-1.7,1.1-2.9,1.1C210.7,85.2,209.2,83.6,209.2,81.6z M219.1,79.2h-2.2V78h5.7v1.1h-2.2V85h-1.2v-5.8H219.1z M223.5,81.6
		L223.5,81.6c0-2,1.5-3.6,3.7-3.6c2.1,0,3.6,1.6,3.6,3.6l0,0c0,2-1.5,3.6-3.7,3.6S223.5,83.5,223.5,81.6z M229.5,81.6L229.5,81.6
		c0-1.4-1-2.5-2.4-2.5s-2.4,1.1-2.4,2.5l0,0c0,1.4,1,2.5,2.4,2.5S229.5,82.9,229.5,81.6z M232.3,78h1.1l3.7,4.8V78h1.2v7h-1l-3.9-5
		v5h-1.2L232.3,78L232.3,78z M243.2,78h2.6c2.2,0,3.7,1.5,3.7,3.5l0,0c0,2-1.5,3.5-3.7,3.5h-2.6V78z M244.4,79.2V84h1.4
		c1.5,0,2.4-1,2.4-2.4l0,0c0-1.4-1-2.4-2.4-2.4H244.4z M250.7,81.6L250.7,81.6c0-2,1.5-3.6,3.6-3.6c1.3,0,2.1,0.5,2.7,1.1l-0.8,0.9
		c-0.6-0.5-1.2-0.9-2-0.9c-1.3,0-2.3,1.1-2.3,2.5l0,0c0,1.4,1,2.5,2.3,2.5c0.9,0,1.4-0.3,2-0.9L257,84c-0.7,0.8-1.5,1.2-2.8,1.2
		C252.2,85.2,250.7,83.6,250.7,81.6z"></path>
</g>
<g id="CHICAGO">
	<circle class="st2" cx="127.2" cy="69.7" r="3.1"></circle>
	<path class="st1" d="M132.1,69.6L132.1,69.6c0-2,1.5-3.6,3.6-3.6c1.3,0,2.1,0.5,2.7,1.1l-0.8,0.9c-0.6-0.5-1.2-0.9-2-0.9
		c-1.3,0-2.3,1.1-2.3,2.5l0,0c0,1.4,1,2.5,2.3,2.5c0.9,0,1.4-0.3,2-0.9l0.8,0.8c-0.7,0.8-1.5,1.2-2.8,1.2
		C133.6,73.2,132.1,71.6,132.1,69.6z M139.8,66h1.2v3h3.3v-3h1.2v7h-1.2v-2.9H141V73h-1.2V66z M147.5,66h1.2v7h-1.2V66z M150.2,69.6
		L150.2,69.6c0-2,1.5-3.6,3.6-3.6c1.3,0,2.1,0.5,2.7,1.1l-0.8,0.9c-0.6-0.5-1.2-0.9-2-0.9c-1.3,0-2.3,1.1-2.3,2.5l0,0
		c0,1.4,1,2.5,2.3,2.5c0.9,0,1.4-0.3,2-0.9l0.8,0.8c-0.7,0.8-1.5,1.2-2.8,1.2C151.8,73.2,150.2,71.6,150.2,69.6z M160.4,66h1.1
		l3.1,7h-1.3l-0.7-1.7h-3.3l-0.7,1.7h-1.3L160.4,66z M162.2,70.3l-1.2-2.8l-1.2,2.8H162.2z M165.5,69.6L165.5,69.6
		c0-2,1.5-3.6,3.6-3.6c1.2,0,2,0.3,2.7,0.9l-0.8,0.9c-0.5-0.4-1.1-0.7-2-0.7c-1.3,0-2.3,1.1-2.3,2.5l0,0c0,1.4,0.9,2.5,2.4,2.5
		c0.7,0,1.3-0.2,1.7-0.5v-1.3H169v-1.1h3v2.9c-0.7,0.6-1.7,1.1-2.9,1.1C167,73.2,165.5,71.6,165.5,69.6z M173.4,69.6L173.4,69.6
		c0-2,1.5-3.6,3.7-3.6c2.1,0,3.6,1.6,3.6,3.6l0,0c0,2-1.5,3.6-3.7,3.6S173.4,71.5,173.4,69.6z M179.4,69.6L179.4,69.6
		c0-1.4-1-2.5-2.4-2.5s-2.4,1.1-2.4,2.5l0,0c0,1.4,1,2.5,2.4,2.5S179.4,70.9,179.4,69.6z"></path>
</g>
<g id="ATLANTA">
	<circle class="st2" cx="139.9" cy="96.6" r="3.1"></circle>
	<path class="st3" d="M146.9,93h1.1l3.1,7h-1.3l-0.7-1.7h-3.3l-0.7,1.7h-1.3L146.9,93z M148.6,97.3l-1.2-2.8l-1.2,2.8H148.6z
		 M154,94.2h-2.2V93h5.7v1.1h-2.2v5.9H154V94.2z M158.7,93h1.2v5.9h3.7v1.1h-4.9V93z M167.4,93h1.1l3.1,7h-1.3l-0.7-1.7h-3.3
		l-0.7,1.7h-1.3L167.4,93z M169.2,97.3l-1.2-2.8l-1.2,2.8H169.2z M172.8,93h1.1l3.7,4.8V93h1.2v7h-1l-3.9-5v5h-1.2L172.8,93
		L172.8,93z M182.4,94.2h-2.2V93h5.7v1.1h-2.2v5.9h-1.2v-5.8H182.4z M189.7,93h1.1l3.1,7h-1.3l-0.7-1.7h-3.3l-0.7,1.7h-1.3L189.7,93
		z M191.4,97.3l-1.2-2.8l-1.2,2.8H191.4z"></path>
</g>
<g id="HOUSTON">
	<circle class="st2" cx="102.9" cy="109.6" r="3.1"></circle>
	<path class="st3" d="M108.4,106h1.2v2.9h3.3V106h1.2v7H113v-2.9h-3.3v2.9h-1.2L108.4,106L108.4,106z M115.7,109.6L115.7,109.6
		c0-2,1.5-3.6,3.7-3.6c2.1,0,3.6,1.6,3.6,3.6l0,0c0,2-1.5,3.6-3.7,3.6S115.7,111.5,115.7,109.6z M121.7,109.6L121.7,109.6
		c0-1.4-1-2.5-2.4-2.5s-2.4,1.1-2.4,2.5l0,0c0,1.4,1,2.5,2.4,2.5S121.7,110.9,121.7,109.6z M124.4,110.1v-4h1.2v4c0,1.3,0.7,2,1.8,2
		c1.1,0,1.8-0.6,1.8-1.9v-4h1.2v4c0,2.1-1.2,3.1-3,3.1C125.5,113.2,124.4,112.1,124.4,110.1z M131.6,112l0.7-0.9
		c0.7,0.6,1.3,0.9,2.2,0.9c0.8,0,1.2-0.4,1.2-0.9l0,0c0-0.5-0.3-0.8-1.6-1.1c-1.5-0.4-2.3-0.8-2.3-2.1l0,0c0-1.2,1-2,2.4-2
		c1,0,1.8,0.3,2.5,0.9l-0.7,0.9c-0.6-0.5-1.3-0.7-1.9-0.7c-0.7,0-1.1,0.4-1.1,0.8l0,0c0,0.5,0.3,0.8,1.7,1.1c1.5,0.4,2.2,0.9,2.2,2
		l0,0c0,1.3-1,2.1-2.5,2.1C133.4,113.1,132.4,112.8,131.6,112z M140.2,107.2H138V106h5.7v1.1h-2.2v5.9h-1.2v-5.8H140.2z
		 M144.6,109.6L144.6,109.6c0-2,1.5-3.6,3.7-3.6c2.1,0,3.6,1.6,3.6,3.6l0,0c0,2-1.5,3.6-3.7,3.6S144.6,111.5,144.6,109.6z
		 M150.6,109.6L150.6,109.6c0-1.4-1-2.5-2.4-2.5s-2.4,1.1-2.4,2.5l0,0c0,1.4,1,2.5,2.4,2.5S150.6,110.9,150.6,109.6z M153.4,106h1.1
		l3.7,4.8V106h1.2v7h-1l-3.9-5v5h-1.2L153.4,106L153.4,106z"></path>
</g>
<g id="COLORADO">
	<circle class="st2" cx="66.9" cy="78.6" r="3.1"></circle>
	<path class="st3" d="M72.1,78.6L72.1,78.6c0-2,1.5-3.6,3.6-3.6c1.3,0,2.1,0.5,2.7,1.1L77.6,77c-0.6-0.5-1.2-0.9-2-0.9
		c-1.3,0-2.3,1.1-2.3,2.5l0,0c0,1.4,1,2.5,2.3,2.5c0.9,0,1.4-0.3,2-0.9l0.8,0.8c-0.7,0.8-1.5,1.2-2.8,1.2
		C73.6,82.2,72.1,80.6,72.1,78.6z M79.5,78.6L79.5,78.6c0-2,1.5-3.6,3.7-3.6c2.1,0,3.6,1.6,3.6,3.6l0,0c0,2-1.5,3.6-3.7,3.6
		S79.5,80.5,79.5,78.6z M85.5,78.6L85.5,78.6c0-1.4-1-2.5-2.4-2.5s-2.4,1.1-2.4,2.5l0,0c0,1.4,1,2.5,2.4,2.5S85.5,79.9,85.5,78.6z
		 M88.3,75h1.2v5.9h3.7V82h-4.9C88.3,82,88.3,75,88.3,75z M94.2,78.6L94.2,78.6c0-2,1.5-3.6,3.7-3.6c2.1,0,3.6,1.6,3.6,3.6l0,0
		c0,2-1.5,3.6-3.7,3.6S94.2,80.5,94.2,78.6z M100.2,78.6L100.2,78.6c0-1.4-1-2.5-2.4-2.5s-2.4,1.1-2.4,2.5l0,0c0,1.4,1,2.5,2.4,2.5
		S100.2,79.9,100.2,78.6z M103,75h3.1c0.9,0,1.6,0.3,2,0.7c0.4,0.4,0.6,0.9,0.6,1.5l0,0c0,1.1-0.7,1.8-1.7,2.1l1.9,2.6h-1.5
		l-1.7-2.4h-1.5V82H103V75z M106,78.5c0.9,0,1.4-0.5,1.4-1.2l0,0c0-0.7-0.5-1.2-1.4-1.2h-1.8v2.3L106,78.5L106,78.5z M112.7,75h1.1
		l3.1,7h-1.3l-0.7-1.7h-3.3l-0.7,1.7h-1.3L112.7,75z M114.4,79.3l-1.2-2.8l-1.2,2.8H114.4z M118.1,75h2.6c2.2,0,3.7,1.5,3.7,3.5l0,0
		c0,2-1.5,3.5-3.7,3.5h-2.6V75z M119.3,76.2V81h1.4c1.5,0,2.4-1,2.4-2.4l0,0c0-1.4-1-2.4-2.4-2.4H119.3z M125.6,78.6L125.6,78.6
		c0-2,1.5-3.6,3.7-3.6c2.1,0,3.6,1.6,3.6,3.6l0,0c0,2-1.5,3.6-3.7,3.6C127.1,82.2,125.6,80.5,125.6,78.6z M131.6,78.6L131.6,78.6
		c0-1.4-1-2.5-2.4-2.5c-1.4,0-2.4,1.1-2.4,2.5l0,0c0,1.4,1,2.5,2.4,2.5C130.7,81,131.6,79.9,131.6,78.6z"></path>
</g>
<g id="LAS_VEGAS">
	<circle class="st2" cx="51.9" cy="86.6" r="3.1"></circle>
	<path class="st3" d="M57.4,83h1.2v5.9h3.7V90h-4.9V83z M66.1,83h1.1l3.1,7H69l-0.7-1.7H65L64.2,90H63L66.1,83z M67.8,87.3l-1.2-2.8
		l-1.2,2.8H67.8z M71,89l0.7-0.9c0.7,0.6,1.3,0.9,2.2,0.9c0.8,0,1.2-0.4,1.2-0.9l0,0c0-0.5-0.3-0.8-1.6-1.1
		c-1.5-0.4-2.3-0.8-2.3-2.1l0,0c0-1.2,1-2,2.4-2c1,0,1.8,0.3,2.5,0.9l-0.7,0.9c-0.6-0.5-1.3-0.7-1.9-0.7c-0.7,0-1.1,0.4-1.1,0.8l0,0
		c0,0.5,0.3,0.8,1.7,1.1c1.5,0.4,2.2,0.9,2.2,2l0,0c0,1.3-1,2.1-2.5,2.1C72.9,90.1,71.8,89.8,71,89z M80.3,83h1.4l2.1,5.4l2.1-5.4
		h1.3l-2.9,7h-1.1L80.3,83z M88.4,83h5.2v1.1h-4V86h3.5v1.1h-3.5V89h4v1h-5.2V83z M94.8,86.6L94.8,86.6c0-2,1.5-3.6,3.6-3.6
		c1.2,0,2,0.3,2.7,0.9l-0.8,0.9c-0.5-0.4-1.1-0.7-2-0.7c-1.3,0-2.3,1.1-2.3,2.5l0,0c0,1.4,0.9,2.5,2.4,2.5c0.7,0,1.3-0.2,1.7-0.5
		v-1.3h-1.8v-1.1h3v2.9c-0.7,0.6-1.7,1.1-2.9,1.1C96.2,90.2,94.8,88.6,94.8,86.6z M105.4,83h1.1l3.1,7h-1.3l-0.7-1.7h-3.3l-0.7,1.7
		h-1.3L105.4,83z M107.2,87.3l-1.2-2.8l-1.2,2.8H107.2z M110.3,89l0.7-0.9c0.7,0.6,1.3,0.9,2.2,0.9c0.8,0,1.2-0.4,1.2-0.9l0,0
		c0-0.5-0.3-0.8-1.6-1.1c-1.5-0.4-2.3-0.8-2.3-2.1l0,0c0-1.2,1-2,2.4-2c1,0,1.8,0.3,2.5,0.9l-0.7,0.9c-0.6-0.5-1.3-0.7-1.9-0.7
		c-0.7,0-1.1,0.4-1.1,0.8l0,0c0,0.5,0.3,0.8,1.7,1.1c1.5,0.4,2.2,0.9,2.2,2l0,0c0,1.3-1,2.1-2.5,2.1C112.2,90.1,111.2,89.8,110.3,89
		z"></path>
</g>
<g id="SAN_FRANCISCO">
	<circle class="st2" cx="22.9" cy="85.6" r="3.1"></circle>
	<path class="st3" d="M27.9,88l0.7-0.9c0.7,0.6,1.3,0.9,2.2,0.9c0.8,0,1.2-0.4,1.2-0.9l0,0c0-0.5-0.3-0.8-1.6-1.1
		c-1.5-0.4-2.3-0.8-2.3-2.1l0,0c0-1.2,1-2,2.4-2c1,0,1.8,0.3,2.5,0.9l-0.7,0.9C31.7,83.2,31,83,30.4,83c-0.7,0-1.1,0.4-1.1,0.8l0,0
		c0,0.5,0.3,0.8,1.7,1.1c1.5,0.4,2.2,0.9,2.2,2l0,0c0,1.3-1,2.1-2.5,2.1C29.8,89.1,28.8,88.8,27.9,88z M37.3,82h1.1l3.1,7h-1.3
		l-0.7-1.7h-3.3L35.5,89h-1.3L37.3,82z M39,86.3l-1.2-2.8l-1.2,2.8H39z M42.7,82h1.1l3.7,4.8V82h1.2v7h-1l-3.9-5v5h-1.2v-7H42.7z
		 M53.6,82h5.2v1.1h-4V85h3.5v1.1h-3.5V89h-1.2V82z M60.2,82h3.1c0.9,0,1.6,0.3,2,0.7c0.4,0.4,0.6,0.9,0.6,1.5l0,0
		c0,1.1-0.7,1.8-1.7,2.1l1.9,2.6h-1.5l-1.7-2.4h-1.5V89h-1.2C60.2,89,60.2,82,60.2,82z M63.2,85.5c0.9,0,1.4-0.5,1.4-1.2l0,0
		c0-0.7-0.5-1.2-1.4-1.2h-1.8v2.3L63.2,85.5L63.2,85.5z M69.9,82H71l3.1,7h-1.3l-0.7-1.7h-3.3L68,89h-1.3L69.9,82z M71.6,86.3
		l-1.2-2.8l-1.2,2.8H71.6z M75.3,82h1.1l3.7,4.8V82h1.2v7h-1l-3.9-5v5h-1.2v-7H75.3z M82.9,85.6L82.9,85.6c0-2,1.5-3.6,3.6-3.6
		c1.3,0,2.1,0.5,2.7,1.1L88.4,84c-0.6-0.5-1.2-0.9-2-0.9c-1.3,0-2.3,1.1-2.3,2.5l0,0c0,1.4,1,2.5,2.3,2.5c0.9,0,1.4-0.3,2-0.9
		l0.8,0.8c-0.7,0.8-1.5,1.2-2.8,1.2C84.4,89.2,82.9,87.6,82.9,85.6z M90.6,82h1.2v7h-1.2V82z M93.3,88l0.7-0.9
		c0.7,0.6,1.3,0.9,2.2,0.9c0.8,0,1.2-0.4,1.2-0.9l0,0c0-0.5-0.3-0.8-1.6-1.1c-1.5-0.4-2.3-0.8-2.3-2.1l0,0c0-1.2,1-2,2.4-2
		c1,0,1.8,0.3,2.5,0.9l-0.7,0.9c-0.6-0.5-1.3-0.7-1.9-0.7c-0.7,0-1.1,0.4-1.1,0.8l0,0c0,0.5,0.3,0.8,1.7,1.1c1.5,0.4,2.2,0.9,2.2,2
		l0,0c0,1.3-1,2.1-2.5,2.1C95.1,89.1,94.1,88.8,93.3,88z M99.8,85.6L99.8,85.6c0-2,1.5-3.6,3.6-3.6c1.3,0,2.1,0.5,2.7,1.1l-0.8,0.9
		c-0.6-0.5-1.2-0.9-2-0.9c-1.3,0-2.3,1.1-2.3,2.5l0,0c0,1.4,1,2.5,2.3,2.5c0.9,0,1.4-0.3,2-0.9l0.8,0.8c-0.7,0.8-1.5,1.2-2.8,1.2
		C101.3,89.2,99.8,87.6,99.8,85.6z M107.2,85.6L107.2,85.6c0-2,1.5-3.6,3.7-3.6c2.1,0,3.6,1.6,3.6,3.6l0,0c0,2-1.5,3.6-3.7,3.6
		S107.2,87.5,107.2,85.6z M113.3,85.6L113.3,85.6c0-1.4-1-2.5-2.4-2.5s-2.4,1.1-2.4,2.5l0,0c0,1.4,1,2.5,2.4,2.5
		S113.3,86.9,113.3,85.6z"></path>
</g>
<g id="TAHOE">
	<circle class="st2" cx="29.9" cy="76.6" r="3.1"></circle>
	<path class="st3" d="M36.1,74.2h-2.2V73h5.7v1.1h-2.2V80h-1.2L36.1,74.2L36.1,74.2z M43.3,73h1.1l3.1,7h-1.3l-0.7-1.7h-3.3L41.5,80
		h-1.3L43.3,73z M45.1,77.3l-1.2-2.8l-1.2,2.8H45.1z M48.7,73H50v3h3.3v-3h1.2v7h-1.2v-2.9H50V80h-1.2L48.7,73L48.7,73z M56,76.6
		L56,76.6c0-2,1.5-3.6,3.7-3.6c2.1,0,3.6,1.6,3.6,3.6l0,0c0,2-1.5,3.6-3.7,3.6S56,78.5,56,76.6z M62.1,76.6L62.1,76.6
		c0-1.4-1-2.5-2.4-2.5s-2.4,1.1-2.4,2.5l0,0c0,1.4,1,2.5,2.4,2.5S62.1,77.9,62.1,76.6z M64.8,73H70v1.1h-4V76h3.5v1.1H66V79h4v1
		h-5.2V73z"></path>
</g>
<g id="DALLAS">
	<circle class="st2" cx="97.9" cy="98.6" r="3.1"></circle>
	<path class="st3" d="M103.4,95h2.6c2.2,0,3.7,1.5,3.7,3.5l0,0c0,2-1.5,3.5-3.7,3.5h-2.6V95z M104.6,96.2v4.8h1.4
		c1.5,0,2.4-1,2.4-2.4l0,0c0-1.4-1-2.4-2.4-2.4H104.6z M113.7,95h1.1l3.1,7h-1.3l-0.7-1.7h-3.3l-0.7,1.7h-1.3L113.7,95z M115.5,99.3
		l-1.2-2.8l-1.2,2.8H115.5z M119.1,95h1.2v5.9h3.7v1.1h-4.9C119.1,102,119.1,95,119.1,95z M125.3,95h1.2v5.9h3.7v1.1h-4.9
		C125.3,102,125.3,95,125.3,95z M134,95h1.1l3.1,7h-1.3l-0.7-1.7h-3.3l-0.7,1.7h-1.3L134,95z M135.7,99.3l-1.2-2.8l-1.2,2.8H135.7z
		 M138.9,101l0.7-0.9c0.7,0.6,1.3,0.9,2.2,0.9c0.8,0,1.2-0.4,1.2-0.9l0,0c0-0.5-0.3-0.8-1.6-1.1c-1.5-0.4-2.3-0.8-2.3-2.1l0,0
		c0-1.2,1-2,2.4-2c1,0,1.8,0.3,2.5,0.9l-0.7,0.9c-0.6-0.5-1.3-0.7-1.9-0.7c-0.7,0-1.1,0.4-1.1,0.8l0,0c0,0.5,0.3,0.8,1.7,1.1
		c1.5,0.4,2.2,0.9,2.2,2l0,0c0,1.3-1,2.1-2.5,2.1C140.8,102.1,139.7,101.8,138.9,101z"></path>
</g>
<g id="SCOTTSDALE">
	<circle class="st2" cx="53.9" cy="98.6" r="3.1"></circle>
	<path class="st3" d="M58.9,101l0.7-0.9c0.7,0.6,1.3,0.9,2.2,0.9c0.8,0,1.2-0.4,1.2-0.9l0,0c0-0.5-0.3-0.8-1.6-1.1
		c-1.5-0.4-2.3-0.8-2.3-2.1l0,0c0-1.2,1-2,2.4-2c1,0,1.8,0.3,2.5,0.9l-0.7,0.9C62.7,96.2,62,96,61.4,96c-0.7,0-1.1,0.4-1.1,0.8l0,0
		c0,0.5,0.3,0.8,1.7,1.1c1.5,0.4,2.2,0.9,2.2,2l0,0c0,1.3-1,2.1-2.5,2.1C60.8,102.1,59.8,101.8,58.9,101z M65.5,98.6L65.5,98.6
		c0-2,1.5-3.6,3.6-3.6c1.3,0,2.1,0.5,2.7,1.1L71,96.9c-0.6-0.5-1.2-0.9-2-0.9c-1.3,0-2.3,1.1-2.3,2.5l0,0c0,1.4,1,2.5,2.3,2.5
		c0.9,0,1.4-0.3,2-0.9l0.8,0.8c-0.7,0.8-1.5,1.2-2.8,1.2C67,102.2,65.5,100.6,65.5,98.6z M72.9,98.6L72.9,98.6c0-2,1.5-3.6,3.7-3.6
		c2.1,0,3.6,1.6,3.6,3.6l0,0c0,2-1.5,3.6-3.7,3.6S72.9,100.5,72.9,98.6z M78.9,98.6L78.9,98.6c0-1.4-1-2.5-2.4-2.5s-2.4,1.1-2.4,2.5
		l0,0c0,1.4,1,2.5,2.4,2.5S78.9,99.9,78.9,98.6z M83.4,96.2h-2.2V95h5.7v1.1h-2.2v5.9h-1.2v-5.8H83.4z M89.8,96.2h-2.2V95h5.7v1.1
		h-2.2v5.9h-1.2v-5.8H89.8z M94.1,101l0.7-0.9c0.7,0.6,1.3,0.9,2.2,0.9c0.8,0,1.2-0.4,1.2-0.9l0,0c0-0.5-0.3-0.8-1.6-1.1
		c-1.5-0.4-2.3-0.8-2.3-2.1l0,0c0-1.2,1-2,2.4-2c1,0,1.8,0.3,2.5,0.9l-0.7,0.9C98,96.3,97.4,96,96.8,96c-0.7,0-1.1,0.4-1.1,0.8l0,0
		c0,0.5,0.3,0.8,1.7,1.1c1.5,0.4,2.2,0.9,2.2,2l0,0c0,1.3-1,2.1-2.5,2.1C96,102.1,95,101.8,94.1,101z M101,95h2.6
		c2.2,0,3.7,1.5,3.7,3.5l0,0c0,2-1.5,3.5-3.7,3.5H101V95z M102.2,96.2v4.8h1.4c1.5,0,2.4-1,2.4-2.4l0,0c0-1.4-1-2.4-2.4-2.4H102.2z
		 M111.3,95h1.1l3.1,7h-1.3l-0.7-1.7h-3.3l-0.7,1.7h-1.3L111.3,95z M113,99.3l-1.2-2.8l-1.2,2.8H113z M116.7,95h1.2v5.9h3.7v1.1
		h-4.9C116.7,102,116.7,95,116.7,95z M122.9,95h5.2v1.1h-4V98h3.5v1.1h-3.5v1.9h4v1.1h-5.2C122.9,102.1,122.9,95,122.9,95z"></path>
</g>
<g id="LOS_ANGELES">
	<circle class="st2" cx="33.4" cy="97.2" r="3.1"></circle>
	<path class="st3" d="M38.4,93h1.2v5.9h3.7v1.1h-4.9V93z M44.3,96.6L44.3,96.6c0-2,1.5-3.6,3.7-3.6c2.1,0,3.6,1.6,3.6,3.6l0,0
		c0,2-1.5,3.6-3.7,3.6S44.3,98.5,44.3,96.6z M50.3,96.6L50.3,96.6c0-1.4-1-2.5-2.4-2.5s-2.4,1.1-2.4,2.5l0,0c0,1.4,1,2.5,2.4,2.5
		S50.3,97.9,50.3,96.6z M52.6,99l0.7-0.9c0.7,0.6,1.3,0.9,2.2,0.9c0.8,0,1.2-0.4,1.2-0.9l0,0c0-0.5-0.3-0.8-1.6-1.1
		c-1.5-0.4-2.3-0.8-2.3-2.1l0,0c0-1.2,1-2,2.4-2c1,0,1.8,0.3,2.5,0.9L57,94.7c-0.6-0.5-1.3-0.7-1.9-0.7c-0.7,0-1.1,0.4-1.1,0.8l0,0
		c0,0.5,0.3,0.8,1.7,1.1c1.5,0.4,2.2,0.9,2.2,2l0,0c0,1.3-1,2.1-2.5,2.1C54.5,100.1,53.4,99.8,52.6,99z M65,93h1.1l3.1,7h-1.3
		l-0.7-1.7h-3.3l-0.7,1.7h-1.3L65,93z M66.7,97.3l-1.2-2.8l-1.2,2.8H66.7z M70.4,93h1.1l3.7,4.8V93h1.2v7h-1l-3.9-5v5h-1.2v-7H70.4z
		 M78,96.6L78,96.6c0-2,1.5-3.6,3.6-3.6c1.2,0,2,0.3,2.7,0.9l-0.8,0.9c-0.5-0.4-1.1-0.7-2-0.7c-1.3,0-2.3,1.1-2.3,2.5l0,0
		c0,1.4,0.9,2.5,2.4,2.5c0.7,0,1.3-0.2,1.7-0.5v-1.3h-1.8v-1.1h3v2.9c-0.7,0.6-1.7,1.1-2.9,1.1C79.4,100.2,78,98.6,78,96.6z
		 M86.1,93h5.2v1.1h-4V96h3.5v1.1h-3.5V99h4v1.1h-5.2V93z M92.8,93H94v5.9h3.7v1.1h-4.9C92.8,100,92.8,93,92.8,93z M99,93h5.2v1.1
		h-4V96h3.5v1.1h-3.5V99h4v1.1H99V93z M105.2,99l0.7-0.9c0.7,0.6,1.3,0.9,2.2,0.9c0.8,0,1.2-0.4,1.2-0.9l0,0c0-0.5-0.3-0.8-1.6-1.1
		c-1.5-0.4-2.3-0.8-2.3-2.1l0,0c0-1.2,1-2,2.4-2c1,0,1.8,0.3,2.5,0.9l-0.7,0.9c-0.6-0.5-1.3-0.7-1.9-0.7c-0.7,0-1.1,0.4-1.1,0.8l0,0
		c0,0.5,0.3,0.8,1.7,1.1c1.5,0.4,2.2,0.9,2.2,2l0,0c0,1.3-1,2.1-2.5,2.1C107.1,100.1,106.1,99.8,105.2,99z"></path>
</g>
<g id="BAHAMAS">
	<circle class="st2" cx="161.5" cy="123" r="3.1"></circle>
	<path class="st3" d="M170.7,123.4c0.5-0.3,1.2-0.7,1.2-1.6l0,0c0-0.5-0.2-0.7-0.5-1c-0.4-0.4-1.1-0.4-1.9-0.4h-2.6v7h2.7
		c1.6,0,2.3-1,2.3-2.3l0,0C171.9,124.2,171.5,123.7,170.7,123.4z M167.9,121.4h1.5c0.8,0,1.5,0.1,1.5,0.6l0,0c0,0.6-0.8,1.4-1.6,1.4
		h-1.4V121.4z M170.9,125c0,0.6-0.4,1.4-1.2,1.4h-1.8v-2h1.7C170.5,124.4,170.9,124.4,170.9,125L170.9,125z M176.1,120.4l-3.1,7h1.3
		l0.7-2h3.3l0.7,2h1.3l-3.1-7H176.1z M175.4,124.4l1.2-2.8l1.2,2.8H175.4z M185.9,123.4h-3v-3h-1v7h1v-3h3v3h1v-7h-1V123.4z
		 M191.6,120.4l-3.1,7h1.3l0.7-2h3.3l0.7,2h1.3l-3.1-7H191.6z M190.9,124.4l1.2-2.8l1.2,2.8H190.9z M200.5,123.7l-2.2-3.3h-1.4v7h1
		V122l2.5,3.4h0.1l2.4-3.4v5.4h1v-7h-1.3L200.5,123.7z M208.2,120.4l-3.1,7h1.3l0.7-2h3.3l0.7,2h1.3l-3.1-7H208.2z M207.5,124.4
		l1.2-2.8l1.2,2.8H207.5z M216.6,123c-1.3-0.3-1.7-0.6-1.7-1.1l0,0c0-0.5,0.3-0.8,1-0.8c0.6,0,1.2,0.2,1.8,0.7l0.6-0.9
		c-0.7-0.6-1.3-0.9-2.3-0.9c-1.4,0-2.2,0.8-2.2,2l0,0c0,1.3,0.4,1.7,1.9,2.1c1.3,0.3,1.1,0.6,1.1,1.1l0,0c0,0.5-0.3,0.9-1,0.9
		c-0.9,0-1.4-0.3-2.1-0.9l-0.7,0.9c0.8,0.8,2.1,1.1,3.1,1.1c1.5,0,2.7-0.8,2.7-2.1l0,0C218.9,123.9,218.1,123.3,216.6,123z"></path>
</g>
<g id="SOUTH_FLORIDA">
	<circle class="st2" cx="151.9" cy="119.3" r="3.1"></circle>
	<path class="st3" d="M155.9,122l0.7-0.9c0.7,0.6,1.3,0.9,2.2,0.9c0.8,0,1.2-0.4,1.2-0.9l0,0c0-0.5-0.3-0.8-1.6-1.1
		c-1.5-0.4-2.3-0.8-2.3-2.1l0,0c0-1.2,1-2,2.4-2c1,0,1.8,0.3,2.5,0.9l-0.7,0.9c-0.6-0.5-1.3-0.7-1.9-0.7c-0.7,0-1.1,0.4-1.1,0.8l0,0
		c0,0.5,0.3,0.8,1.7,1.1c1.5,0.4,2.2,0.9,2.2,2l0,0c0,1.3-1,2.1-2.5,2.1C157.8,123.1,156.8,122.8,155.9,122z M162.5,119.6
		L162.5,119.6c0-2,1.5-3.6,3.7-3.6c2.1,0,3.6,1.6,3.6,3.6l0,0c0,2-1.5,3.6-3.7,3.6S162.5,121.5,162.5,119.6z M168.5,119.6
		L168.5,119.6c0-1.4-1-2.5-2.4-2.5s-2.4,1.1-2.4,2.5l0,0c0,1.4,1,2.5,2.4,2.5S168.5,120.9,168.5,119.6z M171.2,120.1v-4h1.2v4
		c0,1.3,0.7,2,1.8,2s1.8-0.6,1.8-1.9v-4h1.2v4c0,2.1-1.2,3.1-3,3.1C172.3,123.2,171.2,122.1,171.2,120.1z M180.6,117.2h-2.2V116h5.7
		v1.1h-2.2v5.9h-1.2v-5.8H180.6z M185.3,116h1.2v2.9h3.3V116h1.2v7h-1.2v-2.9h-3.3v2.9h-1.2V116z M195.9,116h5.2v1.1h-4v1.9h3.5v1.1
		h-3.5v2.8h-1.2V116z M202.5,116h1.2v5.9h3.7v1.1h-4.9V116z M208.3,119.6L208.3,119.6c0-2,1.5-3.6,3.7-3.6c2.1,0,3.6,1.6,3.6,3.6
		l0,0c0,2-1.5,3.6-3.7,3.6S208.3,121.5,208.3,119.6z M214.4,119.6L214.4,119.6c0-1.4-1-2.5-2.4-2.5s-2.4,1.1-2.4,2.5l0,0
		c0,1.4,1,2.5,2.4,2.5S214.4,120.9,214.4,119.6z M217.2,116h3.1c0.9,0,1.6,0.3,2,0.7c0.4,0.4,0.6,0.9,0.6,1.5l0,0
		c0,1.1-0.7,1.8-1.7,2.1l1.9,2.6h-1.5l-1.7-2.4h-1.5v2.4h-1.2L217.2,116L217.2,116z M220.2,119.5c0.9,0,1.4-0.5,1.4-1.2l0,0
		c0-0.7-0.5-1.2-1.4-1.2h-1.8v2.3L220.2,119.5L220.2,119.5z M224.5,116h1.2v7h-1.2V116z M227.6,116h2.6c2.2,0,3.7,1.5,3.7,3.5l0,0
		c0,2-1.5,3.5-3.7,3.5h-2.6V116z M228.8,117.2v4.8h1.4c1.5,0,2.4-1,2.4-2.4l0,0c0-1.4-1-2.4-2.4-2.4H228.8z M237.9,116h1.1l3.1,7
		h-1.3l-0.7-1.7h-3.3L236,123h-1.3L237.9,116z M239.6,120.3l-1.2-2.8l-1.2,2.8H239.6z"></path>
</g>
<g id="MOSCOW">
	<circle class="st2" cx="494.9" cy="18.6" r="3.1"></circle>
	<path class="st1" d="M500.4,15h1.3l2.1,3.3L506,15h1.3v7H506v-5l-2.2,3.3l0,0l-2.2-3.3v5h-1.2L500.4,15L500.4,15z M508.8,18.6
		L508.8,18.6c0-2,1.5-3.6,3.7-3.6s3.6,1.6,3.6,3.6l0,0c0,2-1.5,3.6-3.7,3.6S508.8,20.5,508.8,18.6z M514.8,18.6L514.8,18.6
		c0-1.4-1-2.5-2.4-2.5s-2.4,1.1-2.4,2.5l0,0c0,1.4,1,2.5,2.4,2.5C513.8,21,514.8,19.9,514.8,18.6z M517.1,21l0.7-0.9
		c0.7,0.6,1.3,0.9,2.2,0.9c0.8,0,1.2-0.4,1.2-0.9l0,0c0-0.5-0.3-0.8-1.6-1.1c-1.5-0.4-2.3-0.8-2.3-2.1l0,0c0-1.2,1-2,2.4-2
		c1,0,1.8,0.3,2.5,0.9l-0.7,0.9c-0.6-0.5-1.3-0.7-1.9-0.7c-0.7,0-1.1,0.4-1.1,0.8l0,0c0,0.5,0.3,0.8,1.7,1.1c1.5,0.4,2.2,0.9,2.2,2
		l0,0c0,1.3-1,2.1-2.5,2.1C519,22.1,517.9,21.8,517.1,21z M523.7,18.6L523.7,18.6c0-2,1.5-3.6,3.6-3.6c1.3,0,2.1,0.5,2.7,1.1
		l-0.8,0.9c-0.6-0.5-1.2-0.9-2-0.9c-1.3,0-2.3,1.1-2.3,2.5l0,0c0,1.4,1,2.5,2.3,2.5c0.9,0,1.4-0.3,2-0.9L530,21
		c-0.7,0.8-1.5,1.2-2.8,1.2C525.2,22.2,523.7,20.6,523.7,18.6z M531.1,18.6L531.1,18.6c0-2,1.5-3.6,3.7-3.6c2.1,0,3.6,1.6,3.6,3.6
		l0,0c0,2-1.5,3.6-3.7,3.6C532.6,22.2,531.1,20.5,531.1,18.6z M537.1,18.6L537.1,18.6c0-1.4-1-2.5-2.4-2.5s-2.4,1.1-2.4,2.5l0,0
		c0,1.4,1,2.5,2.4,2.5S537.1,19.9,537.1,18.6z M539.3,15h1.3l1.7,5.2L544,15h1l1.7,5.2l1.7-5.2h1.3l-2.4,7h-1.1l-1.7-5l-1.7,5h-1.1
		L539.3,15z"></path>
</g>
</svg>