<?xml version="1.0" encoding="utf-8"?>
<!-- Generator: Adobe Illustrator 20.1.0, SVG Export Plug-In . SVG Version: 6.00 Build 0)  -->
<svg version="1.1" id="Layer_1" xmlns="http://www.w3.org/2000/svg" xmlns:xlink="http://www.w3.org/1999/xlink" x="0px" y="0px"
	 viewBox="0 0 48 48" style="enable-background:new 0 0 48 48;" xml:space="preserve">
<style type="text/css">
	.st0{fill:#EFECE6;}
	.st1{fill:#FF5C49;}
</style>
<path class="st0" d="M23.6,25V5.8h-0.5c-10.8,0-19.6,8.7-19.6,19.5c0,10.7,8.8,19.4,19.6,19.4c10.7,0,19.4-8.6,19.5-19.2l0-0.5H23.6
	z M22.7,26.6L23,43.7c-4.8,0-9.2-1.9-12.5-4.9L22.7,26.6z M23.7,27l11.8,11.8c-3.1,2.8-7.1,4.6-11.6,4.8L23.7,27z M22.6,24.5
	L10.1,12.1c3.2-3.1,7.6-5.1,12.5-5.3V24.5z M9.4,12.8l12.2,12.2L4.5,24.8C4.6,20.2,6.5,16,9.4,12.8z M4.5,25.8l17.4,0.1L9.7,38.1
	C6.6,34.9,4.7,30.6,4.5,25.8z M36.3,38.2L24.1,26h17.5C41.4,30.7,39.4,35,36.3,38.2z"/>
<path class="st1" d="M25.4,3.5h-0.5v20.2H45v-0.8C45,12.2,36.2,3.5,25.4,3.5z M25.9,4.5c4.8,0.1,9.2,2.1,12.4,5.2L25.9,21.8V4.5z
	 M26.4,22.7L39,10.4c3,3.2,4.9,7.6,5,12.3H26.4z"/>
</svg>
