<?xml version="1.0" encoding="utf-8"?>
<!-- Generator: Adobe Illustrator 20.1.0, SVG Export Plug-In . SVG Version: 6.00 Build 0)  -->
<svg version="1.1" id="Layer_1" xmlns="http://www.w3.org/2000/svg" xmlns:xlink="http://www.w3.org/1999/xlink" x="0px" y="0px"
	 viewBox="0 0 48 48" style="enable-background:new 0 0 48 48;" xml:space="preserve">
<style type="text/css">
	.st0{fill:#FF5C49;}
	.st1{fill:#EFECE6;}
</style>
<path class="st0" d="M29,31.3c2.6,0,4.3-1.5,4.3-3.8l0,0c0-2.4-1.8-3.5-4-3.5c-0.8,0-1.3,0.1-1.8,0.3l0.2-2.6h5.2v-1.8H26l-0.3,5.5
	l1.2,0.8c0.6-0.3,1.3-0.5,2.1-0.5c1.4,0,2.4,0.7,2.4,1.9l0,0c0,1.2-0.9,1.9-2.3,1.9c-1.1,0-2-0.5-3-1.4l-1.3,1.4
	C25.9,30.6,27.2,31.3,29,31.3z M14.7,31.1H23v-1.7h-5.5l2.4-1.9c2-1.6,3-2.6,3-4.4l0,0c0-2-1.5-3.4-3.8-3.4c-2.1,0-3.1,0.9-4.3,2.3
	l1.5,1.1c0.9-1.1,1.6-1.7,2.7-1.7s1.9,0.7,1.9,1.8c0,1-0.6,1.7-2.2,3l-4,3.3C14.7,29.5,14.7,31.1,14.7,31.1z"/>
<path class="st1" d="M33.8,6.4V4h-1v2.4h-18V3.8h-1v2.6H3.5v32.9c0,2,1.5,3.5,3.5,3.5h33.6c2,0,3.5-1.5,3.5-3.5V6.4H33.8z
	 M43.1,39.3c0,1.4-1.1,2.5-2.5,2.5H7c-1.4,0-2.5-1.1-2.5-2.5V7.4h9.3v3.8h1V7.4h18v4h1v-4h9.3V39.3z"/>
</svg>
