<?xml version="1.0" encoding="utf-8"?>
<!-- Generator: Adobe Illustrator 20.1.0, SVG Export Plug-In . SVG Version: 6.00 Build 0)  -->
<svg version="1.1" id="Layer_1" xmlns="http://www.w3.org/2000/svg" xmlns:xlink="http://www.w3.org/1999/xlink" x="0px" y="0px"
	 viewBox="0 0 48 48" style="enable-background:new 0 0 48 48;" xml:space="preserve">
<style type="text/css">
	.st0{fill:#FF5C49;}
	.st1{fill:#EFECE6;}
</style>
<path class="st0" d="M31.1,20.3c0,0-4.9,0-5.4,0l0,0l-7.9-9H16l4.8,9h-3.6l-3-3.1h-1.6l2.6,4.7l-2.6,4.7h1.6l3-3.1h3.6l-4.8,9h1.8
	l7.9-9l0,0c0.5,0,5.4,0,5.4,0c2.2,0,4.1-0.7,4.1-1.6S33.3,20.3,31.1,20.3"/>
<path class="st1" d="M46.2,45l-9-8.4c3.6-3.7,5.9-8.7,5.9-14.3c0-11.2-9.2-20.4-20.6-20.4c-11.4,0-20.6,9.2-20.6,20.4
	c0,11.2,9.2,20.4,20.6,20.4c5.4,0,10.3-2.1,14-5.4l9.1,8.4L46.2,45z M2.9,22.3c0-10.7,8.8-19.4,19.6-19.4s19.6,8.7,19.6,19.4
	s-8.8,19.4-19.6,19.4S2.9,33,2.9,22.3z"/>
</svg>
