<?xml version="1.0" encoding="utf-8"?>
<!-- Generator: Adobe Illustrator 20.1.0, SVG Export Plug-In . SVG Version: 6.00 Build 0)  -->
<svg version="1.1" id="Layer_1" xmlns="http://www.w3.org/2000/svg" xmlns:xlink="http://www.w3.org/1999/xlink" x="0px" y="0px"
	 viewBox="0 0 48 48" style="enable-background:new 0 0 48 48;" xml:space="preserve">
<style type="text/css">
	.st0{fill:#FF5C49;}
	.st1{fill:#EFECE6;}
</style>
<ellipse class="st0" cx="24" cy="24" rx="3.4" ry="3.4"/>
<path class="st1" d="M46.7,24c0-3.2-3.8-5.9-9.7-7.5c1.5-5.9,1.1-10.6-1.6-12.2C32.6,2.8,28.3,4.7,24,9c-0.8-0.7-1.5-1.4-2.3-2
	c-3.7-3-6.9-3.9-9.1-2.6c-2.2,1.3-3,4.5-2.3,9.2c0.1,1,0.4,1.9,0.6,3c-5.9,1.6-9.7,4.4-9.7,7.5c0,3.2,3.8,5.9,9.7,7.5
	c-1.5,5.9-1.1,10.6,1.6,12.2c0.6,0.4,1.4,0.5,2.1,0.5c1.9,0,4.3-1.1,6.9-3.2c0.8-0.6,1.5-1.3,2.3-2c3.3,3.3,6.6,5.2,9.2,5.2
	c0.8,0,1.5-0.2,2.1-0.5c2.7-1.6,3.2-6.2,1.6-12.2C42.9,29.9,46.7,27.2,46.7,24z M34.8,5.2c2.3,1.3,2.5,5.6,1.1,11
	c-2.1-0.5-4.4-0.9-6.9-1.1c-1.4-2-2.9-3.8-4.4-5.4C28.7,5.8,32.6,3.9,34.8,5.2z M31,28.1c-0.8,1.3-1.6,2.6-2.4,3.9
	c-1.5,0.1-3,0.2-4.6,0.2c-1.6,0-3.1-0.1-4.6-0.2c-0.8-1.2-1.7-2.5-2.5-3.9c-0.8-1.3-1.5-2.7-2.1-4c0.6-1.3,1.3-2.7,2.1-4.1
	c0.8-1.4,1.6-2.6,2.5-3.9c1.5-0.1,3-0.2,4.6-0.2c1.6,0,3.1,0.1,4.6,0.2c0.8,1.2,1.7,2.5,2.4,3.9c0.8,1.4,1.5,2.7,2.1,4.1
	C32.5,25.3,31.8,26.7,31,28.1z M33.7,25.2c0.8,1.9,1.5,3.8,2.1,5.6c-1.8,0.4-3.8,0.8-5.9,1c0.7-1,1.4-2.1,2-3.2
	C32.5,27.4,33.1,26.3,33.7,25.2z M24,37.5c-1.3-1.3-2.6-2.9-3.8-4.6c1.2,0.1,2.5,0.1,3.8,0.1c1.3,0,2.6,0,3.8-0.1
	C26.6,34.7,25.3,36.2,24,37.5z M18.1,31.8c-2.1-0.2-4.1-0.6-5.9-1c0.5-1.8,1.2-3.7,2.1-5.6c0.6,1.1,1.1,2.2,1.8,3.4
	C16.8,29.7,17.4,30.8,18.1,31.8z M14.3,22.8c-0.8-1.9-1.5-3.8-2.1-5.6c1.8-0.4,3.8-0.8,5.9-1c-0.7,1-1.4,2.1-2,3.2
	C15.5,20.6,14.9,21.7,14.3,22.8z M24,10.5c1.3,1.4,2.6,2.9,3.8,4.6c-1.2-0.1-2.5-0.1-3.8-0.1c-1.3,0-2.6,0-3.8,0.1
	C21.4,13.3,22.7,11.8,24,10.5z M31.9,19.4c-0.6-1.1-1.3-2.2-2-3.2c2.1,0.2,4.1,0.6,5.9,1c-0.5,1.8-1.2,3.7-2.1,5.6
	C33.1,21.7,32.5,20.6,31.9,19.4z M11.4,13.4c-0.6-4.2,0-7.1,1.8-8.2c0.5-0.3,1-0.4,1.6-0.4c1.7,0,3.9,1,6.3,3c0.7,0.6,1.5,1.3,2.2,2
	c-1.5,1.5-3,3.4-4.4,5.4c-2.5,0.2-4.8,0.6-6.9,1.1C11.7,15.3,11.5,14.3,11.4,13.4z M2.3,24c0-2.6,3.6-5,9-6.5
	c0.6,2.1,1.4,4.3,2.5,6.5c-1.1,2.3-1.9,4.5-2.5,6.5C5.9,29,2.3,26.6,2.3,24z M21.1,40.2c-3.3,2.6-6.2,3.6-8,2.5
	c-2.3-1.3-2.5-5.6-1.1-11c2.1,0.5,4.4,0.9,6.9,1.1c1.4,2,2.9,3.9,4.4,5.4C22.6,39,21.8,39.7,21.1,40.2z M34.8,42.8
	c-2.3,1.3-6.1-0.6-10.1-4.5c1.5-1.6,3-3.4,4.4-5.4c2.5-0.2,4.8-0.6,6.9-1.1C37.4,37.2,37.1,41.5,34.8,42.8z M36.7,30.5
	c-0.6-2.1-1.4-4.3-2.5-6.5c1-2.3,1.9-4.5,2.5-6.5c5.4,1.5,9,3.9,9,6.5C45.7,26.6,42.1,29,36.7,30.5z"/>
</svg>
