<svg width="43" height="29" viewBox="0 0 43 29" version="1.1" xmlns="http://www.w3.org/2000/svg" xmlns:xlink="http://www.w3.org/1999/xlink"><title>AMEX</title><defs><path id="a" d="M0 27.828h42.613V.396H0v27.432z"></path></defs><g stroke="none" stroke-width="1" fill="none" fill-rule="evenodd"><g transform="translate(0 .337)"><mask id="b" fill="#fff"><use xlink:href="#a"></use></mask><path d="M42.613 3.912v20.4c0 1.942-1.536 3.517-3.43 3.517H3.43C1.535 27.83 0 26.253 0 24.31v-20.4C0 1.97 1.535.396 3.43.396h35.754c1.893 0 3.43 1.573 3.43 3.516" fill="#1995D2" mask="url(#b)"></path></g><path d="M0 13.946h2.047l.46-1.14h1.034l.46 1.14H8.03v-.872l.36.876h2.09l.36-.89v.886h10.006l-.005-1.873h.192c.136.005.175.017.175.247v1.626h5.176v-.437c.417.23 1.066.436 1.92.436h2.18l.464-1.14h1.033l.456 1.14h4.196v-1.084l.635 1.084h3.362V6.78H37.3v.847l-.466-.846h-3.414v.847l-.428-.846h-4.612c-.773 0-1.45.11-2 .42v-.42H23.2v.42c-.348-.318-.824-.42-1.353-.42H10.22l-.78 1.85-.8-1.85H4.976v.847l-.403-.846H1.45L0 10.19v3.758zm39.562-1.01h-1.698l-2.27-3.855v3.857h-2.44l-.465-1.146H30.2l-.45 1.147h-1.403c-.582 0-1.32-.132-1.736-.57-.42-.435-.64-1.025-.64-1.96 0-.76.132-1.458.647-2.008.387-.412.992-.6 1.818-.6h1.16v1.1H28.46c-.438 0-.684.067-.922.305-.204.216-.344.625-.344 1.164 0 .55.106.945.33 1.205.183.203.518.265.833.265h.538l1.69-4.04h1.793l2.028 4.859v-4.86h1.823l2.105 3.578V7.8h1.227v5.137zm-15.4 0h1.222V7.8h-1.222v5.137zm-.695-3.753c0 .82-.533 1.243-.844 1.37.262.102.486.282.593.432.168.256.198.483.198.943v1.01h-1.208l-.005-.65c0-.308.03-.753-.188-1-.175-.18-.442-.22-.873-.22h-1.286v1.87h-1.198V7.8h2.755c.613 0 1.064.016 1.45.246.38.23.607.564.607 1.137zm-5.64 3.754h-4.003V7.8h4.002v1.07h-2.804v.925h2.737v1.053H15.02v1.026h2.804v1.063zm-4.895 0h-1.228L11.7 8.913l-1.737 4.024H8.91L7.17 8.91v4.027H4.734l-.46-1.146H1.78l-.465 1.147h-1.3L2.158 7.8h1.778l2.037 4.864V7.8H7.93l1.568 3.485 1.44-3.485h1.994v5.137zm19.35-2.217l-.83-2.048-.824 2.048h1.653zM21.9 9.904c-.165.103-.36.106-.593.106h-1.456V8.87h1.474c.21 0 .426.01.568.092.156.074.25.234.25.454 0 .225-.09.405-.245.488zm-18.06.816l-.82-2.048-.815 2.048H3.84zM23.216 18.335c0 1.427-1.04 1.722-2.086 1.722h-1.494v1.723h-2.33l-1.473-1.7-1.533 1.7H9.556v-5.14h4.817l1.473 1.686 1.524-1.685h3.827c.95 0 2.02.272 2.02 1.695zm-9.523 2.375H10.75l-.002-1.023h2.63V18.64h-2.63v-.935h3.003l1.31 1.497-1.367 1.508zm4.75.603l-1.84-2.093 1.84-2.026v4.12zm2.74-2.3h-1.547v-1.308h1.56c.433 0 .734.18.734.63 0 .444-.287.678-.747.678zm8.08-2.372h3.998v1.065h-2.803v.934h2.736v1.047h-2.736v1.023l2.804.004v1.066h-3.996v-5.14zm-1.512 2.752c.268.1.486.282.588.432.17.25.193.485.198.938v1.018h-1.202v-.643c0-.31.03-.767-.194-1.005-.175-.184-.442-.23-.88-.23h-1.28v1.878H23.78v-5.14h2.766c.605 0 1.047.03 1.44.245.378.233.616.554.616 1.14 0 .82-.534 1.24-.85 1.367zm-.722-.64c-.16.098-.36.107-.592.107H24.98v-1.155h1.476c.213 0 .427.004.572.092.155.084.248.242.248.463 0 .22-.093.397-.248.493zm10.808.32c.233.245.358.558.358 1.087 0 1.105-.674 1.62-1.882 1.62H33.98v-1.1h2.323c.227 0 .388-.032.49-.13.08-.078.14-.193.14-.334 0-.15-.064-.268-.146-.34-.09-.078-.218-.114-.426-.114-1.12-.04-2.522.036-2.522-1.59 0-.745.457-1.53 1.713-1.53h2.4v1.094h-2.196c-.218 0-.36.008-.48.093-.13.08-.18.205-.18.368 0 .194.112.326.263.383.127.046.26.06.466.06l.645.017c.65.016 1.096.132 1.368.414zm4.777 2.05c-.29.437-.858.658-1.625.658h-2.313v-1.1h2.303c.23 0 .39-.032.485-.13.083-.078.142-.193.142-.334 0-.15-.06-.268-.146-.34-.09-.078-.215-.114-.424-.114-1.124-.04-2.528.036-2.528-1.59 0-.745.462-1.53 1.72-1.53h2.385V15.62h-2.217c-.668 0-1.155.164-1.5.42v-.42H35.62c-.524 0-1.14.132-1.43.42v-.42h-5.855v.42c-.466-.345-1.252-.42-1.615-.42h-3.862v.42c-.37-.367-1.188-.42-1.688-.42h-4.322l-.99 1.097-.925-1.097H8.475v7.17h6.335l1.018-1.115.96 1.114 3.905.003v-1.687h.384c.518.008 1.13-.013 1.668-.25v1.933h3.22v-1.87h.156c.2 0 .22.01.22.212v1.657h9.783c.62 0 1.27-.164 1.63-.46v.46h3.103c.647 0 1.277-.094 1.757-.33v-1.337zm0-3.386H40.43c-.218 0-.362.008-.484.092-.127.083-.175.207-.175.37 0 .194.107.326.262.383.127.046.262.06.462.06l.65.017c.654.016 1.092.132 1.358.414.05.04.078.083.11.127v-1.46z" fill="#FFF"></path></g></svg>