
<svg xmlns="http://www.w3.org/2000/svg" width="37" height="24" viewBox="18.5 12 37 24"><path fill="#232121" d="M19.1 15.2h31.3v19.2H19.1z"></path><path fill="#787878" d="M17.6 10.4h39.3v26H17.6z"></path><g fill="#BEBBBB"><path d="M30 26.8l.7 1.7 1.6-.6-.8 1.5 1.4 1-1.7.3.1 1.7-1.3-1.2-1.2 1.2.1-1.7-1.7-.3 1.4-1-.9-1.5 1.7.6M41.9 21.6l.3.8.8-.2-.4.6.7.5-.8.1v.8l-.6-.5-.6.5.1-.8-.8-.1.7-.5-.5-.6.8.2M50.5 20.2l.3.7.7-.2-.3.7.6.5-.8.1.1.8-.6-.5-.7.5.1-.8-.8-.1.7-.5-.4-.7.7.2M46.4 15.7l.3.7.8-.2-.4.7.7.5-.9.1.1.8-.6-.6-.6.6.1-.8-.9-.1.7-.5-.4-.7.8.2M47.3 30.3l.3.7.8-.3-.4.8.7.4-.8.1v.9l-.6-.6-.6.6.1-.9-.8-.1.6-.4-.3-.8.7.3M48.2 24.4l.3.6.7.1-.5.5.1.6-.6-.3-.6.3.1-.6-.5-.5.7-.1M18.4 15.7h8.7v1.2h-8.7z"></path><path d="M26.3 12.1h.8v4.7h-.8zM28.9 15.7h8.7v1.2h-8.7z"></path><path d="M28.9 12.1h.8v4.7h-.8zM18.6 18.7h8.7v1.2h-8.7z"></path><path d="M26.5 18.7h.8v4.7h-.8zM28.9 18.7h8.7v1.2h-8.7z"></path><path d="M28.9 18.7h.8v4.7h-.8zM26.056 16.718L17.9 11.844l.616-1.03 8.155 4.874zM23.702 16.56l-8.155-4.872.256-.43 8.155 4.874zM40.133 11.985l-8.155 4.873-.616-1.03 8.155-4.873zM37.42 11.54l-8.155 4.874-.257-.43 8.155-4.873zM15.77 23.748l8.155-4.874.616 1.03-8.154 4.874zM18.54 24.17l8.155-4.875.257.43-8.155 4.873z"></path><path d="M29.803 18.76l8.155 4.875-.616 1.03-8.155-4.874zM32.128 18.89l8.155 4.874-.257.43-8.154-4.875z"></path></g></svg>