<?xml version="1.0" encoding="UTF-8" standalone="no"?>
<svg width="240px" height="170px" viewBox="0 0 240 170" version="1.1" xmlns="http://www.w3.org/2000/svg" xmlns:xlink="http://www.w3.org/1999/xlink">
    <!-- Generator: Sketch 40.1 (33804) - http://www.bohemiancoding.com/sketch -->
    <title>prison_ball</title>
    <desc>Created with Sketch.</desc>
    <defs></defs>
    <g id="IMAGES" stroke="none" stroke-width="1" fill="none" fill-rule="evenodd">
        <g id="prison_ball" fill="#554740">
            <g id="IMG" transform="translate(44.000000, 33.000000)">
                <path d="M50.410957,65.4959784 C34.6019698,65.4959784 21.7874426,52.4602418 21.7874426,36.3816886 C21.7874426,25.4824929 27.6780151,15.9897414 36.3927743,11 C23.9642976,15.2088812 15,27.1278235 15,41.1833068 C15,58.7549005 29.003504,73 46.2788958,73 C61.546238,73 74.2506747,61.8723691 77,47.1584549 C72.7872058,57.9008814 62.4739334,65.4959784 50.410957,65.4959784" id="Fill-4"></path>
                <path d="M89.0355147,96 C88.9107018,96 88.7858889,96.0131548 88.6662765,96.0394644 C87.9884729,96.1858116 87.4666855,96.7120038 87.194524,97.5210242 C86.9518322,98.2428941 86.9362305,99.1275546 87.1477191,100.008926 C87.5654957,101.742072 88.7494851,103 89.9646777,103 C90.0894906,103 90.21257,102.986845 90.333916,102.960536 C91.6513858,102.674419 92.3187883,100.931407 91.8507398,98.9894292 C91.4329632,97.2579281 90.2489738,96 89.0355147,96 L89.0355147,96 Z M90.878239,99.2015504 C91.006519,99.7359643 91.0255876,100.229269 90.9701152,100.653512 C90.6615499,100.339441 90.3512511,99.832981 90.1622982,99.1538642 C90.0045485,98.5799859 89.9733453,98.0044632 90.066955,97.5539112 C90.4067235,97.9436223 90.7100883,98.5059901 90.878239,99.2015504 L90.878239,99.2015504 Z M90.1120263,102.038055 C89.4550249,102.17618 88.4825241,101.301386 88.1219534,99.7984496 C87.9503356,99.0880902 87.9590032,98.3629316 88.1462226,97.8087855 C88.3022388,97.3385013 88.5744003,97.0310078 88.8881661,96.961945 C88.9367045,96.9520789 88.9852429,96.9471459 89.0355147,96.9471459 C89.0944542,96.9471459 89.1568607,96.961945 89.2192671,96.9767442 C88.9731083,97.6361287 88.9523061,98.5092788 89.1967315,99.3955837 C89.4706265,100.377261 90.0045485,101.197792 90.6303467,101.633545 C90.4847316,101.84731 90.3079133,101.995302 90.1120263,102.038055 L90.1120263,102.038055 Z" id="Fill-5"></path>
                <path d="M146.036553,111 C145.911718,111 145.786884,111.013155 145.665518,111.041109 C144.989333,111.187456 144.465723,111.713648 144.195249,112.522669 C143.952516,113.244538 143.935178,114.127555 144.148436,115.010571 C144.566284,116.742072 145.750474,118 146.964139,118 C147.088974,118 147.213808,117.986845 147.335174,117.960536 C148.011359,117.814188 148.534969,117.287996 148.805443,116.478976 C149.048176,115.757106 149.06378,114.87409 148.852256,113.991074 C148.434408,112.257928 147.250218,111 146.036553,111 L146.036553,111 Z M147.113247,117.038055 C146.464803,117.179469 145.483468,116.30303 145.121102,114.800094 C144.951189,114.089735 144.959858,113.364576 145.145375,112.808786 C145.303152,112.340146 145.573626,112.031008 145.889179,111.963589 C145.935992,111.952079 145.986272,111.947146 146.036553,111.947146 C146.095502,111.947146 146.157919,111.961945 146.218602,111.976744 C145.972402,112.637773 145.95333,113.509279 146.197797,114.395584 C146.470004,115.378905 147.005751,116.199436 147.631655,116.635189 C147.486016,116.84731 147.310901,116.995302 147.113247,117.038055 L147.113247,117.038055 Z M147.968014,115.651868 C147.66113,115.336152 147.350779,114.831337 147.163527,114.155509 C147.004017,113.579986 146.974542,113.006108 147.068168,112.555556 C147.407994,112.943622 147.71141,113.507634 147.877856,114.20155 C147.999223,114.699789 148.02523,115.20296 147.968014,115.651868 L147.968014,115.651868 Z" id="Fill-6"></path>
                <path d="M150.314584,91.4116883 C150.970123,91.4116883 151.835789,91.1004291 152.267882,89.9220906 L154.779055,81.9701583 C154.80865,81.8871558 155.489345,79.9543842 154.302569,78.8694234 L154.299609,78.4514467 C154.23006,77.4465241 153.845319,76.6357679 153.157225,76.0399288 C151.825431,74.8897518 149.812941,74.9638612 149.525866,74.9816474 C149.117449,74.9564502 145.190135,74.7430153 141.881365,75.2588163 C140.536253,74.2212856 138.914423,74.2894661 138.880388,74.2953949 L129.831584,73.8744538 C129.553387,73.5350331 129.202681,73.1882013 128.76023,72.8695312 L128.658125,72.796904 L119.590085,72.3478014 L114.04982,70.8804365 L111.278207,63.918605 C110.702576,62.1207123 109.825071,61.6671632 109.387059,61.5530348 L109.085186,58.5204805 C109.062989,58.3915303 108.573185,55.6554134 106.797459,55.3085817 L106.861089,50.91538 C106.874407,50.7656791 107.117089,47.8605929 106.217388,45.8196217 L106.384602,45.8092464 L105.797133,35.1686272 C105.729063,33.4626301 105.29697,32.2768807 104.514171,31.6395403 C104.277407,31.4468561 104.040644,31.335692 103.826077,31.2660293 L103.317036,24.1204066 C103.265244,22.2261718 102.51352,21.3887363 101.899414,21.0167074 L102.039993,20.9055434 L94.8409034,11.92942 L94.8053889,11.9575815 L94.8986145,10.1374561 C94.9622447,9.87510904 95.1812509,8.73530738 94.5331109,7.60143446 C93.9707977,6.61726241 92.931998,5.92804554 91.4685038,5.55898102 L89.7223732,5.00316096 C89.8555527,3.55506443 88.4956425,2.93699253 87.7527971,2.81397102 L81.2166456,1.62822156 C79.6584461,1.48000288 78.7631842,2.19441693 78.3177729,2.73245075 L75.1007493,2.54717739 C74.6153842,1.98987515 74.2099268,1.69640216 74.1936493,1.68602685 C68.2257301,-2.604904 63.3232466,2.64203735 63.2744141,2.69391389 L59.0200705,7.31685459 L59.1458511,7.43246516 C55.4094277,6.12517638 51.4007262,5.40483359 47.2248105,5.40483359 C27.2508525,5.40483359 11,21.6822093 11,41.6902492 C11,61.6982891 27.2508525,77.9756648 47.2248105,77.9756648 C67.2002484,77.9756648 83.4511009,61.6982891 83.4511009,41.6902492 C83.4511009,31.7729372 79.4557173,22.7760631 72.996514,16.2203508 L75.8583924,11.5440514 L75.8894676,11.4877283 C75.9220226,11.4151012 75.9486585,11.3439562 75.9797337,11.2728112 L80.3258231,11.1942553 C80.371696,11.1868444 81.2033277,11.0445544 81.6309817,9.97886212 C81.888462,10.5880409 82.1341041,10.8074046 82.1977343,10.8548345 L89.0609153,13.349355 C88.9173774,13.5405571 88.7812384,13.8029041 88.7264869,14.1467715 C88.5977467,14.9782783 89.0076435,15.9313244 89.9265817,16.9569977 L95.1279791,23.6920546 C94.8749382,24.1485681 94.5804636,24.9622887 94.7358396,26.1421094 L95.375101,34.1088636 C95.3721415,34.1844551 95.3381067,35.969008 96.3458312,36.8523914 C96.703936,37.1680972 97.1404686,37.3266912 97.643591,37.3341021 L97.7013021,44.2737008 C97.7693716,46.8571524 98.8185297,47.8739326 98.8274083,47.876897 C99.0567729,48.1555481 99.3083341,48.3763939 99.5687739,48.5557385 L99.6871557,55.7680596 C99.626485,56.111927 99.3438486,58.0713779 100.455157,59.4424008 L101.961565,70.392797 C101.976362,70.4624598 102.075507,70.8167024 102.523878,71.0938714 C102.874584,71.3102706 103.340712,71.4184703 103.916343,71.4184703 C104.370633,71.4184703 104.898911,71.3473253 105.48934,71.2109641 L106.093087,72.5093598 C105.806012,73.0918592 105.162311,74.597761 105.532254,75.8398336 C105.712786,76.4490123 106.101966,76.9114546 106.690915,77.2123386 L114.573659,79.6446071 L114.412364,79.7009302 C114.946561,81.2290648 117.02564,81.4009985 117.931261,81.4009985 C118.173943,81.4009985 118.332279,81.389141 118.354475,81.3876588 L125.602397,81.3165139 C126.312687,82.1183769 127.39588,82.4563155 128.103211,82.5215318 L137.162373,83.1396037 C137.37694,83.7724974 138.168618,85.149449 141.034936,85.3302758 L141.066011,85.3332402 L145.634066,84.9612113 L145.552679,85.1524134 C145.459453,85.1272162 144.077346,84.792242 143.193923,85.9142574 L139.629153,88.7570917 C130.990246,85.2250405 121.059498,89.8020334 120.568214,90.0332546 C120.498664,90.0658627 120.439474,90.1147748 120.387682,90.1681336 C119.804652,90.005093 119.155032,89.9131974 118.462499,89.9131974 C118.341157,89.9131974 118.224255,89.9191262 118.105874,89.9235727 C117.053756,85.998742 111.084357,83.5160791 109.96269,83.2670717 C101.004152,81.2720483 95.5053209,86.2892507 94.0773412,87.7684731 L88.2825554,86.2195879 L84.350802,88.4784406 C84.2398192,88.5495856 87.0069922,110.646027 87.0069922,110.646027 L99.1263222,114.630145 L99.0996863,114.36928 C102.358144,110.219157 106.608048,108.298243 109.887222,108.464248 C112.371758,108.590234 114.507069,110.511148 115.079741,111.077343 L115.08418,111.138113 C115.08418,112.719606 117.099629,113.957232 119.671472,113.957232 C122.244795,113.957232 124.260244,112.719606 124.258764,111.096612 L124.233608,110.709761 C125.426304,110.124297 129.801989,108.190043 132.876954,109.586263 C134.370044,110.263623 135.364451,111.677629 135.835018,113.791227 C135.866093,113.930553 135.943041,114.046163 136.045146,114.133612 L136.813147,122.336034 L149.403045,126 L154.024371,122.82812 L153.177942,101.315661 L144.044791,99.723792 C145.981812,98.6640284 146.183061,96.6778981 145.761326,94.8859342 C146.038044,94.64582 148.239944,92.7397277 149.832178,91.2071465 L149.793704,91.3420255 C149.935762,91.3835268 150.114815,91.4116883 150.314584,91.4116883 L150.314584,91.4116883 Z M151.462887,89.6464038 C151.223164,90.2970838 150.825105,90.4956969 150.503995,90.5431268 C150.86062,90.1814733 151.146216,89.8657675 151.31343,89.6389929 C151.446609,89.4552017 151.545754,89.2610352 151.607904,89.0624222 C151.906818,88.0901076 151.263118,87.2719405 150.894654,86.902876 L151.778078,84.3209066 L151.399257,84.1919563 L152.41586,84.0348445 C152.818358,83.9711105 153.132069,83.7976946 153.382151,83.5694378 L151.462887,89.6464038 L151.462887,89.6464038 Z M147.508937,86.8969473 C147.392035,87.0555412 147.16415,87.4364633 147.252936,87.9196562 C147.328405,88.3198466 147.609561,88.6637139 148.066811,88.9527404 L146.874115,90.0169505 C146.058761,89.8613209 145.533442,89.5574726 145.317395,89.1128166 C144.997764,88.4562078 145.41506,87.6424872 145.434297,87.6024682 L148.667598,79.992921 C149.482952,78.7300979 150.037867,78.6263448 150.156248,78.6782213 L150.250954,78.7434375 L151.149175,78.8190291 C151.175811,79.0502502 151.165453,79.2681317 151.150655,79.3822601 L151.143256,79.42969 L151.147695,79.47712 C151.229083,80.4731496 151.001198,80.7562473 150.900573,80.833321 C150.736319,80.9563425 150.481798,80.8614825 150.481798,80.8614825 L150.40485,80.8288744 L150.319023,80.8288744 C149.647207,80.8288744 149.351253,81.7997068 149.271345,82.1628425 L147.508937,86.8969473 L147.508937,86.8969473 Z M144.167612,91.5821398 L144.109901,91.5243345 C143.66153,91.131555 143.201321,90.7832411 142.733714,90.4556778 L144.37922,88.9008638 C144.408815,89.0920659 144.454688,89.2877146 144.547914,89.4789167 C144.820192,90.0436299 145.345511,90.4512313 146.109073,90.7002386 L144.549393,92.0920121 C144.419174,91.8978456 144.290433,91.7214654 144.167612,91.5821398 L144.167612,91.5821398 Z M143.495796,78.5107342 L149.445958,77.9993798 C148.945795,78.246905 148.438233,78.7686347 147.930672,79.5616047 L147.140474,81.4202669 L142.878731,81.7967424 C142.958639,81.690025 143.032627,81.5803431 143.100697,81.4647326 C143.759195,80.3441993 143.617137,79.0932336 143.495796,78.5107342 L143.495796,78.5107342 Z M149.30242,84.515073 L150.894654,84.26903 L150.160688,86.4167187 L148.861448,85.7023047 L149.30242,84.515073 L149.30242,84.515073 Z M149.49923,75.835387 L149.528825,75.8368692 L149.558421,75.835387 C149.577658,75.8339048 151.470286,75.7064368 152.603791,76.6891266 C153.111352,77.1293361 153.396948,77.7429614 153.44874,78.4840549 L153.466498,81.0111834 C153.466498,81.031934 153.433943,83.0106534 152.28416,83.1914802 L149.642768,83.5990816 L150.085219,82.4088856 C150.14737,82.1420919 150.267231,81.841208 150.358977,81.7122578 C150.603139,81.7670987 151.020435,81.801189 151.399257,81.52402 C151.874263,81.1771883 152.076992,80.4805605 152.000044,79.4519228 C152.029639,79.191058 152.102148,78.1609381 151.488043,77.5310087 C151.242401,77.2805192 150.786631,77.001868 150.027508,77.0922814 L141.509942,77.8274461 C141.449272,77.8259639 140.870681,77.8289283 140.403073,78.2943349 C140.10268,78.5967011 139.928067,79.0146777 139.874795,79.5334431 C139.697222,79.6861084 139.472297,79.8224696 139.278447,79.9099186 L137.597426,79.8224696 C137.736525,78.9390862 138.310676,77.0033502 140.687189,76.3645277 L140.817409,76.3319196 C144.265277,75.5196812 149.447438,75.8324226 149.49923,75.835387 L149.49923,75.835387 Z M130.975448,77.6288331 L137.334027,77.9904866 C136.971483,78.6841501 136.814627,79.349652 136.749517,79.7794861 L130.322869,79.4474763 C130.584788,78.985034 130.862985,78.3551046 130.975448,77.6288331 L130.975448,77.6288331 Z M138.880388,75.1476523 C138.892226,75.1461701 139.731257,75.1165264 140.61764,75.501895 L140.435628,75.5478428 C139.238493,75.8709595 138.429058,76.486067 137.875623,77.1663908 L131.019841,76.7750934 C131.000604,76.4267795 130.941413,76.065126 130.812673,75.6945793 C130.805274,75.6634533 130.707609,75.2766026 130.424973,74.7548728 L138.880388,75.1476523 L138.880388,75.1476523 Z M129.995839,75.9361757 C130.497482,77.3709326 129.784232,78.7345444 129.378774,79.349652 C128.857895,79.2384879 128.49683,79.0235709 128.308899,78.7078651 C127.943396,78.0957219 128.260067,77.2360536 128.326657,77.0744952 L128.347373,77.073013 C128.199396,75.629363 127.247903,75.4277856 127.153198,75.4129638 L118.150267,74.8482506 L118.088116,74.8615903 C117.500647,75.0009158 116.513639,75.6664177 116.728206,77.2049276 C116.634981,77.1649086 116.537316,77.1174786 116.432252,77.0522624 L114.922885,76.573516 L114.992434,75.0142555 C114.927324,73.2682394 116.77112,73.0829661 116.930935,73.0681442 L119.448027,73.1926479 L119.594524,73.2311848 L119.601923,73.2000588 L128.362171,73.6358218 C129.652532,74.6125829 129.981041,75.8842992 129.995839,75.9361757 L129.995839,75.9361757 Z M125.084477,78.3017459 L120.944076,78.1624203 C120.989949,77.9978976 121.032862,77.8274461 121.065417,77.6466193 L121.330296,75.9020854 L125.531368,76.1659147 L125.084477,78.3017459 L125.084477,78.3017459 Z M118.489135,75.724223 C118.401828,75.7760995 118.310082,75.7523845 118.273088,75.7390449 C118.252371,75.7316339 118.243492,75.7197764 118.228695,75.7094011 C118.230174,75.7094011 118.231654,75.7079189 118.233134,75.7079189 L118.487655,75.724223 L118.489135,75.724223 L118.489135,75.724223 Z M117.607191,77.2805192 C117.391144,76.2459528 117.86911,75.8709595 118.139908,75.7449736 C118.141388,75.8368692 118.13251,75.9821235 118.095515,76.2088981 L117.664902,77.247911 C117.650104,77.2568042 117.630867,77.2686617 117.607191,77.2805192 L117.607191,77.2805192 Z M103.074353,48.9885371 L103.071393,54.7008851 C103.071393,54.8876406 103.068434,55.0640209 103.063995,55.2329902 C102.924896,55.2359545 102.760641,55.2507764 102.583069,55.278938 L102.655578,49.0922902 C102.805035,49.0626464 102.942653,49.027074 103.074353,48.9885371 L103.074353,48.9885371 Z M102.165773,36.8301586 L102.612664,43.9164938 C101.829865,44.069159 101.3445,44.3759717 101.050025,44.6620338 L100.623851,36.9813416 C100.727435,36.9887526 100.847297,36.9961635 100.990834,36.9961635 C101.320824,36.9961635 101.742559,36.9591088 102.165773,36.8301586 L102.165773,36.8301586 Z M103.299278,44.6842666 C103.929661,44.6383188 104.437223,44.8250743 104.848599,45.2445332 C106.353527,46.7815609 106.016139,50.7982872 106.01022,50.8709144 L105.906636,58.2003282 C105.777896,59.1681962 105.441988,59.8277693 104.90779,60.158297 C104.465338,60.4325015 103.960736,60.4339837 103.615949,60.3910003 L103.383625,58.8747232 C103.578955,58.4760149 103.911904,57.4014295 103.923742,54.7038495 L103.923742,47.3581316 C103.787603,46.2494558 103.5464,45.8581585 103.367348,45.7247617 L103.22381,45.6165621 L103.047717,45.6447236 C102.230883,45.7707095 101.748478,45.6536167 101.462882,45.489094 C101.564986,45.3097494 101.973403,44.7761621 103.299278,44.6842666 L103.299278,44.6842666 Z M103.9341,61.2669727 C104.361754,61.2669727 104.870796,61.1824881 105.348762,60.8890151 C105.626959,60.7185636 105.863723,60.4932712 106.063492,60.2175845 L106.282498,62.9003426 L105.138634,63.5480582 C104.980299,63.594006 104.570402,63.7333316 104.173823,64.0312512 L103.749129,61.261044 C103.80832,61.2640084 103.87047,61.2669727 103.9341,61.2669727 L103.9341,61.2669727 Z M104.284806,65.1532666 C104.629593,64.5544631 105.390196,64.363261 105.397595,64.3617788 L106.359446,63.8296737 L106.474868,65.2496087 C106.085688,65.5860651 105.769017,66.1433674 105.925873,66.9822851 C105.937711,67.0460191 105.952509,67.1112354 105.971746,67.179416 C106.356487,68.6408522 108.608699,73.4816743 108.703404,73.6862161 L108.761116,73.8092376 L108.878018,73.875936 C108.92981,73.9055798 109.150296,74.0197081 109.517279,74.0197081 C109.651938,74.0197081 109.805834,74.0034041 109.977488,73.963385 L110.511685,73.6669477 L110.474691,73.606178 L112.180868,74.0434231 L111.248612,74.574046 C109.891661,75.4870731 109.117741,75.5226456 108.707844,75.3936953 C108.283149,75.2573341 108.144051,74.9045737 108.123334,74.8556615 L104.201939,66.4398047 C104.058401,65.9314147 104.085037,65.4986161 104.284806,65.1532666 L104.284806,65.1532666 Z M114.399046,73.7306817 L109.937534,72.5879157 C109.884262,72.5478966 109.820632,72.5152885 109.743684,72.4975023 C109.533556,72.4485901 109.336747,72.5241816 109.160654,72.6427566 C108.984561,72.2559058 108.747798,71.7356583 108.491797,71.1590876 L108.568745,71.178356 C108.636815,70.8982227 108.753717,70.7070206 108.919451,70.6106785 C109.171012,70.4654241 109.486204,70.5528732 109.502481,70.5588019 L116.231003,72.3403905 C115.553268,72.5315926 114.788226,72.9525336 114.399046,73.7306817 L114.399046,73.7306817 Z M109.737765,69.7376704 C109.736285,69.7376704 109.728886,69.7361882 109.725927,69.734706 C109.976008,69.4634659 110.088471,69.2248338 110.098829,69.2011188 L110.141743,69.1003301 L110.098829,68.679389 L110.644865,69.9792669 L109.737765,69.7376704 L109.737765,69.7376704 Z M111.696983,75.3003176 L113.369125,74.3472714 L114.162282,74.5518132 C114.146005,74.6970675 114.135646,74.8482506 114.141565,75.0112911 L114.083854,76.3067224 L111.427664,75.4633581 C111.51793,75.407035 111.603757,75.3625694 111.696983,75.3003176 L111.696983,75.3003176 Z M110.477651,64.2076314 L113.025818,70.6091963 L111.685144,70.2549536 L109.811753,65.7950535 L109.486204,62.5475821 C109.76884,62.7580527 110.1595,63.2160484 110.477651,64.2076314 L110.477651,64.2076314 Z M108.240236,58.6346089 L109.270157,68.9476648 C109.144376,69.1477601 108.747798,69.6353995 107.864374,69.7258129 C107.63057,69.1833325 107.411564,68.6541919 107.226592,68.1858208 C107.232511,68.1798921 107.23991,68.1769277 107.245829,68.1709989 C107.497391,67.917545 107.506269,67.5188367 107.504789,67.4106371 L107.365691,65.7061223 C107.37309,65.7046401 107.383448,65.7001935 107.387887,65.6987113 L107.355332,65.5786542 L106.812256,58.9147422 L106.625805,58.9295641 L106.812256,58.9132601 L106.754545,58.2418294 L106.784141,56.1890007 C107.876212,56.5936377 108.240236,58.6346089 108.240236,58.6346089 L108.240236,58.6346089 Z M103.977014,32.30356 C104.379512,32.6296411 104.873755,33.3974139 104.947744,35.2086462 L105.467144,44.6590694 C105.464184,44.656105 105.461225,44.6516585 105.458265,44.6472119 C104.921108,44.0988028 104.244852,43.8364557 103.460573,43.8394201 L102.992966,36.4314503 C102.998885,36.4270038 103.004804,36.4240394 103.010723,36.4195928 C103.589314,36.000134 103.940019,35.3761333 104.052482,34.5683415 L104.059881,34.5238759 L103.897106,32.2457548 C103.923742,32.2650232 103.950378,32.2813272 103.977014,32.30356 L103.977014,32.30356 Z M102.466167,24.1619078 L103.203093,34.49275 C103.117266,35.0470878 102.892341,35.4517248 102.51352,35.7274116 C101.838744,36.2194976 100.876892,36.1542814 100.576498,36.1201911 L100.446279,33.7753716 C100.622371,33.7249772 100.817701,33.6256707 100.995274,33.4389151 C101.505795,32.9023635 101.596061,31.9374599 101.269032,30.4908456 L100.740753,24.1693188 C100.736314,24.1218888 100.63273,23.0280349 99.8129362,22.5196448 C99.3616059,22.2395115 98.8066915,22.1980103 98.1629908,22.3921768 L97.7308975,21.8734114 L101.054465,21.5784562 C101.269032,21.6199574 102.405496,21.9504851 102.466167,24.1619078 L102.466167,24.1619078 Z M98.6749918,31.2260102 L98.2281008,25.9182992 C98.2754535,25.9197814 98.3228062,25.9271923 98.3716386,25.9271923 C98.9117553,25.9271923 99.4548315,25.7685983 99.9934684,25.4617857 L100.422602,30.5916343 L100.431481,30.6509217 C100.432961,30.6568505 100.432961,30.6598149 100.43444,30.6657436 C99.6856759,30.6494395 99.1070852,30.8851072 98.6749918,31.2260102 L98.6749918,31.2260102 Z M93.6378491,15.348825 L98.2858119,20.9677952 L97.0679598,21.0759949 L92.322332,15.3680934 C92.5221012,15.4051481 92.7544254,15.4347918 92.9985877,15.4347918 C93.210195,15.4347918 93.4292013,15.4081125 93.6378491,15.348825 L93.6378491,15.348825 Z M100.816221,20.7425028 L99.315733,20.8758996 L94.3673765,14.8937936 C94.519793,14.7129668 94.6322556,14.4980497 94.6884869,14.2431136 L94.7432385,13.1700103 L100.816221,20.7425028 L100.816221,20.7425028 Z M93.7887858,8.01496458 C94.3348215,8.96059977 94.0684626,9.94625401 94.0669828,9.95366495 L93.8494564,14.0904484 C93.8035835,14.2668286 93.7177567,14.3854035 93.5771784,14.4639594 C93.1613626,14.6966628 92.3933611,14.5276935 92.0914877,14.4313513 C92.1551178,14.1215743 92.33565,13.7658495 92.7766219,13.4679299 L92.9675125,13.3374975 L92.8964834,9.56236762 C92.8002983,8.81534547 92.3474882,7.58809478 91.2613358,7.58809478 L91.2332201,7.58809478 L86.3825285,6.22003634 C86.2996613,6.19483916 84.4203513,5.65532316 83.6419914,6.66913895 L82.3442317,6.40679188 L82.367908,6.3252716 C83.0249266,4.36433844 85.284538,4.55257617 85.6012091,4.58814865 L91.2361796,6.37863033 C92.4836272,6.69581831 93.3433745,7.24570962 93.7887858,8.01496458 L93.7887858,8.01496458 Z M82.1311445,8.74271831 L82.09563,8.75012925 L77.830928,8.20913106 C77.6444768,8.10093142 77.0584872,7.71852722 76.885354,7.13899217 C76.8794349,6.95964756 76.8749955,6.78178515 76.8572383,6.60540491 C76.9119898,6.28673475 77.0821636,5.94879615 77.3810775,5.59307131 L79.0088263,5.56194539 C79.0206645,5.606411 79.0339824,5.66718066 79.0473004,5.73980781 L78.8697278,5.70423533 L78.7010338,6.54167088 L84.6526755,7.74372439 C84.824329,7.78374344 85.3925613,7.9008362 85.9800307,7.9008362 C86.4431992,7.9008362 86.9182059,7.82672686 87.2185995,7.58661259 C87.2911084,7.5288073 87.3473397,7.4621089 87.3961721,7.39244612 L88.4838043,7.69925879 C88.4690066,8.04164394 88.3876192,8.75902237 87.9614449,9.13698001 C87.695086,9.37264771 87.3221836,9.4408283 86.8042635,9.34745053 L82.1341041,8.75457581 C82.1326243,8.75012925 82.1311445,8.74716487 82.1311445,8.74271831 L82.1311445,8.74271831 Z M71.0284177,7.48137733 L70.9869841,5.75018312 C71.0106604,5.71757501 71.1083253,5.6508766 71.343609,5.61085756 C71.8837257,6.49868746 71.7757024,7.53918261 71.5433782,8.33067037 C71.2814586,8.20468449 70.9973425,7.96012367 71.0284177,7.48137733 L71.0284177,7.48137733 Z M71.8837257,4.72747421 C71.1763948,4.70524141 70.6717927,4.84901353 70.3817574,5.14989745 C70.1849478,5.35443924 70.125757,5.59751787 70.1346356,5.73832562 L70.177549,7.4621089 C70.1153985,8.38995785 70.68955,8.89390137 71.2474239,9.13401563 C71.1320017,9.38746958 71.0417356,9.5430992 71.0372963,9.55051013 L70.6732725,10.1774752 C69.9185889,10.168582 69.3459173,9.97293337 68.9878125,9.56977856 C68.3071176,8.80348797 68.5216845,7.53770042 68.5231642,7.52732512 L68.6134303,5.6508766 C68.6267482,4.64298956 68.8649915,3.89300303 69.3059634,3.48243728 C69.7188197,3.09558652 70.1819883,3.11781932 70.2086242,3.11930151 L74.2987131,3.35496921 C74.3164703,3.37720202 74.3342276,3.39647044 74.3519848,3.41870325 L74.4200543,3.36238015 L78.6655193,3.60842316 L78.7306292,3.63658471 C78.7306292,3.63658471 78.7350685,3.6262094 78.7424674,3.61286972 L80.8570611,3.73440904 C81.0435124,3.74330216 81.1737323,3.80851838 81.278796,3.94636175 C81.6324615,4.40435748 81.5999065,5.50562229 81.4830045,6.23337602 L79.9322038,5.91915242 C79.8448973,5.15730839 79.671764,4.79417262 79.3402952,4.68745517 C79.1967573,4.64150737 79.0650576,4.6607758 78.9555545,4.70820578 L71.8837257,4.72747421 L71.8837257,4.72747421 Z M64.3146936,9.70762193 L67.0108376,6.11480108 C67.2505606,5.83763214 67.5050813,5.60196444 67.7714402,5.40779796 C67.7684807,5.48042512 67.7625616,5.55157008 67.7610818,5.62567942 L67.6796944,7.4057858 C67.6427001,7.64738225 67.4547691,9.12067595 68.3455916,10.1315274 C68.7880434,10.6325065 69.4036284,10.9274617 70.1893871,11.0149107 L69.1417088,12.8246608 C67.6219833,11.6641085 66.0090322,10.6191668 64.3146936,9.70762193 L64.3146936,9.70762193 Z M84.8894389,6.92111071 C85.3437288,6.86034105 85.8986432,6.9670585 86.1472448,7.03968565 L86.1576033,7.04265003 C85.7906199,7.05895408 85.3111739,7.0115241 84.8894389,6.92111071 L84.8894389,6.92111071 Z M88.5252379,9.77580253 C89.108268,9.2614837 89.2754822,8.44924532 89.3213551,7.93492649 L91.1399945,8.44776313 L91.2139831,8.44331657 C91.862123,8.40033316 92.044135,9.62610166 92.0470945,9.62610166 L92.0470945,9.62461947 L92.0707709,10.8963358 C92.0234182,10.9111576 91.9760655,10.9274617 91.9301925,10.9452479 L88.4334921,9.84250093 C88.4630875,9.82026813 88.4971223,9.8009997 88.5252379,9.77580253 L88.5252379,9.77580253 Z M82.3753069,4.59555958 L82.5262436,4.6163102 C82.4818504,4.65336487 82.4359775,4.68449079 82.3930641,4.72450984 C82.3886248,4.68152642 82.3812259,4.638543 82.3753069,4.59555958 L82.3753069,4.59555958 Z M81.1012234,2.47306805 L87.6062997,3.65437095 C87.7365196,3.67808594 88.7871575,3.89448522 88.8641056,4.73043858 L85.8216951,3.76405278 L85.7521458,3.74774872 C85.2120292,3.67067501 84.3922356,3.69735437 83.6049971,3.98786299 C83.5443265,3.93302207 83.4732974,3.89003866 83.3874707,3.87818116 L82.1222659,3.69587218 C82.0734334,3.60101223 82.0186819,3.50911664 81.9535719,3.42463199 C81.6960917,3.09113996 81.3320678,2.90438442 80.902934,2.88215162 L79.5237868,2.80211353 C79.8937298,2.57682113 80.4072105,2.40933402 81.1012234,2.47306805 L81.1012234,2.47306805 Z M64.1119649,3.46316885 C64.2806588,3.2778955 68.2449672,-0.952265692 73.2835897,2.44194213 L70.267815,2.26852627 C70.2308207,2.26407971 69.4376631,2.2092388 68.74513,2.8391682 C68.4284588,3.12819463 68.1872561,3.50763446 68.0230014,3.97155893 C67.3378671,4.26503192 66.7060046,4.73192077 66.1274139,5.40038703 L63.2892118,9.17996342 C62.2622503,8.66860897 61.2071731,8.20616668 60.1269398,7.79263656 L64.1119649,3.46316885 L64.1119649,3.46316885 Z M47.2248105,75.9836057 C28.3473633,75.9836057 12.9873334,60.5999887 12.9873334,41.6902492 C12.9873334,22.7805097 28.3473633,7.39689268 47.2248105,7.39689268 C66.1052173,7.39689268 81.4637675,22.7805097 81.4637675,41.6902492 C81.4637675,60.5999887 66.1052173,75.9836057 47.2248105,75.9836057 L47.2248105,75.9836057 Z M72.1619228,15.4081125 C71.479748,14.7574324 70.7753767,14.1304674 70.0443695,13.5346283 L72.0139456,10.1315274 C72.0790556,10.0218455 73.4448848,7.70815191 72.5954959,5.57824945 L75.5017674,5.57083851 C75.9900921,7.20717276 75.7799645,9.02433381 74.8743442,10.9763739 L72.1619228,15.4081125 L72.1619228,15.4081125 Z M80.2118807,10.3464445 L76.3245205,10.4131429 C76.4828561,9.97293337 76.6101164,9.53717045 76.7018623,9.10733627 L78.0528938,9.10733627 L78.0528938,9.07472816 L80.9103329,9.44527487 C80.709084,10.1493136 80.3110254,10.3168007 80.2118807,10.3464445 L80.2118807,10.3464445 Z M82.4093416,9.63795915 L86.6740436,10.1908148 C86.8649341,10.2249051 87.0454663,10.2426914 87.2171198,10.2426914 C87.2393163,10.2426914 87.2585534,10.2382448 87.2792702,10.2382448 L87.2407961,10.3612663 L90.9890578,11.5425692 L89.7519686,12.6927462 L82.6845791,10.1419027 C82.6327871,10.0781686 82.5277233,9.92402121 82.4093416,9.63795915 L82.4093416,9.63795915 Z M89.5669972,14.2949901 C89.6247083,13.8755313 89.9191828,13.6858114 89.9251019,13.6813648 L91.6519955,12.0924605 C91.6534752,12.0894962 91.8325276,11.9338665 92.0870483,11.8063985 L92.1077651,12.9017345 C91.0660059,13.7406523 91.1325956,14.9278839 91.3264457,15.4644355 L97.8951522,23.4030282 L98.1807481,23.290382 C98.68683,23.0888046 99.0834088,23.0739827 99.3616059,23.2444342 C99.8173756,23.5230853 99.8913641,24.2374994 99.8913641,24.2419459 L99.9120809,24.4924355 C99.3127734,24.925234 98.7208648,25.1208827 98.1541122,25.0571487 L98.1541122,25.0556665 L98.1378347,25.0571487 C98.1274763,25.0556665 98.1185977,25.0586308 98.1082393,25.0571487 C97.1434281,24.9281984 96.5293229,24.1129957 96.5174847,24.0966916 L90.5806408,16.4115529 C89.6454251,15.365129 89.5122456,14.6818409 89.5669972,14.2949901 L89.5669972,14.2949901 Z M96.9081445,36.2120867 C96.3221549,35.69925 96.2170911,34.5357334 96.2244899,34.0866308 L95.5837488,26.051696 C95.4890434,25.3417285 95.5867083,24.8155522 95.7154485,24.4538986 L95.8367898,24.6095282 C95.8634257,24.6480651 96.4168603,25.3787832 97.3565153,25.7330259 L97.8951522,32.1301442 L97.9232678,32.128662 C97.7634525,32.4206528 97.662828,32.7111614 97.6154753,32.9512757 L97.6065967,32.9942591 L97.6361921,36.4803625 C97.3461569,36.4714694 97.1049541,36.3855025 96.9081445,36.2120867 L96.9081445,36.2120867 Z M98.5536506,44.2588789 L98.4589452,33.0787437 C98.5225753,32.8178789 98.9383912,31.3949795 100.579458,31.5298585 C100.666765,32.3939734 100.487712,32.7289477 100.385608,32.843076 C100.252428,32.9898125 100.082255,32.9735085 100.073376,32.9720263 L99.5450976,32.8786485 L100.230232,45.2015498 C100.24207,45.266766 100.549863,46.7637747 102.883462,46.5251426 C102.941174,46.6778078 103.016642,46.9505302 103.075833,47.4100081 L103.075833,48.0918141 C102.51204,48.2963558 100.691921,48.797335 99.4459529,47.2943976 C99.438554,47.2869866 98.6113616,46.4480689 98.5536506,44.2588789 L98.5536506,44.2588789 Z M101.712963,49.1915967 C101.744038,49.1915967 101.772154,49.1871501 101.801749,49.1871501 L101.727761,55.5546247 C101.544269,55.6480025 101.362257,55.7562021 101.193563,55.9088674 C100.856175,56.2141979 100.619412,56.6099417 100.477354,57.0916525 C100.430001,56.4261506 100.529146,55.8984921 100.532105,55.8881168 L100.540984,55.842169 L100.428521,48.9840905 C100.857655,49.1293448 101.297147,49.1915967 101.712963,49.1915967 L101.712963,49.1915967 Z M102.793196,70.1986305 L101.274951,59.1593031 L101.313425,59.119284 C101.294188,59.1014978 101.27939,59.0822294 101.261633,59.0629609 L101.178766,58.4567465 C101.137332,57.5778097 101.332662,56.9360228 101.760316,56.5462077 C102.155415,56.1875185 102.680734,56.1000695 103.03144,56.0867298 C102.918977,58.0076439 102.614144,58.5130696 102.617104,58.5130696 L102.488363,58.6627705 L103.451695,64.9457604 C103.226769,65.4600792 103.198654,66.0499896 103.392504,66.7110449 L105.117918,70.416512 C103.47981,70.7544506 102.890861,70.4002079 102.793196,70.1986305 L102.793196,70.1986305 Z M106.349088,75.5982371 C106.153758,74.9460749 106.353527,74.1427297 106.575493,73.5439262 L107.336095,75.1758139 C107.430801,75.4515006 107.768189,75.9776769 108.422248,76.1970406 C108.630896,76.2667034 108.854341,76.3022759 109.092584,76.3022759 C109.480285,76.3022759 109.907939,76.2044515 110.365188,76.0206604 L116.037153,77.811142 C116.535836,78.1016507 116.953132,78.199475 117.290519,78.199475 C117.966775,78.1979928 118.320441,77.8066955 118.341157,77.7814983 L118.900511,76.4905136 L118.928627,76.4001002 C118.965621,76.1837009 118.993737,75.9613729 118.992257,75.7553489 L120.476468,75.8487267 L120.226386,77.5058116 C120.062132,78.4099455 119.701068,79.0413571 119.153552,79.3822601 C118.350036,79.8847214 117.368947,79.6149634 117.365988,79.6134812 L107.04754,76.4356727 C106.687955,76.2429884 106.458591,75.9687838 106.349088,75.5982371 L106.349088,75.5982371 Z M118.314521,80.5354014 C118.293805,80.5368836 116.50624,80.6599051 115.627256,79.9706882 L117.121826,80.4301662 C117.149941,80.4390593 117.505086,80.539848 117.99785,80.539848 C118.462499,80.539848 119.047008,80.4509168 119.594524,80.111496 C120.016259,79.8506311 120.353647,79.4786022 120.608168,79.0057846 L124.908384,79.1495567 L124.902465,79.1747539 L124.893586,79.2503454 C124.878789,79.7142699 124.954257,80.1174247 125.088916,80.468703 L118.314521,80.5354014 L118.314521,80.5354014 Z M125.744455,79.3111151 L126.389635,76.2192734 L127.049614,76.2607746 C127.120643,76.2919005 127.363325,76.4341905 127.466909,76.9455449 C127.318932,77.3931654 127.102885,78.3447293 127.573453,79.1406636 C127.970032,79.8091299 128.733594,80.1915341 129.850821,80.2775009 L139.424944,80.7725513 L139.510771,80.738461 C139.612875,80.6969598 140.256576,80.421273 140.670912,79.9306692 L140.703467,79.9306692 C140.703467,79.9158473 140.704947,79.9039898 140.704947,79.889168 C140.869201,79.683144 140.994982,79.4430297 141.017178,79.1614142 L140.841086,79.1480746 C140.883999,79.056179 140.932831,78.9731765 140.997941,78.9079603 C141.212508,78.6856323 141.486266,78.6797035 141.538058,78.6782213 L142.639008,78.5833614 C142.732234,78.9702121 142.923124,80.0833344 142.36673,81.0334162 C141.939076,81.7596877 141.148878,82.245845 140.016853,82.4800305 L128.17276,81.6722387 C128.072136,81.6618634 125.71042,81.4084095 125.744455,79.3111151 L125.744455,79.3111151 Z M145.901905,84.0822745 L141.058612,84.4765362 C139.197059,84.3520325 138.440896,83.682084 138.134583,83.2063021 L140.073084,83.3382167 L140.127836,83.3278414 C140.821849,83.189998 141.415237,82.9691522 141.908001,82.6653039 L141.91392,82.737931 L146.763132,82.309579 L145.918182,84.292745 L145.901905,84.0822745 L145.901905,84.0822745 Z M143.765114,86.5501155 L143.840583,86.4715596 C144.274156,85.8935068 144.935614,85.9172218 145.210851,85.9557586 L144.666295,87.2348859 C144.658897,87.2511899 144.587868,87.3905155 144.516838,87.5995038 L142.002706,89.9724849 C141.511422,89.6671544 141.014219,89.3885033 140.509617,89.1454247 L143.765114,86.5501155 L143.765114,86.5501155 Z M115.696805,100.988097 L115.288388,94.7836633 C116.108182,95.2609275 117.218011,95.5529183 118.462499,95.5529183 C119.844605,95.5529183 121.060978,95.1927469 121.895569,94.6176584 L122.326182,101.154102 C121.75795,101.665457 120.436514,102.273153 119.032211,102.273153 C117.534682,102.273153 116.171812,101.533542 115.696805,100.988097 L115.696805,100.988097 Z M121.772748,92.7323168 C121.772748,93.4600705 120.356606,94.2723089 118.462499,94.2723089 C116.595027,94.2723089 115.195163,93.4823033 115.156689,92.7634427 L115.153729,92.7234237 C115.165567,91.9986343 116.57579,91.1938069 118.462499,91.1938069 C120.356606,91.1938069 121.772748,92.0060452 121.772748,92.7323168 L121.772748,92.7323168 Z M88.4690066,87.4127483 L94.5745445,89.0476003 L94.6204174,88.9364363 C94.8675393,88.6444455 100.776268,81.7878493 109.96121,84.4068734 C110.021881,84.4216953 115.375695,85.8831315 116.865825,89.830195 L115.99276,90.3474782 C115.661291,90.4749462 115.360897,90.6290937 115.094538,90.8039917 C114.036502,89.0994769 110.752888,84.9953016 104.238933,86.1395498 C103.987372,86.1825332 99.4474326,86.8776788 95.8663852,91.3153462 L86.2848636,88.5747827 L88.4690066,87.4127483 L88.4690066,87.4127483 Z M87.9703236,109.61146 L85.6396832,89.489292 L95.4416907,92.3751098 C95.4609278,92.416611 95.4816446,92.45663 95.5068007,92.4936847 L97.5932787,112.841145 L87.9703236,109.61146 L87.9703236,109.61146 Z M110.004124,107.047277 C106.365365,106.844218 103.135024,108.568001 98.9176744,112.587691 L96.8445143,92.274321 C98.9605878,88.545139 104.423905,87.5505916 104.481616,87.5402163 C110.797281,86.4330228 113.524501,90.8158492 114.083854,91.8741306 C113.949195,92.1438886 113.875206,92.4314329 113.875206,92.7323168 C113.875206,92.7441743 113.876686,92.7530674 113.876686,92.7649249 C113.878166,92.7678893 113.875206,92.7708536 113.875206,92.7753002 L114.945081,109.033407 C114.212594,108.372352 112.561169,107.189567 110.004124,107.047277 L110.004124,107.047277 Z M119.671472,112.678105 C117.777364,112.678105 116.361223,111.864384 116.361223,111.096612 L115.825546,102.943102 C116.630541,103.412955 117.753688,103.696053 119.032211,103.696053 C120.420237,103.696053 121.618852,103.362561 122.434206,102.82008 L122.981721,111.138113 C122.981721,111.864384 121.56558,112.678105 119.671472,112.678105 L119.671472,112.678105 Z M133.405233,108.419782 C130.139377,106.937595 125.914629,108.5265 124.143342,109.335774 L123.113421,93.6616479 C124.710095,93.0450582 131.337992,90.7699014 136.577863,93.2229206 C137.430212,93.6127357 139.64691,94.9837586 139.661708,96.6052709 C139.673546,97.9866691 138.643625,99.3799247 134.879086,100.903613 L134.805097,100.890273 L135.682602,110.272516 C135.077375,109.457313 134.318252,108.834794 133.405233,108.419782 L133.405233,108.419782 Z M137.988086,121.335558 L135.857215,101.966341 L147.48526,104.036956 L148.503343,124.531153 L137.988086,121.335558 L137.988086,121.335558 Z M152.697016,122.213013 L149.62649,124.44815 L148.726789,103.833896 L152.050356,102.096773 L152.697016,122.213013 L152.697016,122.213013 Z M143.571264,98.9693589 L142.137366,100.186234 L151.125499,101.663975 L147.773816,103.226199 L136.98628,101.280088 C139.612875,99.8038301 140.953548,98.2682846 140.938751,96.5934134 C140.915074,93.8350638 137.265957,92.1290667 137.115021,92.0608861 C131.690178,89.5219001 125.19546,91.5184058 123.000958,92.3321263 C122.875178,91.765931 122.487478,91.2590231 121.908887,90.8573504 C124.914303,89.6656722 135.839457,86.0165283 143.235356,92.4595944 C143.560906,92.8390342 146.372472,96.2969761 143.571264,98.9693589 L143.571264,98.9693589 Z M145.555638,93.9343703 L145.301117,93.5030539 C145.203453,93.2703506 145.099869,93.0480226 144.991845,92.8405164 L149.284663,89.0090635 L149.284663,88.8178614 C149.284663,88.7333767 149.234351,88.029338 148.099366,87.6069147 C148.128961,87.4868576 148.19999,87.3979264 148.19999,87.3979264 L148.254742,87.3371567 L148.562534,86.5100965 L150.160688,87.3845867 C150.296827,87.5001973 150.999718,88.1434664 150.79403,88.8104504 C150.759995,88.9186501 150.703764,89.0283319 150.625336,89.1350494 C149.919485,90.099953 146.678785,92.9546448 145.555638,93.9343703 L145.555638,93.9343703 Z" id="Fill-7"></path>
                <path d="M67.7339885,70.284694 C61.9525796,74.3135855 54.853568,76.6946924 47.1737416,76.6946924 C38.1332343,76.6946924 29.8948752,73.4035059 23.6693138,68 C9.75204251,69.4315858 0,72.7534491 0,76.6231131 C0,81.8016556 17.4600926,86 38.9992573,86 C60.538422,86 78,81.8016556 78,76.6231131 C78,74.1791917 74.1066103,71.9543905 67.7339885,70.284694" id="Fill-8"></path>
            </g>
        </g>
    </g>
</svg>