<svg width="280" height="200" viewBox="0 0 280 200" xmlns="http://www.w3.org/2000/svg"><title>HIW_02</title><g fill="#554740" fill-rule="evenodd"><path d="M225.786 112.11l-.015.168.025.165c.385 2.658-.743 3.785-1.033 4.027l-97.011 36.285c-1.609.571-2.524.68-3.043.664l.026-.39c-.893-.013-1.734-.203-2.578-.779l-.292-.19-69.084-41.93-.288-.042c-.544-.078-.712-1.804-.559-2.925l.015-30.367c0-.664.86-1.251 1.639-1.617l-.178.305c.364-.266.727-.41 1.245-.489.029-.004.052.001.079 0l-.266-.152 1.893-.507 68.463 40.116-.125.045c1.073.493 2.027 1.309 3.027 1.97L228.6 80.622l-2.814 31.488zm-70.153-64.342l66.534 32.092-94.693 33.65-68.19-39.956 96.349-25.786zm4.542-1.215l66.321 31.768-1.476.525-66.2-31.931 1.355-.362zm71.574 31.1l-70.811-33.918-.48-.23L53.687 72.08c-1.713.465-4.612 1.982-4.612 4.716v30.071c-.26 2.024.045 5.375 2.688 6.001l70.118 42.27c.405.511 1.239 1.145 2.894 1.145 1.076 0 2.402-.277 3.962-.83l97.208-36.36.24-.117c.129-.077 3.104-1.938 2.478-6.773l3.086-34.55z"/><path d="M62 80.01c.099.09.198.177.305.259.283.145.56.3.83.468a.48.48 0 0 1 .182.02c.232.073.456.161.683.243-.086-.047-.17-.096-.256-.142-.542-.292-1.135-.656-1.738-.858-.001.004-.004.007-.006.01M150.18 89.786c-10.534 4.196-24.344 2.546-30.784-3.677-6.44-6.223-3.11-14.699 7.424-18.895s24.344-2.546 30.784 3.677c6.44 6.222 3.11 14.699-7.424 18.895m10.081-19.954c-7.336-7.089-23.066-8.967-35.065-4.188-12 4.78-15.793 14.435-8.457 21.524 7.336 7.089 23.066 8.967 35.065 4.188 12-4.78 15.793-14.435 8.457-21.524"/><path d="M155.364 78.743l-15.706-1.66.658-1.492s.879-1.074.618-1.801c0 0-.678.03-.236-.51 0 0 1.4-1.886 1.997-2.162l1.29.26.167-.017.35-.364.441-.054 2.568.555s.698 0 .772-.64c0 0 .099-.28-.177-.552L137.123 68s-.881.108-.617.66l.454.585 2.31.503.16.332-.157.101.151.194.808.166s-1.124 1.49-1.303 2.028l-1.271 2.402-.784 1.82-2.652-.28-4.068-.287c-.868-.123-3.53-.112-3.53-.112l.09-.523-.222-.166-.214.046-.422-.227.219-1.507-.671-.497c-.704-.378-1.23.07-1.23.07L123 80.433c.288.268.742.329.742.329.97.224 1.264-.167 1.264-.167l.25-1.672.263-.225.682-.045.095-.086.154-.832c.654-.22 4.016-.221 4.016-.221.98-.023 1.58.254 1.58.254a5.907 5.907 0 0 0 1.983.493l2.12.216-4.002 9.288s-.701.955.285 1.19c0 0 1.397.36 2.27-.925l1.632-3.41 2.586-5.86 10.069 1.024 5.703.502c2.255.045 2.306-.888 2.306-.888.065-.651-1.634-.654-1.634-.654M146.593 136.47c-4.598 1.167-8.38-1.907-8.433-6.853-.051-4.947 3.648-9.92 8.246-11.087 4.599-1.168 8.382 1.907 8.433 6.853.052 4.947-3.647 9.92-8.246 11.087m-.2-19.188c-5.237 1.33-9.451 6.995-9.392 12.629.058 5.635 4.367 9.137 9.605 7.807s9.452-6.995 9.393-12.63c-.058-5.634-4.368-9.136-9.606-7.806"/><path d="M150.061 122.83l.319.356.058.013.224-.185.153.03.624.732s.218.1.442-.3c0 0 .119-.168.119-.384l-2.689-3.089s-.308-.058-.4.337l-.043.444.56.662-.056.237-.08.043-.014.147.199.225s-.819.8-1.044 1.122l-1.153 1.367-.818 1.063-.736-.567-1.175-.777c-.23-.207-1.062-.587-1.062-.587l.193-.325-.017-.139-.081-.002-.06-.208.543-.942-.051-.42c-.1-.347-.406-.132-.406-.132l-2.61 4.434c.005.216.127.32.127.32.231.287.446.077.446.077l.605-1.045.153-.107.226.07.056-.042.31-.515c.273-.047 1.319.441 1.319.441a.762.762 0 0 1 .412.395c.158.43.46.607.46.607l.591.448-4.172 5.422s-.519.515-.286.81c0 0 .32.436.997-.267l1.583-1.966 2.651-3.414 2.809 2.129 1.615 1.154c.687.357.997-.238.997-.238.226-.412-.302-.662-.302-.662l-4.36-3.358.675-.869s.611-.566.759-1.074c0 0-.22-.08.087-.364 0 0 1.03-1.015 1.303-1.107M215.041 100.04l-55.559 19.552a.726.726 0 0 0 .476 1.368l55.56-19.552a.726.726 0 0 0 .442-.922.72.72 0 0 0-.919-.445M215.041 105.04l-55.559 19.552a.726.726 0 0 0 .476 1.368l55.56-19.552a.726.726 0 0 0 .442-.922.72.72 0 0 0-.919-.445M229 83l-100 36 100-33.85zM52.002 78.057L126 119 53.523 76.068s-1.587-.637-1.521 1.989M124 153.596L127 119l-1.5 35"/></g></svg>