<!--
<svg id="box-empty" xmlns="http://www.w3.org/2000/svg" width="23" height="28" viewBox="0 0 23 28">
<path class="box-outline" fill="#fff" d="M22.993,8.759C22.969,7.957,22.549,7.23,21.87,6.76l-8.714-6.036c-0.478-0.331-1.051-0.506-1.657-0.506h0
	c-0.606,0-1.179,0.175-1.657,0.506L1.127,6.76C0.476,7.21,0.084,7.898,0.031,8.66C0.015,8.734,0.005,8.81,0.005,8.888v9.879
	c0,0.077,0.009,0.151,0.024,0.223c0.047,0.729,0.407,1.397,1.014,1.855l8.74,6.591C10.266,27.8,10.875,28,11.499,28
	s1.232-0.2,1.714-0.564l8.74-6.591c0.893-0.663,1.04-1.548,1.04-1.939C22.993,18.907,22.997,8.775,22.993,8.759z M2.344,8.518
	l8.715-6.036c0.121-0.084,0.28-0.126,0.439-0.126c0.159,0,0.319,0.042,0.44,0.126l8.714,6.036c0.242,0.167,0.247,0.449,0.013,0.626
	l-8.74,6.591c-0.117,0.089-0.272,0.133-0.427,0.133c-0.155,0-0.309-0.044-0.427-0.133l-8.74-6.591
	C2.097,8.967,2.102,8.685,2.344,8.518z M2.331,19.138c-0.15-0.113-0.201-0.268-0.156-0.409H2.144v-7.048l7.64,5.761
	c0.193,0.145,0.406,0.263,0.632,0.354v7.438L2.331,19.138z M20.665,19.138l-8.111,6.116v-7.449c0.236-0.092,0.458-0.213,0.659-0.364
	l7.66-5.777v7.064C20.873,18.729,20.879,18.98,20.665,19.138z"></path>
  <circle class="item" cx="11.5" cy="8.3" r="5.1"></circle>
</svg>
-->

<svg xmlns="http://www.w3.org/2000/svg" width="23" height="28" viewBox="0 0 23 28"><path class="box-outline"  fill="#fff" d="M22.993 8.76c-.024-.803-.444-1.53-1.123-2L13.156.724c-.478-.33-1.05-.506-1.657-.506S10.32.393 9.84.724L1.127 6.76C.477 7.21.084 7.898.03 8.66c-.015.074-.025.15-.025.228v9.88c0 .076.01.15.024.222.046.73.406 1.397 1.013 1.855l8.74 6.59c.483.365 1.092.565 1.716.565s1.23-.2 1.713-.564l8.74-6.59c.893-.664 1.04-1.55 1.04-1.94 0 0 .004-10.13 0-10.147zm-20.65-.242l8.716-6.036c.12-.084.28-.126.438-.126.16 0 .32.042.44.126l8.714 6.036c.242.167.247.45.013.626l-8.74 6.59c-.117.09-.272.134-.427.134-.155 0-.31-.044-.427-.133l-8.74-6.59c-.233-.178-.228-.46.014-.627zm-.012 10.62c-.15-.113-.2-.268-.155-.41h-.03v-7.047l7.64 5.762c.192.145.405.263.63.354v7.438l-8.084-6.096zm18.335 0l-8.11 6.116v-7.45c.235-.09.457-.212.658-.363l7.66-5.776v7.064s.006.252-.208.41z"></path></svg>