<svg xmlns="http://www.w3.org/2000/svg" width="40" height="40" viewBox="0 0 40 40">
  <path fill="#ccc" d="M24.525 19.956L39.897 4.484c1.048-1.055 1.048-2.638 0-3.693-1.05-1.054-2.62-1.054-3.67 0l-15.37 15.474L5.487.79c-1.05-1.054-2.62-1.054-3.67 0C.77 1.847.77 3.43 1.818 4.485L17.19 19.956 1.642 35.604c-1.048 1.055-1.048 2.638 0 3.693.524.527 1.223.703 1.922.703.698 0 1.397-.176 1.92-.703l15.372-15.473 15.37 15.473c.525.527 1.224.703 1.923.703.698 0 1.397-.176 1.92-.703 1.05-1.055 1.05-2.638 0-3.693L24.526 19.956z"></path>
</svg>
