<svg width="44" height="29" viewBox="0 0 44 29" version="1.1" xmlns="http://www.w3.org/2000/svg" xmlns:xlink="http://www.w3.org/1999/xlink"><title>DISCOVER</title><defs><path id="a" d="M0 27.828h42.613V.396H0v27.432z"></path><path d="M.474 2.808c.188 1.01 1.022 1.722 2.09 1.722 1.045 0 1.896-.723 2.087-1.714V1.97C4.46.987 3.615.264 2.566.264 1.53.263.665.993.475 1.96v.848z" id="c"></path><path d="M.465 2.76c.17 1.036 1.014 1.77 2.1 1.77 1.06 0 1.92-.746 2.094-1.76v-.754C4.485 1.008 3.63.263 2.564.263c-1.05 0-1.925.752-2.1 1.74v.758z" id="e"></path><path d="M.457 2.707C.607 3.77 1.46 4.53 2.565 4.53c1.078 0 1.95-.77 2.102-1.81v-.653C4.515 1.034 3.647.263 2.565.263 1.495.263.61 1.04.457 2.053v.654z" id="g"></path><path d="M.434 2.368c0 1.237.912 2.162 2.13 2.162 1.19 0 2.127-.936 2.127-2.138 0-1.192-.93-2.13-2.125-2.13-1.177 0-2.13.943-2.13 2.106z" id="i"></path></defs><g stroke="none" stroke-width="1" fill="none" fill-rule="evenodd"><g transform="translate(.714 .337)"><mask id="b" fill="#fff"><use xlink:href="#a"></use></mask><path d="M42.613 3.912v20.4c0 1.942-1.536 3.517-3.43 3.517H3.43C1.535 27.83 0 26.253 0 24.31v-20.4C0 1.97 1.535.396 3.43.396h35.754c1.893 0 3.43 1.573 3.43 3.516" fill="#FFF" mask="url(#b)"></path></g><path d="M40.068 28.148c1.813-.093 3.26-1.617 3.26-3.5v-7.56s-10.56 7.638-29.902 11.06h26.642z" fill="#F6821F"></path><g transform="translate(20 12.054)"><path d="M2.57 2.387l-.016.01c0 .004.004.008.008.008.005 0 .01-.004.01-.008-.002-.006-.005-.01-.01-.01-.004 0-.008.004-.008.01" fill="#FFEFE1"></path><path d="M2.552 2.397c0-.005.004-.01.01-.01.003 0 .007.005.007.01 0 .004-.005.008-.01.008-.004 0-.008-.004-.008-.008h-.006c0 .01.007.016.016.016.01 0 .017-.007.017-.016 0-.01-.008-.017-.018-.017-.01 0-.016.007-.016.017" fill="#FFEFE1"></path><path d="M2.544 2.397c0-.01.007-.017.017-.017.01 0 .017.007.017.017 0 .01-.007.016-.016.016-.01 0-.016-.007-.016-.016h-.006c0 .014.01.025.025.025.013 0 .024-.01.024-.025 0-.014-.01-.026-.024-.026-.015 0-.025.013-.025.027" fill="#FFEFE1"></path><path d="M2.536 2.397c0-.014.01-.026.025-.026.014 0 .025.013.025.027s-.01.025-.024.025-.024-.01-.024-.025H2.53c0 .018.014.033.032.033.018 0 .033-.015.033-.033 0-.02-.015-.034-.033-.034-.018 0-.033.015-.033.034" fill="#FFEFE1"></path><path d="M2.528 2.397c0-.02.015-.034.032-.034.018 0 .033.015.033.034 0 .018-.015.033-.033.033-.017 0-.032-.015-.032-.033H2.52c0 .023.02.04.043.04.022 0 .04-.017.04-.04 0-.024-.018-.043-.04-.043-.023 0-.042.02-.042.043" fill="#FFEFE1"></path><path d="M2.52 2.397c0-.024.018-.043.04-.043.023 0 .042.02.042.043 0 .023-.02.042-.04.042-.024 0-.043-.02-.043-.043h-.007c0 .027.022.05.05.05.026 0 .048-.023.048-.05.002-.028-.02-.05-.048-.05-.027 0-.05.022-.05.05" fill="#FFEFE0"></path><path d="M2.51 2.397c0-.028.023-.05.05-.05.028 0 .05.022.05.05 0 .027-.022.05-.05.05-.027 0-.05-.023-.05-.05h-.005c0 .032.025.058.058.058.03 0 .057-.026.057-.058 0-.033-.026-.06-.057-.06-.033 0-.058.027-.058.06" fill="#FFEFE0"></path><path d="M2.503 2.397c0-.033.026-.06.058-.06s.058.027.058.06c0 .032-.026.06-.057.06-.03 0-.057-.028-.057-.06h-.006c0 .037.03.067.065.067.037 0 .066-.03.066-.067 0-.038-.03-.068-.066-.068-.036 0-.065.03-.065.067" fill="#FFEEE0"></path><path d="M2.495 2.397c0-.038.03-.068.065-.068.037 0 .066.03.066.067 0 .037-.03.067-.066.067-.036 0-.065-.03-.065-.067h-.007c0 .04.033.075.075.075.04 0 .073-.034.073-.075 0-.042-.033-.077-.073-.077-.042 0-.075.035-.075.077" fill="#FFEEDF"></path><path d="M2.496 2.397c0-.042.033-.077.074-.077.04 0 .074.035.074.077 0 .04-.033.076-.074.076-.04 0-.074-.035-.074-.076H2.48c0 .046.037.084.082.084.046 0 .082-.037.082-.083 0-.047-.036-.085-.082-.085-.045 0-.082.038-.082.085" fill="#FFEEDF"></path><path d="M2.478 2.397c0-.047.037-.085.082-.085.046 0 .083.038.083.085 0 .046-.037.084-.083.084-.045 0-.082-.037-.082-.083h-.006c0 .05.04.092.09.092.05 0 .09-.042.09-.093 0-.052-.04-.093-.09-.093-.05 0-.09.04-.09.093" fill="#FFEEDF"></path><path d="M2.47 2.397c0-.052.04-.093.09-.093.05 0 .09.04.09.093 0 .05-.04.093-.09.093-.05 0-.09-.042-.09-.093h-.006c0 .055.044.1.098.1.054 0 .1-.045.1-.1 0-.056-.046-.1-.1-.1-.054 0-.098.044-.098.1" fill="#FFEEDE"></path><path d="M2.462 2.397c0-.056.044-.1.098-.1.055 0 .1.044.1.1 0 .055-.045.1-.1.1-.054 0-.098-.045-.098-.1h-.007c0 .06.048.11.107.11.06 0 .107-.05.107-.11s-.05-.11-.107-.11c-.06 0-.108.05-.108.11" fill="#FFEDDE"></path><path d="M2.454 2.397c0-.06.047-.11.107-.11s.107.05.107.11-.048.11-.106.11c-.06 0-.106-.05-.106-.11h-.007c0 .065.052.118.115.118.064 0 .115-.053.115-.118 0-.066-.05-.118-.115-.118-.063 0-.115.05-.115.117" fill="#FFEDDE"></path><path d="M2.445 2.397c0-.066.052-.118.115-.118.064 0 .115.05.115.117 0 .065-.05.118-.115.118-.063 0-.115-.053-.115-.118H2.44c0 .07.054.126.123.126.067 0 .122-.057.122-.126 0-.07-.055-.127-.123-.127s-.123.056-.123.127" fill="#FFEDDD"></path><path d="M2.437 2.397c0-.07.055-.127.124-.127.07 0 .124.057.124.127s-.055.126-.123.126-.123-.057-.123-.126H2.43c0 .074.06.134.132.134.073 0 .132-.06.132-.133 0-.075-.06-.135-.132-.135-.073 0-.13.06-.13.135" fill="#FFEDDD"></path><path d="M2.438 2.397c0-.075.06-.135.132-.135.073 0 .13.06.13.135 0 .074-.058.134-.13.134-.072 0-.132-.06-.132-.133h-.016c0 .08.063.143.14.143.078 0 .14-.064.14-.143 0-.08-.062-.144-.14-.144-.077 0-.14.065-.14.144" fill="#FFEDDC"></path><path d="M2.42 2.397c0-.08.064-.144.14-.144.078 0 .14.065.14.144 0 .08-.062.143-.14.143-.076 0-.14-.064-.14-.143h-.006c0 .083.067.15.148.15.082 0 .148-.067.148-.15 0-.085-.066-.152-.148-.152-.08 0-.148.067-.148.152" fill="#FFEDDC"></path><path d="M2.422 2.397c0-.084.066-.152.148-.152.082 0 .147.068.147.152 0 .083-.065.15-.147.15-.082 0-.148-.067-.148-.15h-.016c0 .088.07.16.156.16s.156-.072.156-.16c0-.09-.07-.16-.155-.16-.087 0-.157.07-.157.16" fill="#FFECDC"></path><path d="M2.404 2.397c0-.09.07-.16.157-.16.086 0 .156.07.156.16 0 .088-.07.16-.155.16-.086 0-.156-.072-.156-.16h-.006c0 .093.073.168.164.168.09 0 .164-.075.164-.168 0-.093-.073-.17-.164-.17-.09 0-.164.077-.164.17" fill="#FFECDC"></path><path d="M2.396 2.397c0-.093.074-.17.164-.17.09 0 .165.077.165.17 0 .093-.074.168-.165.168-.09 0-.164-.075-.164-.168H2.39c0 .097.077.177.172.177.095 0 .173-.08.173-.177 0-.1-.078-.178-.173-.178-.095 0-.172.078-.172.177" fill="#FFECDA"></path><path d="M2.388 2.397c0-.098.077-.178.173-.178.096 0 .173.08.173.177 0 .097-.077.177-.172.177-.095 0-.172-.08-.172-.177H2.38c0 .102.082.185.182.185.1 0 .182-.083.182-.185 0-.103-.082-.186-.182-.186-.1 0-.18.084-.18.187" fill="#FFECDA"></path><path d="M2.38 2.397c0-.103.08-.186.18-.186.1 0 .182.084.182.187 0 .102-.082.185-.182.185-.1 0-.18-.083-.18-.185h-.007c0 .107.085.194.19.194.104 0 .19-.086.19-.193 0-.107-.086-.194-.19-.194-.105 0-.19.087-.19.194" fill="#FFECDA"></path><path d="M2.37 2.397c0-.107.086-.194.19-.194.105 0 .19.087.19.194 0 .107-.085.194-.19.194-.104 0-.19-.086-.19-.193h-.005c0 .11.088.202.197.202.11 0 .198-.092.198-.203 0-.112-.09-.203-.198-.203-.108 0-.197.09-.197.203" fill="#FFECD9"></path><path d="M2.363 2.397c0-.112.09-.203.197-.203.11 0 .198.09.198.203 0 .112-.088.202-.198.202-.108 0-.197-.09-.197-.203h-.006c0 .116.092.21.205.21.114 0 .206-.094.206-.21 0-.117-.092-.21-.206-.21-.113 0-.205.093-.205.21" fill="#FFECD9"></path><path d="M2.364 2.397c0-.117.092-.21.206-.21.114 0 .206.093.206.21 0 .116-.092.21-.206.21-.114 0-.206-.094-.206-.21H2.35c-.002.12.094.22.212.22.12 0 .214-.1.214-.22s-.095-.22-.214-.22c-.118 0-.213.1-.213.22" fill="#FFECD9"></path><path d="M2.347 2.397c0-.12.095-.22.213-.22.12 0 .215.1.215.22s-.096.22-.215.22c-.118 0-.213-.1-.213-.22H2.34c0 .125.1.227.222.227.123 0 .223-.102.223-.227 0-.126-.1-.228-.223-.228-.122 0-.222.1-.222.227" fill="#FFEBD7"></path><path d="M2.348 2.397c0-.126.1-.228.222-.228s.222.1.222.227c0 .126-.1.227-.222.227-.123 0-.222-.1-.222-.227h-.016c0 .13.103.235.23.235s.23-.105.23-.235-.103-.237-.23-.237-.23.106-.23.237" fill="#FFEBD7"></path><path d="M2.33 2.397c0-.13.103-.236.23-.236s.23.106.23.237c0 .13-.103.235-.23.235s-.23-.105-.23-.235h-.006c0 .134.107.244.238.244.132 0 .24-.11.24-.243 0-.135-.108-.245-.24-.245-.13 0-.238.11-.238.245" fill="#FFEBD7"></path><path d="M2.322 2.397c0-.135.107-.245.24-.245.13 0 .237.11.237.245 0 .134-.108.244-.24.244-.13 0-.238-.11-.238-.243h-.006c0 .14.11.252.246.252s.247-.114.247-.253c0-.14-.112-.254-.248-.254s-.246.114-.246.254" fill="#FFE9D6"></path><path d="M2.314 2.397c0-.14.11-.253.246-.253.137 0 .247.113.247.253s-.11.252-.247.252c-.135 0-.246-.114-.246-.253h-.007c0 .144.115.26.255.26s.255-.116.255-.26c0-.145-.114-.262-.255-.262-.14 0-.255.117-.255.262" fill="#FFE9D6"></path><path d="M2.306 2.397c0-.145.114-.262.255-.262.14 0 .256.117.256.262 0 .144-.115.26-.255.26s-.254-.116-.254-.26H2.3c0 .148.117.27.262.27.146 0 .264-.122.264-.27 0-.15-.118-.27-.264-.27-.145 0-.263.12-.263.27" fill="#FFE9D6"></path><path d="M2.297 2.397c0-.15.118-.27.263-.27.146 0 .264.12.264.27 0 .148-.118.27-.264.27-.145 0-.263-.122-.263-.27H2.29c0 .153.122.278.272.278.15 0 .272-.125.272-.278 0-.154-.122-.28-.272-.28-.15 0-.27.126-.27.28" fill="#FFE8D5"></path>
   <path d="M2.29 2.397c0-.154.12-.28.27-.28.15 0 .272.126.272.28 0 .153-.12.278-.27.278-.15 0-.273-.125-.273-.278h-.007c0 .158.125.286.28.286.153 0 .28-.128.28-.286 0-.16-.127-.287-.28-.287-.155 0-.28.128-.28.287" fill="#FFE8D4"></path><path d="M2.29 2.397c0-.16.125-.287.28-.287.154 0 .28.128.28.287 0 .158-.126.286-.28.286-.155 0-.28-.128-.28-.286h-.015c0 .162.128.295.287.295.16 0 .288-.133.288-.295 0-.164-.13-.296-.288-.296-.16 0-.287.133-.287.297" fill="#FFE8D4"></path><path d="M2.273 2.397c0-.163.13-.296.288-.296.16 0 .288.134.288.297 0 .162-.13.295-.287.295-.158 0-.287-.133-.287-.295h-.007c0 .167.133.303.296.303.163 0 .296-.136.296-.303 0-.168-.133-.304-.296-.304-.163 0-.296.136-.296.304" fill="#FFE7D3"></path><path d="M2.274 2.397c0-.168.133-.304.295-.304.163 0 .296.136.296.304 0 .167-.133.303-.297.303-.163 0-.296-.136-.296-.303h-.016c0 .172.136.312.304.312.168 0 .305-.14.305-.313 0-.172-.137-.312-.305-.312-.168 0-.304.14-.304.312" fill="#FFE7D3"></path><path d="M2.256 2.397c0-.172.137-.312.305-.312.168 0 .305.14.305.312s-.137.312-.304.312c-.167 0-.304-.14-.304-.313H2.25c0 .176.14.32.312.32.173 0 .313-.144.313-.32 0-.178-.14-.32-.313-.32-.172 0-.312.142-.312.32" fill="#FFE7D2"></path><path d="M2.248 2.397c0-.178.14-.32.312-.32.173 0 .313.142.313.32 0 .176-.14.32-.313.32-.172 0-.312-.144-.312-.32h-.006c0 .18.143.328.32.328.177 0 .32-.147.32-.328 0-.182-.143-.33-.32-.33-.177 0-.32.148-.32.33" fill="#FFE7D2"></path><path d="M2.24 2.397c0-.182.143-.33.32-.33.178 0 .32.148.32.33 0 .18-.142.328-.32.328-.177 0-.32-.147-.32-.328h-.007c0 .186.147.336.33.336.18 0 .328-.15.328-.336 0-.186-.146-.338-.328-.338-.18 0-.33.15-.33.337" fill="#FFE7D1"></path><path d="M2.232 2.397c0-.186.147-.338.33-.338.18 0 .327.15.327.337 0 .186-.148.336-.33.336-.18 0-.328-.15-.328-.336h-.007c0 .19.15.345.337.345.187 0 .337-.155.337-.345 0-.192-.15-.346-.338-.346-.186 0-.337.155-.337.347" fill="#FFE6D0"></path><path d="M2.223 2.397c0-.192.15-.346.338-.346.187 0 .338.155.338.347 0 .19-.15.345-.337.345-.186 0-.337-.154-.337-.345h-.006c0 .195.155.353.346.353.19 0 .345-.158.345-.353 0-.196-.155-.355-.345-.355-.19 0-.346.16-.346.355" fill="#FEE6D0"></path><path d="M2.215 2.397c0-.196.155-.355.346-.355.19 0 .346.16.346.355 0 .195-.155.354-.345.354-.19 0-.345-.158-.345-.353H2.21c0 .2.157.362.352.362.195 0 .354-.163.354-.363 0-.2-.16-.363-.354-.363-.195 0-.353.163-.353.363" fill="#FFE6CF"></path><path d="M2.216 2.397c0-.2.16-.363.354-.363.195 0 .353.163.353.363 0 .2-.158.362-.353.362-.195 0-.354-.163-.354-.363H2.2c0 .204.163.37.363.37.2 0 .36-.166.36-.37 0-.205-.16-.372-.36-.372-.2 0-.363.167-.363.372" fill="#FEE5CE"></path><path d="M2.2 2.397c0-.205.16-.372.36-.372.2 0 .362.167.362.372s-.162.37-.36.37c-.2 0-.363-.165-.363-.37H2.19c0 .21.166.38.37.38.205 0 .37-.17.37-.38s-.165-.38-.37-.38c-.204 0-.37.17-.37.38" fill="#FEE5CE"></path><path d="M2.2 2.397c0-.21.165-.38.37-.38.204 0 .37.17.37.38s-.166.38-.37.38c-.205 0-.37-.17-.37-.38h-.016c0 .213.17.387.38.387.207 0 .376-.174.376-.387 0-.215-.17-.39-.377-.39-.21 0-.38.175-.38.39" fill="#FEE5CD"></path><path d="M2.182 2.397c0-.214.17-.39.38-.39.207 0 .377.176.377.39 0 .213-.17.388-.38.388-.208 0-.378-.175-.378-.388h-.006c0 .218.173.396.386.396.214 0 .387-.178.387-.396 0-.22-.174-.397-.388-.397-.213 0-.386.178-.386.397" fill="#FEE4CC"></path><path d="M2.174 2.397c0-.22.173-.397.386-.397.214 0 .387.178.387.397 0 .22-.173.396-.387.396-.213 0-.386-.177-.386-.396h-.006c0 .223.177.404.395.404.217 0 .394-.18.394-.403 0-.224-.177-.405-.394-.405-.218 0-.395.18-.395.405" fill="#FEE4CC"></path><path d="M2.166 2.397c0-.224.177-.405.395-.405.22 0 .395.18.395.405 0 .223-.176.405-.394.405-.217 0-.394-.182-.394-.405H2.16c0 .227.18.413.402.413.223 0 .403-.186.403-.413 0-.23-.18-.413-.403-.413-.222 0-.403.184-.403.413" fill="#FEE3CB"></path><path d="M2.158 2.397c0-.228.18-.413.402-.413.223 0 .403.185.403.413 0 .227-.18.413-.403.413-.222 0-.402-.186-.402-.413H2.15c0 .232.185.42.413.42.226 0 .41-.188.41-.42 0-.233-.184-.422-.41-.422-.228 0-.412.19-.412.422" fill="#FEE3CB"></path><path d="M2.15 2.397c0-.233.184-.422.41-.422.227 0 .41.19.41.422 0 .232-.183.42-.41.42-.226 0-.41-.188-.41-.42h-.007c0 .237.188.43.42.43.23 0 .418-.193.418-.43 0-.238-.186-.43-.418-.43-.23 0-.42.192-.42.43" fill="#FEE3CB"></path><path d="M2.14 2.397c0-.238.19-.43.42-.43.232 0 .42.192.42.43 0 .237-.188.43-.42.43-.23 0-.42-.193-.42-.43h-.005c0 .24.19.438.428.438.235 0 .427-.197.427-.438 0-.243-.192-.44-.428-.44s-.427.197-.427.44" fill="#FEE2CA"></path><path d="M2.142 2.397c0-.242.192-.44.428-.44s.427.198.427.44c0 .24-.19.438-.427.438-.236 0-.428-.197-.428-.438h-.016c0 .246.195.446.436.446.24 0 .436-.2.436-.446 0-.247-.195-.447-.436-.447-.24 0-.436.2-.436.447" fill="#FEE2C9"></path><path d="M2.125 2.397c0-.247.195-.447.435-.447s.436.2.436.447c0 .246-.195.446-.436.446-.24 0-.435-.2-.435-.446h-.007c0 .25.2.454.445.454.244 0 .443-.202.443-.453 0-.252-.198-.456-.443-.456-.246 0-.445.205-.445.457" fill="#FEE2C8"></path><path d="M2.126 2.397c0-.252.2-.456.444-.456.245 0 .444.205.444.457 0 .25-.2.455-.444.455-.245 0-.444-.204-.444-.455H2.11c0 .255.203.463.452.463.25 0 .452-.208.452-.463 0-.257-.202-.464-.452-.464s-.452.207-.452.464" fill="#FEE1C8"></path><path d="M2.108 2.397c0-.257.203-.464.452-.464.25 0 .453.207.453.464 0 .256-.203.463-.453.463s-.452-.207-.452-.463h-.006c0 .26.206.472.46.472.255 0 .46-.213.46-.473s-.205-.473-.46-.473c-.254 0-.46.212-.46.473" fill="#FEE1C7"></path><path d="M2.1 2.397c0-.26.206-.473.46-.473.255 0 .46.212.46.473 0 .26-.205.472-.46.472-.254 0-.46-.213-.46-.473h-.006c0 .265.21.48.468.48.26 0 .47-.215.47-.48s-.21-.48-.47-.48c-.258 0-.468.214-.468.48" fill="#FEE1C7"></path><path d="M2.092 2.397c0-.265.21-.48.468-.48.26 0 .47.214.47.48 0 .265-.21.48-.47.48-.258 0-.468-.215-.468-.48h-.007c0 .27.214.49.478.49.262 0 .476-.22.476-.49s-.215-.49-.478-.49-.477.22-.477.49" fill="#FEE1C6"></path><path d="M2.083 2.397c0-.27.214-.49.478-.49s.477.22.477.49-.213.49-.476.49-.477-.22-.477-.49h-.006c0 .274.217.497.485.497s.485-.223.485-.497c0-.275-.217-.498-.485-.498s-.485.222-.485.497" fill="#FEE0C5"></path><path d="M2.075 2.397c0-.275.217-.498.485-.498s.485.222.485.497c0 .274-.217.497-.485.497s-.485-.223-.485-.497H2.07c0 .28.22.506.492.506.273 0 .493-.227.493-.506 0-.28-.22-.506-.493-.506-.272 0-.493.227-.493.507" fill="#FEE0C4"></path><path d="M2.067 2.397c0-.28.22-.506.494-.506.273 0 .494.228.494.507 0 .28-.22.506-.493.506-.272 0-.493-.227-.493-.506H2.06c0 .283.226.514.502.514.277 0 .502-.23.502-.513 0-.285-.225-.514-.502-.514-.276 0-.5.23-.5.514" fill="#FEDFC4"></path><path d="M2.068 2.387c0-.284.225-.514.502-.514s.502.23.502.514c0 .284-.225.514-.502.514s-.502-.23-.502-.513l-.016.01c0 .288.23.522.51.522.282 0 .51-.235.51-.523 0-.29-.228-.523-.51-.523-.28 0-.51.234-.51.523" fill="#FEDFC3"></path><path d="M2.05 2.397c0-.29.23-.523.51-.523.282 0 .51.234.51.523 0 .288-.228.522-.51.522-.28 0-.51-.235-.51-.523h-.006c0 .293.232.53.518.53.287 0 .52-.237.52-.53 0-.294-.233-.53-.52-.53-.286 0-.518.236-.518.53" fill="#FEDFC3"></path><path d="M2.042 2.397c0-.293.233-.53.518-.53.287 0 .52.237.52.53 0 .293-.233.53-.52.53-.285 0-.518-.237-.518-.53h-.006c0 .298.236.54.526.54.29 0 .527-.242.527-.54 0-.298-.237-.54-.528-.54-.29 0-.526.242-.526.54" fill="#FEDEC2"></path><path d="M2.034 2.397c0-.298.236-.54.527-.54.29 0 .527.242.527.54 0 .298-.236.54-.526.54-.29 0-.526-.242-.526-.54h-.006c0 .302.24.547.534.547.295 0 .535-.245.535-.547 0-.303-.24-.55-.535-.55-.295 0-.534.247-.534.55" fill="#FEDEC1"></path><path d="M2.026 2.397c0-.303.24-.548.534-.548.295 0 .535.244.535.547 0 .302-.24.547-.535.547-.295 0-.534-.245-.534-.547H2.02c0 .306.242.556.542.556.3 0 .543-.25.543-.556 0-.308-.243-.557-.543-.557-.3 0-.542.25-.542.557" fill="#FEDDC0"></path><path d="M2.018 2.397c0-.307.243-.557.543-.557.3 0 .543.25.543.557 0 .306-.243.556-.542.556-.3 0-.542-.25-.542-.556H2.01c0 .312.25.564.552.564.304 0 .552-.25.552-.563 0-.312-.248-.566-.552-.566-.303 0-.55.255-.55.567" fill="#FEDDC0"></path><path d="M2.01 2.397c0-.312.247-.565.55-.565.304 0 .552.253.552.565 0 .312-.248.564-.552.564-.303 0-.55-.25-.55-.563h-.007c0 .316.25.573.56.573.308 0 .56-.257.56-.573 0-.317-.252-.574-.56-.574-.31 0-.56.257-.56.574" fill="#FEDDBF"></path><path d="M2 2.397c0-.317.252-.574.56-.574.31 0 .56.257.56.574 0 .316-.25.573-.56.573-.308 0-.56-.257-.56-.573h-.005c0 .32.254.58.567.58.314 0 .568-.26.568-.58 0-.322-.254-.583-.568-.583-.313 0-.567.26-.567.583" fill="#FEDDBF"></path><path d="M1.993 2.397c0-.32.254-.582.567-.582.314 0 .568.26.568.582 0 .32-.254.58-.568.58-.313 0-.567-.26-.567-.58h-.006c0 .325.257.59.575.59.318 0 .576-.265.576-.59 0-.326-.258-.59-.576-.59-.317 0-.575.264-.575.59" fill="#FEDCBE"></path><path d="M1.994 2.397c0-.326.258-.59.576-.59.318 0 .576.264.576.59 0 .325-.258.59-.576.59-.318 0-.576-.265-.576-.59h-.016c0 .33.262.598.584.598.323 0 .584-.268.584-.598 0-.33-.26-.6-.584-.6-.322 0-.584.27-.584.6" fill="#FEDCBD"></path><path d="M1.977 2.397c0-.33.26-.6.583-.6.323 0 .584.27.584.6 0 .33-.26.598-.584.598-.322 0-.583-.268-.583-.598H1.97c0 .334.265.607.592.607.327 0 .593-.273.593-.607 0-.336-.266-.607-.593-.607-.327 0-.592.27-.592.607" fill="#FEDCBD"></path><path d="M1.968 2.397c0-.336.265-.607.593-.607.327 0 .593.27.593.607 0 .335-.266.607-.592.607-.327 0-.592-.272-.592-.607h-.006c0 .34.27.615.6.615.33 0 .6-.276.6-.615 0-.34-.27-.616-.6-.616-.33 0-.6.277-.6.617" fill="#FEDBBC"></path><path d="M1.96 2.397c0-.34.27-.616.6-.616.332 0 .6.277.6.617 0 .34-.268.615-.6.615-.33 0-.6-.276-.6-.615h-.006c0 .344.273.624.608.624.336 0 .61-.28.61-.623 0-.345-.274-.624-.61-.624-.335 0-.608.28-.608.624" fill="#FEDBBB"></path><path d="M1.952 2.397c0-.345.273-.624.61-.624.334 0 .607.28.607.624s-.274.624-.61.624c-.335 0-.608-.28-.608-.623h-.006c0 .348.276.632.616.632.34 0 .617-.285.617-.633 0-.35-.277-.633-.618-.633-.34 0-.616.283-.616.633" fill="#FEDABA"></path>
   <path d="M1.944 2.397c0-.35.276-.632.616-.632.34 0 .617.282.617.632 0 .35-.276.632-.617.632-.34 0-.616-.284-.616-.633h-.007c0 .353.28.64.625.64s.625-.287.625-.64c0-.354-.28-.64-.625-.64s-.625.286-.625.64" fill="#FEDABA"></path><path d="M1.935 2.397c0-.354.28-.64.626-.64.345 0 .626.286.626.64 0 .353-.28.64-.625.64s-.625-.287-.625-.64H1.93c0 .358.283.648.632.648.35 0 .634-.29.634-.648 0-.36-.284-.65-.634-.65-.35 0-.633.29-.633.65" fill="#FED9B9"></path><path d="M1.937 2.397c0-.36.283-.65.632-.65.35 0 .633.29.633.65 0 .358-.284.648-.634.648-.35 0-.633-.29-.633-.648H1.92c0 .362.288.657.642.657.355 0 .642-.295.642-.657 0-.364-.287-.658-.642-.658-.354 0-.64.293-.64.657" fill="#FED9B8"></path><path d="M1.92 2.397c0-.364.286-.658.64-.658.355 0 .642.293.642.657 0 .363-.287.657-.64.657-.356 0-.643-.294-.643-.657h-.007c0 .367.29.665.65.665.358 0 .65-.298.65-.665 0-.368-.292-.667-.65-.667-.36 0-.65.3-.65.667" fill="#FED8B7"></path><path d="M1.92 2.397c0-.368.29-.667.65-.667.36 0 .65.3.65.667 0 .367-.29.665-.65.665-.36 0-.65-.298-.65-.665h-.016c0 .372.295.674.658.674.363 0 .658-.3.658-.673 0-.373-.295-.675-.658-.675-.363 0-.658.302-.658.675" fill="#FED8B7"></path><path d="M1.903 2.397c0-.372.295-.675.658-.675.363 0 .658.303.658.675 0 .372-.295.674-.657.674-.362 0-.657-.3-.657-.673h-.007c0 .377.3.682.666.682.368 0 .666-.306.666-.683 0-.378-.298-.684-.666-.684-.367 0-.666.306-.666.684" fill="#FED8B6"></path><path d="M1.894 2.397c0-.378.3-.684.667-.684.368 0 .667.306.667.684 0 .377-.3.683-.666.683-.367 0-.666-.306-.666-.683h-.006c0 .38.302.69.674.69.372 0 .675-.31.675-.69 0-.382-.303-.692-.675-.692-.372 0-.674.31-.674.692" fill="#FED8B6"></path><path d="M1.886 2.397c0-.382.302-.692.675-.692.373 0 .675.31.675.692 0 .38-.302.69-.674.69-.372 0-.674-.31-.674-.69H1.88c0 .386.306.7.683.7.376 0 .682-.314.682-.7 0-.387-.306-.7-.682-.7-.377 0-.683.313-.683.7" fill="#FED7B5"></path><path d="M1.878 2.397c0-.386.306-.7.683-.7.377 0 .683.314.683.7 0 .386-.306.7-.682.7-.376 0-.682-.314-.682-.7h-.006c0 .39.31.708.69.708.382 0 .69-.317.69-.708 0-.39-.308-.71-.69-.71-.38 0-.69.32-.69.71" fill="#FED7B4"></path><path d="M1.87 2.397c0-.39.31-.71.69-.71.382 0 .69.32.69.71 0 .39-.308.708-.69.708-.38 0-.69-.317-.69-.708h-.007c0 .395.313.716.7.716.385 0 .698-.32.698-.716 0-.396-.312-.717-.697-.717-.387 0-.7.32-.7.717" fill="#FED6B3"></path><path d="M1.86 2.397c0-.396.314-.717.7-.717.386 0 .7.32.7.717 0 .395-.313.717-.7.717-.386 0-.7-.322-.7-.717h-.005c0 .4.317.725.707.725.39 0 .707-.326.707-.725 0-.4-.317-.725-.708-.725-.39 0-.707.324-.707.725" fill="#FED6B2"></path><path d="M1.863 2.397c0-.4.317-.725.707-.725.39 0 .707.324.707.725 0 .4-.317.725-.707.725-.39 0-.707-.325-.707-.725h-.016c0 .405.32.733.716.733.394 0 .715-.328.715-.733 0-.405-.32-.734-.715-.734-.395 0-.716.33-.716.734" fill="#FED5B2"></path><path d="M1.845 2.397c0-.405.32-.734.716-.734.395 0 .716.33.716.734 0 .405-.32.733-.715.733-.394 0-.715-.328-.715-.733H1.84c0 .41.323.74.722.74.4 0 .724-.33.724-.74s-.325-.742-.724-.742c-.4 0-.723.332-.723.742" fill="#FED5B1"></path><path d="M1.846 2.397c0-.41.324-.742.724-.742.4 0 .723.332.723.742s-.324.74-.723.74c-.4 0-.724-.33-.724-.74H1.83c0 .413.328.75.733.75.403 0 .73-.337.73-.75 0-.415-.327-.75-.73-.75-.405 0-.733.335-.733.75" fill="#FED4B0"></path><path d="M1.83 2.397c0-.415.326-.75.73-.75.404 0 .732.335.732.75 0 .414-.328.75-.73.75-.405 0-.733-.336-.733-.75H1.82c0 .418.332.758.74.758.41 0 .74-.34.74-.758 0-.42-.33-.76-.74-.76-.408 0-.74.34-.74.76" fill="#FED4B0"></path><path d="M1.82 2.397c0-.42.332-.76.74-.76.41 0 .74.34.74.76 0 .418-.33.758-.74.758-.408 0-.74-.34-.74-.758h-.006c0 .423.335.766.75.766.41 0 .746-.343.746-.766 0-.424-.335-.768-.747-.768-.414 0-.75.343-.75.767" fill="#FED4AF"></path><path d="M1.812 2.397c0-.424.335-.768.75-.768.412 0 .747.343.747.767 0 .423-.336.767-.75.767-.413 0-.748-.344-.748-.767h-.006c0 .427.338.775.756.775s.757-.348.757-.775c0-.43-.34-.776-.758-.776s-.756.348-.756.777" fill="#FED3AE"></path><path d="M1.804 2.397c0-.43.34-.776.756-.776.418 0 .757.348.757.777 0 .428-.34.775-.757.775s-.756-.347-.756-.775h-.006c0 .432.342.783.764.783.423 0 .765-.35.765-.783 0-.433-.342-.785-.764-.785-.423 0-.766.352-.766.785" fill="#FED3AE"></path><path d="M1.796 2.397c0-.433.343-.785.765-.785.423 0 .765.352.765.785 0 .432-.342.784-.764.784-.42 0-.764-.35-.764-.783H1.79c0 .437.346.792.772.792.427 0 .773-.356.773-.793 0-.438-.346-.793-.773-.793-.426 0-.773.355-.773.793" fill="#FED3AD"></path><path d="M1.788 2.397c0-.438.346-.793.772-.793.427 0 .773.355.773.793 0 .437-.346.792-.773.792-.426 0-.772-.356-.772-.793H1.78c0 .442.35.8.782.8.43 0 .78-.358.78-.8 0-.443-.35-.802-.78-.802-.43 0-.78.36-.78.802" fill="#FDD2AC"></path><path d="M1.79 2.397c0-.443.35-.802.78-.802.43 0 .78.36.78.802 0 .442-.35.8-.78.8-.43 0-.78-.358-.78-.8h-.017c0 .446.353.81.79.81.435 0 .788-.364.788-.81 0-.447-.352-.81-.788-.81-.436 0-.79.363-.79.81" fill="#FDD2AB"></path><path d="M1.77 2.397c0-.447.355-.81.79-.81.436 0 .79.363.79.81 0 .446-.354.81-.79.81-.435 0-.79-.364-.79-.81h-.005c0 .45.357.818.798.818.44 0 .797-.367.797-.818 0-.452-.357-.818-.797-.818-.44 0-.798.365-.798.817" fill="#FDD1AA"></path><path d="M1.772 2.397c0-.452.357-.818.798-.818.44 0 .797.365.797.817 0 .45-.357.818-.797.818-.44 0-.798-.367-.798-.818h-.016c0 .456.36.826.806.826.445 0 .806-.37.806-.826 0-.457-.36-.826-.806-.826-.445 0-.806.37-.806.827" fill="#FDD1A9"></path><path d="M1.755 2.397c0-.457.36-.826.805-.826.445 0 .806.37.806.827 0 .456-.36.826-.806.826-.445 0-.805-.37-.805-.826h-.007c0 .46.365.834.815.834.45 0 .813-.373.813-.833 0-.46-.364-.835-.813-.835-.45 0-.815.374-.815.835" fill="#FDD0A8"></path><path d="M1.746 2.397c0-.46.365-.835.815-.835.45 0 .814.374.814.835 0 .46-.364.834-.813.834-.45 0-.814-.373-.814-.833H1.74c0 .465.368.843.822.843.454 0 .823-.378.823-.843 0-.466-.37-.843-.823-.843-.454 0-.822.377-.822.843" fill="#FDD0A8"></path><path d="M1.738 2.397c0-.465.37-.843.822-.843.455 0 .823.378.823.843 0 .465-.368.843-.823.843-.453 0-.822-.378-.822-.843h-.006c0 .47.372.85.83.85.46 0 .83-.38.83-.85s-.37-.852-.83-.852c-.458 0-.83.38-.83.852" fill="#FDCFA7"></path><path d="M1.73 2.397c0-.47.372-.852.83-.852.46 0 .83.38.83.852 0 .47-.37.85-.83.85-.458 0-.83-.38-.83-.85h-.006c0 .474.375.86.838.86.463 0 .84-.386.84-.86 0-.475-.377-.86-.84-.86-.463 0-.838.385-.838.86" fill="#FDCFA7"></path><path d="M1.722 2.397c0-.475.375-.86.838-.86.463 0 .84.385.84.86 0 .474-.377.86-.84.86-.463 0-.838-.386-.838-.86h-.007c0 .48.38.868.847.868.468 0 .848-.39.848-.868 0-.48-.38-.87-.848-.87-.467 0-.847.39-.847.87" fill="#FDCFA6"></path><path d="M1.714 2.397c0-.48.38-.87.847-.87.468 0 .848.39.848.87s-.38.868-.847.868c-.467 0-.847-.39-.847-.868h-.006c0 .484.383.876.855.876s.856-.392.856-.876-.384-.878-.856-.878-.855.393-.855.877" fill="#FDCFA5"></path><path d="M1.715 2.397c0-.484.382-.877.855-.877.472 0 .855.393.855.877s-.383.876-.855.876c-.473 0-.855-.392-.855-.876H1.7c0 .488.386.885.862.885.477 0 .864-.397.864-.885 0-.49-.387-.886-.864-.886-.476 0-.863.398-.863.887" fill="#FDCEA4"></path><path d="M1.697 2.397c0-.49.387-.886.864-.886s.864.398.864.887c0 .488-.387.885-.863.885s-.863-.397-.863-.885H1.69c0 .492.39.893.872.893s.872-.4.872-.893c0-.494-.39-.895-.872-.895-.48 0-.87.4-.87.895" fill="#FDCEA3"></path><path d="M1.698 2.397c0-.494.39-.894.872-.894.48 0 .872.4.872.894 0 .493-.39.893-.873.893-.48 0-.872-.4-.872-.893h-.016c0 .498.395.902.88.902.486 0 .88-.405.88-.903s-.394-.903-.88-.903c-.485 0-.88.405-.88.903" fill="#FDCDA2"></path><path d="M1.68 2.397c0-.498.395-.903.88-.903.486 0 .88.405.88.903s-.394.902-.88.902c-.485 0-.88-.405-.88-.903h-.006c0 .502.398.91.888.91s.89-.408.89-.91c0-.504-.4-.91-.89-.91s-.888.406-.888.91" fill="#FDCCA1"></path><path d="M1.672 2.397c0-.503.398-.91.888-.91s.89.407.89.91c0 .502-.4.91-.89.91s-.888-.408-.888-.91h-.006c0 .506.4.92.896.92.495 0 .897-.414.897-.92 0-.508-.403-.92-.898-.92s-.896.412-.896.92" fill="#FDCCA1"></path><path d="M1.664 2.397c0-.508.402-.92.897-.92.496 0 .897.412.897.92 0 .507-.4.92-.896.92-.494 0-.896-.413-.896-.92h-.006c0 .51.405.927.904.927.5 0 .905-.416.905-.927 0-.512-.406-.928-.905-.928-.5 0-.904.415-.904.927" fill="#FDCBA0"></path><path d="M1.656 2.397c0-.512.405-.928.904-.928.5 0 .905.415.905.927 0 .51-.405.927-.905.927s-.904-.416-.904-.927H1.65c0 .516.408.936.912.936s.913-.42.913-.936c0-.517-.41-.936-.913-.936-.504 0-.912.42-.912.937" fill="#FDCBA0"></path><path d="M1.648 2.397c0-.517.408-.936.913-.936.504 0 .913.42.913.937 0 .516-.41.936-.912.936-.504 0-.912-.42-.912-.936H1.64c0 .52.414.944.922.944.51 0 .92-.422.92-.943 0-.522-.41-.945-.92-.945-.508 0-.92.423-.92.945" fill="#FDCB9F"></path><path d="M1.64 2.397c0-.522.412-.944.92-.944.51 0 .922.422.922.944 0 .52-.413.944-.922.944-.508 0-.92-.422-.92-.943h-.007c0 .525.417.952.93.952.512 0 .93-.428.93-.953 0-.526-.418-.953-.93-.953-.514 0-.93.427-.93.953" fill="#FDCA9E"></path><path d="M1.64 2.397c0-.526.417-.953.93-.953.513 0 .93.427.93.953 0 .525-.417.952-.93.952-.513 0-.93-.428-.93-.953h-.015c0 .53.42.96.937.96.518 0 .938-.43.938-.96s-.42-.962-.938-.962c-.517 0-.937.43-.937.962" fill="#FDCA9D"></path><path d="M1.623 2.397c0-.53.42-.96.937-.96.518 0 .938.43.938.96s-.42.96-.938.96c-.517 0-.937-.43-.937-.96h-.006c0 .535.423.97.945.97s.946-.435.946-.97c0-.536-.424-.97-.946-.97s-.945.434-.945.97" fill="#FDCA9C"></path><path d="M1.624 2.397c0-.536.424-.97.946-.97s.946.434.946.97c0 .535-.424.97-.946.97s-.946-.435-.946-.97h-.016c0 .54.427.977.954.977.527 0 .954-.438.954-.977 0-.54-.427-.98-.954-.98-.526 0-.954.44-.954.98" fill="#FDC99B"></path><path d="M1.607 2.397c0-.54.427-.978.953-.978.527 0 .954.437.954.977s-.427.977-.954.977c-.526 0-.953-.438-.953-.977H1.6c0 .544.43.986.962.986.53 0 .962-.442.962-.986 0-.545-.43-.987-.962-.987-.53 0-.962.442-.962.987" fill="#FDC99B"></path>
   <path d="M1.598 2.397c0-.545.43-.987.963-.987.53 0 .963.442.963.987 0 .544-.432.986-.962.986S1.6 2.94 1.6 2.397h-.006c0 .55.435.994.97.994.536 0 .97-.444.97-.993 0-.55-.434-.996-.97-.996-.535 0-.97.447-.97.997" fill="#FDC89A"></path><path d="M1.59 2.397c0-.55.435-.995.97-.995.536 0 .97.445.97.995s-.434.994-.97.994c-.535 0-.97-.444-.97-.993h-.006c0 .553.438 1.003.978 1.003s.98-.45.98-1.003c0-.554-.44-1.004-.98-1.004s-.978.45-.978 1.004" fill="#FDC799"></path><path d="M1.582 2.397c0-.554.44-1.004.98-1.004.538 0 .977.45.977 1.004 0 .553-.44 1.003-.98 1.003s-.978-.45-.978-1.003h-.007c0 .558.443 1.01.987 1.01.545 0 .987-.452.987-1.01 0-.56-.443-1.012-.988-1.012-.544 0-.986.453-.986 1.012" fill="#FDC799"></path><path d="M1.574 2.397c0-.56.442-1.012.987-1.012.545 0 .987.453.987 1.012 0 .558-.442 1.012-.986 1.012s-.986-.455-.986-1.013h-.007c0 .563.446 1.02.995 1.02.55 0 .995-.457.995-1.02 0-.564-.445-1.02-.995-1.02s-.995.456-.995 1.02" fill="#FDC698"></path><path d="M1.565 2.397c0-.564.446-1.02.996-1.02s.995.456.995 1.02c0 .563-.445 1.02-.994 1.02-.55 0-.995-.457-.995-1.02H1.56c0 .567.448 1.028 1.003 1.028.553 0 1.002-.46 1.002-1.028 0-.57-.45-1.03-1.002-1.03-.555 0-1.004.46-1.004 1.03" fill="#FDC697"></path><path d="M1.567 2.397c0-.568.45-1.03 1.003-1.03.554 0 1.003.462 1.003 1.03 0 .567-.45 1.03-1.003 1.03-.554 0-1.003-.463-1.003-1.03H1.55c0 .572.454 1.037 1.012 1.037.56 0 1.012-.465 1.012-1.037 0-.573-.453-1.037-1.012-1.037-.558 0-1.01.464-1.01 1.037" fill="#FCC696"></path><path d="M1.55 2.397c0-.573.452-1.037 1.01-1.037.56 0 1.012.464 1.012 1.037 0 .572-.453 1.037-1.012 1.037-.558 0-1.01-.465-1.01-1.037h-.007c0 .577.457 1.045 1.02 1.045.562 0 1.02-.468 1.02-1.045S3.124 1.35 2.562 1.35c-.563 0-1.02.47-1.02 1.047" fill="#FCC696"></path><path d="M1.54 2.397C1.54 1.82 2 1.35 2.56 1.35c.564 0 1.02.47 1.02 1.047s-.456 1.045-1.02 1.045c-.562 0-1.02-.468-1.02-1.045h-.006c0 .58.46 1.053 1.028 1.053.567 0 1.028-.472 1.028-1.053 0-.583-.46-1.054-1.028-1.054-.567 0-1.028.47-1.028 1.054" fill="#FCC595"></path><path d="M1.533 2.397c0-.582.46-1.054 1.027-1.054.568 0 1.028.472 1.028 1.054 0 .58-.46 1.053-1.028 1.053-.567 0-1.027-.472-1.027-1.053h-.007c0 .586.464 1.06 1.037 1.06.57 0 1.035-.474 1.035-1.06 0-.587-.464-1.063-1.035-1.063-.573 0-1.037.476-1.037 1.063" fill="#FCC594"></path><path d="M1.524 2.397c0-.587.465-1.063 1.037-1.063.572 0 1.036.476 1.036 1.063 0 .586-.464 1.062-1.035 1.062-.57 0-1.036-.477-1.036-1.063h-.006c0 .59.468 1.07 1.044 1.07.577 0 1.045-.48 1.045-1.07 0-.59-.468-1.07-1.045-1.07-.576 0-1.044.48-1.044 1.07" fill="#FCC493"></path><path d="M1.516 2.397c0-.59.468-1.07 1.044-1.07.577 0 1.045.48 1.045 1.07 0 .59-.468 1.07-1.045 1.07-.576 0-1.044-.48-1.044-1.07H1.51c0 .595.47 1.078 1.053 1.078.58 0 1.052-.483 1.052-1.078 0-.597-.472-1.08-1.052-1.08-.582 0-1.053.483-1.053 1.08" fill="#FCC392"></path><path d="M1.508 2.397c0-.596.47-1.08 1.053-1.08.582 0 1.053.484 1.053 1.08 0 .595-.47 1.08-1.052 1.08-.58 0-1.052-.485-1.052-1.08h-.006c0 .6.474 1.087 1.06 1.087.586 0 1.06-.487 1.06-1.087S3.15 1.31 2.563 1.31c-.585 0-1.06.486-1.06 1.087" fill="#FCC391"></path><path d="M1.5 2.397c0-.6.475-1.088 1.06-1.088.586 0 1.06.486 1.06 1.087 0 .6-.474 1.087-1.06 1.087-.585 0-1.06-.487-1.06-1.087h-.007c0 .605.48 1.095 1.07 1.095.59 0 1.068-.49 1.068-1.095S3.154 1.3 2.564 1.3s-1.07.492-1.07 1.097" fill="#FCC290"></path><path d="M1.49 2.397c0-.605.48-1.097 1.07-1.097.59 0 1.07.492 1.07 1.097s-.48 1.096-1.07 1.096c-.59 0-1.07-.49-1.07-1.096h-.005c0 .61.483 1.104 1.077 1.104.595 0 1.077-.494 1.077-1.103 0-.61-.483-1.105-1.078-1.105-.594 0-1.077.495-1.077 1.105" fill="#FCC290"></path><path d="M1.492 2.397c0-.61.483-1.105 1.078-1.105.595 0 1.077.495 1.077 1.105S3.165 3.5 2.57 3.5s-1.077-.494-1.077-1.103h-.016c0 .614.486 1.112 1.085 1.112.6 0 1.086-.5 1.086-1.113 0-.615-.487-1.114-1.086-1.114-.6 0-1.085.5-1.085 1.114" fill="#FCC18F"></path><path d="M1.475 2.397c0-.615.486-1.114 1.086-1.114.6 0 1.086.5 1.086 1.114 0 .614-.486 1.113-1.085 1.113-.6 0-1.085-.5-1.085-1.113H1.47c0 .618.49 1.12 1.092 1.12.604 0 1.094-.502 1.094-1.12 0-.62-.49-1.122-1.094-1.122-.603 0-1.093.503-1.093 1.122" fill="#FCC18E"></path><path d="M1.467 2.397c0-.62.49-1.122 1.093-1.122.604 0 1.094.503 1.094 1.122 0 .618-.49 1.12-1.094 1.12-.603 0-1.093-.502-1.093-1.12H1.46c0 .623.494 1.13 1.103 1.13.607 0 1.1-.507 1.1-1.13 0-.624-.493-1.13-1.1-1.13-.61 0-1.103.506-1.103 1.13" fill="#FCC18D"></path><path d="M1.46 2.397c0-.624.492-1.13 1.1-1.13.61 0 1.102.506 1.102 1.13 0 .624-.493 1.13-1.1 1.13-.61 0-1.103-.506-1.103-1.13H1.45c0 .628.497 1.138 1.11 1.138.613 0 1.11-.51 1.11-1.138 0-.63-.497-1.138-1.11-1.138-.613 0-1.11.508-1.11 1.137" fill="#FCC08C"></path><path d="M1.45 2.397c0-.63.498-1.138 1.11-1.138.613 0 1.11.508 1.11 1.137 0 .628-.497 1.138-1.11 1.138-.613 0-1.11-.51-1.11-1.138h-.006c0 .632.5 1.146 1.119 1.146.617 0 1.117-.514 1.117-1.146 0-.633-.5-1.147-1.118-1.147-.617 0-1.118.514-1.118 1.147" fill="#FCC08C"></path><path d="M1.442 2.397c0-.633.5-1.147 1.12-1.147.616 0 1.117.514 1.117 1.147 0 .632-.502 1.146-1.12 1.146-.617 0-1.118-.514-1.118-1.146h-.006c0 .637.505 1.154 1.126 1.154.622 0 1.127-.516 1.127-1.153 0-.638-.506-1.155-1.128-1.155-.62 0-1.126.517-1.126 1.155" fill="#FCBF8B"></path><path d="M1.434 2.397c0-.638.505-1.155 1.126-1.155.623 0 1.127.517 1.127 1.155 0 .637-.504 1.154-1.127 1.154-.62 0-1.126-.516-1.126-1.153h-.006c0 .642.508 1.163 1.135 1.163.626 0 1.134-.52 1.134-1.163S3.19 1.233 2.562 1.233c-.626 0-1.134.52-1.134 1.164" fill="#FCBF8A"></path><path d="M1.435 2.397c0-.643.51-1.164 1.135-1.164.626 0 1.134.52 1.134 1.164 0 .642-.508 1.163-1.134 1.163-.626 0-1.135-.52-1.135-1.163H1.42c0 .646.51 1.17 1.142 1.17.632 0 1.143-.524 1.143-1.17 0-.648-.51-1.172-1.143-1.172-.63 0-1.143.524-1.143 1.172" fill="#FCBE89"></path><path d="M1.417 2.397c0-.647.513-1.172 1.143-1.172.632 0 1.144.525 1.144 1.172 0 .646-.512 1.17-1.144 1.17-.63 0-1.143-.524-1.143-1.17H1.41c0 .65.517 1.18 1.152 1.18.635 0 1.152-.53 1.152-1.18 0-.652-.517-1.18-1.152-1.18-.635 0-1.15.528-1.15 1.18" fill="#FCBD88"></path><path d="M1.42 2.397c0-.652.514-1.18 1.15-1.18.635 0 1.15.528 1.15 1.18 0 .65-.515 1.18-1.15 1.18-.636 0-1.15-.53-1.15-1.18h-.017c0 .656.52 1.188 1.16 1.188.64 0 1.16-.532 1.16-1.188 0-.657-.52-1.19-1.16-1.19-.64 0-1.16.533-1.16 1.19" fill="#FCBD88"></path><path d="M1.4 2.397c0-.657.52-1.19 1.16-1.19.64 0 1.16.533 1.16 1.19 0 .656-.52 1.188-1.16 1.188-.64 0-1.16-.532-1.16-1.188h-.005c0 .66.522 1.197 1.167 1.197S3.73 3.057 3.73 2.397c0-.662-.523-1.198-1.168-1.198-.645 0-1.167.535-1.167 1.197" fill="#FCBD87"></path><path d="M1.393 2.397c0-.66.523-1.198 1.168-1.198.645 0 1.168.536 1.168 1.197 0 .66-.523 1.197-1.167 1.197s-1.167-.537-1.167-1.197h-.007c0 .665.528 1.205 1.176 1.205.65 0 1.177-.54 1.177-1.205-.002-.666-.53-1.206-1.178-1.206-.648 0-1.176.54-1.176 1.207" fill="#FCBD86"></path><path d="M1.385 2.397c0-.666.527-1.206 1.175-1.206.65 0 1.177.54 1.177 1.207 0 .665-.527 1.205-1.177 1.205-.648 0-1.175-.54-1.175-1.205h-.007c0 .67.53 1.214 1.184 1.214.654 0 1.185-.543 1.185-1.213s-.53-1.215-1.185-1.215c-.653 0-1.184.545-1.184 1.215" fill="#FCBC85"></path><path d="M1.376 2.397c0-.67.53-1.215 1.185-1.215.654 0 1.185.545 1.185 1.215S3.215 3.61 2.56 3.61c-.653 0-1.184-.543-1.184-1.213H1.37c0 .674.534 1.222 1.192 1.222.66 0 1.193-.55 1.193-1.223 0-.676-.534-1.223-1.193-1.223-.658 0-1.192.547-1.192 1.223" fill="#FCBB84"></path><path d="M1.368 2.397c0-.675.534-1.223 1.192-1.223.66 0 1.193.548 1.193 1.223 0 .674-.534 1.222-1.193 1.222-.658 0-1.192-.55-1.192-1.223h-.006c0 .68.538 1.23 1.2 1.23.663 0 1.2-.55 1.2-1.23 0-.68-.537-1.23-1.2-1.23-.662 0-1.2.55-1.2 1.23" fill="#FCBB84"></path><path d="M1.36 2.397c0-.68.538-1.23 1.2-1.23.663 0 1.2.55 1.2 1.23 0 .68-.537 1.23-1.2 1.23-.662 0-1.2-.55-1.2-1.23h-.007c0 .684.542 1.24 1.21 1.24.667 0 1.208-.556 1.208-1.24 0-.684-.54-1.24-1.208-1.24-.667 0-1.21.556-1.21 1.24" fill="#FBBA83"></path><path d="M1.36 2.397c0-.684.542-1.24 1.21-1.24.667 0 1.21.556 1.21 1.24 0 .684-.543 1.24-1.21 1.24-.668 0-1.21-.556-1.21-1.24h-.015c0 .688.545 1.247 1.217 1.247s1.218-.56 1.218-1.247c0-.69-.546-1.248-1.218-1.248-.672 0-1.217.557-1.217 1.247" fill="#FBBA83"></path><path d="M1.343 2.397c0-.69.545-1.248 1.218-1.248.672 0 1.218.557 1.218 1.247 0 .69-.546 1.247-1.217 1.247-.672 0-1.217-.558-1.217-1.247h-.006c0 .693.55 1.256 1.225 1.256.676 0 1.226-.563 1.226-1.256 0-.694-.55-1.257-1.226-1.257-.676 0-1.225.563-1.225 1.257" fill="#FBB981"></path><path d="M1.345 2.397c0-.694.548-1.256 1.225-1.256.676 0 1.225.563 1.225 1.257 0 .693-.55 1.256-1.225 1.256-.677 0-1.225-.563-1.225-1.256h-.016c0 .698.552 1.264 1.232 1.264.68 0 1.234-.565 1.234-1.263s-.553-1.265-1.234-1.265c-.68 0-1.233.567-1.233 1.265" fill="#FBB980"></path><path d="M1.327 2.397c0-.698.553-1.265 1.234-1.265.68 0 1.234.567 1.234 1.265S3.24 3.66 2.56 3.66s-1.233-.565-1.233-1.263H1.32c0 .702.557 1.272 1.242 1.272.686 0 1.242-.57 1.242-1.273s-.556-1.274-1.242-1.274c-.685 0-1.24.57-1.24 1.274" fill="#FBB980"></path><path d="M1.32 2.397c0-.703.555-1.273 1.24-1.273.686 0 1.242.57 1.242 1.273S3.246 3.67 2.56 3.67c-.685 0-1.24-.57-1.24-1.273H1.31c0 .707.56 1.28 1.25 1.28s1.25-.573 1.25-1.28c0-.708-.56-1.282-1.25-1.282s-1.25.574-1.25 1.282" fill="#FBB87F"></path><path d="M1.31 2.397c0-.708.56-1.282 1.25-1.282s1.25.574 1.25 1.282c0 .707-.56 1.28-1.25 1.28s-1.25-.573-1.25-1.28h-.006c0 .71.564 1.29 1.258 1.29.695 0 1.26-.58 1.26-1.29 0-.713-.565-1.29-1.26-1.29-.694 0-1.258.577-1.258 1.29" fill="#FBB87E"></path><path d="M1.302 2.397c0-.712.564-1.29 1.258-1.29.695 0 1.26.578 1.26 1.29 0 .71-.565 1.29-1.26 1.29-.694 0-1.258-.58-1.258-1.29h-.006c0 .716.567 1.298 1.266 1.298.7 0 1.267-.582 1.267-1.298 0-.717-.568-1.3-1.268-1.3-.7 0-1.266.583-1.266 1.3" fill="#FBB77D"></path>
   <path d="M1.294 2.397c0-.717.567-1.3 1.267-1.3s1.267.583 1.267 1.3c0 .717-.567 1.298-1.266 1.298-.7 0-1.266-.58-1.266-1.298h-.006c0 .72.57 1.306 1.274 1.306.704 0 1.275-.585 1.275-1.306 0-.722-.57-1.308-1.275-1.308-.704 0-1.274.585-1.274 1.307" fill="#FBB67C"></path><path d="M1.286 2.397c0-.722.57-1.307 1.274-1.307.704 0 1.275.585 1.275 1.307 0 .72-.57 1.306-1.275 1.306-.703 0-1.274-.585-1.274-1.306H1.28c0 .725.574 1.315 1.282 1.315.708 0 1.283-.59 1.283-1.315 0-.727-.575-1.316-1.283-1.316S1.28 1.67 1.28 2.398" fill="#FBB67C"></path><path d="M1.287 2.397c0-.726.575-1.316 1.283-1.316s1.283.59 1.283 1.317c0 .725-.575 1.315-1.283 1.315s-1.283-.59-1.283-1.315H1.27c0 .73.58 1.323 1.292 1.323.713 0 1.29-.593 1.29-1.323s-.577-1.324-1.29-1.324c-.712 0-1.29.593-1.29 1.324" fill="#FBB57B"></path><path d="M1.27 2.397c0-.73.578-1.324 1.29-1.324.713 0 1.292.593 1.292 1.324 0 .73-.58 1.323-1.292 1.323-.712 0-1.29-.593-1.29-1.323h-.007c0 .735.582 1.332 1.3 1.332.716 0 1.3-.598 1.3-1.333 0-.736-.584-1.332-1.3-1.332-.718 0-1.3.596-1.3 1.332" fill="#FBB57A"></path><path d="M1.27 2.397c0-.736.583-1.332 1.3-1.332.717 0 1.3.596 1.3 1.332 0 .735-.583 1.332-1.3 1.332-.717 0-1.3-.598-1.3-1.333h-.015c0 .74.586 1.34 1.307 1.34.722 0 1.308-.6 1.308-1.34 0-.74-.586-1.34-1.308-1.34-.72 0-1.307.6-1.307 1.34" fill="#FBB479"></path><path d="M1.253 2.397c0-.74.586-1.34 1.308-1.34.722 0 1.308.6 1.308 1.34 0 .74-.586 1.34-1.307 1.34-.72 0-1.307-.6-1.307-1.34h-.006c0 .744.59 1.35 1.315 1.35.727 0 1.316-.606 1.316-1.35 0-.745-.59-1.35-1.316-1.35-.726 0-1.315.605-1.315 1.35" fill="#FBB479"></path><path d="M1.245 2.397c0-.745.59-1.35 1.316-1.35.727 0 1.316.605 1.316 1.35 0 .744-.59 1.35-1.315 1.35-.726 0-1.315-.606-1.315-1.35h-.007c0 .75.593 1.357 1.324 1.357.73 0 1.324-.608 1.324-1.357 0-.75-.593-1.358-1.324-1.358-.73 0-1.324.607-1.324 1.357" fill="#FBB478"></path><path d="M1.237 2.397c0-.75.592-1.358 1.324-1.358.732 0 1.324.607 1.324 1.357S3.292 3.754 2.56 3.754c-.73 0-1.323-.608-1.323-1.357H1.23c0 .753.597 1.365 1.332 1.365.736 0 1.332-.612 1.332-1.365 0-.755-.596-1.366-1.332-1.366-.735 0-1.332.612-1.332 1.367" fill="#FBB377"></path><path d="M1.228 2.397c0-.755.597-1.366 1.333-1.366s1.333.612 1.333 1.367c0 .753-.597 1.365-1.332 1.365-.735 0-1.332-.612-1.332-1.365h-.006c0 .758.6 1.373 1.34 1.373.74 0 1.34-.615 1.34-1.373 0-.76-.6-1.375-1.34-1.375-.74 0-1.34.616-1.34 1.375" fill="#FBB376"></path><path d="M1.22 2.397c0-.76.6-1.375 1.34-1.375.74 0 1.34.616 1.34 1.375 0 .758-.6 1.374-1.34 1.374-.74 0-1.34-.615-1.34-1.373h-.006c0 .763.604 1.382 1.348 1.382.745 0 1.35-.62 1.35-1.383s-.605-1.383-1.35-1.383c-.744 0-1.348.62-1.348 1.383" fill="#FBB276"></path><path d="M1.212 2.397c0-.763.604-1.383 1.348-1.383.745 0 1.35.62 1.35 1.383S3.304 3.78 2.56 3.78c-.744 0-1.348-.62-1.348-1.383h-.007c0 .767.608 1.39 1.358 1.39.748 0 1.356-.623 1.356-1.39 0-.77-.61-1.392-1.357-1.392-.75 0-1.358.623-1.358 1.392" fill="#FBB175"></path><path d="M1.213 2.397c0-.77.608-1.392 1.357-1.392.75 0 1.357.623 1.357 1.392 0 .768-.608 1.39-1.357 1.39-.75 0-1.357-.622-1.357-1.39h-.016c0 .772.612 1.4 1.365 1.4.754 0 1.365-.628 1.365-1.4 0-.773-.61-1.4-1.365-1.4-.753 0-1.365.627-1.365 1.4" fill="#FBB174"></path><path d="M1.195 2.397c0-.773.612-1.4 1.365-1.4.754 0 1.365.627 1.365 1.4 0 .772-.61 1.4-1.365 1.4-.753 0-1.365-.628-1.365-1.4H1.19c0 .777.614 1.407 1.373 1.407.757 0 1.372-.63 1.372-1.407S3.32.987 2.563.987c-.76 0-1.374.633-1.374 1.41" fill="#FAB073"></path><path d="M1.196 2.397c0-.777.616-1.41 1.374-1.41.758 0 1.373.633 1.373 1.41 0 .777-.615 1.408-1.373 1.408s-1.373-.63-1.373-1.408H1.18c0 .78.62 1.416 1.382 1.416.763 0 1.382-.635 1.382-1.416 0-.783-.62-1.417-1.382-1.417-.763 0-1.38.634-1.38 1.417" fill="#FAB072"></path><path d="M1.18 2.397c0-.783.618-1.417 1.38-1.417.763 0 1.382.634 1.382 1.417 0 .782-.62 1.416-1.382 1.416-.762 0-1.38-.634-1.38-1.416h-.007c0 .786.622 1.424 1.39 1.424.767 0 1.39-.637 1.39-1.423 0-.787-.623-1.425-1.39-1.425-.768 0-1.39.638-1.39 1.425" fill="#FAB072"></path><path d="M1.17 2.397c0-.787.624-1.425 1.39-1.425.768 0 1.39.638 1.39 1.425 0 .786-.622 1.425-1.39 1.425-.766 0-1.39-.64-1.39-1.425h-.006c0 .79.627 1.433 1.398 1.433.772 0 1.398-.642 1.398-1.433 0-.792-.626-1.434-1.398-1.434-.77 0-1.398.642-1.398 1.434" fill="#FAAF71"></path><path d="M1.163 2.397c0-.79.626-1.434 1.397-1.434.772 0 1.398.643 1.398 1.434 0 .79-.626 1.433-1.398 1.433-.77 0-1.397-.642-1.397-1.433h-.007c0 .796.63 1.44 1.407 1.44.775 0 1.405-.644 1.405-1.44 0-.796-.63-1.442-1.405-1.442-.777 0-1.407.646-1.407 1.442" fill="#FAAE70"></path><path d="M1.154 2.397c0-.796.63-1.442 1.407-1.442.776 0 1.406.646 1.406 1.442 0 .796-.63 1.442-1.405 1.442-.776 0-1.406-.647-1.406-1.443h-.006c0 .8.633 1.45 1.414 1.45.78 0 1.414-.65 1.414-1.45 0-.8-.633-1.45-1.414-1.45-.78 0-1.414.65-1.414 1.45" fill="#FAAE6F"></path><path d="M1.146 2.397c0-.8.634-1.45 1.414-1.45.78 0 1.415.65 1.415 1.45 0 .8-.634 1.45-1.415 1.45-.78 0-1.414-.65-1.414-1.45H1.14c0 .804.637 1.458 1.423 1.458.784 0 1.422-.654 1.422-1.458 0-.806-.637-1.46-1.422-1.46-.786 0-1.423.654-1.423 1.46" fill="#FAAD6E"></path><path d="M1.138 2.397c0-.805.637-1.46 1.423-1.46s1.423.655 1.423 1.46c0 .804-.637 1.458-1.422 1.458-.785 0-1.422-.654-1.422-1.458H1.13c0 .81.642 1.466 1.432 1.466.79 0 1.43-.656 1.43-1.466 0-.81-.64-1.467-1.43-1.467-.79 0-1.43.657-1.43 1.467" fill="#FAAD6E"></path><path d="M1.14 2.397c0-.81.64-1.467 1.43-1.467C3.36.93 4 1.587 4 2.397s-.64 1.466-1.43 1.466c-.79 0-1.43-.656-1.43-1.466h-.017c0 .814.645 1.475 1.44 1.475.794 0 1.438-.66 1.438-1.475C4 1.582 3.358.92 2.563.92c-.794 0-1.44.662-1.44 1.477" fill="#FAAC6D"></path><path d="M1.12 2.397c0-.815.646-1.476 1.44-1.476C3.356.92 4 1.583 4 2.398c0 .814-.645 1.475-1.44 1.475-.794 0-1.44-.66-1.44-1.475h-.005c0 .818.65 1.483 1.447 1.483.8 0 1.447-.665 1.447-1.483 0-.82-.65-1.484-1.448-1.484-.798 0-1.447.664-1.447 1.484" fill="#FAAC6C"></path><path d="M1.123 2.397c0-.82.648-1.484 1.447-1.484.8 0 1.447.665 1.447 1.484 0 .818-.648 1.483-1.447 1.483-.8 0-1.447-.665-1.447-1.483h-.016c0 .823.652 1.492 1.456 1.492.803 0 1.454-.67 1.454-1.493 0-.824-.65-1.493-1.455-1.493-.803 0-1.455.67-1.455 1.493" fill="#FAAC6B"></path><path d="M1.105 2.397c0-.824.652-1.493 1.456-1.493.804 0 1.456.67 1.456 1.493 0 .823-.652 1.492-1.455 1.492s-1.455-.67-1.455-1.493H1.1c0 .828.654 1.5 1.462 1.5.808 0 1.464-.672 1.464-1.5 0-.83-.656-1.5-1.464-1.5-.808 0-1.463.67-1.463 1.5" fill="#FAAB6A"></path><path d="M1.097 2.397c0-.83.655-1.5 1.463-1.5s1.464.67 1.464 1.5c0 .828-.656 1.5-1.464 1.5-.808 0-1.463-.672-1.463-1.5H1.09c0 .832.66 1.51 1.472 1.51.813 0 1.472-.678 1.472-1.51 0-.834-.66-1.51-1.472-1.51-.812 0-1.472.676-1.472 1.51" fill="#FAAA69"></path><path d="M1.089 2.397c-.002-.834.658-1.51 1.47-1.51.813 0 1.473.676 1.473 1.51 0 .833-.66 1.51-1.472 1.51-.812 0-1.472-.677-1.472-1.51h-.006c0 .837.663 1.517 1.48 1.517s1.48-.68 1.48-1.517C4.043 1.56 3.38.88 2.563.88s-1.48.68-1.48 1.517" fill="#FAAA68"></path><path d="M1.08 2.397C1.08 1.56 1.743.88 2.56.88s1.48.68 1.48 1.517c0 .837-.663 1.517-1.48 1.517s-1.48-.68-1.48-1.517h-.006c0 .842.667 1.526 1.488 1.526.822 0 1.49-.684 1.49-1.526C4.05 1.554 3.383.87 2.56.87c-.82 0-1.488.684-1.488 1.527" fill="#FAA967"></path><path d="M1.072 2.397c0-.843.667-1.527 1.49-1.527.82 0 1.487.684 1.487 1.527 0 .842-.668 1.526-1.49 1.526-.82 0-1.488-.684-1.488-1.526h-.006c0 .846.67 1.534 1.496 1.534.827 0 1.497-.687 1.497-1.533C4.06 1.55 3.39.862 2.56.862c-.826 0-1.496.687-1.496 1.535" fill="#FAA967"></path><path d="M1.064 2.397c0-.848.67-1.535 1.496-1.535.827 0 1.497.687 1.497 1.535 0 .847-.67 1.534-1.497 1.534-.825 0-1.496-.686-1.496-1.533h-.007c0 .85.675 1.543 1.505 1.543.83 0 1.505-.692 1.505-1.543 0-.852-.674-1.543-1.505-1.543-.83 0-1.505.69-1.505 1.543" fill="#FAA966"></path><path d="M1.065 2.397c0-.852.674-1.543 1.505-1.543.83 0 1.505.69 1.505 1.543 0 .85-.674 1.543-1.505 1.543-.83 0-1.505-.692-1.505-1.543H1.05c0 .856.677 1.55 1.512 1.55.836 0 1.514-.694 1.514-1.55 0-.857-.678-1.552-1.514-1.552-.835 0-1.513.695-1.513 1.552" fill="#FAA865"></path><path d="M1.047 2.397c0-.856.678-1.55 1.513-1.55.836 0 1.514.694 1.514 1.55 0 .856-.678 1.55-1.514 1.55-.835 0-1.513-.694-1.513-1.55H1.04c0 .86.682 1.56 1.522 1.56s1.522-.7 1.522-1.56c0-.862-.682-1.56-1.522-1.56s-1.52.698-1.52 1.56" fill="#F9A764"></path><path d="M1.04 2.397c0-.862.68-1.56 1.52-1.56s1.522.698 1.522 1.56c0 .86-.682 1.56-1.52 1.56-.84 0-1.523-.7-1.523-1.56h-.007c0 .865.685 1.568 1.53 1.568.843 0 1.53-.703 1.53-1.568 0-.866-.687-1.57-1.53-1.57-.845 0-1.53.704-1.53 1.57" fill="#F9A763"></path><path d="M1.03 2.397C1.03 1.53 1.717.83 2.56.83c.845 0 1.53.7 1.53 1.567 0 .865-.685 1.568-1.53 1.568-.844 0-1.53-.703-1.53-1.568h-.006c0 .87.69 1.576 1.538 1.576.85 0 1.538-.706 1.538-1.576C4.1 1.527 3.41.82 2.562.82c-.85 0-1.537.706-1.537 1.577" fill="#F9A663"></path><path d="M1.023 2.397c0-.87.688-1.577 1.538-1.577.85 0 1.538.707 1.538 1.577s-.69 1.576-1.537 1.576c-.85 0-1.537-.706-1.537-1.576h-.007c0 .875.693 1.584 1.546 1.584.854 0 1.546-.708 1.546-1.583C4.108 1.52 3.416.81 2.562.81c-.853 0-1.546.71-1.546 1.587" fill="#F9A662"></path><path d="M1.014 2.397c0-.876.693-1.585 1.546-1.585.854 0 1.547.71 1.547 1.585S3.414 3.98 2.56 3.98c-.853 0-1.546-.708-1.546-1.583h-.006c0 .88.696 1.593 1.554 1.593.858 0 1.555-.714 1.555-1.593 0-.88-.697-1.594-1.555-1.594-.857 0-1.554.714-1.554 1.594" fill="#F9A560"></path><path d="M1.006 2.397c0-.88.697-1.594 1.555-1.594s1.555.714 1.555 1.594c0 .88-.697 1.593-1.554 1.593-.857 0-1.554-.714-1.554-1.593H1c0 .884.7 1.6 1.562 1.6.863 0 1.563-.716 1.563-1.6 0-.885-.7-1.603-1.563-1.603C1.7.794 1 1.512 1 2.397" fill="#F9A55F"></path>
   <path d="M.998 2.397c0-.884.7-1.602 1.562-1.602.863 0 1.563.718 1.563 1.602 0 .884-.7 1.6-1.563 1.6-.862 0-1.562-.716-1.562-1.6H.992c0 .89.703 1.61 1.57 1.61.868 0 1.57-.72 1.57-1.61 0-.89-.702-1.61-1.57-1.61-.867 0-1.57.72-1.57 1.61" fill="#F9A55F"></path><path d="M.99 2.397c0-.89.703-1.61 1.57-1.61.868 0 1.57.72 1.57 1.61 0 .89-.702 1.61-1.57 1.61-.867 0-1.57-.72-1.57-1.61H.983c0 .893.708 1.618 1.58 1.618.87 0 1.578-.725 1.578-1.618 0-.894-.706-1.62-1.578-1.62-.87 0-1.58.726-1.58 1.62" fill="#F9A45E"></path><path d="M.99 2.387C.99 1.494 1.7.77 2.57.77c.872 0 1.58.724 1.58 1.617S3.44 4.005 2.57 4.005c-.872 0-1.58-.725-1.58-1.618l-.015.01c0 .897.71 1.627 1.587 1.627.876 0 1.587-.73 1.587-1.627 0-.9-.712-1.628-1.588-1.628-.876 0-1.587.728-1.587 1.627" fill="#F9A35D"></path><path d="M.973 2.397c0-.9.71-1.628 1.588-1.628.876 0 1.588.728 1.588 1.627 0 .898-.712 1.627-1.587 1.627-.876 0-1.587-.73-1.587-1.627H.967c0 .903.715 1.635 1.595 1.635S4.158 3.3 4.158 2.397 3.443.76 2.562.76c-.88 0-1.595.734-1.595 1.637" fill="#F9A35C"></path><path d="M.965 2.397C.965 1.494 1.68.76 2.56.76s1.596.734 1.596 1.637S3.44 4.032 2.56 4.032C1.68 4.032.965 3.3.965 2.397H.96c0 .907.717 1.644 1.602 1.644.885 0 1.604-.736 1.604-1.643 0-.908-.72-1.644-1.604-1.644C1.677.753.96 1.49.96 2.397" fill="#F9A25B"></path><path d="M.957 2.397c0-.908.72-1.644 1.604-1.644.885 0 1.604.736 1.604 1.644 0 .907-.718 1.644-1.603 1.644S.958 3.305.958 2.398H.95c0 .91.723 1.652 1.612 1.652.89 0 1.612-.742 1.612-1.653 0-.913-.722-1.653-1.612-1.653-.89 0-1.61.74-1.61 1.653" fill="#F9A25A"></path><path d="M.95 2.397c0-.913.72-1.653 1.61-1.653.89 0 1.612.74 1.612 1.653 0 .912-.722 1.652-1.612 1.652-.89 0-1.61-.74-1.61-1.653H.94c0 .916.726 1.66 1.62 1.66.895 0 1.62-.744 1.62-1.66 0-.917-.725-1.66-1.62-1.66-.894 0-1.62.743-1.62 1.66" fill="#F9A25A"></path><path d="M.94 2.397c0-.917.726-1.66 1.62-1.66.895 0 1.62.743 1.62 1.66 0 .916-.725 1.66-1.62 1.66-.894 0-1.62-.744-1.62-1.66H.935c0 .92.73 1.67 1.628 1.67.9 0 1.63-.75 1.63-1.67-.002-.922-.73-1.67-1.63-1.67-.9 0-1.628.748-1.628 1.67" fill="#F9A159"></path><path d="M.932 2.397c0-.922.73-1.67 1.628-1.67.9 0 1.63.748 1.63 1.67 0 .92-.73 1.67-1.63 1.67-.898 0-1.628-.75-1.628-1.67H.926c0 .925.733 1.677 1.636 1.677.904 0 1.637-.752 1.637-1.677C4.2 1.47 3.465.72 2.56.72 1.66.72.926 1.47.926 2.396" fill="#F9A057"></path><path d="M.933 2.397C.933 1.47 1.666.72 2.57.72c.903 0 1.636.75 1.636 1.677 0 .926-.733 1.677-1.636 1.677-.904 0-1.637-.75-1.637-1.677H.918c0 .93.737 1.685 1.644 1.685.908 0 1.645-.755 1.645-1.685S3.47.71 2.562.71C1.655.71.918 1.466.918 2.397" fill="#F9A056"></path><path d="M.916 2.397c0-.93.737-1.687 1.645-1.687.91 0 1.645.756 1.645 1.687 0 .93-.736 1.686-1.644 1.686-.907 0-1.644-.756-1.644-1.686H.91c0 .935.74 1.694 1.652 1.694.912 0 1.653-.758 1.653-1.693 0-.936-.74-1.695-1.653-1.695C1.65.702.91 1.462.91 2.397" fill="#F99F55"></path><path d="M.917 2.397c0-.936.74-1.695 1.653-1.695.912 0 1.653.76 1.653 1.695S3.483 4.09 2.57 4.09c-.912 0-1.653-.758-1.653-1.693H.9c0 .94.745 1.702 1.663 1.702.916 0 1.66-.764 1.66-1.703 0-.94-.744-1.704-1.66-1.704C1.645.693.9 1.456.9 2.397" fill="#F99F54"></path><path d="M.9 2.397c0-.94.744-1.704 1.66-1.704.917 0 1.66.763 1.66 1.704.002.94-.743 1.703-1.66 1.703C1.645 4.1.9 3.337.9 2.397H.892c0 .944.748 1.71 1.67 1.71.92 0 1.668-.766 1.668-1.71 0-.945-.746-1.712-1.668-1.712-.92 0-1.67.767-1.67 1.712" fill="#F99F54"></path><path d="M.89 2.397c0-.945.75-1.712 1.67-1.712.922 0 1.67.767 1.67 1.712 0 .944-.748 1.71-1.67 1.71-.92 0-1.67-.766-1.67-1.71H.886c0 .95.75 1.72 1.678 1.72.925 0 1.677-.77 1.677-1.72S3.488.677 2.563.677c-.927 0-1.678.77-1.678 1.72" fill="#F99E53"></path><path d="M.883 2.397c0-.95.75-1.72 1.678-1.72.926 0 1.678.77 1.678 1.72s-.752 1.72-1.677 1.72c-.926 0-1.677-.77-1.677-1.72H.876c0 .954.755 1.728 1.686 1.728.93 0 1.686-.774 1.686-1.728 0-.955-.755-1.73-1.686-1.73-.93 0-1.685.775-1.685 1.73" fill="#F99D52"></path><path d="M.875 2.397c0-.955.755-1.73 1.685-1.73s1.686.775 1.686 1.73c0 .954-.755 1.728-1.686 1.728-.93 0-1.685-.774-1.685-1.728H.868c0 .958.76 1.736 1.695 1.736s1.693-.778 1.693-1.736c0-.96-.758-1.737-1.693-1.737-.936 0-1.695.778-1.695 1.737" fill="#F99D51"></path><path d="M.867 2.397c0-.96.758-1.737 1.694-1.737.936 0 1.694.778 1.694 1.737 0 .958-.758 1.737-1.693 1.737S.867 3.354.867 2.397H.86c0 .963.763 1.745 1.702 1.745.94 0 1.702-.782 1.702-1.745 0-.964-.762-1.746-1.702-1.746S.86 1.434.86 2.398" fill="#F99C4F"></path><path d="M.858 2.397C.858 1.434 1.62.65 2.56.65c.94 0 1.703.784 1.703 1.747 0 .963-.763 1.745-1.703 1.745-.94 0-1.702-.782-1.702-1.745H.852c0 .968.766 1.753 1.71 1.753s1.71-.785 1.71-1.753c0-.97-.766-1.754-1.71-1.754s-1.71.785-1.71 1.754" fill="#F99C4E"></path><path d="M.86 2.397c0-.97.766-1.754 1.71-1.754s1.71.785 1.71 1.754c0 .968-.766 1.754-1.71 1.754S.86 3.366.86 2.398H.843c0 .972.77 1.762 1.718 1.762.95 0 1.72-.79 1.72-1.763 0-.973-.77-1.762-1.72-1.762-.948 0-1.718.79-1.718 1.762" fill="#F99B4E"></path><path d="M.842 2.397c0-.973.77-1.762 1.718-1.762.95 0 1.72.79 1.72 1.762S3.51 4.16 2.56 4.16c-.948 0-1.718-.79-1.718-1.763H.835c0 .977.774 1.77 1.728 1.77.952 0 1.726-.793 1.726-1.77 0-.978-.775-1.77-1.727-1.77-.954 0-1.728.792-1.728 1.77" fill="#F99B4D"></path><path d="M.843 2.397c0-.978.773-1.77 1.727-1.77.953 0 1.726.792 1.726 1.77 0 .977-.773 1.77-1.726 1.77-.954 0-1.727-.793-1.727-1.77H.827c0 .982.777 1.778 1.735 1.778.958 0 1.735-.796 1.735-1.778S3.52.617 2.562.617c-.958 0-1.735.798-1.735 1.78" fill="#F99A4C"></path><path d="M.825 2.397c0-.982.778-1.78 1.735-1.78.958 0 1.735.798 1.735 1.78S3.518 4.175 2.56 4.175c-.958 0-1.735-.796-1.735-1.778H.82c0 .986.78 1.786 1.743 1.786.962 0 1.742-.8 1.742-1.786 0-.987-.78-1.788-1.742-1.788C1.6.61.82 1.41.82 2.396" fill="#F9994B"></path><path d="M.817 2.397C.817 1.41 1.597.61 2.56.61c.963 0 1.744.8 1.744 1.787 0 .986-.78 1.787-1.743 1.787-.962 0-1.743-.8-1.743-1.787H.81c0 .99.786 1.795 1.752 1.795.967 0 1.752-.805 1.752-1.795C4.314 1.405 3.53.6 2.562.6c-.966 0-1.75.805-1.75 1.797" fill="#F9994A"></path><path d="M.81 2.397C.81 1.405 1.593.6 2.56.6c.967 0 1.752.805 1.752 1.797 0 .99-.785 1.795-1.752 1.795-.966 0-1.75-.804-1.75-1.795H.8c0 .996.79 1.804 1.76 1.804.972 0 1.76-.807 1.76-1.803 0-.996-.788-1.805-1.76-1.805-.97 0-1.76.81-1.76 1.805" fill="#F99848"></path><path d="M.8 2.397C.8 1.4 1.59.592 2.56.592c.972 0 1.76.81 1.76 1.805 0 .996-.788 1.804-1.76 1.804C1.59 4.2.8 3.394.8 2.398H.795c0 1 .792 1.812 1.768 1.812.977 0 1.768-.813 1.768-1.813S3.54.584 2.562.584c-.976 0-1.768.812-1.768 1.813" fill="#F99848"></path><path d="M.792 2.397c0-1 .793-1.813 1.768-1.813.977 0 1.768.812 1.768 1.813 0 1-.79 1.812-1.768 1.812-.975 0-1.768-.813-1.768-1.813H.786c0 1.004.796 1.82 1.776 1.82s1.776-.816 1.776-1.82c0-1.006-.796-1.822-1.776-1.822S.786 1.39.786 2.397" fill="#F99847"></path><path d="M.784 2.397C.784 1.39 1.58.575 2.56.575c.98 0 1.776.816 1.776 1.822 0 1.005-.795 1.82-1.775 1.82-.98 0-1.776-.815-1.776-1.82H.778c0 1.01.8 1.83 1.784 1.83.985 0 1.784-.82 1.784-1.83 0-1.01-.8-1.83-1.784-1.83-.985 0-1.784.82-1.784 1.83" fill="#F99746"></path><path d="M.785 2.397c0-1.01.8-1.83 1.785-1.83.985 0 1.784.82 1.784 1.83 0 1.01-.8 1.83-1.784 1.83-.985 0-1.785-.82-1.785-1.83H.77c0 1.014.802 1.838 1.792 1.838s1.793-.824 1.793-1.838c0-1.015-.803-1.84-1.793-1.84-.99 0-1.792.825-1.792 1.84" fill="#F99645"></path><path d="M.768 2.397c0-1.015.803-1.84 1.793-1.84.99 0 1.794.825 1.794 1.84 0 1.014-.804 1.838-1.793 1.838C1.57 4.235.77 3.41.77 2.397H.76c0 1.02.808 1.846 1.802 1.846s1.8-.827 1.8-1.846c0-1.02-.806-1.847-1.8-1.847s-1.8.827-1.8 1.847" fill="#F99644"></path><path d="M.77 2.397c0-1.02.806-1.847 1.8-1.847s1.8.827 1.8 1.847-.806 1.846-1.8 1.846-1.8-.827-1.8-1.846H.752c0 1.023.81 1.855 1.81 1.855.998 0 1.81-.832 1.81-1.855 0-1.024-.812-1.855-1.81-1.855-1 0-1.81.83-1.81 1.855" fill="#F89543"></path><path d="M.75 2.397c0-1.024.812-1.855 1.81-1.855 1 0 1.81.83 1.81 1.855 0 1.023-.81 1.855-1.81 1.855-.998 0-1.81-.832-1.81-1.855H.746c0 1.028.814 1.863 1.817 1.863 1.004 0 1.818-.835 1.818-1.863 0-1.03-.814-1.863-1.818-1.863C1.56.534.745 1.368.745 2.397" fill="#F89542"></path><path d="M.743 2.397c0-1.03.814-1.863 1.817-1.863 1.004 0 1.818.834 1.818 1.863 0 1.028-.814 1.863-1.818 1.863-1.003 0-1.817-.835-1.817-1.863H.737c0 1.033.818 1.87 1.825 1.87 1.008 0 1.826-.837 1.826-1.87 0-1.034-.818-1.872-1.826-1.872-1.007 0-1.825.838-1.825 1.872" fill="#F89541"></path><path d="M.735 2.397c0-1.034.818-1.872 1.826-1.872s1.826.838 1.826 1.872c0 1.033-.818 1.87-1.825 1.87-1.007 0-1.825-.837-1.825-1.87H.73c0 1.037.82 1.88 1.832 1.88s1.834-.843 1.834-1.88c0-1.038-.822-1.88-1.834-1.88S.73 1.358.73 2.396" fill="#F89440"></path><path d="M.727 2.397c0-1.038.82-1.88 1.833-1.88 1.012 0 1.835.842 1.835 1.88 0 1.037-.823 1.88-1.835 1.88S.727 3.433.727 2.396H.72c0 1.042.825 1.888 1.842 1.888 1.017 0 1.843-.846 1.843-1.888 0-1.043-.826-1.89-1.843-1.89S.72 1.355.72 2.398" fill="#F8933F"></path><path d="M.72 2.397c0-1.043.824-1.89 1.84-1.89 1.017 0 1.843.847 1.843 1.89 0 1.042-.826 1.888-1.842 1.888S.72 3.44.72 2.397H.71c0 1.047.83 1.896 1.85 1.896 1.022 0 1.85-.85 1.85-1.896C4.413 1.35 3.583.5 2.563.5s-1.85.85-1.85 1.897" fill="#F8933E"></path><path d="M.71 2.397C.71 1.35 1.54.5 2.56.5c1.022 0 1.85.85 1.85 1.897 0 1.047-.828 1.896-1.85 1.896-1.02 0-1.85-.85-1.85-1.896H.704c0 1.05.833 1.905 1.858 1.905 1.026 0 1.86-.854 1.86-1.905C4.42 1.345 3.587.49 2.56.49 1.537.49.704 1.346.704 2.398" fill="#F8933D"></path><path d="M.71 2.397C.71 1.345 1.545.49 2.57.49c1.026 0 1.858.855 1.858 1.907 0 1.05-.832 1.905-1.858 1.905-1.026 0-1.86-.854-1.86-1.905H.697c0 1.056.836 1.913 1.866 1.913 1.03 0 1.867-.857 1.867-1.913C4.43 1.34 3.592.482 2.56.482 1.532.482.696 1.34.696 2.397" fill="#F8923C"></path>
   <path d="M.694 2.397C.694 1.34 1.53.483 2.56.483c1.03 0 1.867.857 1.867 1.914 0 1.056-.836 1.913-1.867 1.913-1.03 0-1.866-.857-1.866-1.913H.687c0 1.06.84 1.922 1.875 1.922 1.035 0 1.875-.862 1.875-1.923 0-1.062-.84-1.923-1.875-1.923-1.035 0-1.875.86-1.875 1.923" fill="#F8913B"></path><path d="M.695 2.397c0-1.062.84-1.923 1.875-1.923 1.035 0 1.875.86 1.875 1.923 0 1.06-.84 1.922-1.875 1.922-1.035 0-1.875-.862-1.875-1.923H.68c0 1.065.843 1.93 1.882 1.93 1.04 0 1.884-.865 1.884-1.93 0-1.066-.844-1.932-1.884-1.932S.68 1.33.68 2.397" fill="#F8913A"></path><path d="M.677 2.397c0-1.066.844-1.93 1.883-1.93 1.04 0 1.884.864 1.884 1.93 0 1.065-.844 1.93-1.884 1.93S.677 3.462.677 2.397H.67c0 1.07.848 1.94 1.892 1.94 1.045 0 1.892-.87 1.892-1.94 0-1.07-.847-1.94-1.892-1.94-1.044 0-1.89.87-1.89 1.94" fill="#F89039"></path><path d="M.67 2.397c0-1.07.846-1.94 1.89-1.94 1.045 0 1.892.87 1.892 1.94 0 1.07-.847 1.94-1.89 1.94-1.046 0-1.893-.87-1.893-1.94H.662c0 1.075.85 1.947 1.9 1.947 1.048 0 1.9-.872 1.9-1.947 0-1.075-.852-1.948-1.9-1.948-1.05 0-1.9.872-1.9 1.947" fill="#F89038"></path><path d="M.66 2.397C.66 1.322 1.513.45 2.56.45c1.05 0 1.9.872 1.9 1.947 0 1.075-.85 1.947-1.9 1.947-1.048 0-1.9-.872-1.9-1.947H.655c0 1.08.856 1.956 1.908 1.956 1.053 0 1.908-.877 1.908-1.956C4.47 1.317 3.615.44 2.562.44 1.51.44.655 1.317.655 2.398" fill="#F89037"></path><path d="M.653 2.397C.653 1.317 1.508.44 2.56.44s1.908.877 1.908 1.957-.855 1.956-1.907 1.956S.654 3.476.654 2.397H.646c0 1.083.86 1.964 1.916 1.964 1.058 0 1.916-.88 1.916-1.963 0-1.085-.858-1.965-1.916-1.965-1.057 0-1.916.88-1.916 1.965" fill="#F88F36"></path><path d="M.644 2.397c0-1.085.86-1.964 1.916-1.964 1.058 0 1.917.88 1.917 1.964S3.617 4.36 2.56 4.36.644 3.48.644 2.398H.638c0 1.09.862 1.972 1.924 1.972 1.063 0 1.925-.884 1.925-1.973 0-1.09-.863-1.973-1.925-1.973S.638 1.308.638 2.397" fill="#F88E35"></path><path d="M.636 2.397c0-1.09.862-1.973 1.925-1.973 1.063 0 1.925.884 1.925 1.973 0 1.09-.862 1.972-1.925 1.972C1.5 4.37.637 3.485.637 2.396H.63c0 1.093.866 1.98 1.932 1.98 1.067 0 1.933-.887 1.933-1.98 0-1.094-.866-1.982-1.933-1.982C1.496.415.63 1.303.63 2.397" fill="#F88E34"></path><path d="M.637 2.397c0-1.094.866-1.98 1.932-1.98 1.067 0 1.932.886 1.932 1.98 0 1.093-.865 1.98-1.933 1.98-1.067 0-1.933-.887-1.933-1.98H.622c0 1.098.87 1.99 1.94 1.99 1.072 0 1.94-.892 1.94-1.99 0-1.1-.868-1.99-1.94-1.99-1.07 0-1.94.89-1.94 1.99" fill="#F88E33"></path><path d="M.62 2.397c0-1.1.87-1.99 1.94-1.99 1.072 0 1.94.89 1.94 1.99 0 1.098-.868 1.99-1.94 1.99-1.07 0-1.94-.892-1.94-1.99H.613c0 1.102.873 1.997 1.95 1.997 1.075 0 1.948-.895 1.948-1.997 0-1.103-.872-2-1.948-2s-1.95.897-1.95 2" fill="#F88D33"></path><path d="M.62 2.397C.62 1.294 1.495.4 2.57.4s1.95.894 1.95 1.997c0 1.102-.874 1.997-1.95 1.997S.62 3.5.62 2.397H.606c0 1.107.877 2.006 1.957 2.006s1.957-.9 1.957-2.006C4.52 1.29 3.64.39 2.56.39S.605 1.29.605 2.397" fill="#F78C31"></path><path d="M.603 2.397C.603 1.29 1.48.39 2.56.39c1.08 0 1.958.9 1.958 2.007 0 1.107-.877 2.006-1.957 2.006S.604 3.503.604 2.397H.597c0 1.112.88 2.014 1.965 2.014s1.966-.9 1.966-2.013S3.648.38 2.562.38C1.478.38.597 1.285.597 2.398" fill="#F78C30"></path><path d="M.595 2.397C.595 1.284 1.475.38 2.56.38c1.085 0 1.966.904 1.966 2.017 0 1.112-.88 2.015-1.965 2.015-1.084 0-1.965-.903-1.965-2.015H.59c0 1.116.883 2.023 1.972 2.023 1.09 0 1.974-.907 1.974-2.023 0-1.117-.884-2.024-1.974-2.024C1.472.373.59 1.28.59 2.397" fill="#F78B2F"></path><path d="M.587 2.397C.587 1.28 1.47.373 2.56.373c1.09 0 1.974.907 1.974 2.024 0 1.116-.884 2.023-1.973 2.023-1.09 0-1.973-.907-1.973-2.023H.58c0 1.12.888 2.03 1.983 2.03 1.093 0 1.98-.91 1.98-2.03 0-1.122-.887-2.033-1.98-2.033C1.468.364.58 1.274.58 2.397" fill="#F78B2F"></path><path d="M.58 2.397c0-1.122.887-2.033 1.98-2.033 1.094 0 1.982.91 1.982 2.033 0 1.122-.888 2.032-1.98 2.032-1.095 0-1.983-.91-1.983-2.033H.57c0 1.126.892 2.04 1.99 2.04 1.1 0 1.99-.914 1.99-2.04 0-1.127-.89-2.04-1.99-2.04-1.098 0-1.99.913-1.99 2.04" fill="#F78A2E"></path><path d="M.57 2.397c0-1.127.892-2.04 1.99-2.04 1.1 0 1.99.913 1.99 2.04 0 1.126-.89 2.04-1.99 2.04-1.098 0-1.99-.914-1.99-2.04H.564c0 1.13.895 2.048 2 2.048 1.1 0 1.996-.918 1.996-2.048S3.665.347 2.563.347c-1.104 0-2 .92-2 2.05" fill="#F78A2C"></path><path d="M.562 2.397c0-1.13.895-2.05 2-2.05 1.102 0 1.997.92 1.997 2.05s-.896 2.05-2 2.05c-1.103 0-1.998-.92-1.998-2.05H.556c0 1.135.898 2.057 2.006 2.057 1.108 0 2.007-.922 2.007-2.057C4.57 1.26 3.67.34 2.56.34S.556 1.26.556 2.397" fill="#F7892B"></path><path d="M.563 2.397C.563 1.26 1.463.34 2.57.34c1.108 0 2.006.92 2.006 2.057 0 1.135-.898 2.057-2.006 2.057-1.108 0-2.007-.922-2.007-2.057H.548c0 1.14.902 2.065 2.015 2.065 1.112 0 2.014-.925 2.014-2.065S3.675.33 2.563.33C1.45.33.548 1.257.548 2.398" fill="#F7892A"></path><path d="M.546 2.397C.546 1.257 1.45.33 2.56.33c1.113 0 2.015.926 2.015 2.067 0 1.14-.902 2.065-2.014 2.065-1.11 0-2.014-.925-2.014-2.065H.54c0 1.144.906 2.074 2.022 2.074 1.117 0 2.023-.93 2.023-2.073C4.585 1.25 3.68.323 2.562.323 1.446.323.54 1.25.54 2.397" fill="#F78929"></path><path d="M.538 2.397c0-1.145.906-2.074 2.022-2.074 1.117 0 2.023.93 2.023 2.074 0 1.144-.906 2.074-2.023 2.074-1.116 0-2.022-.93-2.022-2.073H.53c0 1.15.91 2.082 2.033 2.082 1.12 0 2.03-.934 2.03-2.083 0-1.15-.91-2.083-2.03-2.083C1.44.314.53 1.247.53 2.397" fill="#F78829"></path><path d="M.53 2.397c0-1.15.91-2.083 2.03-2.083 1.122 0 2.031.933 2.031 2.083.002 1.15-.908 2.082-2.03 2.082-1.12 0-2.03-.934-2.03-2.083H.522c0 1.154.914 2.09 2.04 2.09 1.125 0 2.038-.936 2.038-2.09.002-1.155-.912-2.09-2.038-2.09-1.125 0-2.04.935-2.04 2.09" fill="#F78727"></path><path d="M.52 2.397c0-1.155.915-2.09 2.04-2.09 1.126 0 2.04.935 2.04 2.09 0 1.154-.914 2.09-2.04 2.09-1.125 0-2.04-.936-2.04-2.09H.516c0 1.158.917 2.098 2.048 2.098 1.13 0 2.047-.94 2.047-2.098 0-1.16-.917-2.1-2.047-2.1-1.13 0-2.048.94-2.048 2.1" fill="#F78626"></path><path d="M.513 2.397c0-1.16.917-2.1 2.048-2.1 1.13 0 2.048.94 2.048 2.1 0 1.158-.917 2.1-2.047 2.1-1.13 0-2.047-.942-2.047-2.1H.506c0 1.163.92 2.107 2.056 2.107 1.135 0 2.056-.944 2.056-2.107 0-1.164-.92-2.108-2.056-2.108C1.427.29.506 1.232.506 2.396" fill="#F78625"></path><path d="M.505 2.397C.505 1.233 1.425.29 2.56.29c1.135 0 2.056.943 2.056 2.107 0 1.163-.92 2.107-2.056 2.107-1.135 0-2.055-.944-2.055-2.107H.498c0 1.168.925 2.115 2.064 2.115 1.14 0 2.064-.947 2.064-2.115C4.626 1.23 3.702.28 2.562.28 1.423.28.498 1.23.498 2.397" fill="#F78625"></path><path d="M.496 2.397C.496 1.23 1.42.28 2.56.28s2.064.95 2.064 2.117c0 1.168-.924 2.116-2.063 2.116-1.14 0-2.064-.948-2.064-2.116H.49c0 1.172.93 2.124 2.072 2.124 1.144 0 2.072-.95 2.072-2.123 0-1.174-.928-2.125-2.072-2.125C1.42.272.49 1.222.49 2.397" fill="#F78524"></path><path d="M.488 2.397c0-1.173.93-2.125 2.072-2.125 1.145 0 2.073.952 2.073 2.125 0 1.172-.928 2.124-2.073 2.124-1.143 0-2.072-.95-2.072-2.123H.482c0 1.177.932 2.132 2.08 2.132 1.148 0 2.08-.956 2.08-2.133 0-1.178-.932-2.134-2.08-2.134-1.148 0-2.08.956-2.08 2.134" fill="#F68423"></path><mask id="d" fill="#fff"><use xlink:href="#c"></use></mask><path d="M.49 2.387C.49 1.21 1.42.254 2.57.254c1.148 0 2.08.955 2.08 2.133S3.718 4.52 2.57 4.52C1.42 4.52.49 3.565.49 2.387l-.016.01c0 1.18.935 2.14 2.088 2.14s2.09-.96 2.09-2.14c0-1.182-.937-2.142-2.09-2.142-1.153 0-2.088.96-2.088 2.142" fill="#F68422" mask="url(#d)"></path><mask id="f" fill="#fff"><use xlink:href="#e"></use></mask><path d="M.472 2.397c0-1.182.935-2.142 2.088-2.142s2.09.96 2.09 2.142-.937 2.14-2.09 2.14c-1.153 0-2.088-.958-2.088-2.14H.465c0 1.186.94 2.15 2.098 2.15 1.157 0 2.096-.964 2.096-2.15 0-1.187-.94-2.15-2.098-2.15-1.157 0-2.097.963-2.097 2.15" fill="#F68321" mask="url(#f)"></path><g><mask id="h" fill="#fff"><use xlink:href="#g"></use></mask><path d="M.464 2.397c0-1.187.94-2.15 2.097-2.15 1.158 0 2.097.963 2.097 2.15 0 1.187-.94 2.15-2.096 2.15-1.157 0-2.096-.963-2.096-2.15H.457c0 1.19.943 2.158 2.105 2.158s2.105-.967 2.105-2.158c0-1.192-.943-2.16-2.105-2.16S.457 1.206.457 2.398" fill="#F68321" mask="url(#h)"></path></g><mask id="j" fill="#fff"><use xlink:href="#i"></use></mask><path d="M.434 4.555H4.69V.24H.435v4.315zm.02-2.158c0 1.19.945 2.158 2.107 2.158 1.163 0 2.106-.967 2.106-2.158 0-1.192-.943-2.16-2.105-2.16-1.16 0-2.105.968-2.105 2.16z" fill="#FF7600" mask="url(#j)"></path></g><g fill="#001722"><path d="M10.463 12.393H9.316v4.098h1.14c.605 0 1.043-.145 1.427-.47.455-.388.725-.972.725-1.575 0-1.21-.882-2.052-2.145-2.052zm.91 3.078c-.245.23-.562.328-1.067.328h-.21v-2.71h.21c.505 0 .81.092 1.068.33.27.247.43.628.43 1.02 0 .395-.16.79-.43 1.033zM12.968 16.492h.778v-4.098h-.778M15.654 13.965c-.468-.177-.606-.295-.606-.515 0-.26.245-.455.582-.455.233 0 .425.098.63.33l.407-.544c-.336-.302-.737-.455-1.176-.455-.705 0-1.245.504-1.245 1.173 0 .566.252.855.983 1.126.306.11.462.184.54.233.155.105.234.252.234.424 0 .333-.26.58-.607.58-.37 0-.67-.192-.85-.548l-.503.498c.358.54.79.78 1.384.78.81 0 1.38-.553 1.38-1.346 0-.65-.265-.946-1.152-1.28M17.05 14.445c0 1.206.924 2.14 2.11 2.14.336 0 .624-.07.978-.24v-.94c-.312.32-.588.448-.942.448-.785 0-1.342-.585-1.342-1.414 0-.788.575-1.408 1.307-1.408.37 0 .654.135.978.46v-.94c-.342-.178-.624-.25-.96-.25-1.18 0-2.128.952-2.128 2.143M26.455 15.146l-1.067-2.752h-.85l1.696 4.202h.42l1.726-4.202h-.845M28.734 16.492h2.212v-.694h-1.432V14.69h1.377v-.693h-1.376v-.91h1.432v-.693h-2.212M34.032 13.603c0-.767-.515-1.21-1.414-1.21H31.46v4.1h.78v-1.65h.103l1.08 1.65h.957l-1.26-1.728c.59-.123.912-.535.912-1.162m-1.564.677h-.227v-1.242h.24c.487 0 .75.21.75.608 0 .412-.263.634-.762.634"></path></g></g></svg>