
<svg version="1.1" xmlns="http://www.w3.org/2000/svg" x="0" y="0" viewBox="0 0 33 35" width="33" height="35" xml:space="preserve"><path fill="#8D8B8B" d="M22 14.4v2h2V22h-2v2h7.3c1.5-.1 3.6-.9 3.7-2.9 0-1.2-.7-1.9-1.4-2.3.5-.5.9-1.3.9-2-.3-2-1.7-2.4-3.3-2.5l-7.2.1zm4.3 2h2.6c.4 0 1 .1 1 .8 0 .8-.6.8-1 .8h-2.6v-1.6zm0 3.8h2.6c.5 0 1.3.1 1.3 1s-.8 1-1.3 1h-2.6v-2zM0 25.1v1.4h14.1l1.1 8.5h2.5l1.1-8.5h14.1v-1.4M12.9 12h-1.3v1.5h10.1V12h-1.5c.8-.7 1.5-1.6 1.8-2.5.1-.4.2-.7.2-1.1 0-.7-.1-1.2-.2-1.7-.9-2.7-3.9-3-4.8-4.9 0-.1-.1-.2-.1-.3 0-.3-.3-.3-.3 0 0 .6.2 1 .4 1.4 1.1 1.7 3.8 2.2 3.9 5.3 0 1.3-.8 2.5-1.9 3.6H14c-1.2-.8-2.1-1.9-2.1-3.2.1-2.8 2.7-3.3 2.9-5.3v-.4-.1c0-.1-.1 0-.2.1-.3 2.3-2.8 2.6-3.5 4.7 0 .3-.1.7-.1 1.1s.1.8.2 1.1c.4 1.2 1.1 1.7 1.7 2.2zM7.5 24.1c1.5-.1 3.5-.9 3.7-2.7v-.2-.2c-.1-1.1-.7-1.6-1.4-2.1.5-.5.9-1.3.9-2-.3-2-1.7-2.4-3.3-2.5H.2v2h1.9V22H.2v2l7.3.1zm-3.1-7.7H7c.4 0 1 .1 1 .8 0 .8-.6.8-1 .8H4.4v-1.6zm0 5.7v-2H7c.5 0 1.3.1 1.3 1s-.8 1-1.3 1H4.4z"></path><path fill="#8D8B8B" d="M11.2 22.1v2h7.3c1.5-.1 3.5-.9 3.7-2.7v-.2-.2c-.2-1-.8-1.5-1.4-2 .5-.5.9-1.3.9-2-.3-2-1.7-2.4-3.3-2.5h-7.3v2H13v5.6h-1.8zm4.1-5.7H18c.4 0 1 .1 1 .8 0 .8-.6.8-1 .8h-2.6v-1.6zm0 3.8H18c.5 0 1.3.1 1.3 1s-.8 1-1.3 1h-2.6v-2zM15.8 5c0-.2-.1-.3-.2 0 0 .8-.4 1.3-.9 1.8-.5.7-1 1.3-1 2.5 0 .7.4 1.3 1 1.7.2.2.5.3.8.5.2.1.3 0 .2-.1-.4-.3-.7-.6-1-1-.2-.4-.4-.8-.4-1.2 0-.8.2-1.4.4-1.9.5-.8 1-1.4 1.1-2.3z"></path><path fill="#8D8B8B" d="M12.4 8.7c0 .9.5 1.9 1.6 2.5.3.2.5 0 .3-.1-.8-.7-1.3-1.6-1.3-2.4.1-1.6 1-2.4 1.7-3.7.3-.6.6-1.3.8-2.2.1-.2.2-.2.2 0 .1.9.8 1.7 1.6 2.4 1 1 2.1 2.1 2.1 3.4 0 .9-.2 1.9-.8 2.6-.2.2.1.3.2.2 1.1-.8 1.6-1.9 1.6-3-.1-2.2-1.8-3.2-3-4.3-.5-.5-.9-.9-1.1-1.5-.2-.7-.3-1.6.2-2.3.1-.2 0-.4-.2-.2-.6.8-.9 1.7-.9 2.6-.1.7-.3 1.3-.5 1.8-.9 1.6-2.5 2.4-2.5 4.2z"></path></svg>