<svg width="19px" height="19px" viewBox="0 0 19 19" version="1.1" xmlns="http://www.w3.org/2000/svg" xmlns:xlink="http://www.w3.org/1999/xlink" xmlns:sketch="http://www.bohemiancoding.com/sketch/ns">
    <!-- Generator: Sketch 3.3.2 (12043) - http://www.bohemiancoding.com/sketch -->
    <title>Imported Layers Copy 4</title>
    <desc>Created with Sketch.</desc>
    <defs></defs>
    <g id="UI-KIT" stroke="none" stroke-width="1" fill="none" fill-rule="evenodd" sketch:type="MSPage">
        <g id="LOGIN" sketch:type="MSArtboardGroup" transform="translate(-44.000000, -337.000000)" fill="#FFFFFF">
            <g id="Group-Copy-7-+-Group-Copy-8-+-Imported-Layers-Copy-4" sketch:type="MSLayerGroup" transform="translate(30.000000, 326.000000)">
                <path d="M31.8772985,11 L15.044291,11 C14.4674851,11 14,11.4674142 14,12.044291 L14,28.8772985 C14,29.4540336 14.4674851,29.9215896 15.044291,29.9215896 L24.1065821,29.9215896 L24.1065821,22.5941828 L21.6407649,22.5941828 L21.6407649,19.7385112 L24.1065821,19.7385112 L24.1065821,17.6325597 C24.1065821,15.1885784 25.5992873,13.8577985 27.7794664,13.8577985 C28.8237575,13.8577985 29.7213657,13.9355709 29.9828993,13.9703097 L29.9828993,16.5243918 L28.4708396,16.5251007 C27.2851119,16.5251007 27.0555522,17.0885075 27.0555522,17.915291 L27.0555522,19.7385112 L29.8833619,19.7385112 L29.5151306,22.5941828 L27.0555522,22.5941828 L27.0555522,29.9215896 L31.8772985,29.9215896 C32.4540336,29.9215896 32.9215896,29.4540336 32.9215896,28.8772985 L32.9215896,12.044291 C32.9215896,11.4674142 32.4540336,11 31.8772985,11" id="Imported-Layers-Copy-4" sketch:type="MSShapeGroup"></path>
            </g>
        </g>
    </g>
</svg>
