<svg xmlns="http://www.w3.org/2000/svg" width="80" height="80" viewBox="0 0 80 80"><path class="circle" d="M43.7.2C18.7-2.1-2.1 18.7.2 43.7c1.7 19.1 17.1 34.5 36.2 36.2 24.9 2.2 45.7-18.6 43.5-43.5C78.1 17.3 62.8 1.9 43.7.2zM75.9 40c0 19.8-16.1 35.9-35.9 35.9C20.2 75.9 4.1 59.8 4.1 40 4.1 20.2 20.2 4.1 40 4.1c19.8 0 35.9 16.1 35.9 35.9z" fill="#737373" ></path><path class="letter" d="M39.9 24.2c-.5 0-1.1-.3-1.4-.7l-1.1 1.2c.7.6 1.5.9 2.4.9 1.5 0 2.8-.8 2.8-2.4 0-2.5-3.3-1.7-3.3-3 0-.5.6-.7 1.1-.7.4 0 .9.2 1.1.5l1.1-1.2c-.6-.5-1.4-.8-2.2-.8-1.4 0-2.7.8-2.7 2.3 0 2.4 3.4 1.7 3.4 3-.2.6-.7.9-1.2.9zM57.7 38.8c.6 0 1 .2 1.4.6l1.2-1c-.6-.8-1.6-1.1-2.4-1.1-2.2 0-3.9 1.5-3.9 3.8s1.6 3.8 3.9 3.8c1 0 2-.4 2.6-1.3l-1.3-1c-.3.5-.8.8-1.5.8-1.1 0-2-1-2-2.3 0-1.3.8-2.3 2-2.3zM26 41.2c0-2.6-1.9-3.6-4.3-3.6h-2.4v7.2h2.6c2.2-.1 4.1-1.3 4.1-3.6zm-4.3 2.1h-.8V39h.9c1.3 0 2.5.7 2.5 2.1 0 1.6-1.1 2.2-2.6 2.2z" fill="transparent" ></path><path d="M47.8 33s.4-1.1 1.7-1.9c0 0 4.3-2.9 5.4-3l1.3 1.7.2.1.9-.5.6.3 2.5 3.4s.9.6 1.8-.7c0 0 .5-.5.5-1.3L51.9 16.7s-1.3-.5-1.7.9l-.2 1.6 2.3 3.1-.2.9-.3.1-.1.6.8 1.1s-3.4 2.3-4.3 3.3l-4.8 4.1-3.4 3-3.4-3.3-4.8-4.1c-.9-1-4.3-3.3-4.3-3.3l.8-1.1-.1-.6-.3-.1-.2-.9 2.3-3.1-.2-1.6c-.4-1.4-1.7-.9-1.7-.9L17.2 31c0 .8.5 1.3.5 1.3.9 1.3 1.8.7 1.8.7l2.5-3.4.6-.3.9.5.2-.1L25 28c1.1.1 5.4 3 5.4 3 1.3.8 1.7 1.9 1.7 1.9.6 1.8 1.9 2.8 1.9 2.8l2.8 2.7-17.7 17s-1.9 1.8-1.2 2.8c0 0 1.5 2 4.1-.1l6.6-6L40 41.4l11.4 10.8 6.6 6c2.6 2 4.1.1 4.1.1.7-1-1.2-2.8-1.2-2.8l-17.7-17 2.8-2.7c-.1 0 1.2-1 1.8-2.8z" fill="#737373"></path></svg>