<svg width="44" height="29" viewBox="0 0 44 29" version="1.1" xmlns="http://www.w3.org/2000/svg" xmlns:xlink="http://www.w3.org/1999/xlink"><title>MASTERCARD</title><defs><path id="a" d="M0 27.828h42.613V.396H0v27.432z"></path></defs><g stroke="none" stroke-width="1" fill="none" fill-rule="evenodd"><g transform="translate(.43 .337)"><mask id="b" fill="#fff"><use xlink:href="#a"></use></mask><path d="M42.613 3.912v20.4c0 1.942-1.536 3.517-3.43 3.517H3.43C1.535 27.83 0 26.253 0 24.31v-20.4C0 1.97 1.535.396 3.43.396h35.754c1.893 0 3.43 1.573 3.43 3.516" fill="#3F6BB9" mask="url(#b)"></path></g><path d="M9.035 14.128c0 4.314 3.41 7.812 7.62 7.812 4.207 0 7.62-3.498 7.62-7.812s-3.413-7.81-7.62-7.81c-4.21 0-7.62 3.496-7.62 7.81" fill="#ED1C2E"></path><path d="M26.816 6.316c-1.952 0-3.733.754-5.08 1.992 0 .002.002.003.004.004.465.43.88.917 1.23 1.45h-2.466c-.3.454-.555.94-.757 1.456h3.978c.183.464.32.95.414 1.455H19.33c-.087.47-.135.958-.135 1.455h5.077c0 .498-.05.983-.135 1.456H19.33c.093.503.232.99.415 1.455h3.978c-.2.514-.455 1-.755 1.454h-2.466c.353.534.768 1.022 1.236 1.45l-.006.005h.002c1.35 1.237 3.128 1.99 5.08 1.99 4.208 0 7.62-3.497 7.62-7.812 0-4.314-3.412-7.812-7.62-7.812" fill="#FCB331"></path></g></svg>