<svg width="280" height="200" viewBox="0 0 280 200" xmlns="http://www.w3.org/2000/svg" xmlns:xlink="http://www.w3.org/1999/xlink"><title>HIW_01</title><defs><path id="a" d="M0 150h60.343V.18H0z"/><path id="c" d="M61.837 146.727V.429H.39v146.298z"/><path id="e" d="M0 177h157.835V.841H0z"/></defs><g fill="none" fill-rule="evenodd"><path d="M100.647 41.255h.533a.305.305 0 0 1 .048.158c0 .175-.12.32-.293.32l-.022-.003a.316.316 0 0 1-.313-.317c0-.059.02-.11.047-.158m9.817 2.475l-43.324-.036v-2.439h33.294a.575.575 0 0 0 .54.756.576.576 0 0 0 .542-.756h8.907l.012-.34c-.703-.04-1.355-.093-1.641-.09a5.108 5.108 0 0 1-1.083-.103H66.612v3.506l43.904.037a14.11 14.11 0 0 1-.052-.535" fill="#554640"/><path d="M85.876 42.767l-.02-.003a.316.316 0 0 1-.315-.318c0-.175.14-.318.315-.318.172 0 .313.143.313.318 0 .176-.12.321-.293.321m.04-.878a.575.575 0 0 0-.572.578c0 .319.256.578.572.578.315 0 .572-.259.572-.578a.576.576 0 0 0-.572-.578M78.003 42.85l-.022-.004a.316.316 0 0 1-.313-.317c0-.175.14-.318.313-.318.174 0 .315.143.315.318 0 .174-.12.32-.293.32m.04-.877a.575.575 0 0 0-.572.578c0 .319.256.578.571.578.316 0 .572-.26.572-.578a.575.575 0 0 0-.572-.578M70.8 42.686l-.015-.001a.232.232 0 0 1-.23-.233c0-.128.103-.233.23-.233a.23.23 0 0 1 .229.233c0 .128-.088.234-.214.234m.029-.642a.42.42 0 0 0-.418.422.42.42 0 0 0 .418.424c.23 0 .418-.19.418-.424a.421.421 0 0 0-.418-.422M105.412 43.031l-.015-.002a.232.232 0 0 1-.23-.232c0-.128.103-.233.23-.233a.23.23 0 0 1 .229.233c0 .128-.088.234-.214.234m.029-.642a.42.42 0 0 0-.418.423.42.42 0 0 0 .418.423.42.42 0 0 0 .418-.423.421.421 0 0 0-.418-.423M90.637 42.5l-.015-.001a.232.232 0 0 1-.23-.233c0-.128.103-.233.23-.233a.23.23 0 0 1 .229.233c0 .128-.087.234-.214.234m.03-.642a.42.42 0 0 0-.419.423.42.42 0 0 0 .418.423.42.42 0 0 0 .418-.423.42.42 0 0 0-.418-.423M89.145 42.202a.263.263 0 0 0-.262.265c0 .146.117.265.262.265a.263.263 0 0 0 .262-.265.263.263 0 0 0-.262-.265M86.844 42.455a.177.177 0 0 0-.176.179c0 .098.078.178.176.178.098 0 .176-.08.176-.178a.177.177 0 0 0-.176-.179M108 42.049a.177.177 0 0 0-.176.178c0 .099.079.178.176.178.098 0 .177-.08.177-.178a.177.177 0 0 0-.177-.178M80.38 42.415a.237.237 0 0 0-.236.238c0 .13.106.238.236.238s.235-.107.235-.238a.236.236 0 0 0-.235-.238M72.566 42.334a.236.236 0 0 0-.235.239c0 .132.105.238.235.238s.236-.106.236-.238a.237.237 0 0 0-.236-.239M91.874 42.257a.236.236 0 0 0-.236.238c0 .13.106.238.236.238s.236-.107.236-.238a.237.237 0 0 0-.236-.238M97.63 41.757a.15.15 0 0 0-.15.151.15.15 0 0 0 .15.152.151.151 0 0 0 0-.303M81.421 41.82a.15.15 0 0 0-.149.15.15.15 0 0 0 .15.152.151.151 0 0 0 0-.303M76.44 43.104a.15.15 0 0 0-.15.152.15.15 0 1 0 .3 0 .15.15 0 0 0-.15-.152M78.95 42.2a.15.15 0 0 0-.149.15.15.15 0 0 0 .15.152.15.15 0 0 0 .149-.152.15.15 0 0 0-.15-.15M73.059 41.882a.151.151 0 0 0 0 .303.15.15 0 0 0 .15-.153.15.15 0 0 0-.15-.15M91.556 43.08a.15.15 0 0 0-.149.151c0 .083.067.151.15.151a.15.15 0 0 0 .148-.15.15.15 0 0 0-.149-.152M103.522 41.82a.15.15 0 0 0-.15.151c0 .083.067.151.15.151a.151.151 0 0 0 0-.303M96.515 42.36a.15.15 0 0 0-.15.152.15.15 0 0 0 .3 0 .15.15 0 0 0-.15-.152M102.526 42.757a.15.15 0 0 0-.15.151c0 .083.067.151.15.151a.15.15 0 0 0 .15-.15.15.15 0 0 0-.15-.152M104.914 112.79c-.026.13-.719 3.19-6.534 3.19h-.105c-2.431-.016-4.203-.578-5.267-1.671-.987-1.013-.988-2.117-.988-2.148.236-4.465 4.859-4.811 6.27-4.811.183 0 .29.005.32.006.036.001 3.691.05 5.433 2.074.754.874 1.045 2.013.871 3.36m-6.277-6.233s-.127-.008-.347-.008c-3.271 0-6.844 1.462-7.06 5.583-.002.059-.016 1.462 1.196 2.72 1.215 1.263 3.181 1.912 5.845 1.929h.11c6.51 0 7.281-3.68 7.314-3.861.21-1.61-.147-2.963-1.057-4.019-1.98-2.296-5.86-2.344-6.001-2.344M117.2 65.94c.25 2.708.28 5.85-.313 8.845 0 0 .891-2.574.787-7.312-.16-.51-.317-1.022-.474-1.534" fill="#554640"/><g transform="translate(60 39)"><mask id="b" fill="#fff"><use xlink:href="#a"/></mask><path d="M16.285 29.014a.91.91 0 0 0-.468.086c-.003-.007-.005-.012-.007-.022.066-.69.601-6.057 1.43-8.267.109-.227.48-1.192-.064-2.872-.064-.355-.188-1.18-.188-1.75h4.098v.87h1.453l-.139.714a.717.717 0 0 0-.009.11c0 .015-.008.347-.343.662-.353.333-1.13.71-2.832.614a.512.512 0 0 0-.306.077c-.05.032-.503.322-.771.827a.566.566 0 0 0-.045.117c-.061.236-1.418 5.52-1.573 8.892a.893.893 0 0 0-.236-.058zm5.328-12.825h2.938l-.022.051-1.406.018a.525.525 0 0 0-.45.267h-1.06v-.336zm4.085.014l.005-.014h14.026v-.068h11.904c.007.028.015.056.026.082l.082.19-5.256-.046-1.664.604H31.808l-1.285-.677h-4.856l.031-.07zm-19.403-.28l-4.454.053-.032-.971h4.486v.917zm-.556-8.01l-.083.217h.083v4.811H2.354V2.466h3.385v5.447zm.528.218h.3l-.3.896V8.13zm41.126 138.157c.001.02.094.894.2 3.712.335-3.38.699-6.766.943-10.159-.054-1.308-.113-2.616-.156-3.925-.246-.88-.252-1.684-.069-2.39 0-.027 0-.053-.002-.079a2687.4 2687.4 0 0 1-1.318-20.542c-.384-20.359 1.975-39.816 2.063-40.529.234-1.403.119-2.262.013-2.686 1.528-12.08 2.597-18.799 7.868-26.89.07-.105.136-.21.203-.312 1.464-2.28 2.48-4.238 3.205-5.901-.307-.908-.613-1.815-.917-2.723-.638 1.865-1.772 4.39-3.838 7.607l-.194.3c-5.23 8.025-6.522 14.988-7.949 26.032-.968-1.677-2.188-2.868-3.452-3.688 4.254-11.718 7.226-17.408 8.501-19.598-6.178 10.075-8.91 18.43-9.157 19.205-1.626-.892-3.262-1.213-4.468-1.213h-.157c-1.191 0-2.924.341-4.656 1.3-.057-.186-2.657-8.582-9.066-19.03 1.267 2.173 4.214 7.811 8.433 19.408a10.948 10.948 0 0 0-3.502 3.684c-1.43-11.083-2.718-18.058-7.958-26.101l-.194-.3c-4.27-6.648-4.625-10.43-4.646-11.27l.111-.042a.534.534 0 0 0 .328-.494c0-2.983 1.365-8.471 1.536-9.145.074-.122.174-.22.25-.285.507.02.964-.003 1.383-.059-2.227 9.977-.262 15.61-.262 15.61-1.308-6.615.412-13.98.864-15.723.616-.156 1.112-.414 1.477-.776.547-.542.626-1.137.635-1.352l.04-.207h3.784l.227.145s9.457 5.808 22.09-.073l4.285-.076.041.21c.01.216.088.81.635 1.353.17.168.372.31.598.432-.229-.885-.45-1.773-.66-2.663a5.368 5.368 0 0 1-.119-.76c-.044-.012-.083-.036-.131-.037l-1.407-.018-.05-.119h1.574a4.619 4.619 0 0 1 .08-1.2H39.728v-.067H6.656v-.428h47.772c-.046-.179-.096-.355-.143-.534H6.655v-.89h47.39c-.035-.14-.077-.277-.112-.417-.002-.01-.002-.018-.005-.027H6.656v-.89h47.127c-.01-.137.001-.264.002-.396-.066-.048-.131-.087-.198-.138H6.267v-.808l10.858.013v.261h7.125v-.252l11.085.015v.237h6.421v-.229l10.989.014c-.196-.2-.38-.405-.546-.619L6.778 9.708V9.44l.297-1.051 44.314.058a7.963 7.963 0 0 1-.263-.61L6.606 7.78v-.266l.297-1.051 43.825.057a11.407 11.407 0 0 1-.118-.599L6.663 5.864l-.239.246-.157.414V1.932H1.826v11.544h4.302v.862h-4.34l-.002-.042-.451-.091.173-12.697 45.595.037c-.105-.038-.2-.086-.299-.132-1.674.338-3.06-.183-4.04-1.13L.144.18 0 15.296l.501.101.062 1.93 7.052-.086v-1.052h8.318c0 .807.187 1.845.212 1.981.004.024.01.047.017.07.46 1.394.132 2.097.132 2.097a.543.543 0 0 0-.03.067c-.94 2.471-1.49 8.4-1.512 8.65a.547.547 0 0 0 .004.13c.073.48.302.757.518.918-.003 1.017.313 5.173 4.945 12.385l.202.312c5.272 8.092 6.341 14.81 7.87 26.89-.107.425-.222 1.284.012 2.687.088.713 2.447 20.17 2.064 40.529-.007.097-.034.55-.077 1.262-.12 6.014.501 12.036.692 18.075.675-9.98 1.222-19.11 1.23-19.243l.002-.04c.392-20.785-2.055-40.638-2.08-40.835a.272.272 0 0 0-.006-.04c-.21-1.247-.073-1.846-.043-1.954a.673.673 0 0 0 .073-.377c2.07-4.862 6.346-6.175 8.545-6.176l.042.001h.09c.743.007 5.936.273 8.37 6.12a.699.699 0 0 0 .067.432c.029.108.168.707-.043 1.954-.003.012-.003.026-.005.04-.026.197-2.473 20.05-2.08 40.836l.001.039c.012.198 1.2 20.051 2.245 33.257l.003.032z" fill="#554640" mask="url(#b)"/></g><path d="M103.516 127.736c-2.023-4.183-4.486-3.827-4.486-3.827-3.08 0-4.663 3.47-4.663 3.47 1.496-2.402 4.487-2.402 4.487-2.402 2.99-.267 4.662 2.759 4.662 2.759M98.843 129.427c3.337-.267 5.201 2.758 5.201 2.758-2.257-4.183-5.005-3.826-5.005-3.826-3.433 0-5.2 3.47-5.2 3.47 1.669-2.402 5.004-2.402 5.004-2.402M98.843 133.698c3.337-.266 5.201 2.76 5.201 2.76-2.257-4.184-5.005-3.828-5.005-3.828-3.433 0-5.2 3.471-5.2 3.471 1.669-2.403 5.004-2.403 5.004-2.403M98.837 138.682c3.567-.267 5.56 2.759 5.56 2.759-2.414-4.183-5.351-3.827-5.351-3.827-3.67 0-5.559 3.47-5.559 3.47 1.783-2.402 5.35-2.402 5.35-2.402M98.827 142.829c3.911-.237 6.097 2.439 6.097 2.439-2.646-3.698-5.868-3.383-5.868-3.383-4.026 0-6.096 3.068-6.096 3.068 1.955-2.124 5.867-2.124 5.867-2.124M104.484 148.204c-1.936-1.78-5.454-1.868-5.454-1.868-3.73 0-5.631 1.637-5.631 1.637 1.672-.57 5.436-.767 5.436-.767 3.01.02 5.649.998 5.649.998M98.379 184.565s-5.165-.096-6.64-7.202c0 0 .256 8.079 6.736 8.241 0 0 5.998.292 7.346-8.015 0 0-2.182 6.976-7.442 6.976" fill="#554640"/><path d="M98.379 179.342s-5.165-.098-6.64-7.204c0 0 .256 8.08 6.736 8.243 0 0 5.998.291 7.346-8.016 0 0-2.182 6.977-7.442 6.977" fill="#554640"/><path d="M98.49 175.448s5.698.24 6.978-6.564c0 0-2.028 5.59-7.025 5.59 0 0-4.95.044-6.351-5.775 0 0 .244 6.616 6.398 6.749" fill="#554640"/><path d="M98.535 169.841s-4.847.19-6.232-4.51c0 0 .241 5.345 6.322 5.452 0 0 5.63.193 6.895-5.301 0 0-2.047 4.36-6.985 4.36" fill="#554640"/><path d="M98.424 165.606s-4.788.16-6.156-3.811c0 0 .238 4.517 6.245 4.607 0 0 5.562.164 6.811-4.48 0 0-2.022 3.684-6.9 3.684M98.696 161.697s5.118.113 6.267-3.092c0 0-1.872 2.37-6.36 2.37 0 0-4.105-.065-5.653-2.457 0 0 .219 3.117 5.746 3.18M98.672 157.252s4.972.095 6.088-2.588c0 0-1.818 1.984-6.178 1.984 0 0-3.989-.054-5.493-2.057 0 0 .214 2.61 5.583 2.661M92.993 150.373s.195 2.437 5.564 2.49c0 0 4.596.194 6.107-2.417 0 0-1.992 1.767-6.178 1.717 0 0-3.99.213-5.493-1.79M112.494 83.517c.228-.372.46-.747.7-1.124 0 0-.24.336-.7 1.124M84.99 83.779c-.458-.784-.696-1.119-.696-1.119.237.375.468.748.695 1.119" fill="#554640"/><g><path d="M212.143 57.275l-.227-14.207h2.134l.077 14.207h-1.984zm-.924-.538l-.502-1.387h.502l-.431-1.386.422.001.046 2.882-.037-.11zm-.036-4.416l.026 1.607-.439-1.608h.413zm-.022-1.415l.02 1.29-.39-1.29h.37zm-.025-1.529l.021 1.301-.355-1.302.334.001zm3.79-7.198h-3.905l.049 3.063h-45.097a4.435 4.435 0 0 1-.825 1.411h45.944l.039 2.4-.524-1.923-45.833-.062a5.696 5.696 0 0 1-.755.59c-.07.045-.145.082-.218.122-.018.048-.035.096-.055.143l46.33.065.339.672-46.925-.065c-.1.284-.188.57-.27.857l46.856.064.392.777-47.454-.064c-.063.259-.123.52-.177.781l47.239.059.364.65-47.734-.066c-.053.285-.1.571-.146.858l47.516.065.392.776-48.028-.066c-.04.263-.079.526-.116.79l47.752.057.392.68-48.243-.058-.132.885 47.983.05.392.585-48.486-.05c-.043.246-.094.488-.142.732l2.365.002v.558h32.575v-.524l9.217.01v.514h2.058v-.513l3.204.004.028 1.77h3.728l-.09-16.6z" fill="#554640"/><path d="M209.634 40.255h-38.005c-.056.02-.108.05-.164.068-.811.264-1.803.206-2.672-.068h-.2c-.483.283-.999.524-1.54.717-.048.018-.098.03-.146.046h41.981l.032 2.806-42.675-.046a4.78 4.78 0 0 1-.08.762l43.519.047-.05-4.332z" fill="#554640"/><path d="M171.279 42.427l-.02-.003a.301.301 0 0 1-.3-.303c0-.167.135-.302.3-.302.165 0 .299.135.299.302 0 .167-.114.306-.279.306m.583-.286a.55.55 0 0 0-.545-.551c-.301 0-.545.248-.545.551 0 .304.244.55.545.55.3 0 .545-.246.545-.55M204.382 42.302l-.02-.002a.301.301 0 0 1-.3-.303c0-.167.134-.303.3-.303.164 0 .299.136.299.303 0 .167-.114.305-.28.305m.038-.836c-.3 0-.545.247-.545.55 0 .304.244.551.545.551a.55.55 0 1 0 0-1.101M187.561 43.35l-.02-.003a.301.301 0 0 1-.3-.303c0-.167.135-.302.3-.302.165 0 .3.135.3.302 0 .167-.115.306-.28.306m.038-.837c-.3 0-.545.248-.545.551 0 .304.244.55.545.55.3 0 .545-.246.545-.55a.55.55 0 0 0-.545-.55M185.707 42.58l-.015-.001a.221.221 0 0 1 0-.443c.12 0 .22.1.22.222 0 .121-.084.223-.205.223m.028-.612c-.221 0-.4.181-.4.403a.4.4 0 0 0 .4.402.4.4 0 0 0 .398-.402.401.401 0 0 0-.398-.403M205.632 43.042l-.015-.002a.22.22 0 0 1-.22-.221c0-.122.1-.222.22-.222s.219.1.219.222c0 .121-.083.223-.204.223m.028-.612c-.22 0-.4.181-.4.403a.4.4 0 0 0 .4.402.4.4 0 0 0 .398-.402.401.401 0 0 0-.398-.403M170.027 42.695a.251.251 0 0 0-.25.252.25.25 0 0 0 .25.251.25.25 0 0 0 .25-.25.25.25 0 0 0-.25-.253M190.267 42.354a.251.251 0 0 0-.25.252.25.25 0 0 0 .25.251.25.25 0 0 0 .25-.251.251.251 0 0 0-.25-.252M206.108 41.61a.251.251 0 0 0-.25.252.25.25 0 0 0 .25.251.25.25 0 0 0 .25-.251.251.251 0 0 0-.25-.252M168 42.033a.169.169 0 0 0-.168.17c0 .093.075.17.168.17a.17.17 0 0 0 .169-.17.169.169 0 0 0-.169-.17M188.175 41.646a.169.169 0 0 0-.168.17c0 .093.075.17.168.17a.17.17 0 0 0 .168-.17.169.169 0 0 0-.168-.17M172.797 41.844a.226.226 0 0 0-.225.226c0 .125.1.227.225.227a.226.226 0 0 0 .224-.227c0-.125-.1-.226-.224-.226M171.736 43.02a.143.143 0 0 0-.142.144c0 .08.063.144.142.144a.143.143 0 0 0 .143-.144.143.143 0 0 0-.143-.144M172.494 42.627a.143.143 0 0 0-.143.144.143.143 0 0 0 .285 0 .143.143 0 0 0-.142-.144M175.421 42.916a.143.143 0 0 0-.142.144c0 .08.063.145.142.145a.143.143 0 0 0 .143-.145.143.143 0 0 0-.143-.144M177.223 41.942a.143.143 0 0 0-.143.145c0 .08.064.144.143.144a.143.143 0 0 0 .143-.144.143.143 0 0 0-.143-.145M182.955 43.082a.143.143 0 0 0-.142.144c0 .08.063.144.142.144a.143.143 0 0 0 .142-.144.143.143 0 0 0-.142-.144M190.693 41.718a.143.143 0 0 0-.143.144c0 .08.064.144.143.144a.143.143 0 0 0 .143-.144.143.143 0 0 0-.143-.144M203.038 42.628a.143.143 0 0 0-.143.144c0 .08.064.144.143.144a.143.143 0 0 0 .142-.144.143.143 0 0 0-.142-.144M207.602 42.895a.143.143 0 0 0-.143.145c0 .08.064.144.143.144a.143.143 0 0 0 .143-.144.143.143 0 0 0-.143-.145M199.25 41.842a.143.143 0 0 0-.143.144c0 .08.064.144.143.144a.143.143 0 0 0 .143-.144.143.143 0 0 0-.143-.144M193.702 43.144a.143.143 0 0 0-.142.144c0 .08.063.144.142.144a.143.143 0 0 0 .143-.144.143.143 0 0 0-.143-.144M207.191 61.185c-.057-.197-.267-.332-.643-.413l-.052.248c.37.08.44.192.454.236.016.054-.016.112-.042.15-15.814.326-36.16.18-46.211.073l-.077.254c5.423.057 13.88.127 23.025.127 7.775 0 16.037-.052 23.326-.202l.05-.001.037-.035c.074-.075.187-.252.133-.437" fill="#554640"/><path d="M209.534 60.317c0 .063-.056.113-.127.113h-1.471c-.07 0-.127-.05-.127-.113v-1.506c0-.061.057-.112.127-.112h1.471c.07 0 .127.05.127.112v1.506zm.984.458l-.404-.203a.715.715 0 0 0 .05-.255v-1.506a.753.753 0 0 0-.757-.747h-1.471a.774.774 0 0 0-.22.036l-.002-.04-26.651-.083v-.003h-.748v.003l-18.685.058c-.05.213-.107.424-.158.635l19.217-.06 25.763.08c.007.026.015.05.015.078a.283.283 0 0 1-.278.286h-44.817c-.021.085-.044.169-.067.254h44.884c.153 0 .278.128.278.286a.282.282 0 0 1-.141.243.505.505 0 0 0-.137-.021h-45.016c-.028.106-.053.212-.083.317h45.099a.505.505 0 0 0 .137-.02c.083.05.14.138.14.243a.282.282 0 0 1-.277.286h-45.236c-.024.085-.052.169-.078.254h45.314a.543.543 0 1 0 .375-.92.543.543 0 0 0-.038-.795.542.542 0 0 0 .185-.49l.396.002.084 2.367 2.576.046.502.254.039 4.205c0 .476-.718.663-.718.663 1.026-.021 1.026-.456 1.026-.456l.176-4.29c.237.073.499.207.499.445l-.083 3.875c-.003.03-.07.726-.526.726l-29.993.082-21.645-.059c-.07.212-.142.422-.212.635l20.812.056v.006l1.045-.003 1.045.003v-.006l28.949-.08c.826 0 1.115-.855 1.152-1.326l.085-3.903c0-.803-.852-1.1-1.402-1.158z" fill="#554640"/><g transform="translate(156 38)"><mask id="d" fill="#fff"><use xlink:href="#c"/></mask><path d="M59.401 25.246h-1.36l.124-1.329h1.333l-.097 1.33zm-.237 3.25l-1.485.64.102-1.095h1.416l-.033.455zM57.97 26.01h1.066l-.157 1.27h-1.027l.118-1.27zM44.45 42.873l-.204.14c-.526-1.486-1.38-2.47-2.538-2.927-1.047-.414-2.167-.33-3.094-.106 2.962-2.418 4.587-5.78 5.339-7.74.189-.331.369-.674.536-1.034.692.89 3.644 5.298-.04 11.667zm-3.006 3.968c-1.13 1.029-9.551 8.87-9.833 14.006-.58 1.757-1.249 4.53-1.7 8.734-.029-2.581.004-5.314.2-7.098 0 0 5.413-12.472 2-16.035 0 0 2.471 2.85-2.706 15.204 0 0-.75 0 .178 11.92a116.558 116.558 0 0 0-.193 5.985c-.123 1.258-.493 1.763-.73 1.959-.306.253-.613.194-.615.193l-.061-.015H20.98l-.059-.003-.066.02c-.027.006-.27.053-.527-.154-.278-.225-.746-.897-.746-2.876h-.08c-.01-.69-.024-1.358-.044-2.005 1.31-15.022.434-15.024.434-15.024-5.176-12.354-2.706-15.204-2.706-15.204-3.412 3.563 2 16.035 2 16.035.3 2.717.218 7.635.12 10.864-.726-11.72-3.085-15.001-3.21-15.167l-.062.047c-2.09-4.84-8.194-10.521-9.143-11.386-1.174-1.251-2.083-2.45-2.78-3.59l.536.371a.249.249 0 0 0 .225.03.253.253 0 0 0 .158-.164c.466-1.511 1.255-2.497 2.346-2.93 2.05-.81 4.55.57 4.705.657a.25.25 0 0 0 .351-.09.256.256 0 0 0-.092-.346l-.028-.015c-4.616-2.65-6.639-7.836-7.218-9.62l.66-.003c.305 1.614 2.658 9.555 19.197 8.971.26.025 1.044.091 2.167.091 3.65 0 10.874-.698 15.271-5.748-1.148 2.152-2.995 4.7-5.8 6.309a.256.256 0 0 0-.12.361.25.25 0 0 0 .341.096l.012-.007c.172-.097 2.655-1.463 4.7-.655 1.093.43 1.883 1.417 2.349 2.93.019.06.063.105.115.137-.663 1.026-1.499 2.1-2.544 3.215zM32.21 66.39a.903.903 0 0 0-.092.357l-.751 16.193-.742 3.746a.888.888 0 0 0-.016.24l.688 9.478c-.956-.705-2.027-1.15-3.036-1.43.401-4.455 2.063-5.93 2.076-5.941l.19-.157-.09-4.484c-.04-1.701-.052-3.293-.04-4.789.027-.299.042-.617.042-.958h-.03c.125-8.217.995-13.272 1.797-16.221.408.523 1.068 1.82.004 3.966zm-7.625 32.746h-.263c-3.95 0-6.43 1.363-7.862 2.587l.4-3.436c2.07-2.763 5.923-3.011 7.21-3.011.167 0 .262.005.287.006l.21-.001c.004 0 .102-.005.274-.005 1.151 0 4.36.195 6.536 2.18l.431 3.705c-1.51-1.039-3.833-2.025-7.223-2.025zM20 85.596c.286.28.623.485 1.006.618l-.36 2.425s.083.595-.646.602a5.383 5.383 0 0 0-.609-.811l.072-3.568c.14.265.314.517.537.735zm8.512-.546c-.538.527-1.357.698-2.43.506a.379.379 0 0 0-.438.433l-.03-.018c1.007 2.795-.755 3.685-.755 3.685 2.517 1.524-.251 4.827-.251 4.827.168 0 .374.014.595.036a13.148 13.148 0 0 0-.362-.005c-.186 0-.296.005-.297.005l-.167.001s-.11-.006-.307-.006c-.098 0-.234.002-.396.008.231-.024.446-.039.62-.039 0 0-2.768-3.303-.25-4.827 0 0-1.634-.826-.855-3.384a.38.38 0 0 0-.232-.716c-1.074.192-1.89.022-2.43-.505-.737-.72-.842-1.96-.831-2.706l.044.037a1.66 1.66 0 0 0 1.294.329h6.84a1.803 1.803 0 0 0 1.387-.38c.028-.021.054-.046.081-.07.02.733-.064 2.038-.83 2.789zm-.609 1.205a2.68 2.68 0 0 0 1.542-1.166l.066 3.34a5.383 5.383 0 0 0-.608.812c-.73-.007-.646-.602-.646-.602l-.354-2.384zM16.216 66.747a.887.887 0 0 0-.092-.357c-1.372-2.772.093-4.1.256-4.235a.87.87 0 0 0 .184-.203c1.005 3.456 2.195 10.21 1.901 22.442l-.085 4.235v.244l.182.156c.017.015 1.687 1.497 2.083 5.98-1.23.354-2.563.963-3.651 2.002l.73-10.086c.006-.08.002-.16-.014-.239l-.742-3.746-.752-16.193zm-12.324-35.6l.675-.002c.462 1.47 2.083 5.864 5.722 8.835-.927-.224-2.046-.308-3.093.106-1.16.457-2.012 1.441-2.54 2.927l-1.118-.773c-3.223-6.185-.211-10.39.354-11.093zm7.91-.025l2.445-.008v5.688a14.403 14.403 0 0 1-2.488-1.135l.044-4.545zm3.452 1.746h1.111v-1.312h16.36v1.312h1.236v3.77H15.254v-3.77zm0-.508h.609v-.804h-.609v.804zm17.974 0h.733v-.804h-.733v.804zm1.74-1.312l2.012-.005.063 4.966c-.678.347-1.374.639-2.075.884v-5.845zm-.59 83.481l.088 1.244-.983-1.106a50.532 50.532 0 0 0-.09-.936l.985.798zm-.745 2.358a60.1 60.1 0 0 0-.149-2.216l1 1.836-.85.38zm1.387 1.735l-.5.898a.894.894 0 0 0-.11.422l-.697-.496-.032-1.405a68.83 68.83 0 0 0-.025-.673l1.293.915.07.34zm-.115 12.035a.902.902 0 0 0-.018.459l-.928-1.045-.025-1.118 1.232.87-.26.834zm.213 3.477c-.013.018-.018.04-.029.058l-1.062-1.195-.01-.448 1.456 1.03-.355.555zm.598 2.454l-.418.806a.92.92 0 0 0-.054.138l-1.082-1.215 1.01 1.854-1.014.454-.074-3.163 1.6 1.047.032.079zm-.317 7.58l-1.143-1.285-.011-.464 1.45.905-.296.844zm-1.21-4.213l.95 1.744-.902.38-.048-2.124zm-.026-1.103l1.449 1.026-.251.704a.897.897 0 0 0-.012.568l.028.09-1.19-1.34-.024-1.048zm-.132-5.701l.8 1.468-.758.34-.042-1.808zm-.068-2.904l.77 1.412-.73.326-.04-1.738zm-.086-3.751l.896 1.644.006.018-.855.384-.047-2.046zm-.002-.077l-.02-.876 1.147.731-.327 1.045-.8-.9zm-.069-2.977l.633 1.163-.6.27-.033-1.433zm-.035-1.543l1.102.78-.37.738a.906.906 0 0 0-.077.243l-.628-.573-.027-1.188zm-.052-2.207l.963 1.43-.92.413-.043-1.843zm-18.778-5.961a60.18 60.18 0 0 0-.09.936l-.982 1.106.088-1.244.984-.798zm-.24 3.156l-.85-.38 1-1.836c-.06.689-.11 1.428-.15 2.216zm-.047 1.156l-.033 1.403-.697.496a.883.883 0 0 0-.11-.422l-.5-.898.072-.34 1.292-.914c-.01.22-.018.445-.024.675zm-.082 3.492l-.92-.413.963-1.43-.043 1.843zm-.036 1.552l-.627.573a.943.943 0 0 0-.077-.243l-.371-.737 1.104-.78-.029 1.187zm-.04 1.787l-.601-.27.634-1.162-.034 1.432zm-.037 1.545l-.8.901-.327-1.046 1.148-.731-.02.876zm-.048 2.123l-.856-.384.007-.018.896-1.644-.047 2.046zm-.036 1.53l-.928 1.044a.902.902 0 0 0-.018-.459l-.26-.833 1.232-.87-.026 1.117zm-.044 1.913l-.73-.326.77-1.412-.04 1.738zm-.024 1.012l-1.062 1.195c-.01-.019-.016-.04-.027-.058l-.356-.555 1.456-1.03-.01.448zm-.045 1.961l-.758-.34.8-1.467-.042 1.807zM61.805 3.933C60.888.827 58.558.3 57.4.453H18.058a4.402 4.402 0 0 1-1.543 1.396H57.45l.107-.008c.084-.013 2.046-.291 2.889 2.388l-.482 18.29h-3.06l-.646 6.938-52.632.166a.87.87 0 0 0-.615.003h-.327C1.923 31.94 1.221 34.27.78 36.682c-.084.46-.22.865-.39 1.228.28 2.762 1.576 6.276 5.247 10.181l.05.05c2.63 2.39 9.26 9.226 9.291 12.906-.907.96-1.867 3.077-.513 5.966l.746 16.08a.9.9 0 0 0 .017.132l.73 3.692-.744 10.278-1.077 9.254-1.787 6.124a.916.916 0 0 0-.034.188l-.217 3.06-.577 2.764a.894.894 0 0 0 .095.619l.446.802-.724 1.666a.896.896 0 0 0 .02.76l.706 1.4-.66 1.394a.903.903 0 0 0-.045.652l.53 1.693-.597 1.474a.899.899 0 0 0-.026.603l.404 1.298-.654 2.493a.892.892 0 0 0 .111.71l.358.56-.653 1.581c-.1.245-.089.52.033.755l.04.076a5.359 5.359 0 0 1 2.276-.959l1.068-.699-.014.623c.126.003.252.009.377.02l.02-.894.08-.052-.032-.013 1.87-1.324-1.187-.532.958-1.759-1.391 1.565-.065-.03-.215 1.382.05-2.172.108-.075-.03-.015 1.87-1.323-1.23-.552 1-1.838-1.453 1.635h-.003l-.248 1.6.07-3.063 1.815-1.284-1.23-.552 1.001-1.838-1.454 1.635-.002-.001v.005l-.097.614.045-1.925.24-.153-.031-.013 1.87-1.324-1.23-.552 1.001-1.838-1.454 1.635h-.002l-.001.004-.313 2.017-.074-.033.08-3.474 1.847-1.306-1.172-.525.991-1.82-1.439 1.619-.067-.03-.131.85.053-2.303c.01-.33.024-.648.038-.962l.034-.024-.031-.013 1.87-1.324-1.235-.554 1.006-1.846-1.457 1.638.013.012-.012-.006-.1.648c.057-.804.127-1.548.205-2.233l.159-.128 2.004-1.186-1.182-.65 1.005-1.844-1.43 1.609-.012-.007-.006.028-.009.008.005.004-.475 1.988-.036-.013c.514-4.31 1.352-6.254 1.364-6.279a.192.192 0 0 0-.095-.252.188.188 0 0 0-.25.096c-.046.103-.875 2.013-1.388 6.297l-.759-.282.99-1.817-.88.99 1.48-5.072a.879.879 0 0 0 .03-.148l.448-3.838c1.147-1.213 3.583-2.995 7.997-2.995h.264c3.64 0 5.98 1.228 7.345 2.324l.525 4.509c.006.05.016.1.03.148l1.482 5.073-.88-.99.989 1.816-.76.282c-.512-4.283-1.34-6.194-1.388-6.297-.042-.096-.154-.14-.249-.096a.192.192 0 0 0-.094.252c.01.025.85 1.97 1.364 6.278l-.036.014-.476-1.988.005-.004-.008-.008-.006-.028-.012.007-1.43-1.61 1.004 1.844-1.181.65 2.004 1.187.158.128c.079.686.148 1.43.206 2.233l-.1-.648-.013.006.013-.012-1.457-1.638 1.006 1.846-1.235.554 1.87 1.324-.03.013.033.024c.014.313.027.631.039.96l.053 2.305-.132-.85-.067.03-1.44-1.62.992 1.82-1.171.526 1.845 1.306.081 3.474-.073.033-.314-2.017v-.005l-.003.001-1.454-1.635 1.002 1.838-1.231.552 1.87 1.324-.03.013.239.153.045 1.925-.096-.614v-.005l-.003.001-1.453-1.635 1 1.838-1.23.552 1.815 1.284.07 3.062-.248-1.6-.003.001-1.453-1.635 1.002 1.838-1.232.552 1.87 1.323-.03.015.107.075.051 2.171-.214-1.38-.066.029-1.391-1.565.958 1.76-1.187.531 1.87 1.324-.03.013.078.052.03 1.323-1.376-1.55 1.001 1.838-1.231.552 1.653 1.17.046 1.974-.061-.393v-.004l-.003.001-1.454-1.635 1.001 1.837-1.231.553 1.786 1.263.013.602c.05.075.103.145.151.225.086.142.159.285.241.426l-.01-.498.995 1.827-.202.09c.329.635.624 1.274.904 1.915.552-4.512.993-9.037.652-13.644-.048-.642.02-1.21.168-1.717l-.111-.421.404-1.298a.893.893 0 0 0-.025-.603l-.597-1.474.529-1.693a.894.894 0 0 0-.045-.652l-.659-1.393.705-1.402a.896.896 0 0 0 .02-.76l-.724-1.665.447-.802a.898.898 0 0 0 .094-.62l-.576-2.763-.217-3.06a.916.916 0 0 0-.034-.188l-1.788-6.124-.274-2.363c.007-.002.017-.001.024-.004a.38.38 0 0 0 .258-.406l-.457-3.971a.38.38 0 0 0-.023-.091 7.26 7.26 0 0 0-.433-.938l-.172-1.481-.744-10.278.73-3.692a.79.79 0 0 0 .017-.133l.747-16.079c1.353-2.889.394-5.006-.514-5.966.031-3.677 6.662-10.516 9.292-12.907l.05-.049c5.052-5.376 5.618-10.018 5.203-12.964a11.214 11.214 0 0 0-1.426-4.114l10.774-.034 3.353-1.444.41-5.617h.3l.525-19.877-.032-.107z" fill="#554640" mask="url(#d)"/></g><path fill="#554640" d="M191.476 179.557l-.036.015.032-.028zM208.696 59.267c.125 0 .228.107.228.238 0 .13-.103.238-.228.238a.234.234 0 0 1-.229-.238c0-.131.103-.238.229-.238m0 .73c.264 0 .48-.221.48-.492a.487.487 0 0 0-.48-.492.487.487 0 0 0-.48.492c0 .271.215.492.48.492M176.015 73.536h2.265l.188-.508-.063-2.604-.251-.19-.063 2.667-1.762-.064-.063-2.35-.629-.317.063 2.922zM182.495 73.536h2.265l.189-.508-.063-2.604-.252-.19-.063 2.667-1.761-.064-.063-2.35-.63-.317.064 2.922zM209.484 63.376c.07-.03.435-.21.435-.493 0-.167-.122-.31-.369-.438.136-.086.397-.284.367-.52-.033-.26-.387-.35-.504-.38a.125.125 0 0 0-.153.092.128.128 0 0 0 .091.155c.24.06.312.133.316.166.01.068-.136.204-.28.29-11.262.483-35.911.272-48.961.115-.027.084-.051.17-.077.253 6.992.085 17.34.185 27.194.185 8.43 0 16.48-.074 21.713-.293.001.048.03.094.077.114.246.107.334.205.335.262 0 .084-.154.197-.276.255-11.345.819-36.303.454-49.273.188l-.083.252c6.993.144 17.5.317 27.507.317 8.439 0 16.5-.124 21.735-.494-.004.006-.009.01-.011.017a.128.128 0 0 0 .066.167c.246.105.334.204.335.26 0 .084-.154.199-.276.257-11.44.825-36.716.447-49.59.18l-.084.252c6.99.145 17.668.325 27.825.325 8.521 0 16.66-.126 21.89-.506a.148.148 0 0 0 .04-.01c.046-.02.446-.202.446-.497 0-.182-.144-.336-.435-.47"/><path d="M209.431 64.508a.126.126 0 0 0-.165.067.128.128 0 0 0 .066.167c.248.105.335.204.335.26 0 .084-.153.199-.275.256-11.552.834-37.22.439-49.971.173-.03.084-.057.168-.086.253 6.977.146 17.862.332 28.207.33 8.522 0 16.661-.125 21.891-.504a.127.127 0 0 0 .04-.01c.046-.02.447-.203.446-.497 0-.193-.16-.355-.488-.495M175.387 172.791c.82-.718 5.577-4.468 10.027.714l.013 1.78c-.52-.865-2.122-2.975-5.356-2.899 0 0-2.436-.265-4.698 2.373l.014-1.968zm.02-2.787c.354-.333 5.335-4.851 9.987.596l.013 1.858c-.54-.886-2.143-2.942-5.336-2.867 0 0-2.422-.263-4.679 2.35l.014-1.937zm.021-3.09c.923-.795 5.575-4.33 9.944.702l.015 1.925c-.557-.906-2.138-2.903-5.25-2.829 0 0-2.468-.272-4.725 2.472l.016-2.27zm.02-3.056c.016.197.053.314.142.07 0 0 5.044-5.043 9.76.518l.015 2.103c-.578-.918-2.178-2.874-5.294-2.8 0 0-2.393-.26-4.637 2.303l.015-2.194zm.01-1.14c0-1.962.087-3.667.238-5.152.225-.222 4.937-4.746 9.43.265.065.69.117 1.426.153 2.211-.625-.965-2.152-2.715-4.98-2.645 0 0-2.52-.288-4.755 2.688 0 0-.047 1.152.142.624 0 0 4.972-5.018 9.633.478.012.494.02 1.004.02 1.534l.004.644c-.585-.937-2.133-2.822-5.096-2.75 0 0-2.539-.287-4.794 2.68l.004-.577zm4.656-15.034l.036-.006c.001 0 .086-.016.23-.016.094 0 .191.006.297.02.039.006 3.205.534 4.296 8.796-.758-.978-2.23-2.275-4.674-2.214 0 0-2.33-.265-4.495 2.36 1.074-8.4 4.275-8.936 4.31-8.94zm-2.543 26.526c1.357-.6 3.182-.95 5.12-.052 1.53.484 2.704 1.468 3.502 2.733l-.099-14.173c0-15.077-5.118-15.771-5.323-15.791a2.916 2.916 0 0 0-.391-.028c-.186 0-.313.02-.363.029-.415.056-5.315 1.038-5.315 15.788l-.09 12.802c.743-.9 1.817-1.317 2.959-1.308z" fill="#554640"/></g><g transform="translate(60 11)"><path d="M116.364 22.07c-.729-.497-1.657-.737-2.152-.836l-.074-13.91c.506 1.123 1.26 2.291 2.384 3.138l-.158 11.608zm-.012.913c-.052.47-.305 1.683-.928 2.197l-3.397 3.663-3.038.077 1.077-1.708.187-4.86h1.591c-1.338 1.167-.789 3.854-.789 3.854.124-2.231 1.32-3.336 2.214-3.854l1.056-.013c.731-.025 1.46.271 2.028.59l-.001.054zm-7.597 3.552l-30.941.481-31.053-.785-.197-3.045 62.324-.096-.133 3.445zm-1.126 2.419l-30.362.763-28.83-.674-1.177-1.915 30.55.772 30.494-.474-.87 1.38.195.148zm-63.64-.015l-4.356-5.453a2.673 2.673 0 0 1-.116-.239 8.651 8.651 0 0 1 2.155-.752v.004h.662c.902.442 2.352 1.532 2.49 4.001 0 0 .6-2.932-.981-4h1.338l.28 4.324 1.34 2.18-2.811-.065zM39.264 9.894a8.784 8.784 0 0 0 2.177-2.197l.216 13.736c-.546.11-1.592.385-2.336.976-.003-.096 0-.194.016-.291l.013-.082-.086-12.142zm5.34-4.431l.077 14.642-1.976.055-.231-14.697h2.13zm68.536 14.902l.003.808h-1.964l-.014-.895 1.975.087zm-.079-14.902l.075 14.312-1.98-.087-.225-14.225h2.13zM46.83 3.745l61.998.097v4.616H46.867l-.037-4.713zM44.686 21.32h-1.964l-.009-.573 1.97-.054.003.627zm1.025-8.354l-.007-1.416h.455l-.448 1.416zm.01 2.125l-.005-1.209h.388l-.382 1.209zm.348 3.112l-.325 1.028-.006-1.029.331.001zm-.336-.987l-.006-1.174.377.001-.37 1.173zm64.11-12.933l.084 5.284-2.106-.024.004.045H47.68l.002-.04-1.987.002-.028-5.267h-2.208c-.021-.5.028-.807.064-.96l2.503-.015.048 6.033h63.557V3.396l2.49.029c.074.047.292.243.3.86h-2.578zm.222 14.018l.017 1.08-.345-1.08h.328zm-.034-2.16l.017 1.083-.346-1.083h.329zm-.565-4.591h.492l.034 2.194-.526-2.194zm-.03 2.43h.56l.029 1.854-.59-1.854zm-17.544 6.49l17.242.026.382.966-16.422-.09a4.61 4.61 0 0 0-1.202-.902zm-9.613.064h6.592c.024.001 1.964.11 3.264 1.108l-9.856.015v-1.123zm-35.623-4l62.495.097.297.932-63.087-.096.295-.934zm0-2.16l62.228.097.297.932-62.82-.096.295-.934zm36.22-3.136c.335-.53 1.1-1.246 2.778-1.356h22.21l.174 1.396-25.162-.04zm-35.312-.054l.094-1.302H70.87c.832.245 1.873.67 2.354 1.341l-25.661-.04zm61.277 1.127l.414.932-62.894-.096.295-.934 62.185.098zm-62.433 7.28l.271-.86 62.448.097.274.86-20.436-.033-.077-.005h-2.966l-39.514-.06zm16.499 1.78l-16.458.09.421-1.06 17.344.026a5.026 5.026 0 0 0-1.307.944zm4.483-.837h6.543v1.135l-10.11.016c.6-.47 1.714-1.068 3.567-1.15zM43.048 2.321h69.297l.036.002.05-.007.035-.001c.314 0 .675.418.68 1.386l.005.092c.004.035.023.213.07.491h-.401c-.015-1.06-.564-1.28-.59-1.289a.173.173 0 0 0-.061-.011l-2.939-.034v.01l-63.21-.1v.007l-2.64.017a.198.198 0 0 0-.178.119c-.02.042-.177.414-.144 1.281h-.418a6.94 6.94 0 0 0 0-.95c-.004-.056-.022-.807.408-1.013zm74.681 6.893c-2.41-1.53-2.93-5.178-2.981-5.58-.033-2.06-1.245-2.792-2.282-2.792a2.13 2.13 0 0 0-.159.006H42.79l-.115.04c-1.4.475-1.68 1.896-1.633 2.58.224 3.28-2.918 5.12-2.949 5.136l-.439.248.36 13.038c-.076 1.922.241 2.51.323 2.638l5.184 5.867 33.734 1.089h.02l35.389-1.19 3.984-4.53c1.245-1.316 1.28-2.398 1.302-2.636l.189-13.655-.409-.26z" fill="#554640"/><path d="M57.956 25.384c.39.186 1.054.281 2.016-.293.145.168.486.495.963.542.385.038.771-.117 1.146-.456.152.186.479.515.942.565.4.046.807-.13 1.207-.518.156.187.492.517.937.533.359.015.703-.175 1.028-.562.17.212.53.582 1.005.607.347.02.682-.148.996-.5.143.236.44.624.879.681.39.051.785-.17 1.182-.652.17.208.528.57.996.593.346.018.682-.154.994-.51.155.231.48.621.92.64h.032c.348 0 .684-.235 1.002-.7.171.235.527.627 1.023.686.428.05.859-.157 1.28-.62.264.12.636.344.71.546l.247-.109c-.151-.417-.865-.714-.946-.747a.124.124 0 0 0-.142.037c-.38.44-.754.644-1.12.6-.569-.067-.936-.716-.94-.723a.131.131 0 0 0-.111-.07.133.133 0 0 0-.114.065c-.304.503-.61.745-.91.74-.464-.018-.795-.65-.798-.656a.13.13 0 0 0-.105-.074.126.126 0 0 0-.114.051c-.29.38-.593.563-.895.55-.514-.025-.892-.608-.896-.613a.133.133 0 0 0-.104-.063.13.13 0 0 0-.108.054c-.37.495-.725.722-1.05.683-.478-.061-.766-.692-.77-.699a.133.133 0 0 0-.102-.08.123.123 0 0 0-.119.05c-.293.378-.599.564-.903.546-.52-.028-.9-.621-.905-.627a.131.131 0 0 0-.104-.063.127.127 0 0 0-.109.054c-.3.402-.609.602-.918.59-.48-.017-.823-.532-.827-.536a.131.131 0 0 0-.097-.062.126.126 0 0 0-.105.042c-.373.398-.743.583-1.098.543-.514-.055-.84-.562-.843-.568a.13.13 0 0 0-.095-.062.126.126 0 0 0-.105.038c-.35.353-.703.514-1.046.482-.515-.048-.852-.52-.855-.524a.127.127 0 0 0-.173-.038c-1.723 1.087-2.372-.092-2.399-.142l-.232.147c.009.015.206.389.653.602M78.541 25.857l.248.109c.073-.202.446-.426.71-.546.422.462.852.671 1.28.62.497-.06.851-.451 1.024-.686.317.465.652.7 1 .7h.033c.44-.018.764-.408.92-.64.312.356.648.528.994.51.468-.023.827-.384.995-.594.397.484.796.704 1.183.654.438-.057.736-.445.88-.681.314.351.65.519.996.5.473-.027.834-.397 1.004-.608.325.386.67.578 1.028.561.446-.016.78-.344.937-.532.4.388.805.563 1.207.518.463-.051.79-.38.941-.566.375.34.76.495 1.146.456.478-.045.82-.374.964-.541.961.574 1.625.48 2.015.292.448-.213.645-.585.653-.602l-.232-.145c0 .002-.16.303-.527.478-.497.237-1.145.12-1.872-.337a.126.126 0 0 0-.172.038c-.003.005-.336.475-.853.524-.344.035-.698-.129-1.049-.483a.126.126 0 0 0-.105-.037.132.132 0 0 0-.095.063c-.002.004-.328.512-.843.568-.355.038-.724-.146-1.098-.545a.124.124 0 0 0-.105-.04.132.132 0 0 0-.096.06c-.003.005-.347.52-.826.537-.312.01-.62-.187-.92-.59-.027-.036-.071-.058-.108-.054a.131.131 0 0 0-.104.064c-.004.005-.385.599-.905.626-.31.017-.61-.167-.903-.547a.126.126 0 0 0-.118-.05.134.134 0 0 0-.103.081c-.003.006-.292.638-.77.699-.325.04-.679-.188-1.05-.683a.13.13 0 0 0-.108-.053.131.131 0 0 0-.104.061c-.003.007-.382.59-.897.614-.304.013-.605-.17-.895-.55a.127.127 0 0 0-.114-.052.135.135 0 0 0-.104.074c-.003.007-.331.638-.798.656-.296.012-.607-.235-.91-.738a.129.129 0 0 0-.114-.066.133.133 0 0 0-.112.07c-.004.007-.367.655-.939.723-.364.044-.74-.16-1.12-.6a.126.126 0 0 0-.143-.037c-.08.032-.794.33-.946.747M87.783 6.741c-.18 0-.326-.16-.326-.359 0-.198.124-.362.304-.362l.022.003c.18 0 .325.161.325.36 0 .197-.146.358-.325.358m-.064-1.035c-.326 0-.592.293-.592.653 0 .36.266.654.592.654.327 0 .593-.294.593-.654 0-.36-.266-.653-.593-.653M51.796 6.888c-.18 0-.325-.16-.325-.358 0-.198.124-.363.304-.363l.021.003c.18 0 .326.162.326.36 0 .198-.146.358-.326.358m-.063-1.035c-.327 0-.592.293-.592.653 0 .36.265.654.592.654.327 0 .592-.293.592-.654 0-.36-.265-.653-.592-.653M96.573 6.52c-.179 0-.325-.16-.325-.359 0-.197.124-.362.304-.362l.021.004c.18 0 .326.16.326.358 0 .198-.146.36-.326.36m-.062-1.036c-.328 0-.593.292-.593.653 0 .36.265.654.593.654.326 0 .592-.294.592-.654 0-.36-.266-.653-.592-.653M70.082 5.645c-.18 0-.325-.161-.325-.36 0-.197.123-.362.303-.362l.022.003c.18 0 .325.162.325.36 0 .198-.145.359-.325.359m-.063-1.036c-.327 0-.593.292-.593.653 0 .36.266.654.593.654.327 0 .592-.293.592-.654 0-.36-.265-.653-.592-.653M104.246 6.593c-.131 0-.238-.118-.238-.263 0-.145.09-.265.222-.265l.016.003c.132 0 .239.117.239.262 0 .145-.107.263-.239.263m-.046-.758c-.24 0-.433.215-.433.478 0 .264.194.479.433.479.24 0 .433-.215.433-.479 0-.263-.194-.478-.433-.478M72.092 6.364c-.132 0-.238-.119-.238-.262 0-.146.09-.266.222-.266l.016.002c.132 0 .238.118.238.264 0 .143-.106.262-.238.262m-.046-.757c-.24 0-.434.213-.434.478 0 .263.194.478.434.478.239 0 .433-.215.433-.478 0-.265-.194-.478-.433-.478M50.431 5.816c-.131 0-.238-.118-.238-.263 0-.144.09-.265.222-.265l.016.003c.132 0 .239.118.239.262 0 .145-.107.263-.239.263m-.046-.758c-.24 0-.433.215-.433.478 0 .264.194.48.433.48.24 0 .433-.216.433-.48 0-.263-.194-.478-.433-.478M89.121 5.102c-.149 0-.271.134-.271.3 0 .165.122.299.271.299.15 0 .272-.134.272-.3 0-.165-.122-.299-.272-.299M67.118 5.508c-.15 0-.271.133-.271.299 0 .165.121.299.271.299.15 0 .272-.134.272-.3 0-.165-.122-.298-.272-.298M49.897 6.391c-.15 0-.271.134-.271.3 0 .165.122.299.271.299.15 0 .27-.134.27-.3 0-.165-.12-.299-.27-.299M91.325 6.083c-.101 0-.183.09-.183.202 0 .112.082.202.183.202.101 0 .182-.09.182-.202 0-.112-.08-.202-.182-.202M69.393 6.543c-.102 0-.183.09-.183.202 0 .111.081.202.183.202.1 0 .182-.09.182-.202 0-.112-.081-.202-.182-.202M94.875 6.323c-.136 0-.244.12-.244.27 0 .147.108.269.244.269.134 0 .244-.122.244-.27 0-.149-.11-.269-.244-.269M106.127 6.085c-.136 0-.245.12-.245.27 0 .149.11.27.245.27s.244-.121.244-.27c0-.15-.11-.27-.244-.27M86.11 6.173c-.135 0-.243.12-.243.27 0 .149.108.269.244.269.134 0 .244-.12.244-.269 0-.15-.11-.27-.244-.27M87.263 5.315c.085 0 .155-.077.155-.171 0-.094-.07-.17-.155-.17-.086 0-.155.076-.155.17 0 .094.07.17.155.17M95.053 5.317c-.086 0-.156.076-.156.17 0 .096.07.172.156.172s.155-.076.155-.171c0-.095-.07-.171-.155-.171M101.29 4.807c-.085 0-.154.077-.154.172 0 .094.069.17.155.17.085 0 .155-.076.155-.17 0-.095-.07-.172-.155-.172M99.508 7.34c-.086 0-.155.076-.155.171 0 .095.069.17.155.17s.155-.075.155-.17c0-.095-.069-.171-.155-.171M105.1 5.299c-.086 0-.155.077-.155.171 0 .095.069.172.155.172.085 0 .155-.077.155-.172 0-.094-.07-.171-.155-.171M86.44 5.44c-.086 0-.155.076-.155.17 0 .095.069.172.155.172.085 0 .155-.077.155-.171 0-.095-.07-.172-.155-.172M83.257 5.096c-.086 0-.155.076-.155.17 0 .095.07.171.155.171.086 0 .155-.076.155-.17 0-.095-.069-.171-.155-.171M81.299 7.158c-.086 0-.155.076-.155.17 0 .096.069.172.155.172.085 0 .155-.076.155-.171 0-.095-.07-.171-.155-.171M75.068 4.9c-.086 0-.155.076-.155.17 0 .095.069.17.155.17.085 0 .155-.075.155-.17 0-.094-.07-.17-.155-.17M66.655 6.52c-.086 0-.155.076-.155.17 0 .095.07.172.155.172.085 0 .155-.077.155-.171 0-.095-.07-.172-.155-.172M53.235 5.439c-.086 0-.155.076-.155.17 0 .096.07.172.155.172.086 0 .156-.076.156-.171 0-.095-.07-.171-.156-.171M48.273 5.12c-.086 0-.155.077-.155.171 0 .095.07.172.155.172.085 0 .155-.077.155-.172 0-.094-.07-.17-.155-.17M57.353 6.372c-.086 0-.155.077-.155.171 0 .095.07.172.155.172.085 0 .155-.077.155-.172 0-.094-.07-.17-.155-.17M63.384 4.825c-.086 0-.155.077-.155.172 0 .094.069.17.155.17.085 0 .155-.076.155-.17 0-.095-.07-.172-.155-.172M60.978 24.634a.38.38 0 0 1-.15-.3c0-.214.18-.388.401-.388.213 0 .385.16.4.361a.467.467 0 0 0 .018-.127.492.492 0 0 0-.5-.482c-.277 0-.5.216-.5.482 0 .21.138.386.331.454M58.53 24.585a.382.382 0 0 1-.15-.3c0-.215.18-.388.4-.388.214 0 .386.16.4.361a.468.468 0 0 0 .02-.127.492.492 0 0 0-.501-.482c-.277 0-.501.216-.501.482 0 .21.14.387.332.454M62.946 24.705a.382.382 0 0 1-.15-.3c0-.214.18-.388.4-.388.214 0 .386.16.4.362a.468.468 0 0 0 .02-.127.493.493 0 0 0-.502-.483c-.276 0-.5.217-.5.483 0 .21.139.386.332.453M65.025 24.646a.335.335 0 0 1-.133-.263c0-.188.158-.34.353-.34.187 0 .337.14.35.316a.387.387 0 0 0 .016-.11.43.43 0 0 0-.439-.423.431.431 0 0 0-.439.423c0 .183.122.338.292.397M67.037 24.705a.332.332 0 0 1-.133-.263c0-.189.158-.34.352-.34.187 0 .338.14.35.316a.387.387 0 0 0 .018-.11.431.431 0 0 0-.44-.424.431.431 0 0 0-.438.423c0 .184.122.34.29.398M68.996 24.725a.334.334 0 0 1-.132-.264c0-.188.157-.34.352-.34.187 0 .337.14.35.317a.387.387 0 0 0 .016-.11.43.43 0 0 0-.439-.424.431.431 0 0 0-.439.423c0 .184.122.339.292.398M71.131 24.812a.332.332 0 0 1-.132-.263c0-.189.158-.34.352-.34.186 0 .337.14.35.316a.387.387 0 0 0 .017-.11.43.43 0 0 0-.44-.424.431.431 0 0 0-.438.423c0 .184.122.339.291.398M73.03 24.928a.332.332 0 0 1-.133-.263c0-.189.158-.34.352-.34.186 0 .337.14.35.316a.387.387 0 0 0 .017-.11.43.43 0 0 0-.44-.424.431.431 0 0 0-.438.423c0 .184.122.34.291.398" fill="#554640"/><path d="M75.164 25.044a.332.332 0 0 1-.132-.263c0-.188.158-.34.353-.34.186 0 .336.14.349.316a.387.387 0 0 0 .017-.11.43.43 0 0 0-.44-.423.431.431 0 0 0-.438.423c0 .183.122.338.291.397M82.598 24.922a.38.38 0 0 1-.157-.296.398.398 0 0 1 .393-.398.393.393 0 0 1 .407.352.466.466 0 0 0 .017-.127.489.489 0 0 0-.51-.47.495.495 0 0 0-.492.495c.005.209.148.382.342.444M80.417 24.934a.378.378 0 0 1-.157-.296.399.399 0 0 1 .393-.398.395.395 0 0 1 .407.352.436.436 0 0 0 .016-.127.488.488 0 0 0-.51-.47.495.495 0 0 0-.49.494.48.48 0 0 0 .34.445M84.567 24.945a.38.38 0 0 1-.157-.296.397.397 0 0 1 .393-.398.393.393 0 0 1 .407.351.466.466 0 0 0 .017-.126.489.489 0 0 0-.51-.47.495.495 0 0 0-.492.494c.005.21.147.383.342.445M86.644 24.834a.33.33 0 0 1-.137-.259.348.348 0 0 1 .345-.35.345.345 0 0 1 .356.31.436.436 0 0 0 .015-.112.43.43 0 0 0-.448-.413.434.434 0 0 0-.43.434.42.42 0 0 0 .299.39M88.657 24.843a.331.331 0 0 1-.138-.26.348.348 0 0 1 .346-.348.344.344 0 0 1 .355.307.423.423 0 0 0 .016-.11.43.43 0 0 0-.448-.413.433.433 0 0 0-.43.434.422.422 0 0 0 .299.39M90.615 24.814a.331.331 0 0 1-.137-.26.348.348 0 0 1 .345-.348.345.345 0 0 1 .356.308.402.402 0 0 0 .014-.111.428.428 0 0 0-.447-.413.434.434 0 0 0-.43.434.422.422 0 0 0 .3.39M92.617 24.809a.335.335 0 0 1-.138-.26.348.348 0 0 1 .345-.349.344.344 0 0 1 .357.308.474.474 0 0 0 .015-.11.43.43 0 0 0-.448-.413.433.433 0 0 0-.43.434.422.422 0 0 0 .299.39M94.791 24.76a.334.334 0 0 1-.137-.26.348.348 0 0 1 .344-.348.344.344 0 0 1 .357.307.423.423 0 0 0 .015-.11.429.429 0 0 0-.447-.413.433.433 0 0 0-.43.434.422.422 0 0 0 .298.39M97.112 24.743a.331.331 0 0 1-.137-.26.348.348 0 0 1 .345-.349.344.344 0 0 1 .356.309.436.436 0 0 0 .015-.112.43.43 0 0 0-.448-.412.434.434 0 0 0-.43.434.42.42 0 0 0 .3.39M52.67 24.764l.104-.466 3.07.052c.476-.002.105-.263.105-.263l-3.413-.052-.025.613c0 .146.159.116.159.116M99.916 24.698l.1-.467 3.07.026c.476-.005.103-.264.103-.264l-3.414-.023-.02.614c.003.146.16.114.16.114M77.71 25.237c.023.02.052.03.08.03.04 0 .08-.02.106-.059a.157.157 0 0 0-.026-.206l-.928-.767 2.105.058h.004c.072 0 .132-.064.134-.144.002-.081-.057-.149-.13-.15l-2.523-.07c-.06-.002-.11.038-.13.099-.019.06 0 .128.046.165l1.262 1.044zM52.53 38.437l-2.168-1.287-1.11-6.228 1.52-.245.996 5.578 1.202.714 49.534-.199 2.217-.972.984-5.423 1.522.25-1.122 6.181-3.26 1.43h-.167z" fill="#554640"/><path d="M66.56 82.753c-9.216-17.67-13.844-44.697-13.89-44.967l1.778-.271c.046.269 4.632 27.042 13.726 44.478l-1.614.76z" fill="#554640"/><mask id="f" fill="#fff"><use xlink:href="#e"/></mask><path fill="#554640" mask="url(#f)" d="M66.08 36.51h24.186v-4.398H66.081zM69.573 76.007C58.666 56.743 57.685 38.184 57.677 37.998l1.028-.043c.009.183.984 18.53 11.774 37.589l-.906.463zM89.186 83.73l-.842-1.736c9.097-17.44 13.68-44.21 13.726-44.48l1.778.271c-.045.271-4.674 27.297-13.89 44.968l-.772.978zM86.946 76.007l-.907-.463c10.79-19.058 11.766-37.406 11.775-37.59l1.028.044c-.008.186-.99 18.745-11.896 38.009M77.492 130.934c-3.843 0-6.032-1.656-6.167-1.761l-.141-.111v-1.64c0-.202.173-.366.386-.366.213 0 .386.164.386.366v1.285c.83.564 5.15 3.086 12.092-.048v-1.237c0-.202.173-.366.386-.366.214 0 .386.164.386.366v1.696l-.216.1c-2.765 1.285-5.154 1.716-7.112 1.716"/><path d="M77.492 133.887c-3.843 0-6.032-1.657-6.167-1.762l-.141-.11v-1.64c0-.202.173-.366.386-.366.213 0 .386.164.386.366v1.284c.83.565 5.15 3.086 12.092-.048v-1.236c0-.202.173-.366.386-.366.214 0 .386.164.386.366v1.694l-.216.102c-2.765 1.285-5.154 1.715-7.112 1.716" fill="#554640" mask="url(#f)"/><path d="M77.492 136.84c-3.843 0-6.032-1.657-6.167-1.762l-.141-.11v-1.64c0-.202.173-.367.386-.367.213 0 .386.165.386.367v1.284c.83.564 5.15 3.085 12.092-.048v-1.236c0-.202.173-.367.386-.367.214 0 .386.165.386.367v1.695l-.216.1c-2.765 1.286-5.154 1.715-7.112 1.716" fill="#554640" mask="url(#f)"/><path d="M77.492 139.792c-3.843 0-6.032-1.657-6.167-1.762l-.141-.11v-1.64c0-.202.173-.366.386-.366.213 0 .386.164.386.366v1.285c.83.564 5.15 3.085 12.092-.049v-1.236c0-.202.173-.366.386-.366.214 0 .386.164.386.366v1.695l-.216.1c-2.765 1.286-5.154 1.716-7.112 1.717" fill="#554640" mask="url(#f)"/><path d="M77.492 142.744c-3.843.001-6.032-1.656-6.167-1.761l-.141-.11v-1.64c0-.202.173-.367.386-.367.213 0 .386.165.386.367v1.284c.83.565 5.15 3.086 12.092-.048v-1.236c0-.202.173-.367.386-.367.214 0 .386.165.386.367v1.695l-.216.1c-2.765 1.286-5.154 1.716-7.112 1.716" fill="#554640" mask="url(#f)"/><path d="M77.492 145.697c-3.843 0-6.032-1.657-6.167-1.762l-.141-.11v-1.639c0-.202.173-.367.386-.367.213 0 .386.165.386.367v1.284c.83.564 5.15 3.085 12.092-.049v-1.235c0-.202.173-.367.386-.367.214 0 .386.165.386.367v1.694l-.216.1c-2.765 1.286-5.154 1.717-7.112 1.717" fill="#554640" mask="url(#f)"/><path d="M77.492 148.65c-3.843 0-6.032-1.657-6.167-1.763l-.141-.11v-1.639c0-.203.173-.366.386-.366.213 0 .386.163.386.366v1.284c.83.566 5.15 3.085 12.092-.048v-1.236c0-.203.173-.366.386-.366.214 0 .386.163.386.366v1.695l-.216.1c-2.765 1.286-5.154 1.717-7.112 1.717" fill="#554640" mask="url(#f)"/><path d="M77.492 151.602c-3.843 0-6.032-1.656-6.167-1.762l-.141-.11v-1.64c0-.202.173-.366.386-.366.213 0 .386.164.386.366v1.285c.83.564 5.15 3.085 12.092-.049v-1.236c0-.202.173-.366.386-.366.214 0 .386.164.386.366v1.696l-.216.1c-2.765 1.285-5.154 1.716-7.112 1.716" fill="#554640" mask="url(#f)"/><path d="M77.492 154.555c-3.843 0-6.032-1.657-6.167-1.762l-.141-.11v-1.64c0-.202.173-.366.386-.366.213 0 .386.164.386.366v1.284c.83.564 5.15 3.086 12.092-.048v-1.236c0-.202.173-.366.386-.366.214 0 .386.164.386.366v1.695l-.216.1c-2.765 1.286-5.154 1.716-7.112 1.717" fill="#554640" mask="url(#f)"/><path d="M77.492 157.507c-3.843.001-6.032-1.656-6.167-1.762l-.141-.11v-1.64c0-.202.173-.366.386-.366.213 0 .386.164.386.366v1.285c.83.564 5.15 3.086 12.092-.048v-1.237c0-.202.173-.366.386-.366.214 0 .386.164.386.366v1.696l-.216.1c-2.765 1.285-5.154 1.716-7.112 1.716" fill="#554640" mask="url(#f)"/><path d="M77.492 160.46c-3.843 0-6.032-1.656-6.167-1.762l-.141-.11v-1.64c0-.202.173-.367.386-.367.213 0 .386.165.386.367v1.284c.83.565 5.15 3.086 12.092-.048v-1.236c0-.202.173-.367.386-.367.214 0 .386.165.386.367v1.695l-.216.1c-2.765 1.287-5.154 1.715-7.112 1.716" fill="#554640" mask="url(#f)"/><path d="M77.492 163.412c-3.843 0-6.032-1.656-6.167-1.761l-.141-.11v-1.64c0-.202.173-.367.386-.367.213 0 .386.165.386.366v1.285c.83.565 5.15 3.085 12.092-.048V159.9c0-.201.173-.366.386-.366.214 0 .386.165.386.366v1.696l-.216.1c-2.765 1.285-5.154 1.716-7.112 1.716" fill="#554640" mask="url(#f)"/><path d="M77.492 166.365c-3.843 0-6.032-1.657-6.167-1.762l-.141-.11v-1.64c0-.202.173-.366.386-.366.213 0 .386.164.386.366v1.285c.83.564 5.15 3.084 12.092-.049v-1.236c0-.202.173-.366.386-.366.214 0 .386.164.386.366v1.695l-.216.1c-2.765 1.286-5.154 1.717-7.112 1.717" fill="#554640" mask="url(#f)"/><path d="M77.492 169.317c-3.843.001-6.032-1.656-6.167-1.761l-.141-.11v-1.64c0-.203.173-.367.386-.367.213 0 .386.164.386.367v1.284c.83.565 5.15 3.086 12.092-.047v-1.237c0-.203.173-.367.386-.367.214 0 .386.164.386.367v1.695l-.216.1c-2.765 1.285-5.154 1.716-7.112 1.716" fill="#554640" mask="url(#f)"/><path d="M84.434 168.392a.377.377 0 0 0-.386.366v1.237c-6.941 3.133-11.261.613-12.092.047v-1.284a.377.377 0 0 0-.386-.366.377.377 0 0 0-.386.366v1.119c.075.21.14.429.184.661.272.207 2.42 1.733 6.124 1.732 1.958 0 4.347-.431 7.112-1.715l.216-.102v-1.695a.377.377 0 0 0-.386-.366M69.932 82.538l1.416.158s.666 16.374 6.995 15.978v.554l-1.333.474s-1.498 21.594 1.167 21.594v1.186s-5.83.158-6.58-7.83l.667-15.978s-.084-3.242-.833-5.379c0 0-1.249-4.745-1.499-10.757" fill="#554640" mask="url(#f)"/><path d="M86.33 82.538l-1.416.158s-.666 16.374-6.995 15.978v.554l1.332.474s1.5 21.594-1.166 21.594v1.186s5.83.158 6.58-7.83l-.666-15.978s.082-3.242.832-5.379c0 0 1.249-4.745 1.499-10.757M66.08 67.548h23.843v-.978H66.08z" fill="#554640" mask="url(#f)"/><path d="M78.081 123.093c-7.807-.052-8.549-7.501-8.608-8.362-.584-2.152-.373-12.235-.348-13.39l.004-.052c.574-5.067-.72-8.401-.734-8.435l-.017-.052c-1.804-6.12-1.825-9.865-1.825-10.021l.004-.065c.08-.724.64-2.094 2.182-2.094h.066l.065.013c.818.16 2.365 1.016 2.365 3.11h-1.287c0-1.428-.991-1.815-1.28-1.899-.655.052-.804.806-.828.969.006.39.115 4.011 1.769 9.633.142.368 1.383 3.774.802 8.945-.07 3.144-.15 11.543.318 13.069l.023.075.002.077c.01.294.338 7.21 7.337 7.257l-.01 1.222z" fill="#554640" mask="url(#f)"/><path d="M77.866 123.093l-.01-1.222c7-.047 7.327-6.963 7.337-7.258l.003-.076.023-.075c.468-1.526.388-9.925.317-13.069-.58-5.17.66-8.577.802-8.945 1.654-5.615 1.763-9.236 1.77-9.631-.027-.177-.18-.92-.83-.97C87 81.925 86 82.31 86 83.743h-1.287c0-2.093 1.547-2.95 2.366-3.11l.064-.012h.066c1.543 0 2.103 1.37 2.184 2.094l.003.065c0 .156-.021 3.901-1.825 10.021l-.018.052c-.013.034-1.308 3.368-.734 8.435l.003.052c.027 1.155.238 11.238-.347 13.39-.059.86-.8 8.31-8.608 8.362M78.044 92.697a3.616 3.616 0 0 1-2.151-.703c-1.106-.821-1.738-2.263-1.877-4.285l-.48-6.97c-.887-.124-2.53-.562-3.589-2.132l1.084-.659c1.096 1.625 3.074 1.608 3.102 1.615l.611-.009.555 8.074c.113 1.638.593 2.814 1.387 3.404a2.239 2.239 0 0 0 1.545.434l.228 1.202a2.525 2.525 0 0 1-.415.029" fill="#554640" mask="url(#f)"/><path d="M78.247 92.697c-.243 0-.397-.025-.415-.029l.22-1.203c.034.005.83.117 1.572-.447.782-.594 1.256-1.766 1.368-3.39l.555-8.074.61.009h.004c.12 0 2.027-.026 3.099-1.615l1.083.659c-1.058 1.57-2.702 2.008-3.59 2.131l-.478 6.97c-.139 2.023-.771 3.465-1.877 4.286-.806.6-1.66.703-2.151.703M80.562 77.398c-1.336.781-2.363.879-2.363.879h-.104s-1.027-.098-2.364-.879c0 0-2.775-1.757-4.728-.488 0 0 2.98-.39 5.037 1.66 0 0 .781 1.2 2.055 1.263v.006l.052-.003c.017 0 .034.003.05.003v-.006c1.275-.063 2.056-1.263 2.056-1.263 2.056-2.05 5.038-1.66 5.038-1.66-1.954-1.27-4.73.488-4.73.488M90.418 153.411s-.893 1.627-1.837 2.027c0 0-.612.048-.23 1.863 0 0 1.23.75 2.216-1.998l-.149-1.892zM89.484 143.754s-.72 1.849-1.583 2.363c0 0-.577.102-.073 2.054 0 0 1.224.72 1.945-2.362l-.289-2.055zM89.111 134.963s-.965 1.745-1.89 2.15c0 0-.586.03-.35 2.027 0 0 1.116.864 2.247-2.104l-.007-2.073zM88.772 126.755s-.86 1.795-1.76 2.248c0 0-.582.062-.23 2.043 0 0 1.167.802 2.12-2.222l-.13-2.07zM88.361 118.546s-.859 1.795-1.76 2.247c0 0-.583.063-.23 2.045 0 0 1.167.802 2.12-2.223l-.13-2.069z" fill="#554640" mask="url(#f)"/><path d="M89.072 149.589l.387.226c.018.012.44.288.77.986.031.142.07.581-.458 1.037l-.45.408.032.403c.085 1.082.145 2.212.208 3.407.044.85.09 1.732.15 2.658l.04.519.377.162a69.24 69.24 0 0 1 1.18-4.377 116.14 116.14 0 0 0-.13-2.096c.99-.977.952-2.125.76-2.673l-.027-.066a4.468 4.468 0 0 0-1.1-1.522 318.771 318.771 0 0 0-.531-5.383c1.337-1.848.488-3.69-.334-4.628l-.05-.8c-.048-.79-.095-1.543-.14-2.396.853-.717.883-1.97.878-2.252.038-.976-.595-1.682-1.038-2.053a611.149 611.149 0 0 1-.166-4.02c.651-.665.673-1.668.673-1.802l-.005-.09c-.108-.97-.506-1.603-.802-1.95-.564-17.658-.647-35.55-.645-35.713l-1.543 3.648c-.002.163-.18 14.62.398 32.438l-.048.383.369.246c.016.013.376.33.474 1.074-.014.278-.125.575-.21.616l-.512.256.043.752c.058 1.528.12 3.036.186 4.482l.033.593.387.24c.164.101.626.475.606.846l-.003.037.002.038c.01.3-.11.903-.34.988l-.628.232.084.93c.047.928.097 1.732.15 2.578l.087 1.427.247.231c.06.058 1.473 1.414.216 2.887l-.236.276.04.353c.003.025.284 2.55.595 6.042l.024.422zM64.446 155.971c-.037.702-.076 1.427-.12 2.18-.024.015-.05.04-.073.058.101 2.666.386 5.375.29 8.04l.048 1.219a5.12 5.12 0 0 1 .996-.329l.012-.288c.054-1.257.115-2.251.177-3.305.028-.455.056-.922.085-1.436l.042-.905-.405-.27c-.104-.068-.446-.336-.49-.89a.327.327 0 0 1 .048-.218c.088-.151.352-.317.497-.38l.509-.207.033-.526c.059-.926.105-1.809.15-2.658.063-1.195.122-2.325.207-3.407l.032-.402-.468-.425c-.525-.452-.47-.9-.444-1.013.33-.704.756-.983.76-.986l.386-.226.04-.43c.31-3.492.591-6.016.594-6.042l.04-.353-.236-.276c-1.22-1.429.07-2.744.216-2.886l.246-.231.088-1.428c.052-.847.102-1.65.15-2.577l.084-.93-.628-.232c-.22-.082-.349-.642-.34-.99v-.037l-.001-.036c-.02-.372.443-.745.6-.844l.4-.238.027-.598c.065-1.446.127-2.955.183-4.465l.045-.77-.513-.254c-.084-.042-.195-.343-.21-.615.098-.744.458-1.06.456-1.06l.325-.217.014-.427c.578-17.817.228-32.983.227-33.147l-1.544-3.167c.001.162.092 18.28-.472 35.94-.296.347-.695.98-.802 1.95l-.006.09c0 .134.023 1.136.674 1.803a645 645 0 0 1-.166 4.019c-.443.372-1.076 1.077-1.038 2.053-.005.283.024 1.534.878 2.252-.045.853-.092 1.606-.14 2.396l-.05.8c-.822.937-1.67 2.78-.335 4.628-.082.765-.295 2.782-.53 5.383-.315.278-.76.766-1.1 1.522l-.026.066c-.194.551-.232 1.709.758 2.675-.071.977-.124 1.986-.18 3.047" fill="#554640" mask="url(#f)"/><path d="M64.842 161.606s1.062 1.533 2.044 1.84c0 0 .613-.009.425 1.833 0 0-1.144.862-2.416-1.777l-.053-1.896zM65.387 153.411s.893 1.627 1.838 2.027c0 0 .611.048.228 1.863 0 0-1.23.75-2.215-1.998l.149-1.892zM66.32 143.754s.72 1.849 1.584 2.363c0 0 .577.102.073 2.054 0 0-1.224.72-1.945-2.362l.289-2.055zM66.694 134.963s.965 1.745 1.89 2.15c0 0 .586.03.35 2.027 0 0-1.116.864-2.247-2.104l.007-2.073zM67.033 126.755s.859 1.795 1.76 2.248c0 0 .582.062.23 2.043 0 0-1.167.802-2.12-2.222l.13-2.07zM67.444 118.546s.86 1.795 1.76 2.247c0 0 .583.063.23 2.045 0 0-1.166.802-2.12-2.223l.13-2.069zM78.197 97.818c.559.038 1.072-.145 1.574-.562 3.908-3.238 4.523-17.613 4.529-17.756l.008-.194.124-.155c1-1.243 1.198-1.646 1.207-1.663.295-.712.353-1.273.153-1.559-.184-.263-.595-.276-.6-.276l-.086-.002-.435-.123-3.676.003-.185-.165c-2.61-2.314-4.897-.117-4.994-.023l-.181.18-4.475.13c-.016 0-.427.013-.61.276-.2.286-.143.847.16 1.577 0 0 .2.404 1.199 1.645l.125.155.007.194c.006.143.62 14.518 4.53 17.756.5.417 1.014.6 1.574.562v-.005c.009 0 .018.002.026.003l.026-.003v.005zm.148 1.227c-.058 0-.116-.002-.175-.004-.878.044-1.7-.246-2.446-.864-4.107-3.403-4.873-16.594-4.96-18.438-1.006-1.263-1.217-1.705-1.25-1.782-.48-1.16-.488-2.074-.024-2.72.56-.783 1.54-.806 1.65-.806l3.945-.116c1.2-1.037 3.805-2.153 6.41-.007l3.365-.002.45.13c.296.02 1.069.14 1.542.8.463.647.456 1.561-.024 2.718-.034.08-.245.522-1.25 1.785-.088 1.844-.854 15.035-4.961 18.438-.696.577-1.458.868-2.272.868zM65.29 65.48s.698.97 3.062 1.123l.054.918s-2.095-.152-1.343 1.532L65.29 65.48zM91.26 65.48s-.699.97-3.062 1.123l-.054.918s2.095-.152 1.342 1.532l1.773-3.573zM51.192 34.155l8.861.062 1.032-3.075-10.445-.18.552 3.193zm9.612 1.044l-10.487-.072-.893-5.164 13.06.225-1.68 5.011zM95.345 31.141l1.031 3.076 8.862-.062.552-3.193-10.445.18zm.281 4.06l-1.681-5.014 13.062-.224-.894 5.163-10.487.074z" fill="#554640" mask="url(#f)"/></g></g></svg>