<?xml version="1.0" encoding="UTF-8" standalone="no"?>
<svg width="240px" height="170px" viewBox="0 0 240 170" version="1.1" xmlns="http://www.w3.org/2000/svg" xmlns:xlink="http://www.w3.org/1999/xlink">
    <!-- Generator: Sketch 40.1 (33804) - http://www.bohemiancoding.com/sketch -->
    <title>box</title>
    <desc>Created with Sketch.</desc>
    <defs></defs>
    <g id="IMAGES" stroke="none" stroke-width="1" fill="none" fill-rule="evenodd">
        <g id="box" fill="#4C4139">
            <g id="Page-1" transform="translate(41.000000, 51.000000)">
                <g id="Group-3">
                    <path d="M153.546949,61.1981967 L153.533969,61.3457377 L153.555061,61.4916393 C153.889286,63.8260656 152.909327,64.8145902 152.657847,65.0277049 L68.3992041,96.9014754 C67.0022755,97.4031148 66.2072755,97.4981967 65.7562347,97.485082 L66.1959184,65.8096721 L155.990357,33.5391803 L153.546949,61.1981967 Z M3.03397959,59.4227869 C2.56184694,59.3539344 2.41582653,57.837541 2.54886735,56.8539344 L2.56022449,30.1785246 C2.56022449,29.594918 3.30979592,29.0785246 3.98473469,28.7588525 L3.05182653,30.3818033 L63.0791939,65.5670492 L62.6622245,95.6604918 L3.28383673,59.4588525 L3.03397959,59.4227869 Z M68.1590816,62.4277049 L8.93158163,27.3293443 L92.6158776,4.68016393 L150.402643,32.8703279 L68.1590816,62.4277049 Z M64.7730306,63.6457377 L4.74890816,28.4621311 L6.39244898,28.0178689 L65.8552041,63.2555738 L64.7730306,63.6457377 Z M154.16348,31.5178689 L152.881745,31.9785246 L95.3837755,3.93098361 L96.560051,3.61295082 L154.16348,31.5178689 Z M158.725806,30.932623 L97.2220102,1.13754098 L96.8066633,0.935901639 L4.07072449,26.0359016 C2.58293878,26.4440984 0.0648979592,27.7768852 0.0648979592,30.1785246 L0.0648979592,56.5932787 C-0.160622449,58.3703279 0.103836735,61.3145902 2.39960204,61.8637705 L63.3014694,98.9932787 C63.6519184,99.4440984 64.3771531,99.9998361 65.8130204,99.9998361 C66.7491735,99.9998361 67.8994898,99.7572131 69.2542347,99.2703279 L153.684857,67.332623 L153.892531,67.2293443 C154.00448,67.1621311 156.589041,65.5277049 156.04552,61.2801639 L158.725806,30.932623 Z" id="Fill-1"></path>
                </g>
                <path d="M88.8059568,40.3295106 C79.5117739,43.9844555 67.326104,42.5471358 61.6434032,37.1271753 C55.9607024,31.7072148 58.8998603,24.3243234 68.1940432,20.6693785 C77.4882261,17.0160558 89.673896,18.4517532 95.3565968,23.8717137 C101.039298,29.2916742 98.1001397,36.6745657 88.8059568,40.3295106 M97.7006904,22.9502718 C91.2289539,16.7759618 77.348501,15.1407268 66.7606284,19.3034382 C56.1727557,23.4661495 52.8259293,31.8759296 59.2993096,38.0486173 C65.7726899,44.2229273 79.651499,45.8597845 90.2393716,41.6970732 C100.827244,37.5343618 104.174071,29.1245818 97.7006904,22.9502718" id="Fill-4"></path>
                <path d="M91.5567669,31.7194408 L77.6977145,30.2194248 L78.2795769,28.8685817 C78.2795769,28.8685817 79.0548517,27.8973006 78.8240571,27.2392825 C78.8240571,27.2392825 78.2259415,27.2658021 78.6160169,26.7785041 C78.6160169,26.7785041 79.8512555,25.0713035 80.3778573,24.8210246 L81.5155771,25.0563862 L81.6634806,25.041469 L81.9722903,24.7116312 L82.3607403,24.6635644 L84.6264281,25.1657797 C84.6264281,25.1657797 85.2440474,25.1641222 85.3090599,24.5873205 C85.3090599,24.5873205 85.3952016,24.3337266 85.1530298,24.0867626 L75.4612824,22 C75.4612824,22 74.6843823,22.0977911 74.9168022,22.5983489 L75.3182548,23.1270839 L77.3563985,23.5812324 L77.4961755,23.8812356 L77.3580239,23.9723968 L77.4912996,24.1480892 L78.2048124,24.2989196 C78.2048124,24.2989196 77.2133709,25.6464478 77.0557155,26.1337458 L75.9342488,28.3066972 L75.241865,29.9542286 L72.9014129,29.7006348 L69.3127196,29.440411 C68.5471967,29.3293601 66.1969926,29.3393049 66.1969926,29.3393049 L66.2782583,28.8652667 L66.0815953,28.7160938 L65.8930589,28.7575308 L65.5192367,28.5520037 L65.7126491,27.1895582 L65.1210348,26.7387247 C64.5001648,26.3956271 64.035325,26.8033662 64.035325,26.8033662 L63,33.247634 C63.253549,33.491283 63.6550015,33.5459797 63.6550015,33.5459797 C64.5099167,33.7481918 64.7699669,33.3951494 64.7699669,33.3951494 L64.9910096,31.8818735 L65.2218042,31.6780039 L65.8247957,31.6382245 L65.9076867,31.5586656 L66.0442131,30.8061714 C66.6211996,30.6072743 69.5873976,30.6072743 69.5873976,30.6072743 C70.4520647,30.5857271 70.981917,30.8376635 70.981917,30.8376635 C71.8319563,31.2420877 72.7323802,31.2835246 72.7323802,31.2835246 L74.6014913,31.4791068 L71.0713093,39.880854 C71.0713093,39.880854 70.4520647,40.7460566 71.323233,40.9582136 C71.323233,40.9582136 72.555221,41.2830789 73.3256198,40.1211881 L74.765648,37.0366247 L77.0475889,31.7343581 L85.9315552,32.6608874 L90.9635273,33.1150359 C92.9529117,33.1564728 92.9984205,32.3111599 92.9984205,32.3111599 C93.0553064,31.7227558 91.5567669,31.7194408 91.5567669,31.7194408" id="Fill-6"></path>
                <path d="M84.5834851,82.6160743 C80.4699443,83.6719181 77.085001,80.8905901 77.0377771,76.4152709 C76.9922397,71.9399516 80.302974,67.4397695 84.4165149,66.3839257 C88.5300557,65.3280819 91.914999,68.1094099 91.9622229,72.5847291 C92.0077603,77.0600484 88.697026,81.5602305 84.5834851,82.6160743 M84.4047089,65.2551507 C79.7177346,66.4568568 75.9482538,71.5835836 76.0005374,76.6821325 C76.052821,81.7790239 79.9083169,84.9482129 84.5952911,83.7448493 C89.2822654,82.5414857 93.0517462,77.4164164 92.9994626,72.3178675 C92.947179,67.2209761 89.0916831,64.0517871 84.4047089,65.2551507" id="Fill-8"></path>
                <path d="M88.2371849,70.3945943 L88.5264761,70.6960925 L88.5789207,70.7068056 L88.7836238,70.5507 L88.9223482,70.5751871 L89.4890881,71.1950184 C89.4890881,71.1950184 89.6870242,71.2807235 89.8917273,70.9409641 C89.8917273,70.9409641 90,70.7986325 90,70.6165092 L87.5554052,68.0025047 C87.5554052,68.0025047 87.2762646,67.9535304 87.1916765,68.2886984 L87.152766,68.6636581 L87.6619861,69.2238019 L87.6112333,69.4242905 L87.5384876,69.4594908 L87.5249535,69.5849875 L87.7059719,69.7762935 C87.7059719,69.7762935 86.961597,70.4512209 86.7568939,70.7236406 L85.7096938,71.8821894 L84.9670107,72.7805622 L84.2970733,72.3015321 L83.229572,71.6434396 C83.0181018,71.4689686 82.2635764,71.1475746 82.2635764,71.1475746 L82.4395195,70.872094 L82.4226019,70.7542495 L82.3498562,70.7527191 L82.2957198,70.5767176 L82.7897141,69.7793544 L82.7423448,69.4242905 C82.6509897,69.1304446 82.3735409,69.3125679 82.3735409,69.3125679 L80,73.063695 C80.0050753,73.2473487 80.1167315,73.3361147 80.1167315,73.3361147 C80.3265099,73.5779254 80.5210624,73.4003935 80.5210624,73.4003935 L81.0708848,72.5157947 L81.2096092,72.4254983 L81.4160041,72.4851858 L81.4667569,72.448455 L81.749281,72.0122775 C81.9979699,71.9740163 82.9470479,72.3872371 82.9470479,72.3872371 C83.2312637,72.4943685 83.3209271,72.7208747 83.3209271,72.7208747 C83.4647268,73.0835908 83.7404838,73.2351051 83.7404838,73.2351051 L84.2784639,73.6131257 L80.4855354,78.2014076 C80.4855354,78.2014076 80.0135341,78.6375852 80.2250042,78.8870482 C80.2250042,78.8870482 80.5159871,79.255886 81.1317882,78.6605419 L82.5697851,76.9969454 L84.9805447,74.1089907 L87.5334123,75.9087971 L89.0018609,76.8867531 C89.6261208,77.1882513 89.9086449,76.684734 89.9086449,76.684734 C90.113348,76.335792 89.6345796,76.1245902 89.6345796,76.1245902 L85.6690915,73.2840794 L86.2832008,72.5479341 C86.2832008,72.5479341 86.8397902,72.068904 86.9734394,71.6388482 C86.9734394,71.6388482 86.7738115,71.5715085 87.0529521,71.3312283 C87.0529521,71.3312283 87.9901878,70.4726472 88.2371849,70.3945943" id="Fill-10"></path>
                <path d="M144.175966,49.0348341 L96.414812,65.7939266 C96.0927218,65.9069455 95.922014,66.2605333 96.0347455,66.5850591 C96.1249308,66.8401589 96.3648881,67 96.6193394,67 C96.6869783,67 96.7562277,66.9903127 96.8238667,66.9660943 L144.58502,50.2070018 C144.908721,50.0939829 145.077818,49.7403951 144.965087,49.4158694 C144.852355,49.0929581 144.499666,48.9218152 144.175966,49.0348341" id="Fill-12"></path>
                <path d="M144.175966,54.0348341 L96.414812,70.7939266 C96.0927218,70.9069455 95.922014,71.2605333 96.0347455,71.5850591 C96.1249308,71.8401589 96.3648881,72 96.6193394,72 C96.6869783,72 96.7562277,71.9903127 96.8238667,71.9660943 L144.58502,55.2070018 C144.908721,55.0939829 145.077818,54.7403951 144.965087,54.4158694 C144.852355,54.0929581 144.499666,53.9218152 144.175966,54.0348341" id="Fill-14"></path>
            </g>
        </g>
    </g>
</svg>