
<svg width="43" height="29" viewBox="0 0 43 29" version="1.1" xmlns="http://www.w3.org/2000/svg"><title>VISA</title><g stroke="none" stroke-width="1" fill="none" fill-rule="evenodd"><path d="M42.613 3.912v20.4c0 1.942-1.536 3.517-3.43 3.517H3.43C1.535 27.83 0 26.253 0 24.31v-20.4C0 1.97 1.535.396 3.43.396h35.754c1.893 0 3.43 1.573 3.43 3.516" fill="#F2F2F2" mask="url(#mask-2)" transform="translate(.143 .337)"></path><path fill="#0058A0" d="M17.22 17.9l1.138-6.85h1.82L19.04 17.9M25.646 11.22c-.36-.14-.926-.29-1.632-.29-1.8 0-3.068.93-3.078 2.262-.01.984.905 1.534 1.595 1.86.71.337.948.55.946.85-.005.46-.567.67-1.09.67-.73 0-1.117-.103-1.715-.36l-.234-.11-.255 1.535c.426.192 1.213.357 2.03.366 1.914 0 3.158-.918 3.17-2.34.008-.78-.477-1.374-1.528-1.862-.636-.316-1.026-.528-1.022-.85 0-.284.33-.588 1.043-.588.595-.01 1.027.124 1.363.263l.163.08.246-1.486M28.07 15.472c.152-.394.727-1.915.727-1.915-.01.02.15-.396.24-.654l.124.59.423 1.98H28.07zm2.247-4.415H28.91c-.436 0-.763.122-.954.568l-2.705 6.278h1.913s.313-.844.384-1.03l2.333.004c.054.24.22 1.026.22 1.026h1.69l-1.473-6.846zM15.692 11.055l-1.784 4.672-.19-.95c-.33-1.094-1.366-2.28-2.522-2.873l1.63 5.992 1.928-.003 2.867-6.838h-1.928"></path><path d="M12.254 11.05H9.317l-.023.144c2.285.566 3.797 1.937 4.424 3.584l-.638-3.15c-.11-.433-.43-.562-.826-.577" fill="#FAA61A"></path><path d="M39.182 28.165H3.715c-1.973 0-3.572-1.64-3.572-3.663v-3.19h42.613v3.19c0 2.023-1.6 3.663-3.574 3.663" fill="#FCB331"></path><g><path d="M42.756 7.585H.143v-3.19c0-2.022 1.6-3.663 3.572-3.663h35.468c1.974 0 3.573 1.64 3.573 3.663v3.19z" fill="#0058A0"></path></g></g></svg>