
<svg xmlns="http://www.w3.org/2000/svg" viewBox="0 0 50 50" width="50" height="50">
<path d="M41.7,23.8c-2.5,4.3-5.4,6.7-8.6,8.4L40,15.1h-3.7l-3.7,9.2C31.3,27,28.7,31,26.7,31c-0.7,0-1.2-0.6,0.2-4.1l4.7-11.7H28
  L24.4,24c-1.2,2.1-2.8,4.3-5.8,4.6c2.4-4.1,3.1-8.1,3.1-9.9c0-2.4-1.1-3.9-3.4-3.9c-2.2,0-4,1.9-4,1.9l3.4-8.4H14
  c0,0-5.3,13.1-5.4,13.4c-3.2,8-1.8,12,2.6,12c2.5,0,4.5-1.3,6.1-3.2c2.4,0,4.2-0.6,5.5-1.6c-0.7,3.6,0.9,4.8,2.9,4.8
  c2.3,0,4-2.2,4-2.2l-1,2.4c-0.8,0.5-2.8,1.3-4,1.9c-1.8,0.9-3.7,2.2-3.8,4.3c-0.1,1.9,1.3,3.3,3.6,3.3c3.5,0,5.2-3,6.6-6.2
  c0.6-1.3,1-2.5,1-2.5c3.2-1.5,7.6-3.6,11.2-9.9C43,24.4,42.2,23.8,41.7,23.8z M11.4,31.2c-1.9,0-1.4-2.9-0.7-5.4
  c0.6,1.9,1.9,3.1,3.2,3.8C13.1,30.6,12.2,31.2,11.4,31.2z M15.1,28c-1.5-0.7-2.8-2.1-2.8-4.6c0-3.9,3-5.6,4.3-5.6
  c1.1,0,1.6,0.6,1.6,1.6C18.1,20.9,16.8,25.1,15.1,28z M23.9,40.9c-0.6,0-1-0.3-1-0.9c0-0.8,0.9-1.6,1.7-2.1c1-0.6,1.9-0.9,3-1.4
  C26.4,39.9,24.9,40.9,23.9,40.9z"></path>
</svg>