<?xml version="1.0" encoding="utf-8"?>
<!-- Generator: Adobe Illustrator 19.1.0, SVG Export Plug-In . SVG Version: 6.00 Build 0)  -->
<svg version="1.1" id="Logo" xmlns="http://www.w3.org/2000/svg" xmlns:xlink="http://www.w3.org/1999/xlink" x="0px" y="0px"
	 viewBox="0 0 378 198" enable-background="new 0 0 378 198" xml:space="preserve">
<g>
	<path fill="#58595B" d="M33.8,99h4.9l21.2,46.8h-5.6l-5.4-12.3H23.5L18,145.8h-5.4L33.8,99z M46.7,128.8l-10.6-23.7l-10.6,23.7
		H46.7z"/>
	<path fill="#58595B" d="M69.1,99.3h17.4c10.5,0,17.4,5.6,17.4,14.7v0.1c0,10-8.4,15.2-18.3,15.2H74.3v16.4h-5.2V99.3z M85.8,124.6
		c7.7,0,12.8-4.1,12.8-10.2v-0.1c0-6.6-5-10.1-12.5-10.1H74.3v20.5H85.8z"/>
	<path fill="#58595B" d="M113.4,99.3h17.4c10.5,0,17.4,5.6,17.4,14.7v0.1c0,10-8.4,15.2-18.3,15.2h-11.3v16.4h-5.2V99.3z
		 M130.2,124.6c7.7,0,12.8-4.1,12.8-10.2v-0.1c0-6.6-5-10.1-12.5-10.1h-11.8v20.5H130.2z"/>
	<path fill="#58595B" d="M157.8,99.3h33.6v4.8H163V120h25.4v4.8H163v16.3h28.7v4.8h-33.9V99.3z"/>
	<path fill="#58595B" d="M202.3,99.3h20c5.7,0,10.3,1.7,13.2,4.6c2.3,2.3,3.6,5.5,3.6,9.2v0.1c0,7.7-5.3,12.2-12.6,13.6l14.3,19
		h-6.4l-13.5-18.1h-0.1h-13.2v18.1h-5.2V99.3z M221.8,123.1c7,0,12-3.6,12-9.6v-0.1c0-5.7-4.4-9.2-11.9-9.2h-14.3v18.9H221.8z"/>
	<path fill="#58595B" d="M250.8,99.3h5.2v46.5h-5.2V99.3z"/>
	<path fill="#58595B" d="M286.8,99h4.9l21.2,46.8h-5.6l-5.4-12.3h-25.3l-5.5,12.3h-5.4L286.8,99z M299.8,128.8l-10.6-23.7
		l-10.6,23.7H299.8z"/>
	<path fill="#58595B" d="M322.1,99.3h4.9l29.3,37.3V99.3h5.1v46.5h-4.2l-30-38.1v38.1h-5.1V99.3z"/>
</g>
<g>
	<path fill="#58595B" d="M13.4,167.4h1.9l6.1,9.2l6.1-9.2h1.9v16.8h-1.9v-13.6l-6.1,9h-0.1l-6.1-9v13.6h-1.8V167.4z"/>
	<path fill="#58595B" d="M33.8,175.9L33.8,175.9c0-4.7,3.5-8.7,8.6-8.7c5.1,0,8.5,4,8.5,8.6c0,0,0,0,0,0c0,4.6-3.5,8.7-8.6,8.7
		C37.2,184.5,33.8,180.5,33.8,175.9z M48.9,175.9L48.9,175.9c0-3.9-2.8-7-6.6-7s-6.6,3.1-6.6,6.9v0c0,3.8,2.8,6.9,6.6,6.9
		C46.2,182.7,48.9,179.7,48.9,175.9z"/>
	<path fill="#58595B" d="M55.2,167.4h7.2c1.9,0,3.4,0.6,4.4,1.5c0.7,0.7,1.1,1.6,1.1,2.7v0c0,2.2-1.3,3.3-2.7,3.9
		c2,0.6,3.6,1.8,3.6,4.1v0c0,2.9-2.4,4.6-6.1,4.6h-7.5V167.4z M62.1,174.9c2.3,0,3.9-1,3.9-3v0c0-1.7-1.3-2.7-3.7-2.7h-5.1v5.8H62.1
		z M62.7,182.5c2.5,0,4.1-1.1,4.1-3v0c0-1.8-1.5-2.9-4.5-2.9h-5.3v5.9H62.7z"/>
	<path fill="#58595B" d="M73,167.4h1.9v16.8H73V167.4z"/>
	<path fill="#58595B" d="M80.2,167.4h1.9v15.1h9.5v1.8H80.2V167.4z"/>
	<path fill="#58595B" d="M95.3,167.4h12.1v1.7H97.2v5.7h9.2v1.7h-9.2v5.9h10.4v1.7H95.3V167.4z"/>
	<path fill="#58595B" d="M125.4,167.3h1.8l7.7,16.9h-2l-2-4.4h-9.1l-2,4.4h-1.9L125.4,167.3z M130.1,178.1l-3.8-8.6l-3.8,8.6H130.1z
		"/>
	<path fill="#58595B" d="M138.5,167.4h6.3c3.8,0,6.3,2,6.3,5.3v0c0,3.6-3,5.5-6.6,5.5h-4.1v5.9h-1.9V167.4z M144.6,176.6
		c2.8,0,4.6-1.5,4.6-3.7v0c0-2.4-1.8-3.6-4.5-3.6h-4.2v7.4H144.6z"/>
	<path fill="#58595B" d="M154.8,167.4h6.3c3.8,0,6.3,2,6.3,5.3v0c0,3.6-3,5.5-6.6,5.5h-4.1v5.9h-1.9V167.4z M160.9,176.6
		c2.8,0,4.6-1.5,4.6-3.7v0c0-2.4-1.8-3.6-4.5-3.6h-4.2v7.4H160.9z"/>
	<path fill="#58595B" d="M178.7,167.4h1.9l6.1,9.2l6.1-9.2h1.9v16.8h-1.9v-13.6l-6.1,9h-0.1l-6.1-9v13.6h-1.8V167.4z"/>
	<path fill="#58595B" d="M206.1,167.3h1.8l7.7,16.9h-2l-2-4.4h-9.1l-2,4.4h-1.9L206.1,167.3z M210.7,178.1l-3.8-8.6l-3.8,8.6H210.7z
		"/>
	<path fill="#58595B" d="M219.1,167.4h1.8l10.6,13.5v-13.5h1.8v16.8h-1.5L221,170.4v13.8h-1.8V167.4z"/>
	<path fill="#58595B" d="M244.6,167.3h1.8l7.7,16.9h-2l-2-4.4h-9.1l-2,4.4H237L244.6,167.3z M249.3,178.1l-3.8-8.6l-3.8,8.6H249.3z"
		/>
	<path fill="#58595B" d="M255.9,175.9L255.9,175.9c0-4.7,3.4-8.7,8.4-8.7c2.8,0,4.6,0.8,6.3,2.2l-1.2,1.4c-1.3-1.1-2.7-1.9-5.1-1.9
		c-3.7,0-6.4,3.1-6.4,6.9v0c0,4,2.6,7,6.6,7c1.9,0,3.7-0.7,4.8-1.7v-4.2h-5.1v-1.7h6.9v6.7c-1.6,1.4-3.9,2.6-6.7,2.6
		C259.2,184.5,255.9,180.7,255.9,175.9z"/>
	<path fill="#58595B" d="M275.8,167.4H288v1.7h-10.2v5.7h9.2v1.7h-9.2v5.9h10.4v1.7h-12.3V167.4z"/>
	<path fill="#58595B" d="M292.2,167.4h1.9l6.1,9.2l6.1-9.2h1.9v16.8h-1.9v-13.6l-6.1,9h-0.1l-6.1-9v13.6h-1.8V167.4z"/>
	<path fill="#58595B" d="M313.3,167.4h12.1v1.7h-10.2v5.7h9.2v1.7h-9.2v5.9h10.4v1.7h-12.3V167.4z"/>
	<path fill="#58595B" d="M329.7,167.4h1.8l10.6,13.5v-13.5h1.8v16.8h-1.5l-10.8-13.8v13.8h-1.8V167.4z"/>
	<path fill="#58595B" d="M353.4,169.2h-5.6v-1.8H361v1.8h-5.6v15h-1.9V169.2z"/>
</g>
<g>
	<path fill="#FBE768" d="M165.6,69c0,4.1-3.4,7.5-7.5,7.5h-38c-4.1,0-7.5-3.4-7.5-7.5V31c0-4.1,3.4-7.5,7.5-7.5h38
		c4.1,0,7.5,3.4,7.5,7.5V69z"/>
	<path fill="#999999" d="M251.6,13.5h3v63h-3V13.5z"/>
	<path opacity="0.8" fill="#FFFFFF" d="M320.6,59c0,4.1-3.4,7.5-7.5,7.5h-38c-4.1,0-7.5-3.4-7.5-7.5V21c0-4.1,3.4-7.5,7.5-7.5h38
		c4.1,0,7.5,3.4,7.5,7.5V59z"/>
	<path fill="#EF6A4F" d="M320.6,59c0,4.1-3.4,7.5-7.5,7.5h-38c-4.1,0-7.5-3.4-7.5-7.5V21c0-4.1,3.4-7.5,7.5-7.5h38
		c4.1,0,7.5,3.4,7.5,7.5V59z"/>
	<path fill="#BCD85F" d="M199.6,69c0,4.1-3.4,7.5-7.5,7.5h-38c-4.1,0-7.5-3.4-7.5-7.5V31c0-4.1,3.4-7.5,7.5-7.5h38
		c4.1,0,7.5,3.4,7.5,7.5V69z"/>
	<path fill="#40BBEC" d="M238.6,69c0,4.1-3.4,7.5-7.5,7.5h-38c-4.1,0-7.5-3.4-7.5-7.5V31c0-4.1,3.4-7.5,7.5-7.5h38
		c4.1,0,7.5,3.4,7.5,7.5V69z"/>
	<path fill="#58C1D0" d="M192.6,23.5c-4.1,0.1-7,3.4-7,7.5v38.1c0,4.1,2.9,7.4,7,7.5c4.1-0.1,7-3.4,7-7.5V31
		C199.6,26.9,196.7,23.6,192.6,23.5z"/>
	<path fill="#E3DC25" d="M165.6,31c0-4.1-3.4-7.5-7.5-7.5h-4c-4.1,0-7.5,3.4-7.5,7.5v38c0,4.1,3.4,7.5,7.5,7.5h4
		c4.1,0,7.5-3.4,7.5-7.5V31z"/>
</g>
</svg>
