<svg preserveAspectRatio="xMinYMin" xmlns="http://www.w3.org/2000/svg" version="1.1" x="0" y="0" width="192.5" height="116.1" viewBox="0 0 192.5 116.1" enable-background="new 0 0 192.5 116.1" xml:space="preserve"><path fill="none" stroke="#E0E1E0" stroke-width="2" stroke-linecap="round" stroke-linejoin="round" stroke-miterlimit="10" d="M191.5 47.1h-31.3c-2.5-8.7-10.4-15-19.9-15 -1 0-2 0.1-2.9 0.2 -2.7-4.4-7.5-7.4-13.1-7.4 -0.4 0-0.7 0-1.1 0 -2.9-9.1-11.4-15.6-21.4-15.6 -11.1 0-20.3 8.1-22.2 18.7 -0.4 0-0.7-0.1-1.1-0.1 -3.7 0-7 1.9-9 4.7 -1.8-0.7-3.7-1.1-5.7-1.1 -3.9 0-7.4 1.4-10.1 3.8 -2.7 2.4-4.5 5.7-5 9.4"></path><path fill="none" stroke="#08B7DB" stroke-width="2" stroke-linecap="round" stroke-linejoin="round" stroke-miterlimit="10" d="M72.2 64.2c0-5.9-4.8-10.7-10.7-10.7 -1 0-2 0.2-3 0.4 -3.2-4.8-8.7-8-14.9-8 -9.3 0-16.9 7-17.8 16.1 0 0-0.1 0-0.1 0 -6.3 0-11.5 4.6-12.5 10.7H1"></path><path fill="none" stroke="#08B7DB" stroke-width="2" stroke-linecap="round" stroke-linejoin="round" stroke-miterlimit="10" d="M171 76.5h-14.7c0-4-3.3-7.3-7.3-7.3 -0.1 0-0.2 0-0.4 0 -1.3-5.1-5.9-8.8-11.4-8.8 -0.8 0-1.6 0.1-2.3 0.2 -1.7-5.1-6.5-8.8-12.2-8.8 -6.3 0-11.6 4.6-12.6 10.6 -0.2 0-0.4 0-0.6 0 -3.4 0-6.2 2.8-6.2 6.2 0 0.6 0.1 1.2 0.2 1.7 -2.8 0.4-4.9 2.6-5.2 5.4 -0.5-0.1-1.1-0.2-1.7-0.2 -3.7 0-6.7 3-6.7 6.7"></path><path fill="none" stroke="#9C5EA6" stroke-width="2" stroke-linecap="round" stroke-linejoin="round" stroke-miterlimit="10" d="M6.3 107.1h20.5c0-5.6 4.6-10.2 10.2-10.2 0.2 0 0.3 0 0.5 0 1.8-7.1 8.2-12.3 15.9-12.3 1.1 0 2.2 0.1 3.3 0.3 2.3-7.1 9-12.2 16.9-12.2 8.8 0 16.1 6.4 17.6 14.8 0.3 0 0.6 0 0.9 0 4.8 0 8.7 3.9 8.7 8.7 0 0.8-0.1 1.6-0.3 2.4 3.8 0.6 6.8 3.7 7.3 7.6 0.8-0.2 1.6-0.3 2.4-0.3 5.2 0 9.4 4.2 9.4 9.4h12.3"></path><path fill="none" stroke="#9C5EA6" stroke-width="2" stroke-linecap="round" stroke-linejoin="round" stroke-miterlimit="10" d="M124.9 14.2h7.9c0-2.2 1.8-3.9 3.9-3.9 0.1 0 0.1 0 0.2 0 0.7-2.7 3.2-4.7 6.1-4.7 0.4 0 0.9 0 1.3 0.1 0.9-2.7 3.5-4.7 6.5-4.7 3.4 0 6.2 2.5 6.8 5.7 0.1 0 0.2 0 0.3 0 1.8 0 3.3 1.5 3.3 3.3 0 0.3 0 0.6-0.1 0.9 1.5 0.2 2.6 1.4 2.8 2.9 0.3-0.1 0.6-0.1 0.9-0.1 2 0 3.6 1.6 3.6 3.6h4.7"></path></svg>