<svg preserveAspectRatio="xMinYMin" xmlns="http://www.w3.org/2000/svg" version="1.1" x="0" y="0" width="167.9" height="129.7" viewBox="0 0 167.9 129.7" enable-background="new 0 0 167.9 129.7" xml:space="preserve"><circle fill="none" stroke="#E0E1E0" stroke-width="2" stroke-linecap="round" stroke-linejoin="round" stroke-miterlimit="10" cx="20.8" cy="99.8" r="19.8"></circle><circle fill="none" stroke="#E0E1E0" stroke-width="2" stroke-linecap="round" stroke-linejoin="round" stroke-miterlimit="10" cx="90.2" cy="108.9" r="19.8"></circle><circle fill="none" stroke="#E0E1E0" stroke-width="2" stroke-linecap="round" stroke-linejoin="round" stroke-miterlimit="10" cx="80.2" cy="56.4" r="22.5"></circle><circle fill="none" stroke="#E0E1E0" stroke-width="2" stroke-linecap="round" stroke-linejoin="round" stroke-miterlimit="10" cx="125.2" cy="23.4" r="22.4"></circle><path fill="none" stroke="#E0E1E0" stroke-width="2" stroke-linecap="round" stroke-linejoin="round" stroke-miterlimit="10" d="M45.5 14.3c1.5 2.6 2.3 5.5 2.3 8.7 0 9.7-7.8 17.5-17.5 17.5 -9.7 0-17.5-7.8-17.5-17.5S20.6 5.4 30.3 5.4c3.6 0 7 1.1 9.8 3"></path><circle fill="none" stroke="#E0E1E0" stroke-width="2" stroke-linecap="round" stroke-linejoin="round" stroke-miterlimit="10" cx="147.4" cy="88.3" r="19.4"></circle><line fill="none" stroke="#9C5EA6" stroke-width="2" stroke-linecap="round" stroke-linejoin="round" stroke-miterlimit="10" x1="150.2" y1="89.9" x2="150.2" y2="86.8"></line><path fill="none" stroke="#9C5EA6" stroke-width="2" stroke-linecap="round" stroke-linejoin="round" stroke-miterlimit="10" d="M144.7 86.8v3.1l-5.5 2c-1.3 0.5-2.2 1.7-2.2 3.1v2.6h13.2"></path><ellipse fill="none" stroke="#9C5EA6" stroke-width="2" stroke-linecap="round" stroke-linejoin="round" stroke-miterlimit="10" cx="147.4" cy="81.1" rx="5.5" ry="6.6"></ellipse><path fill="none" stroke="#9C5EA6" stroke-width="2" stroke-linecap="round" stroke-linejoin="round" stroke-miterlimit="10" d="M152.9 80.5c-0.2 0-0.4 0-0.5 0 -1.9 0.4-3.1-0.3-4.1-2.1 -0.6 1.2-2.5 2.1-4.1 2.1 -0.8 0-1.5-0.2-2.1-0.5"></path><path fill="none" stroke="#9C5EA6" stroke-width="2" stroke-linecap="round" stroke-linejoin="round" stroke-miterlimit="10" d="M157.3 99.8c0 0 4.9-2.7 4.9-7.1 0-3.3-3.8-3.3-4.9 0 -1.1-3.3-4.9-3.3-4.9 0.3C152.4 97 157.3 99.8 157.3 99.8z"></path><path fill="none" stroke="#08B7DB" stroke-width="2" stroke-linecap="round" stroke-linejoin="round" stroke-miterlimit="10" d="M35.1 15.5c-0.8-0.5-2.3-0.9-3.2-1.1v-3.6h-3.3v3.6c-1 0.2-2.4 0.6-3.2 1.1L22.9 13l-3.1 3.1 2.5 2.5c-0.5 0.8-0.9 2.3-1.1 3.2h-3.6v3.3h3.6c0.2 1 0.6 2.4 1.1 3.2l-2.5 2.5 3.1 3.1 2.5-2.5c0.8 0.5 2.3 0.9 3.2 1.1v3.6h3.3v-3.6c1-0.2 2.4-0.6 3.2-1.1l2.5 2.5 3.1-3.1 -2.5-2.5c0.5-0.8 0.9-2.3 1.1-3.2h3.6v-3.3h-3.6c-0.1-0.6-0.3-1.3-0.5-1.9"></path><polyline fill="none" stroke="#08B7DB" stroke-width="2" stroke-linecap="round" stroke-linejoin="round" stroke-miterlimit="10" points=" 42.9 10.8 30.6 26 25.7 21.1 "></polyline><polyline fill="none" stroke="#96CA59" stroke-width="2" stroke-linecap="round" stroke-linejoin="round" stroke-miterlimit="10" points=" 112.1 23.4 122 18.1 130.3 20.8 137.4 12.7 137.4 36.1 112.1 36.1 112.1 11.4 "></polyline><polyline fill="none" stroke="#96CA59" stroke-width="2" stroke-linecap="round" stroke-linejoin="round" stroke-miterlimit="10" points=" 112.1 30.1 121 25.1 128.2 25.1 137.4 21.2 "></polyline><polyline fill="none" stroke="#96CA59" stroke-width="2" stroke-linecap="round" stroke-linejoin="round" stroke-miterlimit="10" points=" 112.1 35.6 121 29.5 128.2 29.9 137.4 27.8 "></polyline><polyline fill="none" stroke="#96CA59" stroke-width="2" stroke-linecap="round" stroke-linejoin="round" stroke-miterlimit="10" points=" 35.7 101.1 31.9 96.9 29 101.7 "></polyline><path fill="none" stroke="#96CA59" stroke-width="2" stroke-linecap="round" stroke-linejoin="round" stroke-miterlimit="10" d="M31.9 97c1.5 5.8-1.9 11.9-7.8 13.3"></path><polyline fill="none" stroke="#96CA59" stroke-width="2" stroke-linecap="round" stroke-linejoin="round" stroke-miterlimit="10" points=" 16.4 86.5 14.3 91.7 19.9 92.2 "></polyline><path fill="none" stroke="#96CA59" stroke-width="2" stroke-linecap="round" stroke-linejoin="round" stroke-miterlimit="10" d="M14.3 91.7c4.6-3.9 11.5-3.5 15.4 1.1"></path><polyline fill="none" stroke="#96CA59" stroke-width="2" stroke-linecap="round" stroke-linejoin="round" stroke-miterlimit="10" points=" 12.4 111.1 17.9 110.3 15.6 105.2 "></polyline><path fill="none" stroke="#96CA59" stroke-width="2" stroke-linecap="round" stroke-linejoin="round" stroke-miterlimit="10" d="M17.8 110.2c-5.7-2-8.8-8.2-6.8-13.9"></path><path fill="none" stroke="#08B7DB" stroke-width="2" stroke-linecap="round" stroke-linejoin="round" stroke-miterlimit="10" d="M93.8 57.5c0-3.4-2.8-6.2-6.3-6.1 -1.4-2.9-4.3-4.9-7.7-4.9 -4.5 0-8.2 3.6-8.5 8 -2.8-0.6-5.5 1.6-5.5 4.5 0 4.6 4.9 4.6 4.9 4.6h17.7C88.3 63.6 93.8 62.9 93.8 57.5z"></path><ellipse fill="none" stroke="#F2CC2B" stroke-width="2" stroke-linecap="round" stroke-linejoin="round" stroke-miterlimit="10" cx="90.2" cy="101.7" rx="10.4" ry="4.4"></ellipse><path fill="none" stroke="#F2CC2B" stroke-width="2" stroke-linecap="round" stroke-linejoin="round" stroke-miterlimit="10" d="M100.6 106.1c0 2.4-4.7 4.4-10.4 4.4 -5.8 0-10.4-2-10.4-4.4"></path><path fill="none" stroke="#F2CC2B" stroke-width="2" stroke-linecap="round" stroke-linejoin="round" stroke-miterlimit="10" d="M100.6 111c0 2.4-4.7 4.4-10.4 4.4 -5.8 0-10.4-2-10.4-4.4"></path><path fill="none" stroke="#F2CC2B" stroke-width="2" stroke-linecap="round" stroke-linejoin="round" stroke-miterlimit="10" d="M79.8 101.7V116c0 2.4 4.7 4.4 10.4 4.4 5.8 0 10.4-2 10.4-4.4v-14.3"></path><line fill="none" stroke="#E0E1E0" stroke-width="2" stroke-linecap="round" stroke-linejoin="round" stroke-miterlimit="10" x1="59.7" y1="67.4" x2="36.4" y2="87.7"></line><line fill="none" stroke="#E0E1E0" stroke-width="2" stroke-linecap="round" stroke-linejoin="round" stroke-miterlimit="10" x1="84.9" y1="78.4" x2="86.8" y2="89.3"></line><line fill="none" stroke="#E0E1E0" stroke-width="2" stroke-linecap="round" stroke-linejoin="round" stroke-miterlimit="10" x1="98.7" y1="43.4" x2="105.8" y2="36.1"></line><line fill="none" stroke="#E0E1E0" stroke-width="2" stroke-linecap="round" stroke-linejoin="round" stroke-miterlimit="10" x1="60.8" y1="44.1" x2="45.1" y2="33.9"></line><line fill="none" stroke="#E0E1E0" stroke-width="2" stroke-linecap="round" stroke-linejoin="round" stroke-miterlimit="10" x1="101.6" y1="63.6" x2="130.7" y2="78.4"></line></svg>