<?xml version="1.0" encoding="utf-8"?>
<!-- Generator: Adobe Illustrator 17.1.0, SVG Export Plug-In . SVG Version: 6.00 Build 0)  -->
<!DOCTYPE svg PUBLIC "-//W3C//DTD SVG 1.1//EN" "http://www.w3.org/Graphics/SVG/1.1/DTD/svg11.dtd">
<svg version="1.1" id="Layer_1" xmlns="http://www.w3.org/2000/svg" xmlns:xlink="http://www.w3.org/1999/xlink" x="0px" y="0px"
	 width="317.5px" height="80px" viewBox="91 210 317.5 80" enable-background="new 91 210 317.5 80" xml:space="preserve">
<g>
	<g>
		<g>
			<path d="M102.2,233.6l-4.8-10.5c-1.3-2.5-2.2-5.1-2.9-6.4l0,0c0,1.9,0,4.1,0,6.1v10.5H91v-22h4.1l5.4,10.8c1,1.9,1.9,4.8,2.2,5.7
				l0,0c0-1-0.3-4.1-0.3-6.4v-10.2h3.5v22h-3.8V233.6z"/>
			<path d="M112.7,226.3L112.7,226.3c0,2.5,1,4.8,3.8,4.8c1.6,0,2.9-0.6,4.1-1.6l1.3,2.2c-1.6,1.6-3.5,2.2-5.4,2.2
				c-4.5,0-7.3-3.2-7.3-8.3c0-2.9,0.6-4.8,1.9-6.4c1.3-1.6,2.9-2.2,4.8-2.2c1.6,0,3.2,0.3,4.5,1.6c1.3,1.3,2.2,3.2,2.2,7v0.6H112.7z
				 M115.9,219.6c-1.9,0-3.2,1.6-3.2,4.1h6.1C118.8,221.2,117.8,219.6,115.9,219.6z"/>
			<path d="M140.4,233.6h-3.2l-1.9-7.6c-0.6-1.9-1-4.5-1-4.5l0,0c0,0-0.3,1.6-1,4.5l-1.9,7.3h-3.2l-4.5-15.9l3.5-0.3l1.6,7.6
				c0,2.2,0.6,4.5,0.6,4.5l0,0c0,0,0.3-2.2,1-4.5l1.9-7.3h3.5l1.9,7.3c0.6,2.5,1,4.5,1,4.5l0,0c0,0,0.3-2.5,0.6-4.5l1.6-7.6h3.5
				L140.4,233.6z"/>
			<path d="M165,233.6l-1.9-3.5c-1.6-2.5-2.5-4.1-3.8-5.4c-0.3-0.3-0.6-0.6-1.6-0.6v9.6h-3.5v-22.3h7c4.8,0,7,2.9,7,6.4
				c0,3.2-1.9,6.1-5.4,6.1c0.6,0.3,2.2,2.5,3.5,4.5l3.2,5.4C169.4,233.6,165,233.6,165,233.6z M159.9,214.5H158v7h1.9
				c1.9,0,2.9-0.3,3.5-1s1-1.6,1-2.9C164.3,215.4,163.4,214.5,159.9,214.5z"/>
			<path d="M174.5,226.3L174.5,226.3c0,2.5,1,4.8,3.8,4.8c1.6,0,2.9-0.6,4.1-1.6l1.3,2.2c-1.6,1.3-3.5,2.2-5.7,2.2
				c-4.5,0-7.3-3.2-7.3-8.3c0-2.9,0.6-4.8,1.9-6.4c1.3-1.6,2.9-2.2,4.8-2.2c1.6,0,3.2,0.3,4.5,1.6s2.2,3.2,2.2,7v0.6
				C184.1,226.3,174.5,226.3,174.5,226.3z M177.7,219.6c-1.9,0-3.2,1.6-3.2,4.1h6.1C180.6,221.2,179.3,219.6,177.7,219.6z"/>
			<path d="M190.5,233.9c-3.5,0-3.5-3.2-3.5-4.5v-14c0-2.2,0-3.5-0.3-4.8l3.5-0.6c0.3,1,0.3,2.2,0.3,4.5v13.7c0,2.2,0,2.5,0.3,2.9
				s0.6,0.3,1.3,0.3l0.6,2.2C191.7,233.6,191.1,233.9,190.5,233.9z"/>
			<path d="M197.2,214.8c-1.3,0-2.2-1-2.2-2.2s1-2.2,2.2-2.2s2.2,1,2.2,2.2C199.7,213.8,198.4,214.8,197.2,214.8z M195.6,233.6
				v-15.9l3.5-0.6v16.6C199.1,233.6,195.6,233.6,195.6,233.6z"/>
			<path d="M209.3,233.9c-4.5,0-6.7-3.2-6.7-8.3c0-5.7,3.5-8.6,7-8.6c1.6,0,2.9,0.3,4.5,1.6l-1.6,2.2c-1-1-1.9-1.3-2.5-1.3
				c-1,0-1.9,0.6-2.5,1.6c-0.3,1-0.6,2.5-0.6,4.5c0,2.2,0.3,3.5,1,4.5c0.6,0.6,1.3,1,2.2,1c1,0,2.2-0.6,3.2-1.6l1.6,2.2
				C213.1,233.3,211.5,233.9,209.3,233.9z"/>
		</g>
		<path d="M222,233.9c-2.5,0-4.8-2.2-4.8-4.8s2.2-4.8,4.8-4.8c2.5,0,4.8,2.2,4.8,4.8S224.6,233.9,222,233.9z M222,225
			c-1.9,0-3.8,1.6-3.8,3.8s1.6,3.8,3.8,3.8c1.9,0,3.8-1.6,3.8-3.8S223.9,225,222,225z M223,231.7c-0.3-0.3-0.3-0.6-0.6-1
			c-0.6-1-0.6-1.3-1-1.3c0,0,0,0-0.3,0v2.2h-1v-5.4h1.9c1,0,1.6,0.6,1.6,1.6s-0.6,1.6-1.3,1.6c0,0,0,0,0.3,0.3
			c0.3,0.3,1.3,2.2,1.3,2.2h-1V231.7z M222.3,227.2c0,0-0.3,0-0.6,0h-0.3v1.6h0.3c0.3,0,0.6,0,1-0.3c0,0,0.3-0.3,0.3-0.6
			C222.7,227.5,222.7,227.2,222.3,227.2z"/>
	</g>
	<g>
		<g>
			<path fill="#F1BC55" d="M91,240h10.8V289H91V240z"/>
			<path fill="#F1BC55" d="M108.6,240h9.9l22.9,30.3V240h10.5V289h-9.2l-23.6-31.2V289h-10.5V240z"/>
			<path fill="#F1BC55" d="M156.4,282l6.4-7.6c4.5,3.5,8.9,6.1,14.7,6.1c4.5,0,7-1.6,7-4.8l0,0c0-2.9-1.6-4.1-9.9-6.4
				c-9.9-2.5-16.3-5.1-16.3-15l0,0c0-8.9,7-14.7,17.2-14.7c7,0,13.4,2.2,18.2,6.4l-5.7,8.3c-4.5-2.9-8.6-4.8-12.7-4.8
				s-6.4,1.9-6.4,4.1l0,0c0,3.2,2.2,4.1,10.5,6.4c9.9,2.5,15.6,6.1,15.6,14.7l0,0c0,9.9-7.3,15.3-18.2,15.3
				C169.7,289.7,162.1,287.1,156.4,282z"/>
			<path fill="#F1BC55" d="M201,240h10.8V289H201V240z"/>
			<path fill="#F1BC55" d="M216,264.8L216,264.8c0-14,10.8-25.5,25.8-25.5c8.9,0,14,2.2,19.4,6.7l-6.7,8.3c-3.8-3.2-7-5.1-12.7-5.1
				c-8,0-14,7-14,15.3l0,0c0,8.9,6.1,15.6,15,15.6c3.8,0,7.3-1,10.2-2.9v-7h-10.8V261h21.4v21.4c-5.1,4.1-12.1,7.6-21,7.6
				C226.5,290,216,279.2,216,264.8z"/>
			<path fill="#F1BC55" d="M267.6,240h10.8v19.4h19.8V240H309V289h-10.8v-19.8h-19.8V289h-10.8L267.6,240L267.6,240z"/>
			<path fill="#F1BC55" d="M328.2,249.8h-15V240H354v9.9h-15V289h-10.8L328.2,249.8L328.2,249.8z"/>
			<path fill="#F1BC55" d="M356.2,282l6.4-7.6c4.5,3.5,8.9,6.1,14.7,6.1c4.5,0,7-1.6,7-4.8l0,0c0-2.9-1.6-4.1-9.9-6.4
				c-9.9-2.5-16.3-5.1-16.3-15l0,0c0-8.9,7-14.7,17.2-14.7c7,0,13.4,2.2,18.2,6.4l-5.7,8.3c-4.5-2.9-8.6-4.8-12.7-4.8
				s-6.4,1.9-6.4,4.1l0,0c0,3.2,2.2,4.1,10.5,6.4c9.9,2.5,15.6,6.1,15.6,14.7l0,0c0,9.9-7.3,15.3-18.2,15.3
				C369.6,289.7,362.3,287.1,356.2,282z"/>
		</g>
		<g>
			<path fill="#F1BC55" d="M397.6,240.9h-2.2v-1h5.1v1h-2.2v5.7h-1v-5.7H397.6z M402.1,240h1l2.2,3.5l2.2-3.5h1v6.7h-1v-5.1
				l-1.9,3.5l0,0l-2.2-3.5v5.1h-1V240H402.1z"/>
		</g>
	</g>
</g>
</svg>
