<?xml version="1.0" encoding="utf-8"?>
<!-- Generator: Adobe Illustrator 17.1.0, SVG Export Plug-In . SVG Version: 6.00 Build 0)  -->
<!DOCTYPE svg PUBLIC "-//W3C//DTD SVG 1.1//EN" "http://www.w3.org/Graphics/SVG/1.1/DTD/svg11.dtd">
<svg version="1.1" id="Layer_1" xmlns="http://www.w3.org/2000/svg" xmlns:xlink="http://www.w3.org/1999/xlink" x="0px" y="0px"
	 width="357.3px" height="80px" viewBox="70.9 210 357.3 80" enable-background="new 70.9 210 357.3 80" xml:space="preserve">
<g>
	<g>
		<g>
			<path d="M82.7,233.6l-5.1-10.5c-1.3-2.5-2.2-5.1-2.9-6.4l0,0c0.3,1.9,0.3,4.1,0.3,6.1v10.5h-3.5v-22h4.1l5.4,10.8
				c1,1.9,1.9,4.8,2.2,5.7l0,0c0-1-0.3-4.1-0.3-6.4v-10.2h3.5v22h-3.8V233.6z"/>
			<path d="M93.2,226.3L93.2,226.3c0,2.5,1,4.8,3.8,4.8c1.6,0,2.9-0.6,4.1-1.6l1.3,2.2c-1.6,1.6-3.5,2.2-5.7,2.2
				c-4.5,0-7.3-3.2-7.3-8.3c0-2.9,0.6-4.8,1.9-6.4s2.9-2.2,5.1-2.2c1.6,0,3.2,0.3,4.5,1.6c1.3,1.3,2.2,3.2,2.2,7v0.6H93.2z
				 M96.4,219.6c-2.2,0-3.2,1.6-3.2,4.1h6.1C99.3,221.2,98,219.6,96.4,219.6z"/>
			<path d="M120.9,233.6h-3.2l-2.2-7.6c-0.6-1.9-1-4.5-1-4.5l0,0c0,0-0.3,1.6-1,4.5l-1.9,7.3h-3.2l-4.5-15.9l3.5-0.3l1.6,8
				c0.3,1.9,0.6,4.1,0.6,4.1l0,0c0,0,0.3-2.2,1-4.5l1.9-7.3h3.5l1.9,7.3c0.6,2.5,1.3,4.5,1.3,4.5l0,0c0,0,0.3-2.5,0.6-4.5l1.9-7.3
				h3.5L120.9,233.6z"/>
			<path d="M145.5,233.6l-1.9-3.5c-1.6-2.9-2.5-4.1-3.8-5.4c-0.3-0.3-0.6-0.6-1.6-0.6v9.6h-3.5v-22.3h6.7c4.8,0,7,2.9,7,6.4
				c0,3.2-1.9,6.1-5.4,6.1c0.6,0.3,2.2,2.5,3.5,4.5l3.2,5.4C149.6,233.6,145.5,233.6,145.5,233.6z M140.4,214.5h-1.9v7h1.9
				c1.9,0,2.9-0.3,3.5-1s1-1.6,1-2.5C144.9,215.4,143.6,214.5,140.4,214.5z"/>
			<path d="M155.1,226.3L155.1,226.3c0,2.5,1,4.8,3.8,4.8c1.6,0,2.9-0.6,4.1-1.6l1.3,2.2c-1.6,1.3-3.5,2.2-5.7,2.2
				c-4.5,0-7.3-3.2-7.3-8.3c0-2.9,0.6-4.8,1.9-6.4c1.3-1.6,2.9-2.2,4.8-2.2c1.6,0,3.2,0.3,4.5,1.6c1.3,1.3,2.2,3.2,2.2,7v0.6
				C164.6,226.3,155.1,226.3,155.1,226.3z M158.2,219.6c-1.9,0-3.2,1.6-3.2,4.1h6.1C161.1,221.2,159.8,219.6,158.2,219.6z"/>
			<path d="M170.7,233.9c-3.5,0-3.5-3.2-3.5-4.5v-14c0-2.2,0-3.5-0.3-4.8l3.5-0.6c0.3,1,0.3,2.2,0.3,4.5v13.7c0,2.2,0,2.5,0.3,2.9
				s0.6,0.3,1.3,0.3l0.6,1.9C172.3,233.6,171.6,233.9,170.7,233.9z"/>
			<path d="M177.7,214.8c-1.3,0-2.2-1-2.2-2.2s1-2.2,2.2-2.2s2.2,1,2.2,2.2S179,214.8,177.7,214.8z M175.8,233.6v-15.9l3.5-0.6v16.6
				C179.3,233.6,175.8,233.6,175.8,233.6z"/>
			<path d="M189.8,233.9c-4.5,0-6.7-3.2-6.7-8.3c0-5.7,3.5-8.6,7-8.6c1.6,0,2.9,0.3,4.5,1.6l-1.6,2.2c-1-1-1.9-1.3-2.5-1.3
				c-1,0-1.9,0.6-2.5,1.6c-0.3,1-0.6,2.5-0.6,4.5c0,2.2,0.3,3.5,1,4.5c0.6,0.6,1.3,1,2.2,1s2.2-0.6,3.2-1.6l1.6,2.2
				C193.3,233.3,192,233.9,189.8,233.9z"/>
		</g>
		<path d="M202.2,233.9c-2.5,0-4.8-2.2-4.8-4.8s2.2-4.8,4.8-4.8c2.5,0,4.8,2.2,4.8,4.8S205.1,233.9,202.2,233.9z M202.2,225
			c-1.9,0-3.8,1.6-3.8,3.8s1.6,3.8,3.8,3.8c1.9,0,3.8-1.6,3.8-3.8S204.5,225,202.2,225z M203.2,231.7c-0.3-0.3-0.3-0.6-0.6-1
			c-0.6-1-0.6-1.3-1-1.3c0,0,0,0-0.3,0v2.2h-1v-5.4h1.9c1,0,1.6,0.6,1.6,1.6s-0.6,1.6-1.3,1.6c0,0,0,0,0.3,0.3
			c0.3,0.3,1.3,2.2,1.3,2.2h-1V231.7z M202.5,227.2c0,0-0.3,0-0.6,0h-0.3v1.6h0.3c0.3,0,0.6,0,1-0.3c0,0,0.3-0.3,0.3-0.6
			C203.2,227.5,202.9,227.2,202.5,227.2z"/>
	</g>
	<g>
		<g>
			<path fill="#F29021" d="M70.9,240h22.9c5.7,0,9.9,1.6,12.7,4.5c2.2,2.2,3.5,5.1,3.5,8.3l0,0c0,5.4-2.9,8.6-6.4,10.5
				c5.7,2.2,9.2,5.4,9.2,12.1l0,0c0,8.9-7.3,13.4-18.5,13.4H70.9V240z M99.3,254.6c0-3.2-2.5-5.1-7-5.1H81.4V260h9.9
				C96.1,259.7,99.3,258.4,99.3,254.6L99.3,254.6z M93.9,269H81.4v10.8h12.7c4.8,0,7.6-1.6,7.6-5.4l0,0
				C101.8,270.9,99.6,269,93.9,269z"/>
			<path fill="#F29021" d="M115.8,240h22.3c6.4,0,11.2,1.9,14.3,5.1c2.9,2.9,4.1,6.7,4.1,11.2l0,0c0,8-4.1,12.7-10.5,15.3l12.1,17.5
				h-12.7L135,273.4h-8.6V289h-10.8V240H115.8z M137.5,263.9c5.1,0,8.3-2.9,8.3-7l0,0c0-4.8-3.2-7-8.6-7h-10.8v14H137.5z"/>
			<path fill="#F29021" d="M160.2,264.8L160.2,264.8c0-14,11.2-25.5,26.1-25.5c15.3,0,26.1,11.2,26.1,25.2l0,0
				c0,14-11.2,25.5-26.1,25.5C171,290,160.2,278.5,160.2,264.8z M201.3,264.8L201.3,264.8c0-8.6-6.1-15.6-15-15.6
				c-8.6,0-14.7,7-14.7,15.3l0,0c0,8.3,6.1,15.3,15,15.3C195.2,280.1,201.3,273.1,201.3,264.8z"/>
			<path fill="#F29021" d="M211.1,240h11.5l10.2,33.1l11.2-33.5h9.2l11.2,33.5l10.2-33.1h11.2l-16.9,49.4h-9.2l-11.2-32.2
				l-11.2,32.2H228L211.1,240z"/>
			<path fill="#F29021" d="M284.8,282l6.4-7.6c4.5,3.5,8.9,6.1,14.7,6.1c4.5,0,7-1.6,7-4.8l0,0c0-2.9-1.6-4.1-9.9-6.4
				c-9.9-2.5-16.3-5.1-16.3-15l0,0c0-8.9,7-14.7,17.2-14.7c7,0,13.4,2.2,18.2,6.4l-5.7,7.6c-4.5-2.9-8.6-4.8-12.7-4.8
				c-4.1,0-6.4,1.9-6.4,4.1l0,0c0,3.2,2.2,4.1,10.5,6.4c9.9,2.5,15.6,6.1,15.6,14.7l0,0c0,9.9-7.3,15.3-18.2,15.3
				C298.2,289.7,290.5,287.1,284.8,282z"/>
			<path fill="#F29021" d="M328.8,240h37v9.6h-26.5v9.9h23.3v9.6h-23.3v10.2H366v9.6h-37.3V240z"/>
			<path fill="#F29021" d="M371.5,240h22.3c6.4,0,11.2,1.9,14.3,5.1c2.9,2.9,4.1,6.7,4.1,11.2l0,0c0,8-4.1,12.7-10.5,15.3l12.1,17.5
				h-12.7l-10.5-15.6H382V289h-10.8V240H371.5z M393.1,263.9c5.1,0,8.3-2.9,8.3-7l0,0c0-4.8-3.2-7-8.6-7H382v14H393.1z"/>
		</g>
		<g>
			<path fill="#F29021" d="M417.4,241.6h-2.2v-1h5.1v1h-1.9v5.7h-1V241.6z M421.8,240.6h1l2.2,3.5l2.2-3.5h1v6.7h-0.3v-5.1l-2.2,3.5
				l0,0l-2.2-3.5v5.1h-1v-6.7H421.8z"/>
		</g>
	</g>
</g>
</svg>
