<?xml version="1.0" encoding="utf-8"?>
<!-- Generator: Adobe Illustrator 17.1.0, SVG Export Plug-In . SVG Version: 6.00 Build 0)  -->
<!DOCTYPE svg PUBLIC "-//W3C//DTD SVG 1.1//EN" "http://www.w3.org/Graphics/SVG/1.1/DTD/svg11.dtd">
<svg version="1.1" id="Layer_1" xmlns="http://www.w3.org/2000/svg" xmlns:xlink="http://www.w3.org/1999/xlink" x="0px" y="0px"
	 width="168.6px" height="80px" viewBox="-84.3 210 168.6 80" enable-background="new -84.3 210 168.6 80" xml:space="preserve">
<path fill="#251F21" d="M-72.4,233.8l-5.1-10.4c-1.3-2.5-2.5-5.3-2.8-6.6l0,0c0.3,1.8,0.3,4.3,0.3,6.1l0.3,10.9h-3.8v-22.3h4.3
	l5.1,10.9c1.3,2,2,4.6,2.5,5.6l0,0c0-1-0.3-4.3-0.3-6.3v-10.1h3.5v22.3H-72.4z"/>
<path fill="#251F21" d="M-58.5,219.6c-2,0-3,1.5-3,4.3h6.1C-55.7,221.4-57,219.6-58.5,219.6 M-61.8,226.5v0.3c0,2.3,0.8,4.6,4.1,4.6
	c1.5,0,2.8-0.5,4.1-1.5l1.3,2.3c-1.8,1.5-3.8,2.3-5.8,2.3c-4.6,0-7.6-3.3-7.6-8.6c0-2.8,0.5-4.8,2-6.3c1.3-1.5,3-2.3,5.1-2.3
	c1.5,0,3,0.5,4.6,1.8s2,3.3,2,7.1v0.8h-9.6V226.5z"/>
<path fill="#251F21" d="M-33.7,233.8H-37l-2-7.6c-0.5-2-1-4.6-1-4.6l0,0c0,0-0.3,1.5-1,4.6l-2,7.3h-3.3l-4.8-15.9l3.5-0.5l1.8,7.8
	c0.5,2,0.8,4.3,0.8,4.3l0,0c0,0,0.3-2,1-4.3l2-7.6h3.5l1.8,7.3c0.8,2.5,1,4.6,1,4.6l0,0c0,0,0.5-2.5,0.8-4.3l1.8-7.6h3.8
	L-33.7,233.8z"/>
<path fill="#251F21" d="M-13.9,214.3h-2v7.1h2c2,0,3-0.3,3.5-1c0.5-0.5,1-1.5,1-2.8C-9.4,215.6-10.6,214.3-13.9,214.3 M-8.9,233.8
	l-2-3.5c-1.5-2.8-2.5-4.3-3.8-5.6c-0.5-0.5-0.8-0.8-1.5-0.8v9.6h-3.5v-22h6.8c5.1,0,7.3,2.8,7.3,6.3c0,3.3-2,6.1-5.6,6.1
	c0.8,0.5,2.3,2.5,3.5,4.6l3.3,5.3H-8.9z"/>
<path fill="#251F21" d="M3.8,219.6c-2,0-3,1.5-3,4.3h6.1C6.8,221.4,5.6,219.6,3.8,219.6 M0.8,226.5v0.3c0,2.3,0.8,4.6,4.1,4.6
	c1.5,0,2.8-0.5,4.1-1.5l1.3,2.3c-1.8,1.5-3.8,2.3-5.8,2.3c-4.6,0-7.6-3.3-7.6-8.6c0-2.8,0.5-4.8,2-6.3c1.3-1.5,3-2.3,5.1-2.3
	c1.5,0,3,0.5,4.6,1.8s2,3.3,2,7.1v0.8H0.8V226.5z"/>
<path fill="#251F21" d="M16.7,234.1c-3.5,0-3.5-3.3-3.5-4.6v-13.9c0-2.3,0-3.5-0.3-4.8l3.5-0.8c0.3,1,0.3,2.3,0.3,4.6v13.9
	c0,2.3,0,2.5,0.3,3c0.3,0.3,0.8,0.5,1.3,0.3l0.5,2.3C18.2,234.1,17.5,234.1,16.7,234.1"/>
<path fill="#251F21" d="M21.8,233.8v-16.2l3.5-0.8v16.7h-3.5V233.8z M23.5,215.1c-1.3,0-2.3-1-2.3-2.3s1-2.3,2.3-2.3
	c1.3,0,2.3,1,2.3,2.3C26.1,214.1,25.1,215.1,23.5,215.1"/>
<path fill="#251F21" d="M35.9,234.1c-4.6,0-6.8-3-6.8-8.4c0-5.8,3.5-8.9,7.1-8.9c1.8,0,3,0.5,4.6,1.8l-1.8,2.3c-1-0.8-1.8-1-2.8-1
	c-1,0-2,0.5-2.5,1.5c-0.5,1-0.8,2.5-0.8,4.6c0,2.3,0.3,3.5,1,4.6c0.5,0.5,1.3,1,2.3,1c1,0,2.3-0.5,3.3-1.5l1.8,2.3
	C39.7,233.5,38,234.1,35.9,234.1"/>
<path fill="#251F21" d="M49.1,227.5c0,0-0.3,0-0.5,0h-0.5v1.5h0.3c0.5,0,0.8,0,0.8-0.3c0.3-0.3,0.3-0.3,0.3-0.5
	C49.4,227.7,49.4,227.5,49.1,227.5 M49.6,232c-0.3-0.3-0.3-0.5-0.5-1c-0.5-1-0.8-1.3-1-1.3c0,0,0,0-0.3,0v2.3h-1v-5.6h2
	c1,0,1.5,0.8,1.5,1.5s-0.5,1.5-1.3,1.5l0.3,0.3c0.5,0.5,1.5,2.3,1.5,2.3H49.6z M48.6,225.2c-2,0-3.8,1.8-3.8,4.1
	c0,2.3,1.8,4.1,3.8,4.1s3.8-1.8,3.8-4.1C52.4,227,50.6,225.2,48.6,225.2 M48.6,234.1c-2.8,0-4.8-2-4.8-4.8c0-2.8,2.3-4.8,4.8-4.8
	c2.5,0,4.8,2.3,4.8,4.8C53.4,232,51.4,234.1,48.6,234.1"/>
<path fill="#378799" d="M77.7,240.9h1l2.3,3.8l2.3-3.8h1v6.6h-1v-5.1l-2.3,3.5h-0.3l-2.3-3.5v5.1h-0.8V240.9z M72.9,241.6h-2.3v-1
	h5.3v1h-2.3v5.8h-1v-5.8H72.9z"/>
<path fill="#378799" d="M-51.6,269.2l-6.6-15.9l-6.6,15.9H-51.6L-51.6,269.2z M-63,240.4h10.1l21.3,49.6H-43l-4.6-11.1h-21
	l-4.6,11.1h-11.1L-63,240.4z"/>
<path fill="#378799" d="M-7.8,265.4c5.3,0,8.6-3.3,8.6-7.6v-0.3c0-4.8-3.3-7.6-8.9-7.6h-8.4v15.2h8.6V265.4z M-27.1,240.6h20.3
	c11.9,0,19,7.1,19,17v0.3c0,11.4-8.9,17.5-20,17.5h-8.4V290h-10.9L-27.1,240.6L-27.1,240.6z"/>
<polygon fill="#378799" points="17.2,240.6 28.9,240.6 41.8,261.6 54.7,240.6 66.6,240.6 66.6,290 55.7,290 55.7,257.8 41.8,278.9 
	41.5,278.9 27.8,258.1 27.8,290 17.2,290 "/>
</svg>
