<svg id="Layer_1" data-name="Layer 1" xmlns="http://www.w3.org/2000/svg" viewBox="0 0 200.52 27.8"><defs><style>.cls-1{fill:#231f20;}.cls-2{fill:#226582;}</style></defs><title>NR-Infrastructure-rgb</title><g id="Servers"><path class="cls-1" d="M4.54,8.57,3,5.28a21,21,0,0,1-.89-2.08l0,0c.05.59.06,1.33.07,1.94l0,3.39H1v-7H2.33L4,5a12.77,12.77,0,0,1,.72,1.8l0,0c0-.35-.1-1.36-.1-2l0-3.2h1.1v7Z"/><path class="cls-1" d="M7.9,6.32V6.4c0,.71.26,1.46,1.27,1.46a1.89,1.89,0,0,0,1.28-.51l.44.68A2.77,2.77,0,0,1,9,8.7c-1.45,0-2.36-1-2.36-2.68a2.79,2.79,0,0,1,.64-2,2,2,0,0,1,1.57-.69,2,2,0,0,1,1.41.53A2.77,2.77,0,0,1,11,6.08v.23Zm1-2.15c-.63,0-1,.5-1,1.33H9.81c0-.83-.36-1.33-.92-1.33"/><path class="cls-1" d="M16.69,8.59h-1L15,6.23c-.16-.61-.33-1.4-.33-1.4h0s-.08.51-.33,1.45l-.62,2.31h-1l-1.4-5.07,1.1-.15.56,2.48c.14.64.26,1.35.26,1.35h0a13.9,13.9,0,0,1,.29-1.38l.66-2.37h1.09l.58,2.31c.21.83.32,1.46.32,1.46h0s.12-.78.25-1.38L17,3.45h1.15Z"/><path class="cls-1" d="M24.53,8.57l-.61-1.08a7.69,7.69,0,0,0-1.2-1.73.59.59,0,0,0-.46-.21v3H21.12v-7h2.14c1.57,0,2.28.91,2.28,2A1.79,1.79,0,0,1,23.8,5.5a5.3,5.3,0,0,1,1.08,1.4l1,1.68ZM22.91,2.51h-.64V4.73h.6A1.52,1.52,0,0,0,24,4.43a1.18,1.18,0,0,0,.31-.85c0-.71-.38-1.07-1.42-1.07"/><path class="cls-1" d="M27.55,6.32V6.4c0,.71.26,1.46,1.27,1.46a1.89,1.89,0,0,0,1.28-.51l.44.68a2.77,2.77,0,0,1-1.84.68c-1.45,0-2.36-1-2.36-2.68A2.79,2.79,0,0,1,27,4a2,2,0,0,1,1.57-.69,2,2,0,0,1,1.41.53,2.77,2.77,0,0,1,.67,2.23v.23Zm1-2.15c-.63,0-1,.5-1,1.33h1.89c0-.83-.36-1.33-.92-1.33"/><path class="cls-1" d="M32.54,8.68c-1.12,0-1.12-1-1.12-1.45V2.87a8.41,8.41,0,0,0-.1-1.5l1.14-.25a6.19,6.19,0,0,1,.09,1.41V6.87c0,.69,0,.8.11.92a.32.32,0,0,0,.36.08l.18.69a1.74,1.74,0,0,1-.67.12"/><path class="cls-1" d="M34.73,2.69A.73.73,0,0,1,34,2a.73.73,0,1,1,.72.74m-.56,5.88v-5l1.12-.2V8.57Z"/><path class="cls-1" d="M38.59,8.7c-1.4,0-2.18-1-2.18-2.63,0-1.86,1.11-2.75,2.26-2.75a1.87,1.87,0,0,1,1.42.56l-.56.74a1.26,1.26,0,0,0-.86-.4.87.87,0,0,0-.81.52,3.47,3.47,0,0,0-.21,1.43A2.06,2.06,0,0,0,38,7.56a.9.9,0,0,0,.68.29,1.48,1.48,0,0,0,1-.51l.53.68a2.13,2.13,0,0,1-1.64.68"/><path class="cls-1" d="M42.58,8.69A1.53,1.53,0,1,1,44.1,7.16a1.52,1.52,0,0,1-1.52,1.53m0-2.76a1.23,1.23,0,1,0,1.18,1.23,1.2,1.2,0,0,0-1.18-1.23M42.88,8l-.16-.28c-.17-.31-.22-.4-.28-.42h-.05V8H42V6.29h.64a.48.48,0,0,1,.51.5.44.44,0,0,1-.38.47l.07.07c.1.12.41.67.41.67ZM42.7,6.59a.7.7,0,0,0-.19,0h-.12V7h.12c.15,0,.21,0,.26-.06a.24.24,0,0,0,.07-.17.2.2,0,0,0-.12-.21"/></g><path class="cls-2" d="M1.05,10.72H4.5V26.41H1.05Z"/><path class="cls-2" d="M7,10.72h3.18l7.35,9.66V10.72h3.41V26.41H18l-7.6-10v10H7Z"/><path class="cls-2" d="M23.39,10.72H35.33v3.14h-8.5V17.2h7.49v3.14H26.84v6.07H23.39Z"/><path class="cls-2" d="M36.57,10.72h7.17a6.25,6.25,0,0,1,4.57,1.59,4.93,4.93,0,0,1,1.34,3.59v0a4.87,4.87,0,0,1-3.36,4.86l3.83,5.6h-4l-3.36-5H40v5H36.57Zm6.95,7.62c1.68,0,2.64-.9,2.64-2.22v0c0-1.48-1-2.24-2.71-2.24H40v4.51Z"/><path class="cls-2" d="M57.16,10.61h3.18l6.72,15.8H63.46L62,22.89H55.39L54,26.41H50.44Zm3.63,9.23-2.08-5.09-2.08,5.09Z"/><path class="cls-2" d="M67,24.12l2-2.44a7.2,7.2,0,0,0,4.68,1.91c1.41,0,2.26-.56,2.26-1.48v0c0-.87-.54-1.32-3.16-2-3.16-.81-5.2-1.68-5.2-4.8v0c0-2.85,2.29-4.73,5.49-4.73a9.08,9.08,0,0,1,5.83,2l-1.79,2.6A7.36,7.36,0,0,0,73,13.54c-1.32,0-2,.61-2,1.37v0c0,1,.67,1.37,3.38,2.06,3.18.83,5,2,5,4.71v0c0,3.12-2.38,4.86-5.76,4.86A10,10,0,0,1,67,24.12Z"/><path class="cls-2" d="M84.46,13.9H79.69V10.72h13V13.9H87.92V26.41H84.46Z"/><path class="cls-2" d="M93.61,10.72h7.17a6.25,6.25,0,0,1,4.57,1.59,4.93,4.93,0,0,1,1.34,3.59v0a4.87,4.87,0,0,1-3.36,4.86l3.83,5.6h-4l-3.36-5H97.06v5H93.61Zm6.95,7.62c1.68,0,2.64-.9,2.64-2.22v0c0-1.48-1-2.24-2.71-2.24H97.06v4.51Z"/><path class="cls-2" d="M108.11,19.68v-9h3.45V19.6c0,2.56,1.28,3.88,3.38,3.88s3.38-1.28,3.38-3.77v-9h3.45v8.85c0,4.75-2.67,7.08-6.88,7.08S108.11,24.3,108.11,19.68Z"/><path class="cls-2" d="M123.17,18.61v0a8,8,0,0,1,8.18-8.11,8.1,8.1,0,0,1,6.19,2.42l-2.2,2.53a5.79,5.79,0,0,0-4-1.77,4.65,4.65,0,0,0-4.55,4.89v0a4.66,4.66,0,0,0,4.55,4.93,5.66,5.66,0,0,0,4.12-1.84l2.2,2.22a8,8,0,0,1-6.43,2.8A7.92,7.92,0,0,1,123.17,18.61Z"/><path class="cls-2" d="M142.82,13.9H138V10.72h13V13.9h-4.77V26.41h-3.45Z"/><path class="cls-2" d="M151.85,19.68v-9h3.45V19.6c0,2.56,1.28,3.88,3.38,3.88s3.38-1.28,3.38-3.77v-9h3.45v8.85c0,4.75-2.67,7.08-6.88,7.08S151.85,24.3,151.85,19.68Z"/><path class="cls-2" d="M167.81,10.72H175a6.25,6.25,0,0,1,4.57,1.59,4.93,4.93,0,0,1,1.34,3.59v0a4.87,4.87,0,0,1-3.36,4.86l3.83,5.6h-4l-3.36-5h-2.71v5h-3.45Zm6.95,7.62c1.68,0,2.64-.9,2.64-2.22v0c0-1.48-1-2.24-2.71-2.24h-3.43v4.51Z"/><path class="cls-2" d="M182.67,10.72h11.83v3.07H186.1V17h7.4V20h-7.4v3.29h8.52v3.07H182.67Z"/><path class="cls-2" d="M195.75,10.73h-.64V10.3h1.78v.43h-.64v1.72h-.49Zm1.59-.43h.52l.57.91.57-.91h.5v2.16H199V11l-.6.95h0l-.6-.95v1.46h-.46Z"/></svg>