<?xml version="1.0" encoding="utf-8"?>
<!-- Generator: Adobe Illustrator 17.1.0, SVG Export Plug-In . SVG Version: 6.00 Build 0)  -->
<!DOCTYPE svg PUBLIC "-//W3C//DTD SVG 1.1//EN" "http://www.w3.org/Graphics/SVG/1.1/DTD/svg11.dtd">
<svg version="1.1" id="Layer_1" xmlns="http://www.w3.org/2000/svg" xmlns:xlink="http://www.w3.org/1999/xlink" x="0px" y="0px"
	 width="274.1px" height="80px" viewBox="112.9 210 274.1 80" enable-background="new 112.9 210 274.1 80" xml:space="preserve">
<g>
	<g>
		<g>
			<path d="M124.7,233.6l-5.1-10.5c-1.3-2.5-2.2-5.1-2.9-6.4l0,0c0.3,1.9,0.3,4.1,0.3,6.1v10.5h-3.5v-22h4.1l5.4,10.8
				c1,1.9,1.9,4.8,2.2,5.7l0,0c0-1-0.3-4.1-0.3-6.4v-10.2h3.5v22h-3.8V233.6z"/>
			<path d="M135.3,226.3L135.3,226.3c0,2.5,1,4.8,3.8,4.8c1.6,0,2.9-0.6,4.1-1.6l1.3,2.2c-1.6,1.6-3.5,2.2-5.7,2.2
				c-4.5,0-7.3-3.2-7.3-8.3c0-2.9,0.6-4.8,1.9-6.4c1.3-1.6,2.9-2.2,5.1-2.2c1.6,0,3.2,0.3,4.5,1.6c1.3,1.3,2.2,3.2,2.2,7v0.6H135.3z
				 M138.4,219.6c-2.2,0-3.2,1.6-3.2,4.1h6.1C141.3,221.2,140,219.6,138.4,219.6z"/>
			<path d="M163,233.6h-3.2l-2.2-7.6c-0.6-1.9-1-4.5-1-4.5l0,0c0,0-0.3,1.6-1,4.5l-1.9,7.3h-3.2l-4.5-15.9l3.5-0.3l1.6,8
				c0.3,1.9,0.6,4.1,0.6,4.1l0,0c0,0,0.3-2.2,1-4.5l1.9-7.3h3.5l1.9,7.3c0.6,2.5,1.3,4.5,1.3,4.5l0,0c0,0,0.3-2.5,0.6-4.5l1.9-7.3
				h3.5L163,233.6z"/>
			<path d="M187.5,233.6l-1.9-3.5c-1.6-2.9-2.5-4.1-3.8-5.4c-0.3-0.3-0.6-0.6-1.6-0.6v9.6h-3.5v-22.3h6.7c4.8,0,7,2.9,7,6.4
				c0,3.2-1.9,6.1-5.4,6.1c0.6,0.3,2.2,2.5,3.5,4.5l3.2,5.4C191.7,233.6,187.5,233.6,187.5,233.6z M182.4,214.5h-1.9v7h1.9
				c1.9,0,2.9-0.3,3.5-1s1-1.6,1-2.5C186.9,215.4,185.6,214.5,182.4,214.5z"/>
			<path d="M197.1,226.3L197.1,226.3c0,2.5,1,4.8,3.8,4.8c1.6,0,2.9-0.6,4.1-1.6l1.3,2.2c-1.6,1.3-3.5,2.2-5.7,2.2
				c-4.5,0-7.3-3.2-7.3-8.3c0-2.9,0.6-4.8,1.9-6.4c1.3-1.6,2.9-2.2,4.8-2.2c1.6,0,3.2,0.3,4.5,1.6c1.3,1.3,2.2,3.2,2.2,7v0.6
				C206.7,226.3,197.1,226.3,197.1,226.3z M200.3,219.6c-1.9,0-3.2,1.6-3.2,4.1h6.1C203.1,221.2,201.9,219.6,200.3,219.6z"/>
			<path d="M212.7,233.9c-3.5,0-3.5-3.2-3.5-4.5v-14c0-2.2,0-3.5-0.3-4.8l3.5-0.6c0.3,1,0.3,2.2,0.3,4.5v13.7c0,2.2,0,2.5,0.3,2.9
				s0.6,0.3,1.3,0.3l0.6,1.9C214.3,233.6,213.7,233.9,212.7,233.9z"/>
			<path d="M219.7,214.8c-1.3,0-2.2-1-2.2-2.2s1-2.2,2.2-2.2s2.2,1,2.2,2.2S221,214.8,219.7,214.8z M217.8,233.6v-15.9l3.5-0.6v16.6
				C221.3,233.6,217.8,233.6,217.8,233.6z"/>
			<path d="M231.8,233.9c-4.5,0-6.7-3.2-6.7-8.3c0-5.7,3.5-8.6,7-8.6c1.6,0,2.9,0.3,4.5,1.6l-1.6,2.2c-1-1-1.9-1.3-2.5-1.3
				c-1,0-1.9,0.6-2.5,1.6c-0.3,1-0.6,2.5-0.6,4.5c0,2.2,0.3,3.5,1,4.5c0.6,0.6,1.3,1,2.2,1s2.2-0.6,3.2-1.6l1.6,2.2
				C235.3,233.3,234.1,233.9,231.8,233.9z"/>
		</g>
		<path d="M244.3,233.9c-2.5,0-4.8-2.2-4.8-4.8s2.2-4.8,4.8-4.8c2.5,0,4.8,2.2,4.8,4.8S247.1,233.9,244.3,233.9z M244.3,225
			c-1.9,0-3.8,1.6-3.8,3.8s1.6,3.8,3.8,3.8c1.9,0,3.8-1.6,3.8-3.8S246.5,225,244.3,225z M245.2,231.7c-0.3-0.3-0.3-0.6-0.6-1
			c-0.6-1-0.6-1.3-1-1.3c0,0,0,0-0.3,0v2.2h-1v-5.4h1.9c1,0,1.6,0.6,1.6,1.6s-0.6,1.6-1.3,1.6c0,0,0,0,0.3,0.3
			c0.3,0.3,1.3,2.2,1.3,2.2h-1V231.7z M244.6,227.2c0,0-0.3,0-0.6,0h-0.3v1.6h0.3c0.3,0,0.6,0,1-0.3c0,0,0.3-0.3,0.3-0.6
			C245.2,227.5,244.9,227.2,244.6,227.2z"/>
	</g>
	<g>
		<g>
			<path fill="#00B7D8" d="M112.9,240h11.8l12.7,20.7l12.7-20.7H162V289h-10.8v-31.9l-13.7,21h-0.3l-13.7-20.7v31.9h-10.5V240z"/>
			<path fill="#00B7D8" d="M167.5,264.8L167.5,264.8c0-14,11.2-25.5,26.1-25.5c15.3,0,26.1,11.2,26.1,25.2l0,0
				c0,14-11.2,25.5-26.1,25.5C178.3,290,167.5,278.5,167.5,264.8z M208.2,264.8L208.2,264.8c0-8.6-6.1-15.6-15-15.6
				c-8.6,0-14.7,7-14.7,15.3l0,0c0,8.3,6.1,15.3,15,15.3C202.2,280.1,208.2,273.1,208.2,264.8z"/>
			<path fill="#00B7D8" d="M225.1,240h22.9c5.7,0,9.9,1.6,12.7,4.5c2.2,2.2,3.5,5.1,3.5,8.3l0,0c0,5.4-2.9,8.6-6.4,10.5
				c5.7,2.2,9.2,5.4,9.2,12.1l0,0c0,8.9-7.3,13.4-18.5,13.4h-23.3V240H225.1z M253.2,254.6c0-3.2-2.5-5.1-7-5.1h-10.5V260h9.9
				C250.3,259.7,253.2,258.4,253.2,254.6L253.2,254.6z M248.1,269h-12.4v10.8h12.7c4.8,0,7.6-1.6,7.6-5.4l0,0
				C256.1,270.9,253.5,269,248.1,269z"/>
			<path fill="#00B7D8" d="M272,240h10.8V289H272V240z"/>
			<path fill="#00B7D8" d="M290.8,240h10.8v39.2h24.5v9.9h-35.4V240z"/>
			<path fill="#00B7D8" d="M332.9,240h37v9.6h-26.5v9.9h23.3v9.6h-23.3v10.2h26.8v9.6h-37.3V240z"/>
		</g>
		<g>
			<path fill="#00B7D8" d="M375.9,240.9h-2.2v-1h5.1v1h-2.2v5.7h-1v-5.7H375.9z M380.4,240h1l2.2,3.5l2.2-3.5h1.3v6.7h-1v-5.1
				l-2.2,3.5l0,0l-2.2-3.5v5.1h-1V240H380.4z"/>
		</g>
	</g>
</g>
</svg>
