<svg preserveAspectRatio="xMinYMin" xmlns="http://www.w3.org/2000/svg" version="1.1" x="0" y="0" width="139.1" height="157.4" viewBox="0 0 139.1 157.4" enable-background="new 0 0 139.1 157.4" xml:space="preserve"><path fill="none" stroke="#9C5EA6" stroke-width="2" stroke-linecap="round" stroke-linejoin="round" stroke-miterlimit="10" d="M83.2 66.5c0 6-4.9 10.9-10.9 10.9 -6 0-10.9-4.9-10.9-10.9 0-6 4.9-10.9 10.9-10.9C78.3 55.6 83.2 60.5 83.2 66.5z"></path><path fill="none" stroke="#9C5EA6" stroke-width="2" stroke-linecap="round" stroke-linejoin="round" stroke-miterlimit="10" d="M95.9 66.5c0-1.7-0.2-3.4-0.5-5l5.7-3.3 -7.3-12.6 -5.6 3.3c-2.5-2.2-4.8-3.9-8.4-5v-6.6H65.2V44c-3.6 1-6.2 2.8-8.7 5l-5.8-3.3 -7.3 12.6 5.7 3.3c-0.3 1.6-0.5 3.3-0.5 5 0 1.7 0.2 3.4 0.5 5l-5.7 3.3 7.3 12.6 5.9-3.3c2.5 2.2 5.1 3.9 8.7 5v6.6h14.6v-6.6c3.6-1 6-2.8 8.4-5l5.7 3.3 7.3-12.6 -5.7-3.3C95.8 69.9 95.9 68.2 95.9 66.5z"></path><path fill="none" stroke="#96CA59" stroke-width="2" stroke-linecap="round" stroke-linejoin="round" stroke-miterlimit="10" d="M55.6 127.2c0 6-4.9 10.9-10.9 10.9 -6 0-10.9-4.9-10.9-10.9 0-6 4.9-10.9 10.9-10.9C50.7 116.2 55.6 121.1 55.6 127.2z"></path><path fill="none" stroke="#96CA59" stroke-width="2" stroke-linecap="round" stroke-linejoin="round" stroke-miterlimit="10" d="M68.4 127.2c0-1.7-0.2-3.4-0.5-5l5.7-3.3 -7.3-12.6 -5.6 3.3c-2.5-2.2-4.8-3.9-8.4-5V98H37.6v6.6c-3.6 1-6.2 2.8-8.7 5l-5.8-3.3 -7.3 12.6 5.7 3.3c-0.3 1.6-0.5 3.3-0.5 5 0 1.7 0.2 3.4 0.5 5l-5.7 3.3 7.3 12.6 5.9-3.3c2.5 2.2 5.1 3.9 8.7 5v6.6h14.6v-6.6c3.6-1 6-2.8 8.4-5l5.7 3.3 7.3-12.6 -5.7-3.3C68.2 130.5 68.4 128.9 68.4 127.2z"></path><path fill="none" stroke="#E0E1E0" stroke-width="2" stroke-linecap="round" stroke-linejoin="round" stroke-miterlimit="10" d="M127.5 59.2c0 3-2.5 5.5-5.5 5.5 -3 0-5.5-2.4-5.5-5.5 0-3 2.4-5.5 5.5-5.5C125 53.7 127.5 56.2 127.5 59.2z"></path><path fill="none" stroke="#E0E1E0" stroke-width="2" stroke-linecap="round" stroke-linejoin="round" stroke-miterlimit="10" d="M134.8 59.2c0-1-0.1-2-0.4-3l3.6-2.1 -3.6-6.3 -3.5 2.1c-1.4-1.4-3.2-2.4-5-3v-4.2h-7.3V47c-1.8 0.6-3.8 1.6-5.2 3l-3.7-2.1 -3.7 6.3 3.6 2.1c-0.2 0.9-0.4 1.9-0.4 3 0 1 0.1 2 0.4 3l-3.6 2.1 3.6 6.3 3.8-2.1c1.4 1.4 3.4 2.4 5.2 3v4.2h7.3v-4.2c1.8-0.6 3.6-1.6 5-3l3.6 2.1 3.6-6.3 -3.6-2.1C134.7 61.2 134.8 60.2 134.8 59.2z"></path><path fill="none" stroke="#08B7DB" stroke-width="2" stroke-linecap="round" stroke-linejoin="round" stroke-miterlimit="10" d="M93.8 17.4c0 3-2.5 5.5-5.5 5.5 -3 0-5.5-2.4-5.5-5.5 0-3 2.4-5.5 5.5-5.5C91.3 11.9 93.8 14.4 93.8 17.4z"></path><path fill="none" stroke="#08B7DB" stroke-width="2" stroke-linecap="round" stroke-linejoin="round" stroke-miterlimit="10" d="M101.1 17.4c0-1-0.1-2-0.4-3l3.6-2.1L100.7 6l-3.5 2.1c-1.4-1.4-3.2-2.4-5-3V1h-7.3v4.2c-1.8 0.6-3.8 1.6-5.2 3L76 6l-3.7 6.3 3.6 2.1c-0.2 0.9-0.4 1.9-0.4 3 0 1 0.1 2 0.4 3l-3.6 2.1 3.6 6.3 3.8-2.1c1.4 1.4 3.4 2.4 5.2 3v4.2h7.3v-4.2c1.8-0.6 3.6-1.6 5-3l3.6 2.1 3.6-6.3 -3.6-2.1C100.9 19.4 101.1 18.4 101.1 17.4z"></path><path fill="none" stroke="#08B7DB" stroke-width="2" stroke-linecap="round" stroke-linejoin="round" stroke-miterlimit="10" d="M104 121c0 3-2.5 5.5-5.5 5.5 -3 0-5.5-2.4-5.5-5.5 0-3 2.4-5.5 5.5-5.5C101.6 115.6 104 118 104 121z"></path><path fill="none" stroke="#08B7DB" stroke-width="2" stroke-linecap="round" stroke-linejoin="round" stroke-miterlimit="10" d="M111.3 121c0-1-0.1-2-0.4-3l3.6-2.1 -3.6-6.3 -3.5 2.1c-1.4-1.4-3.2-2.4-5-3v-4.2h-7.3v4.2c-1.8 0.6-3.8 1.6-5.2 3l-3.7-2.1 -3.7 6.3 3.6 2.1c-0.2 0.9-0.4 1.9-0.4 3 0 1 0.1 2 0.4 3l-3.6 2.1 3.6 6.3 3.8-2.1c1.4 1.4 3.4 2.4 5.2 3v4.2h7.3v-4.2c1.8-0.6 3.6-1.6 5-3l3.6 2.1 3.6-6.3L111 124C111.2 123 111.3 122.1 111.3 121z"></path><path fill="none" stroke="#E0E1E0" stroke-width="2" stroke-linecap="round" stroke-linejoin="round" stroke-miterlimit="10" d="M22.5 62.3c0 3-2.5 5.5-5.5 5.5 -3 0-5.5-2.4-5.5-5.5 0-3 2.4-5.5 5.5-5.5C20.1 56.8 22.5 59.2 22.5 62.3z"></path><path fill="none" stroke="#E0E1E0" stroke-width="2" stroke-linecap="round" stroke-linejoin="round" stroke-miterlimit="10" d="M29.8 62.3c0-1-0.1-2-0.4-3l3.6-2.1 -3.6-6.3L25.9 53c-1.4-1.4-3.2-2.4-5-3v-4.2h-7.3V50c-1.8 0.6-3.8 1.6-5.2 3l-3.7-2.1L1 57.2l3.6 2.1c-0.2 0.9-0.4 1.9-0.4 3 0 1 0.1 2 0.4 3L1 67.3l3.6 6.3 3.8-2.1c1.4 1.4 3.4 2.4 5.2 3v4.2h7.3v-4.2c1.8-0.6 3.6-1.6 5-3l3.6 2.1 3.6-6.3 -3.6-2.1C29.7 64.3 29.8 63.3 29.8 62.3z"></path></svg>