<?xml version="1.0" encoding="utf-8"?>
<!-- Generator: Adobe Illustrator 19.1.0, SVG Export Plug-In . SVG Version: 6.00 Build 0)  -->
<svg version="1.1" id="Outline_Old_Icons" xmlns="http://www.w3.org/2000/svg" xmlns:xlink="http://www.w3.org/1999/xlink" x="0px"
	 y="0px" viewBox="0 0 25.5 25.8" enable-background="new 0 0 25.5 25.8" xml:space="preserve">
<g>
	<path fill="none" stroke="#000000" stroke-linejoin="round" stroke-miterlimit="10" d="M17.4,22.5H2.8c-0.8,0-1.5-0.7-1.5-1.5V3
		c0-0.8,0.7-1.5,1.5-1.5h13c0.8,0,1.5,0.7,1.5,1.5v13.5"/>
	<polyline fill="none" stroke="#000000" stroke-linecap="round" stroke-linejoin="round" stroke-miterlimit="10" points="15.7,18.5 
		3.2,18.5 3.2,3.5 15.2,3.5 15.2,14.9 	"/>
	<path fill="none" stroke="#000000" stroke-linecap="round" stroke-linejoin="round" stroke-miterlimit="10" d="M23.8,24.5l-3-4
		v-4.6c0-1.7-1.6-3.3-3.5-4.9"/>
	<path fill="none" stroke="#000000" stroke-linecap="round" stroke-linejoin="round" stroke-miterlimit="10" d="M18.2,17.5L16,15.2
		c-0.4-0.4-1.1-0.4-1.5,0c-0.4,0.4-0.2,1.2,0,1.5l2.2,3.2c0,0,0,0,0,1s2,3.5,2,3.5"/>
	<line fill="none" stroke="#000000" stroke-linejoin="round" stroke-miterlimit="10" x1="6.8" y1="20.5" x2="10.7" y2="20.5"/>
	<g>
		<g>
			<g>
				<path d="M5.2,20c-0.3,0-0.5,0.2-0.5,0.5C4.8,20.8,5,21,5.2,21c0.3,0,0.5-0.2,0.5-0.5C5.8,20.2,5.5,20,5.2,20L5.2,20z"/>
			</g>
		</g>
	</g>
	<g>
		<g>
			<g>
				<path d="M12.2,20c-0.3,0-0.5,0.2-0.5,0.5c0,0.3,0.2,0.5,0.5,0.5c0.3,0,0.5-0.2,0.5-0.5C12.8,20.2,12.5,20,12.2,20L12.2,20z"/>
			</g>
		</g>
	</g>
	<line fill="none" stroke="#000000" stroke-linejoin="round" stroke-miterlimit="10" x1="5.8" y1="14.5" x2="12.8" y2="14.5"/>
	<line fill="none" stroke="#000000" stroke-linejoin="round" stroke-miterlimit="10" x1="5.8" y1="12.5" x2="12.8" y2="12.5"/>
	<line fill="none" stroke="#000000" stroke-linejoin="round" stroke-miterlimit="10" x1="5.8" y1="10.5" x2="12.8" y2="10.5"/>
	<line fill="none" stroke="#000000" stroke-linejoin="round" stroke-miterlimit="10" x1="5.8" y1="8.5" x2="12.8" y2="8.5"/>
	<line fill="none" stroke="#000000" stroke-linejoin="round" stroke-miterlimit="10" x1="5.8" y1="6.5" x2="9.8" y2="6.5"/>
</g>
</svg>
