<?xml version="1.0" encoding="utf-8"?>
<!-- Generator: Adobe Illustrator 18.1.0, SVG Export Plug-In . SVG Version: 6.00 Build 0)  -->
<!DOCTYPE svg PUBLIC "-//W3C//DTD SVG 1.1//EN" "http://www.w3.org/Graphics/SVG/1.1/DTD/svg11.dtd">
<svg version="1.1" id="Layer_1" xmlns="http://www.w3.org/2000/svg" xmlns:xlink="http://www.w3.org/1999/xlink" x="0px" y="0px"
	 width="239.93px" height="80px" viewBox="90 -10 239.93 80" enable-background="new 90 -10 239.93 80" xml:space="preserve">
<path fill="#99CA3C" d="M125.326,9.266c0-11.066-6.604-18.762-17.332-18.762c-10.688,0-17.595,7.473-17.595,18.791
	c0,9.331,5.815,17.309,9.129,29.44c3.47,12.701,4.008,30.59,4.008,30.59l8.925,0.014c0,0-0.237-17.361,4.009-30.486
	C120.054,27.785,125.326,18.451,125.326,9.266z M107.866,19.203c-6.589,0-11.922-5.17-11.922-11.55
	c0-6.368,5.334-11.543,11.922-11.543c6.576,0,11.914,5.175,11.914,11.543C119.781,14.033,114.443,19.203,107.866,19.203z"/>
<path d="M138.882,10.442l9.162-2.717v11.779h12.987v7.148h-12.988v25.371c0,3.39,0.545,5.833,1.635,7.325
	c1.09,1.493,2.827,2.24,5.211,2.24c2.181,0,3.959-0.2,5.336-0.604l0.402,7.048c-2.314,0.871-5.101,1.307-8.355,1.307
	c-8.928,0-13.391-5.571-13.391-16.713V26.651h-7.651v-7.148h7.651L138.882,10.442L138.882,10.442z"/>
<path d="M249.595,69.339V-2.344h9.365v71.683C258.96,69.339,249.595,69.339,249.595,69.339z"/>
<path fill="#99CA3C" d="M276.117,5.811c0,1.68-0.554,3.09-1.662,4.23c-1.107,1.14-2.567,1.711-4.378,1.711
	c-1.746,0-3.172-0.57-4.279-1.711c-1.108-1.14-1.662-2.55-1.662-4.23c0-1.644,0.561-3.028,1.687-4.151
	c1.124-1.124,2.574-1.687,4.354-1.687c1.711,0,3.129,0.563,4.254,1.687C275.555,2.783,276.117,4.167,276.117,5.811z"/>
<rect x="265.445" y="20.61" width="9.363" height="48.729"/>
<path d="M242.862,20.782v-1.296h-9.363v29.499c0,3.49-1.275,6.461-3.826,8.909c-2.55,2.45-5.538,3.677-8.96,3.677
	c-7.451,0-11.175-5.168-11.175-15.505V19.487h-9.363v28.189c0,7.117,1.552,12.502,4.656,16.159c3.104,3.658,7.324,5.487,12.66,5.487
	c6.938,0,12.275-2.758,16.014-8.272v8.288h9.364V20.782H242.862z"/>
<path fill="none" d="M312.152,43.567c-7.854,0-13.308,0.938-16.362,2.818s-4.58,4.464-4.58,7.752c0,2.586,0.762,4.607,2.289,6.067
	c1.527,1.46,3.55,2.188,6.067,2.188c3.556,0,6.544-1.098,8.96-3.295c2.416-2.197,3.625-4.69,3.625-7.477L312.152,43.567
	L312.152,43.567z"/>
<path d="M191.051,19.503c-2.987,0-5.756,0.957-8.305,2.87c-2.346,1.758-4.138,4.161-5.377,7.198V19.503h-9.362v49.836h0.593h8.769
	h0.594V43.567c0-4.901,1.216-8.675,3.65-11.328c2.431-2.651,5.343-3.977,8.732-3.977c1.242,0,2.317,0.103,3.223,0.303v-8.859
	C192.528,19.573,191.689,19.503,191.051,19.503z"/>
<path d="M324.165,20.763c0.103-0.026,0.305-0.057,0.595-0.057c0.64,0,1.077,0.267,1.077,0.868c0,0.537-0.409,0.89-1.059,0.89h-0.613
	V20.763L324.165,20.763z M323.557,20.341v4.61h0.607v-2.026h0.568c0.548,0.019,0.804,0.262,0.945,0.909
	c0.124,0.582,0.229,0.985,0.305,1.117h0.625c-0.091-0.181-0.203-0.632-0.358-1.284c-0.115-0.487-0.329-0.818-0.685-0.945V22.7
	c0.487-0.167,0.88-0.575,0.88-1.188c0-0.365-0.139-0.687-0.365-0.888c-0.294-0.262-0.718-0.389-1.36-0.389
	C324.308,20.236,323.863,20.279,323.557,20.341 M323.159,25.609c-0.551-0.308-0.984-0.737-1.294-1.291
	c-0.307-0.554-0.465-1.131-0.465-1.735s0.16-1.188,0.472-1.749c0.316-0.558,0.752-0.99,1.305-1.288
	c0.562-0.305,1.131-0.456,1.72-0.456c0.582,0,1.153,0.15,1.711,0.456c0.557,0.298,0.992,0.73,1.31,1.288
	c0.31,0.561,0.467,1.145,0.467,1.749s-0.154,1.181-0.462,1.735c-0.305,0.553-0.735,0.983-1.291,1.291s-1.133,0.463-1.734,0.463
	C324.293,26.072,323.713,25.917,323.159,25.609 M322.838,18.938c-0.671,0.36-1.193,0.876-1.568,1.546
	c-0.376,0.67-0.564,1.372-0.564,2.1c0,0.721,0.186,1.415,0.555,2.08c0.372,0.668,0.89,1.181,1.552,1.548
	c0.664,0.37,1.36,0.554,2.084,0.554c0.723,0,1.415-0.184,2.08-0.554c0.661-0.367,1.179-0.88,1.548-1.548
	c0.369-0.666,0.553-1.36,0.553-2.08c0-0.728-0.191-1.429-0.563-2.1c-0.375-0.67-0.895-1.186-1.563-1.546
	c-0.671-0.363-1.355-0.542-2.057-0.542C324.193,18.396,323.507,18.575,322.838,18.938"/>
<path d="M316.455,23.631c-3.239-3.488-8.028-5.235-14.371-5.235c-6.511,0-12.115,1.477-16.813,4.431l2.114,6.141
	c3.891-2.484,8.322-3.727,13.289-3.727c3.724,0,6.535,0.966,8.432,2.896c1.896,1.93,2.844,4.621,2.844,8.079v0.907
	c-9.866,0-17.367,1.56-22.501,4.681s-7.701,7.635-7.701,13.542c0,3.858,1.391,7.157,4.178,9.892
	c2.785,2.734,6.494,4.101,11.125,4.101c6.313,0,11.28-2.236,14.9-6.704v6.704h9.364V56.553v-0.422V38.733
	C321.313,32.155,319.693,27.121,316.455,23.631z M308.526,59.097c-2.416,2.197-5.404,3.295-8.96,3.295
	c-2.517,0-4.54-0.728-6.067-2.188c-1.527-1.46-2.289-3.481-2.289-6.067c0-3.288,1.526-5.872,4.58-7.752
	c3.054-1.88,8.508-2.818,16.362-2.818v8.052C312.152,54.406,310.942,56.899,308.526,59.097z"/>
</svg>
