<?xml version="1.0" encoding="UTF-8" standalone="no"?>
<svg width="200px" height="200px" viewBox="0 0 200 200" version="1.1" xmlns="http://www.w3.org/2000/svg" xmlns:xlink="http://www.w3.org/1999/xlink">
    <!-- Generator: Sketch 40.1 (33804) - http://www.bohemiancoding.com/sketch -->
    <title>paracord-zipper</title>
    <desc>Created with Sketch.</desc>
    <defs>
        <polygon id="path-1" points="0.000127417314 130.199851 169.800739 130.199851 169.800739 0.0944979916 0.000127417314 0.0944979916 0.000127417314 130.199851"></polygon>
    </defs>
    <g id="5.-PDP-Ingredients" stroke="none" stroke-width="1" fill="none" fill-rule="evenodd">
        <g id="paracord-zipper">
            <g id="Page-1" transform="translate(16.000000, 34.000000)">
                <path d="M14.1544843,52.1759113 C14.0093624,52.3290876 13.8630557,52.4840313 13.7161568,52.6395642 C13.4217666,52.9506299 13.1255993,53.2681761 12.8329861,53.5945595 C12.287446,54.2738374 11.7424983,54.9796267 11.249676,55.7142838 C11.0210348,56.0931005 10.7929861,56.4719173 10.566122,56.8495558 C10.3351115,57.2248377 10.1135784,57.6036545 9.94002439,58.0013237 C9.75284669,58.3925124 9.57218467,58.7831119 9.399223,59.1707658 C9.22626132,59.5578305 9.03789895,59.9325233 8.92180139,60.3290142 C8.6540662,61.1060894 8.41061672,61.8607772 8.18789895,62.5754035 C8.01671429,63.3059366 7.88462369,64.0028888 7.76141812,64.6415161 C7.70159233,64.9614189 7.63643554,65.2648258 7.58845645,65.5564499 C7.55410105,65.8510197 7.53692334,66.1338067 7.51263763,66.396563 C7.46288153,66.9220755 7.44274216,67.3833718 7.42141812,67.7604211 C7.38291638,68.5145198 7.38706272,68.9451809 7.38706272,68.9451809 C7.38706272,68.9451809 7.57305575,68.5463333 7.8520453,67.8487921 C7.99005923,67.4994323 8.16302091,67.0787866 8.33479791,66.5933356 C8.42542509,66.3517883 8.51309059,66.0925669 8.62089547,65.8250975 C8.73521603,65.5599847 8.85545993,65.2813217 8.98044251,64.9908759 C9.231,64.4111625 9.49340418,63.784318 9.7581777,63.1215359 C10.0750767,62.4787846 10.4002683,61.8024524 10.7213136,61.0990197 C11.0399895,60.3944087 11.4735784,59.7222004 11.8337178,59.0005044 C12.0084564,58.635827 12.2394669,58.3011957 12.4527073,57.9553708 L13.0977596,56.9161285 C13.298561,56.5596991 13.5651115,56.2498117 13.7937526,55.9151804 C14.0372021,55.5911536 14.2510348,55.2453286 14.4986307,54.9307281 C15.0246237,54.3298057 15.4706516,53.6670237 16.0108606,53.1267826 C16.2691185,52.8434065 16.5226376,52.5641543 16.7708258,52.2907936 C17.0361916,52.0333395 17.2950418,51.7817769 17.5479686,51.5366949 C17.7914181,51.2774734 18.0538223,51.0571352 18.3037875,50.836797 C18.5543449,50.6176371 18.7883171,50.3890509 19.0311742,50.1958131 C19.5228118,49.8187638 19.9617317,49.4423036 20.3822892,49.1530361 C20.7939617,48.8460943 21.1712787,48.6063145 21.479885,48.3936351 C21.798561,48.2068779 22.0443798,48.03426 22.2214878,47.9423542 C22.3991882,47.8416113 22.4939617,47.7879996 22.4939617,47.7879996 C22.4939617,47.7879996 22.0568188,47.8127435 21.3075157,47.9941985 C20.9426376,48.1026001 20.4794321,48.2080561 19.9866098,48.4148441 C19.4766098,48.5921752 18.928108,48.8478617 18.3345889,49.1483229 C18.0378293,49.2967861 17.746993,49.4805977 17.4336481,49.6567504 C17.1197108,49.8329031 16.8063659,50.0326215 16.5013136,50.2594402 C16.192115,50.4839024 15.8746237,50.7148451 15.5506167,50.9510901 C15.2431951,51.2061876 14.9405122,51.4819049 14.6265749,51.7564439 C14.4701986,51.8948917 14.31323,52.035107 14.1544843,52.1759113" id="Fill-1" fill="#554740"></path>
                <path d="M5.59584321,58.4268003 C5.74985017,58.1481373 5.92340418,57.8341259 6.11295122,57.4912466 C6.2053554,57.3215744 6.30131359,57.1454217 6.40082578,56.9621993 C6.51159233,56.7860465 6.62532056,56.6034132 6.74319512,56.4160668 C6.9694669,56.0390175 7.19988502,55.6407591 7.4812439,55.2531053 C7.61274216,55.0551544 7.74660976,54.8536686 7.88225436,54.6498263 C8.01730662,54.4465732 8.17901394,54.2556919 8.32235889,54.0518496 C8.46925784,53.8503639 8.61734146,53.6476999 8.76601742,53.4438576 L9.24699303,52.854718 C9.54908362,52.4470334 9.90033798,52.0776428 10.2213833,51.6923455 C10.5471672,51.3111722 10.8954599,50.9588667 11.2129512,50.597135 C11.5559129,50.2613255 11.8615575,49.904896 12.1843798,49.6009 C12.4983171,49.2857103 12.7932997,48.9823034 13.0776202,48.7130666 C13.6409303,48.1698799 14.1230906,47.7162424 14.4660523,47.3992853 C14.8125679,47.0787934 15.0104077,46.8961601 15.0104077,46.8961601 C15.0104077,46.8961601 14.7414878,46.9533066 14.2954599,47.1206223 C14.0703728,47.2019235 13.8026376,47.3109144 13.5011394,47.448773 C13.2049721,47.5942905 12.8584564,47.7456994 12.5119408,47.9577896 C12.1535784,48.1545623 11.7744843,48.3837376 11.3900592,48.6506178 C10.9949721,48.9051261 10.6152857,49.2209049 10.2101289,49.5349163 C9.8268885,49.8724933 9.41936237,50.2141943 9.04737631,50.6036156 C8.67302091,50.9918586 8.29274216,51.3865821 7.9568885,51.8213671 L7.44866551,52.4676533 C7.29110453,52.6915263 7.14598258,52.922469 6.99671429,53.1481095 C6.68573868,53.5905533 6.43873519,54.0642216 6.20772474,54.5237505 C5.95835192,54.9738531 5.78065157,55.4404517 5.61716725,55.8817172 C5.53660976,56.1026446 5.4584216,56.3170914 5.38319512,56.5244685 C5.32929268,56.7395045 5.27716725,56.9468816 5.22741115,57.1466 C5.12849129,57.54368 5.04201045,57.90659 4.99225436,58.2335625 C4.95079094,58.5634807 4.93183624,58.8533374 4.91288153,59.0895823 C4.87852613,59.5620723 4.87911847,59.83072 4.87911847,59.83072 C4.87911847,59.83072 5.02009408,59.5909401 5.23155749,59.1744184 C5.33580836,58.965863 5.46612195,58.7160678 5.59584321,58.4268003" id="Fill-3" fill="#554740"></path>
                <path d="M94.3817491,108.888198 C94.8846411,108.637224 95.3650244,108.330282 95.8537003,108.029821 C96.8340139,107.431255 97.7728641,106.730179 98.6832822,105.995522 C99.1293101,105.617295 99.5634913,105.222571 99.9923415,104.827847 C100.402237,104.412504 100.826348,104.014246 101.201296,103.575337 C101.39262,103.359712 101.58276,103.145265 101.772307,102.931407 C101.950007,102.707534 102.126523,102.484839 102.301854,102.263323 C102.660216,101.827359 102.96823,101.360172 103.282167,100.911837 C103.88161,99.9945462 104.408195,99.0754884 104.828753,98.1676243 C105.26708,97.2697756 105.604118,96.3866553 105.862376,95.558325 C106.137812,94.7364753 106.314328,93.9611676 106.443456,93.2724634 C106.584432,92.5867049 106.641296,91.9769454 106.683944,91.4791224 C106.730146,90.9812995 106.718892,90.5859868 106.719484,90.3196957 C106.713561,90.0528155 106.697568,89.9108328 106.697568,89.9108328 C106.697568,89.9108328 106.567847,90.4663915 106.255094,91.3936972 C105.939972,92.3204138 105.438857,93.6182883 104.692516,95.0858351 C104.323491,95.8216704 103.875094,96.5899085 103.385826,97.3858361 C102.900704,98.1852985 102.302446,98.9706216 101.694711,99.7795102 C101.056174,100.568368 100.385652,101.370776 99.6351638,102.124875 C99.2803554,102.520188 98.8651289,102.863656 98.4884042,103.246008 C98.0873937,103.604794 97.6840139,103.964169 97.2681951,104.309405 C95.6025505,105.689759 93.786453,106.895727 91.9993798,107.906691 C91.1079164,108.416297 90.2194146,108.868756 89.3723763,109.298239 C88.9393798,109.4956 88.5188223,109.687071 88.1118885,109.87265 C87.7096934,110.074136 87.3086829,110.241451 86.9230732,110.400519 C86.1536307,110.726313 85.4446063,111.027363 84.803108,111.265376 C84.1651638,111.512225 83.6101463,111.744346 83.1422021,111.902236 C82.2128293,112.240402 81.6809129,112.460151 81.6809129,112.460151 C81.6809129,112.460151 82.249554,112.428927 83.244676,112.327595 C83.7440139,112.284587 84.3452334,112.202697 85.0305645,112.075443 C85.3747108,112.015351 85.7407735,111.951134 86.1269756,111.883972 C86.508439,111.792656 86.9088571,111.696626 87.3270453,111.596472 C88.171122,111.41325 89.0596237,111.119269 90.0032125,110.813506 C90.4687875,110.63971 90.9462091,110.460611 91.434885,110.277389 C91.9277073,110.101236 92.4021672,109.853208 92.9015052,109.636994 C93.4038049,109.426082 93.8835958,109.14683 94.3817491,108.888198" id="Fill-5" fill="#554740"></path>
                <path d="M106.754432,105.858665 C106.469519,106.123189 106.143143,106.412456 105.786557,106.722933 C105.444188,107.044603 105.035477,107.356258 104.639206,107.71092 C104.210948,108.035536 103.796906,108.411407 103.326592,108.750751 C103.09262,108.922191 102.862202,109.103057 102.629415,109.28569 C102.38715,109.456541 102.142516,109.630337 101.895512,109.804722 C101.412167,110.167043 100.891505,110.490481 100.380321,110.827468 C99.8809826,111.183309 99.3283345,111.454313 98.8230732,111.787177 C98.2935261,112.081747 97.7722718,112.371603 97.2676028,112.652034 C96.7593798,112.930108 96.2452334,113.156926 95.7707735,113.410256 C95.3004599,113.676547 94.8230383,113.849755 94.3959652,114.058899 C93.9629686,114.248602 93.5779512,114.481312 93.2136655,114.614458 C92.8523415,114.75703 92.5395889,114.904314 92.2789617,115.020964 C91.758892,115.258387 91.4597631,115.420401 91.4597631,115.420401 C91.4597631,115.420401 91.789101,115.44809 92.3684042,115.449269 C92.6574634,115.44809 93.0116794,115.452214 93.4162439,115.431005 C93.825547,115.432183 94.2697979,115.346758 94.7643972,115.279007 C95.2536655,115.192404 95.7992056,115.13349 96.3447456,114.963228 C96.8920627,114.802393 97.4843972,114.656287 98.068439,114.430646 C98.3586829,114.31164 98.6530732,114.190277 98.9516098,114.067147 C99.2471847,113.936947 99.5587526,113.828545 99.8436655,113.661819 C100.421192,113.345451 101.025965,113.048525 101.58039,112.671475 C102.133631,112.292659 102.698718,111.929749 103.196279,111.494964 C103.716941,111.089636 104.190216,110.645424 104.629136,110.198267 C105.084049,109.768785 105.45722,109.28569 105.83039,108.855618 C106.171575,108.392554 106.504467,107.970141 106.760948,107.53948 C107.032829,107.122959 107.247847,106.71822 107.429693,106.357077 C107.620425,106.002415 107.748369,105.669551 107.858544,105.40326 C108.070007,104.861841 108.137533,104.534868 108.137533,104.534868 C108.137533,104.534868 107.903561,104.763455 107.493666,105.164069 C107.288718,105.356718 107.039937,105.590606 106.754432,105.858665" id="Fill-7" fill="#554740"></path>
                <g id="Group-11" transform="translate(0.000000, 0.494877)">
                    <mask id="mask-2" fill="white">
                        <use xlink:href="#path-1"></use>
                    </mask>
                    <g id="Clip-10"></g>
                    <path d="M103.360355,74.2341816 C103.636383,74.46807 103.987045,74.7402525 103.725233,74.6129984 L103.410111,74.2942738 C103.394118,74.3101806 103.378125,74.3260874 103.362132,74.3419941 C103.334293,74.3113589 103.321854,74.2836693 103.299345,74.2530341 C103.319484,74.2471427 103.340216,74.240073 103.360355,74.2341816 L103.360355,74.2341816 Z M74.3223415,77.7890499 C74.8903902,78.219711 75.6592404,78.6279847 76.5625505,78.7004489 C76.473108,79.4327494 76.4405296,80.2239639 76.5021324,81.0841077 L76.4979861,81.0835186 C75.2730383,80.5691997 74.6451638,79.1128466 74.3223415,77.7890499 L74.3223415,77.7890499 Z M78.8033519,71.2207326 C79.3103902,70.674011 79.7937352,70.0960651 80.2717491,69.5145843 C81.7223763,69.9128426 83.8423415,70.4047742 86.3710174,70.728801 C84.4216446,71.690866 82.9603554,72.8650212 82.22823,73.5160204 C80.3244669,73.1319014 78.8323763,72.6564658 77.8076376,72.2682228 C78.1440836,71.9294675 78.4787526,71.5830534 78.8033519,71.2207326 L78.8033519,71.2207326 Z M83.3080557,65.348189 C83.3820976,65.233896 83.4496237,65.1231377 83.5218885,65.0100229 C84.613561,65.2427331 86.7826899,65.6409914 89.4256864,65.8012374 C90.0197979,66.6189632 90.4563484,67.7453981 90.7311916,68.6697581 C87.1451986,68.5813872 83.9856864,67.9916584 81.8485436,67.4690916 C81.8805296,67.4249061 81.914885,67.3813098 81.9462787,67.3371243 C82.4260697,66.6702183 82.8874983,66.0074363 83.3080557,65.348189 L83.3080557,65.348189 Z M95.9087875,65.5797209 C97.1716446,66.2548749 98.2615401,67.2104593 98.9190314,67.8537998 C96.4300418,68.4594353 93.9369059,68.6838974 91.5948153,68.6815409 C91.3786132,67.9068223 91.0060348,66.8045421 90.4391707,65.8489577 C90.8384042,65.8625079 91.2429686,65.8719341 91.6570105,65.8719341 C93.0270801,65.8719341 94.4670453,65.7876872 95.9087875,65.5797209 L95.9087875,65.5797209 Z M95.5397631,53.4970569 C95.6114355,53.4793827 95.677777,53.4422669 95.7162787,53.3739267 C95.7909129,53.2413703 95.7429338,53.0740546 95.6102509,52.9998231 C95.4870453,52.9314829 95.3804251,52.8660884 95.2815052,52.8018722 C95.157115,52.4766671 95.0333171,52.1632448 94.9112962,51.8616054 C95.0836655,51.6719024 95.2969059,51.438014 95.5480557,51.1628858 C95.6505296,51.0509493 95.6422369,50.8771531 95.529101,50.7746428 C95.4171498,50.6733108 95.2424111,50.6815587 95.1393449,50.7934953 C94.9681603,50.9808417 94.8141533,51.1493356 94.6785087,51.2983879 C94.5914355,51.0898325 94.5043624,50.8865793 94.4202509,50.6933415 C94.4042578,50.2750524 94.3876725,49.8573524 94.3805645,49.4484896 C94.3781951,49.2964915 94.2496585,49.1657026 94.0997979,49.1780745 C93.9659303,49.180431 93.8604948,49.2794065 93.8379861,49.4054824 C93.4263136,48.5300209 93.134885,47.9779971 93.0892753,47.8925719 L92.9761394,47.7128843 C91.1849199,45.2626527 88.9417491,44.1880621 86.7826899,43.8722833 C86.4444669,43.1270217 85.4143972,41.1215905 83.4656167,39.3135211 L83.4656167,39.3099862 C83.4650244,39.1579882 83.3264181,39.0372146 83.1884042,39.0360363 C83.1789268,39.0360363 83.1712265,39.0407494 83.1623415,39.0413386 C81.5511916,37.6338841 79.3601463,36.3966909 76.4719233,36.0461528 L76.0489965,35.4151843 C75.9637003,35.2885193 75.791331,35.2549384 75.6663484,35.3391853 C75.5395889,35.4234323 75.5046411,35.5936936 75.5893449,35.7197695 L75.764676,35.9807583 C75.4631777,35.9601385 75.1569408,35.9465882 74.8418188,35.9459991 C74.6688571,35.9401077 74.1695192,35.9383403 73.4083693,36.0278895 L74.5847456,35.3162089 C74.7150592,35.2378533 74.7559303,35.0687702 74.6771498,34.9391595 C74.597777,34.8089597 74.4265923,34.7683091 74.2974634,34.8472538 L72.881784,35.7032736 C72.7514704,35.7822183 72.7105993,35.9513014 72.7893798,36.0809121 C72.7970801,36.093284 72.8107038,36.0985863 72.8195889,36.1091908 C72.5927247,36.1451283 72.3534216,36.1869572 72.0933868,36.2393906 C72.0436307,36.2370341 71.9938746,36.2446929 71.9482648,36.270615 C70.9158258,36.4880075 69.641122,36.8526849 68.1721324,37.4477159 C67.5158258,36.4632637 66.8612962,35.7079867 66.3803206,35.2078072 C66.4845714,35.1695131 66.5597979,35.0723051 66.5609826,34.9550663 C66.5657213,34.4160036 66.591784,33.869282 66.6373937,33.3296302 C66.6504251,33.1782213 66.5378815,33.0450757 66.3856516,33.0327038 C66.2357909,33.0191536 66.1001463,33.1316792 66.087115,33.2830881 C66.0438746,33.7997636 66.0195889,34.3217412 66.0118885,34.8384167 C65.7909477,34.6269155 65.6499721,34.5079093 65.6345714,34.4955374 C64.6477422,33.6536569 63.6668362,33.0220993 62.7143624,32.5519659 C62.6006341,31.834983 62.2807735,29.3193569 62.8618537,26.8632339 C63.4097631,27.1866716 64.403108,27.6308828 65.754223,27.6308828 C66.4798328,27.6308828 67.307324,27.5018612 68.2189268,27.1554472 L68.5299024,27.0370301 L69.6701463,25.4504772 C69.667777,25.4610817 69.6618537,25.471097 69.6612613,25.4822907 C69.6523763,25.6336996 69.7690662,25.7633103 69.9218885,25.7715582 C70.5361394,25.8057283 71.0526551,26.040795 71.0988571,26.0578801 L71.4655122,26.1621578 C71.4909826,26.1692275 71.516453,26.1721732 71.5407387,26.1721732 C71.6609826,26.1721732 71.7717491,26.0938176 71.8061045,25.973044 C71.8481603,25.8269374 71.7634564,25.6749394 71.6165575,25.6336996 L71.2913659,25.5447395 C71.2664878,25.5335458 70.677115,25.2631308 69.9520976,25.2236584 C69.9005645,25.2171779 69.8514007,25.2342629 69.8069756,25.2595959 L72.3261742,21.7542153 C73.8899373,22.3657422 75.4768014,22.9101072 77.0618885,23.4633093 C77.9184042,23.7596465 78.7826202,24.0324182 79.6462439,24.3075463 C80.5086829,24.5867985 81.37823,24.8436634 82.247777,25.1011174 C83.9880557,25.614258 85.7401812,26.0867479 87.505338,26.5191764 C88.3902857,26.7271427 89.2716794,26.94807 90.1661045,27.1224553 C91.0445366,27.3133366 91.932446,27.4694586 92.8185784,27.6326502 L104.720355,30.8246086 L110.672725,32.4482773 C111.662516,32.7263512 112.655861,32.9938206 113.639728,33.2931035 C114.13492,33.4339079 114.620634,33.5982778 115.110495,33.7549889 C115.491958,33.865158 115.862167,34.0018384 116.235338,34.1355731 L112.260774,36.3153896 C111.887603,36.4691551 111.488369,36.7460507 111.167916,37.1360611 C111.112829,36.3996366 110.851017,35.8529151 110.38485,35.5141598 C110.263422,35.4257888 110.089275,35.4511218 109.99924,35.574252 C109.996279,35.578376 109.995686,35.5836783 109.992725,35.5883914 C109.860042,35.6225615 109.674641,35.7256609 109.314502,36.0208198 C109.196035,36.1168496 109.179449,36.2900566 109.276592,36.4072954 C109.331087,36.473279 109.41046,36.5074491 109.489833,36.5074491 C109.551436,36.5074491 109.613631,36.4868293 109.665164,36.4450003 C110.01701,36.1563219 110.124223,36.1197953 110.114153,36.1197953 C110.146139,36.1174387 110.174571,36.1074234 110.202411,36.0956406 C110.443491,36.3460249 110.588021,36.7107023 110.620599,37.199099 C110.630669,37.3440274 110.752098,37.4553748 110.896035,37.4553748 C110.902551,37.4553748 110.909066,37.4547856 110.91499,37.4547856 C110.928021,37.4541965 110.938683,37.4477159 110.951122,37.4447702 C110.777568,37.7269681 110.646662,38.0539406 110.583875,38.4239203 C110.424537,38.5117021 110.265791,38.6018404 110.115338,38.7102421 C107.495443,40.596078 107.642341,44.816674 107.687951,45.5419049 C107.68262,48.8546368 107.104502,51.531098 106.367638,53.6166522 C106.362307,53.6184196 106.356976,53.6178305 106.352237,53.6195979 C106.211854,53.679101 106.146697,53.8405253 106.206523,53.9801514 L106.2237,54.0202128 C106.102272,54.3430613 105.978474,54.6529488 105.851714,54.9445729 C105.722585,54.9581231 105.591679,54.9657819 105.457812,54.9657819 C105.078718,54.9657819 104.813944,54.9115811 104.769519,54.9056897 L104.599519,54.8962634 C104.436627,54.8921394 104.317568,55.0034868 104.308683,55.1543066 C104.299798,55.3057154 104.415895,55.4359153 104.568718,55.4441633 L104.662899,55.4494655 L104.69607,55.4482872 C104.709101,55.4512329 105.01593,55.51486 105.457812,55.51486 C105.502829,55.51486 105.54607,55.5101469 105.590495,55.5089686 C104.431296,57.9509522 103.217603,59.1622233 103.182063,59.1963934 C101.632516,60.7375825 99.60377,61.6696014 97.4393798,62.2051293 C97.3677073,59.2847643 96.4910523,56.114015 95.5397631,53.4970569 L95.5397631,53.4970569 Z M53.2832125,32.2179237 L53.025547,32.345767 L52.8336307,32.5584464 C52.5629338,32.8571402 52.2626202,33.1888258 51.9386132,33.5405421 C50.5543275,32.9720224 49.1025157,33.0521454 48.6677422,33.0951526 C47.9865575,33.0980983 47.3261045,33.1416946 46.6816446,33.2153371 C47.6453728,31.5303978 49.2902857,31.1168218 49.6379861,31.0478925 C53.4603206,30.7285788 57.1014007,29.201529 59.6016446,27.8936391 C59.4423066,29.2616212 59.467777,30.5312171 59.5400418,31.5027083 C56.0405296,30.8882357 53.4461045,32.1360333 53.2832125,32.2179237 L53.2832125,32.2179237 Z M35.1015052,38.9323477 C34.8444321,37.7487663 34.7283345,36.0897492 35.2608432,34.1449994 C35.8976028,34.0690003 36.8334913,33.8798865 38.0412613,33.455706 C37.682899,34.7930529 37.6396585,35.9925411 37.6757909,36.8143909 C36.7535261,37.4765838 35.8976028,38.1929775 35.1015052,38.9323477 L35.1015052,38.9323477 Z M36.7476028,30.8069344 C36.832899,30.6437427 38.1994146,28.1151556 41.5970453,25.9630286 C42.0116794,26.2493505 42.6265226,26.5763229 43.4658606,26.8149245 C40.5841533,28.3949969 39.1003554,30.5029384 38.3605296,32.4606492 C37.1628293,32.9290152 36.2133171,33.1611362 35.5380557,33.2724836 C35.814676,32.5095478 36.1925854,31.7106745 36.7031777,30.88529 L36.7476028,30.8069344 Z M55.7562091,22.4682525 C56.1927596,22.4228888 56.5878467,22.381649 56.9639791,22.3409984 C55.2278467,23.0791903 53.701993,23.5516802 52.857324,23.7873361 C51.975338,23.6471209 51.2834913,23.3419465 50.7622369,23.0090827 C52.8205993,22.7722485 54.4347108,22.6049329 55.7562091,22.4682525 L55.7562091,22.4682525 Z M61.6351289,19.4642297 L70.172446,14.7952984 L72.216,15.7962466 L66.4188223,23.7248873 L65.4704948,23.6524231 C65.5516446,23.4921771 65.6239094,23.335466 65.6878815,23.1817006 L65.9639094,23.2429711 L67.0099721,21.2923299 C66.6924808,20.5564945 66.0545366,20.1635384 65.407115,19.9532156 C64.4937352,19.0194293 62.9957213,19.1060328 62.8115052,19.1219396 L62.4904599,19.1484509 L62.2363484,19.3458126 C62.1018885,19.4500904 61.9620976,19.5478875 61.8240836,19.6486304 L61.4384739,19.6138712 C61.4852683,19.5561355 61.5456864,19.5031129 61.6351289,19.4642297 L61.6351289,19.4642297 Z M68.8604251,11.6292622 C68.8237003,12.0145595 68.796453,12.4982431 68.816,13.0314144 L65.6209477,14.7841047 C66.2423066,13.886256 67.2463136,12.7845649 68.8604251,11.6292622 L68.8604251,11.6292622 Z M76.1745714,10.2995741 C77.4919233,10.2559778 78.6428293,11.1343849 79.3092056,11.7753688 C78.8679164,12.1453485 77.5227247,13.1386378 75.7557909,13.1798776 L72.058439,11.5456044 L76.1745714,10.2995741 Z M81.8894146,9.63384637 C82.945547,9.80646427 84.2516446,10.1870485 85.2005645,10.9977045 C85.1697631,11.0077199 85.136,11.0189136 85.1051986,11.0283398 C83.8073937,11.4542877 82.7157213,11.8225 81.914885,12.0964499 L81.8911916,11.3894824 L81.6820976,11.1125868 C81.6465575,11.0654556 81.3148502,10.6347945 80.7545017,10.1145843 C81.0802857,9.9720125 81.4605645,9.81058825 81.8894146,9.63384637 L81.8894146,9.63384637 Z M103.863247,5.73609879 C103.751889,5.75966437 103.647045,5.78205167 103.533909,5.8062064 C102.834362,5.97057635 102.097498,6.14437253 101.342864,6.32229269 C100.572829,5.27480248 99.3419582,4.68330632 98.2680557,4.35456643 C98.9326551,4.18960734 99.591331,4.02523739 100.231645,3.8661697 C100.399275,3.82728649 100.56039,3.79075983 100.726244,3.75246576 C101.676941,4.070012 103.068927,4.6874303 103.863247,5.73609879 L103.863247,5.73609879 Z M98.6548502,7.00274892 C97.8498676,6.02065321 96.6823763,5.4209091 95.6066969,5.05387513 C96.205547,4.89245088 96.8073589,4.73043749 97.3985087,4.5713698 C97.4654425,4.55487389 97.5311916,4.53837798 97.5987178,4.52188207 C98.6886132,4.78522747 100.13154,5.32311193 100.995164,6.40418309 C100.983317,6.40712879 100.97147,6.41007449 100.959624,6.41302018 C100.209136,6.59977744 99.4361394,6.79831748 98.6548502,7.00274892 L98.6548502,7.00274892 Z M88.1367666,7.31322549 C89.3042578,7.51530037 90.7448153,7.96834872 91.6730035,8.97106432 C90.9758258,9.17961974 90.2916794,9.38758602 89.6253031,9.5926066 C88.9216098,8.6776728 87.9282648,8.09678116 86.9242578,7.72797977 C87.3193449,7.5901211 87.7233171,7.45226243 88.1367666,7.31322549 L88.1367666,7.31322549 Z M94.8870105,8.03256494 C94.1791707,8.23405068 93.4737003,8.43730384 92.777115,8.64232442 L92.8156167,8.61463486 C92.1071847,7.65846129 91.0836307,7.06166288 90.0529686,6.68461354 C90.4610871,6.55500283 90.8757213,6.42598125 91.2933171,6.29813796 C92.4294146,6.52908068 93.9096585,7.01688827 94.8870105,8.03256494 L94.8870105,8.03256494 Z M94.5789965,5.33077074 C95.695547,5.61002291 97.1076725,6.1484965 98.052446,7.16063833 C97.3143972,7.35623268 96.5692404,7.56007498 95.8234913,7.7686304 C95.0546411,6.79831748 93.9505296,6.19268197 92.8849199,5.81916747 C93.4180209,5.66245634 93.9534913,5.50692348 94.4907387,5.35433633 C94.5203554,5.34667751 94.5493798,5.3390187 94.5789965,5.33077074 L94.5789965,5.33077074 Z M83.6427247,8.93159197 C83.7558606,8.8874065 83.8672195,8.84381017 83.9833171,8.79903556 C84.3446411,8.66235517 84.7237352,8.52096167 85.1152683,8.37662246 C86.2389268,8.58458874 87.5847108,9.0229086 88.4809129,9.94785777 C87.7481951,10.1776222 87.0468711,10.400317 86.3816794,10.6147638 C85.6305993,9.78172041 84.6307387,9.25738616 83.6427247,8.93159197 L83.6427247,8.93159197 Z M77.484223,14.8565689 C76.4328293,14.8383056 75.2771847,14.6963229 74.8554425,14.6391764 L71.0218537,12.7621776 C71.0200767,12.5978077 71.0218537,12.4410966 71.0283693,12.2932225 L75.5241882,14.2798012 L75.6414704,14.2798012 C77.5316098,14.2798012 78.9970453,13.3984484 79.7297631,12.8476029 L79.7570105,13.6800571 L77.484223,14.8565689 Z M62.2025854,26.3872091 C62.2256864,26.4084182 62.2476028,26.4243249 62.2701115,26.4437665 L62.1593449,26.4148987 C62.1741533,26.4054725 62.187777,26.3966354 62.2025854,26.3872091 L62.2025854,26.3872091 Z M60.3497631,23.1021667 C61.3383693,22.5695845 62.3305296,21.9586468 63.2640488,21.2611055 C63.5323763,21.2858493 63.8149199,21.3624375 63.8777073,21.4584672 C63.9233171,21.5297531 63.9505645,21.8885392 63.5773937,22.6408704 L61.4562439,23.6818801 L61.2317491,23.626501 C61.2222718,23.6653842 61.2228641,23.7019108 61.2151638,23.740794 C61.1434913,23.7896926 61.0297631,23.8662808 60.8757561,23.9670237 L59.6561394,24.5650003 L59.7147805,24.6822391 C59.657324,24.7158201 59.5963136,24.7511685 59.5364878,24.7859277 C59.7278118,24.3075463 60.0073937,23.7248873 60.3497631,23.1021667 L60.3497631,23.1021667 Z M55.9025157,25.0675364 C56.8549895,24.7252463 57.9454774,24.2881047 59.0780209,23.7472746 C58.8102857,24.31874 58.5994146,24.8766552 58.5093798,25.3544474 C57.5130732,25.8840839 56.3029338,26.462619 54.9648502,26.9698682 C55.2574634,26.1091352 55.6803902,25.4051134 55.9025157,25.0675364 L55.9025157,25.0675364 Z M48.4746411,28.5128248 C48.605547,27.8370817 49.0041882,27.180191 49.3518885,26.7124142 C50.2238049,26.4885411 51.2805296,26.2658464 52.5581951,26.0749651 L52.6405296,26.0596475 C52.7299721,26.0390276 53.5225157,25.8534486 54.7054077,25.4740427 C54.4459652,25.9742223 54.1752683,26.6099039 54.0023066,27.3139257 C52.5345017,27.8058573 50.950007,28.1882089 49.3477422,28.315463 L49.2393449,28.3284241 C49.0107038,28.3649508 48.7518537,28.4262213 48.4746411,28.5128248 L48.4746411,28.5128248 Z M49.3015401,23.1911268 C49.3945366,23.1769875 49.4904948,23.1663829 49.584676,23.1534219 C49.9572544,23.4856966 50.4625157,23.8491957 51.121784,24.1402307 C47.1247108,24.8536788 45.3263833,25.8410767 44.8519233,26.1415379 C44.7873589,26.1686383 44.7293101,26.1980953 44.6665226,26.2257849 C43.643561,26.0755543 42.8995889,25.7721474 42.3961045,25.4846473 C44.18377,24.4819317 46.4565575,23.6147182 49.3015401,23.1911268 L49.3015401,23.1911268 Z M44.3910871,31.6947678 C43.2360348,31.3336252 42.7686829,30.5618523 42.5815052,30.0333941 C43.3953728,29.3081633 44.4402509,28.635955 45.7795192,28.0768615 L45.9791359,27.9678707 C45.9892056,27.960801 46.6277422,27.5436902 48.1524111,27.0564717 C47.8621672,27.5902322 47.6311568,28.2111853 47.6074634,28.8504018 C46.4968362,29.3653098 45.2683345,30.2714065 44.3910871,31.6947678 L44.3910871,31.6947678 Z M41.9565923,30.6514015 C42.2628293,31.2876723 42.8516098,32.0352905 43.9894843,32.4347271 C43.7833519,32.8754035 43.6092056,33.3561414 43.4794843,33.8822431 C42.1787178,34.2822689 40.9650244,34.8183859 39.8330732,35.4469979 C39.9574634,34.0984573 40.449101,32.2897988 41.9565923,30.6514015 L41.9565923,30.6514015 Z M67.1290314,25.2077516 C65.2483693,25.8045501 64.066662,25.0475057 63.8540139,24.8943294 L64.890007,24.3859019 L64.886453,24.4336222 L66.8168711,24.5814963 L72.9706341,16.1656371 L73.4563484,16.4036495 L67.1290314,25.2077516 Z M122.145652,33.4015052 L124.365129,34.4878786 L118.194188,42.9267142 L117.037951,42.8377541 C117.059275,42.8024058 117.082376,42.7658791 117.100739,42.7311199 C117.17478,42.5885481 117.227498,42.4436197 117.270739,42.2981023 L117.702551,42.3935429 L118.807254,40.3333217 C118.342864,39.2557854 117.228091,38.8687207 116.337812,38.7367534 L116.325373,38.7173118 L115.891784,38.5388025 C115.163805,38.2401087 114.479659,38.0521732 113.829868,37.950252 L122.145652,33.4015052 Z M128.477707,28.6606988 C129.921226,28.6282962 131.162167,29.5803457 131.868822,30.2625694 C131.465443,30.6136966 130.007707,31.7525034 128.038787,31.7955106 L124.007359,30.0139525 L128.477707,28.6606988 Z M134.445477,27.9796535 C135.601714,28.1599302 137.064188,28.5717388 138.099589,29.48844 C138.047463,29.505525 137.990599,29.5243775 137.939066,29.5408734 C136.525756,30.007472 135.342864,30.4092652 134.491679,30.7026567 L134.464432,29.8949463 L134.255338,29.6180507 C134.216836,29.5662064 133.843666,29.0789879 133.209275,28.5022203 C133.559937,28.3508114 133.975164,28.1723021 134.445477,27.9796535 L134.445477,27.9796535 Z M157.748509,23.9128228 C157.62708,23.938745 157.51276,23.9634888 157.389554,23.989411 C156.650321,24.1655637 155.871401,24.3505535 155.072934,24.5402565 C154.246035,23.4049845 152.906767,22.7751942 151.754084,22.4317259 C152.478509,22.2532166 153.195826,22.0758855 153.893003,21.9044459 C154.061819,21.8661518 154.222934,21.8296252 154.38938,21.7919203 C155.398718,22.1253733 156.900878,22.7840313 157.748509,23.9128228 L157.748509,23.9128228 Z M152.234467,25.2643091 C151.364328,24.1950207 150.086662,23.5528585 148.924502,23.1669721 C149.584955,22.9878736 150.244223,22.8093643 150.898753,22.643227 C150.957986,22.6284985 151.016035,22.6143591 151.075268,22.5996306 C152.239798,22.8759371 153.802969,23.4509374 154.726418,24.622736 C154.708056,24.62686 154.690286,24.630984 154.671923,24.6356971 C153.878195,24.8348263 153.060774,25.0463274 152.234467,25.2643091 L152.234467,25.2643091 Z M141.074293,25.530011 C142.338334,25.7432795 143.921645,26.234622 144.917359,27.3410261 C144.159763,27.5696123 143.416383,27.7970202 142.693143,28.0214824 C141.92607,27.0087514 140.822551,26.3801394 139.719031,25.9918965 C140.159728,25.838131 140.611087,25.6843656 141.074293,25.530011 L141.074293,25.530011 Z M148.30492,26.3459694 C147.510599,26.5727881 146.718648,26.8031417 145.937951,27.0352627 L146.03924,26.960442 C145.271575,25.9241454 144.150878,25.2866964 143.032551,24.892562 C143.486279,24.7511685 143.94593,24.6068293 144.409136,24.4624901 C145.632307,24.7063939 147.255303,25.2313172 148.30492,26.3459694 L148.30492,26.3459694 Z M147.886732,23.4474025 C149.084432,23.7413832 150.619171,24.31874 151.632655,25.4233767 C150.838927,25.635467 150.037498,25.8558052 149.23607,26.0814457 C148.405617,25.0245292 147.197254,24.37353 146.043387,23.9805739 C146.637498,23.8085451 147.228056,23.6371055 147.825129,23.4638984 C147.845861,23.458007 147.866,23.4527048 147.886732,23.4474025 L147.886732,23.4474025 Z M136.236105,27.2656163 C136.393666,27.2049349 136.552411,27.1430752 136.715895,27.078859 C137.086697,26.9398221 137.472899,26.796072 137.874502,26.6493762 C139.095303,26.867947 140.58147,27.3451501 141.55053,28.3779118 C140.75384,28.6288853 139.99269,28.8722 139.271819,29.1060884 C138.446697,28.1758369 137.328369,27.6084955 136.236105,27.2656163 L136.236105,27.2656163 Z M129.885094,33.5976887 C128.758474,33.5788362 127.516348,33.4256599 127.076244,33.3655677 L122.983805,31.362493 C122.980843,31.1527593 122.98262,30.9518627 122.992098,30.7668729 L127.807185,32.8954343 L127.924467,32.8954343 C129.982829,32.8954343 131.562585,31.9015558 132.302411,31.3295012 L132.335582,32.3298603 L129.885094,33.5976887 Z M118.971923,44.5215151 C116.764293,45.2296609 115.44161,44.1939535 115.395408,44.1562485 L115.337951,44.1108848 C115.336767,44.1102957 115.307742,44.0855518 115.267463,44.048436 C115.855059,43.9164687 116.280355,43.6760998 116.584223,43.398615 L116.566453,43.6283795 L118.592237,43.7833232 L125.119171,34.85668 L125.709728,35.1459475 L118.971923,44.5215151 Z M113.633805,71.3792111 L113.532516,71.5041087 C111.519763,74.8957854 107.911854,74.6400988 106.172167,74.2777779 C106.186383,73.9272399 106.164467,73.6091045 106.103456,73.3263175 C106.890077,73.0447088 107.686174,72.7448367 108.496488,72.4160968 C108.63924,72.3512914 112.029763,70.7771104 114.885408,66.6366373 C115.238439,66.1252642 115.590878,65.5537988 115.933247,64.9316673 C114.973666,70.0065158 113.645652,71.3674283 113.633805,71.3792111 L113.633805,71.3792111 Z M105.300843,61.3614814 C105.371331,61.2943195 105.952411,60.7328694 106.709415,59.6553331 C107.990042,59.5869929 109.523003,59.912198 110.528195,60.1790782 C110.133108,61.1605848 109.797254,61.714376 109.691819,61.8775677 C108.429554,63.1589463 107.071331,64.2058474 105.660983,65.0742391 C105.001714,64.6005709 103.90708,63.8718052 102.730111,63.3256728 C103.652969,62.7813078 104.521331,62.1367891 105.300843,61.3614814 L105.300843,61.3614814 Z M110.726035,45.4912389 L110.721889,45.3834263 C110.716557,45.3027142 110.713003,45.2113976 110.710634,45.1153678 C111.006801,44.8125501 111.423805,44.5733594 111.859171,44.390137 C111.771505,45.1825297 111.812969,46.1622689 112.075373,47.3794313 L112.234118,47.3458503 C112.270843,48.2077616 112.283282,49.0266656 112.275582,49.8055082 C111.759659,50.0134744 111.00147,50.3581211 110.25276,50.8359133 C110.545965,49.243469 110.726035,47.4648565 110.726035,45.4912389 L110.726035,45.4912389 Z M116.554606,52.7747717 C115.892376,52.425412 115.16499,51.8451094 114.613526,51.3525887 C114.627742,51.028562 114.638404,50.6974655 114.645512,50.3587102 L116.313526,49.1975161 C116.466348,50.458864 116.540983,51.6471585 116.554606,52.7747717 L116.554606,52.7747717 Z M115.329066,60.9620447 C114.378369,59.7260299 114.047254,57.9809984 113.935895,57.0189334 C114.209554,55.7039738 114.433456,54.168676 114.55607,52.3965441 C115.143666,52.881406 115.866314,53.396314 116.555791,53.6826359 C116.501889,56.5305367 116.030983,58.9389394 115.329066,60.9620447 L115.329066,60.9620447 Z M110.004571,52.0194948 C110.731366,51.4374248 111.608613,50.9932136 112.25722,50.7104266 C112.131645,54.7407306 111.452829,57.5856857 110.819624,59.4020031 C109.909206,59.1563319 108.546244,58.8558707 107.254955,58.8281811 C108.213352,57.2887593 109.305024,55.0329438 110.004571,52.0194948 L110.004571,52.0194948 Z M110.073282,68.7522376 C109.255861,67.7047474 109.42823,66.1252642 109.667533,65.1084092 C110.292446,64.5876098 110.894258,64.0367643 111.467045,63.4499813 L111.572481,63.3262619 C111.653038,63.2172711 112.63039,61.8498781 113.463805,58.9412959 C113.743387,59.933407 114.212516,61.0227261 114.997951,61.8534129 C113.638544,65.2356634 111.647115,67.4325649 110.073282,68.7522376 L110.073282,68.7522376 Z M111.898857,41.1563497 C112.491192,40.7327583 113.40931,40.8735627 114.211923,41.1386755 L113.908056,41.2152637 C113.713178,41.2824256 112.55161,41.7560938 112.049902,43.4392657 C111.629345,43.58007 111.17147,43.7744861 110.755059,44.0372424 C110.864049,42.9420318 111.182725,41.6689012 111.898857,41.1563497 L111.898857,41.1563497 Z M97.1704599,65.3658632 C98.7703554,65.0477278 100.345373,64.5528506 101.807254,63.8264415 C102.89478,64.2576916 104.042725,64.9581786 104.883247,65.5367137 C103.250774,66.4492909 101.554328,67.1238558 99.8442578,67.6075394 C99.3455122,67.0873291 98.380007,66.1564886 97.1704599,65.3658632 L97.1704599,65.3658632 Z M84.6479164,73.9142788 C84.1722718,73.8541866 83.7215052,73.7840789 83.2825854,73.7098474 C84.2723763,72.9039044 85.9522369,71.7150207 88.0360697,70.9073103 C88.6710523,70.9644568 89.3196585,71.0121771 89.9901812,71.0404558 C90.5440139,71.0640214 91.0907387,71.0758042 91.6327247,71.0758042 C92.8470105,71.0758042 94.0287178,71.0098206 95.1831777,70.8931709 C93.979554,71.8316703 92.7528293,72.9869731 92.2534913,74.0927881 C89.2545017,74.3037001 86.6896934,74.1735002 84.6479164,73.9142788 L84.6479164,73.9142788 Z M82.2240836,81.8971204 L79.4330035,81.5006294 C79.2505645,80.1143839 79.364885,78.9366939 79.6035958,77.9775746 C81.0749547,77.5746031 82.3632822,77.5427896 83.761784,77.7825694 C82.9005296,79.2524727 82.5315052,80.7848248 82.2240836,81.8971204 L82.2240836,81.8971204 Z M93.2237352,74.0144325 C93.9066969,72.9480899 95.4153728,71.6896877 96.878439,70.6769567 C98.898892,70.3647127 100.818648,69.8704246 102.618753,69.1905575 C101.937568,70.2262649 101.276523,71.4516753 100.996348,72.6134586 C98.1768362,73.3598984 95.5758955,73.7958617 93.2237352,74.0144325 L93.2237352,74.0144325 Z M103.277429,71.9524439 C102.818962,72.096194 102.362864,72.2358201 101.913875,72.3636634 C102.345686,71.0375101 103.287498,69.6141489 104.042132,68.6067202 C105.705408,67.863226 107.256139,66.9512379 108.68722,65.8813604 C108.559275,66.9671447 108.643387,68.2709106 109.425861,69.2647891 C108.443178,70.0018027 107.725268,70.3505734 107.620425,70.399472 C106.368822,70.9067212 105.148613,71.3515215 103.961575,71.7409428 C103.750704,71.7709889 103.523247,71.834616 103.277429,71.9524439 L103.277429,71.9524439 Z M166.980042,25.8669989 C166.021052,26.1851342 165.06147,26.4967891 164.091819,26.7825218 C162.151923,27.3475067 160.205512,27.8895151 158.249624,28.3979426 L152.370704,29.8808069 L149.423247,30.586007 L147.949519,30.9247623 C147.413456,31.0602644 146.950843,31.1957665 146.447951,31.3312686 C145.46053,31.6016837 144.470146,31.8650291 143.494571,32.1813971 C142.514258,32.4836257 141.532167,32.780552 140.564885,33.130501 L139.10715,33.6353936 C138.624397,33.814492 138.145791,34.0047841 137.667185,34.1950762 C136.704049,34.5603428 135.762829,34.9868798 134.815094,35.3986884 C134.339449,35.599585 133.878613,35.839954 133.409484,36.0585248 C132.942132,36.2812195 132.474188,36.5033252 132.016906,36.7513529 C131.091087,37.2226646 130.183631,37.7358052 129.28269,38.26662 C128.838439,38.5464613 128.389449,38.815109 127.949345,39.1049656 C127.516348,39.4071942 127.075652,39.692927 126.652725,40.0193103 C126.223875,40.3309651 125.805094,40.667953 125.388683,41.0108322 C125.181958,41.1928764 124.975826,41.3649051 124.770286,41.5563755 C124.588439,41.7266368 124.429693,41.8739217 124.2283,42.0871903 C122.704815,43.250741 121.815129,44.7895736 121.15823,46.2712597 C120.490077,47.8271774 120.045233,49.4043041 119.720042,50.9826091 C119.087429,54.1415756 118.843387,57.291705 118.730251,60.4276951 C118.682272,61.9288228 118.660948,63.4275939 118.694711,64.9234194 C117.546174,72.0148927 115.349206,73.8129468 115.349798,73.8135359 L115.199345,73.9184028 L115.086801,74.062742 C112.483491,77.3907916 107.479449,76.9359758 105.416941,76.5777789 C105.457812,76.5341826 105.499868,76.4876406 105.539554,76.4487574 L105.844606,76.1506527 L105.948265,75.7376659 C105.982028,75.6051094 106.003944,75.4819793 106.030599,75.3553143 C106.583247,75.459592 107.286941,75.5509086 108.066453,75.5509086 C110.15147,75.5509086 112.771366,74.8999093 114.450634,72.117403 C114.845721,71.6879203 116.767254,69.2088208 117.609554,60.9726492 C118.714258,57.4389899 119.211819,52.8101201 118.203073,46.9216698 C118.777045,46.8586319 119.396627,46.7213624 120.062411,46.4680323 L120.373387,46.3496153 L128.035826,35.687956 C128.659554,35.7468699 129.404118,35.7987142 130.10485,35.7987142 L130.10485,35.7280175 L130.201401,35.9112399 L134.590007,33.6401067 L134.566906,32.9461003 C135.362411,32.6079341 136.775129,32.0140814 138.584118,31.2806026 C141.439763,30.1229433 145.270983,28.6300636 149.144258,27.2479421 C151.080007,26.5533465 153.028787,25.8982233 154.86384,25.3043705 C155.78492,25.019227 156.675199,24.7435096 157.519275,24.4825208 C157.692237,24.4336222 157.853944,24.3876693 158.02276,24.3393599 C158.041714,24.3752974 158.066,24.4082892 158.08377,24.445405 L158.233038,24.3729408 C158.219415,24.3452513 158.201052,24.3199183 158.186836,24.2928179 C158.788648,24.1213782 159.373282,23.9552409 159.915861,23.8008863 C160.659833,23.5940983 161.348718,23.4344415 161.955861,23.2771412 C162.563003,23.1157169 163.098474,23.0055478 163.539763,22.9124638 C164.421749,22.7245282 164.925826,22.6173048 164.925826,22.6173048 C164.925826,22.6173048 164.415826,22.6909473 163.522585,22.8199689 C163.075373,22.8835959 162.53161,22.9578275 161.914397,23.0786011 C161.296592,23.1952508 160.594676,23.3095439 159.835895,23.4668441 C159.240007,23.5940983 158.594955,23.731957 157.927986,23.8745287 C157.130704,22.7592875 155.741679,22.0864901 154.708056,21.7194561 C155.393979,21.5639232 156.066871,21.4113361 156.708369,21.2658186 C157.604571,21.0672786 158.456941,20.9040869 159.241784,20.7397169 C160.810878,20.4050856 162.129415,20.1865149 163.049902,20.0133078 C163.970983,19.845403 164.497568,19.7493733 164.497568,19.7493733 C164.497568,19.7493733 163.965652,19.8053415 163.033909,19.9037278 C162.103352,20.0068273 160.76823,20.1258335 159.176035,20.3414586 C158.379345,20.4463254 157.513352,20.5453009 156.601749,20.676679 C155.690146,20.8121811 154.728195,20.9547529 153.733666,21.1026269 C152.741505,21.2693534 151.716174,21.4419713 150.674258,21.6169458 C149.632934,21.7989899 148.579763,22.010491 147.523038,22.208442 C146.47046,22.4293693 145.417882,22.6502967 144.381889,22.8676892 C143.351226,23.1110038 142.330634,23.3272181 141.352098,23.5781915 C139.389101,24.0542163 137.569449,24.5626438 136.012202,25.0162813 C135.235652,25.2542937 134.521889,25.4634382 133.894014,25.6725828 C133.264362,25.8734794 132.716453,26.0614149 132.265094,26.2175369 C131.811366,26.378372 131.464258,26.5015022 131.210146,26.5998885 C130.967289,26.6929726 130.837568,26.7430494 130.837568,26.7430494 C130.807951,26.7542431 130.775965,26.7677933 130.747533,26.7813435 C130.701331,26.8031417 130.661052,26.8325987 130.618997,26.8591099 C129.896348,26.5828035 129.090181,26.4196118 128.220634,26.4726344 L128.091505,26.4808823 L121.074118,28.6047306 L120.944397,29.2498384 C120.933735,29.3016827 120.725826,30.3574209 120.778544,31.6435126 L116.279171,34.1114184 C115.914293,33.9317308 115.550007,33.7461518 115.173875,33.5912081 C114.697638,33.3926681 114.22377,33.1858801 113.74161,33.0032468 C112.782028,32.6220735 111.815338,32.2621092 110.845094,31.9103929 C109.870111,31.573405 108.895721,31.2346497 107.916592,30.9118012 L104.970913,29.969767 C103.001993,29.3594184 101.025965,28.7749919 99.0446063,28.2076505 C97.059101,27.6550375 95.0789268,27.0894635 93.0797979,26.5792686 L93.0561045,26.5727881 L93.0300418,26.5686641 C92.1456864,26.4137204 91.2607387,26.2664355 90.3793449,26.0832131 C89.4967666,25.9129517 88.6165575,25.719714 87.7345714,25.5376698 C85.9747456,25.150016 84.2196585,24.7311377 82.4633868,24.3087246 L77.2070105,22.980804 C75.5851986,22.5778325 73.9734564,22.1377452 72.3540139,21.7159212 L75.7747456,16.9556733 C76.3599721,17.0104633 77.0524111,17.0575944 77.7057561,17.0575944 L77.7057561,16.9309294 L77.824223,17.1577482 L82.0120279,14.9908927 L81.9901115,14.3351804 C82.748892,14.0111536 84.0697979,13.4538275 85.7502509,12.768069 C88.4518885,11.6669671 92.0763833,10.2471407 95.7405645,8.93159197 C97.5714704,8.27116648 99.4148153,7.6466785 101.150948,7.08169363 C102.022864,6.81010027 102.865164,6.54793315 103.664223,6.2987271 C103.827115,6.25218507 103.979345,6.20858874 104.138683,6.16263585 C104.155268,6.19327111 104.175408,6.22096067 104.190808,6.25218507 L104.339484,6.1797209 C104.328822,6.15792274 104.314014,6.13789199 104.30276,6.11609383 C104.869624,5.9534913 105.420495,5.79560188 105.931087,5.64890612 C106.635373,5.4521335 107.286941,5.29954634 107.862098,5.14990488 C108.436662,4.99555031 108.943108,4.89068346 109.360704,4.80172338 C110.195303,4.62262494 110.672725,4.51952551 110.672725,4.51952551 C110.672725,4.51952551 110.18938,4.58845485 109.343526,4.70922847 C108.920007,4.76873156 108.404676,4.8376609 107.820042,4.95136484 C107.234815,5.06035567 106.570216,5.16757907 105.851714,5.31486397 C105.286627,5.43445931 104.675338,5.56407002 104.043909,5.69780471 C103.296976,4.66091902 102.012794,4.02995051 101.040774,3.68059073 C101.675756,3.53507325 102.300077,3.39250146 102.895373,3.25641022 C103.743596,3.06611813 104.550355,2.90999613 105.293143,2.75269586 C106.777533,2.43279306 108.025582,2.22305936 108.896906,2.05751113 C109.768822,1.89667602 110.266976,1.80477025 110.266976,1.80477025 C110.266976,1.80477025 109.762899,1.85661453 108.880913,1.94793117 C107.999519,2.04337178 106.735477,2.15354089 105.227394,2.35443749 C104.47276,2.45223466 103.652376,2.54414044 102.788753,2.66668148 C101.925129,2.79334649 101.014118,2.92649204 100.072307,3.06435071 C99.1322718,3.2204727 98.1608432,3.38189695 97.1734216,3.54508862 C96.1889617,3.72831103 95.1885087,3.91330087 94.1880557,4.09887984 C92.1918885,4.49772735 90.1992753,4.92779926 88.341122,5.38438244 C86.4805993,5.8315394 84.7557213,6.30933161 83.2796237,6.73586868 C81.8058955,7.17477768 80.5821324,7.5677338 79.7268014,7.86701671 C79.2961742,8.01901473 78.9668362,8.13448609 78.7251638,8.22757015 C78.4941533,8.31594109 78.3715401,8.36307225 78.3715401,8.36307225 C78.3401463,8.37485505 78.3069756,8.3889944 78.2761742,8.40372289 C78.2388571,8.42139707 78.2074634,8.4455518 78.173108,8.46617168 C77.4919233,8.2104851 76.7343275,8.06084364 75.9180906,8.11150965 L75.7889617,8.1197576 L75.7427596,8.13389695 C79.3133519,6.69993117 93.981331,1.18853023 110.936906,0.369037044 L108.589484,0.0944979916 C88.7439094,1.05361726 74.2038746,6.21448014 74.0528293,6.27280496 C63.6413659,10.3072329 62.4075331,15.6854883 62.2701115,16.6222203 L60.7863136,17.4358221 C60.0648502,17.7339267 59.2444669,18.5027539 59.136662,19.6810331 C58.4471847,19.8135895 57.1529338,19.9485025 55.5103902,20.1187638 C54.031331,20.2719401 52.1909477,20.4628213 49.767115,20.7461975 C49.4910871,20.7786001 49.2192056,20.8145377 48.9502857,20.8545992 C38.8261045,22.3622074 35.0256864,28.9976867 34.6590314,29.6822669 C31.6144321,34.6298612 32.4827944,38.886984 33.1924111,40.8588342 C31.6274634,42.5691065 30.3604599,44.2693634 29.360007,45.6137799 C29.1550592,45.8894972 28.9595889,46.1516644 28.7730035,46.399103 C28.6492056,46.5634729 28.5194843,46.7331452 28.3832474,46.9075305 C25.1941185,51.0097095 19.0344321,57.6151427 18.9728293,57.6817154 L18.9325505,57.7259009 C12.4986132,65.1926562 7.70248084,88.517282 7.44363066,89.7503512 C7.27244599,90.5668987 -0.761979094,102.650152 0.0589965157,102.821002 C0.163247387,102.842211 0.201156794,102.577099 0.303630662,102.577099 C1.00791638,102.577099 10.0007387,94.3061677 10.6292056,88.2881067 C10.660007,87.9894129 15.2962091,66.6342808 21.2201463,59.7142471 C21.6898676,59.2105327 27.5764878,52.8837626 30.7857561,48.7562505 C30.930878,48.5706716 31.0700767,48.3886274 31.2033519,48.2118855 C31.392899,47.9603229 31.5925157,47.6922644 31.8016098,47.411834 C34.9463136,43.1871139 40.2092056,36.1162605 48.750669,36.1162605 L48.9307387,36.1056559 C49.0409129,36.0926949 49.2263136,36.0850361 49.4437003,36.0897492 C47.8669059,37.5879312 45.9335261,39.2033519 43.5997282,40.6538136 C42.8889268,41.0962575 40.4704251,42.8513043 39.5499373,44.0413663 C39.2259303,44.4596554 46.361784,43.2177492 54.852899,34.831347 C55.8047805,34.4619565 59.6016446,33.3313976 63.6739443,36.8031972 C63.6846063,36.8114452 64.5014355,37.5089865 65.3952683,38.760319 C64.8242578,39.0666716 64.240216,39.3960006 63.6318885,39.7724608 C61.9739443,40.6302481 59.8995889,42.0282763 58.1445017,42.942621 C56.211122,43.9500497 54.5543624,44.7736668 53.6338746,45.4146507 C52.9461742,45.8936212 57.6913659,45.3940308 58.5123415,45.2314283 C61.2518885,44.6870633 64.4552334,42.752918 65.088439,42.4247673 L65.1909129,42.3664424 C70.87377,38.8333723 74.6866272,38.962983 74.7144669,38.9641613 L74.8092404,38.967107 C79.5876028,38.967107 82.231784,42.0866011 83.3809129,43.9394452 C82.1808432,44.1521246 81.1294495,44.5321196 80.3629686,44.9286106 L80.2214007,45.0116792 C76.4357909,47.5214139 68.9261742,52.6875791 68.8225157,52.7394234 C68.0720279,53.1129379 66.797324,53.6549463 65.3727596,54.7201107 C64.7022369,55.2208793 68.9925157,54.2099158 69.7430035,53.8381687 C70.1694843,53.6260785 77.8325157,50.2055339 81.8284042,47.5773822 C82.4657561,47.2680839 87.2524111,45.1395225 90.4551638,49.4031258 C90.9154077,50.2921375 94.4711916,57.3417819 94.4060348,62.7123785 C92.1924808,62.925647 90.0008432,62.8390435 88.1699373,62.6575885 C88.2303554,62.6086899 88.2955122,62.5603805 88.3523763,62.5108927 C88.6313659,62.275826 88.872446,62.0384028 89.0614007,61.823956 C89.2550941,61.6148114 89.398439,61.4298216 89.4926202,61.2954977 C89.5885784,61.165887 89.6430732,61.0916554 89.6430732,61.0916554 C89.6430732,61.0916554 89.5583693,61.1293604 89.4102857,61.1947549 C89.2663484,61.2625059 89.0560697,61.3496986 88.7984042,61.4309999 C88.5454774,61.5176034 88.2445714,61.5971372 87.9223415,61.6560512 C87.6024808,61.7196783 87.2589268,61.7615072 86.9183345,61.7785922 C86.3816794,61.8127623 85.8556864,61.7838945 85.4203206,61.731461 C85.4339443,61.7055389 85.4493449,61.6778493 85.4623763,61.6519272 C86.0404948,60.5366859 86.4657909,59.5710861 86.7406341,58.8806145 C86.8863484,58.5412701 86.9763833,58.2584831 87.0474634,58.0729041 C87.1120279,57.8820229 87.1457909,57.7801018 87.1457909,57.7801018 C87.1457909,57.7801018 87.0628641,57.8478528 86.9064878,57.9756961 C86.7578118,58.1082525 86.5226551,58.2902967 86.2531429,58.5424484 C85.6975331,59.03438 84.9280906,59.751952 84.0538049,60.6433202 C83.1777422,61.532921 82.1915052,62.5927831 81.1744669,63.7510316 C80.6615052,64.326621 80.1485436,64.9328456 79.6284739,65.5484965 C79.1066272,66.1617908 78.5924808,66.7962942 78.0735958,67.424317 C77.0577422,68.6868431 76.0412962,69.9499584 75.0888223,71.1335399 C74.6143624,71.716199 74.1612265,72.2888426 73.7187526,72.8019832 C73.2822021,73.3192478 72.8610523,73.8064663 72.4624111,74.1970658 C72.3617143,74.3037001 72.2663484,74.3838231 72.1703902,74.476318 L72.0987178,74.5434799 L72.0631777,74.5770608 L72.0542927,74.5853088 L72.0501463,74.5894328 C72.0045366,74.6147658 72.1070105,74.5599758 72.0945714,74.5670455 L72.0720627,74.5835414 L71.8961394,74.712563 C71.6674983,74.8863591 71.4501115,75.0519074 71.2457561,75.2074402 C70.840007,75.523219 70.4940836,75.8136649 70.2115401,76.0581578 C69.642899,76.5394848 69.3372544,76.852318 69.3372544,76.852318 C69.3372544,76.852318 69.7726202,76.7969389 70.5005993,76.6337472 C70.7168014,76.5872052 70.9661742,76.5300586 71.2309477,76.4658424 C71.2576028,77.9003973 71.6272195,82.5652047 75.601784,83.9773723 L75.7457213,84.0292166 L81.9196237,84.8104157 L80.0970105,87.6483011 C80.0970105,87.6483011 80.209554,87.6371075 80.4062091,87.618255 C80.5074983,87.6070613 80.6312962,87.5941003 80.7728641,87.5787826 C80.9126551,87.5534496 81.0660697,87.5074968 81.2425854,87.4627221 C81.4226551,87.4244281 81.6039094,87.3519639 81.7981951,87.2641821 C81.897115,87.2211749 81.9984042,87.1764003 82.1026551,87.1310365 C82.1997979,87.0727117 82.2993101,87.0137978 82.400007,86.9531164 C82.6120627,86.8346993 82.8093101,86.6862362 83.0059652,86.5230445 C83.2162439,86.3669225 83.3862439,86.1778087 83.5769756,85.9898731 C83.933561,85.605165 84.2522369,85.1756822 84.5039791,84.748556 C84.7669756,84.3220189 84.957115,83.900195 85.1158606,83.5284479 C85.2657213,83.1543443 85.3747108,82.832674 85.4398676,82.5899485 C85.4736307,82.4786011 85.4979164,82.3572384 85.5127247,82.2741697 C85.5156864,82.2576738 85.5168711,82.2553172 85.5192404,82.2441236 C86.2436655,80.5880522 87.6024808,77.983466 89.4967666,76.4222461 C91.2927247,76.4151764 93.2415052,76.2908679 95.3300767,76.0069027 L94.5245017,78.3552131 L94.4729686,78.506622 L94.489554,78.5802644 C94.5168014,78.6998598 94.5446411,78.7793936 94.5778118,78.8718885 C94.6103902,78.9608486 94.6477073,79.046863 94.6868014,79.1311099 C94.7649895,79.2996039 94.8579861,79.4592607 94.9592753,79.6118479 C95.1648153,79.916433 95.4195192,80.1850807 95.7121324,80.3942252 C95.7814355,80.4513718 95.8596237,80.4961464 95.9360348,80.5415101 C96.0136307,80.5856956 96.0858955,80.6369508 96.1688223,80.6687643 C96.3287526,80.7453524 96.4898676,80.8113361 96.6580906,80.8555215 C96.8209826,80.9150246 96.9945366,80.9297531 97.1603902,80.9639232 C97.3286132,80.9868997 97.4986132,80.988078 97.6644669,81.001039 C97.5027596,80.9539079 97.3404599,80.9185595 97.184676,80.8631804 C97.032446,80.7966076 96.8754774,80.7506547 96.7368711,80.663462 C96.5917491,80.591587 96.4590662,80.5008595 96.3334913,80.4048298 C96.2665575,80.3624117 96.2126551,80.3023195 96.1546063,80.2510643 C96.0965575,80.1980418 96.0385087,80.1473758 95.9905296,80.0855161 C95.7808432,79.8575191 95.6209129,79.5935845 95.5083693,79.3143324 C95.4526899,79.1747063 95.4064878,79.0321345 95.3739094,78.8877953 C95.3579164,78.8153311 95.3425157,78.7440452 95.3330383,78.6721702 C95.3312613,78.6574417 95.3294843,78.6409458 95.3277073,78.6256282 L97.050216,75.7417898 C98.9681951,75.4101042 100.993387,74.9435057 103.121645,74.3084132 C103.11039,74.4144583 103.095582,74.5287514 103.075443,74.6465793 C100.114955,77.9746289 95.996453,87.9358012 94.9557213,92.5935389 C94.9178118,92.7638002 94.8633171,92.9393638 94.7946063,93.1137492 C93.621784,96.084191 88.5004599,98.7282495 86.5439791,99.5330142 L76.4476376,102.623641 L76.44823,102.62423 C75.4412613,102.954737 71.4625505,105.450332 64.6139791,110.047978 C59.968892,112.784531 46.8232125,113.003102 46.7296237,112.98366 L50.0010871,113.839091 C50.0437352,113.847928 50.1835261,113.876796 50.3991359,113.916268 C49.412899,114.426463 47.9989965,115.333738 46.2397631,116.971546 C38.7212613,123.970525 38.6341882,130.10229 39.4681951,130.19125 C39.5232822,130.197141 39.577777,130.200087 39.6316794,130.200087 C40.3981603,130.200087 41.5455122,126.501468 42.0353728,125.892887 C46.3440139,120.535841 51.114676,116.721162 54.7510174,114.456509 C55.5340836,114.51071 56.3734216,114.546648 57.2459303,114.546648 C59.5838746,114.546648 62.1344669,114.289783 64.3355819,113.489731 L65.7145366,127.455875 L67.3789965,111.839551 C71.8333519,108.867931 76.5074634,105.860374 77.3361394,105.512192 L87.503561,102.400946 L87.6291359,102.356171 C88.4542578,102.022718 95.7500418,98.9597814 97.6224111,94.2172076 C97.7485784,93.897894 97.8486829,93.5726889 97.9209477,93.2498404 C98.6613659,89.9371085 100.98154,84.1146418 103.09262,80.156802 L103.847847,80.3582877 C104.011331,80.4030623 105.860599,80.8949939 108.234676,80.8949939 C111.034641,80.8949939 114.56377,80.2104137 116.913561,77.3035989 C117.312202,76.9666111 118.234467,76.0204529 119.172132,73.9095657 C119.320216,75.6422252 119.499101,77.3719391 119.72478,79.0987073 L119.87938,80.2599014 L119.920843,80.5532929 L119.926174,80.5909979 L119.927951,80.6021915 L119.930321,80.6345942 L119.940983,80.7777551 L119.983631,81.3498097 C120.03931,82.1133346 120.103875,82.8750921 120.143561,83.6421518 L120.395303,88.2462778 C120.545164,91.3215865 120.647638,94.4027866 120.745965,97.4857541 L121.29269,116.004768 C121.520146,112.921801 121.707916,109.836477 121.857777,106.749385 C122.014746,103.662294 122.122551,100.574024 122.22384,97.4828084 C122.306174,94.391593 122.353561,91.2991992 122.369554,88.2015032 C122.373108,86.6520661 122.361261,85.1026289 122.32039,83.5496569 C122.309728,82.7743492 122.274188,81.9955067 122.246941,81.2172533 L122.225617,80.6334159 L122.220286,80.4878984 L122.217324,80.4148451 L122.205477,80.2811104 L122.179415,79.9995017 L122.085233,78.8583383 C121.963805,77.333645 121.88147,75.8024712 121.79499,74.273654 C121.709101,72.7448367 121.64276,71.2154303 121.603073,69.686613 C121.562794,68.1577958 121.546209,66.6295677 121.560425,65.1048744 C121.579972,63.579592 121.598334,62.0572552 121.667045,60.5408099 C121.805059,57.5114541 122.076941,54.4862223 122.68823,51.5923686 C122.995652,50.1513331 123.369415,48.7338632 123.914362,47.4460041 C124.45161,46.1646254 125.189659,45.0128575 126.094153,44.3559669 L126.238091,44.2516892 L126.356557,44.1191328 C126.440077,44.0254596 126.628439,43.8387023 126.784223,43.6925957 C126.947115,43.537652 127.127777,43.3844757 127.298369,43.229532 C127.660286,42.9273033 128.025164,42.626253 128.411958,42.339342 C129.175477,41.7596287 129.984014,41.216442 130.797882,40.6791466 C131.625373,40.1583472 132.464118,39.6493306 133.329519,39.1762515 C133.754223,38.9282238 134.19492,38.7037616 134.634432,38.477532 C135.076314,38.2554263 135.506348,38.01329 135.9583,37.8070911 C136.855094,37.3852671 137.745373,36.9481256 138.665861,36.5681305 L140.034153,35.9725104 L141.421993,35.4134169 C142.342481,35.0281196 143.2837,34.69231 144.223735,34.3506091 C145.159031,33.9953579 146.113282,33.6901836 147.065756,33.3779396 L148.476105,32.9184107 L149.938578,32.4753777 L152.84931,31.5657462 C154.786244,30.9506845 156.717847,30.3167702 158.631679,29.6286552 C160.547289,28.948199 162.456976,28.2459446 164.335268,27.4600323 C165.273526,27.0653088 166.211784,26.6705853 167.127533,26.2234283 C168.042098,25.7780388 168.950146,25.3090837 169.800739,24.7564707 C168.887359,25.1971471 167.936662,25.5429721 166.980042,25.8669989 L166.980042,25.8669989 Z" id="Fill-9" fill="#554740" mask="url(#mask-2)"></path>
                </g>
                <path d="M79.6089268,28.3813288 L78.011993,27.9312262 C77.8627247,27.8888081 77.7116794,27.9742334 77.670216,28.12034 C77.6287526,28.2664466 77.7140488,28.4184446 77.8609477,28.4596844 L79.4590662,28.9097871 C79.4839443,28.9168567 79.5094146,28.9203916 79.5337003,28.9203916 C79.6545366,28.9203916 79.7653031,28.8414469 79.7996585,28.7200841 C79.841122,28.5739775 79.7558258,28.4225686 79.6089268,28.3813288" id="Fill-12" fill="#554740"></path>
                <path d="M76.9460279,27.6313541 L75.3485017,27.1812515 C75.1992334,27.1376551 75.0487805,27.2242587 75.0067247,27.3703653 C74.9652613,27.5164719 75.0505575,27.6678808 75.1974564,27.7091206 L76.7949826,28.1598123 C76.820453,28.166882 76.8459233,28.1704169 76.8708014,28.1704169 C76.9910453,28.1704169 77.1018118,28.0914722 77.1361672,27.9706985 C77.178223,27.8245919 77.0929268,27.6725939 76.9460279,27.6313541" id="Fill-14" fill="#554740"></path>
                <path d="M66.8274146,30.8171265 C66.672223,30.7835455 66.5312474,30.8801644 66.498669,31.0280385 C66.3825714,31.5676904 66.2854286,32.1208924 66.2107944,32.6723271 C66.1906551,32.8225577 66.2960906,32.9610055 66.4477282,32.9810363 C66.4601672,32.9828037 66.4726063,32.9833928 66.4850453,32.9833928 C66.6206899,32.9833928 66.7397491,32.8838282 66.7581115,32.7459696 C66.8303763,32.2086742 66.9257422,31.6690224 67.0394704,31.1435098 C67.0714564,30.9950467 66.9760906,30.84894 66.8274146,30.8171265" id="Fill-16" fill="#554740"></path>
                <path d="M83.9551812,29.6052664 L83.340338,29.4320593 C83.1940314,29.3890521 83.0412091,29.4756556 82.9991533,29.6217623 C82.9576899,29.7672797 83.0435784,29.9192778 83.1904774,29.9605175 L83.195216,29.9622849 L82.3209303,30.4907432 C82.1906167,30.5696879 82.1491533,30.7387709 82.2285261,30.8683817 C82.2806516,30.9532178 82.3718711,31.0003489 82.4642753,31.0003489 C82.513439,31.0003489 82.5631951,30.9873879 82.6076202,30.9602874 L83.9190488,30.1673055 C84.0499547,30.2162041 84.1767143,30.3251949 84.2092927,30.6238887 C84.2246934,30.7641039 84.3443449,30.8683817 84.4829512,30.8683817 C84.4936132,30.8683817 84.5036829,30.8683817 84.5131603,30.8672034 C84.6653902,30.8507075 84.7749721,30.7152054 84.7583868,30.5643856 C84.700338,30.0371057 84.4083171,29.6948156 83.9551812,29.6052664" id="Fill-18" fill="#554740"></path>
                <path d="M83.714101,34.0686469 C83.5672021,34.0409573 83.4203031,34.1393436 83.3924634,34.2883959 C83.2935436,34.8180324 83.2088397,35.3712345 83.1395366,35.934452 C83.1211742,36.0852717 83.2283868,36.2225412 83.3800244,36.2408046 C83.3912787,36.2419828 83.4031254,36.242572 83.4143798,36.242572 C83.5518014,36.242572 83.6708606,36.1406508 83.687446,36.0010247 C83.7555645,35.4490009 83.8384913,34.9069925 83.9350418,34.3891388 C83.9634739,34.2394973 83.8639617,34.0963364 83.714101,34.0686469" id="Fill-20" fill="#554740"></path>
                <path d="M84.4169059,31.4139249 C84.270007,31.3691503 84.116,31.4486842 84.0703902,31.5936125 L84.0401812,31.6813943 C83.8861742,32.165667 83.7446063,32.6764511 83.6214007,33.2007853 C83.586453,33.3480702 83.6782648,33.4959443 83.8269408,33.5307035 C83.8476725,33.5354166 83.8695889,33.5377732 83.8897282,33.5377732 C84.0158955,33.5377732 84.1290314,33.4529371 84.1586481,33.3262721 C84.2794843,32.815488 84.4169059,32.3182542 84.5620279,31.8622602 C84.5620279,31.8622602 84.5768362,31.8245552 84.5969756,31.7585716 C84.6431777,31.6136432 84.5620279,31.4592887 84.4169059,31.4139249" id="Fill-22" fill="#554740"></path>
                <path d="M83.324108,36.7874083 C83.1748397,36.7750364 83.0386028,36.8863837 83.0255714,37.0377926 C82.9793693,37.5845142 82.9467909,38.1430185 82.9290209,38.697988 C82.9242822,38.8493969 83.0439338,38.976651 83.1967561,38.9813641 L83.2056411,38.9813641 C83.3537247,38.9813641 83.4769303,38.8641254 83.481669,38.7156622 C83.4988467,38.1701189 83.5308328,37.6210408 83.5758502,37.0843346 C83.5888815,36.9329258 83.476338,36.7997802 83.324108,36.7874083" id="Fill-24" fill="#554740"></path>
                <path d="M74.1316098,27.4092485 C74.1570801,27.4163182 74.1825505,27.419853 74.2068362,27.419853 C74.3276725,27.419853 74.438439,27.3409083 74.4727944,27.2201347 C74.5148502,27.0740281 74.429554,26.9220301 74.2826551,26.8807903 L72.6833519,26.4300985 C72.5340836,26.385913 72.3836307,26.4731057 72.3421672,26.6192123 C72.3007038,26.7653189 72.3854077,26.9173169 72.5323066,26.9585567 L74.1316098,27.4092485 Z" id="Fill-26" fill="#554740"></path>
                <path d="M67.6558537,28.1981064 C67.5142857,28.141549 67.3537631,28.2075327 67.2957143,28.3477479 C67.2317422,28.500335 67.0072474,29.0670873 66.7649826,29.9449053 C66.7241115,30.0916011 66.8111847,30.2424208 66.958676,30.2830715 C66.9829617,30.2889629 67.0072474,30.2924977 67.0315331,30.2924977 C67.1523693,30.2924977 67.2637282,30.2123747 67.2974913,30.0904228 C67.5314634,29.2420618 67.7458885,28.7018208 67.8057143,28.5568924 C67.8637631,28.4166772 67.7968293,28.2558421 67.6558537,28.1981064" id="Fill-28" fill="#554740"></path>
                <path d="M82.4643937,29.4708836 C82.5058571,29.324777 82.4199686,29.1733681 82.273662,29.1315392 L80.6743589,28.6814365 C80.5286446,28.6396076 80.3746376,28.7250329 80.3331742,28.8705504 C80.2917108,29.016657 80.377007,29.168655 80.5244983,29.2098948 L82.1232091,29.6599974 C82.1480871,29.6676562 82.1735575,29.6706019 82.1984355,29.6706019 C82.3192718,29.6706019 82.4300383,29.5916572 82.4643937,29.4708836" id="Fill-30" fill="#554740"></path>
                <path d="M69.92177,26.7684414 C69.8364739,26.6417763 69.6641045,26.6081954 69.5385296,26.6924424 C69.41177,26.7766893 69.3774146,26.9469507 69.4621185,27.0730265 L70.3814216,28.4445435 C70.4347317,28.5234882 70.5218049,28.5664954 70.6112474,28.5664954 C70.6639652,28.5664954 70.7172753,28.5517669 70.7640697,28.5205425 C70.8908293,28.4362956 70.925777,28.2660342 70.8410732,28.1393692 L69.92177,26.7684414 Z" id="Fill-32" fill="#554740"></path>
                <path d="M72.9854425,31.3391042 C72.9001463,31.2124392 72.727777,31.1794474 72.6022021,31.2631052 C72.4754425,31.3473521 72.4410871,31.5176135 72.5257909,31.6436894 L73.4450941,33.0152063 C73.4984042,33.0947402 73.5854774,33.1377474 73.6749199,33.1377474 C73.7276376,33.1377474 73.7809477,33.1224298 73.8277422,33.0912054 C73.9545017,33.0069584 73.9894495,32.836697 73.9047456,32.7106212 L72.9854425,31.3391042 Z" id="Fill-34" fill="#554740"></path>
                <path d="M71.4536063,29.0537728 C71.3677178,28.9271078 71.1965331,28.8941159 71.0703659,28.9777738 C70.9436063,29.0620207 70.9092509,29.2322821 70.9939547,29.3583579 L71.9132578,30.7298749 C71.9665679,30.8088196 72.0536411,30.8518268 72.1430836,30.8518268 C72.1958014,30.8518268 72.2491115,30.8370983 72.2959059,30.8058739 C72.4226655,30.721627 72.4576132,30.5513656 72.3729094,30.4247006 L71.4536063,29.0537728 Z" id="Fill-36" fill="#554740"></path>
                <path d="M81.3769861,31.0615016 L79.9613066,31.9175214 C79.8304007,31.9964662 79.7895296,32.1655492 79.8689024,32.2951599 C79.9204355,32.379996 80.0116551,32.4271272 80.1046516,32.4271272 C80.1538153,32.4271272 80.2035714,32.4141661 80.2479965,32.3870657 L81.663676,31.5310459 C81.7945819,31.4521012 81.835453,31.2830181 81.7560801,31.1534074 C81.6767073,31.0232075 81.5067073,30.9825569 81.3769861,31.0615016" id="Fill-38" fill="#554740"></path>
                <path d="M79.0172439,32.4884566 L77.6015645,33.3444765 C77.4706585,33.4234212 77.4297875,33.5925042 77.5085679,33.7215258 C77.5606934,33.8069511 77.6519129,33.8534931 77.7449094,33.8534931 C77.7940732,33.8534931 77.8438293,33.8411212 77.8882544,33.8140207 L79.3039338,32.9580009 C79.4348397,32.8790562 79.4757108,32.7099731 79.3969303,32.5803624 C79.3163728,32.4501626 79.1463728,32.4101011 79.0172439,32.4884566" id="Fill-40" fill="#554740"></path>
                <path d="M76.6574425,33.9152349 L75.2731568,34.7524023 L74.517338,33.6247891 C74.4320418,33.4981241 74.2596725,33.4651323 74.1340976,33.5487901 C74.007338,33.633037 73.9729826,33.8032984 74.0576864,33.9293743 L74.9769895,35.3008912 C75.0302997,35.379836 75.1173728,35.4228431 75.2068153,35.4228431 C75.2595331,35.4228431 75.3128432,35.4081147 75.3596376,35.3768903 C75.4034704,35.3474333 75.4319024,35.3061935 75.4526341,35.262008 C75.4781045,35.2555275 75.5047596,35.2549384 75.528453,35.240799 L76.9441324,34.3847792 C77.0750383,34.3058345 77.1159094,34.1367514 77.0365366,34.0071407 C76.9565714,33.87753 76.7871638,33.8362902 76.6574425,33.9152349" id="Fill-42" fill="#554740"></path>
                <path d="M154.27115,37.4364634 C153.735679,37.6338251 153.19784,37.818815 152.652892,37.9831849 C151.567143,38.3201728 150.464808,38.595301 149.355958,38.8397939 C148.2477,39.0866434 147.132334,39.2987336 146.014007,39.4801886 C145.455436,39.5715053 144.89331,39.6457369 144.348955,39.7830064 L143.943206,39.8749122 L143.496585,39.9856704 L142.646585,40.1889236 C142.078537,40.3155886 141.517596,40.4787803 140.954878,40.6331348 C140.390976,40.7798306 139.835366,40.9636422 139.277387,41.1374383 C138.717631,41.3029866 138.170906,41.5168442 137.617666,41.7065472 C137.068571,41.9103895 136.523031,42.1271929 135.980453,42.351655 C135.441429,42.5855435 134.90122,42.8176645 134.372857,43.081599 C133.840348,43.3325725 133.318502,43.6130029 132.801394,43.9040379 C132.284878,44.1968403 131.77547,44.503782 131.279094,44.8448938 C130.778571,45.1901296 130.328397,45.5100324 129.81662,45.9819333 C128.67993,46.8196898 127.841185,47.9478921 127.255366,49.1238147 C126.646446,50.3409771 126.253728,51.6152861 125.969408,52.8913625 C125.410244,55.4494066 125.269268,58.0251249 125.279338,60.5772777 C125.30007,63.131787 125.493763,65.6692112 125.811254,68.1913178 C125.891812,68.8222863 125.979477,69.4514874 126.07899,70.0818668 C126.186794,70.7228507 126.28453,71.3214165 126.362718,71.9341217 C126.442683,72.5462377 126.546934,73.1524624 126.607352,73.7687024 L126.783275,75.6180116 C126.890488,76.8522591 126.952091,78.0953436 127.012509,79.3360716 C127.046864,80.5803344 127.101951,81.823419 127.09662,83.0706275 C127.11439,84.3166578 127.100767,85.5638663 127.079443,86.811664 C127.067003,88.0594616 127.011916,89.3078485 126.975784,90.5556461 C126.921289,91.8034438 126.867387,93.0512415 126.769652,94.2978608 L126.793937,98.0583389 L126.788606,101.827065 L126.757213,105.604628 C127.287944,103.137901 127.73338,100.652321 128.112474,98.1567252 C128.288397,96.9077493 128.496307,95.6593625 128.630174,94.403906 L128.79662,90.6263429 C128.833937,89.3655841 128.889024,88.1060037 128.901463,86.8434775 C128.92338,85.5815405 128.937003,84.3196035 128.919233,83.0553099 C128.924564,81.7927837 128.868885,80.5273119 128.833937,79.2630183 C128.772334,77.9981356 128.709547,76.7320746 128.599373,75.4666027 L128.418711,73.5683949 C128.356516,72.935659 128.248711,72.3035122 128.165784,71.6707763 C128.084634,71.0386295 127.980383,70.399413 127.879686,69.8020255 C127.783728,69.192266 127.69784,68.5789717 127.619652,67.9644991 C127.310453,65.5066087 127.121498,63.0304549 127.101951,60.5649057 C127.090697,58.1034805 127.233449,55.6338073 127.749373,53.2813729 C128.009408,52.1095742 128.368362,50.9672325 128.88547,49.9356491 C129.39784,48.9034765 130.09324,48.0020929 130.964564,47.3829072 L131.013136,47.348148 L131.083624,47.2833426 C131.401115,46.989362 131.872021,46.6352891 132.308571,46.3407193 C132.754599,46.0337775 133.225505,45.7498122 133.704704,45.478808 C134.184495,45.2089821 134.671394,44.9462258 135.173693,44.7099809 C135.67007,44.4619531 136.181847,44.242204 136.692439,44.0200984 C137.20777,43.807419 137.726655,43.600631 138.250871,43.4068041 C138.780418,43.2253491 139.30108,43.0209176 139.839512,42.8618499 C140.374983,42.6951234 140.907491,42.5183816 141.451847,42.3775772 C141.993833,42.229114 142.532857,42.0712246 143.083136,41.9486836 L143.904111,41.7525001 C144.030871,41.722454 144.201463,41.684749 144.293868,41.6688423 L144.729826,41.5893084 C145.30676,41.4915112 145.862369,41.3124128 146.416794,41.1344926 C147.525052,40.7786523 148.622056,40.3939442 149.705436,39.9750659 C150.248014,39.7676888 150.783484,39.5402809 151.314808,39.3063925 C151.844948,39.0666126 152.373902,38.8297785 152.889826,38.5623091 C153.411672,38.3101574 153.915749,38.0179442 154.412718,37.7221961 C154.657352,37.5660741 154.904355,37.4176109 155.143659,37.2567758 L155.846167,36.7542397 L155.066655,37.1177389 C154.803659,37.2302645 154.534739,37.3304182 154.27115,37.4364634" id="Fill-44" fill="#554740"></path>
                <path d="M103.482672,55.866812 C103.624833,55.866812 103.745669,55.7578212 103.756923,55.6140711 C103.769362,55.4626622 103.655634,55.3301058 103.503997,55.318323 C102.923509,55.2729593 102.377969,55.2187584 101.867376,55.1580771 C101.719293,55.1427594 101.578909,55.2476263 101.560547,55.398446 C101.542185,55.5486766 101.64999,55.6859461 101.801627,55.7036203 C102.31992,55.7648909 102.871383,55.8196808 103.460756,55.8662229 C103.467864,55.866812 103.474972,55.866812 103.482672,55.866812" id="Fill-46" fill="#554740"></path>
                <path d="M95.4869861,36.0326026 C95.3365331,36.0002 95.1908188,36.0950514 95.1582404,36.2435146 C95.0569512,36.7148263 94.946777,37.2597804 94.8336411,37.8689508 C94.8063937,38.0185922 94.9053136,38.1617531 95.0557666,38.1888536 C95.0729443,38.1923884 95.0895296,38.1935667 95.106115,38.1935667 C95.2364286,38.1935667 95.3525261,38.1010718 95.3774042,37.9685153 C95.4893554,37.3646473 95.5983449,36.8255845 95.6990418,36.358986 C95.7310279,36.2105228 95.635662,36.0644162 95.4869861,36.0326026" id="Fill-48" fill="#554740"></path>
                <path d="M99.5263519,33.5407778 L101.123286,33.9802759 C101.147571,33.9867565 101.172449,33.9902913 101.196735,33.9902913 C101.318164,33.9902913 101.429523,33.9101683 101.462693,33.7888056 C101.503564,33.6426989 101.417676,33.4912901 101.270185,33.4506394 L99.6732509,33.0111413 C99.5269443,32.9704907 99.3735296,33.056505 99.3338432,33.2026117 C99.2929721,33.3487183 99.3788606,33.5001272 99.5263519,33.5407778" id="Fill-50" fill="#554740"></path>
                <path d="M96.9033763,33.3807161 C97.3014251,33.3134543 97.8386725,33.3152243 98.4783937,33.3848463 C98.4878711,33.3860263 98.4985331,33.3866163 98.5086028,33.3866163 C98.6478014,33.3866163 98.7668606,33.2815934 98.7822613,33.1411694 C98.799439,32.9901251 98.6892648,32.8544213 98.5376272,32.8379008 C97.8451882,32.7623787 97.260554,32.7617887 96.8103798,32.8384908 C96.6599268,32.8638616 96.55923,33.0060556 96.5847003,33.1559198 C96.6107631,33.3063741 96.755885,33.4066769 96.9033763,33.3807161" id="Fill-52" fill="#554740"></path>
                <path d="M102.187652,34.2730194 L103.783993,34.7125175 C103.808871,34.7195872 103.833749,34.7225329 103.858035,34.7225329 C103.979463,34.7225329 104.090822,34.6429991 104.123993,34.5210472 C104.164864,34.3749405 104.078976,34.2235317 103.932077,34.182881 L102.335143,33.7433829 C102.187059,33.7033214 102.035422,33.7887466 101.995735,33.9348533 C101.954864,34.0809599 102.040753,34.2323688 102.187652,34.2730194" id="Fill-54" fill="#554740"></path>
                <path d="M107.510725,35.7378561 L109.107659,36.1773542 C109.132537,36.1844239 109.157415,36.1873696 109.1817,36.1873696 C109.303129,36.1873696 109.413895,36.1078358 109.447659,35.9858839 C109.48853,35.8397772 109.402049,35.6883684 109.255742,35.6477177 L107.658216,35.2082196 C107.508948,35.167569 107.359087,35.2541725 107.318808,35.39969 C107.277937,35.5457966 107.363826,35.6972055 107.510725,35.7378561" id="Fill-56" fill="#554740"></path>
                <path d="M104.849484,35.0055556 L106.446418,35.4450537 C106.470704,35.4515342 106.495582,35.4550691 106.519868,35.4550691 C106.641296,35.4550691 106.752655,35.3749461 106.785826,35.2535833 C106.826697,35.1074767 106.740808,34.9560678 106.593317,34.9154172 L104.996383,34.4759191 C104.850669,34.4352684 104.697254,34.521872 104.656976,34.6673894 C104.616105,34.8134961 104.701993,34.9649049 104.849484,35.0055556" id="Fill-58" fill="#554740"></path>
                <path d="M94.1387735,46.9266186 C93.9979164,46.9236729 93.8522021,47.0415008 93.8473449,47.1929097 C93.8309521,47.7349181 93.8212378,48.2875311 93.8206307,48.8489811 C93.8206307,49.0009791 93.9475235,49.1235202 94.1041664,49.1241093 C94.2602021,49.1241093 94.3870949,49.0009791 94.3870949,48.8495702 C94.3877021,48.2934225 94.3968092,47.7461118 94.4138092,47.2094056 C94.4180592,47.0579967 94.2954164,46.9313317 94.1387735,46.9266186" id="Fill-60" fill="#554740"></path>
                <path d="M94.2874495,44.1837025 C94.1334425,44.168974 94.0025366,44.2856236 93.9912822,44.4370325 C93.9515958,44.9731495 93.9172404,45.5245842 93.8894007,46.0889799 C93.8817003,46.2409779 93.9989826,46.3699995 94.1518049,46.3770692 C94.1559512,46.3776583 94.1606899,46.3776583 94.1648362,46.3776583 C94.3117352,46.3776583 94.4337561,46.2633652 94.4408641,46.1166695 C94.4687038,45.5563977 94.5024669,45.0096762 94.5427456,44.4776831 C94.554,44.3268634 94.4396794,44.1948961 94.2874495,44.1837025" id="Fill-62" fill="#554740"></path>
                <path d="M95.9422544,35.2928789 C96.0944843,34.6624996 96.1939965,34.3196203 96.1951812,34.3154964 L96.2224286,34.2153426 L96.1803728,34.1228477 C96.1797805,34.1222586 96.1400941,34.0338876 96.1400941,33.9231294 C96.1400941,33.8606806 96.1531254,33.8023558 96.1785958,33.7511006 C96.246122,33.6155985 96.1898502,33.4506394 96.0536132,33.3834775 C95.916784,33.3174939 95.7509303,33.3722839 95.6834042,33.5083751 C95.6194321,33.6362184 95.5880383,33.7752553 95.5880383,33.9231294 C95.5880383,34.0568641 95.6146934,34.1723354 95.6395714,34.2512801 C95.6004774,34.3926736 95.5163659,34.7043285 95.405007,35.1644465 C95.3694669,35.3123206 95.4612787,35.4607837 95.6093624,35.4961321 C95.6312787,35.5008452 95.6526028,35.5032018 95.6739268,35.5032018 C95.7989094,35.5032018 95.9120453,35.4189548 95.9422544,35.2928789" id="Fill-64" fill="#554740"></path>
                <path d="M98.1132195,54.4610071 C97.5499094,54.3072417 97.0322091,54.1352129 96.5749268,53.9502231 C96.4333589,53.8924874 96.2722439,53.9608276 96.2153798,54.1010428 C96.157331,54.2418472 96.2254495,54.4020931 96.3670174,54.4592397 C96.844439,54.6518883 97.3828711,54.8309868 97.9663206,54.9906436 C97.9911986,54.9971241 98.0154843,55.000659 98.03977,55.000659 C98.1611986,55.000659 98.2725575,54.920536 98.3063206,54.7985841 C98.3465993,54.6524775 98.2601185,54.5010686 98.1132195,54.4610071" id="Fill-66" fill="#554740"></path>
                <path d="M100.782042,55.0119115 C100.215178,54.925308 99.6731916,54.8269217 99.170892,54.7179309 C99.020439,54.6861173 98.8747247,54.7803797 98.8427387,54.9282537 C98.8101603,55.0767169 98.9043415,55.2228235 99.0536098,55.2552262 C99.5665714,55.3659844 100.120404,55.4667273 100.699115,55.5550982 C100.712739,55.5568657 100.726955,55.5580439 100.741171,55.5580439 C100.875038,55.5580439 100.992321,55.4608359 101.013645,55.3247447 C101.036746,55.1751032 100.933087,55.034888 100.782042,55.0119115" id="Fill-68" fill="#554740"></path>
                <path d="M94.564662,41.4498591 C94.4153937,41.4310066 94.2756028,41.5399974 94.2584251,41.690228 C94.1950453,42.2180971 94.1369965,42.7677643 94.0830941,43.3362841 C94.068878,43.4871038 94.1808293,43.6214276 94.3324669,43.635567 C94.3407596,43.6367453 94.3502369,43.6367453 94.3585296,43.6367453 C94.4995052,43.6367453 94.6197491,43.530111 94.6333728,43.3881283 C94.6860906,42.8237326 94.7441394,42.2781893 94.8063345,41.7550334 C94.8246969,41.6042136 94.7162997,41.4681224 94.564662,41.4498591" id="Fill-70" fill="#554740"></path>
                <path d="M94.9627108,38.7305085 C94.8134425,38.7063538 94.6700976,38.8070967 94.6458118,38.9573273 C94.561108,39.4698787 94.4769965,40.0166002 94.3988084,40.5951353 C94.3780767,40.7453659 94.4835122,40.8838137 94.6345575,40.9044336 C94.6469965,40.9056119 94.6600279,40.9067902 94.6724669,40.9067902 C94.8087038,40.9067902 94.9265784,40.8066364 94.9455331,40.6687778 C95.0243136,40.0961341 95.1066481,39.5541257 95.1901672,39.0462873 C95.2150453,38.8966459 95.1131638,38.7552524 94.9627108,38.7305085" id="Fill-72" fill="#554740"></path>
                <path d="M104.106756,48.1870239 L103.455188,46.6676328 C103.395362,46.5280067 103.234247,46.4632014 103.092679,46.5227045 C102.952296,46.5822076 102.887139,46.7436318 102.946965,46.8832579 L103.598533,48.4020598 C103.643551,48.5069267 103.745432,48.5693755 103.852645,48.5693755 C103.888777,48.5693755 103.925502,48.5623058 103.960449,48.5469881 C104.101425,48.4880742 104.166582,48.3266499 104.106756,48.1870239" id="Fill-74" fill="#554740"></path>
                <path d="M101.681146,43.5082539 C101.717279,43.5082539 101.754003,43.5011842 101.789544,43.4864557 C101.929927,43.4269526 101.995084,43.2655284 101.935258,43.1259023 L101.283098,41.6071004 C101.223272,41.4680635 101.059195,41.402669 100.920589,41.4621721 C100.780206,41.5222643 100.715049,41.6836886 100.774875,41.8227255 L101.427035,43.3415274 C101.472052,43.4458051 101.573934,43.5082539 101.681146,43.5082539" id="Fill-76" fill="#554740"></path>
                <path d="M98.6018955,36.7614272 L99.2534634,38.27964 C99.2984808,38.3845068 99.4003624,38.4469556 99.5075749,38.4469556 C99.5437073,38.4469556 99.5804321,38.4398859 99.6159721,38.4245683 C99.7563554,38.3650652 99.8215122,38.203641 99.7616864,38.0640149 L99.1101185,36.5458021 C99.0502927,36.406176 98.8874007,36.3413707 98.7476098,36.4008738 C98.6072265,36.4603769 98.5420697,36.6218011 98.6018955,36.7614272" id="Fill-78" fill="#554740"></path>
                <path d="M98.4211742,35.9151282 C98.4573066,35.9151282 98.4940314,35.9080585 98.5295714,35.89333 C98.6699547,35.8338269 98.7351115,35.6724027 98.6752857,35.5327766 L98.0207561,34.0092616 C97.9609303,33.8696355 97.7980383,33.804241 97.6582474,33.8643333 C97.5184564,33.9238364 97.4527073,34.0852606 97.5131254,34.2248867 L98.1670627,35.7484017 C98.2120801,35.8526794 98.3139617,35.9151282 98.4211742,35.9151282" id="Fill-80" fill="#554740"></path>
                <path d="M99.8343659,38.9319353 C99.6939826,38.9914384 99.6288258,39.1528627 99.6886516,39.2924888 L100.34022,40.8107015 C100.385237,40.9149792 100.487118,40.977428 100.594331,40.977428 C100.630463,40.977428 100.66778,40.9703583 100.702728,40.9556299 C100.843111,40.8961268 100.908268,40.7347025 100.848443,40.5950764 L100.196875,39.0768637 C100.137049,38.9372376 99.9759338,38.8724322 99.8343659,38.9319353" id="Fill-82" fill="#554740"></path>
                <path d="M105.193571,50.7167304 L104.542003,49.1985176 C104.482178,49.0594807 104.321063,48.9946753 104.179495,49.0535893 C104.039111,49.1130924 103.973955,49.2745166 104.03378,49.4141427 L104.685348,50.9323555 C104.730366,51.0366332 104.832247,51.099082 104.93946,51.099082 C104.975592,51.099082 105.012317,51.0920123 105.047857,51.0772838 C105.18824,51.0177807 105.253397,50.8563565 105.193571,50.7167304" id="Fill-84" fill="#554740"></path>
                <path d="M105.627753,51.7287544 C105.567927,51.5891283 105.404443,51.5249121 105.265244,51.583826 C105.124861,51.6433291 105.059704,51.8047534 105.11953,51.9443795 L105.771098,53.4625922 C105.816115,53.5674591 105.917997,53.6299079 106.025209,53.6299079 C106.061341,53.6299079 106.098066,53.6228382 106.133606,53.6075206 C106.27399,53.5480175 106.339146,53.3871823 106.279321,53.2475563 L105.627753,51.7287544 Z" id="Fill-86" fill="#554740"></path>
                <path d="M101.919561,44.766008 C101.946808,44.7371402 101.973463,44.7088615 102.000711,44.6799937 L102.512488,45.8718231 C102.556913,45.9761008 102.658794,46.0385496 102.766599,46.0385496 C102.802732,46.0385496 102.839456,46.0314799 102.874997,46.0167514 C103.014787,45.9572483 103.080537,45.7952349 103.020711,45.656198 L102.413568,44.2416738 C102.627401,44.0142659 102.841233,43.7862689 103.055066,43.5606284 C103.159317,43.4504593 103.153986,43.2766631 103.04322,43.1723854 C102.931861,43.0686969 102.757122,43.0739991 102.652871,43.1841682 C102.274369,43.584194 101.894091,43.9877546 101.516181,44.3913152 C101.41193,44.5020735 101.417854,44.6758697 101.529805,44.7795582 C101.582523,44.829046 101.650641,44.8532007 101.717575,44.8532007 C101.791617,44.8532007 101.865659,44.8243329 101.919561,44.766008" id="Fill-88" fill="#554740"></path>
                <path d="M100.761547,45.1967869 L99.6319652,46.4098253 C99.5283066,46.5211727 99.5354146,46.6949689 99.6479582,46.7980683 C99.700676,46.8469669 99.7682021,46.8705325 99.8351359,46.8705325 C99.9091777,46.8705325 99.9832195,46.8410755 100.037714,46.7827507 L101.166111,45.5708906 C101.270362,45.4595432 101.263847,45.285747 101.151303,45.1826476 C101.041129,45.0795481 100.865798,45.0860287 100.761547,45.1967869" id="Fill-90" fill="#554740"></path>
                <path d="M97.4142056,49.6209896 C97.5172718,49.5090531 97.5089791,49.3352569 97.3964355,49.2327466 C97.2844843,49.1314146 97.1097456,49.1378952 97.0066794,49.2504208 L95.8853902,50.4717072 C95.7829164,50.5842329 95.7912091,50.7580291 95.9037526,50.8599502 C95.9570627,50.9076705 96.0239965,50.9312361 96.090338,50.9312361 C96.1649721,50.9312361 96.2401986,50.90119 96.2946934,50.8416869 L97.4142056,49.6209896 Z" id="Fill-92" fill="#554740"></path>
                <path d="M107.467603,38.8871607 C107.538091,38.8871607 107.608578,38.8606494 107.662481,38.8070377 C108.101401,38.373431 108.501226,37.9869554 108.850111,37.6617504 C108.960878,37.5580618 108.966801,37.3842656 108.862551,37.2735074 C108.758892,37.16216 108.583561,37.1574469 108.472202,37.2611354 C108.120355,37.5892862 107.716383,37.9792966 107.272725,38.4176165 C107.16492,38.5242507 107.164328,38.6986361 107.27154,38.8058595 C107.326035,38.8600603 107.396523,38.8871607 107.467603,38.8871607" id="Fill-94" fill="#554740"></path>
                <path d="M106.488592,39.2018202 C106.118976,39.5753347 105.730404,39.9724148 105.327617,40.3877582 C105.220997,40.496749 105.224551,40.6705452 105.33354,40.7760012 C105.387443,40.8278455 105.456746,40.8531785 105.526049,40.8531785 C105.598314,40.8531785 105.670578,40.8248998 105.724481,40.7689315 C106.126084,40.3553555 106.514063,39.9594537 106.882495,39.5871175 C106.989115,39.4787158 106.98793,39.3049196 106.878941,39.1988745 C106.770544,39.0928294 106.595805,39.0934185 106.488592,39.2018202" id="Fill-96" fill="#554740"></path>
                <path d="M97.9595087,48.8972906 C98.0341429,48.8972906 98.1081847,48.8672444 98.1626794,48.8083305 L99.2869303,47.5917572 C99.3899965,47.4798207 99.3828885,47.3060245 99.2709373,47.2035142 C99.1578014,47.1010039 98.9836551,47.1080736 98.8799965,47.2200101 L97.756338,48.4371725 C97.6532718,48.5485199 97.6603798,48.7223161 97.7729233,48.8254155 C97.8256411,48.8731358 97.8925749,48.8972906 97.9595087,48.8972906" id="Fill-98" fill="#554740"></path>
                <path d="M103.423913,42.7706511 C103.477223,42.820728 103.545934,42.8454719 103.614052,42.8454719 C103.686909,42.8454719 103.759767,42.8171932 103.814261,42.7600466 C104.201648,42.352362 104.584889,41.9517471 104.958652,41.562915 C105.063495,41.453335 105.059941,41.2795388 104.949767,41.174672 C104.839592,41.0698051 104.663669,41.0739291 104.559418,41.1835091 C104.18447,41.5735195 103.80123,41.9741344 103.413251,42.3824081 C103.308408,42.4925772 103.313146,42.6663734 103.423913,42.7706511" id="Fill-100" fill="#554740"></path>
                <path d="M107.078617,7.19628128 C106.190707,7.37479058 105.246526,7.6399034 104.243111,7.90207052 C103.741997,8.03521607 103.227258,8.17189645 102.700672,8.31211168 C102.180603,8.47353593 101.649871,8.63908416 101.109662,8.80698894 C100.570638,8.97783942 100.022136,9.15104647 99.4665261,9.32602093 C98.9174321,9.51866958 98.36123,9.71308564 97.8008815,9.90926913 C96.6748537,10.2892642 95.5494181,10.7228709 94.4239826,11.1582451 C93.2961777,11.5877278 92.1968049,12.0849617 91.1015784,12.5427231 C90.0128676,13.0152131 88.9531812,13.5071447 87.9248885,13.9766889 C86.9066655,14.4668531 85.9198362,14.935219 85.0040871,15.4194918 C84.0818223,15.8908035 83.2158293,16.3467975 82.4232857,16.7809934 C80.8322753,17.6370132 79.5445401,18.4193906 78.643007,18.9625773 C77.7432509,19.5110663 77.2450976,19.8492324 77.2450976,19.8492324 C77.2450976,19.8492324 77.7728676,19.5599649 78.6963171,19.0544831 C79.6197666,18.5501796 80.9572578,17.8632428 82.5678153,17.053765 C83.3710209,16.6449022 84.2488606,16.2177759 85.1823798,15.7765104 C86.1093833,15.3216946 87.1116132,14.8945684 88.1268746,14.4079391 C89.1557596,13.9507668 90.2160383,13.4712071 91.3059338,13.0122674 C92.4011603,12.5680561 93.5005331,12.0843725 94.6277456,11.66844 C95.7437038,11.225407 96.8590697,10.7811957 97.9756202,10.3917745 C98.53123,10.1908779 99.0826934,9.99115953 99.6270488,9.79379777 C100.17792,9.61411019 100.721683,9.43560089 101.256561,9.26062643 C101.791439,9.08506283 102.317432,8.91244493 102.832171,8.74336186 C103.351056,8.58782901 103.859279,8.43583099 104.353286,8.28795696 C105.343669,7.99515457 106.275411,7.70176305 107.153251,7.49615333 C108.026352,7.26992373 108.826596,7.06195745 109.53562,6.8781459 C110.252345,6.72261304 110.876666,6.58711093 111.390812,6.47576355 C112.420289,6.24658825 113.007885,6.11579926 113.007885,6.11579926 C113.007885,6.11579926 112.412589,6.20829417 111.371265,6.37030756 C110.850603,6.4557328 110.21799,6.55942137 109.49238,6.67783843 C108.773878,6.83219301 107.962972,7.00657833 107.078617,7.19628128" id="Fill-102" fill="#554740"></path>
            </g>
        </g>
    </g>
</svg>