<?xml version="1.0" encoding="UTF-8" standalone="no"?>
<svg width="200px" height="200px" viewBox="0 0 200 200" version="1.1" xmlns="http://www.w3.org/2000/svg" xmlns:xlink="http://www.w3.org/1999/xlink">
    <!-- Generator: Sketch 40.1 (33804) - http://www.bohemiancoding.com/sketch -->
    <title>powerful-magnet</title>
    <desc>Created with Sketch.</desc>
    <defs>
        <polygon id="path-1" points="133.88476 146.301729 133.88476 0.226876303 0 0.226876303 2.90566182e-20 146.301729 133.88476 146.301729"></polygon>
    </defs>
    <g id="5.-PDP-Ingredients" stroke="none" stroke-width="1" fill="none" fill-rule="evenodd">
        <g id="powerful-magnet">
            <g id="Page-1" transform="translate(34.000000, 26.000000)">
                <g id="Group-3" transform="translate(0.000000, 0.315362)">
                    <mask id="mask-2" fill="white">
                        <use xlink:href="#path-1"></use>
                    </mask>
                    <g id="Clip-2"></g>
                    <path d="M72.9097752,101.957084 L70.5176072,100.1722 L70.0228792,89.9148123 L82.0882392,99.3241913 L82.3305112,108.986618 L73.9297832,102.718395 L77.5413512,98.8451881 L72.9097752,101.957084 Z M93.0440792,69.2553597 C104.836615,55.8362251 109.734583,44.4718193 107.602911,35.4785879 C106.497143,30.8126413 103.724415,27.8335013 101.450167,26.0941344 L125.706311,22.4311685 C126.548367,23.8795572 127.246239,25.2715926 127.819223,26.5509214 L108.958991,30.2404383 L128.458671,28.0453681 C128.624295,28.4544716 128.773839,28.8435262 128.912127,29.2157832 L128.896583,29.2212018 C134.711111,47.1534788 121.906071,64.6154223 110.139799,76.1066231 C108.989543,77.2298965 107.826423,78.3179491 106.661695,79.3718645 L91.5127272,70.5661163 C92.3006472,69.9050485 92.8012712,69.480773 92.9047192,69.39245 L93.0440792,69.2553597 Z M104.652231,38.7254062 L104.652231,34.9053012 C104.781407,35.2916466 104.897719,35.6920803 104.996879,36.1098535 C105.323839,37.4878005 105.444439,38.9535287 105.372079,40.4972846 C105.163039,39.8676446 104.922375,39.2743092 104.652231,38.7254062 L104.652231,38.7254062 Z M101.734783,34.7270297 L101.734783,29.9982274 C101.959903,30.2426058 102.182343,30.5016143 102.400495,30.7757949 L102.400495,35.4184416 C102.176983,35.1702702 101.954543,34.9416058 101.734783,34.7270297 L101.734783,34.7270297 Z M96.6803032,31.7170037 L96.6803032,26.4062451 C96.7708872,26.4523031 96.8652232,26.4924006 96.9547352,26.5400842 L97.0876632,26.6018561 C97.0989192,26.606191 97.3154632,26.6950558 97.6686872,26.8771204 L97.6686872,32.0545818 C97.3390472,31.9326635 97.0094072,31.8221243 96.6803032,31.7170037 L96.6803032,31.7170037 Z M74.6957272,34.3027542 C69.1926152,37.6844953 61.6269752,44.3509848 54.8433592,57.3019533 L52.7325912,48.2285268 C56.9878952,41.0624434 62.6335832,33.8985275 69.7934712,29.3745479 C74.8876152,26.1553644 81.3217592,24.2333911 87.0038952,24.2333911 C90.2461592,24.2333911 93.2054152,24.8245591 95.8227032,25.9900975 L95.8227032,31.4661231 C85.1798872,28.5330411 75.1942072,34.023155 74.6957272,34.3027542 L74.6957272,34.3027542 Z M46.0599272,80.4225289 L42.4890952,71.834066 C42.6450712,71.2710746 45.4076152,61.4888967 51.1680072,50.9719582 L53.3398792,60.3065607 C52.7218712,61.5983522 52.1119032,62.9394529 51.5137272,64.3461185 C48.6970472,70.9681755 46.9705912,76.8679348 46.0599272,80.4225289 L46.0599272,80.4225289 Z M32.7489032,77.4190052 L29.5564872,76.1895275 L26.6615512,67.3295933 L40.5219752,72.6961634 L44.3415112,81.8833803 L34.1837752,77.9717013 L36.0908632,74.4615396 L32.7489032,77.4190052 Z M34.4705352,42.1103984 L50.0349032,47.4834709 C48.8835752,49.4547534 47.7381432,51.5837168 46.6098632,53.8931193 C43.1682072,60.9394518 41.1340872,67.0402407 40.3156152,69.714856 L26.4353592,64.3406999 C27.9565272,55.8454367 31.4357032,47.8736092 34.4705352,42.1103984 L34.4705352,42.1103984 Z M98.8478872,27.5647393 C99.1930712,27.788527 99.5709512,28.0556634 99.9659832,28.3661486 L99.9659832,33.243962 C99.4058632,32.8451539 98.9942152,32.6132383 98.8478872,32.5352106 L98.8478872,27.5647393 Z M39.8514392,33.1312553 L39.8873512,33.078695 C56.0713352,8.1656504 75.2215432,2.93617058 88.4366232,2.93617058 C100.582383,2.93617058 109.345983,7.27429259 109.479983,7.34094122 C111.756911,8.37860093 113.788351,9.61403913 115.612895,10.9670607 L78.8347192,17.1886841 L117.251983,12.3374217 C117.262167,12.3357962 117.275031,12.3341706 117.285215,12.332545 C117.299151,12.3298357 117.312015,12.3244171 117.325951,12.321166 C120.522119,15.0207068 122.978071,18.0708303 124.836919,20.9947007 L101.352615,26.018816 C99.7896392,24.840273 98.4801912,24.2523561 98.1419752,24.1103891 C94.8830952,22.3943221 91.1359192,21.5240968 87.0038952,21.5240968 C80.7482392,21.5240968 73.9576552,23.5484815 68.3730712,27.0765245 C63.7800872,29.9787205 57.4451032,35.4487857 51.1744392,45.5869649 L35.5135912,40.1802972 C37.9068312,35.8671007 39.8058792,33.1946528 39.8514392,33.1312553 L39.8514392,33.1312553 Z M125.430807,70.175436 C124.860503,71.2369375 124.296631,72.1770626 123.758487,73.0028555 L124.078479,63.8687408 C124.564631,63.1529453 125.031487,62.4382334 125.477975,61.7246053 L125.430807,70.175436 Z M127.070967,59.0359017 L127.117063,66.6641906 C126.918207,67.1296474 126.717207,67.5793903 126.515135,68.0145029 L126.560159,59.9283432 C126.732751,59.6303208 126.904807,59.3333822 127.070967,59.0359017 L127.070967,59.0359017 Z M129.335567,60.1608007 C129.133495,60.9204868 128.922311,61.656873 128.699335,62.3650825 L128.660743,55.978734 C128.950183,55.3783544 129.227831,54.7790585 129.488327,54.1813882 L129.335567,60.1608007 Z M120.210703,77.4861957 L120.095463,77.5896908 L120.006487,77.7175695 C117.140495,81.8216084 111.680263,87.1269485 105.816423,92.2756913 L107.644719,82.1098773 C109.090311,80.8229626 110.537511,79.4840293 111.965951,78.0903683 C116.420111,73.7441185 120.178007,69.4022034 123.231063,65.0944255 L122.910535,74.2496728 C121.387223,76.3840548 120.251439,77.4493493 120.210703,77.4861957 L120.210703,77.4861957 Z M84.7612712,99.0164155 C87.5479352,97.3350275 96.0279912,92.0128898 105.061735,84.353173 L103.235047,94.511401 C95.9331192,100.753073 88.5084472,106.451261 85.0137272,109.085237 L84.7612712,99.0164155 Z M83.2245592,96.7882919 L70.4983112,86.8641469 C76.5567192,82.8316333 85.1552312,75.8476145 89.7466072,72.0388886 L104.960967,80.8831089 C95.2872392,89.3420675 85.8857992,95.1914338 83.2245592,96.7882919 L83.2245592,96.7882919 Z M61.6125032,113.556114 L59.7992152,115.500846 L62.3414632,116.234523 L65.9653592,117.28031 L56.3495192,123.385976 L53.6566552,125.09554 L56.6148392,126.274625 L58.6178712,127.072783 L44.4605032,136.273547 L51.6316472,129.192535 L53.6914952,127.158397 L50.8983992,126.452897 L49.0368712,125.982021 L57.9205352,119.32962 L60.7806312,117.187652 L57.3003832,116.433927 L55.0068392,115.937042 L66.7500632,108.047035 L61.6125032,113.556114 Z M27.7131832,86.5032689 L26.4852072,88.7633622 L29.0317432,88.9085804 L32.3340392,89.0976891 L22.5745512,99.9175268 L20.8325512,101.849254 L23.3163752,102.574803 L26.5800792,103.52739 L10.7637912,115.026719 L18.9286792,105.712707 L20.5977832,103.808615 L18.1873912,103.077648 L16.3247912,102.512489 L24.9538552,92.8934104 L26.9059672,90.7167634 L24.0447992,90.2009138 L21.3036952,89.7067385 L30.2961672,81.7495412 L27.7131832,86.5032689 Z M84.5270392,112.817561 C85.7169592,111.944626 113.672575,91.3545313 122.111359,79.4000412 C123.690951,77.9110131 137.869759,63.5550045 132.792767,32.763875 C132.631431,31.9646332 128.642519,13.1046939 110.630239,4.89390663 C110.252895,4.70317231 101.247559,0.226876303 88.4366232,0.226876303 C63.3143032,0.226876303 46.9625512,17.261835 37.6645592,31.5652832 C36.9833032,32.5173293 26.3619272,47.5869659 23.6063512,64.9947235 L23.5532872,65.3312179 C23.4600232,65.5452521 23.4171432,65.7831281 23.4439432,66.0242553 L23.4348312,66.0800668 L23.4562712,66.0881947 C23.4675272,66.1591782 23.4798552,66.2301617 23.5029032,66.3006034 L27.2114872,77.6509208 C27.3379832,78.037808 27.6301032,78.3472094 28.0069112,78.4918858 L30.4660792,79.439055 L17.7253592,90.7129704 L23.7628632,91.801023 L13.4218152,103.32907 L17.7253592,104.634408 L-0.0001608,124.854413 L30.2050472,102.894499 L23.7628632,101.012624 L35.7998152,87.6671818 L29.1228632,87.2857131 L32.8807592,80.3688848 L46.0813672,85.4526046 C46.2357352,85.5116672 46.3970712,85.5414695 46.5584072,85.5414695 C46.7829912,85.5414695 47.0070392,85.4840324 47.2080392,85.3713258 C47.5532232,85.178424 47.7965672,84.840846 47.8732152,84.449082 C47.9407512,84.1028342 54.8894552,49.644404 76.0426952,36.64521 C76.1531112,36.5828963 87.1839912,30.5070329 97.6381352,34.9519011 C98.2668632,35.2775583 105.952031,39.5262736 102.604711,50.4599016 C102.576303,50.5520176 102.559151,50.6452173 102.550575,50.7378751 C100.181455,55.8140089 96.3506632,61.4038249 91.1059032,67.3821536 C89.9433192,68.3667112 75.6417672,80.4436614 67.8081272,85.3930001 L67.1418792,85.8140245 L67.9029992,101.588078 L70.5352952,103.552316 L50.9385992,116.718402 L56.9637752,118.023199 L45.3443672,126.724368 L50.5081912,128.029706 L32.0033272,146.301729 L62.1275992,126.724368 L57.2044392,124.762297 L69.8738712,116.718402 L62.7825912,114.67126 L72.0779032,104.703766 L83.7332232,113.400601 L84.5152472,112.82623 C84.5163192,112.825147 84.5173912,112.824605 84.5184632,112.824063 L84.5270392,112.817561 Z" id="Fill-1" fill="#554740" mask="url(#mask-2)"></path>
                </g>
                <path d="M36.055112,17.6480178 C35.339016,18.3367204 34.605232,19.0568509 33.914864,19.8436299 C33.210024,20.6168625 32.490176,21.3987648 31.831432,22.2386461 C31.167328,23.0725668 30.491432,23.8961923 29.901832,24.7712943 C29.601136,25.202614 29.302584,25.6306825 29.007784,26.0533324 C28.735496,26.4933218 28.46696,26.9284345 28.202712,27.3559611 C27.661352,28.1996353 27.23148,29.0817815 26.799464,29.894028 C26.407112,30.7328255 26.035664,31.5223138 25.763376,32.2863348 C25.625624,32.6672616 25.476616,33.0221792 25.367272,33.3749293 C25.263824,33.7287631 25.165736,34.0647156 25.073544,34.3806193 C24.904704,35.0167616 24.78464,35.5759599 24.72032,36.0446679 C24.636704,36.5074153 24.62652,36.8812979 24.609368,37.1316367 C24.600792,37.3846848 24.610976,37.5163565 24.610976,37.5163565 C24.610976,37.5163565 24.759448,37.0015906 25.12768,36.1627931 C25.2992,35.7401432 25.559696,35.2459679 25.834664,34.6786417 C26.13,34.1172759 26.472504,33.4941382 26.866464,32.8254844 C27.052992,32.4868226 27.269,32.1449097 27.500016,31.7954107 C27.731032,31.4464536 27.942216,31.072571 28.192528,30.7062744 C28.7028,29.9774742 29.19592,29.1885277 29.782304,28.415837 C30.06424,28.0235312 30.350464,27.6247231 30.64044,27.2210382 C30.94596,26.8276487 31.254696,26.4293824 31.566112,26.0273232 C32.17072,25.2123675 32.83268,24.4174605 33.485528,23.6165931 C34.11372,22.795677 34.813736,22.0311141 35.46444,21.2459606 C35.798904,20.860699 36.112464,20.4629746 36.443712,20.0874664 C36.776032,19.7125001 37.1046,19.3424105 37.427808,18.9782813 C38.075832,18.2511067 38.670256,17.5152624 39.285048,16.8639481 C39.888048,16.2017965 40.446024,15.5602357 40.960048,14.9652746 C41.471928,14.3681462 41.964512,13.8430849 42.38688,13.3608306 C42.817288,12.8877878 43.178552,12.4575518 43.479248,12.1064273 C44.079032,11.4014689 44.407064,10.9782772 44.407064,10.9782772 C44.407064,10.9782772 43.95736,11.2578763 43.196776,11.7829376 C42.817824,12.0468228 42.352576,12.3638103 41.835872,12.7469045 C41.316488,13.1278313 40.715632,13.5418114 40.11692,14.0587448 C39.503736,14.5605061 38.840704,15.1066998 38.15248,15.701119 C37.451928,16.2825335 36.771744,16.9598571 36.055112,17.6480178" id="Fill-4" fill="#554740"></path>
                <path d="M23.6370104,26.7962751 C23.7415304,26.5399758 23.8766024,26.2777162 24.0325784,26.0062449 C24.1751544,25.7315224 24.3257704,25.4427117 24.4828184,25.1408963 C24.8022744,24.5426841 25.1018984,23.8783651 25.5167624,23.2248834 C25.7097224,22.8927239 25.9080424,22.5513528 26.1111864,22.2023957 C26.3164744,21.8561479 26.4987144,21.4882257 26.7447384,21.1490221 C27.2190984,20.4608613 27.6468264,19.713638 28.1651384,19.0113889 C28.4218824,18.6586388 28.6807704,18.3037212 28.9407304,17.9471781 L29.3271864,17.4091123 L29.7490184,16.8975975 L30.5776744,15.8626471 C30.8531784,15.5180249 31.1576264,15.2015793 31.4433144,14.8721291 C31.7397224,14.5529742 32.0071864,14.2094357 32.3078824,13.9059948 C32.6053624,13.5982189 32.8990904,13.2936942 33.1879944,12.9945882 C33.7620504,12.3898737 34.3623704,11.851266 34.9101624,11.3126583 C35.4879704,10.8114388 36.0068184,10.2928799 36.5299544,9.87022999 C37.5510344,8.98700006 38.4493704,8.29829745 39.0834584,7.80954076 C39.4061304,7.57166473 39.6596584,7.38418156 39.8322504,7.25684473 C40.0091304,7.13059162 40.1034664,7.06285926 40.1034664,7.06285926 C40.1034664,7.06285926 39.6484024,7.15551712 38.8846024,7.43078142 C38.5056504,7.57220658 38.0404024,7.74289212 37.5295944,7.98401932 C37.2733864,8.10485384 37.0005624,8.23381625 36.7132664,8.36928096 C36.4254344,8.50691311 36.1424264,8.68247538 35.8352984,8.84936791 C35.2156824,9.17719252 34.5869544,9.59713313 33.9132024,10.0376644 C33.5803464,10.2625358 33.2592824,10.5210025 32.9189224,10.7713413 C32.5790984,11.0233056 32.2355224,11.2855653 31.9090984,11.5797947 C31.2428504,12.1530814 30.5573064,12.753461 29.9296504,13.4351194 C29.6150184,13.7737812 29.2682264,14.0896849 28.9734264,14.4548978 C28.6748744,14.8168595 28.3752504,15.1804468 28.0756264,15.5434922 L27.6334264,16.0945627 L27.2292824,16.6727261 C26.9655704,17.0612389 26.7034664,17.4481261 26.4429704,17.832304 C26.1706824,18.2083541 25.9568184,18.6179994 25.7370584,19.0162656 C25.5194424,19.4150737 25.3045064,19.809547 25.0927864,20.1969761 C24.8746344,20.5800703 24.7063304,20.9815877 24.5417784,21.3738935 C24.3777624,21.7651156 24.2169624,22.147668 24.0609864,22.5204668 C23.7270584,23.2546856 23.5448184,24.0040764 23.3411384,24.6754395 C23.1508584,25.3522212 22.9412824,25.9569357 22.8608824,26.5269712 C22.7547544,27.0877951 22.6845384,27.5803448 22.6223624,27.982946 C22.5017624,28.789232 22.4588824,29.2503538 22.4588824,29.2503538 C22.4588824,29.2503538 22.6834664,28.83529 23.0313304,28.1070317 C23.2033864,27.7423606 23.4172504,27.3039968 23.6370104,26.7962751" id="Fill-6" fill="#554740"></path>
                <path d="M127.248973,86.6903728 C127.031357,86.9417953 126.799269,87.2094736 126.555389,87.4917821 C126.302933,87.7654208 126.037613,88.0536897 125.760501,88.3544214 C125.491429,88.6578623 125.196093,88.9640126 124.883069,89.273414 C124.570045,89.5828154 124.271493,89.9203935 123.932741,90.2411739 C123.250949,90.8816511 122.571837,91.5839001 121.806965,92.2568888 C121.434445,92.6015111 121.055493,92.9520937 120.672253,93.3064694 C120.273469,93.6462149 119.871469,93.991379 119.473757,94.3462966 C118.683157,95.0615503 117.840565,95.7486273 117.007085,96.4454578 C116.196653,97.1677557 115.321901,97.8196119 114.498605,98.506147 C114.078381,98.8393902 113.677453,99.1905148 113.263125,99.5156301 C112.848261,99.8407454 112.438221,100.161526 112.035149,100.47743 C111.227933,101.108695 110.474853,101.760009 109.718557,102.324085 C108.974053,102.903332 108.275645,103.46253 107.634589,103.988133 C106.999965,104.522948 106.396429,104.984612 105.873293,105.413222 C105.343189,105.830453 104.894021,106.219508 104.520965,106.53487 C103.776461,107.168845 103.364813,107.560067 103.364813,107.560067 C103.364813,107.560067 103.893845,107.373667 104.794861,106.997075 C105.245101,106.806883 105.795573,106.582011 106.411437,106.295368 C107.029981,106.012518 107.740181,105.712328 108.472357,105.310269 C109.211501,104.919588 110.007997,104.486643 110.844693,104.016852 C111.688893,103.558981 112.533093,103.000324 113.415349,102.434082 C114.296533,101.866214 115.202909,101.270711 116.076589,100.595013 C116.962597,99.9366544 117.863613,99.2696262 118.715317,98.5321562 C119.568629,97.7990212 120.433733,97.0810582 121.217901,96.2899443 C121.620437,95.9068501 122.012253,95.5199629 122.397637,95.1357849 C122.771229,94.7369768 123.137317,94.3397943 123.490005,93.9436955 C124.216285,93.1731722 124.838581,92.3430444 125.443189,91.5817327 C126.015101,90.7868258 126.555925,90.0406861 126.990621,89.3005069 C127.206629,88.9293336 127.424781,88.5852532 127.608629,88.240631 C127.783901,87.8916739 127.950061,87.5605981 128.106573,87.2490293 C128.406197,86.620473 128.636677,86.0596491 128.793725,85.5828133 C128.969533,85.1168147 129.049933,84.7272182 129.115325,84.4698352 C129.172141,84.2070337 129.185541,84.0672341 129.185541,84.0672341 C129.185541,84.0672341 128.903605,84.5603256 128.324725,85.3330164 C128.048149,85.725864 127.662229,86.1723557 127.248973,86.6903728" id="Fill-8" fill="#554740"></path>
                <path d="M71.673384,133.890343 C72.374472,133.480156 73.073952,133.066176 73.732696,132.611014 C74.40484,132.178069 75.037856,131.707736 75.645144,131.247156 C76.255648,130.793078 76.81416,130.308114 77.348016,129.859455 C77.868472,129.390747 78.356768,128.946965 78.78396,128.508059 C79.22348,128.086493 79.600824,127.669803 79.930464,127.298088 C80.266536,126.933959 80.533464,126.587711 80.758048,126.310821 C81.199712,125.74783 81.416792,125.397247 81.416792,125.397247 C81.416792,125.397247 80.060176,126.252843 78.024448,127.535964 C77.526504,127.860538 76.963704,128.179151 76.396616,128.54924 C75.819344,128.903074 75.210448,129.275873 74.580112,129.661677 C73.947632,130.040978 73.302288,130.441953 72.633896,130.829382 C71.973008,131.228732 71.295504,131.62158 70.613176,132.007384 C69.94532,132.418654 69.24584,132.770321 68.579056,133.159917 C67.912272,133.549514 67.231016,133.883299 66.58996,134.24797 C65.951048,134.617518 65.30624,134.916624 64.711816,135.24499 C64.117928,135.57444 63.546016,135.864877 63.016448,136.135806 C62.487416,136.41378 62.002336,136.668453 61.572464,136.894409 C61.135088,137.102482 60.758816,137.306221 60.446328,137.469863 C59.822424,137.799855 59.4692,138.013889 59.4692,138.013889 C59.4692,138.013889 59.873344,137.981919 60.574968,137.880592 C60.925512,137.828573 61.354312,137.770594 61.839928,137.678478 C62.327152,137.592323 62.86476,137.454149 63.452752,137.299719 C64.042352,137.150708 64.682872,136.986525 65.337328,136.74919 C65.991784,136.515107 66.69984,136.299989 67.39396,135.990046 C67.743432,135.839409 68.0988,135.686605 68.458456,135.532175 C68.820256,135.380997 69.180448,135.214646 69.533672,135.028247 C70.247088,134.668452 70.974976,134.305949 71.673384,133.890343" id="Fill-10" fill="#554740"></path>
                <path d="M80.2057,131.363439 C78.985228,132.07815 77.427076,133.083299 75.863028,134.047265 C75.472284,134.287309 75.08154,134.526811 74.696156,134.763061 C74.304876,134.984139 73.925924,135.214429 73.55662,135.434424 C73.182492,135.644665 72.820692,135.847862 72.477652,136.040764 C72.128716,136.21741 71.80122,136.4011 71.496772,136.571244 C71.183748,136.710502 70.899132,136.856262 70.643996,136.98685 C70.389396,137.12394 70.157844,137.204677 69.969172,137.294084 C69.589148,137.462602 69.367244,137.579101 69.367244,137.579101 C69.367244,137.579101 69.605764,137.603485 70.031884,137.611613 C70.242532,137.607278 70.51214,137.63708 70.801044,137.588313 C71.094772,137.555802 71.429236,137.51733 71.792108,137.455558 C72.14694,137.375904 72.532324,137.284872 72.938076,137.172707 C73.337396,137.049164 73.748508,136.894192 74.176236,136.732718 C74.59378,136.553905 75.020972,136.358293 75.448164,136.144801 C75.865708,135.919388 76.291292,135.68693 76.701332,135.433882 C77.104404,135.169455 77.517124,134.918574 77.893932,134.631389 C78.279316,134.356125 78.64862,134.071649 78.992196,133.779587 C79.687924,133.206842 80.29146,132.617842 80.782436,132.08682 C81.27502,131.557966 81.651828,131.084381 81.901604,130.739217 C82.15406,130.396762 82.27734,130.182728 82.27734,130.182728 C82.27734,130.182728 82.058652,130.294351 81.692028,130.497548 C81.327012,130.703996 80.804948,130.992807 80.2057,131.363439" id="Fill-12" fill="#554740"></path>
            </g>
        </g>
    </g>
</svg>