<?xml version="1.0" encoding="UTF-8" standalone="no"?>
<svg width="200px" height="200px" viewBox="0 0 200 200" version="1.1" xmlns="http://www.w3.org/2000/svg" xmlns:xlink="http://www.w3.org/1999/xlink">
    <!-- Generator: Sketch 40.1 (33804) - http://www.bohemiancoding.com/sketch -->
    <title>thumbs-up</title>
    <desc>Created with Sketch.</desc>
    <defs></defs>
    <g id="4.-PDP-How-to-Use" stroke="none" stroke-width="1" fill="none" fill-rule="evenodd">
        <g id="thumbs-up" fill="#554740">
            <g id="thumbs-up-0aefbb5e9bea60449b0b11859c6d3c80" transform="translate(35.916196, 7.981377)">
                <g id="Layer_1">
                    <g id="Group">
                        <path d="M126.704357,90.3890921 C127.801796,84.8021284 126.504822,80.4123711 124.609245,78.4170269 C124.010642,77.7186565 123.312271,77.4193548 122.713668,77.2198204 C124.709012,72.3312271 125.606917,68.1410043 124.010642,65.0482208 C122.414366,61.8556701 118.922514,61.1572996 118.323911,60.9577652 C113.136016,58.962421 101.762554,50.0831393 97.0734952,46.3917526 C96.8739608,46.1922182 96.7741935,46.0924509 96.7741935,46.0924509 L96.7741935,46.0924509 C94.8786166,44.4961756 92.5839707,43.6980379 89.7904889,43.6980379 C86.1988693,43.6980379 83.205853,45.0947788 83.205853,45.0947788 C77.020286,47.6887263 72.8300632,48.5866312 70.3358829,49.0854672 C70.2361157,49.0854672 70.1363485,49.0854672 69.9368141,49.1852345 C70.3358829,47.4891919 70.834719,45.6933821 71.7326239,44.0971068 C71.8323911,43.9973395 81.310276,28.4336548 73.4286664,13.6681077 C73.0295976,13.0695045 65.0482208,-1.89557699 55.5703359,0.29930163 C55.4705687,0.29930163 51.5796475,1.09743931 50.4822082,2.89324909 C49.5843033,4.38975723 48.8859328,7.0834719 50.0831393,9.67741935 C50.2826738,10.7748587 51.2803459,26.2387762 50.2826738,33.2224809 C50.1829066,33.4220153 42.4010642,51.9787163 33.7213169,66.8440306 C33.6215497,67.043565 16.5613568,84.4030595 18.057865,111.040905 C16.7608913,112.437645 8.28067842,125.108081 0.698370469,127.702029 L1.09743931,128.699701 C9.37811773,125.806452 20.7515796,113.036249 21.2504157,112.537413 L21.3501829,112.437645 L21.3501829,112.238111 C22.4476222,85.3009644 36.0159628,68.1410043 36.2154972,67.9414699 C46.8905886,54.1735949 54.1735949,33.6215497 54.2733622,33.3222481 C55.3708015,25.8397073 53.4752245,10.6750915 53.3754573,9.97672098 L53.1759228,9.97672098 C51.6794147,5.0881277 54.1735949,3.99068839 54.2733622,3.99068839 C59.7605587,0.598603259 70.0365813,14.3664782 70.0365813,14.5660126 C77.6188893,28.7329564 68.0412371,42.9996674 67.9414699,43.1992019 C62.753575,52.9763884 67.043565,64.8486864 69.2384436,69.5377453 C67.1433322,69.8370469 64.8486864,70.4356501 62.1549717,71.6328567 C61.9554373,71.7326239 58.3638178,73.1293648 57.8649817,78.7163286 C57.2663785,77.519122 56.568008,76.2221483 55.8696375,74.9251746 C55.8696375,74.9251746 69.0389092,109.943465 55.2710343,129.896907 L56.9670768,128.999002 C57.066844,128.899235 62.0552045,123.71134 64.1503159,114.033921 C64.5493848,114.931826 65.0482208,115.929498 65.7465913,116.92717 L65.8463585,117.126704 L66.6444962,118.224144 C66.6444962,118.224144 67.3428666,118.323911 68.440306,118.623213 C67.2430994,119.920186 66.3451945,121.21716 66.3451945,122.713668 C66.3451945,126.105753 68.6398404,128.999002 68.7396076,129.09877 L68.939142,129.298304 L69.1386764,129.398071 C72.0319255,130.196209 80.4123711,133.488527 84.2035251,135.483871 C85.10143,135.982707 85.9993349,136.481543 86.7974726,136.980379 C79.2151646,151.745926 53.0761556,150.848021 52.776854,150.848021 L52.4775524,150.848021 C52.4775524,150.848021 40.2061856,167.608913 34.6192218,178.284004 C34.6192218,178.284004 27.6355171,190.95444 39.5078151,174.49285 L53.5749917,154.040572 C56.6677752,154.040572 82.2081809,152.743598 90.2893249,138.576654 C90.5886265,138.676422 90.788161,138.676422 91.0874626,138.676422 C92.6837379,138.676422 93.5816428,138.277353 93.9807117,138.077818 C102.560692,135.683405 109.843698,132.391087 110.043232,132.29132 C115.031593,128.300632 114.333222,121.516462 114.532757,119.620885 L114.832059,119.42135 C121.616229,118.523445 123.811107,110.342534 123.811107,109.644164 C125.108081,104.356501 122.514134,100.365813 121.017626,98.7695377 C125.706684,95.6767542 126.704357,90.3890921 126.704357,90.3890921 M62.8533422,74.1270369 C73.5284337,69.3382108 83.6049218,76.1223811 83.7046891,76.2221483 L83.7046891,76.0226139 C83.7046891,76.0226139 83.0063186,74.625873 81.6095777,73.229132 C90.6883937,63.7512471 100.365813,62.753575 100.46558,62.753575 C100.46558,62.753575 95.7765214,62.4542734 89.9900233,64.5493848 C90.1895577,59.7605587 94.3797805,57.3661457 94.3797805,57.3661457 C87.495843,57.3661457 87.3960758,65.3475224 87.3960758,65.3475224 L87.495843,65.5470569 C86.997007,65.7465913 86.4981709,66.0458929 86.0991021,66.2454273 C81.2105088,61.6561357 85.5004988,51.3801131 85.5004988,51.3801131 C85.4007316,51.4798803 77.7186565,60.5586964 83.6049218,67.7419355 C82.2081809,68.7396076 80.81144,69.8370469 79.5144662,71.1340206 C77.9181909,70.1363485 75.7233123,69.2384436 73.0295976,69.0389092 C71.6328567,65.6468241 69.5377453,59.6607915 69.6375125,53.4752245 C72.6305288,52.776854 80.2128367,50.7815098 84.3032923,49.0854672 C84.3032923,49.0854672 86.7974726,47.7884935 89.5909544,47.7884935 C91.6860658,47.7884935 93.3821084,48.3870968 94.9783838,49.6840705 C95.6767542,50.0831393 111.240439,60.1596275 117.825075,62.6538078 C117.825075,62.6538078 120.419022,63.252411 121.715996,65.8463585 C123.01297,68.5400732 120.818091,76.9205188 118.323911,77.1200532 L118.323911,77.1200532 C108.446957,79.3149318 90.9876954,86.6977054 90.0897905,87.0967742 L89.8902561,87.1965414 C86.997007,89.4911872 83.5051546,89.9900233 81.1107416,89.9900233 C79.9135351,89.9900233 79.0156302,89.8902561 78.7163286,89.7904889 C73.8277353,87.5956102 60.6584636,83.4053874 60.5586964,83.4053874 L60.4589292,83.4053874 C60.1596275,82.707017 59.8603259,81.9088793 59.4612571,81.2105088 C60.0598603,76.8207516 62.753575,74.2268041 62.8533422,74.1270369 M61.4566013,86.2986365 C62.4542734,86.5979381 63.8510143,87.0967742 65.3475224,87.5956102 C64.4496176,87.9946791 63.4519455,88.4935151 62.753575,89.39142 C62.6538078,89.4911872 62.6538078,89.5909544 62.5540406,89.6907216 C62.2547389,88.4935151 61.8556701,87.3960758 61.4566013,86.2986365 M65.0482208,102.660459 L67.2430994,103.757898 C66.6444962,104.356501 65.8463585,105.154639 65.147988,106.052544 C65.147988,104.955105 65.147988,103.757898 65.0482208,102.660459 M107.449285,130.49551 C106.252078,130.894579 93.0828068,134.885268 93.0828068,134.885268 C93.0828068,134.885268 92.4842035,135.284337 91.286997,135.284337 C90.1895577,135.284337 88.1942135,134.985035 85.3009644,133.38876 C84.3032923,132.889924 75.124709,128.200865 71.1340206,127.003658 C70.6351846,126.504822 69.1386764,124.80878 69.1386764,122.813435 C69.1386764,121.516462 69.7372797,120.319255 70.9344862,119.122049 C75.4240106,120.319255 82.1084137,122.314599 84.8021284,124.80878 L85.0016628,124.908547 C85.10143,124.908547 86.5979381,125.606917 89.5909544,125.606917 C91.6860658,125.606917 94.5793149,125.307616 98.2707017,124.210176 C98.3704689,124.110409 105.653475,121.117393 112.63718,119.321583 C112.337878,121.017626 111.439973,127.203193 107.449285,130.49551 M121.117393,108.846026 C121.117393,108.945793 120.718324,112.238111 117.525773,114.43299 C109.943465,116.428334 98.2707017,121.516462 98.2707017,121.516462 C89.39142,125.307616 85.3009644,121.715996 84.7023612,121.516462 C80.5121383,117.825075 68.6398404,115.630196 66.8440306,115.13136 C65.0482208,112.437645 64.649152,110.741603 65.3475224,108.746259 C65.9461257,106.950449 67.8417027,105.453941 69.1386764,104.556036 C72.1316927,106.052544 75.4240106,107.748587 77.2198204,108.846026 L77.4193548,108.945793 C77.7186565,109.04556 80.1130695,109.843698 83.4053874,109.843698 C87.1965414,109.843698 91.286997,109.344862 93.9807117,107.349518 C95.6767542,106.850682 111.938809,101.463252 118.72298,100.066511 C119.920186,101.064184 122.414366,103.857665 121.117393,108.846026 M118.922514,96.7741935 C104.0572,98.9690722 88.6930496,108.047888 83.3056202,107.648819 C80.6119056,107.449285 78.6165614,107.050216 78.1177253,106.950449 C74.9251746,105.054872 67.2430994,101.263718 64.9484536,100.166279 C64.649152,97.7718656 64.2500831,95.1779182 63.4519455,92.3844363 C63.5517127,92.1849019 63.5517127,91.9853675 63.6514799,91.8856003 C65.147988,89.5909544 67.3428666,88.892584 68.7396076,88.6930496 C72.2314599,89.8902561 75.9228467,91.1872298 77.9181909,92.1849019 L78.1177253,92.2846691 C78.2174925,92.2846691 79.414699,92.5839707 81.1107416,92.5839707 C83.8044563,92.5839707 87.5956102,91.9853675 90.9876954,89.39142 C92.4842035,88.7928168 112.038577,81.2105088 120.917858,79.7140007 C122.813435,80.5121383 125.50715,82.8067842 123.611573,89.7904889 C123.611573,89.6907216 122.613901,95.1779182 118.922514,96.7741935" id="Shape"></path>
                        <path d="M71.4333222,84.0039907 L71.4333222,84.0039907 C73.4286664,82.0086465 72.4309943,78.915863 71.5330895,78.3172597 C71.5330895,78.3172597 69.4379781,76.52145 63.5517127,76.4216827 L70.9344862,79.2151646 C71.1340206,79.414699 72.0319255,80.6119056 71.4333222,84.0039907" id="Shape"></path>
                        <path d="M73.7279681,92.7835052 C73.7279681,92.7835052 71.6328567,91.0874626 65.7465913,90.8879282 L73.1293648,93.68141 C73.3288992,93.8809445 74.1270369,95.078151 73.6282009,98.4702361 L73.6282009,98.4702361 C75.5237779,96.4748919 74.5261058,93.3821084 73.7279681,92.7835052" id="Shape"></path>
                        <path d="M75.5237779,109.344862 C75.5237779,109.344862 73.4286664,107.549052 67.5424011,107.449285 L74.9251746,110.242767 C75.124709,110.442301 75.9228467,111.639508 75.4240106,115.031593 L75.4240106,115.031593 C77.4193548,113.036249 76.4216827,109.943465 75.5237779,109.344862" id="Shape"></path>
                        <path d="M76.8207516,122.314599 C76.8207516,122.314599 75.2244762,120.917858 70.5354174,120.718324 L76.4216827,123.01297 C76.6212172,123.212504 77.2198204,124.210176 76.8207516,127.003658 L76.8207516,127.003658 C78.3172597,125.407383 77.519122,122.913203 76.8207516,122.314599" id="Shape"></path>
                    </g>
                </g>
            </g>
        </g>
    </g>
</svg>