<?xml version="1.0" encoding="utf-8"?>
<!-- Generator: Adobe Illustrator 20.1.0, SVG Export Plug-In . SVG Version: 6.00 Build 0)  -->
<svg version="1.1" id="Layer_1" xmlns="http://www.w3.org/2000/svg" xmlns:xlink="http://www.w3.org/1999/xlink" x="0px" y="0px"
	 viewBox="0 0 474.9 217.3" style="enable-background:new 0 0 474.9 217.3;" xml:space="preserve">
<style type="text/css">
	.st0{fill:#F1B4B1;}
	.st1{fill:#C5164A;}
	.st2{fill:#21201F;}
	.st3{fill:#E21F26;}
	.st4{fill:#01B4C0;}
	.st5{fill:#C5E4EA;}
	.st6{fill:#336080;}
	.st7{fill:#336081;}
	.st8{fill:#003C57;}
	.st9{fill:#E6E460;}
	.st10{fill:#DCDDDE;}
	.st11{fill:#AAC6CC;}
	.st12{fill:#179CAA;}
</style>
<path class="st0" d="M233.4,8.7c0.4-0.4,0.9-0.9,1.3-1.3l0,0C234.3,7.8,233.8,8.2,233.4,8.7z"/>
<path class="st0" d="M236,8.6c-0.3-0.4-0.7-0.7-1.1-1.1C235.3,7.9,235.6,8.3,236,8.6z"/>
<path class="st1" d="M234.9,7.6c-0.1-0.1-0.1-0.1-0.2-0.2l0,0C234.8,7.5,234.8,7.5,234.9,7.6z"/>
<g>
	<path class="st2" d="M85.9,202.5v9.9c0,2.1-1.8,3.8-3.9,3.7L6.7,216c-2.1,0-3.8-1.7-3.7-3.8c0,0,0-10.8,0-11.3
		c0-0.9,0.4-1.8,1.1-2.5l53.8-60H3.7c-2.1,0-3.8-1.7-3.7-3.7l0.1-10.2c0-2.1,1.7-3.8,3.8-3.7l75.2,0.1c2.1,0,3.8,1.7,3.7,3.8
		c0,0,0,9.2,0,10.7c0,1.1-0.3,2-1,2.9l-53.7,60.3h54C84.3,198.7,85.9,200.4,85.9,202.5"/>
	<path class="st2" d="M176.1,217.3c-27-0.2-48.8-22.3-48.6-49.4c0.2-27,22.3-48.8,49.4-48.6c27,0.2,48.8,22.3,48.6,49.4
		C225.2,195.7,203.1,217.5,176.1,217.3 M176.7,137.8c-16.9-0.1-30.7,13.5-30.8,30.3c-0.1,16.9,13.5,30.7,30.3,30.8
		c16.9,0.1,30.7-13.5,30.8-30.3C207.1,151.7,193.5,137.9,176.7,137.8"/>
	<path class="st2" d="M336.5,200.9v12.7c0,1.4-1.5,2.6-3.2,2.5h-52.6c-1.4,0-2.5-1.1-2.5-2.5v-90.2c0-1.4,1.8-2.5,3.2-2.5h12.8
		c1.4,0,2.5,1.1,2.5,2.5v75h36.9C335.1,198.5,336.5,199.6,336.5,200.9"/>
	<path class="st2" d="M472.2,216.1h-13.7c-1.1,0-2.1-0.7-2.5-1.6l-8.2-19.2h-44.6l-8.6,19.3c-0.4,1-1.4,1.6-2.5,1.6h-13.9
		c-2,0-3.3-2.1-2.5-3.9l40.9-89.6c0.5-1,1.3-1.7,2.3-1.7c2.7,0,12.8,0,14.3,0c1.1,0,1.9,0.8,2.3,1.8l39.2,89.5
		C475.5,214.1,474.2,216.2,472.2,216.1 M440.1,177.6l-14.2-32.4l-14.7,32.4H440.1z"/>
</g>
<path class="st3" d="M194.4,74.5L194.4,74.5L194.4,74.5L194.4,74.5z"/>
<path class="st4" d="M234.7,47.4c-0.3-0.4-0.6-0.7-0.9-1.1c-0.1-0.1-0.1-0.1-0.2-0.2c-0.2-0.3-0.5-0.6-0.7-0.8
	c-0.1-0.1-0.2-0.2-0.2-0.3c-0.2-0.3-0.4-0.5-0.6-0.8c-0.1-0.1-0.1-0.2-0.2-0.3c-0.2-0.3-0.5-0.7-0.7-1c0,0,0,0,0-0.1
	c-0.2-0.4-0.5-0.7-0.7-1.1c-0.1-0.1-0.1-0.2-0.2-0.3c-0.2-0.3-0.3-0.5-0.5-0.8c-0.1-0.1-0.1-0.3-0.2-0.4c-0.1-0.3-0.3-0.5-0.4-0.8
	c-0.1-0.1-0.1-0.2-0.2-0.3c-0.2-0.4-0.4-0.7-0.6-1.1c-0.2-0.4-0.3-0.8-0.5-1.1c-0.1-0.1-0.1-0.2-0.1-0.4c-0.1-0.3-0.2-0.5-0.3-0.8
	c0-0.1-0.1-0.3-0.1-0.4c-0.1-0.3-0.2-0.5-0.2-0.8c0-0.1-0.1-0.3-0.1-0.4c-0.1-0.3-0.2-0.6-0.3-1c0-0.1,0-0.1-0.1-0.2
	c-0.1-0.4-0.2-0.8-0.2-1.2c0-0.1,0-0.3-0.1-0.4c0-0.3-0.1-0.5-0.1-0.8c0-0.2,0-0.3-0.1-0.5c0-0.2-0.1-0.5-0.1-0.7s0-0.3,0-0.5
	c0-0.3,0-0.5,0-0.8c0-0.1,0-0.2,0-0.4c0-0.4,0-0.8,0-1.1c0-0.1,0-0.3,0-0.4c0-0.2,0-0.5,0-0.7s0-0.3,0-0.5s0-0.4,0.1-0.7
	c0-0.2,0-0.3,0.1-0.5c0-0.2,0.1-0.4,0.1-0.7c0-0.2,0-0.3,0.1-0.5c0.1-0.4,0.1-0.7,0.2-1.1c0-0.2,0.1-0.3,0.1-0.5s0.1-0.4,0.1-0.6
	c0-0.2,0.1-0.4,0.2-0.6c0.1-0.2,0.1-0.4,0.2-0.5c0.1-0.2,0.1-0.4,0.2-0.6c0.1-0.2,0.1-0.3,0.2-0.5c0.1-0.2,0.1-0.4,0.2-0.6
	c0.1-0.2,0.1-0.3,0.2-0.5c0.2-0.4,0.3-0.7,0.5-1.1c0.1-0.1,0.1-0.3,0.2-0.4c0.1-0.2,0.2-0.4,0.3-0.6c0.1-0.1,0.1-0.3,0.2-0.4
	c0.1-0.2,0.2-0.4,0.3-0.6c0.1-0.1,0.1-0.3,0.2-0.4c0.1-0.2,0.2-0.4,0.4-0.6c0.1-0.1,0.1-0.2,0.2-0.3c0.3-0.4,0.6-0.9,0.9-1.3
	c0-0.1,0.1-0.1,0.1-0.2c0.1-0.2,0.3-0.4,0.5-0.6c0.1-0.1,0.2-0.2,0.2-0.3c0.2-0.2,0.3-0.4,0.5-0.6c0.1-0.1,0.2-0.2,0.3-0.3
	c0.2-0.2,0.3-0.4,0.5-0.6c0.1-0.1,0.2-0.2,0.2-0.2c0.4-0.4,0.9-0.9,1.3-1.3c-2-1.8-4.3-3.4-6.9-4.6c-0.6-0.3-1.3-0.6-1.9-0.8
	c-3.2-1.2-6.5-1.8-9.7-1.8h-0.1c-5.8,0-11.3,1.9-15.9,5.3c-2.3,1.7-4.2,3.8-5.9,6.2c0.8,1.1,1.4,2.3,2,3.6
	c2.9,6.1,3.9,13.8,3.8,21.6l0,0c0,18.4-5.8,37.3-5.9,37.5c0.2-0.1,2.4-1,5.9-2.7c6.3-3.1,16.6-8.8,25.6-16
	C229.1,53.1,232.1,50.3,234.7,47.4L234.7,47.4L234.7,47.4L234.7,47.4L234.7,47.4z"/>
<path class="st0" d="M275,74.5L275,74.5L275,74.5L275,74.5z"/>
<path class="st5" d="M272.9,15.3c0.6-1.3,1.3-2.5,2-3.6c-1.6-2.4-3.6-4.5-5.9-6.2c-7.1-5.3-16.7-6.9-25.6-3.5
	c-0.6,0.2-1.3,0.5-1.9,0.8c-2.6,1.2-4.9,2.8-6.9,4.6l0,0l0,0c0.1,0.1,0.1,0.1,0.2,0.2c0.4,0.3,0.7,0.7,1.1,1.1
	c0.1,0.1,0.2,0.2,0.3,0.3c0.2,0.2,0.3,0.3,0.5,0.5c0.1,0.1,0.2,0.2,0.3,0.4c0.2,0.2,0.3,0.4,0.4,0.5c0.1,0.1,0.2,0.2,0.3,0.4
	s0.3,0.4,0.4,0.6c0.1,0.1,0.1,0.2,0.2,0.3c0.3,0.4,0.5,0.7,0.8,1.1c0.1,0.1,0.2,0.2,0.2,0.4c0.1,0.2,0.2,0.4,0.3,0.6
	c0.1,0.1,0.2,0.3,0.2,0.4c0.1,0.2,0.2,0.4,0.3,0.6c0.1,0.1,0.2,0.3,0.2,0.4c0.1,0.2,0.2,0.4,0.3,0.6c0.1,0.2,0.1,0.3,0.2,0.5
	c0.1,0.3,0.3,0.7,0.4,1c0.1,0.2,0.2,0.4,0.2,0.5c0.1,0.2,0.1,0.4,0.2,0.6c0.1,0.2,0.1,0.4,0.2,0.5c0.1,0.2,0.1,0.4,0.2,0.6
	c0.1,0.2,0.1,0.4,0.2,0.6c0.1,0.2,0.1,0.4,0.2,0.5c0.1,0.2,0.1,0.4,0.2,0.6c0,0.2,0.1,0.3,0.1,0.5c0.1,0.4,0.1,0.7,0.2,1.1
	c0,0.2,0,0.3,0.1,0.5c0,0.2,0.1,0.5,0.1,0.7s0,0.3,0.1,0.5c0,0.2,0,0.5,0.1,0.7c0,0.2,0,0.3,0,0.5c0,0.3,0,0.5,0,0.8
	c0,0.1,0,0.3,0,0.4c0,0.4,0,0.8,0,1.1c0,0.1,0,0.2,0,0.3c0,0.3,0,0.6,0,0.8c0,0.1,0,0.3,0,0.4c0,0.3,0,0.5-0.1,0.8
	c0,0.1,0,0.3-0.1,0.4c0,0.3-0.1,0.5-0.1,0.8c0,0.1,0,0.2-0.1,0.4c-0.1,0.4-0.2,0.8-0.2,1.2c0,0.1,0,0.1,0,0.2
	c-0.1,0.3-0.2,0.7-0.3,1c0,0.1-0.1,0.3-0.1,0.4c-0.1,0.3-0.2,0.5-0.3,0.8c0,0.1-0.1,0.3-0.1,0.4c-0.1,0.3-0.2,0.5-0.3,0.8
	c0,0.1-0.1,0.2-0.1,0.4c-0.2,0.4-0.3,0.8-0.5,1.1c-0.2,0.4-0.4,0.7-0.6,1.1c-0.1,0.1-0.1,0.2-0.2,0.4c-0.1,0.3-0.3,0.5-0.4,0.8
	c-0.1,0.1-0.1,0.3-0.2,0.4c-0.2,0.3-0.3,0.5-0.5,0.8c-0.1,0.1-0.1,0.2-0.2,0.3c-0.2,0.4-0.5,0.7-0.7,1.1c0,0,0,0,0,0.1
	c-0.2,0.3-0.5,0.7-0.7,1c-0.1,0.1-0.1,0.2-0.2,0.3c-0.2,0.3-0.4,0.5-0.6,0.8c-0.1,0.1-0.1,0.2-0.2,0.3c-0.2,0.3-0.5,0.6-0.7,0.9
	c0,0.1-0.1,0.1-0.1,0.2c-0.3,0.4-0.6,0.7-0.9,1.1l0,0c2.6,2.9,5.6,5.7,8.8,8.3c9,7.3,19.3,12.9,25.6,16c3.4,1.7,5.7,2.7,5.9,2.7
	C274.9,74.1,263.3,36,272.9,15.3z"/>
<path class="st6" d="M194.5,74.5L194.5,74.5C194.4,74.5,194.4,74.5,194.5,74.5C194.4,74.5,194.5,74.5,194.5,74.5z"/>
<path class="st7" d="M188.6,36.9c0-7.8,1-15.5,3.8-21.6c0.6-1.3,1.3-2.5,2-3.6c-1.6-2.4-3.6-4.5-5.9-6.2c-7.6-5.7-18.2-7.1-27.5-2.7
	c-13.4,6.3-19.4,22-13.2,35.2c7.3,15.6,29.9,28.4,40.7,33.7c3.4,1.7,5.7,2.7,5.9,2.7C194.4,74.2,188.6,55.4,188.6,36.9L188.6,36.9z"
	/>
<path class="st8" d="M200.3,36.9c0-7.8-1-15.4-3.8-21.6c-0.6-1.3-1.3-2.5-2-3.6c-0.8,1.1-1.4,2.3-2,3.6c-2.9,6.2-3.9,13.9-3.8,21.6
	V37c0.1,18.4,5.8,37.2,5.9,37.4l0,0l0,0C194.5,74.2,200.3,55.3,200.3,36.9L200.3,36.9z"/>
<path class="st9" d="M275,74.5L275,74.5L275,74.5L275,74.5z"/>
<path class="st10" d="M308.4,2.8c-3.8-1.8-7.7-2.6-11.6-2.6h-0.1c-5.8,0-11.3,1.9-15.9,5.3c-2.3,1.7-4.2,3.8-5.9,6.2
	c0.8,1.1,1.4,2.3,2,3.6c2.9,6.1,3.9,13.7,3.8,21.5v0.3c-0.1,18.4-5.8,37.1-5.9,37.4c0.2-0.1,2.4-1,5.9-2.7
	c10.8-5.4,33.5-18.1,40.7-33.7C327.7,24.8,321.8,9.1,308.4,2.8z"/>
<path class="st11" d="M280.8,36.8c0-7.7-1-15.4-3.8-21.5c-0.6-1.3-1.3-2.5-2-3.6c-0.8,1.1-1.4,2.3-2,3.6c-9.7,20.7,1.9,58.8,2,59.2
	l0,0l0,0c0.1-0.2,5.8-19,5.9-37.4v-0.3H280.8z"/>
<path class="st12" d="M233.4,8.7c-0.1,0.1-0.2,0.2-0.2,0.2c-0.2,0.2-0.3,0.4-0.5,0.6c-0.1,0.1-0.2,0.2-0.3,0.3
	c-0.2,0.2-0.3,0.4-0.5,0.6c-0.1,0.1-0.2,0.2-0.2,0.3c-0.2,0.2-0.3,0.4-0.5,0.6c0,0.1-0.1,0.1-0.1,0.2c-0.3,0.4-0.6,0.9-0.9,1.3
	c-0.1,0.1-0.1,0.2-0.2,0.3c-0.1,0.2-0.2,0.4-0.4,0.6c-0.1,0.1-0.1,0.3-0.2,0.4c-0.1,0.2-0.2,0.4-0.3,0.6c-0.1,0.1-0.1,0.3-0.2,0.4
	c-0.1,0.2-0.2,0.4-0.3,0.6c-0.1,0.1-0.1,0.3-0.2,0.4c-0.2,0.4-0.3,0.7-0.5,1.1c-0.1,0.2-0.1,0.3-0.2,0.5c-0.1,0.2-0.1,0.4-0.2,0.6
	c-0.1,0.2-0.1,0.3-0.2,0.5c-0.1,0.2-0.1,0.4-0.2,0.6c-0.1,0.2-0.1,0.4-0.2,0.5c-0.1,0.2-0.1,0.4-0.2,0.6c-0.1,0.2-0.1,0.4-0.1,0.6
	c0,0.2-0.1,0.3-0.1,0.5c-0.1,0.4-0.1,0.7-0.2,1.1c0,0.2-0.1,0.3-0.1,0.5s-0.1,0.4-0.1,0.7c0,0.2,0,0.3-0.1,0.5c0,0.2,0,0.4-0.1,0.7
	c0,0.2,0,0.3,0,0.5s0,0.5,0,0.7c0,0.1,0,0.3,0,0.4c0,0.4,0,0.8,0,1.1c0,0.1,0,0.2,0,0.4c0,0.3,0,0.5,0,0.8c0,0.2,0,0.3,0,0.5
	s0,0.5,0.1,0.7c0,0.2,0,0.3,0.1,0.5c0,0.3,0.1,0.5,0.1,0.8c0,0.1,0,0.3,0.1,0.4c0.1,0.4,0.2,0.8,0.2,1.2c0,0.1,0,0.1,0.1,0.2
	c0.1,0.3,0.2,0.6,0.3,1c0,0.1,0.1,0.3,0.1,0.4c0.1,0.3,0.2,0.5,0.2,0.8c0,0.1,0.1,0.3,0.1,0.4c0.1,0.3,0.2,0.5,0.3,0.8
	c0,0.1,0.1,0.2,0.1,0.4c0.2,0.4,0.3,0.8,0.5,1.1c0.2,0.4,0.4,0.7,0.6,1.1c0.1,0.1,0.1,0.2,0.2,0.3c0.1,0.3,0.3,0.5,0.4,0.8
	c0.1,0.1,0.1,0.3,0.2,0.4c0.2,0.3,0.3,0.5,0.5,0.8c0.1,0.1,0.1,0.2,0.2,0.3c0.2,0.4,0.5,0.7,0.7,1.1c0,0,0,0,0,0.1
	c0.2,0.3,0.5,0.7,0.7,1c0.1,0.1,0.1,0.2,0.2,0.3c0.2,0.3,0.4,0.5,0.6,0.8c0.1,0.1,0.2,0.2,0.2,0.3c0.2,0.3,0.5,0.6,0.7,0.8
	c0.1,0.1,0.1,0.1,0.2,0.2c0.3,0.4,0.6,0.7,0.9,1.1l0,0c0.3-0.4,0.6-0.7,0.9-1.1c0-0.1,0.1-0.1,0.1-0.2c0.2-0.3,0.5-0.6,0.7-0.9
	c0.1-0.1,0.1-0.2,0.2-0.3c0.2-0.3,0.4-0.5,0.6-0.8c0.1-0.1,0.1-0.2,0.2-0.3c0.2-0.3,0.5-0.7,0.7-1c0,0,0,0,0-0.1
	c0.2-0.4,0.5-0.7,0.7-1.1c0.1-0.1,0.1-0.2,0.2-0.3c0.2-0.3,0.3-0.5,0.5-0.8c0.1-0.1,0.1-0.3,0.2-0.4c0.1-0.3,0.3-0.5,0.4-0.8
	c0.1-0.1,0.1-0.2,0.2-0.4c0.2-0.4,0.4-0.7,0.6-1.1c0.2-0.4,0.3-0.8,0.5-1.1c0-0.1,0.1-0.2,0.1-0.4c0.1-0.3,0.2-0.5,0.3-0.8
	c0-0.1,0.1-0.3,0.1-0.4c0.1-0.3,0.2-0.5,0.3-0.8c0-0.1,0.1-0.3,0.1-0.4c0.1-0.3,0.2-0.7,0.3-1c0-0.1,0-0.1,0-0.2
	c0.1-0.4,0.2-0.8,0.2-1.2c0-0.1,0-0.2,0.1-0.4c0-0.3,0.1-0.5,0.1-0.8c0-0.1,0-0.3,0.1-0.4c0-0.3,0.1-0.5,0.1-0.8c0-0.1,0-0.3,0-0.4
	c0-0.3,0-0.6,0-0.8c0-0.1,0-0.2,0-0.3c0-0.4,0-0.8,0-1.1c0-0.1,0-0.3,0-0.4c0-0.3,0-0.5,0-0.8c0-0.2,0-0.3,0-0.5s0-0.5-0.1-0.7
	c0-0.2,0-0.3-0.1-0.5c0-0.2-0.1-0.5-0.1-0.7s0-0.3-0.1-0.5c-0.1-0.4-0.1-0.7-0.2-1.1c0-0.2-0.1-0.3-0.1-0.5
	c-0.1-0.2-0.1-0.4-0.2-0.6c0-0.2-0.1-0.4-0.2-0.5c-0.1-0.2-0.1-0.4-0.2-0.6c-0.1-0.2-0.1-0.4-0.2-0.6c-0.1-0.2-0.1-0.4-0.2-0.5
	c-0.1-0.2-0.1-0.4-0.2-0.6c-0.1-0.2-0.1-0.4-0.2-0.5c-0.1-0.3-0.3-0.7-0.4-1c-0.1-0.2-0.1-0.3-0.2-0.5c-0.1-0.2-0.2-0.4-0.3-0.6
	c-0.1-0.1-0.2-0.3-0.2-0.4c-0.1-0.2-0.2-0.4-0.3-0.6c-0.1-0.1-0.2-0.3-0.2-0.4c-0.1-0.2-0.2-0.4-0.3-0.6c-0.1-0.1-0.2-0.2-0.2-0.4
	c-0.2-0.4-0.5-0.8-0.8-1.1c-0.1-0.1-0.1-0.2-0.2-0.3c-0.1-0.2-0.3-0.4-0.4-0.6c-0.1-0.1-0.2-0.2-0.3-0.4s-0.3-0.4-0.4-0.5
	c-0.1-0.1-0.2-0.2-0.3-0.4c-0.2-0.2-0.3-0.4-0.5-0.5c-0.1-0.1-0.2-0.2-0.3-0.3c-0.3-0.4-0.7-0.7-1.1-1.1c-0.1-0.1-0.1-0.1-0.2-0.2
	C234.3,7.8,233.8,8.2,233.4,8.7z"/>
<path class="st1" d="M228.4,38c-0.2-0.4-0.3-0.8-0.5-1.1C228,37.2,228.2,37.6,228.4,38z"/>
</svg>
