<svg width="48" height="35" viewBox="0 0 48 35" fill="none" xmlns="http://www.w3.org/2000/svg">
<path d="M41.4545 8.75H34.9091V0H4.36364C1.96364 0 0 1.96875 0 4.375V28.4375H4.36364C4.36364 32.0687 7.28727 35 10.9091 35C14.5309 35 17.4545 32.0687 17.4545 28.4375H30.5455C30.5455 32.0687 33.4691 35 37.0909 35C40.7127 35 43.6364 32.0687 43.6364 28.4375H48V17.5L41.4545 8.75ZM10.9091 31.7188C9.09818 31.7188 7.63636 30.2531 7.63636 28.4375C7.63636 26.6219 9.09818 25.1562 10.9091 25.1562C12.72 25.1562 14.1818 26.6219 14.1818 28.4375C14.1818 30.2531 12.72 31.7188 10.9091 31.7188ZM40.3636 12.0312L44.64 17.5H34.9091V12.0312H40.3636ZM37.0909 31.7188C35.28 31.7188 33.8182 30.2531 33.8182 28.4375C33.8182 26.6219 35.28 25.1562 37.0909 25.1562C38.9018 25.1562 40.3636 26.6219 40.3636 28.4375C40.3636 30.2531 38.9018 31.7188 37.0909 31.7188Z" fill="white"/>
</svg>
