<?xml version="1.0" encoding="iso-8859-1"?>
<!-- Generator: Adobe Illustrator 18.1.1, SVG Export Plug-In . SVG Version: 6.00 Build 0)  -->
<svg version="1.1" id="Layer_1" xmlns="http://www.w3.org/2000/svg" xmlns:xlink="http://www.w3.org/1999/xlink" x="0px" y="0px"
	 viewBox="0 0 453.601 575.571" style="enable-background:new 0 0 453.601 575.571;" xml:space="preserve">
<image style="overflow:visible;" width="1890" height="863" xlink:href="4BA963F6.jpg"  transform="matrix(0.24 0 0 0.24 0 368.45)">
</image>
<g>
	<polygon style="fill-rule:evenodd;clip-rule:evenodd;fill:#7F6149;" points="452.76,54.85 452.76,375.07 375.58,443.02 
		375.58,0.24 	"/>
	<g>
		<polygon style="fill-rule:evenodd;clip-rule:evenodd;fill:#FFFFFF;" points="379.07,385.64 398.2,371.99 398.2,397.69 
			379.07,413.22 		"/>
		<path style="fill-rule:evenodd;clip-rule:evenodd;" d="M390.28,379.72v22.89l-0.1,0.08v-22.9L390.28,379.72z M390.01,379.91v22.91
			l-0.52,0.42v-22.96L390.01,379.91z M389.32,380.4v22.89l-0.38,0.3v-22.92L389.32,380.4z M388.77,380.79v23.02l-0.37,0.3v-23.05
			L388.77,380.79z M388.23,381.17v23.07l-0.09,0.07v-23.07L388.23,381.17z M387.68,381.57v23.11l-0.22,0.17v-23.13L387.68,381.57z
			 M386.97,382.06v23.17l-0.08,0.07v-23.18L386.97,382.06z M386.72,405.44l-0.11,0.08v-23.2l0.11-0.07V405.44z M386.16,382.64v23.24
			l-0.26,0.2v-23.26L386.16,382.64z M385.45,383.14v23.3l-0.21,0.17V383.3L385.45,383.14z M385.04,383.43v23.34l-0.21,0.17v-23.35
			L385.04,383.43z M384.63,383.73v23.36l-0.24,0.19V383.9L384.63,383.73z M384.2,384.03v23.41l-0.37,0.29V384.3L384.2,384.03z
			 M383.5,407.99l-0.09,0.07v-23.47l0.09-0.06V407.99z M383.08,384.83v23.49l-0.22,0.18v-23.52L383.08,384.83z M382.51,385.23v23.63
			c-0.02,0.02-0.06-0.03-0.09-0.1v-23.47L382.51,385.23z M381.96,385.62v23.59c0,0-0.04,0.13-0.09,0.07v-23.6L381.96,385.62z
			 M381.54,409.55c-0.07,0.14-0.15,0.12-0.24,0.19v-23.56c0.02-0.02,0.06-0.13,0.24-0.26V409.55z M380.99,386.31v23.77l-0.38,0.3
			v-23.8L380.99,386.31z M380.25,386.84v23.82l-0.09,0.07V386.9L380.25,386.84z M379.98,410.87l-0.25,0.11v-23.69
			c0.03-0.02,0.05-0.12,0.25-0.26V410.87z M397.94,396.44c-0.05,0.13-0.13,0.11-0.21,0.18v-22.27l0.21-0.15V396.44z M397.55,374.47
			v22.37c-0.02,0.01-0.06-0.04-0.08-0.1v-22.21L397.55,374.47z M397.29,396.96c-0.29,0.32-0.31,0.25-0.33,0.27V374.9l0.33-0.24
			V396.96z M396.52,397.65c-0.14,0.12-0.2,0.08-0.2,0.08l-0.02-22.37l0.22-0.16V397.65z M395.75,398.27l-0.1,0.08v-22.36
			c0.02-0.09,0.06-0.21,0.1-0.23V398.27z M395.49,398.48l-0.23,0.17V376.1l0.23-0.16V398.48z M394.96,398.89l-0.08,0.07v-22.59
			l0.08-0.06V398.89z M394.7,376.5v22.6l-0.24,0.19v-22.62L394.7,376.5z M394.3,376.78v22.64l-0.49,0.39v-22.68L394.3,376.78z
			 M393.63,377.26v22.69l-0.24,0.19v-22.71L393.63,377.26z M393.1,400.37l-0.49,0.39v-22.78l0.49-0.35V400.37z M392.26,401.04
			l-0.06,0.04v-22.64c0.02-0.1,0.04-0.12,0.06-0.21V401.04z M392.04,401.21l-0.1,0.09v-22.76l0.1-0.07V401.21z M391.63,378.85v22.69
			l-0.11,0.08v-22.79c0.02-0.01,0.04-0.02,0.07-0.12C391.59,378.71,391.63,378.68,391.63,378.85z M390.94,379.25v22.83l-0.2,0.17
			v-22.94C390.74,379.31,390.9,379.19,390.94,379.25z M390.53,402.41l-0.1,0.08v-22.54c0-0.17-0.07-0.46,0.1-0.49V402.41z"/>
	</g>
	<g>
		<path style="fill-rule:evenodd;clip-rule:evenodd;fill:#4D3B2D;" d="M418.39,372.21v4.16l-7.52,5.74v-4.29L418.39,372.21z
			 M418.26,342.05c-0.26,0.16-0.53,0.32-0.79-0.11c0,0-0.26,0.16-0.26,1.35v26.23l-0.92,0.67v-26.92l-1.07,0.66
			c0.4-3.85,0.93-7.76,1.46-11.66C417.21,334.95,417.87,338.72,418.26,342.05z M414.15,344.6l-1.08,0.67v27.28l-1.09,0.8v-27.4
			c-0.14-0.53-0.28,0.17-1.11,0.68c0.56-4,1.11-8.6,1.65-12.57C413.07,337.39,413.61,341.3,414.15,344.6z"/>
	</g>
	<g>
		<path style="fill-rule:evenodd;clip-rule:evenodd;fill:#4E3C32;" d="M442.4,328.66c0.1-4.87,0.63-6.78,0-11.21l5.15-2.97v3.13
			c-0.31,6.96-1.73,15.2-3.06,15.55v20.1c0.51,1.2,1.33,0.05,2.05,2.13l-4.78,3.66c0.22-2.84,1.48-3.26,2.1-5.32v-19.1l-0.2-0.92
			c-1.26,1.36-3.28-7.55-3.07-15.22l0.75-0.43C441.66,321.62,441.98,325.18,442.4,328.66z"/>
	</g>
	<g>
		<path style="fill-rule:evenodd;clip-rule:evenodd;fill:#4B3B2E;" d="M434.76,338.99c-0.23-0.41-0.68-1.22-0.91-1.07
			c-0.34,0.22-0.69,2.11-1.03,2.33c-0.23,0.15-0.69-1.22-0.92-1.07c-0.35,0.22-0.82,1.09-1.05,2.92v21.38
			c-0.12,1.77-0.47,3.73-0.82,4c-0.48,0.36-0.71-2.29-0.6-4.08c0.12,0.48,0.24,2.09,0.6,2.95c0.11-0.09,0.35-1.4,0.47-2.05
			c0-17.46,0.11-18.1,0.11-19.79c0-4.5-0.94-3.9-1.18-3.74c-0.35,0.23-0.71,2.16-1.07,2.39c-0.24,0.16-0.72-1.24-0.96-1.08
			c-0.36,0.23-0.6,0.96-0.84,1.69v-2.29c0.48-10.6,2.64-16.99,4.05-17.8C432.24,322.74,434.76,327.38,434.76,338.99z"/>
	</g>
	<g>
		<g>
			<path style="fill-rule:evenodd;clip-rule:evenodd;fill:#4D3B2D;" d="M384.4,227.39c0-11.14,1.82-21.01,5.41-21.19
				c2.34-0.12,3.36,2.36,4.42,4.82v-20.4c-1.06-2.43-1.92-4.54-4.56-4.6c-6.77-0.16-10.2,20.82-10.2,42
				c0,21.29,3.46,40.18,10.39,38.29c2.32-0.63,3.62-3.23,4.37-5.25v-19.23c-0.9,2.48-2.05,4.91-4.42,5.39
				C386.22,247.95,384.4,238.54,384.4,227.39z"/>
			<path style="fill-rule:evenodd;clip-rule:evenodd;fill:#4D3B2D;" d="M402.81,211.24l1.56,23.14l-3.21,0.52L402.81,211.24z
				 M400.33,186.27l-5.53,77.13l4.39-1.17l0.82-11.36l5.48-1.23l0.75,10.71l4-1.06l-5.11-72.9L400.33,186.27z"/>
			<path style="fill-rule:evenodd;clip-rule:evenodd;fill:#4D3B2D;" d="M414.39,216.48v-14.44l1.75-0.07
				c0.99-0.03,1.61,2.93,1.61,7.11c0,4.18-0.49,7.12-1.61,7.23L414.39,216.48z M414.39,258.18v-26.16l3.76,25.15l4.12-1.09
				l-3.89-26.09c1.86-3.15,3.16-10.68,3.16-21.17c0-13.7-2.19-22.06-5.04-22.12l-6-0.14v72.66L414.39,258.18z"/>
			<path style="fill-rule:evenodd;clip-rule:evenodd;fill:#4D3B2D;" d="M432.66,209.31l2.61-8.77c-1.26-8.22-3.29-13.57-5.61-13.63
				c-4-0.09-7.34,15.32-7.34,34.66c0,20.59,3.34,35.49,7.34,34.39c3.86-1.06,6.89-16.77,6.89-36.13c0-1.29-0.01-2.59-0.03-3.79
				l-6.51,0.69v12.68l2.97-0.48c-0.62,6.2-1.84,10.55-3.26,10.84c-2.11,0.43-3.84-8.16-3.84-18.73c0-10.21,1.73-18.38,3.84-18.47
				C430.93,202.52,431.98,205.19,432.66,209.31z"/>
			<path style="fill-rule:evenodd;clip-rule:evenodd;fill:#4D3B2D;" d="M439.74,220.14c0-9.73,1.54-17.64,3.42-17.73
				c1.85-0.08,3.31,7.45,3.31,16.89s-1.46,17.34-3.31,17.72C441.28,237.41,439.74,229.88,439.74,220.14z M449.31,219.03
				c0-17.51-2.7-31.71-6.15-31.79c-3.56-0.09-6.51,14.83-6.51,33.38c0,18.55,2.95,32.61,6.51,31.63
				C446.61,251.31,449.31,236.53,449.31,219.03z"/>
		</g>
		<g>
			<path style="fill-rule:evenodd;clip-rule:evenodd;fill:#4D3B2D;" d="M395.13,98.05l2-17.43c-1.7-4.61-3.49-8.13-6.46-9.47
				c-5.25-2.35-8.65,8.63-8.65,26.18c0,12.51,1.92,22.95,6.7,27.64c2.16,1.99,3.24,6.19,3.24,12.48c0,4.99-1.01,9.27-2.97,8.94
				c-2.33-0.39-4.19-4.61-5.77-10.05l-3,16.87c2.36,7.88,4.94,13.71,9.15,14.1c5.73,0.53,8.67-14.38,8.67-29.51
				c0-13.98-2.25-26.59-6.96-30.8c-2.16-1.87-2.84-4.89-2.84-8.74c0-5.32,1.2-7.67,2.67-7.11
				C392.57,91.77,393.84,94.46,395.13,98.05z"/>
			<polygon style="fill-rule:evenodd;clip-rule:evenodd;fill:#4D3B2D;" points="412.03,100.03 412.03,80.92 400.96,75.95 
				400.96,168.39 412.03,169.42 412.03,150.3 406.05,149.28 406.05,133.13 411.7,134.45 411.7,115.96 406.05,114.22 406.05,97.97 
							"/>
			<polygon style="fill-rule:evenodd;clip-rule:evenodd;fill:#4D3B2D;" points="429.03,137.24 420.1,84.53 415.97,82.67 
				415.97,169.22 420.49,169.65 420.49,120.78 429.03,170.47 433.17,170.86 433.17,90.38 429.03,88.53 			"/>
			<path style="fill-rule:evenodd;clip-rule:evenodd;fill:#4D3B2D;" d="M439.84,155.12v-44.75l1.02,0.37
				c2.64,0.98,4.16,12.24,4.16,23.56c0,11.33-1.5,21.44-4.16,20.99L439.84,155.12z M448.9,135.24c0-18.78-2.44-38.89-7.46-41.14
				l-5.41-2.43v79.97l5.41,0.51C446.48,172.61,448.9,153.93,448.9,135.24z"/>
		</g>
		<g>
			<path style="fill-rule:evenodd;clip-rule:evenodd;fill:#4C3A2C;" d="M429.26,281.08c0-0.36-0.08-0.64-0.17-0.6
				c-0.09,0.03-0.16,0.37-0.16,0.73c0,0.36,0.07,0.64,0.16,0.6C429.18,281.78,429.26,281.44,429.26,281.08z"/>
			<path style="fill-rule:evenodd;clip-rule:evenodd;fill:#4C3A2C;" d="M430.45,276.05c0,3.13,0.53,5.01,1.32,4.7
				c0.41-0.17,0.65-0.68,0.82-1.18v-1.77c-0.2,0.8-0.47,1.55-0.82,1.69c-0.58,0.23-1-1.29-1-3.56c0-2.27,0.42-4.12,1-4.33
				c0.36-0.13,0.62,0.43,0.82,1.04v-1.81c-0.23-0.47-0.44-0.79-0.82-0.66C430.98,270.45,430.45,272.89,430.45,276.05z"/>
			<path style="fill-rule:evenodd;clip-rule:evenodd;fill:#4C3A2C;" d="M433.74,274.84c0-2.17,0.43-4.1,0.96-4.29
				c0.52-0.19,0.95,1.41,0.95,3.57c0,2.15-0.43,4.06-0.95,4.27C434.17,278.59,433.74,277.01,433.74,274.84z M435.98,273.96
				c0-2.91-0.57-5.08-1.28-4.83c-0.72,0.26-1.27,2.85-1.27,5.8c0,2.94,0.55,4.94,1.27,4.66
				C435.41,279.3,435.98,276.88,435.98,273.96z"/>
			<path style="fill-rule:evenodd;clip-rule:evenodd;fill:#4C3A2C;" d="M437.01,278.02c0-0.35-0.07-0.62-0.15-0.59
				c-0.09,0.03-0.16,0.36-0.16,0.71s0.07,0.62,0.16,0.59C436.94,278.69,437.01,278.37,437.01,278.02z"/>
			<path style="fill-rule:evenodd;clip-rule:evenodd;fill:#4C3A2C;" d="M438.42,267.99l-0.29,0.11v6.16c0,2.53,0.31,3.84,0.86,3.62
				c0.55-0.22,0.9-1.78,0.9-4.29v-6.12l-0.33,0.12v5.91c0,1.92-0.17,2.86-0.57,3.02c-0.39,0.15-0.57-0.66-0.57-2.59V267.99z"/>
			<polygon style="fill-rule:evenodd;clip-rule:evenodd;fill:#4C3A2C;" points="441.22,270.23 441.22,258.27 440.93,258.36 
				440.93,277.3 441.22,277.19 441.22,272.02 441.3,271.66 442.43,276.71 442.89,276.52 441.53,270.55 442.59,265.8 442.16,265.95 
							"/>
		</g>
	</g>
	<path style="fill-rule:evenodd;clip-rule:evenodd;fill:#4D3B2D;" d="M435.36,318.28v47.8l-9.9,7.68v-49.92L435.36,318.28z
		 M436.27,313.07v57l-11.81,9.41v-60.02L436.27,313.07z"/>
	<path style="fill-rule:evenodd;clip-rule:evenodd;fill:#4D3B2D;" d="M448.51,310.88v45l-8.69,6.74v-46.85L448.51,310.88z
		 M449.36,305.99v53.65l-10.47,8.34v-56.33L449.36,305.99z"/>
	<path style="fill-rule:evenodd;clip-rule:evenodd;fill:#4D3B2D;" d="M420.31,326.74v51.01l-11.3,8.77v-53.43L420.31,326.74z
		 M421.35,321.14v60.81l-13.48,10.75v-64.26L421.35,321.14z"/>
</g>
<g>
	<polygon style="fill-rule:evenodd;clip-rule:evenodd;fill:#DCAC84;" points="0.79,34.1 375.71,0 375.71,443.26 3.41,418.06 	"/>
	<g>
		<g>
			<g>
				<polygon style="fill-rule:evenodd;clip-rule:evenodd;fill:#FFFFFF;" points="27.36,379.97 88,382.61 88.13,407.82 27.48,404.58 
									"/>
				<path style="fill-rule:evenodd;clip-rule:evenodd;" d="M61.13,383.2l0.1,21.54l-0.33-0.02l-0.1-21.54L61.13,383.2z
					 M60.27,383.16l0.1,21.54l-1.66-0.09l-0.1-21.52L60.27,383.16z M58.08,383.06l0.1,21.44l-1.19-0.06l-0.1-21.43L58.08,383.06z
					 M56.36,382.99l0.1,21.5l-1.19-0.06l-0.1-21.5L56.36,382.99z M54.64,382.91l0.11,21.49l-0.27-0.01l-0.1-21.49L54.64,382.91z
					 M52.93,382.84l0.1,21.47l-0.66-0.03l-0.1-21.47L52.93,382.84z M50.75,382.74l0.11,21.46l-0.27-0.01l-0.1-21.46L50.75,382.74z
					 M50.07,404.16l-0.33-0.02l-0.11-21.45l0.33,0.02L50.07,404.16z M48.25,382.63l0.11,21.44l-0.79-0.04l-0.1-21.43L48.25,382.63z
					 M46.09,382.54l0.1,21.41l-0.66-0.03l-0.1-21.41L46.09,382.54z M44.84,382.48l0.1,21.41l-0.65-0.03l-0.1-21.41L44.84,382.48z
					 M43.6,382.43l0.1,21.39l-0.72-0.03l-0.1-21.39L43.6,382.43z M42.29,382.37l0.1,21.39l-1.11-0.06l-0.1-21.38L42.29,382.37z
					 M40.3,403.65l-0.26-0.02l-0.1-21.36l0.26,0.01L40.3,403.65z M38.96,382.23l0.1,21.35l-0.65-0.03l-0.1-21.35L38.96,382.23z
					 M37.26,382.15l0.11,21.42c-0.07,0-0.2-0.09-0.26-0.17L37,382.14L37.26,382.15z M35.64,382.08l0.1,21.33
					c0,0-0.13,0.07-0.26-0.02l-0.1-21.32L35.64,382.08z M34.5,403.34c-0.19,0.07-0.45-0.02-0.71-0.03l-0.1-21.24
					c0.06,0.01,0.19-0.07,0.71-0.04L34.5,403.34z M32.78,381.96l0.1,21.38l-1.1-0.06l-0.1-21.37L32.78,381.96z M30.64,381.86
					l0.1,21.36l-0.26-0.01l-0.1-21.36L30.64,381.86z M29.96,403.18l-0.71-0.11l-0.1-21.2c0.07,0.01,0.13-0.07,0.71-0.04
					L29.96,403.18z M86.65,405.99c-0.2,0.07-0.47-0.02-0.74-0.04l-0.11-21.76l0.75,0.04L86.65,405.99z M85.19,384.17L85.3,406
					c-0.07,0-0.21-0.09-0.27-0.17l-0.11-21.67L85.19,384.17z M84.42,405.88c-1.02,0.02-1.08-0.06-1.15-0.06l-0.11-21.74l1.15,0.05
					L84.42,405.88z M81.78,405.82c-0.47-0.03-0.67-0.12-0.67-0.12l-0.17-21.72l0.74,0.03L81.78,405.82z M79.15,405.68l-0.33-0.02
					l-0.11-21.62c0.07-0.07,0.2-0.15,0.34-0.14L79.15,405.68z M78.28,405.63l-0.74-0.03l-0.11-21.77l0.74,0.03L78.28,405.63z
					 M76.53,405.54l-0.27-0.01l-0.1-21.76l0.27,0.01L76.53,405.54z M75.55,383.75l0.11,21.75l-0.81-0.05l-0.1-21.74L75.55,383.75z
					 M74.21,383.69l0.1,21.74l-1.6-0.09l-0.11-21.72L74.21,383.69z M72,383.59l0.1,21.72l-0.8-0.04l-0.1-21.71L72,383.59z
					 M70.36,405.22l-1.6-0.08l-0.11-21.69l1.61,0.07L70.36,405.22z M67.62,405.08l-0.2-0.01l-0.1-21.52
					c0.07-0.08,0.13-0.08,0.2-0.15L67.62,405.08z M66.89,405.04l-0.33-0.02l-0.11-21.59l0.34,0.01L66.89,405.04z M65.45,383.46
					l0.11,21.51l-0.34-0.02l-0.1-21.58c0.07,0,0.13,0.01,0.2-0.07C65.32,383.3,65.45,383.31,65.45,383.46z M63.26,383.29l0.1,21.56
					l-0.66-0.03l-0.11-21.64C62.59,383.18,63.12,383.2,63.26,383.29z M62.03,404.78l-0.33-0.01l-0.1-21.24
					c0-0.16-0.2-0.48,0.33-0.38L62.03,404.78z"/>
			</g>
			<g>
				<path style="fill-rule:evenodd;clip-rule:evenodd;fill:#4D3B2D;" d="M180.5,398.29l0.03,4.63l-32.24-1.59l-0.02-4.57
					L180.5,398.29z M179.76,364.53c-1.16-0.04-2.33-0.08-3.49-0.78c0,0-1.17-0.04-1.16,1.28l0.14,29.05l-4.06-0.19l-0.14-29.66
					l-4.62-0.16c1.71-3.89,4-7.77,6.3-11.65C175.07,355.79,177.99,360.51,179.76,364.53z M161.82,363.91l-4.59-0.16l0.15,29.51
					l-4.58-0.21l-0.14-29.46c-0.57-0.67-1.14-0.04-4.55-0.16c2.25-3.84,4.51-8.35,6.78-12.2
					C157.19,355.23,159.51,359.89,161.82,363.91z"/>
			</g>
			<g>
				<path style="fill-rule:evenodd;clip-rule:evenodd;fill:#4E3C32;" d="M305.54,370.97c0.61-6.22,3.8-8.19-0.07-14.56l32.36,0.98
					l0.02,4.21c-1.92,9.04-11,18.5-19.42,17.48l0.12,26.46c3.25,2.25,8.43,1.8,13,5.52l-29.66-1.47c1.26-3.4,8.95-2.34,12.79-4.23
					l-0.12-25.03l-1.29-1.44c-7.69,0.39-19.86-13.18-18.64-22.8l4.45,0.13C301.02,361.12,302.96,366.03,305.54,370.97z"/>
			</g>
			<g>
				<path style="fill-rule:evenodd;clip-rule:evenodd;fill:#4B3B2E;" d="M261.5,376.23c-1.24-0.73-3.72-2.19-4.95-2.23
					c-1.86-0.07-3.69,1.9-5.54,1.83c-1.23-0.05-3.69-2.18-4.92-2.22c-1.83-0.07-4.27,0.52-5.48,2.5l0.12,25.71
					c-0.6,2-2.42,3.94-4.24,3.85c-2.43-0.12-3.66-3.55-3.07-5.54c0.61,0.7,1.23,2.75,3.06,4.19c0.61,0.03,1.82-1.26,2.42-1.91
					c-0.1-20.96,0.51-21.61,0.5-23.64c-0.03-5.41-4.89-5.59-6.11-5.64c-1.81-0.06-3.62,1.89-5.43,1.82
					c-1.21-0.04-3.63-2.15-4.84-2.2c-1.8-0.07-3,0.56-4.2,1.19l-0.01-2.69c2.34-12,13.18-17.72,20.47-17.5
					C247.84,354,261.43,361.91,261.5,376.23z"/>
			</g>
			<g>
				<g>
					<path style="fill-rule:evenodd;clip-rule:evenodd;fill:#4D3B2D;" d="M47.53,223.46c-0.05-10.27,5.52-19.43,16.91-19.7
						c7.68-0.18,11.07,2.18,14.64,4.54l-0.09-19.75c-3.58-2.23-6.45-4.15-15.07-3.88c-21.14,0.66-31.24,19.95-31.15,39.03
						c0.09,19.18,10.45,37.04,32.11,37.01c7.6-0.01,11.92-2.17,14.43-3.95l-0.08-18.62c-3.04,2.26-6.84,4.42-14.6,4.48
						C53.24,242.71,47.58,233.74,47.53,223.46z"/>
					<path style="fill-rule:evenodd;clip-rule:evenodd;fill:#4D3B2D;" d="M109.4,208.47l5.92,23.62l-11.86,0.14L109.4,208.47z
						 M100.22,183.53l-18.96,75.65l15.26-0.02l2.86-11.13l20.23-0.13l2.93,11.21l15.67-0.02l-20.26-76.12L100.22,183.53z"/>
					<path style="fill-rule:evenodd;clip-rule:evenodd;fill:#4D3B2D;" d="M155,214.05l-0.07-15.58l7.41-0.18
						c4.25-0.11,6.98,3.11,7,7.71c0.03,4.6-2.09,7.82-6.93,7.91L155,214.05z M155.22,259.06l-0.14-28.23l16.27,28.2l18.46-0.03
						l-17.64-29.92c8.28-3.3,14.12-11.66,14.07-23.45c-0.08-15.41-10.01-24.44-22.44-24.05l-24.92,0.78l0.37,76.72L155.22,259.06z"
						/>
					<path style="fill-rule:evenodd;clip-rule:evenodd;fill:#4D3B2D;" d="M240.45,205.94l13.81-10.8
						c-6.8-9.86-17.48-15.97-29.31-15.59c-19.62,0.61-35.18,18.61-35.07,40.47c0.11,23.26,15.84,41.13,35.46,41.11
						c19.91-0.01,36.13-18.39,36.02-42.29c-0.01-1.6-0.12-3.2-0.22-4.68l-34.27,0.62l0.07,15.02l15.3-0.19
						c-3.22,7.37-9.47,12.34-16.7,12.4c-10.48,0.08-18.91-10.17-18.97-22.38c-0.05-11.78,8.28-21.33,18.76-21.59
						C231.48,197.89,236.89,201.02,240.45,205.94z"/>
					<path style="fill-rule:evenodd;clip-rule:evenodd;fill:#4D3B2D;" d="M279.22,219.43c-0.06-12.27,8.78-22.37,19.9-22.64
						c11.21-0.28,20.35,9.53,20.41,21.99c0.06,12.45-8.99,22.56-20.2,22.65C288.22,241.51,279.28,231.7,279.22,219.43z
						 M337.69,218.6c-0.11-23.56-17.53-42.04-38.66-41.38c-20.82,0.65-37.24,19.68-37.13,42.6c0.11,22.91,16.71,41.27,37.53,41.25
						C320.57,261.05,337.8,242.15,337.69,218.6z"/>
				</g>
				<g>
					<path style="fill-rule:evenodd;clip-rule:evenodd;fill:#4D3B2D;" d="M81.48,98.4l6.79-18.28c-5.88-3.36-11.95-5.56-21.75-4.82
						c-16.66,1.25-26.97,13.43-26.89,29.43c0.05,11.41,5.92,20.14,20.82,22.56c6.99,1,10.56,4.58,10.59,10.6
						c0.03,4.77-3.29,9.2-9.61,9.49c-7.38,0.34-13.16-3-18.02-7.49l-8.86,16.24c7.06,6.6,14.94,11.41,28.19,10.9
						c18.96-0.73,29.03-16.11,28.96-31.05c-0.07-13.8-7.91-25.11-23.69-26.79c-6.98-0.7-9.19-3.19-9.2-6.81
						c-0.03-5,3.81-7.88,8.57-8.2C72.84,93.81,77.09,95.66,81.48,98.4z"/>
					<polygon style="fill-rule:evenodd;clip-rule:evenodd;fill:#4D3B2D;" points="144.45,90.01 144.35,69.65 101.83,72.84 
						102.27,165.51 144.81,163.88 144.71,143.52 121.07,144.62 120.99,127.98 143.27,126.81 143.17,107.15 120.89,108.5 
						120.81,91.75 					"/>
					<polygon style="fill-rule:evenodd;clip-rule:evenodd;fill:#4D3B2D;" points="221.23,121.23 178.83,67.07 160.77,68.42 
						161.22,162.64 181.01,161.88 180.74,107.26 221.41,160.31 242.58,159.5 242.11,62.33 220.95,63.91 					"/>
					<path style="fill-rule:evenodd;clip-rule:evenodd;fill:#4D3B2D;" d="M279.06,137.44l-0.27-56.43l5.84-0.39
						c15.57-1.04,24.88,12.29,24.95,27.08c0.07,14.79-8.98,28.75-24.68,29.47L279.06,137.44z M334.04,106.18
						c-0.12-25.2-15.8-49.54-46.13-47.27L257.4,61.2l0.48,98.33l30.51-1.17C318.86,157.19,334.16,131.23,334.04,106.18z"/>
				</g>
			</g>
		</g>
		<path style="fill-rule:evenodd;clip-rule:evenodd;fill:#4D3B2D;" d="M264.68,351.19l0.28,59.2l-51.34-2.59l-0.28-58.08
			L264.68,351.19z M269.71,345.49l0.34,71.01l-61.26-3.23l-0.33-69.41L269.71,345.49z"/>
		<path style="fill-rule:evenodd;clip-rule:evenodd;fill:#4D3B2D;" d="M344.17,353.46l0.29,60.95l-54.11-2.74l-0.29-59.75
			L344.17,353.46z M349.77,347.61l0.35,73.1l-65.14-3.43l-0.34-71.4L349.77,347.61z"/>
		<path style="fill-rule:evenodd;clip-rule:evenodd;fill:#4D3B2D;" d="M189,349.02l0.27,57.55l-48.53-2.45l-0.27-56.49L189,349.02z
			 M193.75,343.47l0.34,69.03l-57.92-3.05l-0.33-67.51L193.75,343.47z"/>
	</g>
</g>
<g>
	<path style="fill-rule:evenodd;clip-rule:evenodd;fill:#4D3B2D;" d="M227.86,301.76c0-1.4-1.12-2.58-2.46-2.58
		c-1.33,0-2.45,1.18-2.45,2.58s1.12,2.58,2.45,2.58C226.74,304.34,227.86,303.16,227.86,301.76z"/>
	<path style="fill-rule:evenodd;clip-rule:evenodd;fill:#4D3B2D;" d="M232.66,292.42c0,6.88,4.89,11.89,11.46,11.89
		c3.5,0,5.46-1.06,6.89-2.18v-4.05c-1.65,1.61-3.92,3.05-6.89,3.05c-4.77,0-8.32-3.72-8.32-8.71c0-4.99,3.55-8.71,8.32-8.71
		c3.07,0,5.24,1.44,6.89,2.94v-4c-1.91-1.22-3.71-2.1-6.89-2.1C237.55,280.55,232.66,285.48,232.66,292.42z"/>
	<path style="fill-rule:evenodd;clip-rule:evenodd;fill:#4D3B2D;" d="M257.81,292.47c0-4.82,3.8-8.76,8.44-8.76
		c4.65,0,8.44,3.94,8.44,8.76c0,4.83-3.79,8.77-8.44,8.77C261.61,301.24,257.81,297.3,257.81,292.47z M277.67,292.42
		c0-6.55-5.12-11.87-11.42-11.87s-11.53,5.32-11.53,11.87c0,6.54,5.23,11.89,11.53,11.89S277.67,298.96,277.67,292.42z"/>
	<path style="fill-rule:evenodd;clip-rule:evenodd;fill:#4D3B2D;" d="M287,301.76c0-1.4-1.12-2.58-2.46-2.58
		c-1.33,0-2.45,1.18-2.45,2.58s1.12,2.58,2.45,2.58C285.88,304.34,287,303.16,287,301.76z"/>
	<path style="fill-rule:evenodd;clip-rule:evenodd;fill:#4D3B2D;" d="M294.89,280.74h-3.09v14.53c0,5.97,3.25,8.91,8.4,8.91
		c5.14,0,8.37-2.94,8.37-8.91v-14.53h-3.06v14.02c0,4.56-1.59,6.65-5.31,6.65c-3.67,0-5.31-2.09-5.31-6.65V280.74z"/>
	<polygon style="fill-rule:evenodd;clip-rule:evenodd;fill:#4D3B2D;" points="318.72,289.88 318.72,263.51 315.63,263.51 
		315.63,303.21 318.72,303.21 318.72,293.83 319.52,293.12 329.69,303.21 333.93,303.21 321.59,290.85 331.17,281.18 327.31,281.18 
			"/>
</g>
</svg>
